<svg id="图层_1" data-name="图层 1" xmlns="http://www.w3.org/2000/svg" viewBox="0 0 290.44 50"><path d="M192.07,33.13a3.42,3.42,0,1,1,0-6.84s21.22-.05,27.77,0c3.22-3.3,5.54-9.82,6.13-15.63H215.63a18,18,0,0,1-2.81,8.28L200.65,19a30.83,30.83,0,0,0,1.22-7.35h-10.1a14.29,14.29,0,0,1-1.89,7.79H138.77v6.84h18.44a3.42,3.42,0,0,1,0,6.84H138.77V40H284.28V33.13Zm-17.28,0a3.42,3.42,0,1,1,3.42-3.42A3.42,3.42,0,0,1,174.79,33.13Z"/><path d="M22.41,39.73c-1.73,1.21-2.82,1.21-4.82,1.21A11.5,11.5,0,0,1,9.15,37.8,11,11,0,0,1,6,29.54a11.46,11.46,0,0,1,3.18-8.41,10.45,10.45,0,0,1,7.38-3.22,20.25,20.25,0,0,1,5.63.58v3.1a10.45,10.45,0,0,0-5.26-1.13,6.73,6.73,0,0,0-5.57,3,10,10,0,0,0-1.77,5.84c0,2.6.68,4.89,2.49,6.38a7.87,7.87,0,0,0,5.44,2A10.49,10.49,0,0,0,22.41,37Z"/><path d="M51.72,19.3v3.1a12.79,12.79,0,0,0-6.34-1.62,6.91,6.91,0,0,0-5.53,2.42C38.39,24.87,38,26.74,38,29.32s.49,4.71,2.15,6.37a7.26,7.26,0,0,0,5.33,2.46A14,14,0,0,0,48.26,38V31.34H44v-3h7.9V39.85a20.71,20.71,0,0,1-6.39,1.09,11.23,11.23,0,0,1-8.29-3.17A11.07,11.07,0,0,1,34,29.54a11.46,11.46,0,0,1,3.19-8.41,11.17,11.17,0,0,1,8.32-3.22A16.92,16.92,0,0,1,51.72,19.3Z"/><path d="M66.31,40.41v-22h6.91a15,15,0,0,1,6.39,1.2q5,2.36,5,9.35a12,12,0,0,1-2.48,7.89,8.59,8.59,0,0,1-3.83,2.72,18.55,18.55,0,0,1-6.06.81Zm3.6-3.14h1.71c3.26,0,5.58-.6,7-1.78s2.08-3.18,2.08-6-.63-4.86-1.88-6.09-3.32-1.83-6.24-1.83H69.91Z"/><path d="M94.54,40.41l8.67-22h3.37l8.67,22h-3.58l-2.5-6.15-9.35,0-2.37,6.17ZM101,31.17h7.22l-3.63-8.8Z"/></svg>