<?xml version="1.0" encoding="utf-8"?>
<!-- Generator: Adobe Illustrator 24.3.0, SVG Export Plug-In . SVG Version: 6.00 Build 0)  -->
<svg version="1.1" id="图层_1" xmlns="http://www.w3.org/2000/svg" xmlns:xlink="http://www.w3.org/1999/xlink" x="0px" y="0px"
	 viewBox="0 0 768 188" style="enable-background:new 0 0 768 188;" xml:space="preserve">
<path d="M667,29L667,29c-1,0-1,0-1-1v-1c0-1,0-1,1-2c0,0,1,0,2,0h2c0,0,0,0,0,1l56,138c1-2,1-4,0-7l-2-8L669,10l-8,18l49,118
	c1,3,3,6,5,9s4,6,6,9L667,29z M638,133L638,133c-3,0-6,0-9-1s-6-2-9-3l-15,39c-2,5-1,8,2,9c3,2,8,3,17,3c1,0,2,0,3,1c0,1,0,1,0,2
	s0,1,0,2c-1,1-2,1-3,1c-7,0-13-1-17-3c-4-1-7-3-8-5c-3,3-6,5-10,6s-10,2-17,2c-1,0-1,0-2-1s-1-1-1-2s0-1,1-2s1-1,2-1c9,0,16-1,19-3
	s6-5,8-10l16-40c-3-1-6-3-9-6s-6-6-7-9c-1-1-1-2,0-3c0-1,0-1,1-1s1,0,2,0c1,1,1,1,2,2c1,3,3,5,6,7c2,2,4,4,7,6L666,2c0-1,0-1,1-2
	c1,0,1,0,2,0s1,0,2,0c0,1,0,1,0,2l59,146c1,3,2,7,3,11c0,5-1,9-3,12c5,3,11,6,17,7s12,2,18,2c1,0,2,0,3,1c0,1,0,1,0,2s0,1,0,2
	c-1,1-2,1-3,1c-5,0-11-1-16-2s-11-3-16-6l1,2v1v1c0,1,0,1,0,1c-1,1-2,1-3,1s-1,0-1-1c-1,0-1,0-1-1l-3-6c-3,3-7,5-12,7s-12,3-21,3
	c-1,0-1,0-1-1c-1-1-1-1-1-2s0-1,1-2c0-1,0-1,1-1c8,0,14-1,19-2s8-3,11-6c-4-3-7-6-10-10s-6-8-8-13L659,35l-37,90c3,1,5,2,8,2
	c3,1,5,1,7,1h52c1,0,1,0,2,0c1,1,1,2,1,3s0,1-1,1c-1,1-1,1-2,1H638z M461,164L461,164c3,5,8,9,14,12c5,3,11,4,17,4h10
	c29,0,47-11,56-32c8-21,12-39,12-54s-4-33-12-54c-9-21-27-32-56-32h-10c-6,0-12,1-17,4c-6,3-11,7-14,12c3,4,5,8,6,13s2,11,2,17v80
	c0,6-1,11-2,16S464,160,461,164z M423,180L423,180c6,0,12-1,18-4c5-3,10-7,13-12c-2-4-4-9-5-14s-2-10-2-16V54c0-5,1-11,2-16
	s3-10,5-14c-3-5-8-9-13-12c-6-3-12-4-18-4c-1,0-1,0-2-1c-1,0-1-1-1-2s0-1,1-2c1,0,1,0,2,0c6,0,12,1,18,3c5,3,10,6,14,11V7
	c0-1,0-1,1-2c0-1,1-1,2-1s1,0,2,1c0,1,0,1,0,2v10c5-5,10-8,15-11c5-2,11-3,17-3h10c31,0,54,8,69,24s22,38,22,67s-7,52-22,68
	s-38,24-69,24h-10c-6,0-12-1-17-4s-10-6-15-10v10c0,1,0,1,0,1c-1,1-1,1-2,1s-2,0-2-1c-1,0-1,0-1-1v-10c-4,4-9,7-14,10
	c-6,3-12,4-18,4c-1,0-1,0-2-1s-1-1-1-2s0-1,1-2S422,180,423,180z M452,54L452,54v80c0,3,0,7,1,10c0,3,1,6,2,9V35c-1,3-2,6-2,9
	C452,47,452,51,452,54z M463,54L463,54c0-3,0-7,0-10c-1-3-2-6-3-9v118c1-3,2-6,3-9c0-3,0-7,0-10V54z M542,173L542,173
	c15-6,27-16,35-29c7-13,11-30,11-50c0-19-4-36-11-50c-8-13-19-23-34-29c13,9,21,22,26,38c4,16,6,30,6,41s-2,25-6,41
	C564,151,555,164,542,173z M579,94L579,94c0-9-1-16-2-23c-1-6-4-13-7-22c0-1,0-1,0-2h-1c0-1,0-1,1-2s1-1,2-1s1,0,2,0c0,1,0,2,1,3
	c3,9,6,16,7,23s2,15,2,24s-1,17-2,24s-4,15-7,24l-1,1c-1,1-1,1-2,1s-1,0-2-1c-1,0-1-1-1-2l1-1l0,0c3-9,6-17,7-24
	C578,110,579,103,579,94z M301,183L301,183c0-1,0-1,1-1c0,0,0,0,0-1l18-29c1,0,1,0,2-1c0,0,0,0,1,0s1,0,2,0c0,1,0,2,0,3l0,0v1
	l-19,29c0,1,0,1,0,1c-1,1-1,1-2,1s-1,0-2-1S301,184,301,183z M341,8L341,8c-4,0-7,0-10,1s-7,1-10,2h75c1,0,1,0,2,1s1,1,1,2s0,1-1,2
	s-1,1-2,1h-73c5,1,9,2,13,2c4,1,8,1,13,1h51l6-12H341z M289,5L289,5c0-1,0-1,1-2c0,0,1,0,2,0h1c0,0,0,0,1,1l8,4c3,1,5,2,7,3
	c5-3,10-5,15-6s10-2,17-2h70c1,0,1,0,2,0c0,1,0,1,0,2v1v1l-95,177l-1,1c-1,1-1,1-2,1s-1,0-2-1s-1-1-1-2s0-1,1-1c0,0,0,0,0-1l60-111
	l-77,114l-1,1c-1,1-1,1-2,1s-1,0-1-1c-1-1-1-1-1-2v-1v-1L397,25h-48c-7,0-13-1-18-2c-6-1-13-3-21-6c-5,4-8,9-11,14s-5,11-5,18
	c0,1,0,1,0,1c-1,1-1,1-2,1s-2,0-2-1c-1,0-1,0-1-1c0-7,1-13,4-18c2-5,5-10,10-14h-9c-1,0-1,0-1-1c-1-1-1-1-1-2s0-1,1-2c0-1,0-1,1-1h3
	c-1-1-2-1-3-2c-1,0-3,0-4-1s-1-1-1-2V5z M166,183L166,183c0-1,0-1,1-1c0,0,0,0,0-1l18-29c1,0,1,0,2-1c0,0,0,0,1,0s1,0,2,0
	c0,1,0,2,0,3l0,0v1l-19,29c0,1,0,1,0,1c-1,1-1,1-2,1s-1,0-2-1S166,184,166,183z M206,8L206,8c-4,0-7,0-10,1s-6,1-9,2h74c1,0,1,0,2,1
	s1,1,1,2s0,1-1,2s-1,1-2,1h-73c5,1,9,2,13,2c4,1,8,1,13,1h51l6-12H206z M154,5L154,5c0-1,0-1,1-2c0,0,1,0,2,0h1c0,0,0,0,1,1l8,4
	c3,1,5,2,7,3c5-3,10-5,15-6s11-2,17-2h70c1,0,1,0,2,0c0,1,0,1,0,2v1v1l-95,177l-1,1c-1,1-1,1-2,1s-1,0-1-1c-1-1-1-1-1-2v-1v-1
	l60-111l-77,114c0,1,0,1-1,1c-1,1-1,1-2,1s-1,0-1-1c-1-1-1-1-1-2v-1v-1L262,25h-48c-7,0-13-1-18-2c-6-1-13-3-21-6c-5,4-8,9-11,14
	s-5,11-5,18c0,1,0,1,0,1c-1,1-1,1-2,1s-2,0-2-1c-1,0-1,0-1-1c0-7,1-13,4-18c2-5,5-10,10-14h-9c-1,0-1,0-1-1c-1-1-1-1-1-2s0-1,1-2
	c0-1,0-1,1-1h3c-1-1-2-1-3-2c-1,0-3,0-4-1c0-1,0-1,0-2C154,6,154,6,154,5z M77,5L77,5c-14,0-26,9-37,27C29,51,23,71,23,94
	c0,27,6,49,18,64c12,16,24,24,35,25h1c17,0,31-5,41-14s17-19,21-31c0-1,0-1,1-2c0,0,0,0,1,0s1,0,2,0c1,1,1,1,1,2v1c0,1,0,1-1,2
	c-1,5-3,10-6,14c-3,5-6,9-10,13h2c3,0,7,1,10,3c3,3,5,7,5,12c0,1,0,1-1,2s-1,1-2,1s-1,0-1-1c-1-1-1-1-1-2c0-3-1-5-3-7c-3-1-6-2-10-2
	c-1,0-3,0-4,0c-1,1-3,2-4,3c-5,3-10,5-17,7c-7,3-15,4-24,4c-22,0-40-8-55-25S0,123,0,94s7-52,22-69S55,0,77,0c9,0,17,1,24,3
	c7,3,12,6,17,9l4,2c1,1,3,1,4,1c4,0,7-1,9-3s3-4,3-7c0-1,0-1,1-2c1,0,1,0,2,0s1,0,2,0c0,1,0,1,0,2c0,5-1,9-4,11c-3,3-7,4-10,4h-2
	c4,4,7,8,10,13s5,10,6,15c1,0,1,0,1,1v1c0,1,0,1-1,2s-1,1-2,1s-1,0-1-1c-1,0-1-1-1-2c-4-12-11-23-21-32S94,5,77,5z M18,94L18,94
	c0-18,3-35,10-50s15-26,25-34c-15,5-26,15-35,30S5,73,5,94c0,22,5,40,14,55s20,25,34,30c-9-7-17-18-24-32S18,115,18,94z M14,94
	L14,94c0,9,1,16,2,22c1,7,4,15,7,24c1,0,1,0,1,0v1c0,1,0,2-1,2c-1,1-1,1-2,1s-1,0-1-1c-1,0-1,0-1-1c-4-9-7-17-8-24s-2-15-2-24
	s1-17,2-24s4-14,8-23c0-1,0-2,1-3c0,0,0,0,1,0s1,0,2,1s1,1,1,2l0,0c0,1,0,1-1,2c-3,9-6,16-7,22C15,78,14,85,14,94z"/>
</svg>
