<?xml version="1.0" encoding="utf-8"?>
<!-- Generator: Adobe Illustrator 24.3.0, SVG Export Plug-In . SVG Version: 6.00 Build 0)  -->
<svg version="1.1" id="图层_1" xmlns="http://www.w3.org/2000/svg" xmlns:xlink="http://www.w3.org/1999/xlink" x="0px" y="0px"
	 viewBox="0 0 146.8 56.8" style="enable-background:new 0 0 146.8 56.8;" xml:space="preserve">
<path d="M134.3,46.3c-4.5,0-8.2-0.6-11-2.7l0,0l-0.2-0.2c-0.4-0.3-0.8-0.6-1.1-1c-2.2-2.4-3.6-6.3-3.8-12.2l0,0c0-0.5,0-1.1,0-1.7
	c0-12.3,5.1-18,15.9-18c3.9,0,7.7,0.7,11.3,2.2l1.4,0.5v-11L146.1,2c-3.8-1.3-7.7-1.9-11.7-2c-10.2,0-17.5,2.4-22.4,7.2
	s-7.3,12.1-7.3,22.1c0,1.1,0,2.2,0.1,3.3c0,0.1,0,0.2,0,0.3c0.2,3.7,1.1,7.4,2.6,10.8c1.5,3.4,3.9,6.3,7,8.4
	c6.2,4.1,14.3,4.6,19.9,4.6c3.9-0.1,7.8-0.7,11.6-1.7l0.8-0.2V43.7l-1.4,0.5C141.9,45.6,138.1,46.3,134.3,46.3z"/>
<path d="M73.4,1h-19v29.4c0,0,0,0.1,0,0.1l0,0c0,13.9,0,13.9,0,13.9c0,11.6,0,11.6,0,11.6h19c18.2,0,24.3-7,24.3-27.6
	c0-10.1-1.8-16.8-5.5-21.1S82.4,1,73.4,1z M73.3,45.5h-5.8v-34h5.8c7.4,0,11.2,2.6,11.2,17C84.5,43,81,45.5,73.3,45.5L73.3,45.5z"/>
<path d="M23.5,33.9h10.5v2.8c0,8-5.4,9.2-8.6,9.2c-9.5,0-12.2-3.9-12.2-17.5c0-12.5,4.2-17.9,14.1-17.9c4.9-0.1,9.7,0.9,14.1,3.1
	l1.4,0.6V3.3L42.2,3C37,1.1,31.5,0.1,26,0.1c-4.9,0-12.1,0.5-17.5,4.8C2.8,9.5,0,17.3,0,28.6c-0.1,4.3,0.4,8.5,1.4,12.7H1.3
	c0.7,3.3,2.3,6.3,4.4,8.9c2.5,2.8,5.9,4.7,9.5,5.5c3.1,0.7,6.4,1.1,9.6,1c7.3,0,12.9-2,16.5-5.9c3-3.4,4.6-7.8,4.5-12.3V23.4H23.5
	V33.9z"/>
</svg>
