<?xml version="1.0" encoding="utf-8"?>
<!-- Generator: Adobe Illustrator 24.3.0, SVG Export Plug-In . SVG Version: 6.00 Build 0)  -->
<svg version="1.1" id="图层_1" xmlns="http://www.w3.org/2000/svg" xmlns:xlink="http://www.w3.org/1999/xlink" x="0px" y="0px"
	 viewBox="0 0 140 140" style="enable-background:new 0 0 140 140;" xml:space="preserve">
<style type="text/css">
	.st0{fill:#E0E0E0;}
	.st1{fill:#C2C2C2;}
</style>
<path class="st0" d="M0,0h140v140H0V0z"/>
<path class="st1" d="M92,88H48c-1.1,0-2-0.9-2-2V54c0-1.1,0.9-2,2-2h44c1.1,0,2,0.9,2,2v32C94,87.1,93.1,88,92,88z M68.3,73.6
	l-3.4-3.5L55.2,81h30.1L74.6,64.6L68.3,73.6L68.3,73.6z M62.9,64.5c0-2.1-1.7-3.8-3.8-3.8s-3.8,1.7-3.8,3.8c0,2.1,1.7,3.8,3.8,3.8
	S62.9,66.6,62.9,64.5L62.9,64.5z"/>
</svg>
