<svg id="图层_1" data-name="图层 1" xmlns="http://www.w3.org/2000/svg" viewBox="0 0 119.79 50"><path d="M34.41,31.17c-1.53-2-6.38-7.84-6.38-7.84L41.76,6.52H30.93A8.41,8.41,0,0,1,32.19,8.1a2.88,2.88,0,0,1,.49,1c.15.9-.58,1.69-.95,2.23-.25.35-.77,1-1,1.32L21.52,23.59V13.3a16.44,16.44,0,0,1,.17-2.89,6.46,6.46,0,0,1,1.59-3.26q.28-.33.6-.63h-11a7.36,7.36,0,0,1,1.83,2.66A8.62,8.62,0,0,1,15.22,12c0,.46,0,.91,0,1.35V37.23a16.69,16.69,0,0,1-.21,3,6.82,6.82,0,0,1-1.64,3.31,5.91,5.91,0,0,1-.48.52h11A7.59,7.59,0,0,1,22,41.23a9.17,9.17,0,0,1-.5-3V25L32.73,39.15a21.26,21.26,0,0,0,3.19,3.17A8.55,8.55,0,0,0,40.72,44a17.17,17.17,0,0,0,2.27.07h3.3C42.17,42.6,36.25,33.61,34.41,31.17Z"/><path d="M98.08,31.17c-1.52-2-6.37-7.84-6.37-7.84L105.44,6.52H94.61A8.41,8.41,0,0,1,95.87,8.1a2.85,2.85,0,0,1,.48,1c.16.9-.58,1.69-.95,2.23-.24.35-.76,1-1,1.32L85.2,23.59V13.3a16.43,16.43,0,0,1,.16-2.89A6.46,6.46,0,0,1,87,7.15q.28-.33.6-.63h-11a7.36,7.36,0,0,1,1.83,2.66A8.62,8.62,0,0,1,78.9,12c0,.46,0,.91,0,1.35V37.23a16.69,16.69,0,0,1-.21,3,6.82,6.82,0,0,1-1.64,3.31,5.91,5.91,0,0,1-.48.52h11a7.59,7.59,0,0,1-1.86-2.83,9.16,9.16,0,0,1-.49-3V25L96.41,39.15a21.26,21.26,0,0,0,3.19,3.17A8.52,8.52,0,0,0,104.4,44a17.17,17.17,0,0,0,2.27.07H110C105.85,42.6,99.93,33.61,98.08,31.17Z"/><path d="M71,6.48c4.75,0,4.73,3.33,4.5,6.46-1.5-1.35-1.73-1.85-4.69-1.85-5.13,0-5.54-.06-8.48,0V37.22q0,.54,0,1.08a10,10,0,0,0,.47,2.93A7,7,0,0,0,64.31,44H53.84a6,6,0,0,0,.47-.52c.83-.92.81-2,1.08-3.31a15.76,15.76,0,0,0,.19-3V11.09l-9.37,0c-3,0-3.68.09-6.28,1.71a35.57,35.57,0,0,1,4.59-6.33Z"/></svg>