<?xml version="1.0" encoding="utf-8"?>
<!-- Generator: Adobe Illustrator 24.3.0, SVG Export Plug-In . SVG Version: 6.00 Build 0)  -->
<svg version="1.1" id="图层_1" xmlns="http://www.w3.org/2000/svg" xmlns:xlink="http://www.w3.org/1999/xlink" x="0px" y="0px"
	 viewBox="0 0 177.8 177.8" style="enable-background:new 0 0 177.8 177.8;" xml:space="preserve">
<style type="text/css">
	.st0{fill:none;}
	.st1{fill:#FFFFFF;}
</style>
<g>
	<rect x="1.4" y="1.4" class="st0" width="175" height="175"/>
	<g>
		<rect x="132.6" y="121.3" class="st0" width="36.5" height="36.5"/>
		<g>
			<path class="st1" d="M165.5,132.6c-0.8-0.6-1.9-0.5-2.6,0.3l-0.5,0.7c-1-1.3-2.5-2.2-4.3-2.4l-5.7-0.7c-1-0.1-1.9,0.6-2,1.6
				c-0.1,1,0.6,1.9,1.6,2l5.7,0.7c1.2,0.1,2.2,1.1,2.4,2.3l1.9,12.1c0.1,0.9,0.9,1.5,1.8,1.5c0.1,0,0.2,0,0.3,0
				c1-0.2,1.7-1.1,1.5-2.1l-1.7-10.9l1.9-2.6C166.5,134.3,166.3,133.2,165.5,132.6z"/>
			<path class="st1" d="M138.4,132.4l3.8,0.5c-0.5,1.2-0.5,2.6-0.2,3.9l1.7,6.1c0.2,0.8,1,1.3,1.8,1.3c0.2,0,0.3,0,0.5-0.1
				c1-0.3,1.5-1.3,1.3-2.2l-1.7-6.1c-0.3-1,0-2,0.7-2.7l8-7.9c0.7-0.7,0.7-1.9,0-2.6c-0.7-0.7-1.9-0.7-2.6,0l-6.9,6.8l-5.9-0.8
				c-1-0.1-1.9,0.6-2,1.6C136.7,131.3,137.4,132.3,138.4,132.4z"/>
			<path class="st1" d="M159,141.3c-0.8-0.6-2-0.4-2.5,0.4l-3.2,4.4c-0.6,0.9-1.7,1.3-2.8,1.1l-13.5-3c-1-0.2-2,0.4-2.2,1.4
				c-0.2,1,0.4,2,1.4,2.2l9.5,2.1l1.7,5.7c0.2,0.8,1,1.3,1.7,1.3c0.2,0,0.3,0,0.5-0.1c1-0.3,1.5-1.3,1.2-2.3l-1.1-3.7
				c0.4,0.1,0.9,0.1,1.3,0.1c2,0,4-1,5.2-2.6l3.2-4.4C160,143,159.8,141.8,159,141.3z"/>
			<path class="st1" d="M116.2,105.3v1.8h5.5v-1.8v-5.5v-3.6h-5.5v3.6H109v-9.1v-5.5v-1.8h14.6v32.8H109v5.5h14.6h3.3
				c1.2,0,2.2-1,2.2-2.2v-3.3V83.4v-3.3c0-1.2-1-2.2-2.2-2.2h-3.3H109h-5.5v5.5v1.8h-7.3V78h-5.5v7.3h-5.5v5.5h5.5V98v5.5v3.6h-5.5
				v5.5h5.5v9.1h5.5v-9.1v-5.5v-3.6h3.6V98h-3.6v-7.3h7.3v9.1v3.3c0,1.2,1,2.2,2.2,2.2h3.3H116.2z"/>
			<path class="st1" d="M78,121.7v-5.5h-1.8V83.4v-3.3c0-1.2-1-2.2-2.2-2.2h-3.3H59.7h-3.3c-1.2,0-2.2,1-2.2,2.2v3.3V98h-9.1v-7.3
				h5.5v-5.5h-5.5V78h-5.5v7.3h-5.5v5.5h5.5V98v5.5v3.6h-5.5v5.5h5.5v9.1h5.5v-18.2h9.1v12.8h-5.5v5.5h5.5h3.3c1.2,0,2.2-1,2.2-2.2
				v-3.3v-12.8h3.6V98h-3.6V83.4h10.9v32.8v3.3c0,1.2,1,2.2,2.2,2.2h3.3H78z"/>
			<path class="st1" d="M90.7,63.4h3.6h5.5v-5.5V43.3h3.6v9.1v5.5v12.8h5.5V57.9h7.3v7.3v3.3c0,1.2,1,2.2,2.2,2.2h3.3h7.3v-5.5h-7.3
				v-7.3h3.3c1.2,0,2.2-1,2.2-2.2v-3.3v-9.1h1.8v-5.5h-1.8h-5.5h-3.6v-5.5H129v-5.5h-10.9h-5.5H109v5.5h3.6v5.5v5.5V47h5.5v-3.6h3.6
				v9.1h-5.5H109v-9.1V40c0-1.2-1-2.2-2.2-2.2h-3.3h-3.6v-5.5v-5.5h-5.5h-9.1v5.5h9.1v5.5h-3.6v5.5h3.6v14.6h-3.6V43.3h-5.5v14.6
				v5.5v7.3h5.5V63.4z"/>
			<path class="st1" d="M39.7,34.2h5.5V36v5.5v1.8h5.5v-1.8H67h5.5v1.8H59.7v5.5h12.8v3.6h-3.6H48.8h-5.5v5.5v5.5h5.5v-5.5h20.1v7.3
				H57.9v-3.6h-5.5v3.6v3.3c0,1.2,1,2.2,2.2,2.2h3.3h10.9h5.5H78v-5.5h-3.6v-7.3H78v-5.5v-3.6v-5.5v-1.8V36h-5.5v-3.6v-3.3
				c0-1.2-1-2.2-2.2-2.2H67H56.1v5.5H67V36H50.6v-1.8v-5.5h-5.5h-5.5h-3.3c-1.2,0-2.2,1-2.2,2.2v3.3v36.5h5.5V34.2z"/>
			<path class="st1" d="M141.6,57.9h1.1h4.8h1.1c0.9,0,1.6-0.7,1.6-1.6v-1.1v-5.5h4.8v6.8c0,0.8,0.6,1.4,1.4,1.4s1.4-0.6,1.4-1.4
				v-6.8v-1.1c0-0.9-0.7-1.6-1.6-1.6H155h-4.8h-1.1c-0.9,0-1.6,0.7-1.6,1.6v1.1v5.5h-4.8v-6.8c0-0.8-0.6-1.4-1.4-1.4
				s-1.4,0.6-1.4,1.4v6.8v1.1C139.9,57.2,140.7,57.9,141.6,57.9z"/>
			<path class="st1" d="M141.3,71.6c0.8,0,1.4-0.6,1.4-1.4v-4.1h8.2v3.4c0,0.8,0.6,1.4,1.4,1.4s1.4-0.6,1.4-1.4v-3.4h2.7v-2.7h-2.7
				V62c0-0.8-0.6-1.4-1.4-1.4s-1.4,0.6-1.4,1.4v1.4h-8.2h-1.1c-0.9,0-1.6,0.7-1.6,1.6v1.1v4.1C139.9,71,140.6,71.6,141.3,71.6z"/>
			<path class="st1" d="M141.6,85.3h1.1h10.9v-2.7h-10.9v-5.5h10.9v-2.7h-10.9h-1.1c-0.9,0-1.6,0.7-1.6,1.6v1.1v5.5v1.1
				C139.9,84.5,140.7,85.3,141.6,85.3z"/>
			<path class="st1" d="M153.6,98.9h4.1v-2.7h-4.1v-5.5v-1.1c0-0.9-0.7-1.6-1.6-1.6h-1.1h-8.2h-1.1c-0.9,0-1.6,0.7-1.6,1.6v1.1v2.7
				h2.7v-2.7h8.2v5.5h-10.9v2.7h10.9H153.6z"/>
			<rect x="139.9" y="101.7" class="st1" width="12.3" height="2.7"/>
			<rect x="155" y="101.7" class="st1" width="2.7" height="2.7"/>
			<path class="st1" d="M141.6,118.1h1.1h8.2h1.1c0.9,0,1.6-0.7,1.6-1.6v-1.1v-5.5v-1.1c0-0.9-0.7-1.6-1.6-1.6h-1.1h-8.2h-1.1
				c-0.9,0-1.6,0.7-1.6,1.6v1.1v5.5v1.1C139.9,117.3,140.7,118.1,141.6,118.1z M142.7,109.9h8.2v5.5h-8.2V109.9z"/>
			<path class="st1" d="M115.5,137.2h-1.1H109h-1.1c-0.9,0-1.6,0.7-1.6,1.6v1.1v2.7v2.7v2.7v1.1c0,0.9,0.7,1.6,1.6,1.6h1.1h6.8
				c0.8,0,1.4-0.6,1.4-1.4s-0.6-1.4-1.4-1.4H109v-2.7h5.5h1.1c0.9,0,1.6-0.7,1.6-1.6v-1.1v-2.7v-1.1
				C117.2,137.9,116.4,137.2,115.5,137.2z M114.4,142.7H109v-2.7h5.5V142.7z"/>
			<path class="st1" d="M55.4,137.2h-1.1h-5.5h-1.1c-0.9,0-1.6,0.7-1.6,1.6v1.1v10.9h2.7v-10.9h5.5v10.9H57v-10.9v-1.1
				C57,137.9,56.3,137.2,55.4,137.2z"/>
			<path class="st1" d="M28.3,135.8c0.8,0,1.4-0.6,1.4-1.4s-0.6-1.4-1.4-1.4h-6.8h-1.1c-0.9,0-1.6,0.7-1.6,1.6v1.1v12.3v1.1
				c0,0.9,0.7,1.6,1.6,1.6h1.1h6.8c0.8,0,1.4-0.6,1.4-1.4s-0.6-1.4-1.4-1.4h-6.8v-12.3H28.3z"/>
			<path class="st1" d="M41.7,137.2h-1.1h-5.5H34c-0.9,0-1.6,0.7-1.6,1.6v1.1v8.2v1.1c0,0.9,0.7,1.6,1.6,1.6h1.1h5.5h1.1
				c0.9,0,1.6-0.7,1.6-1.6v-1.1v-8.2v-1.1C43.3,137.9,42.6,137.2,41.7,137.2z M40.6,148.1h-5.5v-8.2h5.5V148.1z"/>
			<path class="st1" d="M69.3,139.9c0.8,0,1.4-0.6,1.4-1.4s-0.6-1.4-1.4-1.4h-6.8h-1.1c-0.9,0-1.6,0.7-1.6,1.6v1.1v8.2v1.1
				c0,0.9,0.7,1.6,1.6,1.6h1.1h6.8c0.8,0,1.4-0.6,1.4-1.4s-0.6-1.4-1.4-1.4h-6.8v-8.2H69.3z"/>
			<path class="st1" d="M82.7,137.2h-1.1h-5.5H75c-0.9,0-1.6,0.7-1.6,1.6v1.1v2.7v2.7v2.7v1.1c0,0.9,0.7,1.6,1.6,1.6h1.1H83
				c0.8,0,1.4-0.6,1.4-1.4s-0.6-1.4-1.4-1.4h-6.8v-2.7h5.5h1.1c0.9,0,1.6-0.7,1.6-1.6v-1.1v-2.7v-1.1
				C84.3,137.9,83.6,137.2,82.7,137.2z M81.6,142.7h-5.5v-2.7h5.5V142.7z"/>
			<path class="st1" d="M89.8,137.2h-1.1c-0.9,0-1.6,0.7-1.6,1.6v1.1v8.2v1.1c0,0.9,0.7,1.6,1.6,1.6h1.1h2.7v-2.7h-2.7v-8.2h5.5
				v10.9H98v-10.9v-2.7h-2.7H89.8z"/>
			<path class="st1" d="M128.1,137.2h-5.5h-1.1c-0.9,0-1.6,0.7-1.6,1.6v1.1v8.2v1.1c0,0.9,0.7,1.6,1.6,1.6h1.1h2.7v-2.7h-2.7v-8.2
				h5.5v10.9h2.7v-10.9v-2.7v-4.1h-2.7V137.2z"/>
			<rect x="100.7" y="133.1" class="st1" width="2.7" height="17.8"/>
		</g>
	</g>
</g>
</svg>
