<?xml version="1.0" encoding="utf-8"?>
<!-- Generator: Adobe Illustrator 24.3.0, SVG Export Plug-In . SVG Version: 6.00 Build 0)  -->
<svg version="1.1" id="图层_1" xmlns="http://www.w3.org/2000/svg" xmlns:xlink="http://www.w3.org/1999/xlink" x="0px" y="0px"
	 viewBox="0 0 177.8 177.8" style="enable-background:new 0 0 177.8 177.8;" xml:space="preserve">
<style type="text/css">
	.st0{fill:none;}
	.st1{fill:#7B5744;}
	.st2{fill:#EEDFBE;}
	.st3{fill:#AF8A6D;}
</style>
<g>
	<rect x="1.4" y="1.4" class="st0" width="175" height="175"/>
	<g>
		<rect x="76.2" y="139.9" class="st0" width="5.5" height="2.7"/>
		<rect x="35.1" y="139.9" class="st0" width="5.5" height="8.2"/>
		<rect x="109" y="139.9" class="st0" width="5.5" height="2.7"/>
		<rect x="142.7" y="109.9" class="st0" width="8.2" height="5.5"/>
		<rect x="90.7" y="43.3" class="st0" width="3.6" height="14.6"/>
		<rect x="109" y="116.2" class="st1" width="14.6" height="5.5"/>
		<rect x="96.2" y="98" class="st2" width="3.6" height="5.5"/>
		<rect x="103.5" y="83.4" class="st3" width="5.5" height="1.8"/>
		<rect x="103.5" y="90.7" class="st3" width="5.5" height="9.1"/>
		<path class="st1" d="M116.3,105.3v-5.5H109h-5.5v3.3c0,1.2,1,2.2,2.2,2.2h3.3H116.3z"/>
		<polygon class="st2" points="123.6,83.4 123.6,78 109,78 103.5,78 103.5,83.4 109,83.4 		"/>
		<path class="st3" d="M123.6,116.2v5.5h3.3c1.2,0,2.2-1,2.2-2.2v-3.3V83.4v-3.3c0-1.2-1-2.2-2.2-2.2h-3.3v5.5V116.2z"/>
		<polygon class="st3" points="116.3,107.1 121.7,107.1 121.7,105.3 121.7,99.8 121.7,96.2 116.3,96.2 116.3,99.8 116.3,105.3 		"/>
		<rect x="85.3" y="107.1" class="st1" width="5.5" height="5.5"/>
		<polygon class="st3" points="90.7,98 90.7,103.5 90.7,107.1 90.7,112.6 90.7,121.7 96.2,121.7 96.2,112.6 96.2,107.1 96.2,103.5 
			96.2,98 96.2,90.7 90.7,90.7 		"/>
		<rect x="90.7" y="78" class="st3" width="5.5" height="7.3"/>
		<polygon class="st1" points="109,85.3 103.5,85.3 96.2,85.3 90.7,85.3 85.3,85.3 85.3,90.7 90.7,90.7 96.2,90.7 103.5,90.7 
			109,90.7 		"/>
		<rect x="54.3" y="83.4" class="st1" width="5.5" height="14.6"/>
		<rect x="54.3" y="103.5" class="st1" width="5.5" height="12.8"/>
		<rect x="45.2" y="85.3" class="st1" width="5.5" height="5.5"/>
		<rect x="34.2" y="85.3" class="st1" width="5.5" height="5.5"/>
		<rect x="34.2" y="107.1" class="st1" width="5.5" height="5.5"/>
		<polygon class="st3" points="39.7,107.1 39.7,112.6 39.7,121.7 45.2,121.7 45.2,103.5 39.7,103.5 		"/>
		<polygon class="st3" points="45.2,90.7 45.2,85.3 45.2,78 39.7,78 39.7,85.3 39.7,90.7 39.7,98 45.2,98 		"/>
		<polygon class="st2" points="45.2,98 39.7,98 39.7,103.5 45.2,103.5 54.3,103.5 59.8,103.5 63.4,103.5 63.4,98 59.8,98 54.3,98 		
			"/>
		<path class="st3" d="M48.8,116.2v5.5h5.5h3.3c1.2,0,2.2-1,2.2-2.2v-3.3h-5.5H48.8z"/>
		<path class="st2" d="M59.8,78h-3.3c-1.2,0-2.2,1-2.2,2.2v3.3h5.5h10.9V78H59.8z"/>
		<path class="st3" d="M76.2,83.4v-3.3c0-1.2-1-2.2-2.2-2.2h-3.3v5.5v32.8h5.5V83.4z"/>
		<path class="st1" d="M78,121.7v-5.5h-1.8h-5.5v3.3c0,1.2,1,2.2,2.2,2.2h3.3H78z"/>
		<rect x="85.3" y="26.9" class="st3" width="9.1" height="5.5"/>
		<rect x="118.1" y="26.9" class="st3" width="10.9" height="5.5"/>
		<rect x="109" y="26.9" class="st3" width="3.6" height="5.5"/>
		<polygon class="st1" points="99.9,32.4 99.9,26.9 94.4,26.9 94.4,32.4 94.4,37.9 99.9,37.9 		"/>
		<rect x="94.4" y="43.3" class="st1" width="5.5" height="14.6"/>
		<rect x="85.3" y="43.3" class="st3" width="5.5" height="14.6"/>
		<rect x="85.3" y="63.4" class="st3" width="5.5" height="7.3"/>
		<polygon class="st2" points="118.1,32.4 118.1,26.9 112.6,26.9 112.6,32.4 112.6,37.9 118.1,37.9 		"/>
		<rect x="112.6" y="43.3" class="st2" width="5.5" height="3.6"/>
		<polygon class="st1" points="118.1,37.9 112.6,37.9 112.6,43.3 118.1,43.3 121.7,43.3 121.7,37.9 		"/>
		<rect x="127.2" y="37.9" class="st1" width="1.8" height="5.5"/>
		<rect x="109" y="52.4" class="st2" width="7.3" height="5.5"/>
		<polygon class="st1" points="116.3,65.2 121.7,65.2 121.7,57.9 121.7,52.4 116.3,52.4 116.3,57.9 		"/>
		<path class="st3" d="M116.3,68.5c0,1.2,1,2.2,2.2,2.2h3.3h7.3v-5.5h-7.3h-5.5V68.5z"/>
		<polygon class="st2" points="99.9,43.3 103.5,43.3 103.5,37.9 99.9,37.9 94.4,37.9 90.7,37.9 90.7,43.3 94.4,43.3 		"/>
		<path class="st3" d="M103.5,52.4v5.5v12.8h5.5V57.9v-5.5v-9.1V40c0-1.2-1-2.2-2.2-2.2h-3.3v5.5V52.4z"/>
		<polygon class="st2" points="94.4,63.4 99.9,63.4 99.9,57.9 94.4,57.9 90.7,57.9 85.3,57.9 85.3,63.4 90.7,63.4 		"/>
		<path class="st3" d="M125,57.9c1.2,0,2.2-1,2.2-2.2v-3.3v-9.1v-5.5h-5.5v5.5v9.1v5.5H125z"/>
		<rect x="56.1" y="26.9" class="st2" width="10.9" height="5.5"/>
		<rect x="34.2" y="34.2" class="st3" width="5.5" height="36.5"/>
		<path class="st1" d="M45.2,34.2v-5.5h-5.5h-3.3c-1.2,0-2.2,1-2.2,2.2v3.3h5.5H45.2z"/>
		<rect x="45.2" y="41.5" class="st2" width="5.5" height="1.8"/>
		<polygon class="st2" points="45.2,36 50.6,36 50.6,34.2 50.6,28.7 45.2,28.7 45.2,34.2 		"/>
		<path class="st1" d="M72.5,32.4v-3.3c0-1.2-1-2.2-2.2-2.2H67v5.5V36h5.5V32.4z"/>
		<rect x="72.5" y="41.5" class="st1" width="5.5" height="1.8"/>
		<polygon class="st1" points="72.5,52.4 74.3,52.4 78,52.4 78,48.8 72.5,48.8 		"/>
		<polygon class="st1" points="68.9,57.9 68.9,65.2 74.3,65.2 74.3,57.9 72.5,57.9 		"/>
		<rect x="43.3" y="57.9" class="st2" width="5.5" height="5.5"/>
		<polygon class="st3" points="57.9,65.2 57.9,70.7 68.9,70.7 74.3,70.7 78,70.7 78,65.2 74.3,65.2 68.9,65.2 		"/>
		<path class="st1" d="M57.9,61.6h-5.5v3.6v3.3c0,1.2,1,2.2,2.2,2.2h3.3v-5.5V61.6z"/>
		<polygon class="st2" points="59.8,43.3 59.8,48.8 72.5,48.8 78,48.8 78,43.3 72.5,43.3 		"/>
		<polygon class="st3" points="45.2,41.5 50.6,41.5 67,41.5 72.5,41.5 78,41.5 78,36 72.5,36 67,36 50.6,36 45.2,36 		"/>
		<polygon class="st3" points="72.5,52.4 68.9,52.4 48.8,52.4 43.3,52.4 43.3,57.9 48.8,57.9 68.9,57.9 72.5,57.9 74.3,57.9 
			78,57.9 78,52.4 74.3,52.4 		"/>
		<rect x="142.7" y="115.3" class="st3" width="8.2" height="2.7"/>
		<rect x="142.7" y="82.5" class="st3" width="10.9" height="2.7"/>
		<rect x="153.6" y="63.4" class="st3" width="2.7" height="2.7"/>
		<rect x="142.7" y="63.4" class="st3" width="8.2" height="2.7"/>
		<path class="st2" d="M142.7,48.3c0-0.8-0.6-1.4-1.4-1.4c-0.8,0-1.4,0.6-1.4,1.4v6.8h2.7V48.3z"/>
		<path class="st2" d="M155,56.5c0,0.8,0.6,1.4,1.4,1.4c0.8,0,1.4-0.6,1.4-1.4v-6.8H155V56.5z"/>
		<rect x="147.5" y="49.7" class="st2" width="2.7" height="5.5"/>
		<path class="st3" d="M155,49.7h2.7v-1.1c0-0.9-0.7-1.6-1.6-1.6H155h-4.8h-1.1c-0.9,0-1.6,0.7-1.6,1.6v1.1h2.7H155z"/>
		<path class="st3" d="M141.6,57.9h1.1h4.8h1.1c0.9,0,1.6-0.7,1.6-1.6v-1.1h-2.7h-4.8H140v1.1C140,57.2,140.7,57.9,141.6,57.9z"/>
		<path class="st2" d="M150.9,69.5c0,0.8,0.6,1.4,1.4,1.4c0.8,0,1.4-0.6,1.4-1.4v-3.4v-2.7V62c0-0.8-0.6-1.4-1.4-1.4
			c-0.8,0-1.4,0.6-1.4,1.4v1.4v2.7V69.5z"/>
		<path class="st2" d="M141.3,71.6c0.8,0,1.4-0.6,1.4-1.4v-4.1v-2.7h-1.1c-0.9,0-1.6,0.7-1.6,1.6v1.1v4.1
			C140,71,140.6,71.6,141.3,71.6z"/>
		<path class="st2" d="M141.6,85.3h1.1v-2.7v-5.5H140v5.5v1.1C140,84.5,140.7,85.3,141.6,85.3z"/>
		<rect x="140" y="96.2" class="st3" width="10.9" height="2.7"/>
		<rect x="153.6" y="96.2" class="st3" width="4.1" height="2.7"/>
		<polygon class="st2" points="153.6,98.9 153.6,96.2 153.6,90.7 150.9,90.7 150.9,96.2 150.9,98.9 		"/>
		<path class="st3" d="M153.6,89.6c0-0.9-0.7-1.6-1.6-1.6h-1.1h-8.2v2.7h8.2h2.7V89.6z"/>
		<path class="st2" d="M141.6,88c-0.9,0-1.6,0.7-1.6,1.6v1.1v2.7h2.7v-2.7V88H141.6z"/>
		<rect x="140" y="101.7" class="st3" width="12.3" height="2.7"/>
		<rect x="155" y="101.7" class="st2" width="2.7" height="2.7"/>
		<path class="st2" d="M150.9,115.3v2.7h1.1c0.9,0,1.6-0.7,1.6-1.6v-1.1v-5.5h-2.7V115.3z"/>
		<path class="st2" d="M141.6,118.1h1.1v-2.7v-5.5H140v5.5v1.1C140,117.3,140.7,118.1,141.6,118.1z"/>
		<path class="st3" d="M150.9,109.9h2.7v-1.1c0-0.9-0.7-1.6-1.6-1.6h-1.1h-8.2h-1.1c-0.9,0-1.6,0.7-1.6,1.6v1.1h2.7H150.9z"/>
		<path class="st3" d="M153.6,77.1v-2.7h-10.9h-1.1c-0.9,0-1.6,0.7-1.6,1.6v1.1h2.7H153.6z"/>
		<rect x="109" y="137.2" class="st2" width="5.5" height="2.7"/>
		<path class="st3" d="M115.5,137.2h-1.1v2.7v2.7h2.7v-2.7v-1.1C117.2,137.9,116.4,137.2,115.5,137.2z"/>
		<rect x="54.3" y="139.9" class="st3" width="2.7" height="10.9"/>
		<path class="st2" d="M55.4,137.2h-1.1h-5.5v2.7h5.5H57v-1.1C57,137.9,56.3,137.2,55.4,137.2z"/>
		<path class="st3" d="M47.7,137.2c-0.9,0-1.6,0.7-1.6,1.6v1.1v10.9h2.7v-10.9v-2.7H47.7z"/>
		<rect x="40.6" y="139.9" class="st3" width="2.7" height="8.2"/>
		<path class="st2" d="M28.3,135.8c0.8,0,1.4-0.6,1.4-1.4s-0.6-1.4-1.4-1.4h-6.8v2.7H28.3z"/>
		<path class="st2" d="M28.3,150.9c0.8,0,1.4-0.6,1.4-1.4s-0.6-1.4-1.4-1.4h-6.8v2.7H28.3z"/>
		<path class="st3" d="M21.5,133.1h-1.1c-0.9,0-1.6,0.7-1.6,1.6v1.1v12.3v1.1c0,0.9,0.7,1.6,1.6,1.6h1.1v-2.7v-12.3V133.1z"/>
		<path class="st2" d="M41.7,137.2h-1.1h-5.5v2.7h5.5h2.7v-1.1C43.3,137.9,42.6,137.2,41.7,137.2z"/>
		<path class="st2" d="M35.1,148.1v2.7h5.5h1.1c0.9,0,1.6-0.7,1.6-1.6v-1.1h-2.7H35.1z"/>
		<path class="st3" d="M35.1,139.9v-2.7H34c-0.9,0-1.6,0.7-1.6,1.6v1.1v8.2v1.1c0,0.9,0.7,1.6,1.6,1.6h1.1v-2.7V139.9z"/>
		<path class="st2" d="M69.3,139.9c0.8,0,1.4-0.6,1.4-1.4s-0.6-1.4-1.4-1.4h-6.8v2.7H69.3z"/>
		<path class="st2" d="M69.3,150.9c0.8,0,1.4-0.6,1.4-1.4s-0.6-1.4-1.4-1.4h-6.8v2.7H69.3z"/>
		<rect x="76.2" y="137.2" class="st2" width="5.5" height="2.7"/>
		<path class="st2" d="M83,150.9c0.8,0,1.4-0.6,1.4-1.4s-0.6-1.4-1.4-1.4h-6.8v2.7H83z"/>
		<path class="st3" d="M82.7,137.2h-1.1v2.7v2.7h2.7v-2.7v-1.1C84.4,137.9,83.6,137.2,82.7,137.2z"/>
		<rect x="95.3" y="139.9" class="st3" width="2.7" height="10.9"/>
		<polygon class="st2" points="89.8,137.2 89.8,139.9 95.3,139.9 98,139.9 98,137.2 95.3,137.2 		"/>
		<path class="st3" d="M88.7,137.2c-0.9,0-1.6,0.7-1.6,1.6v1.1v8.2h2.7v-8.2v-2.7H88.7z"/>
		<path class="st2" d="M87.1,149.2c0,0.9,0.7,1.6,1.6,1.6h1.1h2.7v-2.7h-2.7h-2.7V149.2z"/>
		<rect x="128.1" y="139.9" class="st3" width="2.7" height="10.9"/>
		<rect x="128.1" y="133.1" class="st3" width="2.7" height="4.1"/>
		<polygon class="st2" points="122.6,137.2 122.6,139.9 128.1,139.9 130.8,139.9 130.8,137.2 128.1,137.2 		"/>
		<path class="st3" d="M121.5,137.2c-0.9,0-1.6,0.7-1.6,1.6v1.1v8.2h2.7v-8.2v-2.7H121.5z"/>
		<path class="st2" d="M119.9,149.2c0,0.9,0.7,1.6,1.6,1.6h1.1h2.7v-2.7h-2.7h-2.7V149.2z"/>
		<path class="st2" d="M115.8,150.9c0.8,0,1.4-0.6,1.4-1.4s-0.6-1.4-1.4-1.4H109v2.7H115.8z"/>
		<path class="st2" d="M109,142.7v2.7h5.5h1.1c0.9,0,1.6-0.7,1.6-1.6v-1.1h-2.7H109z"/>
		<path class="st3" d="M62.5,137.2h-1.1c-0.9,0-1.6,0.7-1.6,1.6v1.1v8.2v1.1c0,0.9,0.7,1.6,1.6,1.6h1.1v-2.7v-8.2V137.2z"/>
		<path class="st2" d="M76.2,142.7v2.7h5.5h1.1c0.9,0,1.6-0.7,1.6-1.6v-1.1h-2.7H76.2z"/>
		<path class="st3" d="M76.2,139.9v-2.7h-1.1c-0.9,0-1.6,0.7-1.6,1.6v1.1v2.7v2.7v2.7v1.1c0,0.9,0.7,1.6,1.6,1.6h1.1v-2.7v-2.7v-2.7
			V139.9z"/>
		<path class="st3" d="M109,139.9v-2.7h-1.1c-0.9,0-1.6,0.7-1.6,1.6v1.1v2.7v2.7v2.7v1.1c0,0.9,0.7,1.6,1.6,1.6h1.1v-2.7v-2.7v-2.7
			V139.9z"/>
		<rect x="100.8" y="133.1" class="st3" width="2.7" height="17.8"/>
	</g>
</g>
</svg>
