<?xml version="1.0" encoding="utf-8"?>
<!-- Generator: Adobe Illustrator 24.3.0, SVG Export Plug-In . SVG Version: 6.00 Build 0)  -->
<svg version="1.1" id="图层_1" xmlns="http://www.w3.org/2000/svg" xmlns:xlink="http://www.w3.org/1999/xlink" x="0px" y="0px"
	 viewBox="0 0 36.5 36.5" style="enable-background:new 0 0 36.5 36.5;" xml:space="preserve">
<style type="text/css">
	.st0{fill:#AF8A6D;}
	.st1{fill:#7B5744;}
	.st2{fill:#EEDFBE;}
	.st3{fill:none;}
</style>
<g>
	<g>
		<path class="st0" d="M13.1,28.5l1.7,5.7c0.2,0.8,1,1.3,1.7,1.3c0.2,0,0.3,0,0.5-0.1c1-0.3,1.5-1.3,1.2-2.3l-1.1-3.7H17L13.1,28.5z
			"/>
		<path class="st1" d="M32.9,11.3c-0.8-0.6-1.9-0.5-2.6,0.3l-0.5,0.7c0.6,0.8,1.1,1.8,1.3,2.9l0.2,1.2l1.9-2.6
			C33.9,13,33.8,11.9,32.9,11.3z"/>
		<path class="st2" d="M5.8,11.1l3.8,0.5c0.3-0.9,0.8-1.7,1.5-2.3l1-1L6.2,7.5c-1-0.1-1.9,0.6-2,1.6C4.1,10,4.8,11,5.8,11.1z"/>
		<path class="st0" d="M9.6,11.6c-0.5,1.2-0.5,2.6-0.2,3.9l1.7,6.1c0.2,0.8,1,1.3,1.8,1.3c0.2,0,0.3,0,0.5-0.1
			c1-0.3,1.5-1.3,1.3-2.2L13,14.5c-0.3-1,0-2,0.7-2.7l8-7.9c0.7-0.7,0.7-1.9,0-2.6s-1.9-0.7-2.6,0l-6.9,6.8l-1,1
			C10.5,9.9,10,10.7,9.6,11.6z"/>
		<path class="st1" d="M26.4,20c-0.8-0.6-2-0.4-2.5,0.4l-3.2,4.4c-0.6,0.9-1.7,1.3-2.8,1.1l-13.5-3c-1-0.2-2,0.4-2.2,1.4
			s0.4,2,1.4,2.2l9.5,2.1l4,0.9h0.1c0.4,0.1,0.9,0.1,1.3,0.1c2,0,4-1,5.2-2.6l3.2-4.4C27.4,21.7,27.2,20.5,26.4,20z"/>
		<path class="st2" d="M29.9,12.3c-1-1.3-2.5-2.2-4.3-2.4l-5.7-0.7c-1-0.1-1.9,0.6-2,1.6s0.6,1.9,1.6,2l5.7,0.7
			c1.2,0.1,2.2,1.1,2.4,2.3l1.9,12.1c0.1,0.9,0.9,1.5,1.8,1.5c0.1,0,0.2,0,0.3,0c1-0.2,1.7-1.1,1.5-2.1l-1.7-10.9l-0.2-1.2
			C31,14.1,30.5,13.1,29.9,12.3z"/>
	</g>
</g>
<rect class="st3" width="36.5" height="36.5"/>
</svg>
