<?xml version="1.0" encoding="utf-8"?>
<!-- Generator: Adobe Illustrator 24.3.0, SVG Export Plug-In . SVG Version: 6.00 Build 0)  -->
<svg version="1.1" id="图层_1" xmlns="http://www.w3.org/2000/svg" xmlns:xlink="http://www.w3.org/1999/xlink" x="0px" y="0px"
	 viewBox="0 0 177.8 177.8" style="enable-background:new 0 0 177.8 177.8;" xml:space="preserve">
<style type="text/css">
	.st0{fill:none;}
	.st1{fill:#7B5744;}
	.st2{fill:#EEDFBE;}
	.st3{fill:#AF8A6D;}
</style>
<g>
	<rect x="1.4" y="1.4" class="st0" width="175" height="175"/>
	<g>
		<g>
			<g id="LWPOLYLINE_2645_">
				<path class="st1" d="M126.8,121.7H109v-5.5H129v3.3C129,120.7,128,121.7,126.8,121.7z"/>
			</g>
			<g id="LWPOLYLINE_2644_">
				<rect x="90.7" y="98" class="st2" width="9.1" height="5.5"/>
			</g>
			<g id="LWPOLYLINE_2643_">
				<path class="st3" d="M109,78h-5.5v25.2c0,1.2,1,2.2,2.2,2.2h3.3V78z"/>
			</g>
			<g id="LWPOLYLINE_2642_">
				<path class="st1" d="M105.7,105.3h16v-5.5h-18.2v3.3C103.5,104.3,104.5,105.3,105.7,105.3z"/>
			</g>
			<g id="LWPOLYLINE_2641_">
				<path class="st2" d="M103.5,78h23.3c1.2,0,2.2,1,2.2,2.2v3.3h-25.5V78z"/>
			</g>
			<g id="LWPOLYLINE_2640_">
				<path class="st3" d="M126.8,78h-3.3v43.8h3.3c1.2,0,2.2-1,2.2-2.2V80.2C129,78.9,128,78,126.8,78z"/>
			</g>
			<g id="LWPOLYLINE_2639_">
				<rect x="116.2" y="96.2" class="st3" width="5.5" height="10.9"/>
			</g>
			<g id="LWPOLYLINE_2638_">
				<rect x="85.3" y="107.1" class="st1" width="10.9" height="5.5"/>
			</g>
			<g id="LWPOLYLINE_2637_">
				<rect x="90.7" y="78" class="st3" width="5.5" height="43.8"/>
			</g>
			<g id="LWPOLYLINE_2636_">
				<rect x="85.3" y="85.3" class="st1" width="23.7" height="5.5"/>
			</g>
		</g>
		<g>
			<g id="LWPOLYLINE_2635_">
				<path class="st1" d="M57.5,121.7h-3.3V80.2c0-1.2,1-2.2,2.2-2.2h3.3v41.6C59.7,120.7,58.8,121.7,57.5,121.7z"/>
			</g>
			<g id="LWPOLYLINE_2634_">
				<rect x="34.2" y="85.3" class="st1" width="16.4" height="5.5"/>
			</g>
			<g id="LWPOLYLINE_2633_">
				<rect x="34.2" y="107.1" class="st1" width="9.1" height="5.5"/>
			</g>
			<g id="LWPOLYLINE_2632_">
				<rect x="39.7" y="78" class="st3" width="5.5" height="43.8"/>
			</g>
			<g id="LWPOLYLINE_2631_">
				<rect x="39.7" y="98" class="st2" width="23.7" height="5.5"/>
			</g>
			<g id="LWPOLYLINE_2630_">
				<path class="st3" d="M48.8,121.7h8.8c1.2,0,2.2-1,2.2-2.2v-3.3H48.8V121.7z"/>
			</g>
			<g id="LWPOLYLINE_2629_">
				<path class="st2" d="M56.5,78H74c1.2,0,2.2,1,2.2,2.2v3.3H54.3v-3.3C54.3,78.9,55.2,78,56.5,78z"/>
			</g>
			<g id="LWPOLYLINE_2628_">
				<path class="st3" d="M74,78h-3.3v41.6c0,1.2,1,2.2,2.2,2.2h3.3V80.2C76.1,78.9,75.2,78,74,78z"/>
			</g>
			<g id="LWPOLYLINE_2627_">
				<path class="st1" d="M78,121.7h-5.1c-1.2,0-2.2-1-2.2-2.2v-3.3H78V121.7z"/>
			</g>
		</g>
		<g>
			<g id="LWPOLYLINE_2626_">
				<rect x="85.3" y="26.9" class="st3" width="14.6" height="5.5"/>
			</g>
			<g id="LWPOLYLINE_2625_">
				<rect x="109" y="26.9" class="st3" width="20.1" height="5.5"/>
			</g>
			<g id="LWPOLYLINE_2624_">
				<rect x="94.4" y="26.9" class="st1" width="5.5" height="36.5"/>
			</g>
			<g id="LWPOLYLINE_2622_">
				<rect x="85.3" y="43.3" class="st3" width="5.5" height="27.3"/>
			</g>
			<g id="LWPOLYLINE_2621_">
				<rect x="112.6" y="26.9" class="st2" width="5.5" height="20.1"/>
			</g>
			<g id="LWPOLYLINE_2620_">
				<rect x="112.6" y="37.9" class="st1" width="16.4" height="5.5"/>
			</g>
			<g id="LWPOLYLINE_2618_">
				<path class="st2" d="M125,57.9h-21.5v-5.5h23.7v3.3C127.2,56.9,126.2,57.9,125,57.9z"/>
			</g>
			<g id="LWPOLYLINE_2617_">
				<path class="st1" d="M121.7,52.4h-5.5v16c0,1.2,1,2.2,2.2,2.2h3.3V52.4z"/>
			</g>
			<g id="LWPOLYLINE_2616_">
				<path class="st3" d="M118.4,70.7H129v-5.5h-12.8v3.3C116.2,69.7,117.2,70.7,118.4,70.7z"/>
			</g>
			<g id="LWPOLYLINE_2615_">
				<path class="st2" d="M90.7,43.3H109V40c0-1.2-1-2.2-2.2-2.2h-16V43.3z"/>
			</g>
			<g id="LWPOLYLINE_2614_">
				<path class="st3" d="M106.8,37.9h-3.3v32.8h5.5V40C109,38.8,108,37.9,106.8,37.9z"/>
			</g>
			<g id="LWPOLYLINE_2623_">
				<rect x="85.3" y="57.9" class="st2" width="14.6" height="5.5"/>
			</g>
			<g id="LWPOLYLINE_2619_">
				<path class="st3" d="M121.7,37.9h5.5v17.9c0,1.2-1,2.2-2.2,2.2h-3.3V37.9z"/>
			</g>
		</g>
		<g>
			<g id="LWPOLYLINE_2613_">
				<path class="st2" d="M70.3,26.9H56.1v5.5h16.4v-3.3C72.5,27.9,71.5,26.9,70.3,26.9z"/>
			</g>
			<g id="LWPOLYLINE_2612_">
				<path class="st3" d="M34.2,70.7h5.5V28.7h-3.3c-1.2,0-2.2,1-2.2,2.2V70.7z"/>
			</g>
			<g id="LWPOLYLINE_2611_">
				<path class="st1" d="M36.4,28.7h14.2v5.5H34.2v-3.3C34.2,29.7,35.2,28.7,36.4,28.7z"/>
			</g>
			<g id="LWPOLYLINE_2610_">
				<rect x="45.2" y="28.7" class="st2" width="5.5" height="14.6"/>
			</g>
			<g id="LWPOLYLINE_2609_">
				<path class="st1" d="M72.5,41.5H67V26.9h3.3c1.2,0,2.2,1,2.2,2.2V41.5z"/>
			</g>
			<g id="LWPOLYLINE_2608_">
				<rect x="72.5" y="36" class="st1" width="5.5" height="21.9"/>
			</g>
			<g id="LWPOLYLINE_2607_">
				<rect x="68.8" y="52.4" class="st1" width="5.5" height="18.2"/>
			</g>
			<g id="LWPOLYLINE_2606_">
				<rect x="43.3" y="52.4" class="st2" width="5.5" height="10.9"/>
			</g>
			<g id="LWPOLYLINE_2605_">
				<path class="st3" d="M78,70.7H54.6c-1.2,0-2.2-1-2.2-2.2v-3.3H78V70.7z"/>
			</g>
			<g id="LWPOLYLINE_2604_">
				<path class="st1" d="M54.6,70.7h3.3v-9.1h-5.5v6.9C52.4,69.7,53.4,70.7,54.6,70.7z"/>
			</g>
			<g id="LWPOLYLINE_2603_">
				<rect x="59.7" y="43.3" class="st2" width="18.2" height="5.5"/>
			</g>
			<g id="LWPOLYLINE_2602_">
				<rect x="45.2" y="36" class="st3" width="32.8" height="5.5"/>
			</g>
			<g id="LWPOLYLINE_2601_">
				<rect x="43.3" y="52.4" class="st3" width="34.6" height="5.5"/>
			</g>
		</g>
		<g>
			<g id="LWPOLYLINE_2600_">
				<path class="st3" d="M153.6,116.4v-1.1h-13.7v1.1c0,0.9,0.7,1.6,1.6,1.6H152C152.9,118.1,153.6,117.3,153.6,116.4z"/>
			</g>
			<g id="LWPOLYLINE_2599_">
				<path class="st3" d="M153.6,85.3v-2.7h-13.7v1.1c0,0.9,0.7,1.6,1.6,1.6H153.6z"/>
			</g>
			<g id="LWPOLYLINE_2598_">
				<path class="st3" d="M139.9,65v1.1h16.4v-2.7h-14.8C140.7,63.4,139.9,64.1,139.9,65z"/>
			</g>
			<g id="LWPOLYLINE_2597_">
				<path class="st2" d="M139.9,48.3v7.9c0,0.9,0.7,1.6,1.6,1.6h1.1v-9.6c0-0.8-0.6-1.4-1.4-1.4l0,0C140.6,47,139.9,47.6,139.9,48.3
					z"/>
			</g>
			<g id="LWPOLYLINE_2596_">
				<path class="st2" d="M155,47v9.6c0,0.8,0.6,1.4,1.4,1.4l0,0c0.8,0,1.4-0.6,1.4-1.4v-7.9c0-0.9-0.7-1.6-1.6-1.6H155z"/>
			</g>
			<g id="LWPOLYLINE_2595_">
				<path class="st2" d="M147.5,48.6v9.3h1.1c0.9,0,1.6-0.7,1.6-1.6V47h-1.1C148.2,47,147.5,47.7,147.5,48.6z"/>
			</g>
			<g id="LWPOLYLINE_2594_">
				<path class="st3" d="M157.7,48.6v1.1h-10.3v-1.1c0-0.9,0.7-1.6,1.6-1.6h7C157,47,157.7,47.7,157.7,48.6z"/>
			</g>
			<g id="LWPOLYLINE_2593_">
				<path class="st3" d="M139.9,56.3v-1.1h10.3v1.1c0,0.9-0.7,1.6-1.6,1.6h-7C140.7,57.9,139.9,57.2,139.9,56.3z"/>
			</g>
			<g id="LWPOLYLINE_2592_">
				<path class="st2" d="M150.9,62v7.5c0,0.8,0.6,1.4,1.4,1.4l0,0c0.8,0,1.4-0.6,1.4-1.4V62c0-0.8-0.6-1.4-1.4-1.4l0,0
					C151.5,60.6,150.9,61.3,150.9,62z"/>
			</g>
			<g id="LWPOLYLINE_2591_">
				<path class="st2" d="M139.9,70.2V65c0-0.9,0.7-1.6,1.6-1.6h1.1v6.8c0,0.8-0.6,1.4-1.4,1.4l0,0C140.6,71.6,139.9,71,139.9,70.2z"
					/>
			</g>
			<g id="LWPOLYLINE_2590_">
				<path class="st2" d="M139.9,76v7.7c0,0.9,0.7,1.6,1.6,1.6h1.1V74.3h-1.1C140.7,74.3,139.9,75.1,139.9,76z"/>
			</g>
			<g id="LWPOLYLINE_2589_">
				<rect x="139.9" y="96.2" class="st3" width="17.8" height="2.7"/>
			</g>
			<g id="LWPOLYLINE_2588_">
				<path class="st2" d="M153.6,98.9v-9.3c0-0.9-0.7-1.6-1.6-1.6h-1.1v10.9H153.6z"/>
			</g>
			<g id="LWPOLYLINE_2587_">
				<path class="st3" d="M139.9,90.7v-1.1c0-0.9,0.7-1.6,1.6-1.6H152c0.9,0,1.6,0.7,1.6,1.6v1.1H139.9z"/>
			</g>
			<g id="LWPOLYLINE_2586_">
				<path class="st2" d="M139.9,89.6v3.8h2.7V88h-1.1C140.7,88,139.9,88.7,139.9,89.6z"/>
			</g>
			<g id="LWPOLYLINE_2585_">
				<rect x="139.9" y="101.7" class="st3" width="12.3" height="2.7"/>
			</g>
			<g id="LWPOLYLINE_2584_">
				<rect x="155" y="101.7" class="st2" width="2.7" height="2.7"/>
			</g>
			<g id="LWPOLYLINE_2583_">
				<path class="st2" d="M153.6,108.8v7.7c0,0.9-0.7,1.6-1.6,1.6h-1.1v-10.9h1.1C152.9,107.1,153.6,107.9,153.6,108.8z"/>
			</g>
			<g id="LWPOLYLINE_2582_">
				<path class="st2" d="M139.9,108.8v7.7c0,0.9,0.7,1.6,1.6,1.6h1.1v-10.9h-1.1C140.7,107.1,139.9,107.9,139.9,108.8z"/>
			</g>
			<g id="LWPOLYLINE_2581_">
				<path class="st3" d="M153.6,108.8v1.1h-13.7v-1.1c0-0.9,0.7-1.6,1.6-1.6H152C152.9,107.1,153.6,107.9,153.6,108.8z"/>
			</g>
			<g id="LWPOLYLINE_2580_">
				<path class="st3" d="M153.6,74.3v2.7h-13.7V76c0-0.9,0.7-1.6,1.6-1.6H153.6z"/>
			</g>
		</g>
		<g>
			<g id="LWPOLYLINE_2579_">
				<path class="st2" d="M107.9,137.2h7.7c0.9,0,1.6,0.7,1.6,1.6v1.1h-10.9v-1.1C106.2,137.9,107,137.2,107.9,137.2z"/>
			</g>
			<g id="LWPOLYLINE_2578_">
				<path class="st3" d="M115.5,137.2h-1.1v8.2h1.1c0.9,0,1.6-0.7,1.6-1.6v-4.9C117.2,137.9,116.4,137.2,115.5,137.2z"/>
			</g>
			<g id="LWPOLYLINE_2577_">
				<path class="st3" d="M57,150.9h-2.7v-13.7h1.1c0.9,0,1.6,0.7,1.6,1.6V150.9z"/>
			</g>
			<g id="LWPOLYLINE_2576_">
				<path class="st2" d="M47.7,137.2h7.7c0.9,0,1.6,0.7,1.6,1.6v1.1H46.1v-1.1C46.1,137.9,46.8,137.2,47.7,137.2z"/>
			</g>
			<g id="LWPOLYLINE_2575_">
				<path class="st3" d="M46.1,150.9h2.7v-13.7h-1.1c-0.9,0-1.6,0.7-1.6,1.6V150.9z"/>
			</g>
			<g id="LWPOLYLINE_2574_">
				<path class="st3" d="M41.7,137.2h-1.1v13.7h1.1c0.9,0,1.6-0.7,1.6-1.6v-10.4C43.3,137.9,42.6,137.2,41.7,137.2z"/>
			</g>
			<g id="LWPOLYLINE_2573_">
				<path class="st2" d="M20.4,133.1h7.9c0.8,0,1.4,0.6,1.4,1.4l0,0c0,0.8-0.6,1.4-1.4,1.4h-9.6v-1.1
					C18.7,133.8,19.5,133.1,20.4,133.1z"/>
			</g>
			<g id="LWPOLYLINE_2572_">
				<path class="st2" d="M20.4,150.9h7.9c0.8,0,1.4-0.6,1.4-1.4l0,0c0-0.8-0.6-1.4-1.4-1.4h-9.6v1.1
					C18.7,150.1,19.5,150.9,20.4,150.9z"/>
			</g>
			<g id="LWPOLYLINE_2571_">
				<path class="st3" d="M20.4,150.9h1.1v-17.8h-1.1c-0.9,0-1.6,0.7-1.6,1.6v14.5C18.7,150.1,19.5,150.9,20.4,150.9z"/>
			</g>
			<g id="LWPOLYLINE_2570_">
				<path class="st2" d="M34,137.2h7.7c0.9,0,1.6,0.7,1.6,1.6v1.1H32.4v-1.1C32.4,137.9,33.1,137.2,34,137.2z"/>
			</g>
			<g id="LWPOLYLINE_2569_">
				<path class="st2" d="M34,150.9h7.7c0.9,0,1.6-0.7,1.6-1.6v-1.1H32.4v1.1C32.4,150.1,33.1,150.9,34,150.9z"/>
			</g>
			<g id="LWPOLYLINE_2568_">
				<path class="st3" d="M34,137.2h1.1v13.7H34c-0.9,0-1.6-0.7-1.6-1.6v-10.4C32.4,137.9,33.1,137.2,34,137.2z"/>
			</g>
			<g id="LWPOLYLINE_2567_">
				<path class="st2" d="M69.3,137.2h-7.9c-0.9,0-1.6,0.7-1.6,1.6v1.1h9.6c0.8,0,1.4-0.6,1.4-1.4l0,0
					C70.7,137.8,70.1,137.2,69.3,137.2z"/>
			</g>
			<g id="LWPOLYLINE_2566_">
				<path class="st2" d="M69.3,150.9h-7.9c-0.9,0-1.6-0.7-1.6-1.6v-1.1h9.6c0.8,0,1.4,0.6,1.4,1.4l0,0
					C70.7,150.3,70.1,150.9,69.3,150.9z"/>
			</g>
			<g id="LWPOLYLINE_2565_">
				<path class="st2" d="M75,137.2h7.7c0.9,0,1.6,0.7,1.6,1.6v1.1H73.4v-1.1C73.4,137.9,74.1,137.2,75,137.2z"/>
			</g>
			<g id="LWPOLYLINE_2564_">
				<path class="st2" d="M75,150.9H83c0.8,0,1.4-0.6,1.4-1.4l0,0c0-0.8-0.6-1.4-1.4-1.4h-9.6v1.1C73.4,150.1,74.1,150.9,75,150.9z"
					/>
			</g>
			<g id="LWPOLYLINE_2563_">
				<path class="st3" d="M82.7,137.2h-1.1v8.2h1.1c0.9,0,1.6-0.7,1.6-1.6v-4.9C84.3,137.9,83.6,137.2,82.7,137.2z"/>
			</g>
			<g id="LWPOLYLINE_2562_">
				<rect x="95.3" y="137.2" class="st3" width="2.7" height="13.7"/>
			</g>
			<g id="LWPOLYLINE_2561_">
				<path class="st2" d="M98,137.2h-9.3c-0.9,0-1.6,0.7-1.6,1.6v1.1H98V137.2z"/>
			</g>
			<g id="LWPOLYLINE_2560_">
				<path class="st3" d="M89.8,150.9h-1.1c-0.9,0-1.6-0.7-1.6-1.6v-10.4c0-0.9,0.7-1.6,1.6-1.6h1.1V150.9z"/>
			</g>
			<g id="LWPOLYLINE_2559_">
				<path class="st2" d="M88.7,150.9h3.8v-2.7h-5.5v1.1C87.1,150.1,87.8,150.9,88.7,150.9z"/>
			</g>
			<g id="LWPOLYLINE_2558_">
				<rect x="128.1" y="133.1" class="st3" width="2.7" height="17.8"/>
			</g>
			<g id="LWPOLYLINE_2557_">
				<path class="st2" d="M130.8,137.2h-9.3c-0.9,0-1.6,0.7-1.6,1.6v1.1h10.9V137.2z"/>
			</g>
			<g id="LWPOLYLINE_2556_">
				<path class="st3" d="M122.6,150.9h-1.1c-0.9,0-1.6-0.7-1.6-1.6v-10.4c0-0.9,0.7-1.6,1.6-1.6h1.1V150.9z"/>
			</g>
			<g id="LWPOLYLINE_2555_">
				<path class="st2" d="M121.5,150.9h3.8v-2.7h-5.5v1.1C119.9,150.1,120.6,150.9,121.5,150.9z"/>
			</g>
			<g id="LWPOLYLINE_2554_">
				<path class="st2" d="M107.9,150.9h7.9c0.8,0,1.4-0.6,1.4-1.4l0,0c0-0.8-0.6-1.4-1.4-1.4h-9.6v1.1
					C106.2,150.1,107,150.9,107.9,150.9z"/>
			</g>
			<g id="LWPOLYLINE_2553_">
				<path class="st2" d="M106.2,145.4h9.3c0.9,0,1.6-0.7,1.6-1.6v-1.1h-10.9V145.4z"/>
			</g>
			<g id="LWPOLYLINE_2552_">
				<path class="st3" d="M61.4,150.9h1.1v-13.7h-1.1c-0.9,0-1.6,0.7-1.6,1.6v10.4C59.7,150.1,60.5,150.9,61.4,150.9z"/>
			</g>
			<g id="LWPOLYLINE_2551_">
				<path class="st2" d="M73.4,145.4h9.3c0.9,0,1.6-0.7,1.6-1.6v-1.1H73.4V145.4z"/>
			</g>
			<g id="LWPOLYLINE_2550_">
				<path class="st3" d="M76.1,150.9H75c-0.9,0-1.6-0.7-1.6-1.6v-10.4c0-0.9,0.7-1.6,1.6-1.6h1.1V150.9z"/>
			</g>
			<g id="LWPOLYLINE_2549_">
				<path class="st3" d="M109,150.9h-1.1c-0.9,0-1.6-0.7-1.6-1.6v-10.4c0-0.9,0.7-1.6,1.6-1.6h1.1V150.9z"/>
			</g>
			<rect x="100.7" y="133.1" class="st3" width="2.7" height="17.8"/>
		</g>
	</g>
</g>
</svg>
