<?xml version="1.0" encoding="utf-8"?>
<!-- Generator: Adobe Illustrator 24.3.0, SVG Export Plug-In . SVG Version: 6.00 Build 0)  -->
<svg version="1.1" id="图层_1" xmlns="http://www.w3.org/2000/svg" xmlns:xlink="http://www.w3.org/1999/xlink" x="0px" y="0px"
	 viewBox="0 0 177.8 177.8" style="enable-background:new 0 0 177.8 177.8;" xml:space="preserve">
<style type="text/css">
	.st0{fill:#AF8A6D;}
	.st1{fill:#7B5744;}
	.st2{fill:#EEDFBE;}
</style>
<g>
	<g>
		<path class="st0" d="M145.7,149.8l1.7,5.7c0.2,0.8,1,1.3,1.7,1.3c0.2,0,0.3,0,0.5-0.1c1-0.3,1.5-1.3,1.2-2.3l-1.1-3.7
			c0,0-0.1,0-0.1,0L145.7,149.8z"/>
		<path class="st1" d="M165.5,132.6c-0.8-0.6-1.9-0.5-2.6,0.3l-0.5,0.7c0.6,0.8,1.1,1.8,1.3,2.9l0.2,1.2l1.9-2.6
			C166.5,134.3,166.4,133.2,165.5,132.6z"/>
		<path class="st2" d="M138.4,132.4l3.8,0.5c0.3-0.9,0.8-1.7,1.5-2.3l1-1l-5.9-0.8c-1-0.1-1.9,0.6-2,1.6
			C136.7,131.3,137.4,132.3,138.4,132.4z"/>
		<path class="st0" d="M142.2,132.9c-0.5,1.2-0.5,2.6-0.2,3.9l1.7,6.1c0.2,0.8,1,1.3,1.8,1.3c0.2,0,0.3,0,0.5-0.1
			c1-0.3,1.5-1.3,1.3-2.2l-1.7-6.1c-0.3-1,0-2,0.7-2.7l8-7.9c0.7-0.7,0.7-1.9,0-2.6c-0.7-0.7-1.9-0.7-2.6,0l-6.9,6.8l-1,1
			C143.1,131.2,142.6,132,142.2,132.9z"/>
		<path class="st1" d="M159,141.3c-0.8-0.6-2-0.4-2.5,0.4l-3.2,4.4c-0.6,0.9-1.7,1.3-2.8,1.1l-13.5-3c-1-0.2-2,0.4-2.2,1.4
			c-0.2,1,0.4,2,1.4,2.2l9.5,2.1l4,0.9c0,0,0.1,0,0.1,0c0.4,0.1,0.9,0.1,1.3,0.1c2,0,4-1,5.2-2.6l3.2-4.4
			C160,143,159.8,141.8,159,141.3z"/>
		<path class="st2" d="M162.5,133.6c-1-1.3-2.5-2.2-4.3-2.4l-5.7-0.7c-1-0.1-1.9,0.6-2,1.6s0.6,1.9,1.6,2l5.7,0.7
			c1.2,0.1,2.2,1.1,2.4,2.3l1.9,12.1c0.1,0.9,0.9,1.5,1.8,1.5c0.1,0,0.2,0,0.3,0c1-0.2,1.7-1.1,1.5-2.1l-1.7-10.9l-0.2-1.2
			C163.6,135.4,163.1,134.4,162.5,133.6z"/>
	</g>
</g>
</svg>
