<svg xmlns="http://www.w3.org/2000/svg" viewBox="0 0 627 627" width="627" height="627" preserveAspectRatio="xMidYMid meet" style="width: 100%; height: 100%; transform: translate3d(0px, 0px, 0px);"><defs><clipPath id="__lottie_element_179"><rect width="627" height="627" x="0" y="0"></rect></clipPath></defs><g clip-path="url(#__lottie_element_179)"><g transform="matrix(-0.71232008934021,-0.7018547654151917,0.7018547654151917,-0.71232008934021,316.65887451171875,756.7218017578125)" opacity="1" style="display: block;"><g opacity="1" transform="matrix(1,0,0,1,303.47100830078125,357.4440002441406)"><path stroke-linecap="round" stroke-linejoin="miter" fill-opacity="0" stroke-miterlimit="10" stroke="rgb(175,137,109)" stroke-opacity="1" stroke-width="13.191" d=" M-3.5439999103546143,-11.996999740600586 C-3.5439999103546143,-11.996999740600586 3.5439999103546143,11.996999740600586 3.5439999103546143,11.996999740600586"></path></g><g opacity="1" transform="matrix(1,0,0,1,281.3280029296875,282.75)"><path stroke-linecap="round" stroke-linejoin="miter" fill-opacity="0" stroke-miterlimit="10" stroke="rgb(237,223,189)" stroke-opacity="1" stroke-width="13.191" d=" M-12.21399974822998,-1.5870000123977661 C-12.21399974822998,-1.5870000123977661 12.213000297546387,1.5880000591278076 12.213000297546387,1.5880000591278076"></path></g><g opacity="1" transform="matrix(1,0,0,1,358.0260009765625,299.2770080566406)"><path stroke-linecap="round" stroke-linejoin="miter" fill-opacity="0" stroke-miterlimit="10" stroke="rgb(123,86,68)" stroke-opacity="1" stroke-width="13.191" d=" M-4.368000030517578,5.74399995803833 C-4.368000030517578,5.74399995803833 4.368000030517578,-5.74399995803833 4.368000030517578,-5.74399995803833"></path></g><g opacity="1" transform="matrix(1,0,0,1,303.5669860839844,290.7340087890625)"><path stroke-linecap="round" stroke-linejoin="miter" fill-opacity="0" stroke-miterlimit="10" stroke="rgb(175,137,109)" stroke-opacity="1" stroke-width="13.191" d=" M17.39900016784668,-33.417999267578125 C17.39900016784668,-33.417999267578125 -11.479000091552734,-4.965000152587891 -11.479000091552734,-4.965000152587891 C-15.748000144958496,-0.7590000033378601 -17.39900016784668,5.434000015258789 -15.791000366210938,11.206999778747559 C-15.791000366210938,11.206999778747559 -9.602999687194824,33.417999267578125 -9.602999687194824,33.417999267578125"></path></g><g opacity="1" transform="matrix(1,0,0,1,300.2409973144531,337.0669860839844)"><path stroke-linecap="round" stroke-linejoin="miter" fill-opacity="0" stroke-miterlimit="10" stroke="rgb(123,86,68)" stroke-opacity="1" stroke-width="13.191" d=" M-38.60100173950195,-0.31700000166893005 C-38.60100173950195,-0.31700000166893005 10.133999824523926,10.494999885559082 10.133999824523926,10.494999885559082 C16.562000274658203,11.920000076293945 23.222000122070312,9.385000228881836 27.075000762939453,4.046999931335449 C27.075000762939453,4.046999931335449 38.60100173950195,-11.920999526977539 38.60100173950195,-11.920999526977539"></path></g><g opacity="1" transform="matrix(1,0,0,1,339.3739929199219,317.19000244140625)"><path stroke-linecap="round" stroke-linejoin="miter" fill-opacity="0" stroke-miterlimit="10" stroke="rgb(237,223,189)" stroke-opacity="1" stroke-width="13.191" d=" M-21.020999908447266,-30.035999298095703 C-21.020999908447266,-30.035999298095703 -0.2680000066757202,-27.520000457763672 -0.2680000066757202,-27.520000457763672 C7.0370001792907715,-26.63599967956543 12.871000289916992,-21.017000198364258 14.031000137329102,-13.75100040435791 C14.031000137329102,-13.75100040435791 21.020999908447266,30.03700065612793 21.020999908447266,30.03700065612793"></path></g></g><g transform="matrix(-0.71232008934021,-0.7018547654151917,0.7018547654151917,-0.71232008934021,316.65887451171875,756.7218017578125)" opacity="1" style="display: block;"><path stroke-linecap="round" stroke-linejoin="miter" fill-opacity="0" stroke-miterlimit="10" stroke="rgb(237,223,189)" stroke-opacity="0" stroke-width="13.191" d="M0 0"></path></g><g transform="matrix(-0.71232008934021,-0.7018547654151917,0.7018547654151917,-0.71232008934021,316.65887451171875,756.7218017578125)" opacity="1" style="display: block;"><g opacity="1" transform="matrix(1,0,0,1,397.38299560546875,181.77200317382812)"><path stroke-linecap="round" stroke-linejoin="miter" fill-opacity="0" stroke-miterlimit="10" stroke="rgb(175,137,109)" stroke-opacity="1" stroke-width="13.191" d=" M-76.21900177001953,75.0979995727539 C-76.21900177001953,75.0979995727539 76.21800231933594,-75.0979995727539 76.21800231933594,-75.0979995727539"></path></g></g><g transform="matrix(-0.71232008934021,-0.7018547654151917,0.7018547654151917,-0.71232008934021,316.65887451171875,756.7218017578125)" opacity="1" style="display: block;"><g opacity="1" transform="matrix(1,0,0,1,157.36399841308594,313.0690002441406)"><path stroke-linecap="round" stroke-linejoin="miter" fill-opacity="0" stroke-miterlimit="10" stroke="rgb(123,86,68)" stroke-opacity="1" stroke-width="13.233" d="M0 0"></path></g></g></g></svg>