<svg id="图层_1" data-name="图层 1" xmlns="http://www.w3.org/2000/svg" xmlns:xlink="http://www.w3.org/1999/xlink" viewBox="0 0 50 50"><defs><style>.cls-1{fill:none;}.cls-2{clip-path:url(#clip-path);}.cls-3{fill:#010000;}</style><clipPath id="clip-path"><rect class="cls-1" x="3.5" y="3.5" width="43.07" height="43.01"/></clipPath></defs><g class="cls-2"><path class="cls-3" d="M19.73,9H30.22q.39,0,1.35-.06c.91,0,1.59,0,2-.08a3.82,3.82,0,0,0,2-.54A20.25,20.25,0,0,0,25.07,5.24,21.87,21.87,0,0,0,14.81,8.07a2.89,2.89,0,0,0,1.82.82c1.19.08,2.22.11,3.1.11Z"/><path class="cls-3" d="M39.63,39.55a19.92,19.92,0,0,1-14.6,6,19.87,19.87,0,0,1-14.6-6A19.88,19.88,0,0,1,4.39,25,19.9,19.9,0,0,1,10.44,10.4,19.94,19.94,0,0,1,25,4.36a19.88,19.88,0,0,1,14.6,6,19.86,19.86,0,0,1,6,14.59,19.85,19.85,0,0,1-6,14.56Zm.62-29.74A20.72,20.72,0,0,0,25,3.5,20.73,20.73,0,0,0,9.81,9.81,20.7,20.7,0,0,0,3.5,25,20.65,20.65,0,0,0,9.81,40.21,20.77,20.77,0,0,0,25,46.5a20.75,20.75,0,0,0,15.22-6.29A20.66,20.66,0,0,0,46.57,25,20.74,20.74,0,0,0,40.25,9.81Z"/></g><path class="cls-3" d="M39.53,36.56v.15l-.31-.07a5,5,0,0,0-1.08.27c-.73.26-1.1.39-1.13.39l-2,.5a19.55,19.55,0,0,1-3.66.34,15.17,15.17,0,0,1-4.68-.65,5.71,5.71,0,0,0,1.82-.93,11.45,11.45,0,0,0,3.13.46,10,10,0,0,0,4.84-1.25,7.32,7.32,0,0,0,3.26-3.15v-.08l.07,0,.51.19.07,0-.87,3.75ZM29.72,42.4H21.55l-.12.09,0-.16v-.65l0-.08h.12a2.77,2.77,0,0,0,1.94-1.08,5,5,0,0,0,.38-2.15,16.61,16.61,0,0,0,1.71-.47,10.64,10.64,0,0,0,1.58.47,4.74,4.74,0,0,0,.61,2.45,2.55,2.55,0,0,0,1.83.78h.12v.8ZM18,37.76l-1.79-.11c-.38,0-1,0-1.89,0-1.4,0-2.62,0-3.68.12l-.12,0,0-.07V37l0-.12.08,0a1.76,1.76,0,0,0,1.22-.42,2.07,2.07,0,0,0,.4-1.39l0-18.62A3.92,3.92,0,0,0,12,14.81a1.53,1.53,0,0,0-1.43-.58h-.19l-.08,0v-.77l0-.12.12.06a21.62,21.62,0,0,0,2.28.1c.59,0,1.51,0,2.75-.06,1.86-.06,3-.1,3.34-.1a39.6,39.6,0,0,1,4.22.19V15a11.53,11.53,0,0,0-4.11-.69,11.75,11.75,0,0,0-2.64.3,4.45,4.45,0,0,1-.73.12h-.2l0,20c0,1,.31,1.52.93,1.7a11.53,11.53,0,0,0,3.24.35,10.27,10.27,0,0,0,7.7-3,10.85,10.85,0,0,0,2.93-8,13.44,13.44,0,0,0-2.25-7.24V15.35a16.84,16.84,0,0,1,2.79,2.44,12,12,0,0,1,3,8.25A10.87,10.87,0,0,1,30,34.59a14.1,14.1,0,0,1-9.73,3.25c-.72,0-1.49,0-2.28-.08Zm3.84-7a9,9,0,0,0,3,3.83,9,9,0,0,1-2.51,1,13.86,13.86,0,0,1-3.43-3.68,12.55,12.55,0,0,1-1.67-6.47,11.63,11.63,0,0,1,1.46-5.65,10.81,10.81,0,0,1,3.91-4.17l.47.19v2.79a9.31,9.31,0,0,0-2.28,6.69,13.68,13.68,0,0,0,1.08,5.46Zm6.07-17.25a16.91,16.91,0,0,1,3.55-.44,16.6,16.6,0,0,1,3.44.35l1.43.31A10.16,10.16,0,0,0,38,14a1.34,1.34,0,0,0,1.19-.63l.4,4.43a8.48,8.48,0,0,0,.13.88l.09.12h-.15l-.54.11L39,19V18.8q-2.13-4.65-7.83-4.65a7.22,7.22,0,0,0-2.93.57l-.39-.24v-1Zm14.6,2.18a18.36,18.36,0,0,0-6.26-7,12.84,12.84,0,0,0-.14,1.51,17.54,17.54,0,0,0,.16,2.51l.05.15-.16-.08-.31-.07-.27,0h-.08v-.12a2.78,2.78,0,0,0-1.27-1.84A7.48,7.48,0,0,0,31,10.22H27l0,22.12a4.56,4.56,0,0,1-1.62,1.86,5.27,5.27,0,0,1-1.62-1.86V10.22H19.67a6.41,6.41,0,0,0-3.52.73,2.52,2.52,0,0,0-.88,1.66v.07l-.08,0c-.24,0-.48,0-.73,0l0,0V12.6l0-.27a6.12,6.12,0,0,1,0-.74c0-.25,0-.37,0-.35,0-.43-.07-1.39-.19-2.86A19.18,19.18,0,0,0,7.7,15.51,19.55,19.55,0,0,0,5.28,25a19,19,0,0,0,5.79,14,19,19,0,0,0,14,5.79A19,19,0,0,0,39,39a19,19,0,0,0,5.78-14,19.72,19.72,0,0,0-2.32-9.3Z"/></svg>