<?xml version="1.0" encoding="utf-8"?>
<!-- Generator: Adobe Illustrator 24.3.0, SVG Export Plug-In . SVG Version: 6.00 Build 0)  -->
<svg version="1.1" id="图层_1" xmlns="http://www.w3.org/2000/svg" xmlns:xlink="http://www.w3.org/1999/xlink" x="0px" y="0px"
	 viewBox="0 0 43.1 61" style="enable-background:new 0 0 43.1 61;" xml:space="preserve">
<path d="M43.1,30.5C43.1,30.5,43.1,30.4,43.1,30.5c0.1-1.6-0.6-3.2-2-4.2L8,1C5.8-0.7,2.7-0.2,1,2s-1.2,5.3,1,7l28.2,21.5L2,52
	c-2.2,1.7-2.6,4.8-0.9,7c1,1.3,2.5,2,4,2c1.1,0,2.1-0.3,3-1l33.1-25.2C42.5,33.7,43.2,32.1,43.1,30.5L43.1,30.5z"/>
</svg>
