<?xml version="1.0" encoding="utf-8"?>
<!-- Generator: Adobe Illustrator 24.3.0, SVG Export Plug-In . SVG Version: 6.00 Build 0)  -->
<svg version="1.1" id="图层_1" xmlns="http://www.w3.org/2000/svg" xmlns:xlink="http://www.w3.org/1999/xlink" x="0px" y="0px"
	 viewBox="0 0 64 64" style="enable-background:new 0 0 64 64;" xml:space="preserve">
<style type="text/css">
	.st0{fill:none;stroke:#AAAAAA;stroke-width:3;stroke-linecap:round;stroke-linejoin:round;stroke-miterlimit:10;}
	.st1{fill:none;stroke:#7F7F7F;stroke-width:3;stroke-linecap:round;stroke-linejoin:round;stroke-miterlimit:10;}
	.st2{fill:none;}
	.st3{enable-background:new    ;}
	.st4{fill:#7F7F7F;}
</style>
<g id="图层_0">
</g>
<g id="图层_1_1_">
	<path class="st0" d="M10,2v60h44V18L38,2H10z"/>
	<path class="st1" d="M38,2v16h16"/>
	<rect y="0" class="st2" width="64" height="64"/>
	<g class="st3">
		<path class="st4" d="M24.9,43.7c-1.2,1.4-2.7,2.1-4.6,2.1s-3.5-0.7-4.6-2.1c-1.2-1.4-1.8-3.3-1.8-5.6s0.6-4.2,1.8-5.5
			c1.2-1.4,2.7-2,4.6-2s3.5,0.7,4.6,2c1.2,1.4,1.8,3.2,1.8,5.5C26.7,40.5,26.1,42.3,24.9,43.7z M17.3,42.3c0.7,1,1.7,1.5,2.9,1.5
			c1.2,0,2.2-0.5,2.9-1.5c0.7-1,1.1-2.4,1.1-4.1c0-1.7-0.4-3.1-1.1-4.1c-0.7-1-1.7-1.5-2.9-1.5c-1.2,0-2.2,0.5-2.9,1.5
			c-0.7,1-1.1,2.4-1.1,4.1C16.2,39.9,16.6,41.2,17.3,42.3z"/>
		<path class="st4" d="M33.5,45.5c-0.3,0-0.6-0.1-0.8-0.3c-0.2-0.2-0.3-0.5-0.3-0.8V32.9c0-0.1-0.1-0.1-0.2-0.1H29
			c-0.3,0-0.5-0.1-0.7-0.3c-0.2-0.2-0.3-0.4-0.3-0.7s0.1-0.5,0.3-0.7c0.2-0.2,0.4-0.3,0.7-0.3h9c0.3,0,0.5,0.1,0.7,0.3
			s0.3,0.4,0.3,0.7s-0.1,0.5-0.3,0.7s-0.4,0.3-0.7,0.3h-3.2c-0.1,0-0.1,0-0.1,0.1v11.5c0,0.3-0.1,0.6-0.3,0.8S33.8,45.5,33.5,45.5
			L33.5,45.5z"/>
		<path class="st4" d="M42.7,45.5c-0.3,0-0.6-0.1-0.8-0.3s-0.3-0.5-0.3-0.8V32c0-0.3,0.1-0.6,0.3-0.8s0.5-0.3,0.8-0.3h6.6
			c0.3,0,0.5,0.1,0.7,0.3s0.3,0.4,0.3,0.7s-0.1,0.5-0.3,0.7s-0.4,0.3-0.7,0.3H44c-0.1,0-0.2,0-0.2,0.1v4.2c0,0.1,0.1,0.1,0.2,0.1
			h4.3c0.3,0,0.5,0.1,0.7,0.3s0.3,0.4,0.3,0.7s-0.1,0.5-0.3,0.7s-0.4,0.3-0.7,0.3H44c-0.1,0-0.2,0.1-0.2,0.2v5
			c0,0.3-0.1,0.6-0.3,0.8S43,45.5,42.7,45.5L42.7,45.5z"/>
	</g>
</g>
</svg>
