<?xml version="1.0" encoding="utf-8"?>
<!-- Generator: Adobe Illustrator 24.3.0, SVG Export Plug-In . SVG Version: 6.00 Build 0)  -->
<svg version="1.1" xmlns="http://www.w3.org/2000/svg" xmlns:xlink="http://www.w3.org/1999/xlink" x="0px" y="0px"
	 viewBox="0 0 64 64" style="enable-background:new 0 0 64 64;" xml:space="preserve">
<style type="text/css">
	.st0{fill:none;stroke:#A7C349;stroke-width:3;stroke-linecap:round;stroke-linejoin:round;stroke-miterlimit:10;}
	.st1{fill:none;stroke:#AF8A6D;stroke-width:3;stroke-linecap:round;stroke-linejoin:round;stroke-miterlimit:10;}
	.st2{fill:none;stroke:#AF8A6D;stroke-width:3;stroke-linecap:round;stroke-linejoin:round;}
	.st3{fill:none;stroke:#A7C349;stroke-width:3;stroke-linecap:round;stroke-linejoin:round;}
	.st4{fill:none;stroke:#7B5744;stroke-width:3;stroke-linecap:round;stroke-linejoin:round;stroke-miterlimit:10;}
	.st5{fill:none;stroke:#BB474B;stroke-width:3;stroke-linecap:round;stroke-linejoin:round;}
	.st6{fill:none;stroke:#7B5744;stroke-width:3;stroke-linecap:round;stroke-linejoin:round;}
	.st7{fill:none;stroke:#EEDFBE;stroke-width:3;stroke-linecap:round;stroke-linejoin:round;}
	.st8{fill:none;stroke:#BB474B;stroke-width:3;stroke-linecap:round;stroke-linejoin:round;stroke-miterlimit:10;}
	.st9{fill:#203425;stroke:#203425;stroke-width:3;stroke-linecap:round;stroke-linejoin:round;stroke-miterlimit:10;}
	.st10{fill:none;stroke:#00F300;stroke-width:3;stroke-linecap:round;stroke-linejoin:round;stroke-miterlimit:10;}
	.st11{fill:none;stroke:#E2EFF3;stroke-width:3;stroke-linecap:round;stroke-linejoin:round;stroke-miterlimit:10;}
	.st12{fill:none;stroke:#EEDFBE;stroke-width:3;stroke-linecap:round;stroke-linejoin:round;stroke-miterlimit:10;}
	.st13{fill:none;stroke:#AF8A6D;stroke-width:2.9991;stroke-linecap:round;stroke-linejoin:round;stroke-miterlimit:10;}
	.st14{fill:#BB474B;}
	.st15{fill:#E2EFF3;}
	.st16{fill:#A7C349;}
	.st17{fill:none;stroke:#E2EFF3;stroke-width:3;stroke-linecap:round;stroke-linejoin:round;}
	.st18{fill:#AF8A6D;}
	.st19{fill:none;}
	.st20{fill:none;stroke:#9F3088;stroke-width:3;stroke-linecap:round;stroke-linejoin:round;stroke-miterlimit:10;}
	.st21{fill:none;stroke:#503BC4;stroke-width:3;stroke-linecap:round;stroke-linejoin:round;stroke-miterlimit:10;}
	.st22{fill:none;stroke:#1A1A1A;stroke-width:3;stroke-linecap:round;stroke-linejoin:round;stroke-miterlimit:10;}
	.st23{fill:none;stroke:#A7C349;stroke-width:2.9865;stroke-linecap:round;stroke-linejoin:round;stroke-miterlimit:10;}
	.st24{fill:none;stroke:#AF8A6D;stroke-width:2.9865;stroke-linecap:round;stroke-linejoin:round;stroke-miterlimit:10;}
	.st25{fill:none;stroke:#7B5744;stroke-width:2.9865;stroke-linecap:round;stroke-linejoin:round;stroke-miterlimit:10;}
	.st26{fill:#00854E;stroke:#00854E;stroke-width:3;stroke-linecap:round;stroke-linejoin:round;stroke-miterlimit:10;}
	.st27{fill:none;stroke:#00A166;stroke-width:3;stroke-linecap:round;stroke-linejoin:round;stroke-miterlimit:10;}
	.st28{fill:#0054BA;stroke:#0054BA;stroke-width:3;stroke-linecap:round;stroke-linejoin:round;stroke-miterlimit:10;}
	.st29{fill:none;stroke:#007DD1;stroke-width:3;stroke-linecap:round;stroke-linejoin:round;stroke-miterlimit:10;}
	.st30{fill:#FF0752;stroke:#FF0752;stroke-width:3;stroke-linecap:round;stroke-linejoin:round;stroke-miterlimit:10;}
	.st31{fill:none;stroke:#FF5988;stroke-width:3;stroke-linecap:round;stroke-linejoin:round;stroke-miterlimit:10;}
	.st32{fill:#FFFFFF;}
	.st33{fill:#00A8CF;stroke:#00A8CF;stroke-width:3;stroke-linecap:round;stroke-linejoin:round;stroke-miterlimit:10;}
	.st34{fill:none;stroke:#51C6E0;stroke-width:3;stroke-linecap:round;stroke-linejoin:round;stroke-miterlimit:10;}
	.st35{fill:#260600;stroke:#260600;stroke-width:3;stroke-linecap:round;stroke-linejoin:round;stroke-miterlimit:10;}
	.st36{fill:none;stroke:#FF411F;stroke-width:3;stroke-linecap:round;stroke-linejoin:round;stroke-miterlimit:10;}
	.st37{fill:#FF411F;}
	.st38{fill:#520035;stroke:#520035;stroke-width:3;stroke-linecap:round;stroke-linejoin:round;stroke-miterlimit:10;}
	.st39{fill:none;stroke:#FF61FA;stroke-width:3;stroke-linecap:round;stroke-linejoin:round;stroke-miterlimit:10;}
	.st40{fill:#FF61FA;}
	.st41{fill:#49021F;stroke:#49021F;stroke-width:3;stroke-linecap:round;stroke-linejoin:round;stroke-miterlimit:10;}
	.st42{fill:none;stroke:#FF3366;stroke-width:3;stroke-linecap:round;stroke-linejoin:round;stroke-miterlimit:10;}
	.st43{fill:#FF3366;}
	.st44{fill:#002620;stroke:#002620;stroke-width:3;stroke-linecap:round;stroke-linejoin:round;stroke-miterlimit:10;}
	.st45{fill:none;stroke:#00E2B9;stroke-width:3;stroke-linecap:round;stroke-linejoin:round;stroke-miterlimit:10;}
	.st46{fill:#00E2B9;}
	.st47{fill:#330000;stroke:#330000;stroke-width:3;stroke-linecap:round;stroke-linejoin:round;stroke-miterlimit:10;}
	.st48{fill:none;stroke:#FF9A00;stroke-width:3;stroke-linecap:round;stroke-linejoin:round;stroke-miterlimit:10;}
	.st49{fill:#FF9A00;}
	.st50{fill:#1F003F;stroke:#1F003F;stroke-width:3;stroke-linecap:round;stroke-linejoin:round;stroke-miterlimit:10;}
	.st51{fill:none;stroke:#CE8FFE;stroke-width:3;stroke-linecap:round;stroke-linejoin:round;stroke-miterlimit:10;}
	.st52{fill:#CE8FFE;}
	.st53{fill:#001E36;stroke:#001E36;stroke-width:3;stroke-linecap:round;stroke-linejoin:round;stroke-miterlimit:10;}
	.st54{fill:none;stroke:#31A8FF;stroke-width:3;stroke-linecap:round;stroke-linejoin:round;stroke-miterlimit:10;}
	.st55{fill:#31A8FF;}
	.st56{fill:#00F300;}
	.st57{fill:#D54927;stroke:#D54927;stroke-width:3;stroke-linecap:round;stroke-linejoin:round;stroke-miterlimit:10;}
	.st58{fill:none;stroke:#FD764E;stroke-width:3;stroke-linecap:round;stroke-linejoin:round;stroke-miterlimit:10;}
	.st59{fill:#00B5FF;stroke:#006AFF;stroke-width:3;stroke-linecap:round;stroke-linejoin:round;stroke-miterlimit:10;}
	.st60{fill:none;stroke:#006AFF;stroke-width:3;stroke-linecap:round;stroke-linejoin:round;stroke-miterlimit:10;}
	.st61{fill:#D20300;stroke:#D20300;stroke-width:3;stroke-linecap:round;stroke-linejoin:round;stroke-miterlimit:10;}
	.st62{fill:none;stroke:#FFFFFF;stroke-width:3;stroke-linecap:round;stroke-linejoin:round;stroke-miterlimit:10;}
	.st63{fill:#4ECA74;stroke:#ACDF92;stroke-width:3;stroke-linecap:round;stroke-linejoin:round;stroke-miterlimit:10;}
	.st64{fill:none;stroke:#ACDF92;stroke-width:3;stroke-linecap:round;stroke-linejoin:round;stroke-miterlimit:10;}
	.st65{fill:#7B5744;}
	.st66{opacity:0.3;clip-path:url(#SVGID_2_);}
	.st67{opacity:3.000000e-02;}
	.st68{opacity:0.2;}
</style>
<g id="图层_0">
</g>
<g id="图层_1">
	<path class="st1" d="M10,2v60h44V18L38,2H10z"/>
	<path class="st4" d="M38,2v16h16"/>
	<rect class="st19" width="64" height="64"/>
	<g>
		<path class="st65" d="M19.2,45.8c-1.7,0-3.1-0.5-4.4-1.5c-0.3-0.2-0.4-0.4-0.4-0.8c0-0.3,0.1-0.5,0.3-0.7c0.2-0.2,0.4-0.3,0.7-0.4
			c0,0,0.1,0,0.1,0c0.3,0,0.5,0.1,0.7,0.2c1,0.7,2,1.1,3.1,1.1c0.9,0,1.6-0.2,2.1-0.6c0.5-0.4,0.7-0.9,0.7-1.5c0-0.3,0-0.5-0.1-0.7
			c-0.1-0.2-0.2-0.4-0.3-0.5s-0.3-0.3-0.5-0.4s-0.5-0.3-0.6-0.3c-0.2-0.1-0.4-0.2-0.8-0.3l-2.1-0.9c-2-0.8-3-2.1-3-3.9
			c0-1.2,0.5-2.1,1.4-2.9c0.9-0.8,2.1-1.2,3.5-1.2c1.4,0,2.6,0.4,3.7,1.2c0.2,0.2,0.4,0.4,0.4,0.7c0,0.2-0.1,0.5-0.2,0.6
			c-0.2,0.2-0.4,0.3-0.6,0.3c0,0-0.1,0-0.1,0c-0.2,0-0.4-0.1-0.6-0.2c-0.8-0.5-1.6-0.7-2.5-0.7c-0.8,0-1.4,0.2-1.8,0.5
			c-0.4,0.3-0.7,0.8-0.7,1.4c0,0.2,0,0.5,0.1,0.7c0.1,0.2,0.2,0.4,0.3,0.5s0.3,0.3,0.6,0.4s0.5,0.2,0.6,0.3s0.4,0.2,0.7,0.3l2,0.9
			c1,0.4,1.7,0.9,2.2,1.6c0.5,0.6,0.8,1.4,0.8,2.4c0,1.2-0.5,2.2-1.4,3.1C22.1,45.4,20.8,45.8,19.2,45.8z"/>
		<path class="st65" d="M31,45.5c-0.4,0-0.7-0.1-0.9-0.3c-0.3-0.2-0.5-0.5-0.6-0.8l-3.9-12.5c0-0.1-0.1-0.2-0.1-0.3
			c0-0.2,0.1-0.3,0.2-0.5c0.2-0.2,0.4-0.4,0.7-0.4h0.2c0.3,0,0.6,0.1,0.9,0.3c0.3,0.2,0.5,0.5,0.5,0.8l1.9,6.5
			c0.2,0.5,0.4,1.3,0.6,2.4s0.5,1.8,0.7,2.4c0,0,0,0,0.1,0s0.1,0,0.1,0c0.2-0.6,0.4-1.4,0.7-2.5c0.3-1,0.5-1.8,0.6-2.3l1.9-6.5
			c0.1-0.3,0.3-0.6,0.5-0.8c0.3-0.2,0.6-0.3,0.9-0.3h0c0.3,0,0.5,0.1,0.7,0.4c0.1,0.2,0.2,0.3,0.2,0.5c0,0.1,0,0.2,0,0.3l-3.9,12.5
			c-0.1,0.3-0.3,0.6-0.6,0.8c-0.3,0.2-0.6,0.3-0.9,0.3H31z"/>
		<path class="st65" d="M44.9,45.8c-2,0-3.7-0.7-4.9-2S38,40.6,38,38.2c0-2.3,0.6-4.2,1.9-5.6c1.3-1.4,2.9-2.1,4.9-2.1
			c1.4,0,2.6,0.4,3.7,1.2c0.2,0.2,0.4,0.4,0.4,0.7c0,0.2-0.1,0.5-0.3,0.7s-0.4,0.3-0.7,0.3c0,0,0,0-0.1,0c-0.2,0-0.5-0.1-0.6-0.2
			c-0.7-0.5-1.4-0.7-2.3-0.7c-1.4,0-2.5,0.5-3.3,1.5c-0.8,1-1.2,2.4-1.2,4.1c0,1.8,0.4,3.2,1.2,4.2s2,1.5,3.5,1.5
			c0.9,0,1.6-0.2,2.2-0.6c0.1-0.1,0.1-0.1,0.1-0.2v-3.2c0-0.1-0.1-0.1-0.2-0.1h-1.8c-0.3,0-0.5-0.1-0.7-0.3
			c-0.2-0.2-0.3-0.4-0.3-0.7c0-0.3,0.1-0.5,0.3-0.7c0.2-0.2,0.4-0.3,0.7-0.3h2.9c0.3,0,0.6,0.1,0.8,0.3c0.2,0.2,0.3,0.5,0.3,0.8v4.1
			c0,0.9-0.3,1.5-0.9,1.9C47.5,45.5,46.3,45.8,44.9,45.8z"/>
	</g>
</g>
</svg>
