<?xml version="1.0" encoding="utf-8"?>
<!-- Generator: Adobe Illustrator 24.3.0, SVG Export Plug-In . SVG Version: 6.00 Build 0)  -->
<svg version="1.1" id="图层_1" xmlns="http://www.w3.org/2000/svg" xmlns:xlink="http://www.w3.org/1999/xlink" x="0px" y="0px"
	 viewBox="0 0 64 64" style="enable-background:new 0 0 64 64;" xml:space="preserve">
<style type="text/css">
	.st0{enable-background:new    ;}
	.st1{fill:#7B5744;}
	.st2{fill:none;stroke:#AF8A6D;stroke-width:3;stroke-linecap:round;stroke-linejoin:round;stroke-miterlimit:10;}
	.st3{fill:none;stroke:#7B5744;stroke-width:3;stroke-linecap:round;stroke-linejoin:round;stroke-miterlimit:10;}
	.st4{fill:none;}
</style>
<g class="st0">
	<path class="st1" d="M33.4,46.7c-0.5,0.5-1.2,0.7-1.9,0.7c-0.8,0-1.4-0.2-1.9-0.7c-0.5-0.5-0.8-1.1-0.8-2c0-0.8,0.3-1.4,0.8-1.9
		c0.5-0.5,1.2-0.7,1.9-0.7c0.8,0,1.4,0.2,1.9,0.7s0.8,1.1,0.8,1.9C34.2,45.6,33.9,46.2,33.4,46.7z M32.3,38.7
		c-0.2,0.2-0.5,0.3-0.8,0.3c-0.3,0-0.6-0.1-0.8-0.3c-0.2-0.2-0.4-0.5-0.4-0.8l-0.7-12.1l-0.1-2.1c0-0.5,0.2-1,0.5-1.4
		c0.4-0.4,0.8-0.6,1.4-0.6h0.1c0.6,0,1,0.2,1.4,0.6c0.4,0.4,0.6,0.8,0.5,1.4l0,2.1l-0.8,12.1C32.7,38.2,32.5,38.5,32.3,38.7z"/>
</g>
<g id="图层_0">
</g>
<g id="图层_1_1_">
	<path class="st2" d="M10,2v60h44V18L38,2H10z"/>
	<path class="st3" d="M38,2v16h16"/>
	<rect class="st4" width="64" height="64"/>
</g>
</svg>
