<?xml version="1.0" encoding="utf-8"?>
<!-- Generator: Adobe Illustrator 24.3.0, SVG Export Plug-In . SVG Version: 6.00 Build 0)  -->
<svg version="1.1" xmlns="http://www.w3.org/2000/svg" xmlns:xlink="http://www.w3.org/1999/xlink" x="0px" y="0px"
	 viewBox="0 0 64 64" style="enable-background:new 0 0 64 64;" xml:space="preserve">
<style type="text/css">
	.st0{fill:none;stroke:#A7C349;stroke-width:3;stroke-linecap:round;stroke-linejoin:round;stroke-miterlimit:10;}
	.st1{fill:none;stroke:#AF8A6D;stroke-width:3;stroke-linecap:round;stroke-linejoin:round;stroke-miterlimit:10;}
	.st2{fill:none;stroke:#AF8A6D;stroke-width:3;stroke-linecap:round;stroke-linejoin:round;}
	.st3{fill:none;stroke:#A7C349;stroke-width:3;stroke-linecap:round;stroke-linejoin:round;}
	.st4{fill:none;stroke:#7B5744;stroke-width:3;stroke-linecap:round;stroke-linejoin:round;stroke-miterlimit:10;}
	.st5{fill:none;stroke:#BB474B;stroke-width:3;stroke-linecap:round;stroke-linejoin:round;}
	.st6{fill:none;stroke:#7B5744;stroke-width:3;stroke-linecap:round;stroke-linejoin:round;}
	.st7{fill:none;stroke:#EEDFBE;stroke-width:3;stroke-linecap:round;stroke-linejoin:round;}
	.st8{fill:none;stroke:#BB474B;stroke-width:3;stroke-linecap:round;stroke-linejoin:round;stroke-miterlimit:10;}
	.st9{fill:#203425;stroke:#203425;stroke-width:3;stroke-linecap:round;stroke-linejoin:round;stroke-miterlimit:10;}
	.st10{fill:none;stroke:#00F300;stroke-width:3;stroke-linecap:round;stroke-linejoin:round;stroke-miterlimit:10;}
	.st11{fill:none;stroke:#E2EFF3;stroke-width:3;stroke-linecap:round;stroke-linejoin:round;stroke-miterlimit:10;}
	.st12{fill:none;stroke:#EEDFBE;stroke-width:3;stroke-linecap:round;stroke-linejoin:round;stroke-miterlimit:10;}
	.st13{fill:none;stroke:#AF8A6D;stroke-width:2.9991;stroke-linecap:round;stroke-linejoin:round;stroke-miterlimit:10;}
	.st14{fill:#BB474B;}
	.st15{fill:#E2EFF3;}
	.st16{fill:#A7C349;}
	.st17{fill:none;stroke:#E2EFF3;stroke-width:3;stroke-linecap:round;stroke-linejoin:round;}
	.st18{fill:#AF8A6D;}
	.st19{fill:none;}
	.st20{fill:none;stroke:#9F3088;stroke-width:3;stroke-linecap:round;stroke-linejoin:round;stroke-miterlimit:10;}
	.st21{fill:none;stroke:#503BC4;stroke-width:3;stroke-linecap:round;stroke-linejoin:round;stroke-miterlimit:10;}
	.st22{fill:none;stroke:#1A1A1A;stroke-width:3;stroke-linecap:round;stroke-linejoin:round;stroke-miterlimit:10;}
	.st23{fill:none;stroke:#A7C349;stroke-width:2.9865;stroke-linecap:round;stroke-linejoin:round;stroke-miterlimit:10;}
	.st24{fill:none;stroke:#AF8A6D;stroke-width:2.9865;stroke-linecap:round;stroke-linejoin:round;stroke-miterlimit:10;}
	.st25{fill:none;stroke:#7B5744;stroke-width:2.9865;stroke-linecap:round;stroke-linejoin:round;stroke-miterlimit:10;}
	.st26{fill:#00854E;stroke:#00854E;stroke-width:3;stroke-linecap:round;stroke-linejoin:round;stroke-miterlimit:10;}
	.st27{fill:none;stroke:#00A166;stroke-width:3;stroke-linecap:round;stroke-linejoin:round;stroke-miterlimit:10;}
	.st28{fill:#0054BA;stroke:#0054BA;stroke-width:3;stroke-linecap:round;stroke-linejoin:round;stroke-miterlimit:10;}
	.st29{fill:none;stroke:#007DD1;stroke-width:3;stroke-linecap:round;stroke-linejoin:round;stroke-miterlimit:10;}
	.st30{fill:#FF0752;stroke:#FF0752;stroke-width:3;stroke-linecap:round;stroke-linejoin:round;stroke-miterlimit:10;}
	.st31{fill:none;stroke:#FF5988;stroke-width:3;stroke-linecap:round;stroke-linejoin:round;stroke-miterlimit:10;}
	.st32{fill:#00A8CF;stroke:#00A8CF;stroke-width:3;stroke-linecap:round;stroke-linejoin:round;stroke-miterlimit:10;}
	.st33{fill:none;stroke:#51C6E0;stroke-width:3;stroke-linecap:round;stroke-linejoin:round;stroke-miterlimit:10;}
	.st34{fill:#260600;stroke:#260600;stroke-width:3;stroke-linecap:round;stroke-linejoin:round;stroke-miterlimit:10;}
	.st35{fill:none;stroke:#FF411F;stroke-width:3;stroke-linecap:round;stroke-linejoin:round;stroke-miterlimit:10;}
	.st36{fill:#520035;stroke:#520035;stroke-width:3;stroke-linecap:round;stroke-linejoin:round;stroke-miterlimit:10;}
	.st37{fill:none;stroke:#FF61FA;stroke-width:3;stroke-linecap:round;stroke-linejoin:round;stroke-miterlimit:10;}
	.st38{fill:#49021F;stroke:#49021F;stroke-width:3;stroke-linecap:round;stroke-linejoin:round;stroke-miterlimit:10;}
	.st39{fill:none;stroke:#FF3366;stroke-width:3;stroke-linecap:round;stroke-linejoin:round;stroke-miterlimit:10;}
	.st40{fill:#002620;stroke:#002620;stroke-width:3;stroke-linecap:round;stroke-linejoin:round;stroke-miterlimit:10;}
	.st41{fill:none;stroke:#00E2B9;stroke-width:3;stroke-linecap:round;stroke-linejoin:round;stroke-miterlimit:10;}
	.st42{fill:#330000;stroke:#330000;stroke-width:3;stroke-linecap:round;stroke-linejoin:round;stroke-miterlimit:10;}
	.st43{fill:none;stroke:#FF9A00;stroke-width:3;stroke-linecap:round;stroke-linejoin:round;stroke-miterlimit:10;}
	.st44{fill:#1F003F;stroke:#1F003F;stroke-width:3;stroke-linecap:round;stroke-linejoin:round;stroke-miterlimit:10;}
	.st45{fill:none;stroke:#CE8FFE;stroke-width:3;stroke-linecap:round;stroke-linejoin:round;stroke-miterlimit:10;}
	.st46{fill:#001E36;stroke:#001E36;stroke-width:3;stroke-linecap:round;stroke-linejoin:round;stroke-miterlimit:10;}
	.st47{fill:none;stroke:#31A8FF;stroke-width:3;stroke-linecap:round;stroke-linejoin:round;stroke-miterlimit:10;}
	.st48{fill:#D54927;stroke:#D54927;stroke-width:3;stroke-linecap:round;stroke-linejoin:round;stroke-miterlimit:10;}
	.st49{fill:none;stroke:#FD764E;stroke-width:3;stroke-linecap:round;stroke-linejoin:round;stroke-miterlimit:10;}
	.st50{fill:#00B5FF;stroke:#006AFF;stroke-width:3;stroke-linecap:round;stroke-linejoin:round;stroke-miterlimit:10;}
	.st51{fill:none;stroke:#006AFF;stroke-width:3;stroke-linecap:round;stroke-linejoin:round;stroke-miterlimit:10;}
	.st52{fill:#D20300;stroke:#D20300;stroke-width:3;stroke-linecap:round;stroke-linejoin:round;stroke-miterlimit:10;}
	.st53{fill:none;stroke:#FFFFFF;stroke-width:3;stroke-linecap:round;stroke-linejoin:round;stroke-miterlimit:10;}
	.st54{fill:#4ECA74;stroke:#ACDF92;stroke-width:3;stroke-linecap:round;stroke-linejoin:round;stroke-miterlimit:10;}
	.st55{fill:none;stroke:#ACDF92;stroke-width:3;stroke-linecap:round;stroke-linejoin:round;stroke-miterlimit:10;}
	.st56{opacity:0.3;clip-path:url(#SVGID_2_);}
	.st57{opacity:3.000000e-02;}
	.st58{opacity:0.2;}
	.st59{fill:#7B5744;}
	.st60{fill:#EEDFBE;}
</style>
<g id="图层_0">
</g>
<g id="图层_1">
	<g>
		<path class="st19" d="M0,0v64h64V0H0z M7.4,16c0.2-1.8,1.8-3,3.6-2.8l10.3,1.3l12.2-12c1.3-1.2,3.3-1.2,4.5,0
			c1.2,1.3,1.2,3.3,0,4.5l-14,13.8c-1.2,1.2-1.7,3-1.3,4.7l3,10.8c0.5,1.7-0.5,3.5-2.2,3.9c-0.3,0.1-0.6,0.1-0.9,0.1
			c-1.4,0-2.7-0.9-3.1-2.3l-3-10.8c-0.6-2.3-0.5-4.7,0.3-6.9l-6.7-0.9C8.4,19.3,7.1,17.7,7.4,16z M46.9,39.6l-5.6,7.7
			c-2.1,3-5.5,4.6-9.1,4.6c-0.7,0-1.5-0.1-2.2-0.2l1.9,6.5c0.5,1.7-0.5,3.5-2.2,4c-0.3,0.1-0.6,0.1-0.9,0.1c-1.4,0-2.7-0.9-3.1-2.3
			l-2.9-9.9L6.2,46.5c-1.7-0.4-2.8-2.1-2.4-3.8s2.1-2.8,3.8-2.4l23.6,5.2c1.9,0.4,3.8-0.3,4.9-1.9l5.6-7.7c1-1.4,3-1.8,4.5-0.7
			C47.7,36.1,48,38.1,46.9,39.6z M58.3,24.3l-3.4,4.5L58,47.9c0.3,1.7-0.9,3.4-2.7,3.7c-0.2,0-0.3,0-0.5,0c-1.5,0-2.9-1.1-3.2-2.7
			l-3.4-21.2c-0.3-2.1-2-3.8-4.2-4L34,22.5c-1.8-0.2-3-1.8-2.8-3.6c0.2-1.8,1.8-3,3.6-2.8l10.1,1.2c3,0.4,5.7,2,7.5,4.3l0.9-1.1
			c1.1-1.4,3.1-1.7,4.5-0.6C59.1,20.9,59.4,22.9,58.3,24.3z"/>
		<path class="st59" d="M57.7,19.8c-1.4-1.1-3.4-0.8-4.5,0.6l-0.9,1.1c1.1,1.5,1.9,3.2,2.2,5.1l0.3,2.1l3.4-4.5
			C59.4,22.9,59.1,20.9,57.7,19.8z"/>
		<path class="st60" d="M10.1,19.5l6.7,0.9c0.6-1.5,1.5-2.9,2.6-4.1l1.8-1.8l-10.3-1.3c-1.8-0.2-3.4,1-3.6,2.8
			C7.1,17.7,8.4,19.3,10.1,19.5z"/>
		<path class="st60" d="M52.4,21.6c-1.8-2.3-4.5-3.9-7.5-4.3l-10.1-1.2c-1.8-0.2-3.3,1-3.6,2.8c-0.2,1.8,1,3.3,2.8,3.6l10.1,1.2
			c2.1,0.3,3.8,1.9,4.2,4l3.4,21.2c0.3,1.6,1.6,2.7,3.2,2.7c0.2,0,0.3,0,0.5,0c1.7-0.3,2.9-1.9,2.7-3.7l-3.1-19.1l-0.3-2.1
			C54.3,24.8,53.5,23,52.4,21.6z"/>
		<path class="st18" d="M22.9,50.2l2.9,9.9c0.4,1.4,1.7,2.3,3.1,2.3c0.3,0,0.6,0,0.9-0.1c1.7-0.5,2.7-2.3,2.2-4L30,51.7
			c-0.1,0-0.1,0-0.2,0L22.9,50.2z"/>
		<path class="st18" d="M16.8,20.4c-0.8,2.2-0.9,4.6-0.3,6.9l3,10.8c0.4,1.4,1.7,2.3,3.1,2.3c0.3,0,0.6,0,0.9-0.1
			c1.7-0.5,2.7-2.2,2.2-3.9l-3-10.8c-0.5-1.7,0-3.5,1.3-4.7l14-13.8c1.3-1.2,1.3-3.3,0-4.5c-1.2-1.3-3.3-1.3-4.5,0l-12.2,12
			l-1.8,1.8C18.2,17.5,17.3,18.9,16.8,20.4z"/>
		<path class="st59" d="M46.2,35.1c-1.4-1-3.4-0.7-4.5,0.7l-5.6,7.7c-1.1,1.6-3.1,2.3-4.9,1.9L7.6,40.2c-1.7-0.4-3.4,0.7-3.8,2.4
			s0.7,3.4,2.4,3.8l16.7,3.7l6.9,1.5c0.1,0,0.1,0,0.2,0c0.7,0.2,1.5,0.2,2.2,0.2c3.5,0,6.9-1.7,9.1-4.6l5.6-7.7
			C48,38.1,47.7,36.1,46.2,35.1z"/>
	</g>
</g>
</svg>
