<?xml version="1.0" encoding="utf-8"?>
<!-- Generator: Adobe Illustrator 24.3.0, SVG Export Plug-In . SVG Version: 6.00 Build 0)  -->
<svg version="1.1" id="图层_1" xmlns="http://www.w3.org/2000/svg" xmlns:xlink="http://www.w3.org/1999/xlink" x="0px" y="0px"
	 viewBox="0 0 56.7 56.7" style="enable-background:new 0 0 56.7 56.7;" xml:space="preserve">
<style type="text/css">
	.st0{fill:#AF8A6D;}
	.st1{fill:#7B5744;}
	.st2{fill:#EEDFBE;}
</style>
<g>
	<path class="st0" d="M37,5.3c0.5,2.8,1.1,6,1.6,8.8c-2.5-0.3-5-0.5-7.4-0.8c-1.1,1.1-2.1,2.2-3.2,3.4c0,0.1,0,0.1,0,0.2
		c0.6,2.5,2.2,10,2.5,11.2c-0.8,0.9-1.6,1.8-2.4,2.7c-1.4,1.6-2.8,3.1-4.2,4.7c-1.3-5.3-2.6-10.5-3.9-15.9c-0.3-1.1,0.1-2.2,0.8-3
		C24.1,13.2,29.5,7.5,33,4C34.3,2.7,36.6,3.4,37,5.3z"/>
	<path class="st0" d="M38.2,44.4c-2,2.7-4.1,5.3-6.1,8c-1.2,1.6-3.7,1.1-4.2-0.9c-0.2-0.9-0.4-1.8-0.6-2.7c-0.2-1-0.5-2.1-0.8-3.1
		c1.7,0.3,3.3,0.6,5,0.9c1.5,0.3,2.9-0.3,3.9-1.5c0.3-0.4,0.6-0.8,0.9-1.2C36.9,44.2,37.5,44.3,38.2,44.4z"/>
	<path class="st1" d="M51.3,18.2l-1.4,1.7c-0.2-1.5-0.5-2.9-0.7-4.4l1.1,0.1C51.5,15.7,52.1,17.2,51.3,18.2z"/>
	<path class="st2" d="M36.2,44c1.3-1.7,5.9-7.7,6.9-8.9c-0.3-1.8-0.7-3.6-1-5.3c0,0,0-0.1-0.1-0.1c0,0-0.1-0.1-0.1-0.1
		c-3.8-0.5-7.6-1.1-11.5-1.6c-0.3-1.2-2-8.6-2.5-11.2c0,0,0-0.1,0-0.2c2.5,0.3,11.8,1.4,16.4,1.9c1,0.1,1.9,0.9,2.1,2
		c1.3,7.6,2.6,15.3,4,22.9c0.3,1.6-1.1,3-2.8,2.8C43.4,45.3,36.7,44.1,36.2,44z"/>
	<path class="st1" d="M30.5,28c3.8,0.5,7.6,1.1,11.5,1.6c0,0,0.1,0,0.1,0.1c-2.7,3.3-5.3,6.6-8,9.9c-0.9,1.1-2.4,1.7-3.8,1.4
		c-7.9-1.4-15.8-2.8-23.9-4.2c-1.3-0.2-1.8-1.8-0.8-2.7c3.2-3,7.7-7.4,8.7-8.4c0.5,0.1,1.1,0.2,1.7,0.2c0.7,2.8,1.5,5.7,2.2,8.6
		c1.9,0.3,3.8,0.6,5.7,0.9C25.3,33.8,29.7,28.9,30.5,28z"/>
	<path class="st2" d="M16,25.9c-0.6-0.1-1.2-0.2-1.7-0.2c-1.3,1.3-2.6,2.5-3.9,3.8c-0.8-3.1-1.6-8.1-2.6-11.8
		c-0.4-1.6,0.9-3.2,2.6-3c2,0.2,5.3,0.5,5.3,0.5l-0.4,0.4c-0.9,1-1.2,2.3-0.9,3.6C15,22.1,16,25.8,16,25.9z"/>
</g>
</svg>
