<?xml version="1.0" encoding="utf-8"?>
<!-- Generator: Adobe Illustrator 24.3.0, SVG Export Plug-In . SVG Version: 6.00 Build 0)  -->
<svg version="1.1" id="图层_1" xmlns="http://www.w3.org/2000/svg" xmlns:xlink="http://www.w3.org/1999/xlink" x="0px" y="0px"
	 viewBox="0 0 43.1 61" style="enable-background:new 0 0 43.1 61;" xml:space="preserve">
<path d="M0,30.5C0,30.5,0,30.4,0,30.5c-0.1-1.6,0.6-3.2,2-4.2L35.1,1c2.2-1.7,5.3-1.2,7,0.9c1.7,2.2,1.2,5.3-0.9,7L12.9,30.5
	L41.1,52c2.2,1.7,2.6,4.8,0.9,7c-1,1.3-2.5,2-4,2c-1.1,0-2.1-0.3-3-1L2,34.7C0.6,33.7-0.1,32.1,0,30.5L0,30.5z"/>
</svg>
