<?xml version="1.0" encoding="utf-8"?>
<!-- Generator: Adobe Illustrator 24.3.0, SVG Export Plug-In . SVG Version: 6.00 Build 0)  -->
<svg version="1.1" id="图层_1" xmlns="http://www.w3.org/2000/svg" xmlns:xlink="http://www.w3.org/1999/xlink" x="0px" y="0px"
	 viewBox="0 0 1471.2 453.5" style="enable-background:new 0 0 1471.2 453.5;" xml:space="preserve">
<style type="text/css">
	.st0{fill:none;}
	.st1{fill:#7C5543;stroke:#7B5744;stroke-miterlimit:10;}
	.st2{fill:#ECDDBB;stroke:#EEDFBE;stroke-miterlimit:10;}
	.st3{fill:#AF896D;stroke:#AF8A6D;stroke-miterlimit:10;}
</style>
<rect class="st0" width="1471.2" height="453.5"/>
<g>
	<path class="st1" d="M332.2,171.4c-6.2-4.7-15.1-3.5-19.9,2.7l-3.9,5.1c5,6.4,8.5,14.1,9.8,22.5l1.5,9.4l15.1-19.9
		C339.6,185.1,338.4,176.2,332.2,171.4z"/>
	<path class="st2" d="M121.3,170.2l29.6,3.8c2.5-6.7,6.4-12.9,11.7-18.1l8-7.9l-45.6-5.9c-7.8-1-14.9,4.5-15.9,12.2
		C108.1,162.1,113.6,169.2,121.3,170.2z"/>
	<path class="st2" d="M308.5,179.2c-8-10.2-19.8-17.3-33.2-18.9l-44.6-5.4c-7.8-0.9-14.8,4.6-15.8,12.4c-0.9,7.8,4.6,14.8,12.4,15.8
		l44.6,5.4c9.4,1.1,16.9,8.4,18.4,17.8l15,94.1c1.1,7,7.1,11.9,14,11.9c0.7,0,1.5-0.1,2.3-0.2c7.7-1.2,13-8.5,11.8-16.2l-13.5-84.7
		l-1.5-9.4C316.9,193.4,313.5,185.7,308.5,179.2z"/>
	<path class="st3" d="M178,305.8l13,44c1.8,6.2,7.5,10.2,13.6,10.2c1.3,0,2.7-0.2,4-0.6c7.5-2.2,11.8-10.1,9.6-17.6l-8.6-29
		c-0.3-0.1-0.6-0.1-0.9-0.2L178,305.8z"/>
	<path class="st3" d="M150.9,174c-3.6,9.6-4.1,20.3-1.3,30.6l13.3,47.7c1.7,6.3,7.4,10.4,13.6,10.4c1.3,0,2.5-0.2,3.8-0.5
		c7.5-2.1,12-9.9,9.8-17.5L176.9,197c-2.1-7.4,0.1-15.4,5.6-20.8l62.1-61.1c5.6-5.5,5.6-14.5,0.1-20c-5.5-5.6-14.5-5.6-20-0.1
		l-54,53.2l-8,7.9C157.3,161.1,153.4,167.3,150.9,174z"/>
	<path class="st1" d="M281.3,239.1c-6.3-4.6-15.2-3.2-19.8,3.2l-24.8,34.3c-5,6.9-13.5,10.2-21.8,8.3l-104.7-23.2
		c-7.6-1.7-15.2,3.1-16.9,10.8s3.1,15.2,10.8,16.9l74,16.4l30.7,6.8c0.3,0.1,0.6,0.1,0.9,0.2c3.3,0.7,6.6,1,9.9,1
		c15.7,0,30.7-7.5,40.2-20.6l24.8-34.3C289.1,252.6,287.6,243.7,281.3,239.1z"/>
</g>
<g>
	<rect x="1323.8" y="317.5" class="st0" width="28.3" height="42.5"/>
	<rect x="593.9" y="140.3" class="st0" width="14.2" height="56.7"/>
	<rect x="459.2" y="317.5" class="st0" width="28.3" height="42.5"/>
	<rect x="671.8" y="317.5" class="st0" width="28.3" height="14.2"/>
	<rect x="841.9" y="317.5" class="st0" width="28.3" height="14.2"/>
	<rect x="459.2" y="76.5" class="st2" width="42.5" height="21.3"/>
	<rect x="572.6" y="76.5" class="st3" width="35.4" height="21.3"/>
	<rect x="700.2" y="76.5" class="st3" width="42.5" height="21.3"/>
	<rect x="664.7" y="76.5" class="st3" width="14.2" height="21.3"/>
	<rect x="849" y="97.8" class="st1" width="21.3" height="56.7"/>
	<rect x="849" y="175.7" class="st1" width="21.3" height="49.6"/>
	<rect x="1061.6" y="225.4" class="st1" width="56.7" height="21.3"/>
	<rect x="374.2" y="104.9" class="st3" width="21.3" height="141.7"/>
	<path class="st1" d="M395.4,83.6h-12.8c-4.7,0-8.5,3.8-8.5,8.5v12.8h21.3h21.3V83.6H395.4z"/>
	<rect x="416.7" y="133.2" class="st2" width="21.3" height="7.1"/>
	<polygon class="st2" points="438,104.9 438,83.6 416.7,83.6 416.7,104.9 416.7,112 438,112 	"/>
	<path class="st1" d="M523,97.8V85c0-4.7-3.8-8.5-8.5-8.5h-12.8v21.3V112H523V97.8z"/>
	<polygon class="st1" points="544.3,175.7 544.3,161.6 523,161.6 523,175.7 530.1,175.7 	"/>
	<rect x="523" y="133.2" class="st1" width="21.3" height="7.1"/>
	<polygon class="st1" points="530.1,197 523,197 508.8,197 508.8,225.4 530.1,225.4 	"/>
	<rect x="409.6" y="197" class="st2" width="21.3" height="21.3"/>
	<polygon class="st3" points="544.3,246.6 544.3,225.4 530.1,225.4 508.8,225.4 466.3,225.4 466.3,246.6 508.8,246.6 530.1,246.6 	
		"/>
	<path class="st1" d="M466.3,211.2H445v14.2v12.8c0,4.7,3.8,8.5,8.5,8.5h12.8v-21.3V211.2z"/>
	<polygon class="st2" points="544.3,140.3 523,140.3 473.4,140.3 473.4,161.6 523,161.6 544.3,161.6 	"/>
	<polygon class="st1" points="629.3,97.8 629.3,76.5 608,76.5 608,97.8 608,119.1 629.3,119.1 	"/>
	<rect x="608" y="140.3" class="st1" width="21.3" height="56.7"/>
	<rect x="572.6" y="218.3" class="st3" width="21.3" height="28.3"/>
	<rect x="572.6" y="140.3" class="st3" width="21.3" height="56.7"/>
	<polygon class="st2" points="700.2,97.8 700.2,76.5 678.9,76.5 678.9,97.8 678.9,119.1 700.2,119.1 	"/>
	<rect x="678.9" y="140.3" class="st2" width="21.3" height="14.2"/>
	<rect x="735.6" y="119.1" class="st1" width="7.1" height="21.3"/>
	<polygon class="st1" points="700.2,119.1 678.9,119.1 678.9,140.3 700.2,140.3 714.3,140.3 714.3,119.1 	"/>
	<rect x="664.7" y="175.7" class="st2" width="28.3" height="21.3"/>
	<polygon class="st1" points="714.3,197 714.3,175.7 693.1,175.7 693.1,197 693.1,225.4 714.3,225.4 	"/>
	<path class="st3" d="M742.7,225.4h-28.3h-21.3v12.8c0,4.7,3.8,8.5,8.5,8.5h12.8h28.3V225.4z"/>
	<rect x="813.5" y="104.9" class="st1" width="21.3" height="21.3"/>
	<rect x="771" y="104.9" class="st1" width="21.3" height="21.3"/>
	<rect x="771" y="189.9" class="st1" width="21.3" height="21.3"/>
	<polygon class="st3" points="792.3,189.9 792.3,211.2 792.3,246.6 813.5,246.6 813.5,175.7 792.3,175.7 	"/>
	<polygon class="st3" points="813.5,126.1 813.5,104.9 813.5,76.5 792.3,76.5 792.3,104.9 792.3,126.1 792.3,154.5 813.5,154.5 	"/>
	<polygon class="st2" points="849,154.5 813.5,154.5 792.3,154.5 792.3,175.7 813.5,175.7 849,175.7 870.2,175.7 884.4,175.7 
		884.4,154.5 870.2,154.5 	"/>
	<path class="st3" d="M827.7,225.4v21.3H849h12.8c4.7,0,8.5-3.8,8.5-8.5v-12.8H849H827.7z"/>
	<path class="st2" d="M912.8,97.8V76.5h-42.5h-12.8c-4.7,0-8.5,3.8-8.5,8.5v12.8h21.3H912.8z"/>
	<path class="st3" d="M912.8,225.4H934V97.8V85c0-4.7-3.8-8.5-8.5-8.5h-12.8v21.3V225.4z"/>
	<rect x="1012" y="154.5" class="st2" width="14.2" height="21.3"/>
	<rect x="1040.3" y="97.8" class="st3" width="21.3" height="7.1"/>
	<rect x="1040.3" y="126.1" class="st3" width="21.3" height="35.4"/>
	<path class="st1" d="M1040.3,174.3c0,4.7,3.8,8.5,8.5,8.5h12.8h28.3v-21.3h-28.3h-21.3V174.3z"/>
	<polygon class="st2" points="1061.6,76.5 1040.3,76.5 1040.3,97.8 1061.6,97.8 1118.3,97.8 1118.3,76.5 	"/>
	<path class="st3" d="M1139.5,225.4V97.8V85c0-4.7-3.8-8.5-8.5-8.5h-12.8v21.3v127.6v21.3h12.8c4.7,0,8.5-3.8,8.5-8.5V225.4z"/>
	<polygon class="st3" points="1089.9,189.9 1111.2,189.9 1111.2,182.8 1111.2,161.6 1111.2,147.4 1089.9,147.4 1089.9,161.6 
		1089.9,182.8 	"/>
	<rect x="969.4" y="189.9" class="st1" width="21.3" height="21.3"/>
	<rect x="990.7" y="76.5" class="st3" width="21.3" height="28.3"/>
	<polygon class="st3" points="990.7,154.5 990.7,175.7 990.7,189.9 990.7,211.2 990.7,246.6 1012,246.6 1012,211.2 1012,189.9 
		1012,175.7 1012,154.5 1012,126.1 990.7,126.1 	"/>
	<polygon class="st1" points="1012,104.9 990.7,104.9 969.4,104.9 969.4,126.1 990.7,126.1 1012,126.1 1040.3,126.1 1061.6,126.1 
		1061.6,104.9 1040.3,104.9 	"/>
	<path class="st1" d="M912.8,238.1c0,4.7,3.8,8.5,8.5,8.5H934h7.1v-21.3H934h-21.3V238.1z"/>
	<polygon class="st2" points="629.3,119.1 608,119.1 593.9,119.1 593.9,140.3 608,140.3 629.3,140.3 643.5,140.3 643.5,119.1 	"/>
	<path class="st3" d="M664.7,140.3v-12.8c0-4.7-3.8-8.5-8.5-8.5h-12.8v21.3v35.4V197v49.6h21.3V197v-21.3V140.3z"/>
	<polygon class="st3" points="544.3,112 523,112 501.7,112 438,112 416.7,112 416.7,133.2 438,133.2 501.7,133.2 523,133.2 
		544.3,133.2 	"/>
	<polygon class="st3" points="530.1,197 544.3,197 544.3,175.7 530.1,175.7 523,175.7 508.8,175.7 430.9,175.7 409.6,175.7 
		409.6,197 430.9,197 508.8,197 523,197 	"/>
	<rect x="1352.1" y="317.5" class="st3" width="14.2" height="42.5"/>
	<rect x="1182" y="303.3" class="st3" width="14.2" height="56.7"/>
	<rect x="1082.8" y="317.5" class="st3" width="14.2" height="42.5"/>
	<rect x="1082.8" y="289.1" class="st3" width="14.2" height="14.2"/>
	<rect x="841.9" y="303.3" class="st2" width="28.3" height="14.2"/>
	<path class="st3" d="M875.9,303.3h-5.7v14.2v14.2h14.2v-14.2v-5.7C884.4,307.1,880.6,303.3,875.9,303.3z"/>
	<rect x="558.4" y="317.5" class="st3" width="14.2" height="56.7"/>
	<path class="st2" d="M564.1,303.3h-5.7h-28.3v14.2h28.3h14.2v-5.7C572.6,307.1,568.8,303.3,564.1,303.3z"/>
	<path class="st3" d="M524.4,303.3c-4.7,0-8.5,3.8-8.5,8.5v5.7v56.7h14.2v-56.7v-14.2H524.4z"/>
	<rect x="487.6" y="317.5" class="st3" width="14.2" height="42.5"/>
	<path class="st2" d="M423.8,296.2c3.9,0,7.1-3.2,7.1-7.1s-3.2-7.1-7.1-7.1h-35.4v14.2H423.8z"/>
	<path class="st2" d="M423.8,374.2c3.9,0,7.1-3.2,7.1-7.1s-3.2-7.1-7.1-7.1h-35.4v14.2H423.8z"/>
	<path class="st3" d="M388.3,282h-5.7c-4.7,0-8.5,3.8-8.5,8.5v5.7V360v5.7c0,4.7,3.8,8.5,8.5,8.5h5.7V360v-63.8V282z"/>
	<path class="st2" d="M493.2,303.3h-5.7h-28.3v14.2h28.3h14.2v-5.7C501.7,307.1,497.9,303.3,493.2,303.3z"/>
	<path class="st2" d="M459.2,360v14.2h28.3h5.7c4.7,0,8.5-3.8,8.5-8.5V360h-14.2H459.2z"/>
	<path class="st3" d="M459.2,317.5v-14.2h-5.7c-4.7,0-8.5,3.8-8.5,8.5v5.7V360v5.7c0,4.7,3.8,8.5,8.5,8.5h5.7V360V317.5z"/>
	<path class="st2" d="M636.4,317.5c3.9,0,7.1-3.2,7.1-7.1s-3.2-7.1-7.1-7.1h-35.4v14.2H636.4z"/>
	<path class="st2" d="M636.4,374.2c3.9,0,7.1-3.2,7.1-7.1s-3.2-7.1-7.1-7.1h-35.4v14.2H636.4z"/>
	<rect x="671.8" y="303.3" class="st2" width="28.3" height="14.2"/>
	<path class="st2" d="M707.2,374.2c3.9,0,7.1-3.2,7.1-7.1s-3.2-7.1-7.1-7.1h-35.4v14.2H707.2z"/>
	<path class="st3" d="M705.8,303.3h-5.7v14.2v14.2h14.2v-14.2v-5.7C714.3,307.1,710.5,303.3,705.8,303.3z"/>
	<rect x="771" y="317.5" class="st3" width="14.2" height="56.7"/>
	<polygon class="st2" points="742.7,303.3 742.7,317.5 771,317.5 785.2,317.5 785.2,303.3 771,303.3 	"/>
	<path class="st3" d="M737,303.3c-4.7,0-8.5,3.8-8.5,8.5v5.7V360h14.2v-42.5v-14.2H737z"/>
	<path class="st2" d="M728.5,365.7c0,4.7,3.8,8.5,8.5,8.5h5.7h14.2V360h-14.2h-14.2V365.7z"/>
	<rect x="941.1" y="282" class="st3" width="14.2" height="21.3"/>
	<rect x="941.1" y="317.5" class="st3" width="14.2" height="56.7"/>
	<polygon class="st2" points="912.8,303.3 912.8,317.5 941.1,317.5 955.3,317.5 955.3,303.3 941.1,303.3 	"/>
	<path class="st3" d="M907.1,303.3c-4.7,0-8.5,3.8-8.5,8.5v5.7V360h14.2v-42.5v-14.2H907.1z"/>
	<path class="st2" d="M898.6,365.7c0,4.7,3.8,8.5,8.5,8.5h5.7h14.2V360h-14.2h-14.2V365.7z"/>
	<path class="st2" d="M1004.9,360c-3.9,0-7.1,3.2-7.1,7.1s3.2,7.1,7.1,7.1h35.4V360H1004.9z"/>
	<path class="st2" d="M1047.4,296.2c3.9,0,7.1-3.2,7.1-7.1s-3.2-7.1-7.1-7.1H1012v14.2H1047.4z"/>
	<rect x="1012" y="321" class="st2" width="28.3" height="14.2"/>
	<path class="st3" d="M1012,282h-5.7c-4.7,0-8.5,3.8-8.5,8.5v5.7V321v5.7c0,4.7,3.8,8.5,8.5,8.5h5.7V321v-24.8V282z"/>
	<path class="st3" d="M1040.3,360v14.2h5.7c4.7,0,8.5-3.8,8.5-8.5V360v-24.8v-5.7c0-4.7-3.8-8.5-8.5-8.5h-5.7v14.2V360z"/>
	<path class="st2" d="M1114.7,317.5c3.9,0,7.1-3.2,7.1-7.1s-3.2-7.1-7.1-7.1H1097h-14.2h-7.1c-3.9,0-7.1,3.2-7.1,7.1
		s3.2,7.1,7.1,7.1h7.1h14.2H1114.7z"/>
	<path class="st2" d="M1118.3,360H1097h-14.2v5.7c0,4.7,3.8,8.5,8.5,8.5h5.7h21.3c3.9,0,7.1-3.2,7.1-7.1S1122.2,360,1118.3,360z"/>
	<path class="st2" d="M1153.7,360v14.2h28.3h5.7c4.7,0,8.5-3.8,8.5-8.5V360H1182H1153.7z"/>
	<rect x="1252.9" y="282" class="st3" width="14.2" height="21.3"/>
	<rect x="1252.9" y="317.5" class="st3" width="14.2" height="56.7"/>
	<polygon class="st2" points="1224.6,303.3 1224.6,317.5 1252.9,317.5 1267.1,317.5 1267.1,303.3 1252.9,303.3 	"/>
	<path class="st3" d="M1218.9,303.3c-4.7,0-8.5,3.8-8.5,8.5v5.7V360h14.2v-42.5v-14.2H1218.9z"/>
	<path class="st2" d="M1210.4,365.7c0,4.7,3.8,8.5,8.5,8.5h5.7h14.2V360h-14.2h-14.2V365.7z"/>
	<rect x="1281.3" y="310.4" class="st3" width="14.2" height="63.8"/>
	<rect x="1281.3" y="282" class="st2" width="14.2" height="14.2"/>
	<path class="st2" d="M1357.8,303.3h-5.7h-28.3v14.2h28.3h14.2v-5.7C1366.3,307.1,1362.5,303.3,1357.8,303.3z"/>
	<path class="st2" d="M1323.8,360v14.2h28.3h5.7c4.7,0,8.5-3.8,8.5-8.5V360h-14.2H1323.8z"/>
	<path class="st3" d="M1323.8,317.5v-14.2h-5.7c-4.7,0-8.5,3.8-8.5,8.5v5.7V360v5.7c0,4.7,3.8,8.5,8.5,8.5h5.7V360V317.5z"/>
	<path class="st2" d="M877.3,374.2c3.9,0,7.1-3.2,7.1-7.1s-3.2-7.1-7.1-7.1h-35.4v14.2H877.3z"/>
	<path class="st2" d="M841.9,331.7v14.2h28.3h5.7c4.7,0,8.5-3.8,8.5-8.5v-5.7h-14.2H841.9z"/>
	<path class="st3" d="M600.9,303.3h-5.7c-4.7,0-8.5,3.8-8.5,8.5v5.7V360v5.7c0,4.7,3.8,8.5,8.5,8.5h5.7V360v-42.5V303.3z"/>
	<path class="st2" d="M671.8,331.7v14.2h28.3h5.7c4.7,0,8.5-3.8,8.5-8.5v-5.7h-14.2H671.8z"/>
	<path class="st3" d="M671.8,317.5v-14.2h-5.7c-4.7,0-8.5,3.8-8.5,8.5v5.7v14.2v14.2V360v5.7c0,4.7,3.8,8.5,8.5,8.5h5.7V360v-14.2
		v-14.2V317.5z"/>
	<path class="st3" d="M841.9,317.5v-14.2h-5.7c-4.7,0-8.5,3.8-8.5,8.5v5.7v14.2v14.2V360v5.7c0,4.7,3.8,8.5,8.5,8.5h5.7V360v-14.2
		v-14.2V317.5z"/>
	<path class="st3" d="M1153.7,303.3h-14.2V360v5.7c0,4.7,3.8,8.5,8.5,8.5h5.7V360V303.3z"/>
	<rect x="799.4" y="282" class="st3" width="14.2" height="92.1"/>
	<polygon class="st2" points="593.9,197 572.6,197 572.6,218.3 593.9,218.3 608,218.3 629.3,218.3 629.3,197 608,197 	"/>
	<path class="st3" d="M727.1,197c4.7,0,8.5-3.8,8.5-8.5v-12.8v-35.4v-21.3h-21.3v21.3v35.4V197H727.1z"/>
</g>
</svg>
