<?xml version="1.0" encoding="utf-8"?>
<!-- Generator: Adobe Illustrator 24.3.0, SVG Export Plug-In . SVG Version: 6.00 Build 0)  -->
<svg version="1.1" id="图层_1" xmlns="http://www.w3.org/2000/svg" xmlns:xlink="http://www.w3.org/1999/xlink" x="0px" y="0px"
	 viewBox="0 0 1471.2 453.5" style="enable-background:new 0 0 1471.2 453.5;" xml:space="preserve">
<style type="text/css">
	.st0{fill:none;}
	.st1{fill:#7C5543;}
	.st2{fill:#EEDFBE;}
	.st3{fill:#AF896D;}
</style>
<g>
	<g>
		<rect x="100.4" y="43.8" class="st0" width="729.9" height="361.4"/>
	</g>
	<g>
		<g>
			<g id="LWPOLYLINE_2293_">
				<path class="st1" d="M821.8,405.2h-69.4V384h78v12.8C830.3,401.4,826.5,405.2,821.8,405.2z"/>
			</g>
			<g id="LWPOLYLINE_2292_">
				<rect x="681.5" y="313.1" class="st2" width="35.4" height="21.2"/>
			</g>
			<g id="LWPOLYLINE_2291_">
				<path class="st3" d="M752.4,235.1h-21.2v97.8c0,4.7,3.8,8.6,8.6,8.6h12.8V235.1H752.4z"/>
			</g>
			<g id="LWPOLYLINE_2290_">
				<path class="st1" d="M739.6,341.4H802v-21.2h-70.9V333C731.2,337.6,735,341.4,739.6,341.4z"/>
			</g>
			<g id="LWPOLYLINE_2289_">
				<path class="st2" d="M731.2,235.1h90.7c4.7,0,8.6,3.8,8.6,8.6v12.8h-99.2V235.1z"/>
			</g>
			<g id="LWPOLYLINE_2288_">
				<path class="st3" d="M821.8,235.1h-12.8v170.1h12.8c4.7,0,8.6-3.8,8.6-8.6v-153C830.3,238.9,826.5,235.1,821.8,235.1z"/>
			</g>
			<g id="LWPOLYLINE_2287_">
				<rect x="780.7" y="306" class="st3" width="21.2" height="42.6"/>
			</g>
			<g id="LWPOLYLINE_2286_">
				<rect x="660.3" y="348.5" class="st1" width="42.6" height="21.2"/>
			</g>
			<g id="LWPOLYLINE_2285_">
				<rect x="681.5" y="235.1" class="st3" width="21.2" height="170.1"/>
			</g>
			<g id="LWPOLYLINE_2284_">
				<rect x="660.3" y="263.4" class="st1" width="92.1" height="21.2"/>
			</g>
		</g>
		<g>
			<g id="LWPOLYLINE_2283_">
				<path class="st1" d="M552.5,405.2h-12.8V243.6c0-4.7,3.8-8.6,8.6-8.6h12.8v161.6C561.1,401.4,557.3,405.2,552.5,405.2z"/>
			</g>
			<g id="LWPOLYLINE_2282_">
				<rect x="461.8" y="263.4" class="st1" width="63.8" height="21.2"/>
			</g>
			<g id="LWPOLYLINE_2281_">
				<rect x="461.8" y="348.5" class="st1" width="35.4" height="21.2"/>
			</g>
			<g id="LWPOLYLINE_2280_">
				<rect x="483.1" y="235.1" class="st3" width="21.2" height="170.1"/>
			</g>
			<g id="LWPOLYLINE_2279_">
				<rect x="483.1" y="313.1" class="st2" width="92.1" height="21.2"/>
			</g>
			<g id="LWPOLYLINE_2278_">
				<path class="st3" d="M518.5,405.2h34c4.7,0,8.6-3.8,8.6-8.6v-12.8h-42.6V405.2z"/>
			</g>
			<g id="LWPOLYLINE_2277_">
				<path class="st2" d="M548.3,235.1h68c4.7,0,8.6,3.8,8.6,8.6v12.8h-85v-12.8C539.8,238.9,543.6,235.1,548.3,235.1z"/>
			</g>
			<g id="LWPOLYLINE_2276_">
				<path class="st3" d="M616.3,235.1h-12.8v161.6c0,4.7,3.8,8.6,8.6,8.6h12.8V243.6C624.8,238.9,621.1,235.1,616.3,235.1z"/>
			</g>
			<g id="LWPOLYLINE_2275_">
				<path class="st1" d="M632,405.2h-19.9c-4.7,0-8.6-3.8-8.6-8.6v-12.8h28.3v21.3H632z"/>
			</g>
		</g>
		<g>
			<g id="LWPOLYLINE_2274_">
				<path class="st2" d="M199.8,50.9L160.7,90l15,15l45.1-45.1l-9-9C208.5,47.5,203.2,47.5,199.8,50.9z"/>
			</g>
			<g id="LWPOLYLINE_2273_">
				<path class="st3" d="M220.8,270.3l15-15L120.6,140.1l-9,9c-3.3,3.3-3.3,8.7,0,12L220.8,270.3z"/>
			</g>
			<g id="LWPOLYLINE_2272_">
				<path class="st1" d="M111.6,149.1l39.1-39.1l15,15l-45.1,45.1l-9-9C108.3,157.8,108.3,152.4,111.6,149.1z"/>
			</g>
			<g id="LWPOLYLINE_2271_">
				
					<rect x="152.6" y="109.2" transform="matrix(0.7071 -0.7071 0.7071 0.7071 -49.4623 155.7171)" class="st2" width="21.2" height="56.7"/>
			</g>
			<g id="LWPOLYLINE_2270_">
				<path class="st1" d="M246,85l-15,15l-40.1-40.1l9-9c3.3-3.3,8.7-3.3,12,0L246,85z"/>
			</g>
			<g id="LWPOLYLINE_2269_">
				
					<rect x="257.9" y="50" transform="matrix(0.7071 -0.7071 0.7071 0.7071 13.2291 216.9455)" class="st1" width="21.2" height="85"/>
			</g>
			<g id="LWPOLYLINE_2268_">
				
					<rect x="287.9" y="107.1" transform="matrix(0.7071 -0.7071 0.7071 0.7071 -13.35 252.8566)" class="st1" width="21.2" height="70.9"/>
			</g>
			<g id="LWPOLYLINE_2267_">
				
					<rect x="207.8" y="181.5" transform="matrix(0.7071 -0.7071 0.7071 0.7071 -79.3949 213.7867)" class="st2" width="21.2" height="42.6"/>
			</g>
			<g id="LWPOLYLINE_2266_">
				<path class="st3" d="M341.2,150.1l-64.1,64.1c-3.3,3.3-8.7,3.3-12,0l-9-9l70.1-70.1L341.2,150.1z"/>
			</g>
			<g id="LWPOLYLINE_2265_">
				<path class="st1" d="M277.1,214.2l9-9l-25-25l-15,15l19,19C268.3,217.5,273.7,217.5,277.1,214.2z"/>
			</g>
			<g id="LWPOLYLINE_2264_">
				
					<rect x="213" y="96.8" transform="matrix(0.7071 -0.7071 0.7071 0.7071 -3.1913 207.1811)" class="st2" width="70.9" height="21.2"/>
			</g>
			<g id="LWPOLYLINE_2263_">
				
					<rect x="144.6" y="96.8" transform="matrix(0.7071 -0.7071 0.7071 0.7071 -14.9489 178.828)" class="st3" width="127.6" height="21.2"/>
			</g>
			<g id="LWPOLYLINE_2262_">
				
					<rect x="183.6" y="144.4" transform="matrix(0.7071 -0.7071 0.7071 0.7071 -36.1476 222.843)" class="st3" width="134.7" height="21.2"/>
			</g>
		</g>
		<g>
			<g id="LWPOLYLINE_2261_">
				<rect x="263.4" y="235.1" class="st3" width="56.7" height="21.2"/>
			</g>
			<g id="LWPOLYLINE_2260_">
				<rect x="355.5" y="235.1" class="st3" width="78" height="21.2"/>
			</g>
			<g id="LWPOLYLINE_2259_">
				<rect x="298.8" y="235.1" class="st1" width="21.2" height="141.8"/>
			</g>
			<g id="LWPOLYLINE_2258_">
				<rect x="263.4" y="298.9" class="st3" width="21.2" height="106.3"/>
			</g>
			<g id="LWPOLYLINE_2257_">
				<rect x="369.7" y="235.1" class="st2" width="21.2" height="78"/>
			</g>
			<g id="LWPOLYLINE_2256_">
				<rect x="369.7" y="277.6" class="st1" width="63.8" height="21.2"/>
			</g>
			<g id="LWPOLYLINE_2255_">
				<path class="st2" d="M418,355.5h-83.7v-21.2h92.1v12.8C426.4,351.8,422.6,355.5,418,355.5z"/>
			</g>
			<g id="LWPOLYLINE_2254_">
				<path class="st1" d="M405.2,334.3H384v62.3c0,4.7,3.8,8.6,8.6,8.6h12.8v-70.9H405.2z"/>
			</g>
			<g id="LWPOLYLINE_2253_">
				<path class="st3" d="M392.4,405.2h41.1V384H384v12.8C383.8,401.4,387.7,405.2,392.4,405.2z"/>
			</g>
			<g id="LWPOLYLINE_2252_">
				<path class="st2" d="M284.6,298.9h70.9v-12.8c0-4.7-3.8-8.6-8.6-8.6h-62.3L284.6,298.9L284.6,298.9z"/>
			</g>
			<g id="LWPOLYLINE_2251_">
				<path class="st3" d="M347.1,277.6h-12.8v127.6h21.2V286.1C355.5,281.4,351.7,277.6,347.1,277.6z"/>
			</g>
			<g id="LWPOLYLINE_2250_">
				<rect x="263.4" y="355.5" class="st2" width="56.7" height="21.2"/>
			</g>
			<g id="LWPOLYLINE_2249_">
				<path class="st3" d="M405.2,277.6h21.2v69.4c0,4.7-3.8,8.6-8.6,8.6h-12.8v-78H405.2z"/>
			</g>
		</g>
		<g>
			<g>
				<g id="SPLINE_72_">
					<path class="st1" d="M191.7,331c-1.2,0-2.4-0.3-3.4-1.1c-2.4-1.9-3-5.4-1.1-7.9l7.6-9.9c1.9-2.4,5.4-3,7.9-1.1
						c2.4,1.9,3,5.4,1.1,7.9l-7.6,9.9C195.2,330.2,193.4,331,191.7,331z"/>
				</g>
				<g id="SPLINE_71_">
					<path class="st2" d="M140.1,313.2c-0.2,0-0.4,0-0.8,0l-21-2.8c-3.1-0.4-5.3-3.2-4.9-6.3c0.4-3.1,3.2-5.3,6.3-4.9l21,2.8
						c3.1,0.4,5.3,3.2,4.9,6.3C145.3,311.1,142.8,313.2,140.1,313.2z"/>
				</g>
				<g id="SPLINE_70_">
					<path class="st2" d="M197.5,367.2c-2.8,0-5.1-2-5.6-4.8l-6-37.7c-0.6-3.8-3.7-6.7-7.3-7.1l-17.9-2.1c-3.1-0.3-5.3-3.2-5-6.3
						c0.3-3.1,3.2-5.3,6.3-5l17.9,2.1c8.8,1.1,15.8,7.9,17.2,16.6l6,37.7c0.4,3.1-1.7,6-4.7,6.4
						C198.1,367.2,197.8,367.2,197.5,367.2z"/>
				</g>
				<g id="SPLINE_69_">
					<path class="st3" d="M151.6,386.3c-2.4,0-4.7-1.6-5.4-4.1l-6.1-20.7c-0.9-3,0.8-6.1,3.8-7c3-0.9,6.1,0.8,7,3.8L157,379
						c0.9,3-0.8,6.1-3.8,7C152.7,386.2,152.2,386.3,151.6,386.3z"/>
				</g>
				<g id="SPLINE_68_">
					<path class="st3" d="M140.4,347.4c-2.4,0-4.8-1.7-5.4-4.1l-5.3-19.1c-1.9-6.9,0-14.4,5.2-19.4l24.8-24.4c2.2-2.2,5.8-2.2,8,0.1
						c2.2,2.2,2.2,5.8-0.1,8l-24.8,24.4c-2.2,2.2-3,5.3-2.2,8.3l5.3,19.1c0.9,3-0.9,6.1-3.9,7C141.4,347.3,141,347.4,140.4,347.4z"
						/>
				</g>
				<g id="SPLINE_67_">
					<path class="st1" d="M157.6,367.9c-1.4,0-2.9-0.1-4.3-0.4l-41.9-9.3c-3.1-0.7-5-3.7-4.3-6.8c0.7-3.1,3.7-5,6.8-4.3l41.9,9.3
						c3.3,0.8,6.8-0.6,8.8-3.3l9.9-13.8c1.8-2.6,5.3-3.1,7.9-1.3c2.6,1.8,3.1,5.3,1.3,7.9l-9.9,13.8
						C170,364.9,163.8,367.9,157.6,367.9z"/>
				</g>
			</g>
			<rect x="100.4" y="275.8" class="st0" width="113.3" height="113.3"/>
		</g>
		<g>
			<g id="LWPOLYLINE_2248_">
				<path class="st3" d="M657.4,148.3h-4.2v53.1h4.2c3.6,0,6.3-2.9,6.3-6.3v-40.4C663.8,151.2,661,148.3,657.4,148.3z"/>
			</g>
			<g id="LWPOLYLINE_2247_">
				<path class="st3" d="M536.3,148.3h-10.7v53.1h4.2c3.6,0,6.3-2.9,6.3-6.3L536.3,148.3z"/>
			</g>
			<g id="LWPOLYLINE_2246_">
				<path class="st3" d="M457.6,201.4h4.2v-63.8h-10.7v57.4C451.2,198.6,454.1,201.4,457.6,201.4z"/>
			</g>
			<g id="LWPOLYLINE_2245_">
				<path class="st2" d="M392.7,201.4h30.8c3.6,0,6.3-2.9,6.3-6.3v-4.2h-37.2c-2.9,0-5.3,2.3-5.3,5.3l0,0
					C387.4,199.1,389.8,201.4,392.7,201.4z"/>
			</g>
			<g id="LWPOLYLINE_2244_">
				<path class="st2" d="M387.4,143h37.2c2.9,0,5.3-2.3,5.3-5.3l0,0c0-2.9-2.3-5.3-5.3-5.3h-30.8c-3.6,0-6.3,2.9-6.3,6.3v4.3H387.4z
					"/>
			</g>
			<g id="LWPOLYLINE_2243_">
				<path class="st2" d="M393.8,172.2H430V168c0-3.6-2.9-6.3-6.3-6.3h-36.1v4.2C387.4,169.3,390.3,172.2,393.8,172.2z"/>
			</g>
			<g id="LWPOLYLINE_2242_">
				<path class="st3" d="M393.8,132.3h4.2v39.9h-4.2c-3.6,0-6.3-2.9-6.3-6.3v-27.1C387.4,135.2,390.3,132.3,393.8,132.3z"/>
			</g>
			<g id="LWPOLYLINE_2241_">
				<path class="st3" d="M423.6,201.4h-4.2v-39.9h4.2c3.6,0,6.3,2.9,6.3,6.3V195C430,198.6,427.1,201.4,423.6,201.4z"/>
			</g>
			<g id="LWPOLYLINE_2240_">
				<path class="st2" d="M445.8,159h29.2c2.9,0,5.3-2.3,5.3-5.3l0,0c0-2.9-2.3-5.3-5.3-5.3h-29.2c-2.9,0-5.3,2.3-5.3,5.3l0,0
					C440.6,156.5,443,159,445.8,159z"/>
			</g>
			<g id="LWPOLYLINE_2239_">
				<path class="st2" d="M477.7,201.4h-20.2c-3.6,0-6.3-2.9-6.3-6.3v-4.2h26.6c2.9,0,5.3,2.3,5.3,5.3l0,0
					C483.1,199.1,480.7,201.4,477.7,201.4z"/>
			</g>
			<g id="LWPOLYLINE_2238_">
				<path class="st2" d="M500.1,201.4h29.8c3.6,0,6.3-2.9,6.3-6.3v-4.2h-42.6v4.2C493.7,198.6,496.6,201.4,500.1,201.4z"/>
			</g>
			<g id="LWPOLYLINE_2237_">
				<rect x="578.7" y="132.3" class="st3" width="10.7" height="69.1"/>
			</g>
			<g id="LWPOLYLINE_2236_">
				<path class="st2" d="M589.4,148.3h-36.1c-3.6,0-6.3,2.9-6.3,6.3v4.2h42.6v-10.6H589.4z"/>
			</g>
			<g id="LWPOLYLINE_2235_">
				<path class="st3" d="M557.5,201.4h-4.2c-3.6,0-6.3-2.9-6.3-6.3v-40.4c0-3.6,2.9-6.3,6.3-6.3h4.2V201.4z"/>
			</g>
			<g id="LWPOLYLINE_2234_">
				<path class="st2" d="M553.3,201.4h14.9v-10.7H547v4.2C546.8,198.6,549.7,201.4,553.3,201.4z"/>
			</g>
			<g id="LWPOLYLINE_2233_">
				<rect x="600.1" y="153.6" class="st3" width="10.7" height="47.9"/>
			</g>
			<g id="LWPOLYLINE_2232_">
				<rect x="600.1" y="132.3" class="st2" width="10.7" height="10.7"/>
			</g>
			<g id="LWPOLYLINE_2231_">
				<path class="st2" d="M627.6,148.3h29.8c3.6,0,6.3,2.9,6.3,6.3v4.2h-42.6v-4.2C621.3,151.2,624.2,148.3,627.6,148.3z"/>
			</g>
			<g id="LWPOLYLINE_2230_">
				<path class="st2" d="M627.6,201.4h29.8c3.6,0,6.3-2.9,6.3-6.3v-4.2h-42.6v4.2C621.3,198.6,624.2,201.4,627.6,201.4z"/>
			</g>
			<g id="LWPOLYLINE_2229_">
				<path class="st3" d="M627.6,148.3h4.2v53.1h-4.2c-3.6,0-6.3-2.9-6.3-6.3v-40.4C621.3,151.2,624.2,148.3,627.6,148.3z"/>
			</g>
			<g id="LWPOLYLINE_2228_">
				<path class="st3" d="M493.7,148.3h10.7v53.1h-4.2c-3.6,0-6.3-2.9-6.3-6.3L493.7,148.3z"/>
			</g>
		</g>
		<g>
			<g id="LWPOLYLINE_2227_">
				<path class="st2" d="M734,63.3h29.8c3.6,0,6.3,2.9,6.3,6.3v4.2h-42.6v-4.2C727.6,66.1,730.4,63.3,734,63.3z"/>
			</g>
			<g id="LWPOLYLINE_2226_">
				<path class="st3" d="M763.7,63.3h-4.2v31.9h4.2c3.6,0,6.3-2.9,6.3-6.3V69.6C770.1,66.1,767.3,63.3,763.7,63.3z"/>
			</g>
			<g id="LWPOLYLINE_2225_">
				<path class="st3" d="M536.3,116.4h-10.7V63.3h4.2c3.6,0,6.3,2.9,6.3,6.3v46.8H536.3z"/>
			</g>
			<g id="LWPOLYLINE_2224_">
				<path class="st2" d="M500.1,63.3h29.8c3.6,0,6.3,2.9,6.3,6.3v4.2h-42.6v-4.2C493.7,66.1,496.6,63.3,500.1,63.3z"/>
			</g>
			<g id="LWPOLYLINE_2223_">
				<path class="st3" d="M493.7,116.4h10.7V63.3h-4.2c-3.6,0-6.3,2.9-6.3,6.3v46.8H493.7z"/>
			</g>
			<g id="LWPOLYLINE_2222_">
				<path class="st2" d="M393.8,47.3h30.8c2.9,0,5.3,2.3,5.3,5.3l0,0c0,2.9-2.3,5.3-5.3,5.3h-37.2v-4.3
					C387.4,50.2,390.3,47.3,393.8,47.3z"/>
			</g>
			<g id="LWPOLYLINE_2221_">
				<path class="st2" d="M393.8,116.4h30.8c2.9,0,5.3-2.3,5.3-5.3l0,0c0-2.9-2.3-5.3-5.3-5.3h-37.2v4.2
					C387.4,113.5,390.3,116.4,393.8,116.4z"/>
			</g>
			<g id="LWPOLYLINE_2220_">
				<path class="st3" d="M393.8,116.4h4.2V47.3h-4.2c-3.6,0-6.3,2.9-6.3,6.3V110C387.4,113.5,390.3,116.4,393.8,116.4z"/>
			</g>
			<g id="LWPOLYLINE_2219_">
				<path class="st2" d="M584.1,63.3h-30.8c-3.6,0-6.3,2.9-6.3,6.3v4.2h37.2c2.9,0,5.3-2.3,5.3-5.3l0,0
					C589.4,65.6,587.1,63.3,584.1,63.3z"/>
			</g>
			<g id="LWPOLYLINE_2218_">
				<path class="st2" d="M584.1,116.4h-30.8c-3.6,0-6.3-2.9-6.3-6.3v-4.2h37.2c2.9,0,5.3,2.3,5.3,5.3l0,0
					C589.4,114,587.1,116.4,584.1,116.4z"/>
			</g>
			<g id="LWPOLYLINE_2217_">
				<path class="st2" d="M606.4,63.3h29.8c3.6,0,6.3,2.9,6.3,6.3v4.2H600v-4.2C600.1,66.1,602.8,63.3,606.4,63.3z"/>
			</g>
			<g id="LWPOLYLINE_2216_">
				<path class="st2" d="M606.4,116.4h30.8c2.9,0,5.3-2.3,5.3-5.3l0,0c0-2.9-2.3-5.3-5.3-5.3H600v4.2
					C600.1,113.5,602.8,116.4,606.4,116.4z"/>
			</g>
			<g id="LWPOLYLINE_2215_">
				<path class="st3" d="M636.2,63.3H632v31.9h4.2c3.6,0,6.3-2.9,6.3-6.3V69.6C642.5,66.1,639.7,63.3,636.2,63.3z"/>
			</g>
			<g id="LWPOLYLINE_2214_">
				<rect x="685.1" y="63.3" class="st3" width="10.7" height="53.1"/>
			</g>
			<g id="LWPOLYLINE_2213_">
				<path class="st2" d="M695.7,63.3h-36.1c-3.6,0-6.3,2.9-6.3,6.3v4.2h42.6V63.3H695.7z"/>
			</g>
			<g id="LWPOLYLINE_2212_">
				<path class="st3" d="M663.8,116.4h-4.2c-3.6,0-6.3-2.9-6.3-6.3V69.6c0-3.6,2.9-6.3,6.3-6.3h4.2V116.4z"/>
			</g>
			<g id="LWPOLYLINE_2211_">
				<path class="st2" d="M659.5,116.4h14.9v-10.7h-21.2v4.2C653.2,113.5,656.1,116.4,659.5,116.4z"/>
			</g>
			<g id="LWPOLYLINE_2210_">
				<rect x="812.6" y="47.3" class="st3" width="10.7" height="69.1"/>
			</g>
			<g id="LWPOLYLINE_2209_">
				<path class="st2" d="M823.3,63.3h-36.1c-3.6,0-6.3,2.9-6.3,6.3v4.2h42.4V63.3z"/>
			</g>
			<g id="LWPOLYLINE_2208_">
				<path class="st3" d="M791.4,116.4h-4.2c-3.6,0-6.3-2.9-6.3-6.3V69.6c0-3.6,2.9-6.3,6.3-6.3h4.2V116.4z"/>
			</g>
			<g id="LWPOLYLINE_2207_">
				<path class="st2" d="M787.1,116.4H802v-10.7h-21.2v4.2C780.7,113.5,783.6,116.4,787.1,116.4z"/>
			</g>
			<g id="LWPOLYLINE_2206_">
				<path class="st2" d="M734,116.4h30.8c2.9,0,5.3-2.3,5.3-5.3l0,0c0-2.9-2.3-5.3-5.3-5.3h-37.2v4.2
					C727.6,113.5,730.4,116.4,734,116.4z"/>
			</g>
			<g id="LWPOLYLINE_2205_">
				<path class="st2" d="M727.6,95.2h36.1c3.6,0,6.3-2.9,6.3-6.3v-4.2h-42.6v10.6H727.6z"/>
			</g>
			<g id="LWPOLYLINE_2204_">
				<path class="st3" d="M553.3,116.4h4.2V63.3h-4.2c-3.6,0-6.3,2.9-6.3,6.3v40.4C546.8,113.5,549.7,116.4,553.3,116.4z"/>
			</g>
			<g id="LWPOLYLINE_2203_">
				<path class="st2" d="M600.1,95.2h36.1c3.6,0,6.3-2.9,6.3-6.3v-4.2H600v10.6H600.1z"/>
			</g>
			<g id="LWPOLYLINE_2202_">
				<path class="st3" d="M610.6,116.4h-4.2c-3.6,0-6.3-2.9-6.3-6.3V69.6c0-3.6,2.9-6.3,6.3-6.3h4.2V116.4z"/>
			</g>
			<g id="LWPOLYLINE_2201_">
				<path class="st3" d="M738.2,116.4H734c-3.6,0-6.3-2.9-6.3-6.3V69.6c0-3.6,2.9-6.3,6.3-6.3h4.2V116.4z"/>
			</g>
			<rect x="706.3" y="47.3" class="st3" width="10.7" height="69.1"/>
			<g>
				<g id="LWPOLYLINE_2200_">
					<path class="st3" d="M474.1,63.3h-4.2v53.1h4.2c3.6,0,6.3-2.9,6.3-6.3V69.6C480.4,66.1,477.6,63.3,474.1,63.3z"/>
				</g>
				<g id="LWPOLYLINE_2199_">
					<path class="st2" d="M444.3,63.3h29.8c3.6,0,6.3,2.9,6.3,6.3v4.2h-42.6v-4.2C438,66.1,440.7,63.3,444.3,63.3z"/>
				</g>
				<g id="LWPOLYLINE_2198_">
					<path class="st2" d="M444.3,116.4h29.8c3.6,0,6.3-2.9,6.3-6.3v-4.2h-42.6v4.2C438,113.5,440.7,116.4,444.3,116.4z"/>
				</g>
				<g id="LWPOLYLINE_2197_">
					<path class="st3" d="M444.3,63.3h4.2v53.1h-4.2c-3.6,0-6.3-2.9-6.3-6.3V69.6C438,66.1,440.7,63.3,444.3,63.3z"/>
				</g>
			</g>
		</g>
	</g>
</g>
</svg>
