<?xml version="1.0" encoding="utf-8"?>
<!-- Generator: Adobe Illustrator 24.3.0, SVG Export Plug-In . SVG Version: 6.00 Build 0)  -->
<svg version="1.1" id="图层_1" xmlns="http://www.w3.org/2000/svg" xmlns:xlink="http://www.w3.org/1999/xlink" x="0px" y="0px"
	 viewBox="0 0 1471.2 453.5" style="enable-background:new 0 0 1471.2 453.5;" xml:space="preserve">
<style type="text/css">
	.st0{fill:none;}
	.st1{fill:#7B5744;}
	.st2{fill:#EEDFBE;}
	.st3{fill:#AF896D;}
</style>
<rect y="0" class="st0" width="1471.2" height="453.5"/>
<g>
	<g>
		<rect x="308.8" y="12.8" class="st0" width="781" height="386.7"/>
	</g>
	<g>
		<g>
			<g id="LWPOLYLINE_2293_">
				<path class="st1" d="M1080.8,399.6h-74.3v-22.8h83.5v13.7C1089.9,395.5,1085.8,399.6,1080.8,399.6z"/>
			</g>
			<g id="LWPOLYLINE_2292_">
				<rect x="930.6" y="300.9" class="st2" width="37.9" height="22.8"/>
			</g>
			<g id="LWPOLYLINE_2291_">
				<path class="st3" d="M1006.4,217.6h-22.8v104.6c0,5,4.1,9.1,9.1,9.1h13.7V217.6z"/>
			</g>
			<g id="LWPOLYLINE_2290_">
				<path class="st1" d="M992.9,331.3h66.8v-22.8h-75.9v13.7C983.7,327.2,987.8,331.3,992.9,331.3z"/>
			</g>
			<g id="LWPOLYLINE_2289_">
				<path class="st2" d="M983.7,217.6h97c5,0,9.1,4.1,9.1,9.1v13.7H983.7L983.7,217.6L983.7,217.6z"/>
			</g>
			<g id="LWPOLYLINE_2288_">
				<path class="st3" d="M1080.8,217.6h-13.7v182h13.7c5,0,9.1-4.1,9.1-9.1V226.7C1089.9,221.6,1085.8,217.6,1080.8,217.6z"/>
			</g>
			<g id="LWPOLYLINE_2287_">
				<rect x="1036.8" y="293.3" class="st3" width="22.8" height="45.5"/>
			</g>
			<g id="LWPOLYLINE_2286_">
				<rect x="907.9" y="338.9" class="st1" width="45.5" height="22.8"/>
			</g>
			<g id="LWPOLYLINE_2285_">
				<rect x="930.6" y="217.6" class="st3" width="22.8" height="182"/>
			</g>
			<g id="LWPOLYLINE_2284_">
				<rect x="907.9" y="247.8" class="st1" width="98.5" height="22.8"/>
			</g>
		</g>
		<g>
			<g id="LWPOLYLINE_2283_">
				<path class="st1" d="M792.7,399.6H779V226.7c0-5,4.1-9.1,9.1-9.1h13.7v172.9C801.8,395.5,797.7,399.6,792.7,399.6z"/>
			</g>
			<g id="LWPOLYLINE_2282_">
				<rect x="695.6" y="247.8" class="st1" width="68.3" height="22.8"/>
			</g>
			<g id="LWPOLYLINE_2281_">
				<rect x="695.6" y="338.9" class="st1" width="37.9" height="22.8"/>
			</g>
			<g id="LWPOLYLINE_2280_">
				<rect x="718.3" y="217.6" class="st3" width="22.8" height="182"/>
			</g>
			<g id="LWPOLYLINE_2279_">
				<rect x="718.3" y="300.9" class="st2" width="98.5" height="22.8"/>
			</g>
			<g id="LWPOLYLINE_2278_">
				<path class="st3" d="M756.2,399.6h36.4c5,0,9.1-4.1,9.1-9.1v-13.7h-45.5V399.6z"/>
			</g>
			<g id="LWPOLYLINE_2277_">
				<path class="st2" d="M788.1,217.6h72.8c5,0,9.1,4.1,9.1,9.1v13.7h-91v-13.7C779,221.6,783,217.6,788.1,217.6z"/>
			</g>
			<g id="LWPOLYLINE_2276_">
				<path class="st3" d="M860.8,217.6h-13.7v172.9c0,5,4.1,9.1,9.1,9.1h13.7V226.7C869.9,221.6,865.8,217.6,860.8,217.6z"/>
			</g>
			<g id="LWPOLYLINE_2275_">
				<path class="st1" d="M877.5,399.6h-21.2c-5,0-9.1-4.1-9.1-9.1v-13.7h30.3V399.6z"/>
			</g>
		</g>
		<g>
			<g id="LWPOLYLINE_2274_">
				<path class="st2" d="M415.3,20.4l-41.8,41.8l16.1,16.1L437.7,30l-9.6-9.6C424.6,16.8,418.8,16.8,415.3,20.4z"/>
			</g>
			<g id="LWPOLYLINE_2273_">
				<path class="st3" d="M437.7,255.2l16-16.1L330.5,115.8l-9.6,9.6c-3.5,3.5-3.5,9.3,0,12.8L437.7,255.2z"/>
			</g>
			<g id="LWPOLYLINE_2272_">
				<path class="st1" d="M320.9,125.4l41.8-41.8l16.1,16.1l-48.3,48.3l-9.6-9.6C317.4,134.7,317.4,129.1,320.9,125.4z"/>
			</g>
			<g id="LWPOLYLINE_2271_">
				
					<rect x="364.7" y="82.7" transform="matrix(0.7071 -0.7071 0.7071 0.7071 30.2153 299.0638)" class="st2" width="22.8" height="60.7"/>
			</g>
			<g id="LWPOLYLINE_2270_">
				<path class="st1" d="M464.6,56.8l-16,16.1l-43-42.9l9.6-9.6c3.5-3.5,9.3-3.5,12.8,0L464.6,56.8z"/>
			</g>
			<g id="LWPOLYLINE_2269_">
				
					<rect x="477.2" y="19.4" transform="matrix(0.7071 -0.7071 0.7071 0.7071 97.2328 364.5241)" class="st1" width="22.8" height="90.9"/>
			</g>
			<g id="LWPOLYLINE_2268_">
				
					<rect x="509.5" y="80.5" transform="matrix(0.7071 -0.7071 0.7071 0.7071 68.8372 402.9938)" class="st1" width="22.8" height="75.9"/>
			</g>
			<g id="LWPOLYLINE_2267_">
				
					<rect x="423.6" y="160.1" transform="matrix(0.7071 -0.7071 0.7071 0.7071 -1.8798 361.1752)" class="st2" width="22.8" height="45.5"/>
			</g>
			<g id="LWPOLYLINE_2266_">
				<path class="st3" d="M566.5,126.5l-68.6,68.6c-3.5,3.5-9.3,3.5-12.8,0l-9.6-9.6l75.1-75.1L566.5,126.5z"/>
			</g>
			<g id="LWPOLYLINE_2265_">
				<path class="st1" d="M497.8,195.2l9.6-9.6l-26.9-26.9l-16,16.1l20.3,20.3C488.5,198.7,494.2,198.7,497.8,195.2z"/>
			</g>
			<g id="LWPOLYLINE_2264_">
				
					<rect x="429.3" y="69.6" transform="matrix(0.7071 -0.7071 0.7071 0.7071 79.5946 354.0617)" class="st2" width="75.9" height="22.8"/>
			</g>
			<g id="LWPOLYLINE_2263_">
				
					<rect x="356.1" y="69.5" transform="matrix(0.7071 -0.7071 0.7071 0.7071 67.0602 323.767)" class="st3" width="136.5" height="22.8"/>
			</g>
			<g id="LWPOLYLINE_2262_">
				
					<rect x="397.8" y="120.5" transform="matrix(0.7071 -0.7071 0.7071 0.7071 44.3246 370.8832)" class="st3" width="144" height="22.8"/>
			</g>
		</g>
		<g>
			<g id="LWPOLYLINE_2261_">
				<rect x="483.2" y="217.6" class="st3" width="60.7" height="22.8"/>
			</g>
			<g id="LWPOLYLINE_2260_">
				<rect x="581.9" y="217.6" class="st3" width="83.5" height="22.8"/>
			</g>
			<g id="LWPOLYLINE_2259_">
				<rect x="521.2" y="217.6" class="st1" width="22.8" height="151.6"/>
			</g>
			<g id="LWPOLYLINE_2258_">
				<rect x="483.2" y="285.8" class="st3" width="22.8" height="113.7"/>
			</g>
			<g id="LWPOLYLINE_2257_">
				<rect x="597" y="217.6" class="st2" width="22.8" height="83.5"/>
			</g>
			<g id="LWPOLYLINE_2256_">
				<rect x="597" y="263" class="st1" width="68.3" height="22.8"/>
			</g>
			<g id="LWPOLYLINE_2255_">
				<path class="st2" d="M648.5,346.5h-89.5v-22.8h98.5v13.7C657.6,342.3,653.6,346.5,648.5,346.5z"/>
			</g>
			<g id="LWPOLYLINE_2254_">
				<path class="st1" d="M634.9,323.7h-22.8v66.8c0,5,4.1,9.1,9.1,9.1h13.7V323.7z"/>
			</g>
			<g id="LWPOLYLINE_2253_">
				<path class="st3" d="M621.2,399.6h44v-22.8h-53.1v13.7C612.1,395.5,616.2,399.6,621.2,399.6z"/>
			</g>
			<g id="LWPOLYLINE_2252_">
				<path class="st2" d="M506,285.8h75.9v-13.7c0-5-4.1-9.1-9.1-9.1H506V285.8z"/>
			</g>
			<g id="LWPOLYLINE_2251_">
				<path class="st3" d="M572.8,263h-13.7v136.5h22.8V272.1C581.9,267.1,577.8,263,572.8,263z"/>
			</g>
			<g id="LWPOLYLINE_2250_">
				<rect x="483.2" y="346.5" class="st2" width="60.7" height="22.8"/>
			</g>
			<g id="LWPOLYLINE_2249_">
				<path class="st3" d="M634.9,263h22.8v74.3c0,5-4.1,9.1-9.1,9.1h-13.7V263z"/>
			</g>
		</g>
		<g>
			<g>
				<g id="SPLINE_72_">
					<path class="st1" d="M406.6,320.1c-1.3,0-2.6-0.4-3.6-1.3c-2.7-2-3.2-5.9-1.2-8.5l8-10.6c2-2.7,5.9-3.2,8.5-1.2
						c2.7,2,3.2,5.9,1.2,8.5l-8,10.6C410.2,319.2,408.4,320.1,406.6,320.1z"/>
				</g>
				<g id="SPLINE_71_">
					<path class="st2" d="M351.3,301c-0.2,0-0.5,0-0.7,0l-22.5-2.9c-3.3-0.4-5.7-3.4-5.2-6.8c0.4-3.3,3.4-5.7,6.8-5.2l22.5,2.9
						c3.3,0.4,5.7,3.4,5.2,6.8C356.8,298.9,354.3,301,351.3,301z"/>
				</g>
				<g id="SPLINE_70_">
					<path class="st2" d="M412.7,358.9c-2.9,0-5.5-2.1-6-5.1l-6.4-40.2c-0.6-4-3.9-7.1-7.9-7.6l-19-2.4c-3.3-0.4-5.7-3.4-5.2-6.7
						c0.4-3.3,3.4-5.7,6.7-5.2l19,2.4c9.3,1.2,16.9,8.5,18.4,17.8l6.4,40.2c0.5,3.3-1.7,6.4-5,7C413.3,358.9,413,358.9,412.7,358.9z
						"/>
				</g>
				<g id="SPLINE_69_">
					<path class="st3" d="M363.7,379.3c-2.6,0-5-1.7-5.8-4.4l-6.5-22c-1-3.2,0.9-6.6,4.1-7.5c3.2-1,6.6,0.9,7.5,4.1l6.5,22
						c1,3.2-0.9,6.6-4.1,7.5C364.8,379.2,364.2,379.3,363.7,379.3z"/>
				</g>
				<g id="SPLINE_68_">
					<path class="st3" d="M351.6,337.7c-2.7,0-5.1-1.7-5.9-4.4l-5.7-20.4c-2-7.4,0.1-15.4,5.6-20.9l26.5-26.2
						c2.4-2.4,6.2-2.4,8.6,0.1c2.4,2.4,2.4,6.2-0.1,8.6l-26.4,26.1c-2.4,2.4-3.3,5.8-2.4,8.9l5.7,20.4c0.9,3.2-1,6.5-4.2,7.5
						C352.8,337.6,352.1,337.7,351.6,337.7z"/>
				</g>
				<g id="SPLINE_67_">
					<path class="st1" d="M370,359.5c-1.5,0-3.1-0.2-4.6-0.5l-44.8-10c-3.3-0.7-5.4-4-4.6-7.3c0.7-3.3,4-5.4,7.3-4.6l44.8,10
						c3.5,0.7,7.2-0.6,9.3-3.5l10.6-14.7c1.9-2.7,5.8-3.3,8.5-1.4c2.7,1.9,3.3,5.8,1.4,8.5l-10.6,14.7
						C383.2,356.3,376.7,359.5,370,359.5z"/>
				</g>
			</g>
			<rect x="308.8" y="261" class="st0" width="121.3" height="121.3"/>
		</g>
		<g>
			<g id="LWPOLYLINE_2248_">
				<path class="st3" d="M904.8,124.7h-4.6v56.8h4.6c3.7,0,6.8-3.1,6.8-6.8v-43.2C911.6,127.7,908.6,124.7,904.8,124.7z"/>
			</g>
			<g id="LWPOLYLINE_2247_">
				<path class="st3" d="M775.2,124.7h-11.3v56.8h4.6c3.7,0,6.8-3.1,6.8-6.8L775.2,124.7z"/>
			</g>
			<g id="LWPOLYLINE_2246_">
				<path class="st3" d="M691,181.5h4.6v-68.3h-11.3v61.4C684.2,178.5,687.3,181.5,691,181.5z"/>
			</g>
			<g id="LWPOLYLINE_2245_">
				<path class="st2" d="M621.7,181.5h33c3.7,0,6.8-3.1,6.8-6.8V170h-39.8c-3.1,0-5.7,2.6-5.7,5.7l0,0
					C615.9,178.9,618.5,181.5,621.7,181.5z"/>
			</g>
			<g id="LWPOLYLINE_2244_">
				<path class="st2" d="M615.9,119h39.8c3.1,0,5.7-2.6,5.7-5.7l0,0c0-3.1-2.6-5.7-5.7-5.7h-33c-3.7,0-6.8,3.1-6.8,6.8V119z"/>
			</g>
			<g id="LWPOLYLINE_2243_">
				<path class="st2" d="M622.7,150.3h38.6v-4.6c0-3.7-3.1-6.8-6.8-6.8h-38.6v4.6C615.9,147.1,619,150.3,622.7,150.3z"/>
			</g>
			<g id="LWPOLYLINE_2242_">
				<path class="st3" d="M622.7,107.6h4.6v42.7h-4.6c-3.7,0-6.8-3.1-6.8-6.8v-29C615.9,110.7,619,107.6,622.7,107.6z"/>
			</g>
			<g id="LWPOLYLINE_2241_">
				<path class="st3" d="M654.6,181.5H650v-42.7h4.6c3.7,0,6.8,3.1,6.8,6.8v29C661.5,178.5,658.4,181.5,654.6,181.5z"/>
			</g>
			<g id="LWPOLYLINE_2240_">
				<path class="st2" d="M678.5,136h31.2c3.1,0,5.7-2.6,5.7-5.7l0,0c0-3.1-2.6-5.7-5.7-5.7h-31.2c-3.1,0-5.7,2.6-5.7,5.7l0,0
					C672.8,133.5,675.4,136,678.5,136z"/>
			</g>
			<g id="LWPOLYLINE_2239_">
				<path class="st2" d="M712.6,181.5H691c-3.7,0-6.8-3.1-6.8-6.8V170h28.5c3.1,0,5.7,2.6,5.7,5.7l0,0
					C718.3,178.9,715.7,181.5,712.6,181.5z"/>
			</g>
			<g id="LWPOLYLINE_2238_">
				<path class="st2" d="M736.5,181.5h31.9c3.7,0,6.8-3.1,6.8-6.8V170h-45.5v4.6C729.6,178.5,732.7,181.5,736.5,181.5z"/>
			</g>
			<g id="LWPOLYLINE_2237_">
				<rect x="820.7" y="107.6" class="st3" width="11.3" height="73.9"/>
			</g>
			<g id="LWPOLYLINE_2236_">
				<path class="st2" d="M832,124.7h-38.6c-3.7,0-6.8,3.1-6.8,6.8v4.6H832V124.7z"/>
			</g>
			<g id="LWPOLYLINE_2235_">
				<path class="st3" d="M797.9,181.5h-4.6c-3.7,0-6.8-3.1-6.8-6.8v-43.2c0-3.7,3.1-6.8,6.8-6.8h4.6V181.5z"/>
			</g>
			<g id="LWPOLYLINE_2234_">
				<path class="st2" d="M793.4,181.5h15.9v-11.3h-22.8v4.6C786.6,178.5,789.7,181.5,793.4,181.5z"/>
			</g>
			<g id="LWPOLYLINE_2233_">
				<rect x="843.4" y="130.4" class="st3" width="11.3" height="51.1"/>
			</g>
			<g id="LWPOLYLINE_2232_">
				<rect x="843.4" y="107.6" class="st2" width="11.3" height="11.3"/>
			</g>
			<g id="LWPOLYLINE_2231_">
				<path class="st2" d="M873,124.7h31.9c3.7,0,6.8,3.1,6.8,6.8v4.6h-45.5v-4.6C866.2,127.7,869.3,124.7,873,124.7z"/>
			</g>
			<g id="LWPOLYLINE_2230_">
				<path class="st2" d="M873,181.5h31.9c3.7,0,6.8-3.1,6.8-6.8V170h-45.5v4.6C866.2,178.5,869.3,181.5,873,181.5z"/>
			</g>
			<g id="LWPOLYLINE_2229_">
				<path class="st3" d="M873,124.7h4.6v56.8H873c-3.7,0-6.8-3.1-6.8-6.8v-43.2C866.2,127.7,869.3,124.7,873,124.7z"/>
			</g>
			<g id="LWPOLYLINE_2228_">
				<path class="st3" d="M729.6,124.7H741v56.8h-4.6c-3.7,0-6.8-3.1-6.8-6.8L729.6,124.7z"/>
			</g>
		</g>
		<g>
			<g id="LWPOLYLINE_2227_">
				<path class="st2" d="M986.8,33.6h31.9c3.7,0,6.8,3.1,6.8,6.8v4.6H980v-4.6C979.9,36.7,983,33.6,986.8,33.6z"/>
			</g>
			<g id="LWPOLYLINE_2226_">
				<path class="st3" d="M1018.5,33.6h-4.6v34.1h4.6c3.7,0,6.8-3.1,6.8-6.8V40.5C1025.4,36.7,1022.4,33.6,1018.5,33.6z"/>
			</g>
			<g id="LWPOLYLINE_2225_">
				<path class="st3" d="M775.2,90.5h-11.3V33.6h4.6c3.7,0,6.8,3.1,6.8,6.8v50.1H775.2z"/>
			</g>
			<g id="LWPOLYLINE_2224_">
				<path class="st2" d="M736.5,33.6h31.9c3.7,0,6.8,3.1,6.8,6.8v4.6h-45.5v-4.6C729.6,36.7,732.7,33.6,736.5,33.6z"/>
			</g>
			<g id="LWPOLYLINE_2223_">
				<path class="st3" d="M729.6,90.5H741V33.6h-4.6c-3.7,0-6.8,3.1-6.8,6.8v50.1H729.6z"/>
			</g>
			<g id="LWPOLYLINE_2222_">
				<path class="st2" d="M622.7,16.6h33c3.1,0,5.7,2.6,5.7,5.7l0,0c0,3.1-2.6,5.7-5.7,5.7h-39.8v-4.5
					C615.9,19.6,619,16.6,622.7,16.6z"/>
			</g>
			<g id="LWPOLYLINE_2221_">
				<path class="st2" d="M622.7,90.5h33c3.1,0,5.7-2.6,5.7-5.7l0,0c0-3.1-2.6-5.7-5.7-5.7h-39.8v4.6C615.9,87.4,619,90.5,622.7,90.5
					z"/>
			</g>
			<g id="LWPOLYLINE_2220_">
				<path class="st3" d="M622.7,90.5h4.6V16.6h-4.6c-3.7,0-6.8,3.1-6.8,6.8v60.2C615.9,87.4,619,90.5,622.7,90.5z"/>
			</g>
			<g id="LWPOLYLINE_2219_">
				<path class="st2" d="M826.4,33.6h-33c-3.7,0-6.8,3.1-6.8,6.8v4.6h39.8c3.1,0,5.7-2.6,5.7-5.7l0,0
					C832,36.2,829.5,33.6,826.4,33.6z"/>
			</g>
			<g id="LWPOLYLINE_2218_">
				<path class="st2" d="M826.4,90.5h-33c-3.7,0-6.8-3.1-6.8-6.8v-4.6h39.8c3.1,0,5.7,2.6,5.7,5.7l0,0C832,88,829.5,90.5,826.4,90.5
					z"/>
			</g>
			<g id="LWPOLYLINE_2217_">
				<path class="st2" d="M850.2,33.6h31.9c3.7,0,6.8,3.1,6.8,6.8v4.6h-45.5v-4.6C843.4,36.7,846.5,33.6,850.2,33.6z"/>
			</g>
			<g id="LWPOLYLINE_2216_">
				<path class="st2" d="M850.2,90.5h33c3.1,0,5.7-2.6,5.7-5.7l0,0c0-3.1-2.6-5.7-5.7-5.7h-39.8v4.6
					C843.4,87.4,846.5,90.5,850.2,90.5z"/>
			</g>
			<g id="LWPOLYLINE_2215_">
				<path class="st3" d="M882.1,33.6h-4.6v34.1h4.6c3.7,0,6.8-3.1,6.8-6.8V40.5C889,36.7,885.9,33.6,882.1,33.6z"/>
			</g>
			<g id="LWPOLYLINE_2214_">
				<rect x="934.4" y="33.6" class="st3" width="11.3" height="56.8"/>
			</g>
			<g id="LWPOLYLINE_2213_">
				<path class="st2" d="M945.8,33.6h-38.6c-3.7,0-6.8,3.1-6.8,6.8v4.6h45.5V33.6z"/>
			</g>
			<g id="LWPOLYLINE_2212_">
				<path class="st3" d="M911.6,90.5H907c-3.7,0-6.8-3.1-6.8-6.8V40.5c0-3.7,3.1-6.8,6.8-6.8h4.6V90.5z"/>
			</g>
			<g id="LWPOLYLINE_2211_">
				<path class="st2" d="M907.1,90.5h15.9V79.1h-22.8v4.6C900.3,87.4,903.4,90.5,907.1,90.5z"/>
			</g>
			<g id="LWPOLYLINE_2210_">
				<rect x="1070.9" y="16.6" class="st3" width="11.3" height="73.9"/>
			</g>
			<g id="LWPOLYLINE_2209_">
				<path class="st2" d="M1082.3,33.6h-38.6c-3.7,0-6.8,3.1-6.8,6.8v4.6h45.5V33.6z"/>
			</g>
			<g id="LWPOLYLINE_2208_">
				<path class="st3" d="M1048.2,90.5h-4.6c-3.7,0-6.8-3.1-6.8-6.8V40.5c0-3.7,3.1-6.8,6.8-6.8h4.6V90.5z"/>
			</g>
			<g id="LWPOLYLINE_2207_">
				<path class="st2" d="M1043.6,90.5h15.9V79.1h-22.7v4.6C1036.8,87.4,1039.8,90.5,1043.6,90.5z"/>
			</g>
			<g id="LWPOLYLINE_2206_">
				<path class="st2" d="M986.8,90.5h33c3.1,0,5.7-2.6,5.7-5.7l0,0c0-3.1-2.6-5.7-5.7-5.7h-39.8v4.6C979.9,87.4,983,90.5,986.8,90.5
					z"/>
			</g>
			<g id="LWPOLYLINE_2205_">
				<path class="st2" d="M979.9,67.8h38.6c3.7,0,6.8-3.1,6.8-6.8v-4.6h-45.5V67.8L979.9,67.8z"/>
			</g>
			<g id="LWPOLYLINE_2204_">
				<path class="st3" d="M793.4,90.5h4.6V33.6h-4.6c-3.7,0-6.8,3.1-6.8,6.8v43.2C786.6,87.4,789.7,90.5,793.4,90.5z"/>
			</g>
			<g id="LWPOLYLINE_2203_">
				<path class="st2" d="M843.4,67.8H882c3.7,0,6.8-3.1,6.8-6.8v-4.6h-45.5V67.8z"/>
			</g>
			<g id="LWPOLYLINE_2202_">
				<path class="st3" d="M854.8,90.5h-4.6c-3.7,0-6.8-3.1-6.8-6.8V40.5c0-3.7,3.1-6.8,6.8-6.8h4.6V90.5z"/>
			</g>
			<g id="LWPOLYLINE_2201_">
				<path class="st3" d="M991.2,90.5h-4.6c-3.7,0-6.8-3.1-6.8-6.8V40.5c0-3.7,3.1-6.8,6.8-6.8h4.6V90.5z"/>
			</g>
			<rect x="957.1" y="16.6" class="st3" width="11.3" height="73.9"/>
			<g>
				<g id="LWPOLYLINE_2200_">
					<path class="st3" d="M708.7,33.6h-4.6v56.8h4.6c3.7,0,6.8-3.1,6.8-6.8V40.4C715.5,36.7,712.4,33.6,708.7,33.6z"/>
				</g>
				<g id="LWPOLYLINE_2199_">
					<path class="st2" d="M676.8,33.6h31.9c3.7,0,6.8,3.1,6.8,6.8v4.6H670v-4.6C669.9,36.7,673,33.6,676.8,33.6z"/>
				</g>
				<g id="LWPOLYLINE_2198_">
					<path class="st2" d="M676.8,90.5h31.9c3.7,0,6.8-3.1,6.8-6.8v-4.6H670v4.6C669.9,87.4,673,90.5,676.8,90.5z"/>
				</g>
				<g id="LWPOLYLINE_2197_">
					<path class="st3" d="M676.8,33.6h4.6v56.8h-4.6c-3.7,0-6.8-3.1-6.8-6.8V40.5C669.9,36.7,673,33.6,676.8,33.6z"/>
				</g>
			</g>
		</g>
	</g>
</g>
</svg>
