<?xml version="1.0" encoding="utf-8"?>
<!-- Generator: Adobe Illustrator 24.3.0, SVG Export Plug-In . SVG Version: 6.00 Build 0)  -->
<svg version="1.1" id="图层_1" xmlns="http://www.w3.org/2000/svg" xmlns:xlink="http://www.w3.org/1999/xlink" x="0px" y="0px"
	 viewBox="0 0 400.7 19.3" style="enable-background:new 0 0 400.7 19.3;" xml:space="preserve">
<style type="text/css">
	.st0{fill:none;stroke:#AF8A6D;stroke-width:7.0866;stroke-miterlimit:10;}
	.st1{fill:none;stroke:#7B5744;stroke-width:5.6693;stroke-miterlimit:10;}
	.st2{fill:none;stroke:#EEDFBE;stroke-width:8.5039;stroke-miterlimit:10;}
	.st3{fill:none;}
	.st4{fill:#BB474B;}
	.st5{fill:#A7C349;}
	.st6{fill:#E0EDF2;stroke:#E0EDF2;stroke-width:0.2835;stroke-miterlimit:10;}
	.st7{fill:#E0EDF2;stroke:#E0EDF2;stroke-width:0.1417;stroke-miterlimit:10;}
	.st8{fill:#E0EDF2;stroke:#E0EDF2;stroke-width:0.4252;stroke-miterlimit:10;}
	.st9{fill:#E0EDF2;stroke:#E0EDF2;stroke-width:0.5669;stroke-miterlimit:10;}
	.st10{fill:#E0EDF2;stroke:#E0EDF2;stroke-width:0.7087;stroke-miterlimit:10;}
	.st11{fill:#E0EDF2;}
	.st12{fill:#7C5543;stroke:#7B5744;stroke-miterlimit:10;}
	.st13{fill:#ECDDBB;stroke:#EEDFBE;stroke-miterlimit:10;}
	.st14{fill:#AF896D;stroke:#AF8A6D;stroke-miterlimit:10;}
	.st15{fill:#7B5744;}
	.st16{fill:#EEDFBE;}
	.st17{fill:#AF8A6D;}
	.st18{clip-path:url(#SVGID_2_);}
	.st19{fill:none;stroke:#AF8A6D;stroke-width:28.346;stroke-linecap:round;stroke-miterlimit:10;}
	.st20{fill:none;stroke:#7B5744;stroke-width:28.346;stroke-linecap:round;stroke-miterlimit:10;}
	.st21{fill:none;stroke:#EEDFBE;stroke-width:28.346;stroke-linecap:round;stroke-miterlimit:10;}
	.st22{clip-path:url(#SVGID_4_);fill:#010000;}
	.st23{fill:#010000;}
	.st24{fill:none;stroke:#EEDFBE;stroke-width:6;stroke-linecap:round;stroke-linejoin:round;}
	.st25{fill:none;stroke:#AF8A6D;stroke-width:13.1913;stroke-linecap:round;stroke-miterlimit:10;}
	.st26{fill:none;stroke:#EEDFBE;stroke-width:13.1913;stroke-linecap:round;stroke-miterlimit:10;}
	.st27{fill:none;stroke:#7B5744;stroke-width:13.1913;stroke-linecap:round;stroke-miterlimit:10;}
	.st28{fill:none;stroke:#7B5744;stroke-width:13.2334;stroke-linecap:round;stroke-miterlimit:10;}
	.st29{fill:#BD8A6D;}
	.st30{fill:#F2DEBA;}
	.st31{fill:#885441;}
	.st32{fill:none;stroke:#AF8A6D;stroke-width:4.0495;stroke-linecap:round;stroke-miterlimit:10;}
	.st33{fill:none;stroke:#EEDFBE;stroke-width:4.0495;stroke-linecap:round;stroke-miterlimit:10;}
	.st34{fill:none;stroke:#7B5744;stroke-width:4.0495;stroke-linecap:round;stroke-miterlimit:10;}
	.st35{fill:none;stroke:#A7C349;stroke-width:3;stroke-linecap:round;}
	.st36{fill:none;stroke:#BB474B;stroke-width:3;stroke-linecap:round;}
	.st37{enable-background:new    ;}
</style>
<g class="st37">
	<path class="st15" d="M4.7,19c-0.3,0-0.5-0.3-0.5-0.8v-3.7c0-0.1,0-0.1-0.1-0.1l-3.3,0.7c-0.5,0.1-0.8,0-0.8-0.4s0.1-0.6,0.6-0.7
		l3.4-0.7c0.1,0,0.1-0.1,0.1-0.2v-3.1c0-0.1,0-0.1-0.1-0.1H2.5c-0.2,0-0.5,0-0.7,0l-0.3,0c-0.4,0-0.7-0.1-0.9-0.3
		C0.5,9.5,0.5,9.3,0.7,9c0-0.1,0.1-0.2,0.2-0.4l0.4-0.9c0.3-0.8,0.8-2.1,1.2-3.9c0-0.1,0-0.1-0.1-0.1H0.8C0.3,3.7,0,3.5,0,3.2
		s0.3-0.5,0.8-0.5h1.8c0.1,0,0.2,0,0.2-0.1C3,1.7,3.1,1.2,3.1,0.9c0.1-0.5,0.3-0.7,0.6-0.7c0.3,0.1,0.4,0.3,0.3,0.8L3.7,2.6
		c0,0.1,0,0.1,0.1,0.1H7c0.5,0,0.8,0.2,0.8,0.5S7.5,3.7,7,3.7H3.7c-0.1,0-0.2,0-0.2,0.1C2.9,5.8,2.4,7.5,1.7,9c0,0.1,0,0.1,0.1,0.1
		h2.3c0.1,0,0.1,0,0.1-0.1V6.5c0-0.5,0.2-0.8,0.5-0.8S5.2,6,5.2,6.5V9c0,0.1,0,0.1,0.1,0.1h1.5c0.5,0,0.8,0.2,0.8,0.5
		c0,0.3-0.3,0.5-0.8,0.5H5.3c-0.1,0-0.1,0-0.1,0.1v3c0,0.1,0,0.1,0.1,0.1L7,12.9c0.5-0.1,0.8,0,0.8,0.3c0.1,0.3-0.2,0.5-0.7,0.6
		l-1.8,0.4c-0.1,0-0.1,0.1-0.1,0.2v3.9C5.2,18.7,5,19,4.7,19z M8.6,18.5c-0.5,0-0.8-0.2-0.8-0.5c0-0.3,0.3-0.5,0.8-0.5h4.2
		c0.1,0,0.1,0,0.1-0.1v-5.7c0-0.1,0-0.1-0.1-0.1h-3c-0.5,0-0.8-0.2-0.8-0.5c0-0.3,0.3-0.5,0.8-0.5H17c0.5,0,0.8,0.2,0.8,0.5
		c0,0.3-0.3,0.5-0.8,0.5h-3c-0.1,0-0.1,0-0.1,0.1v5.7c0,0.1,0,0.1,0.1,0.1H18c0.5,0,0.8,0.2,0.8,0.5c0,0.3-0.3,0.5-0.8,0.5H8.6z
		 M9.1,9.4C8.7,9.6,8.4,9.6,8.2,9.3C8.1,9,8.3,8.7,8.7,8.5c1-0.4,2.3-1.2,3.7-2.4C14,4.9,15.2,3.6,16,2.3c0-0.1,0-0.1,0-0.1H9.7
		c-0.5,0-0.8-0.2-0.8-0.5c0-0.3,0.3-0.5,0.8-0.5l6.7-0.1c0.3,0,0.6,0.1,0.9,0.2s0.3,0.4,0,0.9c-0.5,1.1-1.6,2.4-3.1,3.8
		c-0.1,0,0,0.1,0,0.1c2.2,1,3.5,1.8,4.1,2.1c0.4,0.3,0.5,0.6,0.3,0.9c-0.2,0.3-0.5,0.3-0.9,0c-0.6-0.5-2-1.2-4.1-2.3
		c-0.1-0.1-0.2,0-0.3,0C11.9,7.9,10.5,8.8,9.1,9.4z"/>
	<path class="st15" d="M24.9,19.1c-0.3,0-0.5-0.3-0.5-0.8V8.2c0-0.1,0-0.1,0,0c-0.9,3-1.7,5-2.5,6c-0.3,0.4-0.6,0.5-0.9,0.3
		c-0.3-0.2-0.3-0.5,0-0.9c0.4-0.6,1-1.7,1.7-3.3s1.2-3.1,1.5-4.6c0-0.1,0-0.1-0.1-0.1h-2.4c-0.5,0-0.8-0.2-0.8-0.5
		c0-0.3,0.3-0.5,0.8-0.5h2.5c0.1,0,0.1,0,0.1-0.1V0.9c0-0.5,0.2-0.8,0.5-0.8c0.3,0,0.5,0.3,0.5,0.8v3.8c0,0.1,0,0.1,0.1,0.1h1.9
		c0.5,0,0.8,0.2,0.8,0.5c0,0.3-0.3,0.5-0.8,0.5h-1.9c-0.1,0-0.1,0-0.1,0.1v0.5c0,0.2,0,0.4,0.1,0.5l2.1,3.2c0.3,0.4,0.3,0.7,0,0.9
		c-0.3,0.2-0.6,0-0.8-0.4l-1.4-2.4c0-0.1,0,0,0,0v10.3C25.4,18.8,25.2,19.1,24.9,19.1z M29.4,8.8c-0.3,0.4-0.6,0.5-0.9,0.3
		c-0.3-0.2-0.3-0.5,0.1-0.9c1.2-1.4,2.1-3.6,2.7-6.6c0.1-0.5,0.3-0.7,0.7-0.6c0.3,0.1,0.5,0.4,0.4,0.8C31.7,4.9,30.7,7.2,29.4,8.8z
		 M38.8,18.3c-0.3,0.1-0.6-0.1-0.8-0.5l-0.3-0.7c0-0.1-0.1-0.1-0.2-0.1l-6.4,0.9c-0.2,0-0.5,0.1-0.7,0.1l-0.7,0.1
		c-0.5,0.1-0.8,0-0.9-0.4c-0.1-0.3-0.1-0.5,0-0.6c0.1,0,0.4-0.5,0.9-1.5c0.1-0.2,0.2-0.5,0.4-0.7c0.2-0.5,0.7-1.4,1.3-3
		c0.7-1.9,1.2-3.4,1.5-4.4C33,7.2,33.2,7,33.6,7.1c0.4,0.1,0.5,0.4,0.3,0.9c-1,3.5-2.2,6.4-3.6,8.9c0,0.1,0,0.1,0.1,0.1l6.9-0.8
		c0.1,0,0.1-0.1,0.1-0.1c-0.5-1.2-1-2.1-1.3-2.7c-0.3-0.4-0.3-0.7,0-0.9c0.3-0.2,0.5,0,0.8,0.4c1.1,1.9,1.9,3.4,2.4,4.6
		C39.2,17.9,39.1,18.2,38.8,18.3z M39.3,8.9C39,9.1,38.7,9,38.4,8.6c-1.3-1.8-2.3-4.1-3.1-7c-0.1-0.5-0.1-0.8,0.3-0.9
		s0.5,0.1,0.7,0.6C37,3.9,38,6.1,39.3,7.9C39.6,8.4,39.6,8.7,39.3,8.9z"/>
	<path class="st15" d="M42.9,8.1c-0.4,0.3-0.7,0.3-0.9,0.1c-0.2-0.3-0.1-0.5,0.3-0.8c0.9-0.6,1.8-1.7,2.9-3c1-1.3,1.8-2.5,2.2-3.5
		c0.2-0.5,0.4-0.6,0.7-0.5c0.3,0.1,0.3,0.4,0.1,0.9c0,0.1,0,0.2,0,0.3c0.9,0.9,1.8,1.8,2.7,2.9c1,1.1,1.6,1.8,1.8,2.2
		c0.3,0.4,0.3,0.7,0,0.9c-0.3,0.2-0.5,0.1-0.8-0.4c-0.6-0.9-2-2.6-4.2-4.9c0-0.1-0.1-0.1-0.1,0C46.3,4.7,44.7,6.6,42.9,8.1z
		 M46.3,18.8c-0.9,0-1.5-0.1-1.8-0.4C44.2,18.2,44,17.8,44,17V8.6c0-0.5,0.3-0.8,0.8-0.8h5.7c0.5,0,0.8,0.3,0.7,0.8
		c-0.1,1.7-0.2,2.9-0.3,3.7c-0.1,0.8-0.3,1.3-0.5,1.6c-0.2,0.2-0.5,0.4-0.7,0.4c-0.3,0-0.5,0-0.8,0l-1,0c-0.5,0-0.7-0.2-0.7-0.5
		c0-0.3,0.3-0.4,0.8-0.4l0.6,0c0.3,0,0.5,0,0.8,0c0,0,0.1-0.1,0.2-0.2c0.3-0.3,0.5-1.8,0.7-4.4c0-0.1,0-0.1-0.1-0.1h-5.1
		c-0.1,0-0.1,0-0.1,0.1V17c0,0.4,0.1,0.6,0.3,0.7s0.5,0.2,1.1,0.2h4.2c0.5,0,0.8-0.2,1-0.6c0.2-0.4,0.2-0.9,0.3-1.6
		c0-0.5,0.2-0.7,0.5-0.7c0.3,0,0.5,0.3,0.4,0.8c-0.1,1.1-0.2,1.8-0.5,2.3c-0.3,0.5-0.9,0.8-1.7,0.8H46.3z M55.2,14
		c-0.3,0-0.5-0.3-0.5-0.8v-10c0-0.5,0.2-0.8,0.5-0.8c0.3,0,0.5,0.3,0.5,0.8v10C55.7,13.8,55.5,14,55.2,14z M56,19
		c-0.5,0-0.8-0.2-0.8-0.5s0.3-0.5,0.8-0.5l1.9,0c0.3,0,0.5,0,0.8,0c0.1,0,0.2-0.2,0.2-0.5V1.1c0-0.5,0.2-0.8,0.5-0.8
		c0.3,0,0.5,0.3,0.5,0.8v16.4c0,0.4-0.1,0.7-0.2,0.9s-0.3,0.3-0.4,0.4c-0.1,0-0.3,0.1-0.6,0.2C58.4,19,57.5,19,56,19z"/>
	<path class="st15" d="M75.9,3.4c0.2-0.5,0.5-0.6,0.8-0.5C77,3,77,3.3,76.8,3.8L76,5.2c0,0.1,0,0.1,0.1,0.1h4.5
		c0.5,0,0.8,0.1,0.8,0.4s-0.3,0.4-0.8,0.4H64.2c-0.5,0-0.8-0.1-0.8-0.4s0.3-0.4,0.8-0.4h10.5c0.1,0,0.2-0.1,0.3-0.2
		C75.4,4.4,75.7,3.8,75.9,3.4z M64.7,18.1c-0.4,0.3-0.7,0.4-0.9,0.2c-0.2-0.2-0.1-0.5,0.3-0.8c0.4-0.4,0.9-1.2,1.5-2.4
		c0.2-0.5,0.5-0.6,0.7-0.5c0.3,0.1,0.3,0.4,0.1,0.9C65.8,16.7,65.3,17.6,64.7,18.1z M65.1,2.8c-0.5,0-0.8-0.1-0.8-0.4
		s0.3-0.4,0.8-0.4h7.1c0.1,0,0.1,0,0.1-0.1c-0.3-0.6-0.5-1-0.7-1.2s-0.1-0.3,0.2-0.5c0.2-0.2,0.5-0.1,0.8,0.3
		c0.2,0.3,0.5,0.7,0.8,1.3c0.1,0.1,0.1,0.2,0.3,0.2h5.9c0.5,0,0.8,0.1,0.8,0.4s-0.3,0.4-0.8,0.4H65.1z M66.7,13.3
		c-0.5,0-0.8-0.3-0.8-0.8V8.1c0-0.5,0.3-0.8,0.8-0.8h11.4c0.5,0,0.8,0.3,0.8,0.8v4.4c0,0.5-0.3,0.8-0.8,0.8H66.7z M66.9,9.8
		c0,0.1,0,0.1,0.1,0.1h10.7c0.1,0,0.1,0,0.1-0.1V8.2c0-0.1,0-0.1-0.1-0.1H67.1c-0.1,0-0.1,0-0.1,0.1V9.8z M66.9,12.4
		c0,0.1,0,0.1,0.1,0.1h10.7c0.1,0,0.1,0,0.1-0.1v-1.6c0-0.1,0-0.1-0.1-0.1H67.1c-0.1,0-0.1,0-0.1,0.1V12.4z M69.2,5.2
		c-0.3,0.1-0.6-0.1-0.7-0.6c-0.1-0.3-0.2-0.6-0.4-0.8c-0.3-0.4-0.3-0.7,0-0.9c0.3-0.2,0.5,0,0.8,0.4c0.3,0.4,0.5,0.8,0.5,1.1
		C69.6,4.9,69.5,5.2,69.2,5.2z M70.6,19c-0.9,0-1.5-0.1-1.8-0.3c-0.3-0.2-0.5-0.6-0.5-1.2v-2.2c0-0.5,0.2-0.8,0.5-0.8
		s0.5,0.3,0.5,0.8v2.3c0,0.2,0.1,0.4,0.3,0.5c0.2,0.1,0.5,0.1,1.1,0.1h4.2c0.5,0,0.8-0.1,0.9-0.4s0.2-0.6,0.2-1
		c0-0.5,0.2-0.7,0.5-0.7c0.3,0,0.4,0.3,0.4,0.8c0,0.8-0.2,1.4-0.5,1.7c-0.3,0.4-0.8,0.5-1.5,0.5H70.6z M74.2,16.1
		c-0.2,0.2-0.5,0.1-0.8-0.3c-0.3-0.4-1-0.9-2-1.5c-0.4-0.3-0.6-0.5-0.4-0.7c0.1-0.2,0.4-0.2,0.8,0c0.3,0.1,0.7,0.4,1.3,0.9
		c0.6,0.5,1,0.8,1.2,1C74.4,15.7,74.4,15.9,74.2,16.1z M80.8,17.9c-0.3,0.2-0.5,0-0.8-0.4c0,0-0.3-0.4-0.9-1.1
		c-0.5-0.7-0.9-1.1-1-1.2c-0.4-0.3-0.4-0.6-0.2-0.8c0.2-0.2,0.5-0.1,0.8,0.2c1,1,1.7,1.9,2.1,2.5C81.1,17.5,81.1,17.8,80.8,17.9z"/>
	<path class="st15" d="M85.1,19.2c-0.5,0.2-0.7,0.1-0.9-0.1c-0.1-0.3,0.1-0.5,0.5-0.7c0.4-0.2,0.7-0.4,1-0.8
		c0.2-0.2,0.3-0.4,0.5-0.6c0.3-0.4,0.5-0.9,0.5-1.7c0-0.1,0-0.1-0.1-0.1c-0.2,0-0.5,0-0.8,0c-0.1,0-0.3-0.1-0.5-0.3
		c-0.2-0.2-0.4-0.5-0.4-0.9s0.1-0.7,0.4-1c0.3-0.2,0.6-0.3,0.9-0.3c0.5,0,0.9,0.2,1.1,0.6c0.3,0.4,0.4,0.9,0.4,1.6
		c0,1.1-0.3,2-0.9,2.8C86.2,18.5,85.6,19,85.1,19.2z"/>
	<path class="st15" d="M97.2,19.1c-0.1,0.1-0.2,0-0.4-0.3c-0.2-0.3-0.1-0.6,0.4-0.8c0.1-0.1,0.2-0.4,0.2-1.1V2.9
		c0-0.5,0.3-0.8,0.8-0.8h5.5c0.1,0,0.1,0,0.1-0.1c-0.2-0.7-0.4-1.2-0.5-1.4c-0.1-0.2,0-0.4,0.3-0.5c0.3-0.1,0.5,0,0.8,0.5
		c0.2,0.4,0.3,0.8,0.5,1.5c0,0.1,0.1,0.1,0.2,0.1h5c0.5,0,0.8,0.3,0.8,0.8v7.2c0,0.5-0.3,0.8-0.8,0.8h-6.8c-0.1,0-0.1,0-0.1,0.1
		c0.7,1.4,1.7,2.6,2.9,3.6c0.1,0.1,0.2,0.1,0.3,0c1.9-1,3.5-2,4.6-2.9c0.4-0.3,0.7-0.4,0.9-0.1c0.2,0.3,0.1,0.6-0.3,0.9
		c-1,0.8-2.5,1.7-4.5,2.8c-0.1,0-0.1,0.1,0,0.1c1.8,1.3,3.6,2.2,5.4,2.6c0.5,0.1,0.7,0.3,0.6,0.7c-0.1,0.3-0.4,0.4-0.9,0.3
		c-2.1-0.5-4-1.5-5.8-2.9c-1.8-1.4-3.2-3.1-4.1-5c-0.1-0.1-0.1-0.2-0.3-0.2h-3.4c-0.1,0-0.1,0-0.1,0.1v6.6c0,0.1,0,0.1,0.1,0.1
		l4.5-1.2c0.5-0.1,0.8,0,0.8,0.3s-0.1,0.5-0.6,0.7l-4.3,1.2c-0.2,0.1-0.5,0.1-0.7,0.2C97.6,18.9,97.3,19,97.2,19.1z M98.3,5.9
		c0,0.1,0,0.1,0.1,0.1h11.1c0.1,0,0.1,0,0.1-0.1V3.2c0-0.1,0-0.1-0.1-0.1H98.4c-0.1,0-0.1,0-0.1,0.1V5.9z M98.3,9.8
		c0,0.1,0,0.1,0.1,0.1h11.1c0.1,0,0.1,0,0.1-0.1V7c0-0.1,0-0.1-0.1-0.1H98.4c-0.1,0-0.1,0-0.1,0.1V9.8z"/>
	<path class="st15" d="M116.3,18.8c-0.4,0.2-0.7,0.2-0.9-0.1c-0.2-0.3,0-0.6,0.4-0.8c1.2-0.6,2.4-1.8,3.5-3.7c0-0.1,0-0.1,0-0.2
		c-1-0.9-2-1.5-2.8-2c-0.4-0.2-0.5-0.6-0.4-1c0.3-1,0.8-2.8,1.4-5.4c0-0.1,0-0.1-0.1-0.1h-1.4c-0.5,0-0.8-0.2-0.8-0.5
		s0.3-0.5,0.8-0.5h1.6c0.1,0,0.2,0,0.2-0.1c0.3-1.5,0.5-2.7,0.6-3.5c0.1-0.5,0.3-0.7,0.6-0.7s0.5,0.3,0.4,0.8
		c-0.1,0.7-0.3,1.8-0.6,3.4c0,0.1,0,0.1,0.1,0.1l3.1,0c0.3,0,0.6,0,0.8,0.1c0.2,0.1,0.3,0.3,0.3,0.8c-0.3,3.3-1,6.1-2.2,8.3
		c0,0.1,0,0.2,0,0.2c1.1,0.9,1.8,1.5,2,1.8c0.3,0.4,0.3,0.7,0,0.9c-0.3,0.2-0.6,0.1-0.9-0.3c-0.2-0.3-0.8-0.8-1.7-1.6
		c-0.1,0-0.1,0-0.1,0C119,16.7,117.8,18,116.3,18.8z M119.9,13c0.1,0,0.1,0,0.1,0c1-2,1.7-4.5,2-7.5c0-0.1,0-0.1-0.1-0.1h-3.2
		c-0.1,0-0.2,0-0.2,0.1c-0.5,2.2-0.9,4-1.4,5.4c0,0.1,0,0.2,0.1,0.2L119.9,13z M126.2,19.1c-0.5,0-0.8-0.2-0.8-0.5
		c0-0.3,0.3-0.5,0.8-0.5h1.4c0.2,0,0.4,0,0.5,0s0.2,0,0.2-0.1c0.1-0.1,0.1-0.2,0.1-0.3v-7.5c0-0.1,0-0.1-0.1-0.1h-4.2
		c-0.5,0-0.8-0.2-0.8-0.5s0.3-0.5,0.8-0.5h4.2c0.1,0,0.1,0,0.1-0.1v-2c0-0.4,0.2-0.7,0.5-1c1-0.8,1.9-1.9,2.9-3.3c0-0.1,0-0.1,0-0.1
		h-6.7c-0.5,0-0.8-0.2-0.8-0.5c0-0.3,0.3-0.5,0.8-0.5l7.2-0.1c0.3,0,0.7,0.1,0.9,0.3c0.2,0.2,0.2,0.5-0.1,0.9
		c-0.9,1.3-2,2.5-3.5,3.8c-0.1,0.1-0.2,0.2-0.2,0.4v2c0,0.1,0,0.1,0.1,0.1h4c0.5,0,0.8,0.2,0.8,0.5s-0.3,0.5-0.8,0.5h-4
		c-0.1,0-0.1,0-0.1,0.1v7.5c0,0.3-0.1,0.6-0.2,0.8s-0.2,0.3-0.4,0.3s-0.3,0.1-0.6,0.2C128.2,19.1,127.5,19.1,126.2,19.1z"/>
	<path class="st15" d="M139.3,18.4c0,0-0.2,0-0.4-0.3c-0.2-0.2-0.1-0.5,0.3-0.8c0.3-0.2,0.4-0.7,0.4-1.3V7.8c0-0.1,0-0.1-0.1-0.1
		h-2.4c-0.5,0-0.8-0.2-0.8-0.5c0-0.3,0.3-0.5,0.8-0.5h2.7c0.5,0,0.8,0.3,0.8,0.8v8.8c0,0.1,0,0.1,0.1,0l1.9-1.2
		c0.4-0.3,0.7-0.3,0.9-0.1c0.2,0.3,0,0.5-0.4,0.8l-2.9,2C139.6,18.2,139.4,18.4,139.3,18.4z M141.7,4c-0.3,0.2-0.6,0.1-0.8-0.3
		c-0.3-0.4-1-1.1-2-2c-0.4-0.3-0.5-0.6-0.3-0.8s0.5-0.2,0.9,0.1c1,0.8,1.7,1.5,2.2,2.1C141.9,3.5,141.9,3.8,141.7,4z M143.8,8.6
		c-0.4,0.2-0.7,0.2-0.9-0.1c-0.1-0.3,0-0.5,0.5-0.8c0.8-0.4,1.4-1,2-1.9c0.4-0.7,0.6-1.6,0.6-2.5V1.7c0-0.5,0.3-0.8,0.8-0.8h4.7
		c0.5,0,0.8,0.3,0.8,0.8V6c0,0.3,0,0.5,0.1,0.6c0,0.1,0.1,0.2,0.2,0.2s0.2,0,0.5,0l1.5,0c0.5,0,0.8,0.1,0.8,0.4
		c0,0.3-0.2,0.5-0.7,0.5l-1.5,0c-0.3,0-0.5,0-0.8,0c-0.3,0-0.5-0.1-0.7-0.4c-0.2-0.2-0.3-0.7-0.3-1.3V2c0-0.1,0-0.1-0.1-0.1h-4
		c-0.1,0-0.1,0-0.1,0.1v1.3C146.9,5.8,145.9,7.5,143.8,8.6z M155.1,18.7c-0.1,0.3-0.4,0.4-0.9,0.3c-1.9-0.5-3.6-1.3-5.1-2.5
		c-0.1-0.1-0.2-0.1-0.3,0c-1.5,1.1-3.1,1.9-4.8,2.4c-0.5,0.1-0.8,0-0.9-0.3c-0.1-0.3,0.1-0.5,0.6-0.7c1.3-0.3,2.8-1,4.3-2.1
		c0.1,0,0.1-0.1,0-0.1c-1.6-1.4-2.9-3.2-3.7-5.2c0-0.1-0.1-0.2-0.2-0.2c-0.5,0-0.7-0.2-0.7-0.5s0.3-0.5,0.8-0.5l8.7-0.1
		c0.3,0,0.6,0.1,0.8,0.2s0.2,0.4,0.1,0.8c-0.7,2-2,3.8-4,5.4c-0.1,0-0.1,0.1,0,0.1c1.6,1.1,3.1,1.8,4.6,2.1
		C155,18.2,155.2,18.4,155.1,18.7z M148.9,15.2c0.1,0.1,0.1,0.1,0.2,0c1.6-1.3,2.8-2.8,3.6-4.7c0-0.1,0-0.1-0.1-0.1h-7.2
		c-0.1,0-0.1,0-0.1,0.1C146.2,12.4,147.4,13.9,148.9,15.2z"/>
	<path class="st15" d="M160.8,18.3c0,0-0.2-0.1-0.4-0.3c-0.2-0.3-0.3-0.4-0.2-0.5c0.1-0.1,0.2-0.1,0.2-0.2c0.1-0.2,0.3-0.4,0.4-0.6
		c0.1-0.1,0.1-0.4,0.1-0.7V7.8c0-0.1,0-0.1-0.1-0.1h-2.6c-0.5,0-0.8-0.2-0.8-0.5c0-0.3,0.3-0.5,0.8-0.5h3c0.5,0,0.8,0.3,0.8,0.8v8.6
		c0,0.1,0,0.1,0.1,0l2.1-1.4c0.4-0.3,0.7-0.3,0.9,0c0.2,0.3,0.1,0.5-0.4,0.8l-3,2.2C161.1,18.1,160.8,18.3,160.8,18.3z M163.1,4.1
		c-0.3,0.2-0.6,0.1-0.9-0.3c-0.4-0.6-1.1-1.3-2.1-2.1c-0.4-0.3-0.5-0.6-0.3-0.8c0.2-0.2,0.5-0.2,0.9,0.1c1.1,1,1.9,1.7,2.3,2.2
		C163.4,3.6,163.4,3.9,163.1,4.1z M170.2,19.1c-0.3,0-0.5-0.3-0.5-0.8v-10c0-0.1,0-0.1-0.1-0.1H165c-0.5,0-0.8-0.2-0.8-0.5
		c0-0.3,0.3-0.5,0.8-0.5h4.6c0.1,0,0.1,0,0.1-0.1V0.9c0-0.5,0.2-0.8,0.5-0.8c0.3,0,0.5,0.3,0.5,0.8v6.3c0,0.1,0,0.1,0.1,0.1h4.8
		c0.5,0,0.8,0.2,0.8,0.5c0,0.3-0.3,0.5-0.8,0.5h-4.8c-0.1,0-0.1,0-0.1,0.1v10C170.8,18.8,170.6,19.1,170.2,19.1z"/>
	<path class="st15" d="M181.7,18.7c-0.9,0-1.6-0.3-2.2-0.9c-0.6-0.6-0.9-1.3-0.9-2.2c0-0.9,0.3-1.6,0.9-2.2c0.6-0.6,1.3-0.9,2.2-0.9
		c0.9,0,1.6,0.3,2.2,0.9c0.6,0.6,0.9,1.3,0.9,2.2c0,0.9-0.3,1.6-0.9,2.2C183.3,18.4,182.5,18.7,181.7,18.7z M180.1,17.2
		c0.4,0.4,1,0.7,1.6,0.7c0.6,0,1.2-0.2,1.6-0.7c0.4-0.4,0.7-1,0.7-1.6c0-0.6-0.2-1.2-0.7-1.6c-0.4-0.4-1-0.7-1.6-0.7
		c-0.6,0-1.2,0.2-1.6,0.7c-0.4,0.4-0.7,1-0.7,1.6C179.4,16.2,179.6,16.8,180.1,17.2z"/>
	<path class="st15" d="M195.6,17.9c-1.9,0-3.5-0.7-4.7-2.2s-1.8-3.4-1.8-5.8s0.6-4.3,1.8-5.8c1.2-1.4,2.8-2.1,4.8-2.1
		c1.4,0,2.6,0.5,3.7,1.5c0.1,0.1,0.2,0.2,0.2,0.4c0,0.2-0.1,0.3-0.2,0.4c-0.1,0.1-0.2,0.2-0.4,0.2c-0.1,0-0.3,0-0.4-0.2
		c-0.8-0.8-1.8-1.1-2.9-1.1c-1.6,0-2.9,0.6-3.8,1.8s-1.4,2.9-1.4,4.9c0,2.1,0.5,3.8,1.4,5s2.2,1.9,3.8,1.9c1.3,0,2.4-0.5,3.4-1.5
		c0.1-0.1,0.2-0.2,0.4-0.2s0.3,0.1,0.4,0.2c0.1,0.1,0.1,0.3,0.1,0.4s-0.1,0.3-0.2,0.4C198.6,17.3,197.2,17.9,195.6,17.9z"/>
	<path class="st15" d="M210.9,16.3c-1,1.1-2.2,1.6-3.6,1.6s-2.6-0.5-3.6-1.6s-1.5-2.5-1.5-4.3c0-1.8,0.5-3.2,1.5-4.3
		s2.2-1.6,3.6-1.6s2.6,0.5,3.6,1.6s1.5,2.5,1.5,4.3C212.3,13.8,211.8,15.2,210.9,16.3z M204.6,15.5c0.7,0.9,1.6,1.3,2.7,1.3
		s2-0.4,2.7-1.3c0.7-0.9,1.1-2.1,1.1-3.5c0-1.4-0.4-2.6-1.1-3.5s-1.6-1.4-2.7-1.4s-2,0.5-2.7,1.4s-1.1,2.1-1.1,3.5
		C203.5,13.4,203.8,14.6,204.6,15.5z"/>
	<path class="st15" d="M216.6,17.4c-0.1,0.1-0.3,0.2-0.4,0.2s-0.3-0.1-0.4-0.2s-0.2-0.3-0.2-0.4V6.9c0-0.1,0.1-0.3,0.2-0.4
		c0.1-0.1,0.2-0.2,0.4-0.2s0.3,0,0.4,0.1s0.2,0.2,0.2,0.4l0.1,1.2c0,0,0,0,0,0s0,0,0,0c0.7-0.6,1.3-1.1,1.9-1.5s1.2-0.5,1.9-0.5
		c1.2,0,2,0.4,2.6,1.1c0.6,0.7,0.8,1.8,0.8,3.3V17c0,0.2-0.1,0.3-0.2,0.4s-0.3,0.2-0.4,0.2s-0.3-0.1-0.4-0.2s-0.2-0.3-0.2-0.4v-6.4
		c0-1.2-0.2-2-0.6-2.6s-1-0.8-1.9-0.8c-0.6,0-1.2,0.2-1.7,0.5s-1.1,0.8-1.8,1.5c-0.1,0.1-0.1,0.2-0.1,0.3V17
		C216.8,17.1,216.8,17.3,216.6,17.4z"/>
	<path class="st15" d="M232.2,17.9c-1.5,0-2.7-0.5-3.7-1.6c-1-1-1.4-2.5-1.4-4.3s0.5-3.2,1.5-4.3s2.2-1.6,3.7-1.6c1,0,2,0.3,2.9,1
		c0.1,0.1,0.2,0.2,0.2,0.4s0,0.3-0.1,0.4c-0.1,0.1-0.2,0.2-0.4,0.2s-0.3,0-0.4-0.1c-0.7-0.5-1.4-0.8-2.2-0.8c-1.1,0-2.1,0.5-2.8,1.4
		s-1.1,2.1-1.1,3.5s0.4,2.6,1.1,3.5c0.7,0.9,1.7,1.3,2.8,1.3c0.9,0,1.7-0.3,2.5-0.9c0.1-0.1,0.2-0.1,0.4-0.1c0.1,0,0.2,0.1,0.3,0.2
		c0.1,0.1,0.1,0.2,0.1,0.3c0,0.2-0.1,0.3-0.2,0.4C234.4,17.5,233.4,17.9,232.2,17.9z"/>
	<path class="st15" d="M242.4,17.9c-1.5,0-2.7-0.5-3.7-1.6s-1.5-2.5-1.5-4.3c0-1.8,0.5-3.2,1.5-4.3s2.1-1.6,3.5-1.6
		c1.3,0,2.3,0.4,3.1,1.3c0.8,0.9,1.2,2.1,1.2,3.6c0,0.3-0.1,0.6-0.4,0.8s-0.5,0.3-0.9,0.3h-6.6c-0.1,0-0.1,0-0.1,0.1
		c0.1,1.3,0.5,2.4,1.2,3.2c0.7,0.8,1.7,1.2,2.9,1.2c0.9,0,1.8-0.2,2.6-0.7c0.1-0.1,0.2-0.1,0.4-0.1c0.1,0,0.2,0.1,0.3,0.2
		c0.1,0.1,0.1,0.3,0,0.4c0,0.1-0.1,0.2-0.2,0.3C244.6,17.6,243.5,17.9,242.4,17.9z M238.5,11.1c0,0.1,0,0.1,0.1,0.1h6.6
		c0.1,0,0.2,0,0.2-0.1v0c0-1.3-0.3-2.2-0.9-2.9s-1.3-1-2.3-1c-0.9,0-1.7,0.4-2.4,1.1C238.9,9.1,238.5,10,238.5,11.1z"/>
	<path class="st15" d="M251.6,17.9c-0.9,0-1.7-0.3-2.3-0.8c-0.6-0.5-0.9-1.3-0.9-2.3c0-1.2,0.6-2.1,1.7-2.8c1.1-0.6,2.9-1.1,5.3-1.4
		c0.1,0,0.2-0.1,0.2-0.2c0-0.4,0-0.8-0.1-1.2c-0.1-0.4-0.2-0.7-0.4-1c-0.2-0.3-0.5-0.6-0.8-0.7s-0.8-0.3-1.3-0.3
		c-1.1,0-2.1,0.3-3.1,1c-0.1,0.1-0.2,0.1-0.4,0.1s-0.2-0.1-0.3-0.2c-0.1-0.1-0.1-0.3-0.1-0.4c0-0.1,0.1-0.2,0.2-0.3
		c1.3-0.8,2.6-1.2,3.8-1.2c1.3,0,2.2,0.4,2.7,1.2s0.9,1.9,0.9,3.2v6.6c0,0.1-0.1,0.3-0.2,0.4c-0.1,0.1-0.2,0.2-0.4,0.2
		c-0.2,0-0.3,0-0.4-0.1s-0.2-0.2-0.2-0.4l-0.1-0.9c0,0,0,0,0,0s0,0,0,0C254.1,17.3,252.8,17.9,251.6,17.9z M251.9,16.8
		c0.6,0,1.1-0.1,1.7-0.4c0.6-0.3,1.2-0.7,1.8-1.2c0.1-0.1,0.1-0.2,0.1-0.2v-3.3c0-0.1,0-0.1-0.1-0.1c0,0,0,0,0,0
		c-2.1,0.2-3.6,0.6-4.5,1.1s-1.3,1.2-1.3,2.1c0,0.7,0.2,1.3,0.6,1.6C250.6,16.7,251.2,16.8,251.9,16.8z"/>
	<path class="st15" d="M262.1,17.9c-1,0-1.5-0.6-1.5-1.9V1.5c0-0.2,0.1-0.3,0.2-0.4c0.1-0.1,0.3-0.2,0.4-0.2s0.3,0.1,0.4,0.2
		c0.1,0.1,0.2,0.3,0.2,0.4V16c0,0.2,0,0.4,0.1,0.5s0.2,0.2,0.3,0.2c0.3,0.1,0.5,0.2,0.6,0.5c0,0,0,0.1,0,0.1c0,0.1,0,0.2-0.1,0.3
		c-0.1,0.1-0.2,0.2-0.3,0.2C262.3,17.8,262.2,17.9,262.1,17.9z"/>
	<path class="st15" d="M270.5,17.9c-1.5,0-2.7-0.5-3.7-1.6s-1.5-2.5-1.5-4.3c0-1.8,0.5-3.2,1.5-4.3s2.1-1.6,3.5-1.6
		c1.3,0,2.3,0.4,3.1,1.3c0.8,0.9,1.2,2.1,1.2,3.6c0,0.3-0.1,0.6-0.4,0.8s-0.5,0.3-0.9,0.3h-6.6c-0.1,0-0.1,0-0.1,0.1
		c0.1,1.3,0.5,2.4,1.2,3.2c0.7,0.8,1.7,1.2,2.9,1.2c0.9,0,1.8-0.2,2.6-0.7c0.1-0.1,0.2-0.1,0.4-0.1c0.1,0,0.2,0.1,0.3,0.2
		c0.1,0.1,0.1,0.3,0,0.4c0,0.1-0.1,0.2-0.2,0.3C272.6,17.6,271.6,17.9,270.5,17.9z M266.5,11.1c0,0.1,0,0.1,0.1,0.1h6.6
		c0.1,0,0.2,0,0.2-0.1v0c0-1.3-0.3-2.2-0.9-2.9s-1.3-1-2.3-1c-0.9,0-1.7,0.4-2.4,1.1C267,9.1,266.5,10,266.5,11.1z"/>
	<path class="st15" d="M281.2,17.9c-1.4,0-2.6-0.5-3.4-1.5s-1.3-2.5-1.3-4.3c0-1.8,0.5-3.2,1.5-4.3c1-1.1,2.1-1.6,3.5-1.6
		c0.6,0,1.2,0.1,1.7,0.3s1,0.5,1.6,1c0,0,0.1,0,0.1,0s0,0,0-0.1l-0.1-1.9V1.5c0-0.2,0.1-0.3,0.2-0.4c0.1-0.1,0.3-0.2,0.4-0.2
		s0.3,0.1,0.4,0.2c0.1,0.1,0.2,0.3,0.2,0.4v15.6c0,0.2,0,0.3-0.1,0.4s-0.2,0.1-0.3,0.1c-0.2,0-0.3,0-0.4-0.1s-0.2-0.2-0.2-0.3
		l-0.1-0.9c0,0,0,0,0,0s0,0,0,0C283.7,17.3,282.5,17.9,281.2,17.9z M281.4,16.8c1.1,0,2.2-0.6,3.2-1.7c0.1-0.1,0.1-0.2,0.1-0.2V8.7
		c0-0.1,0-0.2-0.1-0.2c-1-0.9-2-1.3-3-1.3c-1.1,0-2,0.5-2.7,1.4c-0.7,0.9-1.1,2.1-1.1,3.5c0,1.5,0.3,2.6,0.9,3.5
		C279.4,16.4,280.3,16.8,281.4,16.8z"/>
	<path class="st15" d="M299,17.9c-1.9,0-3.5-0.6-4.8-1.9c-0.1-0.1-0.2-0.3-0.2-0.4c0-0.2,0.1-0.3,0.2-0.4c0.1-0.1,0.2-0.2,0.4-0.2
		s0.3,0,0.4,0.2c1.1,1.1,2.5,1.6,4,1.6c1.1,0,2-0.3,2.7-0.8c0.7-0.5,1-1.2,1-2.1c0-0.5-0.1-0.8-0.2-1.2s-0.3-0.6-0.6-0.9
		c-0.3-0.2-0.6-0.4-0.8-0.6c-0.3-0.1-0.6-0.3-1.1-0.5l-2.3-1c-0.4-0.2-0.8-0.4-1.1-0.6s-0.6-0.4-1-0.7c-0.3-0.3-0.6-0.7-0.8-1.1
		s-0.3-0.9-0.3-1.4c0-1.1,0.4-2.1,1.3-2.8c0.9-0.7,1.9-1.1,3.2-1.1c1.5,0,2.8,0.5,3.9,1.5c0.1,0.1,0.2,0.2,0.2,0.4
		c0,0.2,0,0.3-0.1,0.4s-0.2,0.2-0.4,0.2c-0.2,0-0.3,0-0.4-0.1c-0.9-0.8-2-1.2-3.2-1.2c-1,0-1.8,0.2-2.3,0.7s-0.9,1.1-0.9,1.9
		c0,0.3,0.1,0.7,0.2,0.9s0.2,0.5,0.4,0.7c0.2,0.2,0.4,0.4,0.6,0.5c0.3,0.2,0.5,0.3,0.7,0.4c0.2,0.1,0.4,0.2,0.7,0.3l2.3,1
		c0.5,0.2,0.9,0.4,1.3,0.6s0.7,0.5,1,0.8s0.6,0.7,0.7,1.1s0.2,0.9,0.2,1.5c0,1.2-0.5,2.2-1.4,3C301.7,17.5,300.5,17.9,299,17.9z"/>
	<path class="st15" d="M310.2,17.9c-1,0-1.8-0.3-2.2-0.9c-0.4-0.6-0.7-1.5-0.7-2.6V7.6c0-0.1-0.1-0.2-0.2-0.2H306
		c-0.1,0-0.2,0-0.3-0.1c-0.1-0.1-0.1-0.2-0.1-0.3s0-0.2,0.1-0.3c0.1-0.1,0.2-0.1,0.3-0.2l1.2-0.1c0.1,0,0.2-0.1,0.2-0.2l0.1-2.6
		c0-0.2,0.1-0.3,0.2-0.4c0.1-0.1,0.2-0.1,0.4-0.1c0.1,0,0.3,0,0.4,0.1c0.1,0.1,0.2,0.2,0.2,0.4v2.6c0,0.1,0.1,0.1,0.2,0.1h2.5
		c0.1,0,0.3,0.1,0.4,0.2c0.1,0.1,0.2,0.2,0.2,0.4c0,0.1-0.1,0.3-0.2,0.4c-0.1,0.1-0.2,0.1-0.4,0.1h-2.5c-0.1,0-0.2,0.1-0.2,0.2v6.9
		c0,0.8,0.1,1.3,0.4,1.7c0.3,0.4,0.8,0.6,1.5,0.6c0.3,0,0.6,0,0.9-0.1c0.1,0,0.3,0,0.4,0c0.1,0.1,0.2,0.2,0.2,0.3c0,0.1,0,0.1,0,0.1
		c0,0.1,0,0.2-0.1,0.2c-0.1,0.1-0.2,0.2-0.3,0.2C311,17.8,310.5,17.9,310.2,17.9z"/>
	<path class="st15" d="M317.4,17.9c-1.2,0-2-0.4-2.6-1.1S314,15,314,13.5V7c0-0.2,0.1-0.3,0.2-0.4s0.3-0.2,0.4-0.2s0.3,0.1,0.4,0.2
		s0.2,0.3,0.2,0.4v6.4c0,1.2,0.2,2,0.6,2.6c0.4,0.5,1,0.8,1.8,0.8c0.6,0,1.2-0.2,1.7-0.5c0.5-0.3,1.1-0.9,1.7-1.6
		c0.1-0.1,0.1-0.2,0.1-0.3V7c0-0.2,0.1-0.3,0.2-0.4s0.3-0.2,0.4-0.2s0.3,0.1,0.4,0.2s0.2,0.3,0.2,0.4v10.1c0,0.1-0.1,0.3-0.2,0.4
		c-0.1,0.1-0.2,0.2-0.4,0.2c-0.1,0-0.3-0.1-0.4-0.2c-0.1-0.1-0.2-0.2-0.2-0.4l-0.1-1.3c0,0,0,0-0.1,0c0,0,0,0-0.1,0
		c-0.6,0.7-1.2,1.2-1.8,1.6C318.8,17.7,318.1,17.9,317.4,17.9z"/>
	<path class="st15" d="M330.3,17.9c-1.4,0-2.6-0.5-3.4-1.5s-1.3-2.5-1.3-4.3c0-1.8,0.5-3.2,1.5-4.3c1-1.1,2.1-1.6,3.5-1.6
		c0.6,0,1.2,0.1,1.7,0.3c0.5,0.2,1,0.5,1.6,1c0,0,0.1,0,0.1,0s0,0,0-0.1l-0.1-1.9V1.5c0-0.2,0.1-0.3,0.2-0.4
		c0.1-0.1,0.3-0.2,0.4-0.2c0.2,0,0.3,0.1,0.4,0.2c0.1,0.1,0.2,0.3,0.2,0.4v15.6c0,0.2,0,0.3-0.1,0.4s-0.2,0.1-0.3,0.1
		c-0.2,0-0.3,0-0.4-0.1c-0.1-0.1-0.2-0.2-0.2-0.3l-0.1-0.9c0,0,0,0,0,0s0,0,0,0C332.8,17.3,331.6,17.9,330.3,17.9z M330.5,16.8
		c1.1,0,2.2-0.6,3.2-1.7c0.1-0.1,0.1-0.2,0.1-0.2V8.7c0-0.1,0-0.2-0.1-0.2c-1-0.9-2-1.3-3-1.3c-1.1,0-2,0.5-2.7,1.4
		c-0.7,0.9-1.1,2.1-1.1,3.5c0,1.5,0.3,2.6,0.9,3.5C328.5,16.4,329.4,16.8,330.5,16.8z"/>
	<path class="st15" d="M339.9,3.8c-0.3,0-0.5-0.1-0.7-0.3c-0.2-0.2-0.3-0.4-0.3-0.7c0-0.3,0.1-0.5,0.3-0.7c0.2-0.2,0.4-0.3,0.7-0.3
		s0.5,0.1,0.7,0.3c0.2,0.2,0.3,0.4,0.3,0.7c0,0.3-0.1,0.5-0.3,0.7C340.4,3.7,340.2,3.8,339.9,3.8z M340.3,17.4
		c-0.1,0.1-0.3,0.2-0.4,0.2s-0.3-0.1-0.4-0.2s-0.2-0.3-0.2-0.4V7c0-0.2,0.1-0.3,0.2-0.4s0.3-0.2,0.4-0.2s0.3,0.1,0.4,0.2
		s0.2,0.3,0.2,0.4v10C340.5,17.1,340.4,17.3,340.3,17.4z"/>
	<path class="st15" d="M352.4,16.3c-1,1.1-2.2,1.6-3.6,1.6c-1.4,0-2.6-0.5-3.6-1.6s-1.5-2.5-1.5-4.3c0-1.8,0.5-3.2,1.5-4.3
		s2.2-1.6,3.6-1.6c1.4,0,2.6,0.5,3.6,1.6c1,1.1,1.5,2.5,1.5,4.3C353.9,13.8,353.4,15.2,352.4,16.3z M346.1,15.5
		c0.7,0.9,1.6,1.3,2.7,1.3s2-0.4,2.7-1.3c0.7-0.9,1.1-2.1,1.1-3.5c0-1.4-0.4-2.6-1.1-3.5s-1.6-1.4-2.7-1.4s-2,0.5-2.7,1.4
		S345,10.6,345,12C345,13.4,345.4,14.6,346.1,15.5z"/>
	<path class="st15" d="M375.8,17.2c-0.3,0.3-0.6,0.4-1,0.4s-0.7-0.1-1-0.4s-0.4-0.6-0.4-1c0-0.4,0.1-0.8,0.4-1
		c0.3-0.3,0.6-0.4,1-0.4s0.7,0.1,1,0.4c0.3,0.3,0.4,0.6,0.4,1C376.3,16.7,376.1,17,375.8,17.2z M375.2,12.6
		c-0.1,0.1-0.2,0.1-0.3,0.1s-0.2,0-0.3-0.1s-0.2-0.2-0.2-0.3L374,4l0-1.2c0-0.2,0.1-0.4,0.3-0.6c0.2-0.2,0.4-0.3,0.6-0.3
		s0.4,0.1,0.6,0.3c0.2,0.2,0.3,0.4,0.3,0.6l0,1.2l-0.3,8.3C375.3,12.4,375.3,12.5,375.2,12.6z"/>
	<path class="st15" d="M395.9,12.5c-0.1,0.1-0.2,0.2-0.3,0.2c-0.2,0-0.3-0.1-0.5-0.2c-0.1-0.1-0.2-0.2-0.2-0.4c0,0,0-0.1,0-0.1
		c0-0.4,0.1-0.9,0.3-1.3c0.2-0.5,0.5-0.8,0.8-1.2s0.7-0.7,1.1-1s0.8-0.7,1.1-1s0.6-0.6,0.9-1s0.3-0.7,0.3-1.1c0-0.8-0.3-1.5-0.9-2
		c-0.6-0.5-1.5-0.8-2.6-0.8c-1.4,0-2.8,0.6-4,1.7c-0.1,0.1-0.2,0.2-0.4,0.2s-0.3,0-0.4-0.1S391,4.1,391,3.9c0-0.1,0.1-0.3,0.2-0.3
		c0.7-0.7,1.4-1.2,2.2-1.5s1.6-0.5,2.6-0.5c1.4,0,2.6,0.3,3.4,1s1.2,1.6,1.2,2.7c0,0.5-0.1,0.9-0.3,1.4c-0.2,0.4-0.5,0.8-0.9,1.1
		c-0.3,0.3-0.7,0.6-1.1,1s-0.8,0.7-1.1,1s-0.6,0.7-0.8,1.1c-0.2,0.4-0.3,0.8-0.3,1.3C396,12.3,396,12.4,395.9,12.5z M394.2,16.2
		c0-0.4,0.1-0.8,0.4-1c0.3-0.2,0.6-0.4,1-0.4c0.4,0,0.7,0.1,1,0.4c0.3,0.3,0.4,0.6,0.4,1c0,0.4-0.1,0.8-0.4,1s-0.6,0.4-1,0.4
		c-0.4,0-0.7-0.1-1-0.4C394.3,17,394.2,16.6,394.2,16.2z"/>
</g>
</svg>
