<?xml version="1.0" encoding="utf-8"?>
<!-- Generator: Adobe Illustrator 24.3.0, SVG Export Plug-In . SVG Version: 6.00 Build 0)  -->
<svg version="1.1" id="图层_1" xmlns="http://www.w3.org/2000/svg" xmlns:xlink="http://www.w3.org/1999/xlink" x="0px" y="0px"
	 viewBox="0 0 409.8 20.2" style="enable-background:new 0 0 409.8 20.2;" xml:space="preserve">
<style type="text/css">
	.st0{fill:none;stroke:#AF8A6D;stroke-width:7.0866;stroke-miterlimit:10;}
	.st1{fill:none;stroke:#7B5744;stroke-width:5.6693;stroke-miterlimit:10;}
	.st2{fill:none;stroke:#EEDFBE;stroke-width:8.5039;stroke-miterlimit:10;}
	.st3{fill:none;}
	.st4{fill:#BB474B;}
	.st5{fill:#A7C349;}
	.st6{fill:#E0EDF2;stroke:#E0EDF2;stroke-width:0.2835;stroke-miterlimit:10;}
	.st7{fill:#E0EDF2;stroke:#E0EDF2;stroke-width:0.1417;stroke-miterlimit:10;}
	.st8{fill:#E0EDF2;stroke:#E0EDF2;stroke-width:0.4252;stroke-miterlimit:10;}
	.st9{fill:#E0EDF2;stroke:#E0EDF2;stroke-width:0.5669;stroke-miterlimit:10;}
	.st10{fill:#E0EDF2;stroke:#E0EDF2;stroke-width:0.7087;stroke-miterlimit:10;}
	.st11{fill:#E0EDF2;}
	.st12{fill:#7C5543;stroke:#7B5744;stroke-miterlimit:10;}
	.st13{fill:#ECDDBB;stroke:#EEDFBE;stroke-miterlimit:10;}
	.st14{fill:#AF896D;stroke:#AF8A6D;stroke-miterlimit:10;}
	.st15{fill:#7B5744;}
	.st16{fill:#EEDFBE;}
	.st17{fill:#AF8A6D;}
	.st18{clip-path:url(#SVGID_2_);}
	.st19{fill:none;stroke:#AF8A6D;stroke-width:28.346;stroke-linecap:round;stroke-miterlimit:10;}
	.st20{fill:none;stroke:#7B5744;stroke-width:28.346;stroke-linecap:round;stroke-miterlimit:10;}
	.st21{fill:none;stroke:#EEDFBE;stroke-width:28.346;stroke-linecap:round;stroke-miterlimit:10;}
	.st22{clip-path:url(#SVGID_4_);fill:#010000;}
	.st23{fill:#010000;}
	.st24{fill:none;stroke:#EEDFBE;stroke-width:6;stroke-linecap:round;stroke-linejoin:round;}
	.st25{fill:none;stroke:#AF8A6D;stroke-width:13.1913;stroke-linecap:round;stroke-miterlimit:10;}
	.st26{fill:none;stroke:#EEDFBE;stroke-width:13.1913;stroke-linecap:round;stroke-miterlimit:10;}
	.st27{fill:none;stroke:#7B5744;stroke-width:13.1913;stroke-linecap:round;stroke-miterlimit:10;}
	.st28{fill:none;stroke:#7B5744;stroke-width:13.2334;stroke-linecap:round;stroke-miterlimit:10;}
	.st29{fill:#BD8A6D;}
	.st30{fill:#F2DEBA;}
	.st31{fill:#885441;}
	.st32{fill:none;stroke:#AF8A6D;stroke-width:4.0495;stroke-linecap:round;stroke-miterlimit:10;}
	.st33{fill:none;stroke:#EEDFBE;stroke-width:4.0495;stroke-linecap:round;stroke-miterlimit:10;}
	.st34{fill:none;stroke:#7B5744;stroke-width:4.0495;stroke-linecap:round;stroke-miterlimit:10;}
	.st35{fill:none;stroke:#A7C349;stroke-width:3;stroke-linecap:round;}
	.st36{fill:none;stroke:#BB474B;stroke-width:3;stroke-linecap:round;}
	.st37{enable-background:new    ;}
</style>
<g class="st37">
	<path class="st15" d="M4.9,19.4C4.3,19.4,4,19,4,18.2v-2.7c0-0.1,0-0.1-0.1-0.1l-2.5,0.5C0.6,16,0.1,15.7,0,15.1
		c-0.1-0.6,0.3-1,1.1-1.2l2.8-0.4C4,13.5,4,13.4,4,13.3v-2.4c0-0.1,0-0.1-0.1-0.1l-1.9,0c-0.7,0-1.2-0.2-1.5-0.7
		C0.3,9.6,0.3,9.3,0.6,9c0-0.1,0.1-0.2,0.3-0.6l0-0.1C1,7.9,1.2,7.6,1.4,7.2C1.4,7,1.7,6.1,2.1,4.6c0-0.1,0-0.1-0.1-0.1H1.3
		C0.4,4.5,0,4.2,0,3.5c0-0.6,0.4-0.9,1.3-0.9h1.1c0.1,0,0.2-0.1,0.2-0.2l0.2-0.9c0.2-0.8,0.5-1.2,1.2-1.1c0.6,0.1,0.9,0.6,0.7,1.4
		L4.5,2.5c0,0.1,0,0.1,0.1,0.1h2.1c0.8,0,1.3,0.3,1.3,0.9c0,0.6-0.4,0.9-1.3,0.9H4.1C4,4.5,3.9,4.5,3.9,4.7C3.5,6.1,3,7.5,2.4,8.9
		C2.4,9,2.4,9,2.5,9h1.4C4,9,4,9,4,8.9V7.2c0-0.8,0.3-1.3,0.9-1.3c0.6,0,0.9,0.4,0.9,1.3v1.8C5.8,9,5.9,9,5.9,9h0.5
		c0.8,0,1.3,0.3,1.3,0.9s-0.4,0.9-1.3,0.9H5.9c-0.1,0-0.1,0-0.1,0.1v2.2c0,0.1,0,0.1,0.1,0.1l0.6-0.1c0.8-0.1,1.3,0.1,1.4,0.6
		c0.1,0.6-0.3,0.9-1.1,1.1L6,14.9c-0.1,0-0.2,0.1-0.2,0.2v3C5.8,19,5.5,19.4,4.9,19.4z M9,19c-0.8,0-1.3-0.3-1.3-0.9
		c0-0.6,0.4-0.9,1.3-0.9h3.4c0.1,0,0.1,0,0.1-0.1v-4.3c0-0.1,0-0.1-0.1-0.1h-2.3c-0.8,0-1.3-0.3-1.3-0.9s0.4-0.9,1.3-0.9h6.7
		c0.8,0,1.3,0.3,1.3,0.9s-0.4,0.9-1.3,0.9h-2.2c-0.1,0-0.1,0-0.1,0.1v4.3c0,0.1,0,0.1,0.1,0.1h3.1c0.8,0,1.3,0.3,1.3,0.9
		c0,0.6-0.4,0.9-1.3,0.9H9z M9.8,9.9C9,10.2,8.5,10.1,8.3,9.5C8,8.9,8.3,8.4,9.1,8.1c0.5-0.2,1.4-0.8,2.8-1.7c1.4-1,2.4-2.1,3.2-3.2
		c0-0.1,0-0.1,0-0.1h-5c-0.8,0-1.3-0.3-1.3-0.9S9.2,1.3,10,1.3l5.8-0.1c0.5,0,1,0.1,1.5,0.3c0.4,0.2,0.5,0.7,0.2,1.5
		c-0.4,0.9-1.3,2-2.6,3.3c-0.1,0,0,0.1,0,0.1c1.7,0.8,2.7,1.3,2.9,1.4c0.7,0.5,0.9,1,0.5,1.5c-0.4,0.5-0.9,0.5-1.6,0
		c-0.3-0.2-1.4-0.8-3.1-1.7c-0.2-0.1-0.3-0.1-0.4,0C12,8.8,10.8,9.5,9.8,9.9z"/>
	<path class="st15" d="M24.9,19.5c-0.6,0-1-0.4-1-1.3v-7.6c0-0.1,0-0.1,0,0c-0.7,2.1-1.1,3.4-1.3,3.6c-0.5,0.7-1,0.9-1.5,0.5
		c-0.5-0.4-0.5-0.9,0-1.6c0.3-0.4,0.8-1.3,1.3-2.7c0.6-1.4,1-2.7,1.3-4.1c0-0.1,0-0.1-0.1-0.1h-1.5c-0.8,0-1.3-0.3-1.3-0.9
		c0-0.6,0.4-0.9,1.3-0.9h1.7c0.1,0,0.1,0,0.1-0.1V1.5c0-0.8,0.3-1.3,1-1.3c0.6,0,0.9,0.4,0.9,1.3v2.9c0,0.1,0,0.1,0.1,0.1h1.2
		c0.8,0,1.3,0.3,1.3,0.9c0,0.6-0.4,0.9-1.3,0.9H26c-0.1,0-0.1,0-0.1,0.1v0.3c0,0.3,0.1,0.5,0.3,0.8l2.2,3.1c0.5,0.7,0.5,1.2-0.1,1.6
		c-0.6,0.3-1,0.1-1.4-0.6l-0.8-1.7c0-0.1,0,0,0,0v8.3C25.9,19.1,25.6,19.5,24.9,19.5z M30.3,9c-0.5,0.7-1,0.8-1.6,0.3
		c-0.5-0.4-0.5-1,0-1.6c0.9-1,1.7-2.9,2.2-5.5c0.2-0.8,0.6-1.2,1.3-1c0.7,0.2,0.9,0.6,0.7,1.5c-0.2,0.9-0.6,2-1.2,3.5
		C31,7.6,30.6,8.6,30.3,9z M38.8,18.8c-0.6,0.2-1.1-0.1-1.3-0.9l0-0.1c0-0.1-0.1-0.1-0.2-0.1l-5.8,0.8c-0.4,0.1-0.8,0.1-1.2,0.2
		h-0.1c-0.8,0.2-1.3,0-1.6-0.7c-0.3-0.6-0.2-1.2,0.3-1.8l0.4-0.5c0.2-0.3,0.5-0.6,0.7-1c0.2-0.3,0.5-1.2,1.1-2.7
		c0.7-1.8,1.2-3.1,1.3-3.8c0.2-0.8,0.7-1.1,1.4-1c0.7,0.2,0.9,0.7,0.7,1.5c-0.7,2.4-1.8,4.9-3.2,7.6c0,0.1,0,0.1,0.1,0.1l5.2-0.5
		c0.1,0,0.1-0.1,0.1-0.1c-0.4-0.9-0.7-1.6-0.9-2.1c-0.4-0.7-0.3-1.3,0.2-1.5c0.5-0.3,1,0,1.4,0.7c1.1,1.9,1.8,3.4,2.1,4.3
		C39.7,18.1,39.5,18.6,38.8,18.8z M39.3,9c-0.6,0.4-1.1,0.3-1.6-0.3c-0.3-0.4-0.8-1.3-1.4-2.8c-0.6-1.3-1-2.5-1.2-3.6
		c-0.2-0.8,0-1.3,0.6-1.4c0.6-0.2,1,0.2,1.2,1c0.6,2.3,1.4,4.2,2.5,5.5C39.9,8,39.9,8.6,39.3,9z"/>
	<path class="st15" d="M45.3,6.9c-0.8,0.7-1.3,1.2-1.4,1.3c-0.6,0.5-1.2,0.6-1.6,0c-0.4-0.5-0.2-1,0.4-1.5c0.5-0.3,1.3-1.2,2.3-2.5
		C46.1,3,46.7,2,47,1.4c0.3-0.8,0.7-1,1.3-0.8c0.6,0.3,0.8,0.6,0.5,1c0,0.1,0,0.2,0.1,0.3c2.2,2.3,3.5,3.7,3.9,4.4
		c0.5,0.7,0.4,1.2-0.1,1.6c-0.5,0.4-1,0.2-1.5-0.5L51.1,7c-0.4-0.6-1.5-1.8-3.1-3.6c0-0.1-0.1-0.1-0.1,0C46.9,5,46.1,6.2,45.3,6.9z
		 M44,9.1c0-0.8,0.4-1.3,1.3-1.3h5.3c0.9,0,1.3,0.4,1.2,1.3c-0.1,1.4-0.2,2.5-0.3,3.3c-0.1,0.8-0.2,1.3-0.4,1.4
		c-0.1,0.1-0.3,0.3-0.4,0.5s-0.3,0.2-0.4,0.3c-0.5,0.1-0.9,0.1-1.4,0.1h-0.4c-0.9,0-1.3-0.3-1.3-0.8c0-0.5,0.4-0.8,1.3-0.7
		c0.1,0,0.2,0,0.4,0s0.2,0,0.3-0.1c0-0.1,0.1-0.2,0.3-0.3c0.1-0.1,0.2-1.2,0.4-3.1c0-0.1,0-0.1-0.1-0.1H46c-0.1,0-0.1,0-0.1,0.1v7
		c0,0.4,0.1,0.7,0.2,0.8c0.1,0.1,0.5,0.2,1,0.2h3.3c0.4,0,0.7-0.2,0.9-0.5c0.1-0.3,0.2-0.6,0.2-0.7c0-0.8,0.4-1.2,0.9-1.2
		c0.6,0,0.8,0.5,0.8,1.3c-0.1,0.8-0.3,1.5-0.7,2c-0.4,0.5-1,0.8-2,0.8h-3.7c-1.1,0-1.9-0.2-2.3-0.5c-0.4-0.4-0.6-1.1-0.6-2.1V9.1z
		 M55.1,14.3c-0.6,0-0.9-0.4-0.9-1.3V3.9c0-0.8,0.3-1.3,0.9-1.3c0.6,0,0.9,0.4,0.9,1.3v9.1C56.1,13.9,55.8,14.3,55.1,14.3z
		 M56.1,19.5c-0.8,0-1.3-0.3-1.2-0.9c0-0.6,0.4-0.9,1.3-0.9c0.3,0,0.6,0,0.9,0c0.4,0,0.7,0,0.9-0.1c0.2,0,0.3-0.2,0.3-0.5V1.9
		c0-0.8,0.3-1.3,1-1.3c0.6,0,1,0.4,1,1.3v15.2c0,0.6-0.1,1.1-0.2,1.4c-0.2,0.3-0.4,0.5-0.8,0.7C58.5,19.4,57.5,19.5,56.1,19.5z"/>
	<path class="st15" d="M68.4,3.3c0.5-0.3,1,0,1.4,0.7c0.1,0.1,0.2,0.4,0.3,0.9c0,0.1,0.1,0.2,0.2,0.2h4.1c0.2,0,0.3-0.1,0.4-0.2
		c0.3-0.6,0.5-1,0.6-1.3c0.1-0.3,0.5-0.4,1.1-0.1c0.6,0.3,0.7,0.8,0.3,1.5c0,0.1,0,0.1,0,0.1h3.4c0.8,0,1.3,0.3,1.3,0.8
		c0,0.5-0.4,0.8-1.3,0.8H64.8c-0.8,0-1.3-0.3-1.3-0.8c0-0.5,0.4-0.8,1.3-0.8h3.3c0.1,0,0.1,0,0.1-0.1C68,4.5,67.9,4.2,67.8,4
		S67.9,3.5,68.4,3.3z M65.5,18.3c-0.6,0.6-1.1,0.6-1.5,0.2c-0.4-0.4-0.3-0.9,0.4-1.5c0.2-0.2,0.5-0.7,0.9-1.4c0.3-0.8,0.8-1,1.3-0.8
		c0.5,0.3,0.6,0.8,0.3,1.5C66.3,17.3,65.9,18,65.5,18.3z M65.8,3.2c-0.8,0-1.3-0.3-1.3-0.8c0-0.5,0.4-0.8,1.3-0.8h5.8
		c0.1,0,0.1,0,0.1-0.1c-0.3-0.6-0.2-1,0.4-1.3c0.5-0.3,0.9-0.3,1.1,0.1c0.2,0.3,0.4,0.7,0.6,1.2c0.1,0.1,0.2,0.2,0.3,0.2h5.1
		c0.8,0,1.3,0.3,1.3,0.8c0,0.5-0.4,0.8-1.3,0.8H65.8z M67.2,13.7c-0.8,0-1.3-0.4-1.3-1.3V8.7c0-0.8,0.4-1.3,1.3-1.3h10.7
		c0.8,0,1.3,0.4,1.3,1.3v3.7c0,0.8-0.4,1.3-1.3,1.3H67.2z M67.8,9.9c0,0.1,0,0.1,0.1,0.1h9.2c0.1,0,0.1,0,0.1-0.1v-1
		c0-0.1,0-0.1-0.1-0.1h-9.2c-0.1,0-0.1,0-0.1,0.1V9.9z M67.8,12.3c0,0.1,0,0.1,0.1,0.1h9.2c0.1,0,0.1,0,0.1-0.1v-1
		c0-0.1,0-0.1-0.1-0.1h-9.2c-0.1,0-0.1,0-0.1,0.1V12.3z M71.1,19.4c-1.2,0-2-0.1-2.3-0.4s-0.6-0.9-0.6-1.7v-1.2
		c0-0.8,0.3-1.3,0.9-1.3c0.6,0,0.9,0.4,0.9,1.3v1.2c0,0.3,0.1,0.4,0.2,0.5c0.1,0.1,0.5,0.1,1,0.1h3.3c0.4,0,0.7-0.1,0.8-0.3
		s0.2-0.5,0.2-0.8c0-0.3,0.3-0.5,0.9-0.4s0.8,0.5,0.7,1.3c0,0.5-0.2,0.9-0.6,1.3c-0.3,0.4-1,0.6-1.9,0.6H71.1z M71,13.9
		c0.2-0.4,0.7-0.5,1.5-0.1c1,0.5,1.7,0.9,2,1.2c0.3,0.3,0.3,0.6-0.1,1.1c-0.4,0.4-0.9,0.3-1.5-0.3c-0.1-0.1-0.4-0.3-1-0.6
		C71,14.7,70.8,14.3,71,13.9z M80.7,18.3c-0.6,0.3-0.9,0.3-1,0c-0.1-0.2-0.4-0.7-0.9-1.4c-0.5-0.7-0.8-1.2-1-1.4
		c-0.2-0.2-0.1-0.5,0.3-0.9c0.4-0.4,0.9-0.3,1.4,0.4c0.8,0.9,1.3,1.5,1.5,1.8C81.4,17.5,81.3,18.1,80.7,18.3z"/>
	<path class="st15" d="M86.4,20c-0.8,0.3-1.3,0.1-1.4-0.3s0.2-0.8,0.9-1.1c0.9-0.3,1.4-1.1,1.5-2.3c0-0.1,0-0.1-0.1-0.1
		c-0.1,0-0.4,0-0.8,0c-0.1,0-0.3-0.1-0.6-0.4c-0.3-0.3-0.5-0.7-0.5-1.2c0-0.5,0.2-0.9,0.5-1.2c0.3-0.3,0.8-0.5,1.3-0.5
		c0.6,0,1.1,0.2,1.5,0.7c0.3,0.5,0.5,1.1,0.5,1.9c0,1.1-0.3,2.2-1,3C87.4,19.4,86.8,19.9,86.4,20z"/>
	<path class="st15" d="M97.2,19.6c-0.1,0.1-0.4-0.1-0.7-0.7c-0.3-0.5-0.2-1,0.5-1.5c0.1,0,0.1-0.5,0.1-1.3V3.5
		c0-0.8,0.4-1.3,1.3-1.3h4.7c0.1,0,0.1,0,0.1-0.1c-0.1-0.4-0.2-0.8-0.3-1c-0.1-0.3,0.1-0.5,0.7-0.8c0.6-0.3,1-0.2,1.2,0.1
		c0.2,0.4,0.4,0.9,0.6,1.6c0,0.1,0.1,0.2,0.3,0.2h4c0.8,0,1.3,0.4,1.3,1.3v6.7c0,0.8-0.4,1.3-1.3,1.3h-5.4c-0.1,0-0.1,0-0.1,0.1
		c0.6,1.1,1.4,2,2.3,2.8c0.1,0.1,0.2,0.1,0.4,0c1.4-0.8,2.4-1.5,3.1-2.1c0.6-0.5,1.2-0.6,1.6-0.1c0.4,0.5,0.3,1-0.4,1.6
		c-0.3,0.3-1.3,0.8-2.8,1.7c-0.1,0-0.1,0.1,0,0.1c1.4,0.9,2.6,1.4,3.5,1.6c0.8,0.2,1.2,0.6,1,1.2c-0.2,0.6-0.6,0.8-1.4,0.7
		c-4.2-1-7.3-3.5-9.2-7.4c-0.1-0.2-0.2-0.2-0.4-0.2h-2.5c-0.1,0-0.1,0-0.1,0.1v5.4c0,0.1,0,0.1,0.1,0.1l3.4-0.8
		c0.8-0.2,1.3,0,1.4,0.6c0.1,0.6-0.2,1-1,1.2l-3.9,1c-0.4,0.1-0.8,0.2-1.2,0.3C97.6,19.4,97.4,19.5,97.2,19.6z M99.1,5.9
		c0,0.1,0,0.1,0.1,0.1h9.5c0.1,0,0.1,0,0.1-0.1V4.1c0-0.1,0-0.1-0.1-0.1h-9.5c-0.1,0-0.1,0-0.1,0.1V5.9z M99.1,9.6
		c0,0.1,0,0.1,0.1,0.1h9.5c0.1,0,0.1,0,0.1-0.1V7.7c0-0.1,0-0.1-0.1-0.1h-9.5c-0.1,0-0.1,0-0.1,0.1V9.6z"/>
	<path class="st15" d="M117.2,19c-0.7,0.4-1.2,0.3-1.6-0.2c-0.3-0.6-0.1-1.1,0.7-1.4c0.8-0.4,1.6-1.4,2.6-3c0.1-0.1,0-0.2,0-0.2
		c-0.9-0.8-1.6-1.4-2.3-1.8c-0.6-0.4-0.8-1-0.6-1.7c0.3-0.8,0.6-2.2,1-4.2c0-0.1,0-0.1-0.1-0.1h-0.4c-0.8,0-1.3-0.3-1.3-0.9
		c0-0.6,0.4-0.9,1.3-0.9h0.7c0.1,0,0.2-0.1,0.2-0.2c0.3-1.4,0.4-2.4,0.4-2.8c0.1-0.8,0.4-1.2,1.1-1.1c0.7,0.1,0.9,0.5,0.8,1.4
		c0,0.3-0.2,1.2-0.5,2.6c0,0.1,0,0.1,0.1,0.1l2.2,0c0.5,0,0.9,0,1.3,0.1c0.4,0.1,0.6,0.5,0.5,1.3c-0.2,2.8-0.9,5.3-1.9,7.6
		c-0.1,0.1,0,0.2,0.1,0.3c0.9,0.8,1.4,1.3,1.6,1.5c0.5,0.7,0.5,1.2,0,1.6s-0.9,0.5-1.1,0.2c-0.2-0.3-0.7-0.8-1.5-1.6
		c-0.1,0-0.1,0-0.1,0C119.4,17.3,118.3,18.4,117.2,19z M119.9,12.4c0.1,0,0.1,0,0.1,0c0.8-1.8,1.3-3.8,1.6-6c0-0.1,0-0.1-0.1-0.1
		h-2.3c-0.1,0-0.2,0.1-0.2,0.2c-0.3,1.6-0.7,3-1,4.2c0,0.2,0,0.3,0.1,0.4L119.9,12.4z M126.7,19.6c-0.8,0-1.3-0.3-1.3-0.9
		c0-0.6,0.4-0.9,1.3-0.9h1c0.3,0,0.5-0.1,0.5-0.4V11c0-0.1,0-0.1-0.1-0.1h-3.3c-0.8,0-1.3-0.3-1.3-0.9c0-0.6,0.4-0.9,1.3-0.9h3.3
		c0.1,0,0.1,0,0.1-0.1V7.7c0-0.6,0.2-1.2,0.7-1.6c0.5-0.4,1.1-1.3,2-2.6c0-0.1,0-0.1,0-0.1h-5.2c-0.8,0-1.3-0.3-1.3-0.9
		c0-0.6,0.4-0.9,1.2-0.9l6.6-0.2c0.7,0,1.1,0.2,1.4,0.5c0.3,0.4,0.2,0.8-0.2,1.5c-0.8,1.2-1.8,2.4-3.1,3.5c-0.2,0.2-0.3,0.3-0.3,0.6
		v1.4c0,0.1,0,0.1,0.1,0.1h3.1c0.8,0,1.3,0.3,1.3,0.9c0,0.6-0.4,0.9-1.3,0.9h-3.1c-0.1,0-0.1,0-0.1,0.1v6.4c0,0.5-0.1,1-0.2,1.2
		s-0.3,0.5-0.5,0.5c-0.2,0.1-0.5,0.2-0.9,0.3C128.4,19.5,127.8,19.6,126.7,19.6z"/>
	<path class="st15" d="M139.4,18.9c0,0-0.2-0.2-0.7-0.6c-0.4-0.4-0.3-0.9,0.4-1.4c0,0,0.1-0.4,0.1-1.2V8.7c0-0.1,0-0.1-0.1-0.1h-1.4
		c-0.8,0-1.3-0.3-1.3-0.9c0-0.6,0.4-0.9,1.3-0.9h2.1c0.8,0,1.3,0.4,1.3,1.3v7.2c0,0.1,0,0.1,0.1,0l0.9-0.7c0.7-0.5,1.2-0.6,1.5-0.1
		c0.3,0.4,0.2,0.9-0.4,1.5l-2.4,1.9c-0.3,0.3-0.6,0.5-1,0.8C139.5,18.8,139.4,18.9,139.4,18.9z M141.8,4.4c-0.5,0.4-1,0.2-1.5-0.5
		c-0.1-0.1-0.5-0.5-1.3-1.2c-0.6-0.5-0.8-1-0.4-1.5c0.4-0.4,0.9-0.4,1.5,0.1c0.9,0.7,1.4,1.2,1.7,1.5C142.3,3.5,142.3,4,141.8,4.4z
		 M155,18.7c-0.1,0.6-0.6,0.8-1.4,0.7c-1.5-0.4-3-1.1-4.5-2.1c-0.1-0.1-0.3-0.1-0.4,0c-1.4,1-2.9,1.6-4.5,2c-0.8,0.2-1.3,0-1.4-0.6
		c-0.1-0.6,0.2-1,1-1.2c1-0.2,2.1-0.7,3.5-1.5c0.1,0,0.1-0.1,0-0.1c-1.2-1.2-2.1-2.3-2.6-3.3c-0.4-0.8-0.4-1.2-0.1-1.3
		c0.1,0,0.1,0,0,0c-0.8,0-1.2-0.3-1.2-0.9c0-0.6,0.4-0.9,1.3-0.9l7.6-0.1c0.5,0,1,0.1,1.4,0.3c0.4,0.2,0.5,0.7,0.3,1.4
		c-0.5,1.7-1.7,3.3-3.4,4.9c-0.1,0-0.1,0.1,0,0.1c1.4,0.9,2.5,1.4,3.4,1.5C154.8,17.7,155.2,18.1,155,18.7z M144.6,8.6
		c-0.8,0.4-1.3,0.3-1.5-0.3c-0.3-0.6,0-1,0.8-1.3c0.3-0.1,0.6-0.6,1.1-1.4c0.4-0.6,0.5-1.4,0.5-2.3v-1c0-0.8,0.4-1.3,1.3-1.3h4.5
		c0.8,0,1.3,0.4,1.3,1.3l0,3.5c0,0.4,0,0.6,0,0.6c0,0.1,0.1,0.1,0.1,0.1c0.1,0,0.3,0,0.7,0l0.4,0c0.8,0,1.2,0.2,1.4,0.7
		c0.2,0.5-0.2,0.8-1.1,0.8l-0.8,0.1c-0.4,0-0.9,0-1.3,0c-0.4,0-0.7-0.2-1-0.5c-0.3-0.4-0.4-1-0.4-2V2.9c0-0.1,0-0.1-0.1-0.1h-3.1
		c-0.1,0-0.1,0-0.1,0.1v0.4C147.4,6,146.5,7.8,144.6,8.6z M148.9,14.8c0.1,0.1,0.2,0.1,0.3,0c1.2-1,2.1-2.1,2.7-3.5
		c0-0.1,0-0.1-0.1-0.1h-5.7c-0.1,0-0.1,0-0.1,0.1C146.8,12.6,147.7,13.8,148.9,14.8z"/>
	<path class="st15" d="M161.7,18.3c-0.6,0.4-1,0.4-1.4-0.1c-0.4-0.5-0.5-0.8-0.4-0.9c0.1,0,0.2-0.1,0.3-0.3c0.1-0.1,0.2-0.3,0.3-0.5
		c0.1-0.2,0.2-0.5,0.2-0.9V8.8c0-0.1,0-0.1-0.1-0.1h-1.8c-0.8,0-1.3-0.3-1.3-1c0-0.6,0.4-1,1.3-1h2.6c0.8,0,1.3,0.4,1.3,1.3v7.2
		c0,0.1,0,0.1,0.1,0l1.1-0.7c0.7-0.5,1.2-0.5,1.6,0c0.3,0.5,0.2,1-0.5,1.5l-2.6,1.9C161.9,18.1,161.7,18.3,161.7,18.3z M163.2,4.4
		c-0.5,0.4-1,0.3-1.5-0.4c-0.1-0.1-0.6-0.5-1.5-1.3c-0.6-0.5-0.8-1-0.4-1.5c0.4-0.4,0.9-0.4,1.5,0.1c1.1,0.8,1.7,1.3,1.8,1.5
		C163.7,3.4,163.7,4,163.2,4.4z M170.5,19.5c-0.7,0-1-0.4-1-1.3V9.1c0-0.1,0-0.1-0.1-0.1h-3.8c-0.8,0-1.3-0.3-1.3-1
		c0-0.7,0.4-1,1.3-1h3.8c0.1,0,0.1,0,0.1-0.1V1.6c0-0.8,0.3-1.3,1-1.3c0.7,0,1,0.4,1,1.3v5.3c0,0.1,0,0.1,0.1,0.1h3.7
		c0.8,0,1.3,0.3,1.3,1c0,0.7-0.4,1-1.3,1h-3.7c-0.1,0-0.1,0-0.1,0.1v9.1C171.5,19.1,171.2,19.5,170.5,19.5z"/>
	<path class="st15" d="M181.8,19.3c-0.9,0-1.7-0.3-2.3-1c-0.6-0.6-1-1.4-1-2.3c0-0.9,0.3-1.7,1-2.3c0.7-0.6,1.4-1,2.3-1
		c0.9,0,1.7,0.3,2.3,1c0.6,0.6,1,1.4,1,2.3s-0.3,1.7-1,2.3C183.5,19,182.7,19.3,181.8,19.3z M180.3,17.4c0.4,0.4,0.9,0.6,1.4,0.6
		c0.6,0,1-0.2,1.4-0.6c0.4-0.4,0.6-0.9,0.6-1.4c0-0.6-0.2-1-0.6-1.4s-0.9-0.6-1.4-0.6c-0.6,0-1,0.2-1.4,0.6
		c-0.4,0.4-0.6,0.9-0.6,1.4C179.8,16.6,180,17.1,180.3,17.4z"/>
	<path class="st15" d="M196,18.2c-2,0-3.6-0.7-4.9-2.1c-1.3-1.4-1.9-3.4-1.9-5.8c0-1.2,0.2-2.4,0.5-3.4c0.4-1,0.9-1.9,1.5-2.6
		s1.4-1.2,2.2-1.6s1.8-0.6,2.7-0.6c1.4,0,2.6,0.4,3.7,1.3c0.2,0.2,0.3,0.4,0.3,0.7c0,0.3-0.1,0.5-0.3,0.7s-0.4,0.3-0.7,0.3
		c0,0-0.1,0-0.1,0c-0.2,0-0.5-0.1-0.7-0.2c-0.7-0.5-1.4-0.7-2.3-0.7c-1.3,0-2.4,0.5-3.3,1.6c-0.8,1.1-1.3,2.5-1.3,4.3
		c0,1.8,0.4,3.3,1.2,4.3c0.8,1.1,1.9,1.6,3.2,1.6c1,0,1.9-0.3,2.7-1c0.2-0.2,0.4-0.2,0.7-0.2c0,0,0,0,0.1,0c0.3,0,0.5,0.1,0.7,0.3
		c0.2,0.2,0.3,0.5,0.3,0.7c0,0.3-0.1,0.6-0.3,0.8C199,17.7,197.6,18.2,196,18.2z"/>
	<path class="st15" d="M210,17.7c-0.6,0.3-1.3,0.4-2.1,0.4s-1.4-0.1-2.1-0.4s-1.2-0.7-1.7-1.2c-0.5-0.5-0.9-1.1-1.2-1.9
		s-0.5-1.6-0.5-2.6s0.2-1.8,0.5-2.6s0.7-1.4,1.2-1.9s1.1-0.9,1.7-1.2c0.7-0.3,1.3-0.4,2.1-0.4s1.4,0.1,2.1,0.4
		c0.6,0.3,1.2,0.7,1.7,1.2s0.9,1.1,1.2,1.9s0.5,1.6,0.5,2.6s-0.2,1.8-0.5,2.6s-0.7,1.4-1.2,1.9C211.3,17.1,210.7,17.5,210,17.7z
		 M208,16.2c0.9,0,1.6-0.4,2.2-1.1s0.8-1.7,0.8-3s-0.3-2.2-0.8-3C209.6,8.4,208.9,8,208,8c-0.9,0-1.6,0.4-2.1,1.1
		c-0.5,0.7-0.8,1.7-0.8,3s0.3,2.2,0.8,3S207.1,16.2,208,16.2z"/>
	<path class="st15" d="M218.3,17.5c-0.2,0.2-0.5,0.3-0.9,0.3s-0.6-0.1-0.9-0.3s-0.3-0.5-0.3-0.8V7.3c0-0.3,0.1-0.5,0.3-0.7
		s0.4-0.3,0.7-0.3c0.3,0,0.5,0.1,0.7,0.3c0.2,0.2,0.3,0.4,0.4,0.7l0.1,0.6c0,0,0,0,0.1,0s0,0,0.1,0c0.6-0.6,1.2-1.1,1.8-1.4
		s1.3-0.5,2-0.5c2.4,0,3.5,1.5,3.5,4.6v6c0,0.3-0.1,0.6-0.3,0.9s-0.5,0.3-0.9,0.3s-0.6-0.1-0.9-0.3s-0.4-0.5-0.4-0.9v-5.8
		c0-1-0.2-1.7-0.5-2.1c-0.3-0.4-0.8-0.6-1.5-0.6c-0.5,0-0.9,0.1-1.3,0.3c-0.4,0.2-0.9,0.6-1.4,1.1c-0.1,0.1-0.1,0.2-0.1,0.3v6.8
		C218.6,17,218.5,17.3,218.3,17.5z"/>
	<path class="st15" d="M234,18.2c-1.6,0-2.9-0.5-4-1.6c-1-1.1-1.6-2.5-1.6-4.4c0-0.9,0.2-1.8,0.5-2.6s0.7-1.4,1.3-1.9
		s1.1-0.9,1.8-1.2c0.7-0.3,1.4-0.4,2.2-0.4c0.9,0,1.8,0.2,2.6,0.7c0.2,0.2,0.4,0.4,0.4,0.6c0,0,0,0.1,0,0.1c0,0.2-0.1,0.4-0.2,0.6
		c-0.2,0.2-0.4,0.3-0.6,0.4c-0.1,0-0.1,0-0.2,0c-0.2,0-0.4,0-0.6-0.1c-0.4-0.2-0.8-0.3-1.3-0.3c-1,0-1.8,0.4-2.4,1.1s-0.9,1.7-0.9,3
		s0.3,2.2,0.9,2.9c0.6,0.7,1.4,1.1,2.4,1.1c0.6,0,1.2-0.2,1.7-0.5c0.2-0.1,0.3-0.1,0.5-0.1c0.1,0,0.1,0,0.2,0
		c0.2,0.1,0.4,0.2,0.6,0.4c0.1,0.2,0.2,0.3,0.2,0.6c0,0.1,0,0.1,0,0.2c0,0.3-0.2,0.5-0.4,0.6C236.1,17.9,235.1,18.2,234,18.2z"/>
	<path class="st15" d="M244.5,18.2c-1.6,0-3-0.5-4-1.6s-1.6-2.5-1.6-4.4c0-0.9,0.1-1.7,0.4-2.5s0.7-1.4,1.2-1.9
		c0.5-0.5,1.1-0.9,1.7-1.2s1.3-0.4,2-0.4c1.5,0,2.7,0.5,3.5,1.5c0.8,1,1.2,2.3,1.2,4v0c0,0.3-0.2,0.6-0.4,0.8s-0.6,0.3-0.9,0.3h-6.1
		c-0.1,0-0.1,0.1-0.1,0.2c0.1,1.1,0.5,1.9,1.1,2.5c0.6,0.6,1.4,0.9,2.4,0.9c0.7,0,1.3-0.1,2-0.4c0.1-0.1,0.3-0.1,0.4-0.1
		c0.1,0,0.2,0,0.2,0c0.2,0.1,0.4,0.2,0.5,0.4c0.1,0.1,0.1,0.3,0.1,0.4c0,0.1,0,0.2,0,0.2c-0.1,0.2-0.2,0.4-0.4,0.5
		C246.6,17.9,245.6,18.2,244.5,18.2z M241.2,11c0,0.1,0,0.1,0.1,0.1h5.2c0.1,0,0.1,0,0.1-0.1c0-1-0.3-1.7-0.7-2.2s-1.1-0.8-1.9-0.8
		c-0.7,0-1.4,0.3-1.9,0.8C241.5,9.4,241.2,10.1,241.2,11z"/>
	<path class="st15" d="M254,18.2c-1,0-1.8-0.3-2.5-0.9c-0.6-0.6-1-1.4-1-2.4c0-1.2,0.5-2.2,1.6-2.8c1.1-0.7,2.8-1.2,5.2-1.4
		c0.1,0,0.1-0.1,0.1-0.2c-0.1-1.6-0.8-2.4-2.2-2.4c-0.8,0-1.6,0.2-2.5,0.7c-0.1,0.1-0.3,0.1-0.5,0.1c-0.1,0-0.2,0-0.2,0
		c-0.2-0.1-0.4-0.2-0.6-0.4c-0.1-0.2-0.1-0.3-0.1-0.5c0-0.1,0-0.2,0-0.3c0.1-0.3,0.2-0.5,0.5-0.6c1.3-0.7,2.6-1,3.9-1
		c1.4,0,2.5,0.4,3.2,1.3s1,2.1,1,3.6v6c0,0.3-0.1,0.5-0.3,0.7s-0.4,0.3-0.7,0.3c-0.3,0-0.5-0.1-0.8-0.3c-0.2-0.2-0.3-0.4-0.4-0.7
		l0-0.3c0,0,0,0-0.1,0s0,0-0.1,0C256.4,17.6,255.2,18.2,254,18.2z M254.7,16.2c0.8,0,1.7-0.4,2.7-1.2c0.1-0.1,0.1-0.2,0.1-0.3v-2.5
		c0-0.1,0-0.1-0.1-0.1h0c-1.6,0.2-2.7,0.5-3.4,0.9c-0.7,0.4-1,1-1,1.6c0,0.5,0.2,1,0.5,1.2S254.2,16.2,254.7,16.2z"/>
	<path class="st15" d="M265.7,18.2c-0.8,0-1.5-0.3-1.8-0.8s-0.6-1.2-0.6-2.2V2.3c0-0.3,0.1-0.6,0.3-0.8s0.5-0.3,0.9-0.3
		s0.6,0.1,0.9,0.3s0.3,0.5,0.3,0.8v13c0,0.4,0.1,0.7,0.3,0.8c0,0,0.1,0,0.2,0.1s0.2,0.1,0.2,0.1s0.1,0.1,0.2,0.1
		c0.1,0,0.1,0.1,0.2,0.2s0.1,0.1,0.1,0.2l0.1,0.3c0,0.1,0,0.1,0,0.2c0,0.2-0.1,0.4-0.2,0.5c-0.1,0.2-0.3,0.3-0.6,0.4
		C266,18.2,265.9,18.2,265.7,18.2z"/>
	<path class="st15" d="M274.4,18.2c-1.6,0-3-0.5-4-1.6s-1.6-2.5-1.6-4.4c0-0.9,0.1-1.7,0.4-2.5s0.7-1.4,1.2-1.9
		c0.5-0.5,1.1-0.9,1.7-1.2s1.3-0.4,2-0.4c1.5,0,2.7,0.5,3.5,1.5c0.8,1,1.2,2.3,1.2,4v0c0,0.3-0.2,0.6-0.4,0.8s-0.6,0.3-0.9,0.3h-6.1
		c-0.1,0-0.1,0.1-0.1,0.2c0.1,1.1,0.5,1.9,1.1,2.5c0.6,0.6,1.4,0.9,2.4,0.9c0.7,0,1.3-0.1,2-0.4c0.1-0.1,0.3-0.1,0.4-0.1
		c0.1,0,0.2,0,0.2,0c0.2,0.1,0.4,0.2,0.5,0.4c0.1,0.1,0.1,0.3,0.1,0.4c0,0.1,0,0.2,0,0.2c-0.1,0.2-0.2,0.4-0.4,0.5
		C276.5,17.9,275.5,18.2,274.4,18.2z M271.1,11c0,0.1,0,0.1,0.1,0.1h5.2c0.1,0,0.1,0,0.1-0.1c0-1-0.3-1.7-0.7-2.2s-1.1-0.8-1.9-0.8
		c-0.7,0-1.4,0.3-1.9,0.8C271.5,9.4,271.1,10.1,271.1,11z"/>
	<path class="st15" d="M285.4,18.2c-1.5,0-2.6-0.5-3.5-1.6s-1.3-2.5-1.3-4.4c0-1.8,0.5-3.3,1.5-4.4c1-1.1,2.1-1.7,3.5-1.7
		c0.6,0,1.1,0.1,1.6,0.3c0.5,0.2,0.9,0.5,1.4,0.9c0,0,0,0,0.1,0s0,0,0-0.1l-0.1-1.7V2.4c0-0.3,0.1-0.6,0.4-0.9s0.5-0.3,0.9-0.3
		s0.6,0.1,0.9,0.3S291,2,291,2.4v14.5c0,0.3-0.1,0.5-0.3,0.7s-0.4,0.3-0.7,0.3c-0.3,0-0.5-0.1-0.8-0.3c-0.2-0.2-0.3-0.4-0.4-0.7
		l0-0.3c0,0,0,0,0,0s0,0-0.1,0C287.7,17.6,286.6,18.2,285.4,18.2z M286,16.2c0.9,0,1.7-0.4,2.5-1.3c0.1-0.1,0.1-0.2,0.1-0.3V9.3
		c0-0.1,0-0.2-0.1-0.2c-0.8-0.6-1.6-0.9-2.4-0.9c-0.8,0-1.5,0.4-2.1,1.1c-0.6,0.7-0.8,1.7-0.8,2.9c0,1.3,0.2,2.3,0.7,3
		C284.4,15.8,285.1,16.2,286,16.2z"/>
	<path class="st15" d="M304,18.2c-1.7,0-3.3-0.5-4.7-1.5c-0.3-0.2-0.4-0.5-0.4-0.8c0-0.3,0.1-0.5,0.3-0.7c0.2-0.2,0.4-0.4,0.7-0.4
		c0,0,0.1,0,0.1,0c0.3,0,0.5,0.1,0.7,0.2c1,0.8,2.1,1.1,3.3,1.1c0.9,0,1.7-0.2,2.2-0.6c0.5-0.4,0.8-0.9,0.8-1.6c0-0.3,0-0.5-0.1-0.7
		s-0.2-0.4-0.3-0.5c-0.1-0.1-0.3-0.3-0.6-0.5c-0.3-0.2-0.5-0.3-0.6-0.4c-0.2-0.1-0.4-0.2-0.8-0.4l-2.2-0.9c-2.1-0.9-3.1-2.2-3.1-4.1
		c0-1.2,0.5-2.2,1.4-3s2.2-1.2,3.7-1.2c1.4,0,2.7,0.4,3.9,1.3c0.2,0.2,0.4,0.4,0.4,0.8c0,0.3-0.1,0.5-0.2,0.7
		c-0.2,0.2-0.4,0.3-0.7,0.3c0,0-0.1,0-0.1,0c-0.2,0-0.4-0.1-0.6-0.2c-0.8-0.5-1.7-0.8-2.6-0.8c-0.8,0-1.4,0.2-1.9,0.5
		c-0.5,0.4-0.7,0.9-0.7,1.5c0,0.2,0.1,0.5,0.2,0.7c0.1,0.2,0.2,0.4,0.3,0.5c0.1,0.1,0.3,0.3,0.6,0.4c0.3,0.1,0.5,0.3,0.6,0.3
		c0.2,0.1,0.4,0.2,0.8,0.3l2.1,0.9c1,0.4,1.8,1,2.3,1.6s0.8,1.5,0.8,2.6c0,1.3-0.5,2.4-1.5,3.2C307,17.7,305.6,18.2,304,18.2z"/>
	<path class="st15" d="M316,18.2c-1.2,0-2.1-0.4-2.7-1.1s-0.8-1.7-0.8-3V8.4c0-0.1-0.1-0.2-0.2-0.2h-0.6c-0.3,0-0.5-0.1-0.6-0.3
		c-0.2-0.2-0.3-0.4-0.3-0.6c0-0.3,0.1-0.5,0.3-0.7c0.2-0.2,0.4-0.3,0.6-0.3l0.7-0.1c0.1,0,0.2-0.1,0.2-0.2l0.2-2
		c0-0.3,0.1-0.5,0.4-0.7c0.2-0.2,0.5-0.3,0.7-0.3c0.3,0,0.5,0.1,0.7,0.3s0.3,0.4,0.3,0.7v2c0,0.1,0.1,0.2,0.2,0.2h1.9
		c0.3,0,0.5,0.1,0.7,0.3c0.2,0.2,0.3,0.4,0.3,0.7c0,0.3-0.1,0.5-0.3,0.7c-0.2,0.2-0.4,0.3-0.7,0.3h-1.9c-0.1,0-0.2,0.1-0.2,0.2v5.7
		c0,0.7,0.1,1.2,0.4,1.6c0.3,0.3,0.7,0.5,1.3,0.5c0.1,0,0.2,0,0.4,0c0.1,0,0.1,0,0.2,0c0.2,0,0.4,0,0.5,0.1c0.2,0.1,0.3,0.3,0.4,0.5
		c0,0.1,0,0.2,0,0.2c0,0.2,0,0.3-0.1,0.5c-0.1,0.2-0.3,0.4-0.6,0.4C316.9,18.1,316.4,18.2,316,18.2z"/>
	<path class="st15" d="M323.7,18.2c-2.4,0-3.5-1.5-3.5-4.6v-6c0-0.3,0.1-0.6,0.3-0.9s0.5-0.3,0.9-0.3s0.6,0.1,0.9,0.3
		s0.4,0.5,0.4,0.9v5.8c0,1,0.2,1.7,0.5,2.1c0.3,0.4,0.8,0.6,1.5,0.6c0.5,0,1-0.1,1.4-0.4s0.8-0.7,1.3-1.2c0.1-0.1,0.1-0.2,0.1-0.3
		V7.5c0-0.3,0.1-0.6,0.4-0.9s0.5-0.3,0.9-0.3s0.6,0.1,0.9,0.3c0.2,0.2,0.4,0.5,0.4,0.9v9.4c0,0.3-0.1,0.5-0.3,0.7s-0.4,0.3-0.7,0.3
		c-0.3,0-0.5-0.1-0.7-0.3c-0.2-0.2-0.3-0.4-0.4-0.7l-0.1-0.7c0,0,0,0-0.1,0c0,0,0,0-0.1,0c-0.6,0.7-1.1,1.2-1.7,1.5
		C325.2,18,324.5,18.2,323.7,18.2z"/>
	<path class="st15" d="M337.3,18.2c-1.5,0-2.6-0.5-3.5-1.6s-1.3-2.5-1.3-4.4c0-1.8,0.5-3.3,1.5-4.4c1-1.1,2.1-1.7,3.5-1.7
		c0.6,0,1.1,0.1,1.6,0.3c0.5,0.2,0.9,0.5,1.4,0.9c0,0,0,0,0.1,0s0,0,0-0.1l-0.1-1.7V2.4c0-0.3,0.1-0.6,0.4-0.9s0.5-0.3,0.9-0.3
		s0.6,0.1,0.9,0.3s0.3,0.5,0.3,0.9v14.5c0,0.3-0.1,0.5-0.3,0.7s-0.4,0.3-0.7,0.3c-0.3,0-0.5-0.1-0.8-0.3c-0.2-0.2-0.3-0.4-0.4-0.7
		l0-0.3c0,0,0,0,0,0s0,0-0.1,0C339.7,17.6,338.6,18.2,337.3,18.2z M337.9,16.2c0.9,0,1.7-0.4,2.5-1.3c0.1-0.1,0.1-0.2,0.1-0.3V9.3
		c0-0.1,0-0.2-0.1-0.2c-0.8-0.6-1.6-0.9-2.4-0.9c-0.8,0-1.5,0.4-2.1,1.1c-0.6,0.7-0.8,1.7-0.8,2.9c0,1.3,0.2,2.3,0.7,3
		C336.3,15.8,337,16.2,337.9,16.2z"/>
	<path class="st15" d="M348.9,3.8c-0.3,0.3-0.7,0.4-1.1,0.4c-0.4,0-0.8-0.1-1.1-0.4c-0.3-0.3-0.4-0.6-0.4-1c0-0.4,0.1-0.8,0.4-1
		c0.3-0.3,0.7-0.4,1.1-0.4c0.4,0,0.8,0.1,1.1,0.4c0.3,0.3,0.4,0.6,0.4,1C349.3,3.2,349.2,3.5,348.9,3.8z M348.6,17.5
		c-0.2,0.2-0.5,0.3-0.9,0.3c-0.3,0-0.6-0.1-0.9-0.3s-0.3-0.5-0.3-0.8V7.5c0-0.3,0.1-0.6,0.3-0.8s0.5-0.3,0.9-0.3
		c0.3,0,0.6,0.1,0.9,0.3s0.3,0.5,0.3,0.8v9.2C349,17,348.9,17.3,348.6,17.5z"/>
	<path class="st15" d="M359.3,17.7c-0.6,0.3-1.3,0.4-2.1,0.4c-0.7,0-1.4-0.1-2.1-0.4s-1.2-0.7-1.7-1.2c-0.5-0.5-0.9-1.1-1.2-1.9
		s-0.5-1.6-0.5-2.6s0.2-1.8,0.5-2.6s0.7-1.4,1.2-1.9c0.5-0.5,1.1-0.9,1.7-1.2c0.7-0.3,1.3-0.4,2.1-0.4c0.7,0,1.4,0.1,2.1,0.4
		c0.6,0.3,1.2,0.7,1.7,1.2s0.9,1.1,1.2,1.9s0.5,1.6,0.5,2.6s-0.2,1.8-0.5,2.6s-0.7,1.4-1.2,1.9C360.5,17.1,359.9,17.5,359.3,17.7z
		 M357.2,16.2c0.9,0,1.6-0.4,2.2-1.1s0.8-1.7,0.8-3s-0.3-2.2-0.8-3c-0.5-0.7-1.3-1.1-2.2-1.1c-0.9,0-1.6,0.4-2.1,1.1
		c-0.5,0.7-0.8,1.7-0.8,3s0.3,2.2,0.8,3S356.3,16.2,357.2,16.2z"/>
	<path class="st15" d="M384.9,17.5c-0.4,0.3-0.8,0.5-1.4,0.5s-1-0.2-1.4-0.5s-0.6-0.8-0.6-1.3s0.2-1,0.6-1.3
		c0.4-0.3,0.8-0.5,1.4-0.5s1,0.2,1.4,0.5c0.4,0.3,0.6,0.8,0.6,1.3S385.3,17.2,384.9,17.5z M384.2,12.4c-0.2,0.2-0.4,0.2-0.6,0.2
		s-0.5-0.1-0.6-0.2s-0.3-0.4-0.3-0.6l-0.6-6.9l0-1.6c0-0.3,0.1-0.6,0.3-0.9s0.5-0.4,0.8-0.4h0.7c0.3,0,0.6,0.1,0.8,0.4
		s0.3,0.5,0.3,0.9l0,1.6l-0.6,6.9C384.5,12.1,384.4,12.3,384.2,12.4z"/>
	<path class="st15" d="M405.4,11.6c-0.1,0.3-0.2,0.6-0.4,0.8s-0.4,0.3-0.7,0.3c-0.3,0-0.6-0.1-0.8-0.3c-0.2-0.2-0.3-0.4-0.3-0.6
		c0-0.1,0-0.1,0-0.2c0.1-0.5,0.3-0.9,0.6-1.3c0.3-0.4,0.7-0.8,1.1-1.1c0.4-0.3,0.8-0.6,1.2-0.9c0.4-0.3,0.7-0.6,1-1
		c0.3-0.3,0.4-0.7,0.4-1.1c0-0.7-0.3-1.3-0.8-1.7c-0.5-0.4-1.2-0.6-2.2-0.6c-1.1,0-2.1,0.4-3,1.1c-0.2,0.2-0.4,0.3-0.7,0.3
		c0,0,0,0,0,0c-0.2,0-0.4-0.1-0.6-0.2c-0.2-0.2-0.3-0.4-0.3-0.7c0-0.2,0.1-0.5,0.3-0.6c1.4-1.2,2.9-1.8,4.7-1.8
		c1.5,0,2.7,0.4,3.7,1.1c0.9,0.7,1.4,1.7,1.4,3c0,0.5-0.1,1-0.4,1.4s-0.6,0.8-1,1.1c-0.4,0.3-0.8,0.6-1.2,0.9s-0.8,0.6-1.1,1
		C405.8,10.8,405.6,11.2,405.4,11.6z M403,17.5c-0.4-0.3-0.5-0.8-0.5-1.3s0.2-1,0.5-1.3c0.4-0.3,0.8-0.5,1.4-0.5s1,0.2,1.4,0.5
		c0.4,0.3,0.5,0.8,0.5,1.3s-0.2,1-0.5,1.3s-0.8,0.5-1.4,0.5S403.3,17.9,403,17.5z"/>
</g>
</svg>
