<?xml version="1.0" encoding="utf-8"?>
<!-- Generator: Adobe Illustrator 24.3.0, SVG Export Plug-In . SVG Version: 6.00 Build 0)  -->
<svg version="1.1" id="图层_1" xmlns="http://www.w3.org/2000/svg" xmlns:xlink="http://www.w3.org/1999/xlink" x="0px" y="0px"
	 viewBox="0 0 415.1 20.8" style="enable-background:new 0 0 415.1 20.8;" xml:space="preserve">
<style type="text/css">
	.st0{fill:none;stroke:#AF8A6D;stroke-width:7.0866;stroke-miterlimit:10;}
	.st1{fill:none;stroke:#7B5744;stroke-width:5.6693;stroke-miterlimit:10;}
	.st2{fill:none;stroke:#EEDFBE;stroke-width:8.5039;stroke-miterlimit:10;}
	.st3{fill:none;}
	.st4{fill:#BB474B;}
	.st5{fill:#A7C349;}
	.st6{fill:#E0EDF2;stroke:#E0EDF2;stroke-width:0.2835;stroke-miterlimit:10;}
	.st7{fill:#E0EDF2;stroke:#E0EDF2;stroke-width:0.1417;stroke-miterlimit:10;}
	.st8{fill:#E0EDF2;stroke:#E0EDF2;stroke-width:0.4252;stroke-miterlimit:10;}
	.st9{fill:#E0EDF2;stroke:#E0EDF2;stroke-width:0.5669;stroke-miterlimit:10;}
	.st10{fill:#E0EDF2;stroke:#E0EDF2;stroke-width:0.7087;stroke-miterlimit:10;}
	.st11{fill:#E0EDF2;}
	.st12{fill:#7C5543;stroke:#7B5744;stroke-miterlimit:10;}
	.st13{fill:#ECDDBB;stroke:#EEDFBE;stroke-miterlimit:10;}
	.st14{fill:#AF896D;stroke:#AF8A6D;stroke-miterlimit:10;}
	.st15{fill:#7B5744;}
	.st16{fill:#EEDFBE;}
	.st17{fill:#AF8A6D;}
	.st18{clip-path:url(#SVGID_2_);}
	.st19{fill:none;stroke:#AF8A6D;stroke-width:28.346;stroke-linecap:round;stroke-miterlimit:10;}
	.st20{fill:none;stroke:#7B5744;stroke-width:28.346;stroke-linecap:round;stroke-miterlimit:10;}
	.st21{fill:none;stroke:#EEDFBE;stroke-width:28.346;stroke-linecap:round;stroke-miterlimit:10;}
	.st22{clip-path:url(#SVGID_4_);fill:#010000;}
	.st23{fill:#010000;}
	.st24{fill:none;stroke:#EEDFBE;stroke-width:6;stroke-linecap:round;stroke-linejoin:round;}
	.st25{fill:none;stroke:#AF8A6D;stroke-width:13.1913;stroke-linecap:round;stroke-miterlimit:10;}
	.st26{fill:none;stroke:#EEDFBE;stroke-width:13.1913;stroke-linecap:round;stroke-miterlimit:10;}
	.st27{fill:none;stroke:#7B5744;stroke-width:13.1913;stroke-linecap:round;stroke-miterlimit:10;}
	.st28{fill:none;stroke:#7B5744;stroke-width:13.2334;stroke-linecap:round;stroke-miterlimit:10;}
	.st29{fill:#BD8A6D;}
	.st30{fill:#F2DEBA;}
	.st31{fill:#885441;}
	.st32{fill:none;stroke:#AF8A6D;stroke-width:4.0495;stroke-linecap:round;stroke-miterlimit:10;}
	.st33{fill:none;stroke:#EEDFBE;stroke-width:4.0495;stroke-linecap:round;stroke-miterlimit:10;}
	.st34{fill:none;stroke:#7B5744;stroke-width:4.0495;stroke-linecap:round;stroke-miterlimit:10;}
	.st35{fill:none;stroke:#A7C349;stroke-width:3;stroke-linecap:round;}
	.st36{fill:none;stroke:#BB474B;stroke-width:3;stroke-linecap:round;}
	.st37{enable-background:new    ;}
</style>
<g class="st37">
	<path class="st15" d="M5.1,19.9c-0.8,0-1.2-0.5-1.2-1.6v-2.2c0-0.1,0-0.1-0.1-0.1l-2.1,0.4c-1,0.2-1.6-0.1-1.8-0.9
		c-0.1-0.8,0.3-1.3,1.4-1.4l2.4-0.3c0.1,0,0.2-0.1,0.2-0.2v-2.1c0-0.1,0-0.1-0.1-0.1l-1.8,0.1c-0.5,0-0.8,0-1,0.1s-0.2,0-0.2,0
		C1,11.3,1,11.1,0.9,11c-0.6-1-0.8-1.5-0.7-1.6c0.1,0,0.4-0.6,0.8-1.6C1.3,7,1.6,6.1,1.9,5.1C1.9,5,1.9,5,1.8,5H1.6
		C0.5,5,0,4.6,0,3.8C0,3,0.5,2.7,1.6,2.7h0.7c0.1,0,0.2-0.1,0.2-0.2l0.1-0.5c0.2-1,0.7-1.5,1.4-1.3c0.8,0.2,1.1,0.7,0.9,1.8l0,0.2
		c0,0.1,0,0.1,0.1,0.1h1.5c1,0,1.6,0.4,1.6,1.2C8.1,4.6,7.5,5,6.5,5H4.4C4.3,5,4.2,5.1,4.1,5.2C3.7,6.5,3.3,7.7,2.8,9
		c0,0.1,0,0.1,0.1,0.1h1c0.1,0,0.1,0,0.1-0.1V7.7c0-1,0.4-1.6,1.2-1.6c0.8,0,1.1,0.5,1.1,1.6V9c0,0.1,0,0.1,0.1,0.1
		c1,0,1.5,0.4,1.5,1.1c0,0.8-0.5,1.1-1.5,1.1c-0.1,0-0.1,0-0.1,0.1v1.8c0,0.1,0,0.1,0.1,0.1c1-0.2,1.6,0.1,1.7,0.8
		c0.1,0.7-0.3,1.2-1.4,1.4l-0.3,0c-0.1,0-0.2,0.1-0.2,0.2v2.6C6.2,19.4,5.9,19.9,5.1,19.9z M9.3,19.5c-1,0-1.6-0.4-1.6-1.2
		s0.5-1.2,1.6-1.2h3c0.1,0,0.1,0,0.1-0.1v-3.7c0-0.1,0-0.1-0.1-0.1h-1.9c-1,0-1.6-0.4-1.6-1.1c0-0.8,0.5-1.1,1.6-1.1h6.4
		c1,0,1.6,0.4,1.6,1.1c0,0.8-0.5,1.1-1.6,1.1H15c-0.1,0-0.1,0-0.1,0.1v3.7c0,0.1,0,0.1,0.1,0.1h2.7c1,0,1.6,0.4,1.6,1.2
		s-0.5,1.2-1.6,1.2H9.3z M18.4,9.8c-0.5,0.7-0.9,0.9-1.3,0.6c-0.4-0.3-1.5-0.9-3.3-1.9c-0.2-0.1-0.3-0.1-0.5,0
		c-1.1,0.9-2.2,1.5-3.1,1.8c-1,0.4-1.6,0.2-1.9-0.6c-0.3-0.8,0-1.4,0.9-1.9c2.9-1.7,4.7-3,5.5-4.1c0-0.1,0-0.1,0-0.1h-4.3
		c-1,0-1.6-0.4-1.6-1.1s0.5-1.1,1.6-1.2l5.3-0.1c0.7,0,1.3,0.1,1.9,0.4c0.6,0.3,0.7,0.9,0.3,1.9c-0.3,0.7-1.1,1.8-2.4,3.1
		c0,0.1,0,0.1,0,0.1c1.6,0.8,2.6,1.3,3,1.6C18.9,8.6,18.9,9.1,18.4,9.8z"/>
	<path class="st15" d="M24.9,20c-0.8,0-1.2-0.5-1.2-1.6v-6.3c0-0.1,0-0.1,0,0c-0.6,1.8-1,2.9-1.2,3.2s-0.7,0.3-1.3-0.2
		c-0.6-0.5-0.7-1.1,0-2c0.2-0.3,0.6-1.1,1.2-2.5c0.5-1.2,0.9-2.5,1.2-3.8c0-0.1,0-0.1-0.1-0.1h-1.1c-1.1,0-1.6-0.4-1.6-1.2
		c0-0.8,0.5-1.2,1.6-1.2h1.2c0.1,0,0.1,0,0.1-0.1V1.9c0-1,0.4-1.6,1.2-1.6c0.8,0,1.2,0.5,1.2,1.6v2.5c0,0.1,0,0.1,0.1,0.1H27
		c1,0,1.6,0.4,1.6,1.2c0,0.8-0.5,1.2-1.6,1.2h-0.8c-0.1,0-0.1,0-0.1,0.1v0.1c0,0.3,0.1,0.7,0.3,0.9l2.2,3.1c0.6,0.9,0.6,1.5-0.1,2
		c-0.7,0.4-1.3,0.1-1.8-0.8l-0.6-1.2c0-0.1,0,0,0,0v7.3C26.2,19.5,25.8,20,24.9,20z M30.8,9.2c-0.6,0.8-1.3,1-2,0.4
		c-0.7-0.6-0.9-1-0.5-1.4c0.3-0.4,0.8-1.3,1.4-2.8c0.6-1.3,0.9-2.3,1-2.9c0.2-1,0.7-1.5,1.6-1.3c0.9,0.2,1.2,0.8,0.9,1.8
		c-0.2,0.7-0.6,1.8-1.2,3.4S31,8.9,30.8,9.2z M39,19.2c-0.8,0.2-1.3-0.1-1.6-0.9c0-0.1-0.1-0.1-0.2-0.1L31.9,19
		c-0.5,0.1-1,0.2-1.5,0.3c-0.8,0.2-1.4-0.1-1.7-0.9c-0.3-0.8-0.2-1.5,0.4-2.2l0.1-0.2c0.3-0.4,0.6-0.7,0.8-1.2
		c0.1-0.2,0.5-1.1,1.1-2.6c0.7-1.8,1.1-3,1.2-3.4c0.3-1,0.8-1.4,1.7-1.2C35,7.8,35.3,8.4,35,9.4c-0.6,2-1.6,4.3-3.1,7
		c0,0.1,0,0.1,0.1,0.1l4.5-0.4c0.1,0,0.1-0.1,0.1-0.1l-0.8-1.7c-0.4-1-0.3-1.6,0.4-1.9c0.7-0.3,1.3,0,1.7,0.9c1,2,1.7,3.4,1.9,4.2
		C40.1,18.4,39.8,19,39,19.2z M39.5,9.2c-0.7,0.6-1.4,0.5-2.1-0.4c-0.2-0.3-0.6-1.1-1.2-2.5c-0.6-1.4-1-2.5-1.2-3.5
		c-0.2-1,0.1-1.6,0.8-1.8c0.8-0.2,1.3,0.3,1.5,1.3c0.2,0.6,0.5,1.5,1,2.7c0.5,1.2,0.9,1.9,1.1,2.2C40.2,7.9,40.2,8.6,39.5,9.2z"/>
	<path class="st15" d="M47.2,19.6c-1.2,0-2.1-0.2-2.5-0.6c-0.5-0.4-0.7-1.2-0.7-2.4V9c0-0.1,0-0.1-0.1,0c-0.4,0.3-0.9,0.2-1.4-0.5
		c-0.5-0.7-0.3-1.3,0.6-1.9c0.3-0.2,0.9-0.9,2-2.2c1-1.3,1.6-2.1,1.8-2.6c0.4-1,1-1.3,1.7-1c0.7,0.3,1,0.7,0.8,1.1
		c0,0.1,0,0.2,0.1,0.3c2.1,2.2,3.3,3.5,3.5,3.8c0.5,0.8,0.4,1.6-0.3,2.3l-0.2,0.2c-0.2,0.2-0.3,0.5-0.4,0.8
		c-0.1,1.5-0.2,2.6-0.3,3.5s-0.2,1.3-0.4,1.5c-0.1,0.1-0.3,0.3-0.4,0.5c-0.2,0.2-0.3,0.3-0.4,0.3c-0.5,0.1-0.9,0.1-1.2,0.2
		s-0.5,0.1-0.6,0.1c-1,0-1.6-0.4-1.5-1.1c0-0.7,0.4-1,1.2-1c0.1,0,0.2,0,0.3,0s0.3-0.1,0.4-0.2c0.2-0.2,0.3-1.1,0.5-2.7
		c0-0.1,0-0.1-0.1-0.1h-3.1c-0.1,0-0.1,0-0.1,0.1v6.3c0,0.4,0.1,0.7,0.2,0.8c0.1,0.1,0.4,0.2,0.9,0.2h2.8c0.4,0,0.7-0.2,0.8-0.5
		c0.1-0.3,0.2-0.7,0.2-1.1c0-0.4,0.4-0.6,1.2-0.6c0.7,0.1,1.1,0.6,0.9,1.7c-0.1,0.7-0.3,1.3-0.7,1.8c-0.4,0.5-1.2,0.8-2.2,0.8H47.2z
		 M45,7.9C45,7.9,45,8,45,7.9L51.2,8c0.1,0,0.1,0,0-0.1c-0.8-1.1-1.8-2.4-3-3.8c0-0.1-0.1-0.1-0.1,0C47.2,5.5,46.2,6.7,45,7.9z
		 M55.2,14.6c-0.8,0-1.2-0.5-1.2-1.6V4.3c0-1,0.4-1.6,1.2-1.6c0.8,0,1.2,0.5,1.2,1.6v8.7C56.4,14.1,56,14.6,55.2,14.6z M56.2,19.9
		c-1,0-1.4-0.3-1.4-1.2c0-0.8,0.5-1.2,1.6-1.2h0.4c0.5,0,0.9,0,1,0c0.2,0,0.3-0.2,0.3-0.5V2.3c0-1,0.4-1.6,1.2-1.6
		c0.8,0,1.2,0.5,1.2,1.6V17c0,0.7-0.1,1.3-0.3,1.6c-0.2,0.4-0.5,0.6-0.9,0.8c-0.4,0.2-0.7,0.3-0.9,0.3c-0.5,0.1-1.1,0.1-1.6,0.1
		L56.2,19.9z"/>
	<path class="st15" d="M68.6,3.5c0.7-0.3,1.2-0.2,1.4,0.2c0.2,0.4,0.3,0.8,0.4,1.1c0,0.1,0.1,0.2,0.3,0.2h3.8c0.2,0,0.3-0.1,0.4-0.3
		l0-0.1c0.4-1,1-1.3,1.7-1c0.7,0.4,1,0.8,0.7,1.3c0,0.1,0,0.1,0.1,0.1h2.7c1,0,1.6,0.3,1.6,1c0,0.6-0.5,1-1.6,1h-15
		c-1,0-1.6-0.3-1.6-1c0-0.6,0.5-1,1.6-1h2.7c0.1,0,0.1,0,0.1-0.1C67.7,4.3,67.9,3.8,68.6,3.5z M65.9,18.6c-0.8,0.7-1.4,0.8-1.9,0.2
		c-0.5-0.6-0.4-1.2,0.5-1.9c0,0,0.2-0.3,0.4-0.8c0.4-1,1-1.3,1.7-1c0.7,0.3,0.8,0.9,0.4,1.9C66.6,17.8,66.2,18.3,65.9,18.6z
		 M66.2,3.5c-1.1,0-1.6-0.3-1.6-1c0-0.6,0.5-1,1.6-1h5.1c0.1,0,0.1,0,0.1-0.1c-0.2-0.5,0.1-0.9,0.8-1.2c0.7-0.3,1.2-0.4,1.3-0.1
		c0.2,0.3,0.3,0.7,0.5,1.1c0.1,0.2,0.2,0.2,0.3,0.2H79c1.1,0,1.6,0.3,1.6,1c0,0.6-0.5,1-1.6,1H66.2z M74.4,16.2
		c-0.5,0.5-0.9,0.6-1.3,0.3c-0.4-0.4-0.8-0.6-1.1-0.8c-1.1-0.5-1.3-1-0.8-1.5c0.1,0,0-0.1,0-0.1h-3.7c-1,0-1.6-0.5-1.6-1.6V9.2
		c0-1,0.5-1.6,1.6-1.6h10.4c1,0,1.6,0.5,1.6,1.6v3.3c0,1.1-0.5,1.6-1.6,1.6h-4.7c-0.1,0-0.1,0,0,0c0.9,0.5,1.5,0.8,1.7,1
		C75,15.3,74.9,15.6,74.4,16.2z M71.4,19.8c-1.3,0-2.2-0.2-2.6-0.5s-0.7-1-0.7-2v-0.6c0-1,0.4-1.6,1.2-1.6s1.2,0.5,1.2,1.6
		c0,0.7,0.1,1,0.2,1.1c0.1,0.1,0.4,0.1,0.9,0.1h2.9c0.4,0,0.6-0.1,0.8-0.3c0.1-0.2,0.2-0.4,0.2-0.7c0-0.3,0.4-0.4,1.1-0.3
		c0.7,0.1,1,0.6,0.9,1.7c0,0.3-0.2,0.6-0.6,1c-0.4,0.4-1.1,0.6-2.1,0.6H71.4z M68.3,10c0,0.1,0,0.1,0.1,0.1h8.5c0.1,0,0.1,0,0.1-0.1
		V9.3c0-0.1,0-0.1-0.1-0.1h-8.5c-0.1,0-0.1,0-0.1,0.1V10z M68.3,12.4c0,0.1,0,0.1,0.1,0.1h8.5c0.1,0,0.1,0,0.1-0.1v-0.7
		c0-0.1,0-0.1-0.1-0.1h-8.5c-0.1,0-0.1,0-0.1,0.1V12.4z M80.8,18.6c-0.7,0.3-1.1,0.3-1.2,0.1s-0.4-0.7-0.8-1.4
		c-0.4-0.7-0.7-1.1-0.9-1.4c-0.2-0.2,0-0.6,0.5-1c0.5-0.5,1.1-0.3,1.8,0.5c0.7,0.8,1.1,1.2,1.1,1.3C81.7,17.7,81.6,18.4,80.8,18.6z"
		/>
	<path class="st15" d="M85.7,20.6c-1,0.3-1.6,0.2-1.8-0.4c-0.2-0.6,0.2-1,1.2-1.4c0.6-0.2,1-0.8,1.1-1.9c0-0.1,0-0.1-0.1-0.1
		c-0.1,0-0.3,0-0.5,0c-0.3,0-0.6-0.2-1-0.5C84.2,16,84,15.5,84,15c0-0.6,0.2-1,0.6-1.4c0.4-0.3,0.9-0.5,1.5-0.5
		c0.7,0,1.3,0.3,1.7,0.8c0.4,0.5,0.6,1.2,0.6,2.1c0,1.2-0.4,2.3-1.1,3.2C86.5,20,86,20.5,85.7,20.6z"/>
	<path class="st15" d="M97.2,20.1c-0.2,0.1-0.5-0.2-0.9-0.8c-0.4-0.6-0.2-1.3,0.6-1.9c0.1-0.1,0.1-0.5,0.1-1.4V3.9
		c0-1,0.5-1.6,1.6-1.6h4.3c0.1,0,0.1,0,0.1-0.1c-0.3-0.9,0-1.5,0.8-1.8c0.8-0.3,1.3-0.3,1.5,0.2c0.2,0.4,0.4,0.9,0.5,1.5
		c0,0.1,0.1,0.2,0.3,0.2h3.5c1,0,1.6,0.5,1.6,1.6v6.4c0,1-0.5,1.6-1.6,1.6h-4.6c-0.1,0-0.1,0,0,0.1c0.5,0.9,1.2,1.7,2.1,2.4
		c0.1,0.1,0.3,0.1,0.4,0c1.3-0.8,2.1-1.3,2.2-1.5c0.8-0.7,1.4-0.8,2-0.1c0.6,0.7,0.7,1.1,0.4,1.4c-0.3,0.2-1.2,0.8-2.7,1.7
		c-0.1,0-0.1,0.1,0,0.1c1.3,0.7,2.1,1.1,2.4,1.1c1,0.2,1.5,0.7,1.3,1.5c-0.2,0.8-0.8,1.1-1.8,0.9c-1.7-0.4-3.4-1.3-5.1-2.6
		c-1.6-1.3-2.9-2.8-3.8-4.7c-0.1-0.2-0.2-0.3-0.4-0.3h-2.1c-0.1,0-0.1,0-0.1,0.1v4.9c0,0.1,0,0.1,0.1,0.1l2.9-0.7
		c1-0.2,1.6,0,1.8,0.8c0.2,0.8-0.2,1.3-1.3,1.5l-3.8,0.9c-0.5,0.1-1,0.2-1.5,0.4C97.6,19.9,97.4,20,97.2,20.1z M99.6,5.9
		c0,0.1,0,0.1,0.1,0.1h8.7c0.1,0,0.1,0,0.1-0.1V4.6c0-0.1,0-0.1-0.1-0.1h-8.7c-0.1,0-0.1,0-0.1,0.1V5.9z M99.6,9.6
		c0,0.1,0,0.1,0.1,0.1h8.7c0.1,0,0.1,0,0.1-0.1V8.1c0-0.1,0-0.1-0.1-0.1h-8.7c-0.1,0-0.1,0-0.1,0.1V9.6z"/>
	<path class="st15" d="M117.7,19.2c-0.9,0.5-1.6,0.4-2-0.3c-0.4-0.7-0.1-1.3,0.8-1.8c0.5-0.2,1.2-1.1,2.1-2.6c0.1-0.1,0-0.2,0-0.3
		c-1.1-1-1.8-1.6-2-1.7c-0.8-0.6-1-1.3-0.7-2.2c0.2-0.5,0.4-1.7,0.8-3.5c0-0.1,0-0.1-0.1-0.1c-0.9,0-1.4-0.4-1.4-1.2
		c0-0.8,0.5-1.1,1.6-1.1h0.2c0.1,0,0.2-0.1,0.2-0.2c0.2-1.3,0.3-2.1,0.4-2.4c0.1-1.1,0.6-1.5,1.4-1.4c0.8,0.1,1.1,0.7,1,1.7
		l-0.3,2.1c0,0.1,0,0.1,0.1,0.1l1.7,0c0.6,0,1.2,0,1.7,0.1c0.5,0.1,0.7,0.7,0.6,1.7c-0.2,2.7-0.8,5.1-1.8,7.3
		c-0.1,0.1,0,0.3,0.1,0.4c0.9,0.8,1.4,1.2,1.4,1.3c0.6,0.9,0.6,1.5-0.1,2c-0.7,0.5-1.1,0.7-1.3,0.5s-0.6-0.7-1.4-1.5
		c-0.1-0.1-0.1-0.1-0.1,0C119.5,17.7,118.6,18.7,117.7,19.2z M119.9,12.2c0.1,0,0.1,0,0.1,0c0.7-1.6,1.1-3.3,1.3-5.2
		c0-0.1,0-0.1-0.1-0.1h-1.8c-0.1,0-0.2,0.1-0.2,0.2c-0.2,1.2-0.5,2.4-0.8,3.6c0,0.2,0,0.3,0.1,0.4L119.9,12.2z M127,20
		c-1,0-1.6-0.4-1.6-1.2c0-0.8,0.5-1.2,1.6-1.2h0.6c0.2,0,0.3,0,0.4-0.1c0.1-0.1,0.1-0.2,0.1-0.3v-5.8c0-0.1,0-0.1-0.1-0.1h-2.8
		c-1,0-1.6-0.4-1.6-1.2c0-0.8,0.5-1.2,1.6-1.2h2.8c0.1,0,0.1,0,0.1-0.1V8.2c0-0.8,0.3-1.5,0.9-2c0.2-0.2,0.8-0.9,1.6-2.2
		c0-0.1,0-0.1,0-0.1h-4.5c-1,0-1.6-0.4-1.6-1.1s0.5-1.1,1.6-1.2l6.3-0.2c0.8,0,1.4,0.2,1.8,0.6c0.3,0.4,0.3,1.1-0.3,1.8
		c-0.7,1-1.6,2.1-2.8,3.3c-0.2,0.2-0.3,0.4-0.3,0.7v1c0,0.1,0,0.1,0.1,0.1h2.5c1,0,1.6,0.4,1.6,1.2c0,0.8-0.5,1.2-1.6,1.2h-2.5
		c-0.1,0-0.1,0-0.1,0.1v5.8c0,0.7-0.1,1.2-0.3,1.5s-0.4,0.6-0.6,0.7c-0.2,0.1-0.6,0.3-1.1,0.5C128.6,20,128,20,127,20z"/>
	<path class="st15" d="M140.2,18.6c-0.6,0.6-1.1,0.6-1.6-0.1c-0.5-0.6-0.6-1.1-0.2-1.3c0.4-0.3,0.6-0.8,0.6-1.7V9.3
		c0-0.1,0-0.1-0.1-0.1h-0.8c-1.1,0-1.6-0.4-1.6-1.2c0-0.8,0.5-1.2,1.6-1.2h1.8c1,0,1.6,0.5,1.6,1.6v6.3c0,0.1,0,0.1,0.1,0l0.3-0.3
		c0.8-0.7,1.4-0.7,1.9-0.2c0.5,0.6,0.3,1.2-0.5,1.8l-2.3,1.9C140.4,18.4,140.2,18.6,140.2,18.6z M141.9,4.7
		c-0.6,0.5-1.1,0.5-1.4,0.1c-0.3-0.4-0.8-0.9-1.5-1.5c-0.8-0.7-0.9-1.3-0.5-1.9c0.5-0.6,1.1-0.5,1.9,0.2c0.9,0.8,1.5,1.4,1.9,1.8
		C142.7,3.7,142.5,4.2,141.9,4.7z M149,14.7c0.1,0.1,0.2,0.1,0.3,0c0.9-0.8,1.7-1.7,2.3-2.8c0-0.1,0-0.1-0.1-0.1h-6.3
		c-1,0-1.6-0.4-1.6-1.2c0-0.8,0.5-1.2,1.6-1.2l7.1-0.1c0.7,0,1.3,0.1,1.8,0.3c0.5,0.2,0.6,0.8,0.3,1.8c-0.4,1.5-1.5,3.1-3.1,4.6
		c-0.1,0-0.1,0.1,0,0.1c1.3,0.7,2.2,1.1,2.7,1.2c1,0.2,1.5,0.7,1.3,1.5c-0.2,0.8-0.8,1.1-1.8,0.9c-1.4-0.3-2.8-1-4.1-1.9
		c-0.2-0.1-0.3-0.1-0.5,0c-1.4,0.9-2.8,1.5-4.3,1.8c-1,0.2-1.6,0-1.8-0.8c-0.2-0.8,0.3-1.3,1.3-1.4c0.7-0.1,1.7-0.5,3-1.3
		c0.1,0,0.1-0.1,0-0.1c-1.1-1.2-1.8-2-2.1-2.4c-0.5-0.9-0.4-1.6,0.3-1.9s1.2,0,1.7,0.9C147.3,13.2,148,13.9,149,14.7z M145.2,8.7
		c-1,0.4-1.6,0.3-1.9-0.4c-0.3-0.7-0.2-1.2,0.2-1.4s0.8-0.5,1-0.8c0.3-0.4,0.5-0.9,0.8-1.3c0.1-0.1,0.1-0.6,0.1-1.5V2.6
		c0-1,0.5-1.6,1.6-1.6h4.4c1,0,1.6,0.5,1.6,1.6l0,3c0,0.4,0,0.7,0,0.8c0,0.1,0.1,0.1,0.1,0.1s0.4,0,0.9,0c0.8,0,1.4,0.3,1.6,0.9
		c0.2,0.6-0.1,1-1.1,1.1l-0.6,0.1c-0.6,0.1-1.1,0.1-1.7,0.1c-0.4,0-0.7,0-0.7-0.1c-0.3-0.4-0.6-0.7-0.7-0.9c-0.2-0.2-0.2-0.9-0.2-2
		V3.5c0-0.1,0-0.1-0.1-0.1l-2.6,0c-0.1,0-0.1,0-0.1,0.1C147.8,6.2,146.9,7.9,145.2,8.7z"/>
	<path class="st15" d="M160.9,19.5c0,0,0-0.1-0.1-0.2l-0.4-0.5c-0.8-0.8-0.9-1.3-0.5-1.6s0.6-0.8,0.6-1.6V9.4c0-0.1,0-0.1-0.1-0.1
		H159c-1,0-1.6-0.4-1.6-1.2s0.5-1.2,1.6-1.2h2.5c1,0,1.6,0.5,1.6,1.6v6.4c0,0.1,0,0.1,0.1,0l0.5-0.3c0.9-0.6,1.5-0.6,2,0.1
		c0.4,0.6,0.3,1.3-0.6,1.9l-3.2,2.3C161.2,19.3,160.9,19.5,160.9,19.5z M163.3,4.6c-0.6,0.5-1.1,0.6-1.4,0.2s-0.8-0.9-1.6-1.5
		c-0.8-0.7-1-1.3-0.5-1.9c0.5-0.6,1.1-0.5,1.9,0.1c1.1,0.8,1.8,1.4,2.1,1.8C164.1,3.6,164,4.1,163.3,4.6z M170.7,20
		c-0.9,0-1.3-0.5-1.3-1.6V9.7c0-0.1,0-0.1-0.1-0.1h-3.4c-1,0-1.6-0.4-1.6-1.3s0.5-1.3,1.6-1.3h3.4c0.1,0,0.1,0,0.1-0.1V2
		c0-1,0.4-1.6,1.3-1.6c0.9,0,1.3,0.5,1.3,1.6v4.8c0,0.1,0,0.1,0.1,0.1h3.2c1,0,1.6,0.4,1.6,1.3s-0.5,1.3-1.6,1.3h-3.2
		c-0.1,0-0.1,0-0.1,0.1v8.8C172,19.5,171.6,20,170.7,20z"/>
	<path class="st15" d="M181.9,19.8c-0.9,0-1.7-0.3-2.4-1s-1-1.5-1-2.4c0-0.9,0.3-1.7,1-2.4c0.7-0.7,1.5-1,2.4-1c0.9,0,1.7,0.3,2.4,1
		c0.7,0.7,1,1.5,1,2.4c0,0.9-0.3,1.7-1,2.4C183.6,19.4,182.8,19.8,181.9,19.8z M181.9,18.2c0.5,0,1-0.2,1.3-0.6
		c0.4-0.4,0.5-0.8,0.5-1.3c0-0.5-0.2-1-0.5-1.3c-0.4-0.4-0.8-0.5-1.3-0.5c-0.5,0-1,0.2-1.3,0.6c-0.4,0.4-0.6,0.8-0.6,1.3
		c0,0.5,0.2,1,0.6,1.3C180.9,18.1,181.4,18.2,181.9,18.2z"/>
	<path class="st15" d="M196.3,18.4c-1,0-1.9-0.2-2.8-0.5c-0.9-0.3-1.6-0.9-2.3-1.5c-0.6-0.7-1.2-1.5-1.5-2.5s-0.6-2.2-0.6-3.4
		c0-1.2,0.2-2.4,0.6-3.4s0.9-1.9,1.6-2.6s1.4-1.2,2.3-1.6s1.8-0.6,2.8-0.6c1.3,0,2.5,0.4,3.6,1.2c0.3,0.2,0.5,0.5,0.5,0.9
		c0,0.3-0.1,0.6-0.3,0.8l-0.1,0.1c-0.2,0.2-0.5,0.4-0.8,0.4c0,0-0.1,0-0.1,0c-0.3,0-0.5-0.1-0.8-0.2c-0.6-0.4-1.2-0.6-1.9-0.6
		c-1.2,0-2.2,0.5-3,1.4c-0.8,1-1.2,2.3-1.2,3.9c0,1.7,0.4,3,1.1,4c0.7,1,1.7,1.4,3,1.4c0.8,0,1.6-0.2,2.3-0.7
		c0.2-0.2,0.5-0.2,0.8-0.2c0,0,0.1,0,0.1,0c0.3,0,0.6,0.1,0.8,0.4l0.1,0.1c0.2,0.2,0.3,0.5,0.3,0.9c0,0.4-0.1,0.7-0.4,0.9
		C199.3,18,197.9,18.4,196.3,18.4z"/>
	<path class="st15" d="M210.6,18c-0.7,0.3-1.4,0.4-2.1,0.4s-1.5-0.1-2.1-0.4c-0.7-0.3-1.3-0.7-1.8-1.2c-0.5-0.5-0.9-1.2-1.3-1.9
		c-0.3-0.8-0.5-1.7-0.5-2.6s0.2-1.8,0.5-2.6s0.7-1.4,1.3-2s1.1-0.9,1.8-1.2c0.7-0.3,1.4-0.4,2.1-0.4s1.5,0.1,2.1,0.4
		c0.7,0.3,1.3,0.7,1.8,1.2s0.9,1.2,1.3,2s0.5,1.7,0.5,2.6s-0.2,1.8-0.5,2.6c-0.3,0.8-0.7,1.4-1.3,1.9
		C211.9,17.3,211.3,17.7,210.6,18z M206.6,14.9c0.4,0.6,1,1,1.8,1s1.4-0.3,1.8-1s0.7-1.5,0.7-2.7s-0.2-2-0.7-2.7s-1-1-1.8-1
		s-1.4,0.3-1.8,1s-0.7,1.6-0.7,2.7S206.2,14.3,206.6,14.9z"/>
	<path class="st15" d="M217.9,18.2c-0.3,0-0.6-0.1-0.9-0.4c-0.2-0.2-0.3-0.5-0.3-0.9V7.6c0-0.3,0.1-0.6,0.3-0.9s0.5-0.3,0.9-0.3h0.1
		c0.3,0,0.6,0.1,0.9,0.3c0.3,0.2,0.4,0.5,0.5,0.9l0,0.3c0,0,0,0,0,0s0.1,0,0.1,0c1.2-1.2,2.5-1.8,3.8-1.8c2.4,0,3.7,1.6,3.7,4.7v6.1
		c0,0.3-0.1,0.6-0.4,0.9c-0.2,0.2-0.5,0.4-0.9,0.4h-0.7c-0.3,0-0.6-0.1-0.9-0.4c-0.2-0.2-0.4-0.5-0.4-0.9v-5.7
		c0-0.9-0.1-1.5-0.4-1.9c-0.3-0.4-0.7-0.6-1.3-0.6c-0.4,0-0.8,0.1-1.2,0.3s-0.7,0.5-1.2,0.9c-0.1,0.1-0.1,0.2-0.1,0.2v6.7
		c0,0.3-0.1,0.6-0.3,0.9c-0.2,0.2-0.5,0.4-0.9,0.4H217.9z"/>
	<path class="st15" d="M235.1,18.4c-1.7,0-3.1-0.5-4.1-1.7s-1.6-2.6-1.6-4.5c0-1.3,0.3-2.4,0.8-3.3s1.3-1.7,2.2-2.2s1.9-0.7,3-0.7
		c0.9,0,1.7,0.2,2.4,0.6c0.3,0.2,0.5,0.4,0.5,0.8c0,0.1,0,0.1,0,0.2c0,0.3-0.1,0.5-0.2,0.7l0,0c-0.2,0.3-0.4,0.4-0.8,0.5
		c-0.1,0-0.2,0-0.3,0c-0.2,0-0.5,0-0.7-0.1c-0.2-0.1-0.5-0.1-0.8-0.1c-0.9,0-1.6,0.3-2.2,1s-0.8,1.6-0.8,2.7c0,1.1,0.3,2,0.8,2.6
		c0.5,0.7,1.2,1,2.1,1c0.4,0,0.9-0.1,1.3-0.3c0.2-0.1,0.4-0.1,0.6-0.1c0.1,0,0.2,0,0.3,0c0.3,0.1,0.5,0.2,0.7,0.5
		c0.1,0.2,0.2,0.4,0.2,0.7c0,0.1,0,0.2,0,0.3c-0.1,0.3-0.2,0.6-0.5,0.8C237.1,18.2,236.2,18.4,235.1,18.4z"/>
	<path class="st15" d="M245.7,18.4c-1.7,0-3.1-0.6-4.2-1.7s-1.7-2.6-1.7-4.5c0-0.9,0.2-1.8,0.5-2.6s0.7-1.4,1.2-2s1.1-0.9,1.8-1.2
		s1.3-0.4,2-0.4c1.6,0,2.8,0.5,3.6,1.6s1.3,2.4,1.3,4.1c0,0.1,0,0.1,0,0.2c0,0.3-0.2,0.6-0.4,0.9c-0.3,0.2-0.6,0.3-0.9,0.3H243
		c-0.1,0-0.2,0.1-0.1,0.2c0.1,0.9,0.5,1.6,1.1,2.1s1.3,0.7,2.2,0.7c0.6,0,1.1-0.1,1.7-0.3c0.2-0.1,0.3-0.1,0.5-0.1
		c0.1,0,0.2,0,0.3,0c0.3,0.1,0.5,0.3,0.7,0.5c0.1,0.2,0.1,0.4,0.1,0.6s0,0.4-0.1,0.5c-0.1,0.2-0.2,0.3-0.4,0.4
		C247.8,18.2,246.8,18.4,245.7,18.4z M242.8,11c0,0.1,0,0.1,0.1,0.1h4.5c0.1,0,0.2,0,0.2-0.1c0-0.8-0.2-1.4-0.6-1.8
		c-0.4-0.4-0.9-0.6-1.6-0.6c-0.6,0-1.2,0.2-1.6,0.6C243.1,9.7,242.8,10.3,242.8,11z"/>
	<path class="st15" d="M255.4,18.4c-1,0-1.9-0.3-2.5-1s-1-1.5-1-2.5c0-1.2,0.5-2.2,1.6-2.9c1.1-0.7,2.7-1.2,5-1.4
		c0.1,0,0.1-0.1,0.1-0.2c-0.1-1.3-0.8-1.9-2-1.9c-0.7,0-1.4,0.2-2.2,0.6c-0.2,0.1-0.4,0.1-0.5,0.1c-0.1,0-0.2,0-0.4-0.1
		c-0.3-0.1-0.5-0.3-0.7-0.5c-0.1-0.2-0.2-0.4-0.2-0.6c0-0.1,0-0.2,0.1-0.3c0.1-0.3,0.3-0.5,0.6-0.7c1.3-0.7,2.6-1,3.9-1
		c1.5,0,2.6,0.4,3.4,1.3c0.8,0.9,1.1,2.2,1.1,3.9v5.7c0,0.3-0.1,0.6-0.3,0.9c-0.2,0.2-0.5,0.4-0.9,0.4h-0.2c-0.3,0-0.6-0.1-0.9-0.3
		c-0.3-0.2-0.4-0.5-0.5-0.8l0-0.1c0,0,0,0-0.1,0s0,0-0.1,0C257.8,17.9,256.6,18.4,255.4,18.4z M256.4,16c0.7,0,1.4-0.4,2.2-1.1
		c0.1-0.1,0.1-0.2,0.1-0.2v-2.1c0-0.1,0-0.1-0.1-0.1c0,0,0,0,0,0c-1.3,0.2-2.2,0.4-2.8,0.8c-0.6,0.4-0.9,0.8-0.9,1.4
		c0,0.5,0.1,0.8,0.4,1S256,16,256.4,16z"/>
	<path class="st15" d="M267.9,18.4c-1,0-1.8-0.3-2.2-0.9S265,16,265,14.9V2.6c0-0.3,0.1-0.6,0.3-0.9s0.5-0.3,0.9-0.3h0.6
		c0.3,0,0.6,0.1,0.9,0.3s0.3,0.5,0.3,0.9V15c0,0.4,0.1,0.7,0.4,0.9c0,0,0.1,0,0.2,0.1c0.1,0.1,0.2,0.1,0.2,0.1s0.1,0.1,0.2,0.1
		s0.1,0.1,0.2,0.2c0,0.1,0,0.1,0.1,0.2l0.1,0.5c0,0.1,0,0.2,0,0.2c0,0.2-0.1,0.5-0.2,0.7c-0.2,0.3-0.4,0.4-0.8,0.5
		C268.2,18.4,268,18.4,267.9,18.4z"/>
	<path class="st15" d="M276.7,18.4c-1.7,0-3.1-0.6-4.2-1.7s-1.7-2.6-1.7-4.5c0-0.9,0.2-1.8,0.5-2.6s0.7-1.4,1.2-2s1.1-0.9,1.8-1.2
		s1.3-0.4,2-0.4c1.6,0,2.8,0.5,3.6,1.6s1.3,2.4,1.3,4.1c0,0.1,0,0.1,0,0.2c0,0.3-0.2,0.6-0.4,0.9c-0.3,0.2-0.6,0.3-0.9,0.3H274
		c-0.1,0-0.2,0.1-0.1,0.2c0.1,0.9,0.5,1.6,1.1,2.1s1.3,0.7,2.2,0.7c0.6,0,1.1-0.1,1.7-0.3c0.2-0.1,0.3-0.1,0.5-0.1
		c0.1,0,0.2,0,0.3,0c0.3,0.1,0.5,0.3,0.7,0.5c0.1,0.2,0.1,0.4,0.1,0.6s0,0.4-0.1,0.5c-0.1,0.2-0.2,0.3-0.4,0.4
		C278.8,18.2,277.7,18.4,276.7,18.4z M273.8,11c0,0.1,0,0.1,0.1,0.1h4.5c0.1,0,0.2,0,0.2-0.1c0-0.8-0.2-1.4-0.6-1.8
		c-0.4-0.4-0.9-0.6-1.6-0.6c-0.6,0-1.2,0.2-1.6,0.6C274.1,9.7,273.8,10.3,273.8,11z"/>
	<path class="st15" d="M287.9,18.4c-1.5,0-2.6-0.5-3.5-1.6s-1.3-2.6-1.3-4.5c0-1.8,0.5-3.3,1.5-4.5s2.1-1.7,3.5-1.7
		c0.6,0,1.1,0.1,1.5,0.3c0.4,0.2,0.9,0.5,1.3,0.9c0,0,0,0,0.1,0s0,0,0-0.1l-0.1-1.7V2.6c0-0.3,0.1-0.6,0.4-0.9s0.5-0.3,0.9-0.3h0.7
		c0.3,0,0.6,0.1,0.9,0.3s0.4,0.5,0.4,0.9v14.3c0,0.3-0.1,0.6-0.4,0.9c-0.2,0.2-0.5,0.4-0.9,0.4h-0.2c-0.3,0-0.6-0.1-0.9-0.3
		s-0.4-0.5-0.5-0.8l0-0.1c0,0,0,0-0.1,0s0,0-0.1,0C290.1,18,289,18.4,287.9,18.4z M288.7,15.9c0.8,0,1.5-0.4,2.1-1.1
		c0.1-0.1,0.1-0.2,0.1-0.3V9.7c0-0.1,0-0.2-0.1-0.3c-0.6-0.5-1.3-0.8-2.1-0.8c-0.7,0-1.3,0.3-1.7,1s-0.7,1.5-0.7,2.6
		c0,1.2,0.2,2.1,0.6,2.7S287.9,15.9,288.7,15.9z"/>
	<path class="st15" d="M306.9,18.4c-1.7,0-3.3-0.5-4.7-1.5c-0.3-0.2-0.4-0.5-0.5-0.8c0,0,0-0.1,0-0.1c0-0.3,0.1-0.6,0.3-0.8l0.2-0.3
		c0.2-0.3,0.5-0.4,0.8-0.4c0,0,0.1,0,0.1,0c0.3,0,0.5,0.1,0.8,0.2c1,0.7,2,1,3,1c0.8,0,1.4-0.2,1.8-0.5s0.6-0.8,0.6-1.3
		c0-0.5-0.2-0.9-0.5-1.1c-0.3-0.3-0.9-0.5-1.7-0.9c-0.1,0-0.1,0-0.1-0.1L305,11c-0.9-0.4-1.7-0.9-2.2-1.6c-0.6-0.7-0.9-1.5-0.9-2.6
		c0-1.3,0.5-2.4,1.5-3.2c1-0.9,2.3-1.3,3.9-1.3c1.4,0,2.8,0.4,3.9,1.2c0.3,0.2,0.4,0.5,0.5,0.8c0,0,0,0.1,0,0.1
		c0,0.3-0.1,0.6-0.3,0.8l0,0.1c-0.2,0.3-0.5,0.4-0.8,0.5c-0.1,0-0.1,0-0.2,0c-0.3,0-0.5-0.1-0.7-0.2c-0.7-0.4-1.5-0.6-2.3-0.6
		c-0.7,0-1.2,0.1-1.6,0.4S305,6.1,305,6.6c0,0.3,0.1,0.5,0.2,0.7s0.3,0.4,0.5,0.5c0.3,0.2,0.5,0.3,0.7,0.4s0.5,0.2,0.9,0.4
		c0.1,0,0.1,0,0.1,0.1l2,0.9c1,0.4,1.8,1,2.3,1.6c0.5,0.7,0.8,1.5,0.8,2.6c0,1.3-0.5,2.4-1.5,3.3S308.6,18.4,306.9,18.4z"/>
	<path class="st15" d="M319.4,18.4c-2.6,0-3.9-1.5-3.9-4.4V9c0-0.1,0-0.2-0.1-0.2H315c-0.3,0-0.6-0.1-0.8-0.3s-0.3-0.5-0.3-0.8
		c0-0.3,0.1-0.6,0.3-0.9c0.2-0.2,0.5-0.4,0.8-0.4l0.5,0c0.1,0,0.2-0.1,0.2-0.2l0.2-1.8c0-0.3,0.2-0.6,0.5-0.9s0.6-0.3,0.9-0.3h0.2
		c0.3,0,0.6,0.1,0.9,0.4c0.2,0.2,0.4,0.5,0.4,0.9v1.8c0,0.1,0,0.2,0.1,0.2h1.5c0.3,0,0.6,0.1,0.9,0.3s0.3,0.5,0.3,0.9
		s-0.1,0.6-0.3,0.9s-0.5,0.3-0.9,0.3h-1.5c-0.1,0-0.1,0.1-0.1,0.2v5c0,1.3,0.5,2,1.6,2c0,0,0,0,0,0s0,0,0,0c0.3,0,0.6,0.1,0.9,0.2
		c0.3,0.2,0.4,0.4,0.5,0.7c0,0.1,0,0.2,0,0.3c0,0.2-0.1,0.4-0.2,0.6c-0.2,0.3-0.4,0.5-0.7,0.5C320.3,18.4,319.9,18.4,319.4,18.4z"/>
	<path class="st15" d="M327.4,18.4c-2.4,0-3.6-1.6-3.6-4.7V7.6c0-0.3,0.1-0.6,0.3-0.9s0.5-0.3,0.9-0.3h0.7c0.3,0,0.6,0.1,0.9,0.3
		s0.3,0.5,0.3,0.9v5.7c0,0.9,0.1,1.5,0.4,1.9s0.7,0.6,1.3,0.6c0.5,0,0.9-0.1,1.2-0.3s0.7-0.6,1.1-1c0.1-0.1,0.1-0.2,0.1-0.3V7.6
		c0-0.3,0.1-0.6,0.3-0.9s0.5-0.3,0.9-0.3h0.7c0.3,0,0.6,0.1,0.9,0.3s0.3,0.5,0.3,0.9v9.3c0,0.3-0.1,0.6-0.3,0.9
		c-0.2,0.2-0.5,0.4-0.9,0.4h-0.1c-0.4,0-0.7-0.1-0.9-0.3c-0.3-0.2-0.4-0.5-0.5-0.9l-0.1-0.5c0,0,0,0-0.1,0s0,0-0.1,0
		C330,17.8,328.8,18.4,327.4,18.4z"/>
	<path class="st15" d="M341.4,18.4c-1.5,0-2.6-0.5-3.5-1.6c-0.9-1.1-1.3-2.6-1.3-4.5c0-1.8,0.5-3.3,1.5-4.5c1-1.1,2.1-1.7,3.5-1.7
		c0.6,0,1.1,0.1,1.5,0.3c0.4,0.2,0.9,0.5,1.3,0.9c0,0,0,0,0.1,0s0,0,0-0.1l-0.1-1.7V2.6c0-0.3,0.1-0.6,0.4-0.9
		c0.2-0.2,0.5-0.3,0.9-0.3h0.7c0.3,0,0.6,0.1,0.9,0.3c0.2,0.2,0.4,0.5,0.4,0.9v14.3c0,0.3-0.1,0.6-0.4,0.9c-0.2,0.2-0.5,0.4-0.9,0.4
		h-0.2c-0.3,0-0.6-0.1-0.9-0.3s-0.4-0.5-0.5-0.8l0-0.1c0,0,0,0-0.1,0c0,0,0,0-0.1,0C343.6,18,342.6,18.4,341.4,18.4z M342.2,15.9
		c0.8,0,1.5-0.4,2.1-1.1c0.1-0.1,0.1-0.2,0.1-0.3V9.7c0-0.1,0-0.2-0.1-0.3c-0.6-0.5-1.3-0.8-2.1-0.8c-0.7,0-1.3,0.3-1.7,1
		s-0.7,1.5-0.7,2.6c0,1.2,0.2,2.1,0.6,2.7C340.8,15.6,341.4,15.9,342.2,15.9z"/>
	<path class="st15" d="M352.4,4.5c-0.5,0-1-0.2-1.3-0.5c-0.3-0.3-0.5-0.7-0.5-1.2s0.2-0.9,0.5-1.2c0.3-0.3,0.8-0.5,1.3-0.5
		c0.5,0,1,0.2,1.3,0.5c0.3,0.3,0.5,0.7,0.5,1.2S354,3.7,353.7,4C353.3,4.3,352.9,4.5,352.4,4.5z M352,18.2c-0.3,0-0.6-0.1-0.9-0.4
		c-0.2-0.2-0.3-0.5-0.3-0.9V7.6c0-0.3,0.1-0.6,0.3-0.9s0.5-0.3,0.9-0.3h0.6c0.3,0,0.6,0.1,0.9,0.3s0.3,0.5,0.3,0.9v9.3
		c0,0.3-0.1,0.6-0.3,0.9c-0.2,0.2-0.5,0.4-0.9,0.4H352z"/>
	<path class="st15" d="M364.2,18c-0.7,0.3-1.4,0.4-2.1,0.4s-1.5-0.1-2.1-0.4c-0.7-0.3-1.3-0.7-1.8-1.2c-0.5-0.5-0.9-1.2-1.3-1.9
		c-0.3-0.8-0.5-1.7-0.5-2.6s0.2-1.8,0.5-2.6s0.7-1.4,1.3-2s1.1-0.9,1.8-1.2c0.7-0.3,1.4-0.4,2.1-0.4s1.5,0.1,2.1,0.4
		c0.7,0.3,1.3,0.7,1.8,1.2s0.9,1.2,1.3,2s0.5,1.7,0.5,2.6s-0.2,1.8-0.5,2.6c-0.3,0.8-0.7,1.4-1.3,1.9
		C365.5,17.3,364.9,17.7,364.2,18z M360.3,14.9c0.4,0.6,1,1,1.8,1s1.4-0.3,1.8-1s0.7-1.5,0.7-2.7s-0.2-2-0.7-2.7s-1-1-1.8-1
		s-1.4,0.3-1.8,1s-0.7,1.6-0.7,2.7S359.8,14.3,360.3,14.9z"/>
	<path class="st15" d="M390.2,17.8c-0.4,0.4-0.9,0.6-1.6,0.6s-1.1-0.2-1.6-0.6s-0.6-0.9-0.6-1.5c0-0.6,0.2-1.1,0.6-1.5
		s0.9-0.6,1.5-0.6s1.1,0.2,1.5,0.6c0.4,0.4,0.6,0.9,0.6,1.5C390.9,16.9,390.7,17.4,390.2,17.8z M389.5,12.5
		c-0.2,0.2-0.5,0.3-0.8,0.3c-0.3,0-0.6-0.1-0.8-0.3c-0.2-0.2-0.4-0.5-0.4-0.8l-0.6-6.1l-0.1-1.9c0-0.3,0.1-0.6,0.3-0.9
		s0.5-0.4,0.8-0.4h1.4c0.3,0,0.6,0.1,0.8,0.4s0.3,0.5,0.3,0.9l-0.1,1.9l-0.6,6.1C389.9,12,389.7,12.3,389.5,12.5z"/>
	<path class="st15" d="M411,11.6c-0.3,0.8-0.8,1.2-1.4,1.2h-0.3c-0.4,0-0.7-0.1-0.9-0.4c-0.2-0.2-0.3-0.4-0.3-0.6c0-0.1,0-0.2,0-0.2
		c0.1-0.4,0.3-0.8,0.6-1.2c0.3-0.4,0.7-0.7,1-1s0.7-0.6,1.1-0.8c0.3-0.3,0.6-0.6,0.9-0.9c0.2-0.3,0.3-0.6,0.3-1
		c0-0.6-0.2-1.1-0.7-1.5c-0.5-0.3-1.1-0.5-1.9-0.5c-0.9,0-1.8,0.3-2.5,0.8c-0.3,0.2-0.6,0.3-0.9,0.3c0,0,0,0,0,0
		c-0.3,0-0.6-0.1-0.8-0.3c-0.3-0.2-0.4-0.5-0.4-0.9c0-0.3,0.1-0.6,0.3-0.8c1.3-1.1,2.9-1.7,4.6-1.7c1.6,0,2.9,0.4,3.8,1.1
		c1,0.7,1.4,1.8,1.4,3.1c0,0.5-0.1,0.9-0.3,1.3c-0.2,0.4-0.5,0.8-0.9,1.1s-0.7,0.6-1.1,0.9s-0.7,0.6-1.1,0.9S411.1,11.2,411,11.6z
		 M407.9,17.8c-0.4-0.4-0.6-0.9-0.6-1.5c0-0.6,0.2-1.1,0.6-1.5c0.4-0.4,0.9-0.6,1.6-0.6c0.6,0,1.2,0.2,1.6,0.6
		c0.4,0.4,0.6,0.9,0.6,1.5c0,0.6-0.2,1.1-0.6,1.5c-0.4,0.4-0.9,0.6-1.6,0.6C408.8,18.3,408.3,18.1,407.9,17.8z"/>
</g>
</svg>
