<?xml version="1.0" encoding="utf-8"?>
<!-- Generator: Adobe Illustrator 24.3.0, SVG Export Plug-In . SVG Version: 6.00 Build 0)  -->
<svg version="1.1" id="图层_1" xmlns="http://www.w3.org/2000/svg" xmlns:xlink="http://www.w3.org/1999/xlink" x="0px" y="0px"
	 viewBox="0 0 396.9 22.2" style="enable-background:new 0 0 396.9 22.2;" xml:space="preserve">
<style type="text/css">
	.st0{fill:none;stroke:#AF8A6D;stroke-width:7.0866;stroke-miterlimit:10;}
	.st1{fill:none;stroke:#7B5744;stroke-width:5.6693;stroke-miterlimit:10;}
	.st2{fill:none;stroke:#EEDFBE;stroke-width:8.5039;stroke-miterlimit:10;}
	.st3{fill:none;}
	.st4{fill:#BB474B;}
	.st5{fill:#A7C349;}
	.st6{fill:#E0EDF2;stroke:#E0EDF2;stroke-width:0.2835;stroke-miterlimit:10;}
	.st7{fill:#E0EDF2;stroke:#E0EDF2;stroke-width:0.1417;stroke-miterlimit:10;}
	.st8{fill:#E0EDF2;stroke:#E0EDF2;stroke-width:0.4252;stroke-miterlimit:10;}
	.st9{fill:#E0EDF2;stroke:#E0EDF2;stroke-width:0.5669;stroke-miterlimit:10;}
	.st10{fill:#E0EDF2;stroke:#E0EDF2;stroke-width:0.7087;stroke-miterlimit:10;}
	.st11{fill:#E0EDF2;}
	.st12{fill:#7C5543;stroke:#7B5744;stroke-miterlimit:10;}
	.st13{fill:#ECDDBB;stroke:#EEDFBE;stroke-miterlimit:10;}
	.st14{fill:#AF896D;stroke:#AF8A6D;stroke-miterlimit:10;}
	.st15{fill:#7B5744;}
	.st16{fill:#EEDFBE;}
	.st17{fill:#AF8A6D;}
	.st18{clip-path:url(#SVGID_2_);}
	.st19{fill:none;stroke:#AF8A6D;stroke-width:28.346;stroke-linecap:round;stroke-miterlimit:10;}
	.st20{fill:none;stroke:#7B5744;stroke-width:28.346;stroke-linecap:round;stroke-miterlimit:10;}
	.st21{fill:none;stroke:#EEDFBE;stroke-width:28.346;stroke-linecap:round;stroke-miterlimit:10;}
	.st22{clip-path:url(#SVGID_4_);fill:#010000;}
	.st23{fill:#010000;}
	.st24{fill:none;stroke:#EEDFBE;stroke-width:6;stroke-linecap:round;stroke-linejoin:round;}
	.st25{fill:none;stroke:#AF8A6D;stroke-width:13.1913;stroke-linecap:round;stroke-miterlimit:10;}
	.st26{fill:none;stroke:#EEDFBE;stroke-width:13.1913;stroke-linecap:round;stroke-miterlimit:10;}
	.st27{fill:none;stroke:#7B5744;stroke-width:13.1913;stroke-linecap:round;stroke-miterlimit:10;}
	.st28{fill:none;stroke:#7B5744;stroke-width:13.2334;stroke-linecap:round;stroke-miterlimit:10;}
	.st29{fill:#BD8A6D;}
	.st30{fill:#F2DEBA;}
	.st31{fill:#885441;}
	.st32{fill:none;stroke:#AF8A6D;stroke-width:4.0495;stroke-linecap:round;stroke-miterlimit:10;}
	.st33{fill:none;stroke:#EEDFBE;stroke-width:4.0495;stroke-linecap:round;stroke-miterlimit:10;}
	.st34{fill:none;stroke:#7B5744;stroke-width:4.0495;stroke-linecap:round;stroke-miterlimit:10;}
	.st35{fill:none;stroke:#A7C349;stroke-width:3;stroke-linecap:round;}
	.st36{fill:none;stroke:#BB474B;stroke-width:3;stroke-linecap:round;}
	.st37{enable-background:new    ;}
</style>
<g id="组_3518" transform="translate(0 -2298)">
	<g>
		<defs>
			<rect id="SVGID_1_" x="533.2" y="-685" width="1920" height="4106"/>
		</defs>
		<clipPath id="SVGID_2_">
			<use xlink:href="#SVGID_1_"  style="overflow:visible;"/>
		</clipPath>
		<g id="组_3517" class="st18">
			<g id="组_3516">
				<g id="组_3110">
					<g id="组_3109">
						<g id="组_3108">
							<path id="路径_3419" class="st19" d="M477.8,2282.2l-62.1,61.1c-9.2,9-12.7,22.3-9.3,34.7l13.3,47.7"/>
						</g>
					</g>
				</g>
			</g>
		</g>
	</g>
</g>
<g class="st37">
	<path class="st15" d="M8.7,13.2c-0.7,0.3-1.6,0.7-2.6,1.2V19c0,0.1-0.5,0.5-1.3,0.5H4.5V15c-0.8,0.3-1.7,0.7-2.7,1.1
		c-0.1,0.3-0.3,0.4-0.5,0.5l-1.1-2.1c0.9-0.1,2.4-0.4,4.3-0.8v-3.5H2.4L1.7,11L0,9.7c0.2-0.1,0.6-0.3,0.9-0.4c0.5-1.2,1-2.9,1.5-4.5
		H0.3L0.1,4.1h2.5c0.4-1.5,0.8-2.9,1-3.9l2.2,0.7C5.7,1.2,5.5,1.4,5,1.3C4.8,2.1,4.5,3.1,4.2,4.1h2.2l1-1.2c0,0,1.1,0.8,1.8,1.4
		C9.1,4.6,8.9,4.7,8.6,4.7H4C3.5,6.4,2.9,8.2,2.4,9.6h2.2V5.9l2.2,0.3C6.7,6.4,6.6,6.6,6.1,6.7v2.9h0.4l0.9-1.1c0,0,1,0.8,1.6,1.4
		c-0.1,0.2-0.3,0.3-0.5,0.3H6.1v3.2c0.8-0.1,1.7-0.3,2.5-0.5L8.7,13.2z M18.1,16.6c0,0,1.2,0.9,1.9,1.6c0,0.2-0.2,0.3-0.5,0.3H8.1
		L8,18h5.1v-5.5H9.3l-0.2-0.6H16l1-1.3c0,0,1.2,0.9,1.9,1.6c-0.1,0.2-0.3,0.3-0.5,0.3h-3.6V18H17L18.1,16.6z M9.3,2.7L9.1,2.1h6.6
		l1.1-1l1.8,1.6c-0.2,0.2-0.4,0.3-0.9,0.3c-0.7,1.2-1.6,2.4-2.6,3.5c5.9,1.7,5.3,5,3.4,4.3c-0.8-1.2-2.5-2.7-3.9-3.8
		c-1.7,1.7-3.7,3.3-6,4.4L8.3,11c2.9-2.1,5.8-5.4,7.3-8.3H9.3z"/>
	<path class="st15" d="M26.4,8.4c4.5,1.9,3.1,4.9,1.6,3.7c-0.2-0.9-0.9-2.1-1.6-3.1V19c0,0.2-0.7,0.6-1.3,0.6h-0.4V10
		c-0.9,1.8-2,3.5-3.5,5l-0.3-0.3c1.7-2.5,2.8-5.7,3.3-8.9h-2.8l-0.2-0.6h3.3v-5l2.4,0.3C27.2,0.8,27,1,26.4,1.1v4.1h0.8l1-1.4
		c0,0,1.2,1,1.8,1.7c-0.1,0.2-0.3,0.3-0.5,0.3h-3V8.4z M29,10c1.3-2.2,2.3-5.5,2.7-8.8l2.5,0.6c-0.1,0.3-0.3,0.4-0.8,0.5
		c-0.8,3.3-2.2,6.1-4.1,8L29,10z M36.1,12.5c6,4,4.7,8.3,2.8,6.7c-0.1-0.7-0.4-1.4-0.7-2.2c-1.9,0.5-4.6,1.1-7.7,1.8
		c-0.1,0.3-0.3,0.5-0.5,0.5L29,17.1c0,0,0.5-0.1,0.7-0.3c1.4-1.9,3.4-6.4,4-8.8l2.5,1.1c-0.1,0.2-0.3,0.4-0.7,0.4
		c-1.1,2.3-3.1,5.6-5,7.7c1.7-0.1,4.6-0.4,7.6-0.6c-0.6-1.4-1.5-2.8-2.2-3.9L36.1,12.5z M37.6,0.9c-0.2,0.3-0.5,0.6-0.8,0.9
		c0.8,2.8,2.3,5.4,4.3,6.6L41,8.7c-0.5,0.3-1,0.9-1.2,1.5c-2.3-2.1-3.3-5.2-3.9-9.8l0.2-0.1L37.6,0.9z"/>
	<path class="st15" d="M53.1,16.9c0.5,0.2,0.7,0.4,0.7,0.7c0,0.7-0.8,1-4.5,1h-2.5c-1.9,0-2.4-0.4-2.4-1.7V7.3
		C43.8,8,43,8.7,42.2,9.2L42,9c2.5-2.4,4.5-6.1,5.4-8.8l2.3,1c-0.1,0.2-0.3,0.3-0.8,0.3c6.3,2.5,5.3,6.4,3.4,5.2
		c-0.5-1.5-2.2-3.4-3.6-4.7c-0.9,1.5-2.1,3.3-3.6,4.8l1.2,0.5h3.8L51,6.4l1.7,1.4c-0.1,0.2-0.4,0.3-0.8,0.3c0,3.6-0.1,5-0.8,5.6
		c-0.4,0.4-1.1,0.6-1.8,0.5c0-0.4-0.1-0.8-0.3-1c-0.3-0.2-0.8-0.4-1.4-0.5l0-0.3c0.6,0,1.6,0.1,1.9,0.1c0.3,0,0.4,0,0.5-0.2
		c0.3-0.3,0.3-1.7,0.3-4.5h-4.3v8.8c0,0.4,0.1,0.5,1,0.5h2.3c1,0,1.8,0,2.1,0c0.3,0,0.4-0.1,0.5-0.3c0.2-0.4,0.5-1.7,0.8-3.1h0.3
		L53.1,16.9z M56.4,14.2c0,0.2-0.7,0.5-1.3,0.5h-0.3V2.8l2.3,0.3c0,0.3-0.2,0.5-0.7,0.5V14.2z M61.4,0.5C61.3,0.8,61.1,1,60.6,1
		v16.3c0,1.3-0.3,2-2.4,2.2c0-0.5-0.1-0.9-0.5-1.2c-0.3-0.3-0.8-0.5-1.8-0.6v-0.3c0,0,2.1,0.1,2.5,0.1c0.4,0,0.5-0.1,0.5-0.4v-17
		L61.4,0.5z"/>
	<path class="st15" d="M66.6,14.2c0.5,2.3-0.5,3.8-1.4,4.3c-0.6,0.4-1.3,0.4-1.6-0.2c-0.2-0.5,0.1-0.9,0.6-1.2c0.9-0.4,1.9-1.6,2-3
		L66.6,14.2z M80.6,4.4c0,0,1.3,0.9,2,1.6c-0.1,0.2-0.3,0.3-0.5,0.3H63.8l-0.1-0.6h11.1c0.4-0.8,0.8-2,1.1-2.9H65.3l-0.2-0.6h7.7
		c-0.4-0.8-1.2-1.6-2-2.1L71,0c3.1,0,3.6,1.6,3,2.2h4.1l1.1-1.3c0,0,1.3,0.9,2,1.6c-0.1,0.2-0.3,0.3-0.5,0.3h-4.5l2.2,0.7
		c-0.1,0.3-0.4,0.4-0.8,0.4c-0.5,0.5-1.3,1.2-2.1,1.8h4.1L80.6,4.4z M68.5,13.4c0,0.1-0.7,0.5-1.4,0.5h-0.2v-7l1.8,0.7h8.7l0.9-0.9
		l1.9,1.4c-0.1,0.2-0.5,0.3-0.9,0.4v4.7c0,0.1-0.8,0.5-1.4,0.5h-0.3v-0.7h-9V13.4z M68.5,8.3V10h9V8.3H68.5z M77.5,12.4v-1.8h-9v1.8
		H77.5z M78,17.4c0.5,0.2,0.7,0.4,0.7,0.7c0,0.7-0.8,1-4.8,1h-2.9c-2,0-2.4-0.3-2.4-1.4v-3.5l2.2,0.2c0,0.3-0.2,0.5-0.6,0.5v2.5
		c0,0.3,0.1,0.4,1,0.4h2.8c1.2,0,2.2,0,2.5,0c0.3,0,0.4-0.1,0.5-0.3c0.2-0.3,0.4-1.1,0.7-2.2h0.3L78,17.4z M68.8,2.9
		c4,0.8,2.5,3.6,1,2.5c-0.1-0.8-0.7-1.8-1.2-2.4L68.8,2.9z M72,13.5c4.4,1,3.2,4.1,1.8,3.1c-0.2-1-1.1-2.2-1.9-2.9L72,13.5z
		 M78.7,14.1c5,1.6,3.8,5.1,2.2,3.9c-0.2-1.3-1.4-2.8-2.4-3.7L78.7,14.1z"/>
	<path class="st15" d="M84.6,21.6c1.6-0.9,2.2-2.1,2.3-3.1c-0.9-0.3-2-0.7-2-1.9c0-0.8,0.5-1.4,1.5-1.4c1,0,1.7,0.8,1.7,2.1
		c0,1.7-0.8,3.8-3.1,4.8L84.6,21.6z"/>
	<path class="st15" d="M113.1,12.4c-0.1,0.2-0.4,0.3-0.8,0.1c-1.3,0.7-3.3,1.6-5.2,2.2c1.9,1.5,4.4,2.4,7.2,3l0,0.2
		c-0.7,0.1-1.3,0.7-1.5,1.5c-4.7-1.4-7.7-3.8-9.1-8.7h-3.5v6.4c1.4-0.4,3.3-0.9,5.2-1.5l0.1,0.3c-1.4,0.7-3.8,2-6.5,3.2
		c-0.1,0.2-0.3,0.3-0.4,0.4l-0.8-1.8c0.7-0.3,0.8-0.5,0.8-1V2.2l2,0.9h8.4l0.9-1l1.9,1.5c-0.1,0.2-0.5,0.3-0.9,0.4v7
		c0,0.1-0.8,0.5-1.4,0.5h-0.3v-0.8h-5c0.6,1.5,1.5,2.7,2.6,3.7c1.6-1,3.5-2.6,4.5-3.5L113.1,12.4z M109.1,6.6V3.7h-8.9v2.9H109.1z
		 M100.2,10.2h8.9v-3h-8.9V10.2z M103,0.1c4.2,0.9,2.7,3.8,1.2,2.7c-0.2-0.8-0.8-1.9-1.4-2.6L103,0.1z"/>
	<path class="st15" d="M124.7,5.6c-0.1,0.2-0.4,0.3-0.8,0.3c-0.3,2.8-0.9,5.5-2.1,7.9c3.9,2.6,2.6,4.5,1.3,3.7
		c-0.5-0.8-1.2-1.6-2.1-2.4c-1.2,1.7-2.8,3.2-5.1,4.3l-0.2-0.3c2-1.3,3.4-3,4.4-4.9c-1.1-1-2.4-1.8-3.4-2.5c0.5-1.4,1.2-3.8,1.8-6.2
		H116l-0.2-0.6h2.7c0.5-1.9,0.9-3.8,1-5l2.4,0.5c-0.1,0.3-0.2,0.5-0.8,0.5c-0.2,1-0.6,2.4-1,4h1.9l0.9-0.9L124.7,5.6z M120,5.7
		c-0.6,2.2-1.3,4.5-1.9,6.3c1,0.4,1.8,0.8,2.5,1.2c0.9-2.3,1.4-4.8,1.6-7.5H120z M133.6,8.1c0,0,1.2,0.9,1.9,1.6
		c-0.1,0.2-0.2,0.3-0.5,0.3h-4.9v7.2c0,1.3-0.3,2.1-2.5,2.3c-0.1-0.5-0.2-0.9-0.5-1.2c-0.3-0.3-0.9-0.5-1.8-0.6v-0.3
		c0,0,2.2,0.2,2.6,0.2c0.4,0,0.5-0.1,0.5-0.4v-7.1h-4.6l-0.2-0.6h4.7V6l1.1,0.1c0.8-1,1.7-2.3,2.3-3.3h-7.6l-0.2-0.6h7.9l1-1
		l1.8,1.7C134.7,3,134.4,3,134,3c-1,0.9-2.5,2.2-3.9,3.1l0.7,0.1c-0.1,0.3-0.3,0.5-0.8,0.6v2.6h2.5L133.6,8.1z"/>
	<path class="st15" d="M144.6,13.6c-0.8,0.8-2.4,2.4-4.1,4.1c-0.1,0.4-0.4,0.7-0.6,0.8l-1.2-2c0.7-0.4,0.8-0.5,0.8-1V6.5h-2.5
		l-0.2-0.6h2.7l0.8-0.8l1.6,1.3c-0.1,0.1-0.4,0.3-0.8,0.4v8.6c1-0.6,2.1-1.3,3.3-2L144.6,13.6z M138.2,0.3c5.4,1.5,4.4,5,2.6,4
		c-0.5-1.3-1.8-2.9-2.8-3.9L138.2,0.3z M154.9,10.2c-0.2,0.2-0.4,0.3-0.9,0.3c-0.9,2-2.1,3.7-3.8,5.1c1.8,1,4,1.7,6.4,2.1l0,0.3
		c-0.8,0.1-1.3,0.7-1.6,1.5c-2.4-0.7-4.5-1.6-6-2.9c-2,1.3-4.4,2.4-7.4,3l-0.1-0.3c2.7-0.8,4.9-2,6.7-3.5c-1.4-1.4-2.4-3.2-3-5.6
		h-1.3l-0.2-0.6h8.5l1.1-1L154.9,10.2z M147.1,3.3c0,1.9-0.5,4.6-4.5,6.2l-0.2-0.3c2.6-1.7,3-4,3-5.9V0.8l1.9,0.8h3.4l0.9-0.9
		l1.7,1.4c-0.1,0.1-0.4,0.3-0.8,0.3v4.1c0,0.3,0,0.3,0.4,0.3h0.8c0.3,0,0.7,0,0.8,0h0.4c0.1,0,0.3-0.1,0.4-0.1h0.2l0.1,0
		c0.5,0.2,0.6,0.3,0.6,0.7c0,0.7-0.6,1-2.7,1h-1.2c-1.3,0-1.5-0.4-1.5-1.4V2.2h-3.9V3.3z M145.5,10.2c0.8,2,2,3.5,3.6,4.7
		c1.3-1.4,2.4-2.9,3-4.7H145.5z"/>
	<path class="st15" d="M166.5,14c-0.9,0.8-2.5,2.2-4.5,3.8c-0.1,0.3-0.4,0.6-0.6,0.7l-1.2-2c0.7-0.4,0.8-0.5,0.8-0.9v-9h-3.1
		l-0.2-0.6h3.3l0.8-0.8l1.6,1.3c-0.1,0.1-0.3,0.3-0.8,0.4v8.7c1.1-0.5,2.3-1.2,3.6-1.8L166.5,14z M160.1,0.3
		c5.4,1.6,4.3,5.2,2.6,4.1c-0.4-1.3-1.7-3-2.8-4L160.1,0.3z M175.4,6.4c0,0,1.3,1,2,1.7c-0.1,0.2-0.3,0.3-0.6,0.3h-5.3v10.5
		c0,0.2-0.7,0.7-1.4,0.7h-0.3V8.4h-5.2l-0.2-0.6h5.4V0.3l2.5,0.3c-0.1,0.3-0.2,0.5-0.8,0.6v6.7h2.7L175.4,6.4z"/>
	<path class="st15" d="M178.7,16.6c0-1.6,1.3-2.9,3-2.9s2.9,1.3,2.9,2.9c0,1.6-1.3,3-2.9,3S178.7,18.3,178.7,16.6z M179.4,16.6
		c0,1.2,1,2.2,2.2,2.2c1.2,0,2.2-1,2.2-2.2c0-1.2-1-2.2-2.2-2.2C180.5,14.4,179.4,15.4,179.4,16.6z"/>
	<path class="st15" d="M202.1,13.7l0,3.4c-1.4,0.8-3,1.1-4.6,1.1c-4.6,0-7.8-3.3-7.8-8c0-4.7,3.3-8,7.8-8c1.3,0,2.9,0.3,4.4,1.1
		l0,3.4h-1.3l-0.6-2.9c-0.8-0.4-1.6-0.6-2.4-0.6c-3.2,0-5.7,2.5-5.7,7c0,4.6,2.3,7,5.6,7c0.9,0,1.8-0.1,2.6-0.6l0.6-2.9H202.1z"/>
	<path class="st15" d="M204.1,12.4c0-3.8,2.6-5.8,5.3-5.8c2.7,0,5.3,2,5.3,5.8c0,3.8-2.6,5.7-5.3,5.7
		C206.7,18.2,204.1,16.2,204.1,12.4z M212.6,12.4c0-3.2-1.2-4.9-3.2-4.9c-2,0-3.2,1.7-3.2,4.9c0,3.2,1.2,4.8,3.2,4.8
		C211.4,17.3,212.6,15.6,212.6,12.4z"/>
	<path class="st15" d="M229,17.2v0.7h-5.3v-0.7l1.7-0.3c0-1.2,0-2.8,0-3.9v-2.1c0-2.1-0.6-2.8-1.9-2.8c-1,0-2,0.4-3.2,1.5V13
		c0,1.1,0,2.7,0,3.9l1.6,0.3v0.7h-5.3v-0.7l1.7-0.3c0-1.2,0-2.8,0-3.9v-1.2c0-1.3,0-2.1-0.1-3l-1.8-0.2V7.9l3.2-1.3l0.3,0.2l0.2,1.9
		c1.2-1.3,2.7-2.1,4.1-2.1c2,0,2.9,1.2,2.9,4.2V13c0,1.1,0,2.7,0,3.9L229,17.2z"/>
	<path class="st15" d="M240.1,15.3c-0.7,1.8-2.1,2.8-4.3,2.8c-3.1,0-5.2-2.2-5.2-5.7c0-3.6,2.6-5.8,5.4-5.8c2,0,3.7,1.2,4,2.9
		c-0.1,0.6-0.5,0.8-1,0.8c-0.7,0-1.1-0.4-1.2-1.1l-0.4-1.6c-0.4-0.1-0.9-0.2-1.2-0.2c-2.1,0-3.5,1.7-3.5,4.7c0,3,1.6,4.6,3.8,4.6
		c1.3,0,2.5-0.7,3.2-1.7L240.1,15.3z"/>
	<path class="st15" d="M243.9,12.3c0,3,1.6,4.6,3.8,4.6c1.5,0,2.4-0.7,3.2-1.7l0.5,0.3c-0.8,1.6-2.3,2.6-4.3,2.6
		c-3.1,0-5.2-2.1-5.2-5.7c0-3.5,2.4-5.8,5.3-5.8c2.5,0,4.3,1.7,4.3,4.4c0,0.5-0.1,1-0.2,1.3L243.9,12.3z M248.4,11.5
		c1,0,1.2-0.5,1.2-1.3c0-1.4-1-2.7-2.5-2.7c-1.4,0-2.9,1.2-3.1,3.9L248.4,11.5z"/>
	<path class="st15" d="M264,16.9c-0.5,0.9-1.2,1.2-2,1.2c-1.1,0-1.9-0.7-2.1-1.8c-1.3,1.2-2.1,1.8-3.4,1.8c-1.7,0-3-1-3-2.8
		c0-1.4,0.8-2.4,3.8-3.5c0.7-0.3,1.7-0.5,2.6-0.8v-0.7c0-2.3-0.7-2.9-2.2-2.9c-0.4,0-0.8,0.1-1.3,0.2l-0.4,1.6
		c-0.2,0.7-0.6,1.1-1.2,1.1c-0.6,0-1-0.3-1-0.9c0.4-1.8,2.1-2.8,4.5-2.8c2.4,0,3.6,1.1,3.6,3.9v5c0,1.1,0.3,1.5,0.8,1.5
		c0.4,0,0.6-0.2,0.9-0.6L264,16.9z M259.9,11.8c-0.8,0.2-1.6,0.5-2.1,0.7c-2,0.8-2.4,1.7-2.4,2.5c0,1.2,0.8,1.8,1.9,1.8
		c0.8,0,1.3-0.3,2.6-1.3V11.8z"/>
	<path class="st15" d="M270.4,17.2v0.7h-5.6v-0.7l1.8-0.3c0-1.3,0-2.6,0-3.9V2.7l-1.9-0.2V1.8l3.5-1l0.3,0.2l-0.1,3.3V13
		c0,1.3,0,2.6,0,3.9L270.4,17.2z"/>
	<path class="st15" d="M274.1,12.3c0,3,1.6,4.6,3.8,4.6c1.5,0,2.4-0.7,3.2-1.7l0.5,0.3c-0.8,1.6-2.3,2.6-4.3,2.6
		c-3.1,0-5.2-2.1-5.2-5.7c0-3.5,2.4-5.8,5.3-5.8c2.5,0,4.3,1.7,4.3,4.4c0,0.5-0.1,1-0.2,1.3L274.1,12.3z M278.5,11.5
		c1,0,1.2-0.5,1.2-1.3c0-1.4-1-2.7-2.5-2.7c-1.4,0-2.9,1.2-3.1,3.9L278.5,11.5z"/>
	<path class="st15" d="M295.4,17.2v0.7l-3.6,0.2l-0.1-1.6c-0.8,1-1.8,1.6-3.2,1.6c-2.8,0-4.7-2.3-4.7-5.6c0-3.6,2.1-5.9,4.9-5.9
		c1.1,0,2.1,0.4,3,1.5V2.7l-1.9-0.2V1.8l3.5-1l0.3,0.2l-0.1,3.3v12.6L295.4,17.2z M291.6,9c-1-0.9-1.8-1.2-2.6-1.2
		c-1.8,0-3.3,1.3-3.3,4.6c0,3.2,1.4,4.5,3.3,4.5c1,0,1.7-0.3,2.6-1.3V9z"/>
	<path class="st15" d="M307.8,9.2c3.1,1.2,4.2,2.5,4.2,4.7c0,2.7-2.2,4.4-5.4,4.4c-1.7,0-3.4-0.5-4.5-1.2l0.1-3.2h1.2l0.6,2.9
		c0.7,0.4,1.4,0.6,2.4,0.6c2.2,0,3.7-1,3.7-2.9c0-1.5-0.8-2.2-2.9-3l-0.9-0.4c-2.4-1-4-2.3-4-4.6c0-2.7,2.2-4.2,5.1-4.2
		c1.6,0,2.8,0.5,3.8,1.2l-0.1,3H310l-0.6-2.8c-0.6-0.3-1.2-0.5-1.9-0.5c-1.8,0-3.2,0.9-3.2,2.7c0,1.5,0.9,2.4,2.6,3L307.8,9.2z"/>
	<path class="st15" d="M320.2,17c-0.6,0.7-1.5,1.2-2.7,1.2c-1.6,0-2.6-0.8-2.6-2.7c0-0.5,0-1,0-1.9V8h-2V7.2l2.1-0.3l0.6-3.1h1.3
		L316.9,7h3.1v1h-3.1v7.4c0,1.2,0.5,1.7,1.3,1.7c0.5,0,1-0.2,1.6-0.7L320.2,17z"/>
	<path class="st15" d="M333,17.2v0.7l-3.2,0.2l-0.2-2.1c-1.2,1.4-2.6,2.2-4.1,2.2c-1.9,0-3-1.1-3-4.2l0.1-5.9l-1.7-0.3V7.1l3.4-0.3
		l0.2,0.2l-0.1,3.3v3.6c0,2.1,0.7,2.8,1.9,2.8c1.1,0,2.2-0.5,3.2-1.5l0.1-7L328,7.9V7.2l3.3-0.4l0.2,0.2l-0.1,3.3v6.6L333,17.2z"/>
	<path class="st15" d="M346.3,17.2v0.7l-3.6,0.2l-0.1-1.6c-0.8,1-1.8,1.6-3.2,1.6c-2.8,0-4.7-2.3-4.7-5.6c0-3.6,2.1-5.9,4.9-5.9
		c1.1,0,2.1,0.4,3,1.5V2.7l-1.9-0.2V1.8l3.5-1l0.3,0.2l-0.1,3.3v12.6L346.3,17.2z M342.6,9c-1-0.9-1.8-1.2-2.6-1.2
		c-1.8,0-3.3,1.3-3.3,4.6c0,3.2,1.4,4.5,3.3,4.5c1,0,1.7-0.3,2.6-1.3V9z"/>
	<path class="st15" d="M352.8,17.2v0.7h-5.3v-0.7l1.8-0.3c0-1.2,0-2.8,0-3.9v-1.2c0-1.3,0-2-0.1-3l-1.9-0.2V7.9l3.5-1.2l0.3,0.2
		l0,3.1V13c0,1.1,0,2.7,0,3.9L352.8,17.2z M348.8,2.6c0-0.8,0.7-1.4,1.5-1.4c0.8,0,1.5,0.6,1.5,1.4c0,0.8-0.7,1.4-1.5,1.4
		C349.4,4,348.8,3.4,348.8,2.6z"/>
	<path class="st15" d="M354.7,12.4c0-3.8,2.6-5.8,5.3-5.8c2.7,0,5.3,2,5.3,5.8c0,3.8-2.6,5.7-5.3,5.7
		C357.2,18.2,354.7,16.2,354.7,12.4z M363.1,12.4c0-3.2-1.2-4.9-3.2-4.9c-2,0-3.2,1.7-3.2,4.9c0,3.2,1.2,4.8,3.2,4.8
		C361.9,17.3,363.1,15.6,363.1,12.4z"/>
	<path class="st15" d="M380.8,16.5c0-0.8,0.6-1.4,1.4-1.4c0.8,0,1.4,0.6,1.4,1.4c0,0.8-0.6,1.4-1.4,1.4
		C381.4,17.9,380.8,17.3,380.8,16.5z M383.6,3.1c0,1.1-0.2,3-0.6,6.8l-0.3,3.2h-0.8l-0.3-3.2C381.1,6,381,4.2,381,3.1
		c0-1.1,0.5-1.6,1.3-1.6S383.6,2,383.6,3.1z"/>
	<path class="st15" d="M390.7,4.6c-0.2,0.7-0.6,1.1-1.2,1.1c-0.4,0-0.8-0.2-1-0.6c0.4-2.3,2.2-3.4,4.3-3.4c2.5,0,4.1,1.3,4.1,3.5
		c0,1.6-0.6,2.8-2.6,4.3c-1.3,1-1.7,1.4-1.7,2.2v1.2h-0.8c-0.1-0.8-0.3-1.3-0.3-1.9c0-0.8,0.4-1.4,1.8-2.6c1.2-1.1,1.6-2,1.6-3.2
		c0-1.6-0.9-2.6-2.6-2.6c-0.4,0-0.8,0-1.2,0.1L390.7,4.6z M393.7,16.5c0,0.8-0.6,1.4-1.4,1.4c-0.9,0-1.5-0.7-1.5-1.4
		c0-0.8,0.6-1.5,1.5-1.5C393.1,15.1,393.7,15.7,393.7,16.5z"/>
</g>
</svg>
