<?xml version="1.0" encoding="utf-8"?>
<!-- Generator: Adobe Illustrator 24.3.0, SVG Export Plug-In . SVG Version: 6.00 Build 0)  -->
<svg version="1.1" id="图层_1" xmlns="http://www.w3.org/2000/svg" xmlns:xlink="http://www.w3.org/1999/xlink" x="0px" y="0px"
	 viewBox="0 0 406 19.8" style="enable-background:new 0 0 406 19.8;" xml:space="preserve">
<style type="text/css">
	.st0{fill:none;stroke:#AF8A6D;stroke-width:7.0866;stroke-miterlimit:10;}
	.st1{fill:none;stroke:#7B5744;stroke-width:5.6693;stroke-miterlimit:10;}
	.st2{fill:none;stroke:#EEDFBE;stroke-width:8.5039;stroke-miterlimit:10;}
	.st3{fill:none;}
	.st4{fill:#BB474B;}
	.st5{fill:#A7C349;}
	.st6{fill:#E0EDF2;stroke:#E0EDF2;stroke-width:0.2835;stroke-miterlimit:10;}
	.st7{fill:#E0EDF2;stroke:#E0EDF2;stroke-width:0.1417;stroke-miterlimit:10;}
	.st8{fill:#E0EDF2;stroke:#E0EDF2;stroke-width:0.4252;stroke-miterlimit:10;}
	.st9{fill:#E0EDF2;stroke:#E0EDF2;stroke-width:0.5669;stroke-miterlimit:10;}
	.st10{fill:#E0EDF2;stroke:#E0EDF2;stroke-width:0.7087;stroke-miterlimit:10;}
	.st11{fill:#E0EDF2;}
	.st12{fill:#7C5543;stroke:#7B5744;stroke-miterlimit:10;}
	.st13{fill:#ECDDBB;stroke:#EEDFBE;stroke-miterlimit:10;}
	.st14{fill:#AF896D;stroke:#AF8A6D;stroke-miterlimit:10;}
	.st15{fill:#7B5744;}
	.st16{fill:#EEDFBE;}
	.st17{fill:#AF8A6D;}
	.st18{clip-path:url(#SVGID_2_);}
	.st19{fill:none;stroke:#AF8A6D;stroke-width:28.346;stroke-linecap:round;stroke-miterlimit:10;}
	.st20{fill:none;stroke:#7B5744;stroke-width:28.346;stroke-linecap:round;stroke-miterlimit:10;}
	.st21{fill:none;stroke:#EEDFBE;stroke-width:28.346;stroke-linecap:round;stroke-miterlimit:10;}
	.st22{clip-path:url(#SVGID_4_);fill:#010000;}
	.st23{fill:#010000;}
	.st24{fill:none;stroke:#EEDFBE;stroke-width:6;stroke-linecap:round;stroke-linejoin:round;}
	.st25{fill:none;stroke:#AF8A6D;stroke-width:13.1913;stroke-linecap:round;stroke-miterlimit:10;}
	.st26{fill:none;stroke:#EEDFBE;stroke-width:13.1913;stroke-linecap:round;stroke-miterlimit:10;}
	.st27{fill:none;stroke:#7B5744;stroke-width:13.1913;stroke-linecap:round;stroke-miterlimit:10;}
	.st28{fill:none;stroke:#7B5744;stroke-width:13.2334;stroke-linecap:round;stroke-miterlimit:10;}
	.st29{fill:#BD8A6D;}
	.st30{fill:#F2DEBA;}
	.st31{fill:#885441;}
	.st32{fill:none;stroke:#AF8A6D;stroke-width:4.0495;stroke-linecap:round;stroke-miterlimit:10;}
	.st33{fill:none;stroke:#EEDFBE;stroke-width:4.0495;stroke-linecap:round;stroke-miterlimit:10;}
	.st34{fill:none;stroke:#7B5744;stroke-width:4.0495;stroke-linecap:round;stroke-miterlimit:10;}
	.st35{fill:none;stroke:#A7C349;stroke-width:3;stroke-linecap:round;}
	.st36{fill:none;stroke:#BB474B;stroke-width:3;stroke-linecap:round;}
	.st37{enable-background:new    ;}
</style>
<g class="st37">
	<path class="st15" d="M4.8,19.3c-0.5,0-0.7-0.4-0.7-1.1v-3.1C4.1,15,4.1,15,4,15l-2.8,0.5c-0.7,0.1-1.1,0-1.2-0.5
		c-0.1-0.5,0.2-0.8,0.9-0.9l3-0.5c0.1,0,0.1-0.1,0.1-0.2v-2.7c0-0.1,0-0.1-0.1-0.1H2.7c-0.4,0-0.7,0-1,0c-0.5,0-0.9-0.1-1.1-0.5
		S0.4,9.3,0.6,9c0-0.1,0.1-0.2,0.3-0.5l0.3-0.7c0.3-0.8,0.7-2,1.1-3.5c0-0.1,0-0.1-0.1-0.1H1.1C0.4,4.2,0,3.9,0,3.4s0.4-0.7,1.1-0.7
		h1.3c0.1,0,0.2-0.1,0.2-0.2C2.9,1.7,3,1.1,3,0.8s0.3-0.4,0.8-0.4c0.5,0.1,0.7,0.5,0.5,1.2l-0.2,1c0,0.1,0,0.1,0.1,0.1h2.5
		c0.7,0,1.1,0.2,1.1,0.7S7.5,4.2,6.8,4.2H3.9c-0.1,0-0.2,0.1-0.2,0.2C3.3,5.9,2.7,7.4,2.1,9c0,0.1,0,0.1,0.1,0.1H4
		c0.1,0,0.1,0,0.1-0.1V7c0-0.7,0.2-1.1,0.7-1.1c0.5,0,0.7,0.4,0.7,1.1v2c0,0.1,0,0.1,0.1,0.1h0.9c0.7,0,1.1,0.2,1.1,0.7
		c0,0.5-0.4,0.7-1.1,0.7H5.7c-0.1,0-0.1,0-0.1,0.1v2.5c0,0.1,0,0.1,0.1,0.1l1-0.2c0.7-0.1,1.1,0,1.2,0.5C8,14,7.6,14.3,6.9,14.4
		l-1.2,0.3c-0.1,0-0.1,0.1-0.1,0.2v3.3C5.6,18.9,5.3,19.3,4.8,19.3z M8.9,18.8c-0.7,0-1.1-0.2-1.1-0.7s0.4-0.7,1.1-0.7h3.7
		c0.1,0,0.1,0,0.1-0.1v-4.9c0-0.1,0-0.1-0.1-0.1h-2.5C9.3,12.3,9,12,9,11.5c0-0.5,0.4-0.7,1.1-0.7h6.8c0.7,0,1.1,0.2,1.1,0.7
		c0,0.5-0.4,0.7-1.1,0.7h-2.5c-0.1,0-0.1,0-0.1,0.1v4.9c0,0.1,0,0.1,0.1,0.1h3.4c0.7,0,1.1,0.2,1.1,0.7s-0.4,0.7-1.1,0.7H8.9z
		 M9.6,9.7C8.9,10,8.5,9.9,8.3,9.4C8.1,8.9,8.3,8.6,9,8.3c0.7-0.3,1.8-0.9,3.1-2c1.5-1.1,2.6-2.3,3.3-3.5c0-0.1,0-0.1,0-0.1H10
		c-0.7,0-1.1-0.2-1.1-0.7c0-0.5,0.4-0.7,1.1-0.7L16,1.3c0.5,0,0.9,0.1,1.3,0.3c0.3,0.2,0.4,0.6,0.1,1.3c-0.4,1-1.3,2.1-2.8,3.5
		c-0.1,0,0,0.1,0,0.1c1.9,0.9,3,1.5,3.3,1.7c0.6,0.4,0.8,0.8,0.5,1.2c-0.3,0.4-0.7,0.4-1.3,0c-0.4-0.3-1.6-0.9-3.5-1.9
		c-0.1-0.1-0.3-0.1-0.4,0C12,8.4,10.7,9.2,9.6,9.7z"/>
	<path class="st15" d="M24.9,19.4c-0.5,0-0.8-0.4-0.8-1.1V9.7c0-0.1,0-0.1,0,0c-0.8,2.5-1.4,4.1-1.8,4.7c-0.4,0.6-0.8,0.7-1.3,0.4
		c-0.4-0.3-0.4-0.8,0-1.3c0.4-0.4,0.8-1.4,1.4-2.9c0.6-1.4,1.1-2.9,1.4-4.3c0-0.1,0-0.1-0.1-0.1h-1.8c-0.7,0-1.1-0.2-1.1-0.7
		s0.4-0.7,1.1-0.7h2c0.1,0,0.1,0,0.1-0.1V1.3c0-0.7,0.3-1.1,0.8-1.1c0.5,0,0.8,0.4,0.8,1.1v3.2c0,0.1,0,0.1,0.1,0.1h1.4
		c0.7,0,1.1,0.2,1.1,0.7s-0.4,0.7-1.1,0.7h-1.4c-0.1,0-0.1,0-0.1,0.1v0.4c0,0.3,0.1,0.5,0.2,0.7l2.1,3.1c0.4,0.6,0.4,1,0,1.3
		s-0.7,0.2-0.8,0c-0.1-0.3-0.6-1.1-1.4-2.5c0-0.1-0.1,0-0.1,0v9.1C25.7,19,25.4,19.4,24.9,19.4z M29.9,8.9c-0.5,0.6-0.9,0.7-1.3,0.3
		c-0.4-0.3-0.4-0.8,0.1-1.4c1-1.2,1.8-3.1,2.4-5.9c0.1-0.7,0.5-1,1-0.9c0.5,0.1,0.7,0.5,0.5,1.2C32,5.2,31.1,7.4,29.9,8.9z
		 M38.8,18.6c-0.5,0.2-0.8,0.1-0.8-0.1c0-0.2-0.2-0.5-0.4-1c0-0.1-0.1-0.2-0.2-0.1l-6,0.8c-0.4,0-0.7,0.1-1,0.2l-0.3,0
		c-0.7,0.2-1.1,0-1.3-0.5c-0.2-0.5-0.1-1,0.2-1.5l0.5-0.7c0.2-0.3,0.4-0.6,0.5-0.9c0.2-0.4,0.6-1.4,1.2-2.8c0.7-1.9,1.2-3.2,1.4-4
		c0.2-0.7,0.5-1,1.1-0.8c0.6,0.2,0.7,0.6,0.5,1.3c-0.8,2.7-2,5.5-3.4,8.1c0,0.1,0,0.1,0.1,0.1l5.9-0.7C37,16,37,16,37,15.9
		c-0.5-1.1-0.8-1.9-1-2.3c-0.4-0.6-0.3-1.1,0.1-1.3c0.4-0.2,0.8,0,1.2,0.6c0.3,0.4,0.7,1.2,1.2,2.4s0.9,1.8,0.9,2
		C39.5,18,39.3,18.4,38.8,18.6z M39.3,9c-0.5,0.4-0.9,0.2-1.3-0.4c-0.4-0.5-0.9-1.5-1.5-2.9c-0.6-1.3-1-2.6-1.3-3.7
		c-0.2-0.7,0-1.1,0.5-1.2c0.5-0.1,0.8,0.2,1,0.9c0.6,2.4,1.5,4.4,2.7,5.9C39.8,8.2,39.8,8.7,39.3,9z"/>
	<path class="st15" d="M43.5,8.2c-0.6,0.4-1,0.5-1.3,0.1C41.9,7.8,42,7.4,42.6,7c0.6-0.4,1.5-1.4,2.5-2.7c1-1.3,1.7-2.4,2-3.1
		c0.3-0.7,0.7-0.9,1.1-0.7c0.5,0.2,0.6,0.5,0.4,1c0,0.1,0,0.2,0.1,0.3c2.2,2.2,3.6,3.8,4.1,4.6c0.4,0.6,0.4,1.1,0,1.3
		C52.4,8,52,7.8,51.6,7.2c-0.5-0.8-1.8-2.2-3.7-4.3c0-0.1-0.1-0.1-0.1,0C46.5,5.3,45,7,43.5,8.2z M46.6,19.1c-1,0-1.7-0.2-2.1-0.5
		c-0.4-0.3-0.6-0.9-0.6-1.8V8.9c0-0.7,0.4-1.1,1.1-1.1h5.4c0.7,0,1.1,0.4,1,1.1l-0.2,2.9c0,0.4-0.1,0.8-0.1,1.1
		c-0.1,0.4-0.2,0.7-0.3,0.9s-0.2,0.3-0.4,0.4c-0.1,0.1-0.3,0.2-0.4,0.2c-0.4,0.1-0.8,0.1-1.1,0.1c-0.3,0-0.6,0-0.7,0
		c-0.7-0.1-1.1-0.3-1-0.7c0-0.4,0.4-0.7,1.1-0.6c0.3,0,0.6,0,0.7,0c0.1,0,0.2,0,0.3-0.1c0.1-0.1,0.2-0.2,0.4-0.5
		c0.1-0.1,0.2-1.2,0.3-3.4c0-0.1,0-0.1-0.1-0.1h-4.3c-0.1,0-0.1,0-0.1,0.1v7.5c0,0.4,0.1,0.6,0.2,0.8c0.2,0.1,0.5,0.2,1,0.2h3.7
		c0.5,0,0.8-0.2,0.9-0.5c0.1-0.3,0.2-0.7,0.2-1c0-0.7,0.3-1.1,0.8-1c0.5,0,0.7,0.4,0.6,1.1c-0.1,0.9-0.2,1.6-0.6,2.1
		s-0.9,0.7-1.9,0.7H46.6z M55.2,14.2c-0.5,0-0.8-0.4-0.8-1.1V3.8c0-0.7,0.3-1.1,0.8-1.1c0.5,0,0.7,0.4,0.7,1.1v9.4
		C55.9,13.9,55.7,14.2,55.2,14.2z M56.1,19.3c-0.7,0-1.1-0.3-1.1-0.8c0-0.5,0.4-0.7,1.1-0.7c0.4,0,1,0,1.8,0c0.4,0,0.5-0.2,0.5-0.5
		V1.6c0-0.7,0.3-1.1,0.8-1.1c0.5,0,0.8,0.4,0.8,1.1v15.7c0,0.5-0.1,0.9-0.2,1.1c-0.1,0.3-0.4,0.5-0.7,0.6
		C58.5,19.2,57.5,19.3,56.1,19.3z"/>
	<path class="st15" d="M68.3,3.2c0.4-0.2,0.8,0,1.2,0.6c0.2,0.3,0.3,0.7,0.5,1.2c0,0.1,0.1,0.2,0.2,0.2h4.4c0.2,0,0.3-0.1,0.4-0.2
		c0.3-0.6,0.5-0.9,0.5-1c0.3-0.7,0.7-0.9,1.1-0.7c0.5,0.2,0.5,0.6,0.2,1.3L76.5,5c0,0.1,0,0.1,0.1,0.1h3.8c0.7,0,1.1,0.2,1.1,0.6
		c0,0.4-0.4,0.7-1.1,0.7H64.6c-0.7,0-1.1-0.2-1.1-0.7c0-0.4,0.4-0.6,1.1-0.6h3.7c0.1,0,0.1,0,0.1-0.1c-0.2-0.6-0.3-1-0.5-1.2
		C67.8,3.6,67.9,3.4,68.3,3.2z M65.2,18.2c-0.5,0.5-1,0.6-1.3,0.2c-0.3-0.3-0.4-0.6-0.2-0.8c0.2-0.2,0.5-0.6,1-1.3
		c0.4-0.6,0.7-1.1,0.8-1.4s0.4-0.4,0.9-0.2c0.4,0.2,0.5,0.6,0.2,1.3C66.1,17.1,65.6,17.8,65.2,18.2z M65.6,3c-0.7,0-1.1-0.2-1.1-0.7
		c0-0.4,0.4-0.6,1.1-0.6h6.3c0.1,0,0.1,0,0.1-0.1l-0.1-0.2c-0.3-0.6-0.3-1.1,0.1-1.3c0.4-0.3,0.7-0.2,0.9,0c0.2,0.3,0.4,0.7,0.7,1.3
		c0.1,0.1,0.2,0.2,0.3,0.2h5.4c0.7,0,1.1,0.2,1.1,0.6C80.4,2.8,80,3,79.3,3H65.6z M67,13.5c-0.7,0-1.1-0.4-1.1-1.1V8.5
		c0-0.7,0.4-1.1,1.1-1.1h10.9c0.7,0,1.1,0.4,1.1,1.1v3.9c0,0.7-0.4,1.1-1.1,1.1H67z M67.4,9.9c0,0.1,0,0.1,0.1,0.1h9.8
		c0.1,0,0.1,0,0.1-0.1V8.6c0-0.1,0-0.1-0.1-0.1h-9.8c-0.1,0-0.1,0-0.1,0.1V9.9z M67.4,12.3c0,0.1,0,0.1,0.1,0.1h9.8
		c0.1,0,0.1,0,0.1-0.1v-1.2c0-0.1,0-0.1-0.1-0.1h-9.8c-0.1,0-0.1,0-0.1,0.1V12.3z M70.9,19.2c-1.1,0-1.8-0.1-2.1-0.4
		c-0.4-0.3-0.5-0.8-0.5-1.5v-1.6c0-0.7,0.3-1.1,0.8-1.1c0.5,0,0.8,0.4,0.8,1.1v1.6c0,0.2,0.1,0.4,0.2,0.5c0.2,0.1,0.5,0.1,1,0.1h3.7
		c0.4,0,0.7-0.1,0.9-0.4c0.1-0.2,0.2-0.4,0.2-0.4c0-0.7,0.3-1.1,0.8-1s0.7,0.4,0.6,1.1c0,0.6-0.2,1.1-0.5,1.4
		c-0.3,0.4-0.9,0.6-1.7,0.6H70.9z M71,13.8c0.2-0.3,0.6-0.4,1.2,0c0.9,0.5,1.5,0.8,1.7,1.1c0.5,0.5,0.6,0.9,0.3,1.2
		c-0.3,0.3-0.7,0.2-1.2-0.3c-0.2-0.2-0.6-0.5-1.4-0.9C71,14.5,70.8,14.1,71,13.8z M80.8,18.2c-0.4,0.2-0.8,0-1.1-0.7
		c-0.2-0.4-0.6-0.9-1.3-1.7c-0.5-0.5-0.6-0.9-0.3-1.2c0.3-0.3,0.7-0.2,1.2,0.3c0.1,0.1,0.5,0.5,1,1.2c0.5,0.7,0.9,1.1,1,1.4
		S81.2,17.9,80.8,18.2z"/>
	<path class="st15" d="M85.9,19.7c-0.7,0.2-1.1,0.2-1.2-0.2s0.1-0.7,0.8-1c1-0.4,1.5-1.3,1.6-2.6c0-0.1,0-0.1-0.1-0.1
		c-0.2,0-0.4,0-0.8,0c-0.1,0-0.3-0.1-0.6-0.4c-0.3-0.3-0.5-0.6-0.5-1.1s0.2-0.8,0.5-1.1c0.3-0.3,0.7-0.4,1.1-0.4
		c0.6,0,1,0.2,1.3,0.7c0.3,0.4,0.5,1,0.5,1.8c0,1.1-0.3,2.1-1,2.9C86.9,19,86.3,19.5,85.9,19.7z"/>
	<path class="st15" d="M97.2,19.4c-0.1,0.1-0.3-0.1-0.6-0.5c-0.3-0.4-0.1-0.8,0.5-1.2c0.1-0.1,0.1-0.5,0.1-1.2V3.3
		c0-0.7,0.4-1.1,1.1-1.1h5c0.1,0,0.1,0,0.1-0.1c-0.2-0.5-0.3-0.9-0.4-1.2c-0.1-0.3,0.1-0.5,0.5-0.7c0.5-0.2,0.9,0,1.2,0.7
		c0.1,0.1,0.2,0.5,0.4,1.2c0,0.1,0.1,0.2,0.2,0.2h4.4c0.7,0,1.1,0.4,1.1,1.1v6.8c0,0.7-0.4,1.1-1.1,1.1h-5.9c-0.1,0-0.1,0-0.1,0.1
		c0.7,1.2,1.6,2.3,2.6,3.2c0.1,0.1,0.2,0.1,0.3,0c1.6-0.9,2.8-1.7,3.7-2.4c0.6-0.5,1-0.5,1.3-0.1c0.3,0.4,0.2,0.8-0.4,1.3
		c-0.7,0.5-1.9,1.3-3.5,2.2c-0.1,0-0.1,0.1,0,0.1c1.6,1.1,3,1.8,4.3,2c0.7,0.2,1,0.5,0.9,1c-0.1,0.5-0.5,0.7-1.2,0.5
		c-1.9-0.5-3.7-1.4-5.5-2.7c-1.8-1.4-3.1-3-4-4.9c-0.1-0.1-0.2-0.2-0.3-0.2h-2.9c-0.1,0-0.1,0-0.1,0.1v5.9c0,0.1,0,0.1,0.1,0.1
		l3.8-1c0.7-0.2,1.1,0,1.2,0.4c0.1,0.5-0.2,0.8-0.9,1l-4,1c-0.4,0.1-0.7,0.2-1,0.3C97.6,19.2,97.3,19.3,97.2,19.4z M98.8,5.9
		c0,0.1,0,0.1,0.1,0.1h10.2c0.1,0,0.1,0,0.1-0.1V3.7c0-0.1,0-0.1-0.1-0.1H98.9c-0.1,0-0.1,0-0.1,0.1V5.9z M98.8,9.7
		c0,0.1,0,0.1,0.1,0.1h10.2c0.1,0,0.1,0,0.1-0.1V7.4c0-0.1,0-0.1-0.1-0.1H98.9c-0.1,0-0.1,0-0.1,0.1V9.7z"/>
	<path class="st15" d="M116.9,18.9c-0.6,0.4-1.1,0.3-1.3-0.1c-0.2-0.5,0-0.9,0.6-1.2c0.9-0.5,1.9-1.5,2.9-3.3c0.1-0.1,0-0.2,0-0.2
		c-0.8-0.7-1.6-1.3-2.4-1.9c-0.5-0.4-0.7-0.9-0.5-1.5c0.2-0.7,0.6-2.2,1.1-4.6c0-0.1,0-0.1-0.1-0.1h-0.7c-0.7,0-1.1-0.2-1.1-0.7
		c0-0.5,0.4-0.7,1.1-0.7h0.9c0.1,0,0.2,0,0.2-0.1c0.3-1.5,0.5-2.5,0.5-3.1c0.1-0.7,0.4-1.1,0.9-1c0.5,0.1,0.7,0.5,0.6,1.2l-0.5,2.9
		c0,0.1,0,0.1,0.1,0.1l2.6,0c0.4,0,0.8,0,1.1,0.1c0.3,0.1,0.5,0.5,0.4,1.2c-0.3,3-1,5.7-2,7.9c-0.1,0.1,0,0.2,0,0.3
		c1,0.9,1.6,1.4,1.8,1.6c0.4,0.6,0.5,1,0,1.4c-0.4,0.3-0.8,0.3-1,0.1c-0.2-0.3-0.8-0.8-1.6-1.6c-0.1,0-0.1,0-0.1,0
		C119.3,17,118.1,18.2,116.9,18.9z M119.9,12.7c0.1,0,0.1,0,0.1,0c0.9-1.9,1.5-4.1,1.7-6.6c0-0.1,0-0.1-0.1-0.1H119
		c-0.1,0-0.2,0.1-0.2,0.2c-0.4,1.7-0.7,3.3-1.2,4.7c0,0.1,0,0.2,0.1,0.3C118.4,11.6,119.2,12.1,119.9,12.7z M126.5,19.4
		c-0.7,0-1.1-0.3-1.1-0.8c0-0.5,0.4-0.7,1.1-0.7h1.3c0.3,0,0.5-0.1,0.5-0.4v-6.9c0-0.1,0-0.1-0.1-0.1h-3.7c-0.7,0-1.1-0.3-1.1-0.8
		c0-0.5,0.4-0.7,1.1-0.7h3.7c0.1,0,0.1,0,0.1-0.1V7.5c0-0.6,0.2-1,0.7-1.4c0.5-0.4,1.3-1.4,2.4-2.8c0-0.1,0-0.1,0-0.1h-5.8
		c-0.7,0-1.1-0.2-1.1-0.7c0-0.5,0.4-0.7,1.1-0.8l6.6-0.1c0.5,0,1,0.1,1.3,0.4c0.4,0.3,0.3,0.7-0.1,1.3c-0.8,1.2-1.8,2.3-3.2,3.5
		c-0.2,0.1-0.2,0.3-0.2,0.5V9c0,0.1,0,0.1,0.1,0.1h3.4c0.7,0,1.1,0.2,1.1,0.7c0,0.5-0.4,0.8-1.1,0.8H130c-0.1,0-0.1,0-0.1,0.1v6.9
		c0,0.5-0.1,0.8-0.2,1.1c-0.1,0.2-0.3,0.4-0.4,0.5s-0.4,0.2-0.8,0.3C128.3,19.4,127.6,19.4,126.5,19.4z"/>
	<path class="st15" d="M139.4,18.6c-0.1,0.1-0.3,0-0.7-0.4c-0.3-0.4-0.4-0.6-0.3-0.7s0.3-0.3,0.5-0.6c0.3-0.4,0.4-0.8,0.4-1.2V8.4
		c0-0.1,0-0.1-0.1-0.1h-1.7c-0.7,0-1.1-0.3-1.1-0.8c0-0.5,0.4-0.7,1.1-0.7h2.3c0.7,0,1.1,0.4,1.1,1.1v7.8c0,0.1,0,0.1,0.1,0l1.2-0.9
		c0.6-0.4,1-0.4,1.3-0.1c0.3,0.4,0.1,0.8-0.5,1.2C140.7,17.6,139.5,18.5,139.4,18.6z M141.7,4.3c-0.4,0.3-0.8,0.2-1.3-0.4
		c-0.3-0.3-0.8-0.9-1.6-1.6c-0.5-0.5-0.7-0.9-0.4-1.2c0.3-0.3,0.7-0.3,1.3,0.2c0.9,0.7,1.5,1.3,1.8,1.7
		C142.1,3.5,142.1,3.9,141.7,4.3z M144.3,8.6c-0.7,0.3-1.1,0.2-1.3-0.2c-0.2-0.4,0-0.8,0.7-1.1c0.4-0.2,0.9-0.7,1.4-1.6
		c0.4-0.7,0.6-1.5,0.6-2.4V2.1c0-0.7,0.4-1.1,1.1-1.1h4.5c0.7,0,1.1,0.4,1.1,1.1v3.8c0,0.3,0,0.5,0.1,0.6c0,0.1,0.1,0.2,0.2,0.2
		s0.3,0,0.7,0l0.8,0c0.7,0,1.1,0.2,1.2,0.6c0.1,0.4-0.2,0.7-1,0.7l-1.1,0.1c-0.4,0-0.8,0-1.1,0c-0.3,0-0.6-0.2-0.8-0.5
		c-0.2-0.3-0.3-0.8-0.3-1.7V2.5c0-0.1,0-0.1-0.1-0.1h-3.5c-0.1,0-0.1,0-0.1,0.1v0.8C147.2,5.9,146.2,7.7,144.3,8.6z M155.1,18.8
		c-0.1,0.5-0.5,0.7-1.3,0.5c-1.7-0.4-3.2-1.2-4.7-2.2c-0.1-0.1-0.2-0.1-0.3,0c-1.4,1-2.9,1.7-4.6,2.2c-0.7,0.2-1.1,0-1.2-0.4
		c-0.1-0.5,0.2-0.8,0.9-1c1.1-0.3,2.4-0.8,3.8-1.7c0.1,0,0.1-0.1,0-0.1c-1.4-1.3-2.4-2.6-3-3.8c-0.3-0.7-0.4-1-0.3-1.1
		c0.1,0,0.1,0,0,0c-0.6,0-1-0.2-1-0.7s0.4-0.7,1.1-0.7l8-0.1c0.5,0,0.9,0.1,1.2,0.2c0.3,0.2,0.4,0.6,0.2,1.2
		c-0.6,1.8-1.8,3.5-3.6,5.1c-0.1,0-0.1,0.1,0,0.1c1.4,0.9,2.7,1.5,3.9,1.8C154.9,17.9,155.2,18.3,155.1,18.8z M148.9,14.9
		c0.1,0.1,0.2,0.1,0.3,0c1.4-1.1,2.4-2.4,3.1-3.9c0-0.1,0-0.1-0.1-0.1h-6.3c-0.1,0-0.1,0-0.1,0.1C146.5,12.5,147.5,13.8,148.9,14.9z
		"/>
	<path class="st15" d="M160.8,18.7c0,0-0.2-0.1-0.6-0.5c-0.4-0.4-0.2-0.8,0.4-1.2c0.1-0.1,0.1-0.4,0.1-1.1V8.4c0-0.1,0-0.1-0.1-0.1
		h-2.1c-0.7,0-1.1-0.3-1.1-0.8c0-0.5,0.4-0.8,1.1-0.8h2.7c0.7,0,1.1,0.4,1.1,1.1v7.7c0,0.1,0,0.1,0.1,0l1.4-1c0.6-0.4,1-0.4,1.3,0
		c0.3,0.4,0.1,0.8-0.5,1.2l-2.6,1.9c-0.3,0.2-0.6,0.4-0.9,0.7C161,18.6,160.8,18.7,160.8,18.7z M163.2,4.3c-0.4,0.3-0.8,0.2-1.3-0.4
		c-0.2-0.3-0.8-0.8-1.7-1.6c-0.6-0.5-0.7-0.9-0.4-1.2c0.3-0.4,0.7-0.3,1.3,0.1c0.9,0.8,1.6,1.3,1.9,1.7C163.5,3.5,163.6,4,163.2,4.3
		z M170.4,19.4c-0.5,0-0.8-0.4-0.8-1.1V8.8c0-0.1,0-0.1-0.1-0.1h-4.1c-0.7,0-1.1-0.3-1.1-0.8c0-0.5,0.4-0.8,1.1-0.8h4.1
		c0.1,0,0.1,0,0.1-0.1V1.4c0-0.7,0.3-1.1,0.8-1.1c0.5,0,0.8,0.4,0.8,1.1V7c0,0.1,0,0.1,0.1,0.1h4.1c0.7,0,1.1,0.3,1.1,0.8
		c0,0.5-0.4,0.8-1.1,0.8h-4.1c-0.1,0-0.1,0-0.1,0.1v9.5C171.2,19,170.9,19.4,170.4,19.4z"/>
	<path class="st15" d="M181.8,19.1c-0.9,0-1.6-0.3-2.3-0.9s-0.9-1.4-0.9-2.3c0-0.9,0.3-1.6,0.9-2.3s1.4-0.9,2.3-0.9
		c0.9,0,1.6,0.3,2.3,0.9s0.9,1.4,0.9,2.3c0,0.9-0.3,1.6-0.9,2.3S182.6,19.1,181.8,19.1z M181.8,18c0.6,0,1.1-0.2,1.5-0.6
		c0.4-0.4,0.6-0.9,0.6-1.5c0-0.6-0.2-1.1-0.6-1.5s-0.9-0.6-1.5-0.6c-0.6,0-1.1,0.2-1.5,0.6s-0.6,0.9-0.6,1.5c0,0.6,0.2,1.1,0.6,1.5
		S181.2,18,181.8,18z"/>
	<path class="st15" d="M195.8,18c-2,0-3.6-0.7-4.8-2.1c-1.3-1.4-1.9-3.4-1.9-5.8c0-2.4,0.6-4.4,1.9-5.8s2.9-2.2,4.9-2.2
		c1.4,0,2.6,0.4,3.6,1.3c0.2,0.2,0.3,0.4,0.3,0.6c0,0.2-0.1,0.4-0.2,0.6c-0.1,0.2-0.3,0.3-0.5,0.3s-0.4-0.1-0.6-0.2
		c-0.8-0.6-1.6-0.9-2.6-0.9c-1.5,0-2.6,0.6-3.5,1.7s-1.3,2.6-1.3,4.6c0,1.9,0.4,3.5,1.3,4.6s2,1.7,3.5,1.7c1.1,0,2.1-0.4,3-1.1
		c0.2-0.2,0.4-0.2,0.6-0.2s0.4,0.1,0.5,0.3c0.2,0.2,0.2,0.4,0.2,0.6c0,0.2-0.1,0.4-0.2,0.6C198.8,17.5,197.5,18,195.8,18z"/>
	<path class="st15" d="M209.7,17.6c-0.6,0.3-1.3,0.4-2,0.4s-1.4-0.1-2-0.4c-0.6-0.3-1.2-0.6-1.7-1.1c-0.5-0.5-0.9-1.1-1.2-1.9
		c-0.3-0.8-0.4-1.6-0.4-2.5c0-0.9,0.1-1.8,0.4-2.5s0.7-1.4,1.2-1.9c0.5-0.5,1.1-0.9,1.7-1.2s1.3-0.4,2-0.4s1.4,0.1,2,0.4
		s1.2,0.7,1.7,1.2c0.5,0.5,0.9,1.1,1.2,1.9s0.4,1.6,0.4,2.5c0,0.9-0.1,1.8-0.4,2.5c-0.3,0.8-0.7,1.4-1.2,1.9
		C210.9,17,210.3,17.4,209.7,17.6z M205.3,15.2c0.6,0.8,1.4,1.2,2.4,1.2s1.8-0.4,2.4-1.2c0.6-0.8,0.9-1.9,0.9-3.2
		c0-1.3-0.3-2.4-0.9-3.2s-1.4-1.2-2.4-1.2s-1.8,0.4-2.4,1.2c-0.6,0.8-0.9,1.9-0.9,3.2S204.7,14.4,205.3,15.2z"/>
	<path class="st15" d="M217.6,17.5c-0.2,0.2-0.4,0.3-0.7,0.3s-0.5-0.1-0.7-0.3c-0.2-0.2-0.3-0.4-0.3-0.7V7.2c0-0.2,0.1-0.4,0.2-0.6
		s0.3-0.2,0.6-0.2s0.4,0.1,0.6,0.2s0.3,0.3,0.3,0.6l0.1,0.8c0,0,0,0,0,0s0,0,0.1,0c0.6-0.6,1.2-1.1,1.8-1.4s1.3-0.5,2-0.5
		c2.3,0,3.5,1.5,3.5,4.5v6.3c0,0.3-0.1,0.5-0.3,0.7c-0.2,0.2-0.4,0.3-0.7,0.3s-0.5-0.1-0.7-0.3c-0.2-0.2-0.3-0.4-0.3-0.7v-6
		c0-1.1-0.2-1.8-0.5-2.3s-0.9-0.7-1.6-0.7c-0.5,0-1,0.1-1.5,0.4c-0.4,0.3-1,0.7-1.5,1.2c-0.1,0.1-0.1,0.2-0.1,0.3v7.2
		C217.9,17.1,217.8,17.3,217.6,17.5z"/>
	<path class="st15" d="M233.3,18c-1.6,0-2.8-0.5-3.8-1.6s-1.5-2.5-1.5-4.4c0-0.9,0.2-1.8,0.5-2.5s0.7-1.4,1.2-1.9
		c0.5-0.5,1.1-0.9,1.8-1.2s1.4-0.4,2.1-0.4c1,0,1.9,0.3,2.7,0.8c0.2,0.1,0.3,0.3,0.3,0.5c0,0.2,0,0.4-0.2,0.6
		c-0.1,0.2-0.3,0.3-0.5,0.3c-0.2,0-0.4,0-0.6-0.2c-0.5-0.4-1.1-0.5-1.6-0.5c-1,0-1.9,0.4-2.6,1.2s-1,1.9-1,3.2c0,1.3,0.3,2.4,1,3.2
		c0.6,0.8,1.5,1.2,2.6,1.2c0.7,0,1.4-0.2,2.1-0.7c0.2-0.1,0.4-0.2,0.6-0.1s0.4,0.1,0.5,0.3c0.1,0.2,0.1,0.3,0.1,0.5c0,0,0,0.1,0,0.1
		c0,0.2-0.1,0.4-0.3,0.5C235.4,17.7,234.4,18,233.3,18z"/>
	<path class="st15" d="M243.6,18c-1.6,0-2.9-0.5-3.9-1.6c-1-1.1-1.6-2.5-1.6-4.4c0-0.9,0.1-1.7,0.4-2.5s0.7-1.4,1.1-1.9
		s1-0.9,1.7-1.2c0.6-0.3,1.3-0.4,1.9-0.4c1.4,0,2.5,0.5,3.3,1.4c0.8,1,1.2,2.3,1.2,3.9c0,0.3-0.1,0.6-0.4,0.8
		c-0.3,0.2-0.6,0.3-0.9,0.3h-6.3c-0.1,0-0.2,0-0.1,0.1c0.1,1.2,0.5,2.1,1.1,2.8c0.7,0.7,1.6,1,2.6,1c0.8,0,1.5-0.2,2.2-0.6
		c0.2-0.1,0.3-0.1,0.5-0.1s0.3,0.2,0.4,0.3c0.1,0.2,0.1,0.4,0.1,0.6c0,0.2-0.2,0.3-0.3,0.4C245.8,17.8,244.7,18,243.6,18z
		 M240.1,11.1c0,0.1,0,0.1,0.1,0.1h5.8c0.1,0,0.1,0,0.1-0.1c0-1.1-0.3-1.9-0.8-2.5s-1.2-0.9-2.1-0.9c-0.8,0-1.5,0.3-2.1,0.9
		C240.4,9.3,240.1,10.1,240.1,11.1z"/>
	<path class="st15" d="M253,18c-1,0-1.8-0.3-2.4-0.9s-0.9-1.4-0.9-2.4c0-1.2,0.5-2.2,1.6-2.8s2.8-1.1,5.2-1.4c0.1,0,0.1-0.1,0.1-0.2
		c0-1.8-0.8-2.7-2.3-2.7c-0.9,0-1.8,0.3-2.8,0.8c-0.2,0.1-0.4,0.1-0.6,0.1s-0.4-0.2-0.5-0.3c-0.1-0.2-0.1-0.4-0.1-0.6
		s0.2-0.4,0.4-0.5c1.3-0.7,2.6-1.1,3.8-1.1c1.3,0,2.3,0.4,3,1.2c0.6,0.8,1,2,1,3.4V17c0,0.2-0.1,0.4-0.2,0.6s-0.3,0.2-0.6,0.2
		s-0.4-0.1-0.6-0.2s-0.3-0.3-0.3-0.6l-0.1-0.6c0,0,0,0,0,0s0,0-0.1,0C255.4,17.5,254.2,18,253,18z M253.5,16.5c0.5,0,1-0.1,1.5-0.3
		c0.5-0.2,1-0.6,1.5-1.1c0.1-0.1,0.1-0.2,0.1-0.3V12c0-0.1,0-0.1-0.1-0.1c0,0,0,0,0,0c-1.8,0.2-3.1,0.6-3.8,1
		c-0.8,0.5-1.1,1.1-1.1,1.8c0,0.6,0.2,1.1,0.5,1.4C252.4,16.4,252.9,16.5,253.5,16.5z"/>
	<path class="st15" d="M264.2,18c-1.4,0-2-0.8-2-2.5V2c0-0.3,0.1-0.5,0.3-0.7c0.2-0.2,0.4-0.3,0.7-0.3s0.5,0.1,0.7,0.3
		c0.2,0.2,0.3,0.4,0.3,0.7v13.6c0,0.4,0.1,0.6,0.3,0.8c0,0,0.1,0,0.2,0.1s0.2,0.1,0.2,0.1s0.1,0.1,0.2,0.1c0.1,0,0.1,0.1,0.1,0.2
		s0.1,0.1,0.1,0.2l0,0.1c0,0.1,0,0.1,0,0.2c0,0.2,0,0.3-0.1,0.4c-0.1,0.2-0.3,0.3-0.5,0.3C264.5,18,264.4,18,264.2,18z"/>
	<path class="st15" d="M272.7,18c-1.6,0-2.9-0.5-3.9-1.6c-1-1.1-1.6-2.5-1.6-4.4c0-0.9,0.1-1.7,0.4-2.5s0.7-1.4,1.1-1.9
		s1-0.9,1.7-1.2c0.6-0.3,1.3-0.4,1.9-0.4c1.4,0,2.5,0.5,3.3,1.4c0.8,1,1.2,2.3,1.2,3.9c0,0.3-0.1,0.6-0.4,0.8
		c-0.3,0.2-0.6,0.3-0.9,0.3h-6.3c-0.1,0-0.2,0-0.1,0.1c0.1,1.2,0.5,2.1,1.1,2.8c0.7,0.7,1.6,1,2.6,1c0.8,0,1.5-0.2,2.2-0.6
		c0.2-0.1,0.3-0.1,0.5-0.1s0.3,0.2,0.4,0.3c0.1,0.2,0.1,0.4,0.1,0.6c0,0.2-0.2,0.3-0.3,0.4C274.9,17.8,273.9,18,272.7,18z
		 M269.2,11.1c0,0.1,0,0.1,0.1,0.1h5.8c0.1,0,0.1,0,0.1-0.1c0-1.1-0.3-1.9-0.8-2.5s-1.2-0.9-2.1-0.9c-0.8,0-1.5,0.3-2.1,0.9
		C269.6,9.3,269.2,10.1,269.2,11.1z"/>
	<path class="st15" d="M283.7,18c-1.4,0-2.6-0.5-3.4-1.6c-0.8-1-1.3-2.5-1.3-4.4c0-1.8,0.5-3.2,1.5-4.3s2.1-1.7,3.5-1.7
		c0.6,0,1.1,0.1,1.6,0.3c0.5,0.2,1,0.5,1.5,0.9c0,0,0.1,0,0.1,0s0,0,0-0.1L287,5.5V2c0-0.3,0.1-0.5,0.3-0.7c0.2-0.2,0.4-0.3,0.7-0.3
		s0.5,0.1,0.7,0.3c0.2,0.2,0.3,0.4,0.3,0.7v15c0,0.2-0.1,0.4-0.2,0.6s-0.3,0.2-0.5,0.2c-0.2,0-0.4-0.1-0.6-0.2
		c-0.2-0.1-0.3-0.3-0.3-0.6l-0.1-0.6c0,0,0,0,0,0s0,0,0,0C286,17.5,284.9,18,283.7,18z M284.1,16.4c1,0,1.9-0.5,2.8-1.5
		c0.1-0.1,0.1-0.2,0.1-0.3V9c0-0.1,0-0.2-0.1-0.2c-0.9-0.7-1.8-1.1-2.7-1.1c-0.9,0-1.7,0.4-2.3,1.2s-0.9,1.9-0.9,3.1
		c0,1.4,0.3,2.5,0.8,3.2C282.3,16.1,283.1,16.4,284.1,16.4z"/>
	<path class="st15" d="M301.9,18c-1.8,0-3.4-0.6-4.8-1.7c-0.2-0.2-0.3-0.4-0.3-0.7c0-0.2,0.1-0.4,0.2-0.6c0.2-0.2,0.4-0.3,0.6-0.3
		c0,0,0,0,0,0c0.2,0,0.4,0.1,0.6,0.2c1.1,0.9,2.3,1.3,3.6,1.3c1,0,1.8-0.2,2.4-0.7c0.6-0.5,0.9-1.1,0.9-1.8c0-0.3,0-0.6-0.1-0.8
		s-0.2-0.5-0.3-0.6s-0.3-0.3-0.6-0.5c-0.3-0.2-0.5-0.3-0.7-0.4s-0.5-0.2-0.8-0.4l-2.2-1c-2.1-0.9-3.1-2.2-3.1-3.9
		c0-1.2,0.5-2.2,1.4-2.9s2.1-1.2,3.5-1.2c1.5,0,2.8,0.5,3.9,1.4c0.2,0.1,0.3,0.3,0.3,0.6c0,0.2,0,0.4-0.2,0.6
		c-0.1,0.2-0.3,0.3-0.5,0.3c-0.2,0-0.4,0-0.6-0.2c-0.9-0.6-1.8-0.9-2.9-0.9c-0.9,0-1.6,0.2-2.1,0.6s-0.8,1-0.8,1.7
		c0,0.3,0.1,0.6,0.2,0.8s0.2,0.4,0.4,0.6c0.1,0.2,0.3,0.3,0.6,0.5s0.5,0.3,0.7,0.4s0.4,0.2,0.7,0.3l2.2,0.9c1,0.4,1.8,1,2.3,1.6
		s0.8,1.5,0.8,2.5c0,1.3-0.5,2.3-1.4,3.1C304.8,17.6,303.5,18,301.9,18z"/>
	<path class="st15" d="M313.6,18c-1.2,0-2-0.3-2.5-1c-0.5-0.7-0.7-1.6-0.7-2.8V8.1c0-0.1-0.1-0.1-0.2-0.1h-0.8
		c-0.2,0-0.4-0.1-0.5-0.2c-0.1-0.1-0.2-0.3-0.2-0.5c0-0.2,0.1-0.4,0.2-0.5s0.3-0.2,0.5-0.2l0.9-0.1c0.1,0,0.2-0.1,0.2-0.2l0.2-2.2
		c0-0.2,0.1-0.4,0.3-0.6s0.4-0.2,0.6-0.2c0.2,0,0.4,0.1,0.6,0.2s0.2,0.3,0.2,0.6v2.2c0,0.1,0,0.2,0.1,0.2h2.2c0.2,0,0.4,0.1,0.6,0.2
		s0.2,0.3,0.2,0.6s-0.1,0.4-0.2,0.6s-0.3,0.2-0.6,0.2h-2.2c-0.1,0-0.1,0-0.1,0.1v6.2c0,0.7,0.1,1.3,0.4,1.7c0.3,0.4,0.7,0.6,1.4,0.6
		c0.2,0,0.4,0,0.6-0.1c0.2,0,0.4,0,0.6,0.1s0.3,0.2,0.3,0.4c0,0.1,0,0.1,0,0.2c0,0.1,0,0.2-0.1,0.4c-0.1,0.2-0.2,0.3-0.5,0.3
		C314.5,18,314,18,313.6,18z"/>
	<path class="st15" d="M321.1,18c-2.3,0-3.5-1.5-3.5-4.5V7.3c0-0.3,0.1-0.5,0.3-0.7c0.2-0.2,0.4-0.3,0.7-0.3c0.3,0,0.5,0.1,0.7,0.3
		c0.2,0.2,0.3,0.4,0.3,0.7v6c0,1.1,0.2,1.8,0.5,2.3c0.3,0.5,0.9,0.7,1.7,0.7c0.6,0,1.1-0.1,1.5-0.4c0.5-0.3,0.9-0.7,1.5-1.4
		c0.1-0.1,0.1-0.2,0.1-0.3v-7c0-0.3,0.1-0.5,0.3-0.7c0.2-0.2,0.4-0.3,0.7-0.3c0.3,0,0.5,0.1,0.7,0.3c0.2,0.2,0.3,0.4,0.3,0.7V17
		c0,0.2-0.1,0.4-0.2,0.6c-0.2,0.2-0.3,0.2-0.6,0.2c-0.2,0-0.4-0.1-0.6-0.2s-0.3-0.3-0.3-0.6l-0.1-1c0,0,0,0-0.1,0c0,0,0,0-0.1,0
		c-0.6,0.7-1.2,1.2-1.8,1.5C322.5,17.9,321.9,18,321.1,18z"/>
	<path class="st15" d="M334.4,18c-1.4,0-2.6-0.5-3.4-1.6c-0.8-1-1.3-2.5-1.3-4.4c0-1.8,0.5-3.2,1.5-4.3s2.1-1.7,3.5-1.7
		c0.6,0,1.1,0.1,1.6,0.3c0.5,0.2,1,0.5,1.5,0.9c0,0,0.1,0,0.1,0c0,0,0,0,0-0.1l-0.1-1.8V2c0-0.3,0.1-0.5,0.3-0.7
		c0.2-0.2,0.4-0.3,0.7-0.3s0.5,0.1,0.7,0.3c0.2,0.2,0.3,0.4,0.3,0.7v15c0,0.2-0.1,0.4-0.2,0.6s-0.3,0.2-0.5,0.2
		c-0.2,0-0.4-0.1-0.6-0.2c-0.2-0.1-0.3-0.3-0.3-0.6l-0.1-0.6c0,0,0,0,0,0s0,0,0,0C336.8,17.5,335.6,18,334.4,18z M334.8,16.4
		c1,0,1.9-0.5,2.8-1.5c0.1-0.1,0.1-0.2,0.1-0.3V9c0-0.1,0-0.2-0.1-0.2c-0.9-0.7-1.8-1.1-2.7-1.1c-0.9,0-1.7,0.4-2.3,1.2
		s-0.9,1.9-0.9,3.1c0,1.4,0.3,2.5,0.8,3.2C333.1,16.1,333.8,16.4,334.8,16.4z"/>
	<path class="st15" d="M345.5,3.7c-0.3,0.2-0.6,0.3-0.9,0.3c-0.4,0-0.7-0.1-0.9-0.3c-0.3-0.2-0.4-0.5-0.4-0.9c0-0.4,0.1-0.7,0.4-0.9
		c0.2-0.2,0.6-0.3,1-0.3c0.4,0,0.7,0.1,1,0.3c0.2,0.2,0.4,0.5,0.4,0.9C345.8,3.1,345.7,3.4,345.5,3.7z M345.2,17.5
		c-0.2,0.2-0.4,0.3-0.7,0.3s-0.5-0.1-0.7-0.3c-0.2-0.2-0.3-0.4-0.3-0.7V7.3c0-0.3,0.1-0.5,0.3-0.7c0.2-0.2,0.4-0.3,0.7-0.3
		s0.5,0.1,0.7,0.3c0.2,0.2,0.3,0.4,0.3,0.7v9.5C345.4,17.1,345.4,17.3,345.2,17.5z"/>
	<path class="st15" d="M355.8,17.6c-0.6,0.3-1.3,0.4-2,0.4s-1.4-0.1-2-0.4c-0.6-0.3-1.2-0.6-1.7-1.1c-0.5-0.5-0.9-1.1-1.2-1.9
		c-0.3-0.8-0.4-1.6-0.4-2.5c0-0.9,0.1-1.8,0.4-2.5s0.7-1.4,1.2-1.9c0.5-0.5,1.1-0.9,1.7-1.2c0.6-0.3,1.3-0.4,2-0.4s1.4,0.1,2,0.4
		c0.6,0.3,1.2,0.7,1.7,1.2c0.5,0.5,0.9,1.1,1.2,1.9s0.4,1.6,0.4,2.5c0,0.9-0.1,1.8-0.4,2.5c-0.3,0.8-0.7,1.4-1.2,1.9
		C356.9,17,356.4,17.4,355.8,17.6z M351.4,15.2c0.6,0.8,1.4,1.2,2.4,1.2s1.8-0.4,2.4-1.2c0.6-0.8,0.9-1.9,0.9-3.2
		c0-1.3-0.3-2.4-0.9-3.2s-1.4-1.2-2.4-1.2s-1.8,0.4-2.4,1.2c-0.6,0.8-0.9,1.9-0.9,3.2S350.8,14.4,351.4,15.2z"/>
	<path class="st15" d="M381.2,17.4c-0.3,0.3-0.7,0.5-1.2,0.5s-0.9-0.2-1.2-0.5c-0.3-0.3-0.5-0.7-0.5-1.2c0-0.5,0.2-0.9,0.5-1.2
		c0.3-0.3,0.7-0.5,1.2-0.5s0.9,0.2,1.2,0.5c0.3,0.3,0.5,0.7,0.5,1.2C381.7,16.7,381.5,17.1,381.2,17.4z M380.5,12.5
		c-0.1,0.1-0.3,0.2-0.5,0.2s-0.4-0.1-0.5-0.2c-0.1-0.1-0.2-0.3-0.2-0.5l-0.5-7.4l0-1.3c0-0.3,0.1-0.6,0.3-0.9s0.5-0.4,0.9-0.4h0.1
		c0.3,0,0.6,0.1,0.9,0.4s0.3,0.5,0.3,0.9l0,1.3l-0.5,7.4C380.7,12.2,380.6,12.4,380.5,12.5z"/>
	<path class="st15" d="M401.5,11.8c0,0.2-0.1,0.5-0.3,0.6s-0.3,0.2-0.6,0.2c-0.3,0-0.5-0.1-0.7-0.2c-0.2-0.2-0.2-0.3-0.2-0.5
		c0-0.5,0.2-1,0.5-1.6c0.3-0.5,0.7-0.9,1.1-1.2c0.4-0.3,0.8-0.7,1.3-1s0.8-0.7,1-1.1s0.4-0.8,0.4-1.2c0-0.8-0.3-1.4-0.8-1.8
		s-1.3-0.7-2.4-0.7c-1.2,0-2.4,0.5-3.4,1.4C397.4,4.9,397.2,5,397,5c-0.2,0-0.4-0.1-0.5-0.2c-0.2-0.2-0.2-0.3-0.2-0.6
		c0-0.2,0.1-0.4,0.2-0.5c1.4-1.3,3-1.9,4.8-1.9c1.5,0,2.7,0.4,3.5,1.1c0.9,0.7,1.3,1.7,1.3,2.9c0,0.5-0.1,1-0.4,1.5
		c-0.3,0.5-0.6,0.9-1,1.2c-0.4,0.3-0.8,0.7-1.3,1s-0.8,0.7-1.1,1.1S401.6,11.4,401.5,11.8z M399.5,17.4c-0.3-0.3-0.5-0.7-0.5-1.2
		c0-0.5,0.2-0.9,0.5-1.2s0.7-0.5,1.2-0.5c0.5,0,0.9,0.2,1.2,0.5s0.5,0.7,0.5,1.2c0,0.5-0.2,0.9-0.5,1.2c-0.3,0.3-0.7,0.5-1.2,0.5
		C400.3,17.9,399.9,17.7,399.5,17.4z"/>
</g>
</svg>
