<?xml version="1.0" encoding="utf-8"?>
<!-- Generator: Adobe Illustrator 24.3.0, SVG Export Plug-In . SVG Version: 6.00 Build 0)  -->
<svg version="1.1" id="图层_1" xmlns="http://www.w3.org/2000/svg" xmlns:xlink="http://www.w3.org/1999/xlink" x="0px" y="0px"
	 viewBox="0 0 377.3 18.8" style="enable-background:new 0 0 377.3 18.8;" xml:space="preserve">
<style type="text/css">
	.st0{fill:none;stroke:#AF8A6D;stroke-width:7.0866;stroke-miterlimit:10;}
	.st1{fill:none;stroke:#7B5744;stroke-width:5.6693;stroke-miterlimit:10;}
	.st2{fill:none;stroke:#EEDFBE;stroke-width:8.5039;stroke-miterlimit:10;}
	.st3{fill:none;}
	.st4{fill:#BB474B;}
	.st5{fill:#A7C349;}
	.st6{fill:#E0EDF2;stroke:#E0EDF2;stroke-width:0.2835;stroke-miterlimit:10;}
	.st7{fill:#E0EDF2;stroke:#E0EDF2;stroke-width:0.1417;stroke-miterlimit:10;}
	.st8{fill:#E0EDF2;stroke:#E0EDF2;stroke-width:0.4252;stroke-miterlimit:10;}
	.st9{fill:#E0EDF2;stroke:#E0EDF2;stroke-width:0.5669;stroke-miterlimit:10;}
	.st10{fill:#E0EDF2;stroke:#E0EDF2;stroke-width:0.7087;stroke-miterlimit:10;}
	.st11{fill:#E0EDF2;}
	.st12{fill:#7C5543;stroke:#7B5744;stroke-miterlimit:10;}
	.st13{fill:#ECDDBB;stroke:#EEDFBE;stroke-miterlimit:10;}
	.st14{fill:#AF896D;stroke:#AF8A6D;stroke-miterlimit:10;}
	.st15{fill:#7B5744;}
	.st16{fill:#EEDFBE;}
	.st17{fill:#AF8A6D;}
	.st18{clip-path:url(#SVGID_2_);}
	.st19{fill:none;stroke:#AF8A6D;stroke-width:28.346;stroke-linecap:round;stroke-miterlimit:10;}
	.st20{fill:none;stroke:#7B5744;stroke-width:28.346;stroke-linecap:round;stroke-miterlimit:10;}
	.st21{fill:none;stroke:#EEDFBE;stroke-width:28.346;stroke-linecap:round;stroke-miterlimit:10;}
	.st22{clip-path:url(#SVGID_4_);fill:#010000;}
	.st23{fill:#010000;}
	.st24{fill:none;stroke:#EEDFBE;stroke-width:6;stroke-linecap:round;stroke-linejoin:round;}
	.st25{fill:none;stroke:#AF8A6D;stroke-width:13.1913;stroke-linecap:round;stroke-miterlimit:10;}
	.st26{fill:none;stroke:#EEDFBE;stroke-width:13.1913;stroke-linecap:round;stroke-miterlimit:10;}
	.st27{fill:none;stroke:#7B5744;stroke-width:13.1913;stroke-linecap:round;stroke-miterlimit:10;}
	.st28{fill:none;stroke:#7B5744;stroke-width:13.2334;stroke-linecap:round;stroke-miterlimit:10;}
	.st29{fill:#BD8A6D;}
	.st30{fill:#F2DEBA;}
	.st31{fill:#885441;}
	.st32{fill:none;stroke:#AF8A6D;stroke-width:4.0495;stroke-linecap:round;stroke-miterlimit:10;}
	.st33{fill:none;stroke:#EEDFBE;stroke-width:4.0495;stroke-linecap:round;stroke-miterlimit:10;}
	.st34{fill:none;stroke:#7B5744;stroke-width:4.0495;stroke-linecap:round;stroke-miterlimit:10;}
	.st35{fill:none;stroke:#A7C349;stroke-width:3;stroke-linecap:round;}
	.st36{fill:none;stroke:#BB474B;stroke-width:3;stroke-linecap:round;}
	.st37{enable-background:new    ;}
</style>
<g class="st37">
	<path class="st15" d="M2.4,12.7c0.4-0.1,0.8-0.2,1.1-0.2s0.7-0.2,1-0.2c0-0.4,0-0.8,0.1-1.2s0-0.8,0-1.1l-0.9,0.2
		c-0.3,0-0.4,0.1-0.5,0.1c-0.1,0-0.2,0-0.3-0.1c0,0,0,0-0.1,0c0,0,0,0,0,0l-0.3,0.6c-0.1,0.2-0.2,0.2-0.4,0.1
		c-0.1-0.1-0.2-0.2-0.3-0.3s-0.2-0.2-0.2-0.4c0-0.1,0-0.1-0.1-0.2c0-0.1,0-0.2,0.1-0.3c0.2-0.5,0.4-1,0.7-1.7s0.5-1.3,0.7-2L2.1,6
		C2,6,1.9,6,1.8,6C1.7,6,1.6,6,1.4,5.9c-0.1,0-0.2-0.1-0.4-0.1C1,5.8,0.8,5.7,0.7,5.6C0.6,5.6,0.5,5.5,0.5,5.4
		c0-0.1,0.1-0.1,0.3-0.1c0.3,0,0.6,0,0.9,0c0.2,0,0.4,0,0.6-0.1l1-0.1c0.2-0.5,0.3-1,0.4-1.5c0.1-0.4,0.2-0.8,0.3-1
		c0.1-0.4,0.2-0.7,0.2-0.9c0-0.2,0-0.5,0-0.9c0-0.2,0-0.3,0.1-0.4c0.1,0,0.2,0,0.3,0.1c0.2,0.1,0.4,0.3,0.6,0.5
		c0.2,0.2,0.4,0.4,0.5,0.6c0.1,0.1,0.1,0.2,0.1,0.4c0,0.1-0.1,0.3-0.2,0.5C5.4,2.6,5.3,2.9,5.3,3.1S5.1,3.6,5,3.8l-0.3,1L6,4.7
		c0.3,0,0.6-0.1,0.9-0.2C7,4.4,7.1,4.4,7.2,4.4c0.1,0,0.2,0.1,0.3,0.1c0.1,0.1,0.1,0.1,0.2,0.2s0.1,0.1,0.2,0.2
		C8,5.1,8.1,5.2,8.1,5.2S7.9,5.4,7.8,5.4c-0.1,0-0.3,0-0.5,0c-0.2,0-0.5,0-0.8,0.1s-0.6,0.1-1,0.1c-0.4,0-0.7,0.1-1.1,0.1
		C4.2,6.3,3.9,7,3.7,7.7S3.2,9,3,9.5c0.2,0,0.5-0.1,0.9-0.1l0.7-0.1v0c0-0.5,0-0.9,0-1.2c0-0.4,0-0.7-0.1-0.9c0-0.2,0-0.4,0.1-0.4
		c0.1,0,0.2,0,0.4,0.1C5,6.9,5.2,6.9,5.3,7c0.1,0.1,0.2,0.2,0.3,0.3c0.1,0.1,0.2,0.2,0.2,0.3c0,0.1,0,0.2,0,0.5c0,0.1,0,0.3-0.1,0.5
		c0,0.2,0,0.3,0,0.5c0.2,0,0.4-0.1,0.5-0.1c0.1-0.1,0.2-0.1,0.3-0.1c0.1,0,0.2,0,0.4,0.1C7.1,9,7.3,9,7.5,9.1
		c0.2,0.1,0.2,0.2,0.1,0.4c0,0,0,0.1,0,0.1C7.5,9.7,7.4,9.7,7.2,9.7H6.5L5.7,9.8V10l-0.1,2c0.2-0.1,0.5-0.1,0.8-0.2s0.6-0.1,0.9-0.2
		c0.2-0.1,0.3-0.1,0.4-0.1c0.1,0,0.2,0,0.2,0.1c0,0.1,0,0.1-0.1,0.2C7.7,11.9,7.6,12,7.5,12l-1.9,0.7c0,0.5,0,1,0,1.5
		c0,0.5,0,0.8,0,1.1c0,0.8-0.1,1.4-0.1,1.7c0,0.4-0.1,0.6-0.2,0.9c-0.1,0.4-0.4,0.5-0.8,0.1c-0.1-0.1-0.1-0.2-0.2-0.3
		c-0.1-0.1-0.2-0.2-0.3-0.4C4,17.3,4,17.2,4,17c0-0.1,0-0.3,0.1-0.6c0-0.1,0.1-0.4,0.1-0.8c0.1-0.4,0.1-0.9,0.1-1.4l0.1-1
		c-0.4,0.2-0.7,0.3-1,0.4c-0.3,0.1-0.6,0.3-0.8,0.4c-0.3,0.1-0.5,0.2-0.7,0.2c-0.2,0-0.4,0-0.6-0.2c-0.2-0.1-0.3-0.2-0.5-0.3
		c-0.2-0.1-0.4-0.2-0.6-0.4C0,13.3,0,13.2,0,13.1C0,13,0.1,13,0.3,13c0.2,0,0.3,0,0.5,0c0.1,0,0.3,0,0.4,0c0.1,0,0.3,0,0.5-0.1
		C1.9,12.8,2.1,12.8,2.4,12.7z M12.2,12.9c0,0.1,0,0.2,0,0.3c0,0.1,0,0.2,0,0.2c0,0.1,0,0.2,0,0.3c0,0.1,0,0.2,0,0.4L12,15.2
		c0.3,0,0.7,0,1.1-0.1c0.4,0,0.8,0,1.2-0.1c0.3,0,0.6-0.1,0.8-0.2c0.1-0.1,0.3-0.1,0.3-0.1s0.2,0,0.4,0.1c0.1,0.1,0.3,0.1,0.6,0.3
		s0.4,0.2,0.5,0.3s0.1,0.3,0.1,0.4C17,16,17,16.1,16.9,16.1c-0.1,0-0.1,0.1-0.2,0.1c-0.1,0-0.2,0-0.3,0c-0.4-0.1-0.8-0.1-1.1-0.1
		c-0.3,0-0.6,0-1,0c-0.5,0-1,0-1.5,0c-0.5,0-1.1,0-1.6,0.1c-0.5,0-1.1,0.1-1.6,0.1s-0.9,0.1-1.3,0.2c-0.2,0-0.4,0.1-0.5,0.1
		c-0.1,0-0.3,0-0.4-0.1c-0.4-0.1-0.7-0.3-1.1-0.6c-0.1-0.1-0.2-0.2-0.1-0.2c0-0.1,0.1-0.1,0.2-0.1c0.3,0,0.7,0,1.1,0.1s0.8,0,1.1,0
		c0.4,0,0.8-0.1,1.2-0.1c0.4,0,0.7-0.1,1-0.1c0-0.4,0-0.7,0.1-0.9s0-0.5,0-0.9c0-0.4,0-0.7,0-0.9c0-0.3,0-0.5-0.1-0.8l0,0l-0.7,0.1
		c-0.2,0-0.4,0-0.6,0c-0.1,0-0.3-0.1-0.6-0.3c-0.2-0.1-0.3-0.2-0.3-0.3s0.1-0.1,0.3-0.2c0.2,0,0.4,0,0.7-0.1s0.6-0.1,0.9-0.1
		c0.3,0,0.6-0.1,1-0.1c0.3,0,0.6-0.1,0.9-0.1c0.3-0.1,0.4-0.1,0.5-0.1c0.1,0,0.2-0.1,0.3-0.1c0.2-0.1,0.3-0.1,0.4-0.1
		s0.2,0.1,0.3,0.1c0.1,0.1,0.2,0.1,0.3,0.2c0.1,0.1,0.2,0.2,0.3,0.3c0.1,0.2,0.1,0.4-0.2,0.4c-0.5,0-1,0.1-1.5,0.1
		c-0.5,0-0.9,0.1-1.4,0.1c0.1,0.1,0.3,0.2,0.4,0.3c0.1,0.1,0.2,0.2,0.3,0.3c0.1,0.1,0.1,0.2,0.1,0.3C12.2,12.6,12.2,12.7,12.2,12.9z
		 M15.4,10c-0.2-0.2-0.4-0.4-0.7-0.7S14,8.8,13.7,8.5s-0.6-0.5-1-0.7S12.2,7.4,12,7.3l-0.1-0.1C11.1,7.9,10.4,8.6,9.7,9
		c-0.7,0.5-1.3,0.9-2,1.3c-0.2,0.1-0.3,0.1-0.3,0.1c0,0-0.1,0-0.1-0.1c-0.1-0.1,0-0.2,0.2-0.4c0.4-0.3,0.8-0.7,1.3-1.1
		C9.3,8.4,9.7,8,10.2,7.5s0.9-1.1,1.3-1.6s0.7-1.1,1-1.6c0-0.1,0-0.1,0-0.1c-0.1,0-0.3,0-0.5,0c-0.2,0-0.5,0.1-0.7,0.1
		c-0.3,0-0.6,0.1-0.8,0.1C10,4.5,9.8,4.5,9.5,4.6c-0.1,0-0.1,0-0.2,0c-0.1,0-0.2,0-0.3-0.1c-0.1,0-0.2-0.1-0.3-0.1
		c-0.1,0-0.2-0.1-0.3-0.2C8.3,4.1,8.3,4,8.3,4c0,0,0.1-0.1,0.3-0.1c0.2,0,0.4-0.1,0.6-0.1s0.4-0.1,0.5-0.1c0.6-0.1,1-0.2,1.4-0.3
		s0.8-0.1,1.2-0.2c0.1,0,0.2-0.1,0.3-0.1c0.1,0,0.2-0.1,0.3-0.1c0.1-0.1,0.3-0.1,0.4-0.1c0.1,0,0.2,0.1,0.4,0.2
		c0.1,0.1,0.2,0.2,0.4,0.4c0.2,0.2,0.3,0.4,0.3,0.5c0.1,0.2,0.1,0.3,0.1,0.4s-0.1,0.2-0.2,0.3C14,4.9,13.8,5,13.8,5.1
		c-0.1,0.1-0.2,0.2-0.4,0.4c-0.4,0.5-0.8,1-1.2,1.3c0.3,0.1,0.7,0.2,1,0.3c0.3,0.1,0.7,0.2,1,0.3c0.3,0.1,0.6,0.2,0.8,0.3
		c0.2,0.1,0.4,0.2,0.5,0.3c0.2,0.1,0.3,0.3,0.4,0.4c0.1,0.1,0.1,0.3,0.1,0.5c0,0.2,0,0.5,0,0.9c0,0.2-0.1,0.4-0.3,0.4
		C15.7,10.3,15.5,10.2,15.4,10z"/>
	<path class="st15" d="M23.9,9.1c0.2-0.4,0.3-0.7,0.4-0.9c0.1-0.2,0.2-0.4,0.2-0.6c-0.6,0.1-1.2,0.2-1.7,0.4
		c-0.3,0.1-0.4,0.1-0.5,0.1S22,8,21.8,8c-0.2-0.1-0.5-0.2-0.8-0.3c-0.1-0.1-0.2-0.1-0.1-0.2c0-0.1,0.1-0.1,0.3-0.1
		c0.1,0,0.3,0,0.4,0c0.1,0,0.2,0,0.4,0c0.1,0,0.3,0,0.5-0.1c0.2,0,0.4-0.1,0.6-0.1l1.6-0.4l0.1-3.9c0-0.4,0-0.7-0.1-1
		c-0.1-0.3-0.2-0.6-0.3-1c-0.1-0.3-0.2-0.5-0.1-0.6c0.1-0.1,0.3,0,0.5,0.2C25,0.6,25.2,0.8,25.4,1c0.2,0.2,0.3,0.3,0.4,0.3
		c0.1,0.2,0.2,0.3,0.3,0.4s0,0.3,0,0.5C26,2.5,26,2.8,26,3c0,0.2,0,0.4,0,0.6c0,0.2,0,0.6,0,1.1c0,0.5,0,1.1,0,1.8
		c0.1,0,0.2-0.1,0.3-0.1c0.1,0,0.2-0.1,0.3-0.2c0.1-0.1,0.2-0.1,0.3-0.1c0.1,0,0.2,0,0.4,0c0.2,0,0.3,0.1,0.5,0.2
		C27.9,6.4,28,6.4,28,6.5c0.2,0.1,0.2,0.3,0.2,0.4c0,0.1-0.1,0.2-0.1,0.2c-0.1,0.1-0.2,0.1-0.4,0.1c-0.2,0-0.5,0-0.7,0
		c-0.2,0-0.4,0-0.5,0l-0.7,0.1c0,0.4,0,0.9,0,1.3c0,0.4,0,0.9,0,1.3c0.1,0,0.3,0.1,0.5,0.2s0.3,0.1,0.5,0.2c0.1,0.1,0.3,0.1,0.4,0.2
		c0.1,0.1,0.2,0.1,0.3,0.2c0.1,0.1,0.2,0.2,0.2,0.3c0,0.1,0,0.2,0,0.3c0,0.1,0,0.2-0.1,0.3c-0.1,0.1-0.1,0.3-0.2,0.3
		c-0.3,0.3-0.5,0.3-0.7-0.1c-0.1-0.2-0.2-0.4-0.3-0.6c-0.2-0.2-0.3-0.5-0.5-0.7c0,0.6,0,1.1,0,1.6c0,0.5,0,1,0,1.4
		c0,0.4,0,0.8,0,1.1c0,0.3,0,0.5,0,0.6c0,0.4,0,0.7,0,1c0,0.3,0,0.5-0.1,0.7c0,0.2,0,0.4-0.1,0.5c0,0.1-0.1,0.3-0.1,0.4
		c-0.1,0.3-0.2,0.4-0.3,0.4c-0.1,0-0.3-0.1-0.5-0.4c-0.1-0.1-0.2-0.2-0.4-0.5s-0.3-0.5-0.4-0.7c-0.1-0.2-0.1-0.3,0.1-0.4
		c0.2-0.1,0.3-0.2,0.3-0.3c0-0.1,0.1-0.3,0.1-0.5c0-0.5,0.1-1.3,0.1-2.3s0.1-2.1,0.1-3.3c-0.5,0.8-1,1.5-1.6,2.2
		c-0.6,0.7-1.3,1.4-2.1,1.9c-0.1,0.1-0.2,0.1-0.3,0.1c-0.1,0-0.2,0-0.2,0c0,0,0-0.1,0-0.2c0-0.1,0.1-0.2,0.2-0.2
		c0.6-0.8,1.2-1.6,1.8-2.5C23,10.7,23.5,9.9,23.9,9.1z M29.4,6.4c0.1-0.3,0.2-0.5,0.3-0.7s0.1-0.4,0.1-0.6c0-0.3,0.2-0.3,0.5-0.1
		c0.2,0.1,0.3,0.3,0.4,0.4c0.1,0.1,0.2,0.3,0.3,0.4C31,5.9,31.1,6,31.1,6c0,0.1,0,0.1-0.1,0.2c-0.2,0.3-0.4,0.6-0.6,1
		s-0.5,0.7-0.8,1s-0.6,0.7-0.9,1c-0.3,0.3-0.7,0.6-1.1,0.8c-0.1,0.1-0.2,0.1-0.3,0.1c-0.1,0-0.2,0-0.2,0c-0.1-0.1,0-0.2,0.1-0.4
		c0.3-0.3,0.5-0.6,0.7-0.9c0.2-0.3,0.4-0.6,0.6-0.8s0.3-0.5,0.5-0.8S29.3,6.7,29.4,6.4z M34.5,16.1c-0.1-0.4-0.3-0.9-0.5-1.5
		c-0.4,0.1-0.8,0.2-1.2,0.3c-0.4,0.1-0.8,0.2-1.1,0.3c-0.4,0.1-0.7,0.2-1,0.2c-0.3,0.1-0.5,0.1-0.6,0.2c-0.2,0.1-0.4,0.1-0.7,0.2
		c-0.3,0.1-0.5,0.2-0.6,0.3c-0.2,0.1-0.4,0.1-0.5-0.1c-0.1-0.1-0.2-0.2-0.3-0.3c-0.1-0.1-0.2-0.3-0.3-0.5c-0.1-0.1-0.1-0.2-0.1-0.3
		c0-0.1,0-0.2,0.2-0.2c0.2-0.1,0.4-0.2,0.5-0.3c0.1-0.1,0.2-0.2,0.4-0.4c0.2-0.3,0.4-0.6,0.6-0.9c0.2-0.4,0.4-0.7,0.6-1.1
		s0.4-0.8,0.5-1.2c0.2-0.4,0.3-0.7,0.4-1.1c0.1-0.2,0.1-0.4,0.1-0.6s0-0.4,0-0.5c0-0.3,0.1-0.3,0.4-0.2c0.2,0.1,0.4,0.2,0.6,0.4
		c0.2,0.2,0.4,0.4,0.5,0.5c0.2,0.2,0.2,0.3,0,0.5c-0.2,0.2-0.4,0.5-0.7,1c-0.2,0.3-0.4,0.7-0.6,1c-0.2,0.4-0.5,0.7-0.7,1
		c-0.2,0.3-0.5,0.7-0.7,1c-0.2,0.3-0.4,0.6-0.6,0.8l4.5-0.5c-0.2-0.3-0.3-0.7-0.5-1c-0.2-0.4-0.4-0.7-0.6-1.1
		c-0.1-0.2-0.2-0.4,0-0.4c0.1,0,0.3,0,0.4,0.1c0.3,0.2,0.6,0.4,0.9,0.7c0.3,0.3,0.5,0.5,0.8,0.8s0.5,0.5,0.6,0.7
		c0.2,0.2,0.3,0.4,0.4,0.6c0.2,0.2,0.2,0.4,0.2,0.6c0,0.2,0,0.3-0.1,0.5c-0.1,0.1-0.2,0.3-0.3,0.4c-0.1,0.1-0.2,0.3-0.4,0.4
		C34.8,16.7,34.6,16.6,34.5,16.1z M39.2,9.9c0,0.1-0.1,0.2-0.3,0.2s-0.4,0-0.7-0.1c-0.2,0-0.5,0-0.9-0.1c-0.4,0-0.9,0-1.4,0
		c-0.3,0-0.6,0-0.7-0.1c-0.2-0.1-0.3-0.3-0.5-0.5c-0.1-0.1-0.2-0.3-0.3-0.4S34.2,8.4,34,8.1c-0.2-0.3-0.4-0.7-0.6-1.1
		c-0.2-0.4-0.5-1-0.9-1.6c-0.4-0.8-0.8-1.4-1.2-1.9c-0.4-0.5-0.8-0.9-1.1-1.1c-0.1-0.1-0.1-0.1-0.2-0.2c0-0.1,0-0.1,0.1-0.1
		c0.1,0,0.2,0,0.4-0.1c0.2,0,0.3,0,0.3,0c0.1,0,0.2,0,0.3,0.1c0.1,0,0.2,0.1,0.2,0.2c0.2,0.2,0.5,0.5,0.7,0.8c0.2,0.3,0.5,0.7,0.8,1
		c0.5,0.7,0.9,1.3,1.3,1.7c0.4,0.5,0.7,0.9,0.9,1.2c0.2,0.3,0.4,0.5,0.5,0.6C35.8,7.7,36,7.9,36.1,8c0.1,0.1,0.3,0.2,0.4,0.3
		s0.3,0.1,0.4,0.2c0.5,0.3,0.9,0.4,1.1,0.6s0.5,0.2,0.6,0.3c0.2,0.1,0.4,0.2,0.4,0.3S39.2,9.8,39.2,9.9z"/>
	<path class="st15" d="M46.2,3.2c0.1-0.2,0.2-0.4,0.2-0.5c0-0.1,0.1-0.3,0.1-0.4c0-0.1,0-0.3,0.1-0.4c0-0.1,0-0.3,0-0.5
		c0-0.2,0-0.4,0.1-0.4s0.2,0,0.4,0.2c0.4,0.3,0.7,0.7,0.9,1c0.1,0.2,0.2,0.3,0.1,0.5c0,0.1-0.1,0.3-0.2,0.5l-0.5,1
		C47.8,4,48,4.1,48.3,4.2c0.3,0.1,0.5,0.2,0.8,0.4c0.3,0.1,0.5,0.3,0.8,0.4c0.2,0.1,0.5,0.3,0.6,0.4c0.1,0.1,0.2,0.2,0.2,0.3
		s0.1,0.2,0,0.4c0,0.1,0,0.3-0.1,0.4c0,0.2-0.1,0.3-0.2,0.5c-0.1,0.2-0.2,0.2-0.3,0.2c-0.1,0-0.2-0.1-0.3-0.2
		c-0.4-0.4-0.8-0.8-1.3-1.3c-0.5-0.4-0.9-0.9-1.4-1.2c-0.4,0.6-0.8,1.3-1.2,1.9c-0.4,0.6-0.9,1.2-1.4,1.8c0,0,0.1,0,0.1,0
		c0,0,0,0,0.1,0c0.1,0,0.2,0.1,0.3,0.1c0.1,0.1,0.2,0.1,0.3,0.2c0.1,0,0.3,0,0.3,0c0.1,0,0.2,0,0.4-0.1c0.3,0,0.5-0.1,0.7-0.1
		c0.2,0,0.4-0.1,0.6-0.1c0.2,0,0.4-0.1,0.5-0.2C48,7.9,48.3,8,48.5,8.1c0.2,0.2,0.4,0.3,0.5,0.5c0.1,0.1,0.1,0.2,0.1,0.3
		s0,0.3,0,0.5c0,0.2-0.1,0.5-0.1,0.8s-0.1,0.6-0.1,0.9c-0.1,0.3-0.1,0.6-0.2,0.8c-0.1,0.3-0.1,0.5-0.2,0.6c-0.1,0.2-0.2,0.3-0.3,0.4
		c-0.1,0.1-0.2,0.2-0.3,0.3c0,0-0.1,0.1-0.2,0.1s-0.1,0.1-0.2,0.1c-0.2,0-0.3-0.1-0.4-0.3c0-0.1-0.1-0.3-0.3-0.4s-0.3-0.4-0.6-0.6
		c-0.1-0.1-0.1-0.1-0.1-0.2c0-0.1,0.1-0.1,0.2-0.1l0.7,0.1c0.1,0,0.1,0,0.1,0c0,0,0.1,0,0.1-0.1c0.1-0.2,0.1-0.4,0.2-0.6
		s0.1-0.5,0.1-0.7s0.1-0.5,0.1-0.7s0-0.5,0-0.7c0-0.1-0.1-0.1-0.2-0.1c-0.2,0-0.4,0-0.7,0.1S46.4,9,46.1,9.1c-0.1,0-0.1,0-0.2,0
		c0,0-0.1,0-0.1,0c0,0.1,0,0.3,0,0.4c0,0.1,0,0.3-0.1,0.5c0,0.2,0,0.4,0,0.6c-0.1,0.6-0.1,1.2-0.1,1.8c0,0.6,0,1.1,0,1.4
		c0,0.4,0.1,0.7,0.2,0.9c0.1,0.2,0.4,0.3,0.7,0.4c0.4,0.1,0.8,0.1,1.2,0.1s0.7-0.1,1-0.2c0.2-0.1,0.3-0.2,0.4-0.3
		c0.1-0.2,0.2-0.3,0.2-0.5c0-0.1,0.1-0.2,0.1-0.4s0.1-0.3,0.1-0.5c0-0.2,0.1-0.3,0.1-0.4c0-0.1,0-0.2,0-0.3c0-0.3,0.1-0.4,0.2-0.4
		c0.1,0,0.2,0.1,0.2,0.4c0.1,0.5,0.1,0.9,0.2,1.3s0.2,0.7,0.3,1c0.1,0.2,0.2,0.4,0.1,0.5s-0.1,0.3-0.2,0.4c-0.1,0.1-0.2,0.2-0.3,0.2
		c-0.1,0.1-0.2,0.1-0.3,0.1c-0.3,0.1-0.5,0.2-0.9,0.3s-0.7,0.1-1,0.1c-0.4,0-0.7,0-1,0c-0.3,0-0.6-0.1-0.9-0.1
		c-0.5-0.1-0.9-0.4-1.2-0.7s-0.5-0.9-0.5-1.5c0-0.2,0-0.5,0-0.8c0-0.3,0-0.7,0-1s0-0.8,0-1.2c0-0.4,0-0.8,0-1.1c0-0.2,0-0.5,0-0.7
		c0-0.2-0.1-0.5-0.1-0.9c0,0,0,0,0,0s0,0,0,0c-0.5,0.5-0.9,1-1.5,1.4c-0.5,0.4-1,0.8-1.6,1.1c-0.3,0.1-0.4,0.2-0.5,0.1
		c0,0-0.1-0.1-0.1-0.1c0-0.1,0.1-0.2,0.2-0.3c0.6-0.6,1.2-1.2,1.7-1.8s1-1.2,1.5-1.9C44.6,6.2,45,5.6,45.4,5
		C45.7,4.4,46,3.8,46.2,3.2z M52.3,4.9c0.1,0.1,0.3,0.2,0.4,0.3c0.1,0.1,0.3,0.2,0.4,0.3c0.1,0.1,0.2,0.2,0.2,0.3c0,0.1,0,0.2,0,0.4
		c0,0.2-0.1,0.5-0.1,0.8c0,0.3,0,0.6,0,0.8c0,0.2,0,0.5,0,0.7c0,0.2,0,0.5,0,0.8s0,0.6,0,1c0,0.7,0,1.2,0,1.5c0,0.3-0.1,0.6-0.1,0.8
		c-0.1,0.2-0.1,0.2-0.2,0.3c-0.1,0-0.2,0-0.3-0.1c-0.1,0-0.2-0.1-0.3-0.2s-0.2-0.2-0.3-0.3c-0.2-0.1-0.2-0.4-0.1-0.7
		s0.1-0.9,0.2-1.7c0-0.2,0-0.4,0-0.6c0-0.2,0-0.3,0-0.5c0-0.2,0-0.3,0-0.5c0-0.2,0-0.4,0-0.6C52,7,52,6.4,51.9,6s-0.1-0.7-0.1-0.9
		c0-0.2,0-0.3,0-0.3C51.9,4.7,52,4.7,52.3,4.9z M54.9,3.8c0-0.3,0-0.7-0.1-1c0-0.4-0.1-0.7-0.2-0.9c0-0.1-0.1-0.2-0.1-0.3
		s-0.1-0.3-0.2-0.5c-0.1-0.2-0.1-0.4,0-0.4c0.1-0.1,0.2,0,0.5,0.1c0.3,0.1,0.5,0.3,0.8,0.5c0.2,0.2,0.4,0.3,0.5,0.4
		c0.2,0.2,0.2,0.3,0.3,0.4c0,0.1,0,0.3,0,0.5c0,0.3,0,0.5-0.1,0.8c0,0.2,0,0.5,0,0.9c0,1,0,2.2,0.1,3.3c0,1.2,0,2.3,0,3.4
		c0,1.1,0,2.1,0,3c0,0.9,0,1.7,0,2.2c0,0.3,0,0.5-0.1,0.7s-0.1,0.3-0.1,0.5c0,0.2-0.1,0.4-0.2,0.6c-0.1,0.2-0.3,0.4-0.4,0.6
		c-0.2,0.2-0.4,0.3-0.6,0.2s-0.3-0.2-0.4-0.4c-0.1-0.2-0.1-0.3-0.2-0.5s-0.2-0.3-0.4-0.5c-0.2-0.2-0.3-0.4-0.5-0.5
		c-0.2-0.2-0.4-0.3-0.6-0.5c-0.2-0.2-0.3-0.3-0.3-0.4s0.2-0.1,0.4-0.1c0.5,0.1,1,0.2,1.5,0.3c0.2,0,0.3,0,0.3,0c0,0,0.1-0.1,0.1-0.2
		c0-0.1,0-0.4,0.1-0.9s0-1,0-1.6c0-0.7,0-1.4,0-2.2c0-0.8,0-1.6,0-2.5c0-0.9,0-1.7,0-2.5C55,5.4,55,4.6,54.9,3.8z"/>
	<path class="st15" d="M65.8,3.1c0.3,0,0.6,0,0.9,0c0.3,0,0.7-0.1,1.2-0.1c0.6-0.1,1.1-0.2,1.4-0.2c0.4,0,0.7-0.1,1-0.1
		c0.3,0,0.7-0.1,1.1-0.1c0.4,0,0.9-0.1,1.6-0.2c0.2,0,0.4-0.1,0.5-0.1c0.1,0,0.3-0.1,0.4-0.2C73.9,2,74,2,74.1,2c0.1,0,0.2,0,0.4,0
		c0.3,0,0.5,0.1,0.7,0.2c0.2,0.1,0.3,0.1,0.4,0.2c0.1,0.1,0.2,0.2,0.1,0.4c0,0.1-0.1,0.2-0.2,0.3c-0.1,0-0.1,0.1-0.2,0.1
		c-0.1,0-0.2,0-0.3,0c-0.3,0-0.6,0-0.9,0c-0.3,0-0.7,0-1,0.1c0,0,0,0-0.1,0s0,0,0,0c0.2,0.1,0.3,0.2,0.4,0.4s0.3,0.2,0.4,0.4
		c0.1,0.1,0.1,0.2,0.1,0.2c0,0.1,0,0.2-0.2,0.3l-0.4,0.4c-0.2,0.2-0.3,0.3-0.5,0.4c-0.1,0.1-0.3,0.2-0.4,0.3c0.4,0,0.8-0.1,1.2-0.1
		c0.4,0,0.9-0.1,1.4-0.1c0.2,0,0.4-0.1,0.6-0.1c0.2,0,0.3-0.1,0.4-0.1c0.2-0.1,0.3-0.1,0.4-0.1c0.1,0,0.2,0,0.4,0.1
		c0.3,0.1,0.6,0.1,0.8,0.2c0.3,0.1,0.5,0.2,0.6,0.3c0.2,0.1,0.2,0.3,0.2,0.4c0,0.1-0.1,0.2-0.1,0.3c-0.1,0.1-0.1,0.1-0.2,0.1
		s-0.2,0-0.4,0c-0.4,0-0.9-0.1-1.3-0.1c-0.4,0-0.9,0-1.3,0c-1.7,0-3.4,0.2-5.1,0.4s-3.4,0.5-5.1,0.7c-0.3,0.1-0.5,0.1-0.7,0.1
		c-0.2,0-0.4,0-0.5-0.1c-0.2-0.1-0.4-0.1-0.6-0.2c-0.2-0.1-0.4-0.2-0.6-0.3c-0.1-0.1-0.2-0.2-0.1-0.2c0-0.1,0.1-0.1,0.3-0.1
		c0.2,0,0.5,0,0.7,0s0.4,0,0.6,0c0.2,0,0.4,0,0.6,0c0.2,0,0.4,0,0.7-0.1l3.5-0.5c-0.1,0-0.1-0.1-0.2-0.1s-0.1-0.1-0.1-0.2
		c-0.1-0.2-0.1-0.3-0.1-0.4s-0.1-0.2-0.1-0.3S68,4.6,68,4.5c-0.1-0.1-0.1-0.2-0.2-0.3C67.6,4,67.7,4,68,4.1c0.3,0.1,0.5,0.2,0.7,0.3
		c0.2,0.1,0.3,0.2,0.4,0.3c0.1,0,0.1,0,0.2,0c0.1-0.1,0.2-0.1,0.3-0.2c0.1-0.1,0.2-0.1,0.3-0.2c0.1-0.1,0.1-0.1,0.2,0
		c0,0,0,0.1,0,0.1L69.6,5c0,0.1-0.1,0.2-0.1,0.3c0,0.1-0.1,0.2-0.1,0.4c0,0,0,0,0,0.1c0,0,0,0,0,0c0.4-0.1,0.9-0.1,1.2-0.1
		s0.7-0.1,1.1-0.1c0.1-0.2,0.3-0.5,0.4-0.7c0.1-0.2,0.2-0.5,0.3-0.7c0.1-0.2,0.1-0.4,0.2-0.6c0-0.2,0.1-0.3,0.1-0.4
		c-0.9,0.1-1.8,0.2-2.6,0.3c-0.8,0.1-1.6,0.2-2.3,0.4c-0.3,0.1-0.5,0.1-0.6,0.1s-0.3,0-0.4-0.1c-0.4-0.1-0.7-0.2-0.9-0.4
		c-0.1-0.1-0.1-0.1-0.1-0.2C65.6,3.2,65.7,3.1,65.8,3.1z M64.1,15.9c0.2-0.2,0.3-0.3,0.4-0.5c0.1-0.2,0.2-0.5,0.3-0.7
		c0.1-0.3,0.2-0.6,0.3-1c0.1-0.2,0.2-0.3,0.3-0.3c0.1,0,0.2,0.1,0.2,0.4c0.1,0.5,0.1,0.9,0.1,1.3c0,0.4,0,0.7-0.1,1
		c-0.1,0.3-0.2,0.6-0.3,0.9c-0.2,0.3-0.3,0.5-0.5,0.7c-0.2,0.2-0.4,0.1-0.5-0.1c-0.1-0.2-0.2-0.3-0.2-0.4c0-0.1-0.1-0.3-0.2-0.4
		C63.8,16.3,63.9,16.1,64.1,15.9z M74.7,8.6c0.1,0.1,0.1,0.2,0.1,0.3c0,0.1,0,0.2-0.1,0.4c-0.1,0.3-0.2,0.6-0.4,1
		c-0.1,0.3-0.3,0.7-0.4,1c-0.1,0.3-0.3,0.6-0.4,0.9s-0.2,0.5-0.3,0.6c-0.1,0.1-0.1,0.2-0.2,0.2c-0.1,0-0.1,0-0.2-0.1
		c-0.1-0.1-0.2-0.1-0.3-0.2s-0.2-0.2-0.2-0.3c-0.2,0-0.4,0-0.7,0c-0.3,0-0.6,0-1,0.1c-0.3,0-0.7,0.1-1.1,0.1s-0.7,0.1-1,0.1
		c-0.1,0-0.1,0-0.2,0c0,0.2-0.1,0.3-0.4,0.2c-0.3,0-0.5-0.1-0.7-0.2c-0.1,0-0.1-0.1-0.1-0.1c0-0.1-0.1-0.1-0.1-0.3
		c0-0.2-0.1-0.4-0.1-0.6c0-0.2-0.1-0.5-0.1-0.7c0-0.3-0.1-0.5-0.1-0.7c0-0.2-0.1-0.5-0.1-0.6c-0.1-0.2-0.1-0.4-0.2-0.6
		c-0.1-0.2-0.2-0.4-0.3-0.6c-0.2-0.3-0.1-0.4,0.2-0.4c0.2,0,0.4,0.1,0.6,0.2c0.2,0.1,0.4,0.2,0.6,0.3c0,0,0.1,0,0.2,0
		c0.6,0,1.1-0.1,1.4-0.1c0.4-0.1,1-0.1,1.6-0.2c0.6-0.1,1.2-0.1,1.8-0.2c0.1,0,0.2,0,0.3-0.1c0.1,0,0.2-0.1,0.3-0.1
		c0.2-0.1,0.3-0.1,0.4-0.1c0.1,0,0.2,0.1,0.4,0.2c0.2,0.2,0.4,0.3,0.6,0.5C74.5,8.3,74.7,8.5,74.7,8.6z M67.5,15
		c-0.1-0.2-0.1-0.3-0.2-0.5s-0.2-0.3-0.3-0.5c-0.1-0.1-0.1-0.2-0.1-0.2c0,0,0.1,0,0.3,0c0.2,0.1,0.3,0.1,0.4,0.2
		c0.1,0,0.2,0.1,0.3,0.1c0.1,0.1,0.1,0.1,0.2,0.2c0,0.1,0.1,0.1,0.2,0.2c0.3,0.6,0.7,1.1,1,1.4c0.3,0.3,0.8,0.6,1.3,0.8
		c0.2,0.1,0.4,0.1,0.8,0.2s0.7,0.1,1,0.1c0.4,0,0.7,0,1,0c0.3,0,0.6,0,0.8,0c0,0,0.1,0,0.1-0.1c0,0,0-0.1,0-0.2L73.6,15
		c-0.1-0.2-0.1-0.4,0-0.4c0.1,0,0.2,0,0.4,0.3c0.2,0.2,0.3,0.4,0.5,0.5c0.1,0.2,0.3,0.3,0.4,0.4c0.1,0.1,0.3,0.2,0.4,0.4
		c0.1,0.1,0.3,0.2,0.5,0.4c0.3,0.2,0.5,0.4,0.7,0.5s0.2,0.3,0.2,0.4c0,0.1,0,0.2-0.1,0.3s-0.2,0.1-0.4,0.2c-0.1,0.1-0.4,0.1-0.9,0.2
		c-0.5,0.1-1,0.1-1.6,0.1c-0.6,0-1.2,0-1.9,0c-0.6,0-1.2-0.2-1.6-0.3c-0.3-0.1-0.7-0.3-0.9-0.4c-0.3-0.1-0.5-0.3-0.7-0.5
		s-0.4-0.5-0.6-0.8C67.9,15.8,67.7,15.4,67.5,15z M70.7,11.6c0.2,0,0.3-0.1,0.5-0.1c0.1,0,0.3,0,0.3-0.1c0.2-0.1,0.4-0.1,0.6,0
		c0.1,0,0.2,0.1,0.2,0.2c0.1-0.2,0.1-0.4,0.2-0.7s0.2-0.5,0.3-0.8s0.2-0.6,0.2-0.9C73,9,73.1,8.8,73.1,8.5c0-0.1,0-0.2-0.1-0.1
		c-0.1,0-0.3,0-0.7,0c-0.3,0-0.7,0.1-1,0.1c-0.4,0-0.8,0.1-1.2,0.1S69.3,8.8,69,8.8c-0.2,0-0.3,0-0.4,0c-0.1,0-0.2,0-0.3,0
		c-0.1,0-0.2-0.1-0.2-0.1c-0.1,0-0.2-0.1-0.2-0.1l0,0.3c0,0.1,0,0.2,0.1,0.4c0,0.2,0,0.4,0.1,0.6c0.3,0,0.7-0.1,1.1-0.1
		c0.4-0.1,0.8-0.1,1.2-0.2L71,9.6c0.1,0,0.2-0.1,0.3-0.1c0.1,0,0.1,0,0.2,0.1c0,0,0.1,0.1,0.2,0.2c0.1,0.1,0.2,0.2,0.3,0.3
		c0.1,0.1,0.1,0.1,0.1,0.2c0,0-0.1,0.1-0.2,0.1c-0.1,0-0.3,0-0.5,0.1c-0.2,0-0.5,0-0.7,0.1c-0.3,0-0.5,0.1-0.8,0.1s-0.5,0-0.8,0.1
		c-0.2,0-0.4,0-0.5,0c-0.1,0-0.2,0-0.3,0c0,0-0.1,0-0.1,0l0.1,1.4l0.7-0.1L70.7,11.6z M70.1,2.1c0.1-0.2,0.1-0.3,0.1-0.4
		c0-0.2,0-0.3-0.1-0.5c-0.1-0.1-0.2-0.3-0.3-0.4c-0.1-0.1-0.2-0.2-0.4-0.4c-0.1-0.2-0.2-0.3-0.1-0.4C69.3,0,69.5,0,69.6,0
		c0.4,0.1,0.7,0.2,1.1,0.4c0.3,0.1,0.6,0.3,0.7,0.3c0.2,0.1,0.3,0.2,0.3,0.3c0,0.1,0.1,0.1,0.1,0.2c0,0.1-0.1,0.3-0.3,0.4
		C71.3,1.8,71.2,1.9,71,2c-0.2,0.1-0.4,0.2-0.5,0.3c-0.2,0.1-0.3,0.1-0.4,0.1c0,0,0-0.1-0.1-0.1C70.1,2.3,70.1,2.2,70.1,2.1z
		 M70.3,14.2c0-0.4-0.1-0.7-0.3-0.9C70,13.1,70,13.1,70,13c0,0,0.2,0,0.4,0c0.3,0.1,0.4,0.1,0.5,0.2s0.2,0.1,0.2,0.2
		c0,0,0.1,0,0.2,0.1c0.1,0,0.2,0,0.3,0l0.6-0.2c0.1,0,0.2,0,0.2,0s0,0.1-0.1,0.2l-0.7,0.7c0,0-0.1,0.1-0.1,0.1c0,0.1,0,0.1,0,0.1
		c0,0.1,0,0.2,0,0.3c0,0.1,0,0.2,0,0.2c0,0.2-0.2,0.3-0.4,0.2c-0.3-0.1-0.5-0.3-0.7-0.5c-0.1-0.1-0.1-0.1-0.1-0.2
		C70.4,14.4,70.3,14.3,70.3,14.2z M78.4,15.6c-0.2,0-0.3,0-0.4-0.1c-0.1-0.1-0.2-0.2-0.3-0.3c-0.3-0.3-0.6-0.6-0.9-0.9
		s-0.7-0.5-1.2-0.8c-0.3-0.1-0.4-0.3-0.3-0.3s0.2-0.1,0.4-0.1l1.2-0.1c0.3,0,0.5,0,0.6,0c0.1,0,0.3,0.2,0.5,0.3
		c0.2,0.2,0.3,0.3,0.5,0.5c0.2,0.2,0.3,0.4,0.5,0.6c0.1,0.1,0.1,0.2,0.1,0.4c0,0.2,0,0.3-0.1,0.4c0,0.1-0.1,0.1-0.2,0.2
		C78.6,15.5,78.5,15.6,78.4,15.6z"/>
	<path class="st15" d="M85.6,15.9c0,0.4-0.1,0.8-0.4,1.2c-0.3,0.4-0.6,0.8-1.1,1.1c-0.1,0.1-0.2,0.1-0.3,0.2s-0.2,0-0.3,0
		s-0.1,0-0.1-0.1s0.1-0.2,0.3-0.4c0.2-0.2,0.4-0.4,0.5-0.6s0.2-0.3,0.2-0.4c0-0.1,0-0.2,0-0.2c-0.1,0-0.1-0.1-0.2-0.1
		c-0.1,0-0.2-0.1-0.3-0.3c-0.1-0.1-0.2-0.3-0.2-0.6c0-0.2,0.1-0.4,0.3-0.6c0.2-0.1,0.4-0.2,0.7-0.2c0.4,0,0.6,0.1,0.8,0.3
		C85.5,15.3,85.6,15.6,85.6,15.9z"/>
	<path class="st15" d="M115.5,4.5c0.1,0.1,0.1,0.2,0.1,0.3c0,0.1,0,0.3-0.1,0.5c-0.1,0.4-0.2,0.8-0.3,1.2c-0.1,0.4-0.2,0.9-0.4,1.3
		s-0.3,0.8-0.4,1.2s-0.3,0.7-0.4,0.9c-0.1,0.1-0.1,0.2-0.2,0.2c0,0-0.1,0-0.2-0.1c-0.1-0.1-0.1-0.1-0.2-0.2c-0.1,0-0.1-0.1-0.2-0.2
		c-0.2,0-0.5,0-0.8,0.1c-0.3,0-0.7,0.1-1.1,0.1s-0.8,0.1-1.2,0.1c-0.4,0.1-0.8,0.1-1.1,0.1c-0.1,0-0.3,0-0.4,0
		c0,0.6-0.1,1.1-0.1,1.7s-0.1,1.1-0.1,1.6c0,0.5-0.1,0.9-0.1,1.3s0,0.6-0.1,0.8c0,0.1,0,0.1,0.1,0c0.3-0.3,0.6-0.5,0.9-0.8
		c0.3-0.3,0.6-0.6,1-1c0.2-0.2,0.3-0.2,0.4-0.1c0.1,0.1,0.1,0.2,0,0.3c-0.1,0.1-0.1,0.2-0.1,0.3c-0.5,0.7-1,1.4-1.4,2.1
		s-0.9,1.4-1.3,2.1c-0.1,0.2-0.2,0.3-0.3,0.3s-0.2-0.1-0.3-0.2c-0.2-0.2-0.3-0.3-0.4-0.5c-0.1-0.1-0.2-0.3-0.2-0.4
		c-0.1-0.1-0.1-0.2-0.1-0.3c0-0.1,0-0.2,0.1-0.4c0.1-0.3,0.2-0.6,0.2-0.8c0-0.2,0.1-0.4,0.1-0.9c0-0.4,0.1-0.9,0.1-1.5
		c0-0.6,0.1-1.2,0.1-1.8c0-0.6,0.1-1.3,0.1-1.9c0-0.6,0.1-1.2,0.1-1.8c0-0.5,0-1,0.1-1.4c0-0.3,0-0.6,0-0.9s0-0.5,0-0.6
		c0-0.2,0-0.4-0.1-0.5s-0.1-0.4-0.1-0.6s0-0.3,0.1-0.3s0.2,0.1,0.3,0.2c0.1,0.1,0.2,0.1,0.3,0.2c0.1,0.1,0.2,0.2,0.3,0.3l0.2-0.1
		c0.2,0,0.5-0.1,0.8-0.1s0.5-0.1,0.7-0.1c0.4-0.1,0.9-0.2,1.4-0.3c0.5-0.1,1-0.2,1.5-0.3c0.2,0,0.3-0.1,0.4-0.1
		c0.1,0,0.2-0.1,0.3-0.1c0.2-0.1,0.4-0.1,0.5-0.1s0.3,0.1,0.5,0.2c0.1,0.1,0.3,0.2,0.5,0.4S115.4,4.3,115.5,4.5z M109.4,9.3
		c0.2,0,0.4-0.1,0.6-0.1c0.2,0,0.3,0,0.5-0.1c0.2,0,0.3,0,0.5-0.1c0.2,0,0.4-0.1,0.6-0.1c0.2,0,0.4-0.1,0.5-0.1
		c0.1,0,0.2-0.1,0.4-0.1c0.1-0.1,0.2-0.1,0.3-0.1c0.1,0,0.2,0,0.2,0.1l0.1,0.1c0.1-0.3,0.2-0.7,0.3-1.1s0.2-0.8,0.2-1.2
		c0.1-0.4,0.1-0.8,0.2-1.1s0.1-0.6,0.1-0.9c0,0,0-0.1,0-0.1c0,0-0.1-0.1-0.2-0.1c-0.2,0-0.5,0-0.8,0.1s-0.7,0.1-1,0.2
		c-0.4,0.1-0.7,0.1-1.1,0.2s-0.7,0.2-1,0.2c-0.2,0-0.3,0.1-0.4,0c-0.1,0-0.2,0-0.3-0.1c-0.1,0-0.1-0.1-0.2-0.1c-0.1,0-0.1,0-0.2-0.1
		c0.1,0.1,0.1,0.1,0.1,0.2c0,0.1,0.1,0.1,0.1,0.2c0.1,0.1,0.1,0.2,0.1,0.3c0,0.1,0,0.2,0,0.4c0,0.4-0.1,0.8-0.1,1.4
		c0,0.6-0.1,1.2-0.1,1.9L109.4,9.3z M109.2,6.9c0.3,0,0.5-0.1,0.8-0.2c0.3-0.1,0.7-0.1,1.1-0.2c0.2,0,0.3-0.1,0.4-0.1
		c0.1,0,0.2-0.1,0.3-0.1c0.1,0,0.2-0.1,0.2-0.1s0.1,0,0.2,0c0.2,0.1,0.4,0.3,0.5,0.4c0.2,0.2,0.1,0.3-0.1,0.3
		c-0.3,0-0.5,0.1-0.8,0.1s-0.6,0.1-1.1,0.2c-0.2,0-0.3,0-0.4,0s-0.2,0-0.3,0c0,0-0.1,0-0.2,0c-0.1,0-0.3-0.1-0.4-0.1
		C109.1,7.2,109,7.1,109,7C109,7,109.1,6.9,109.2,6.9z M121.5,17.3c0,0.1-0.1,0.1-0.2,0.1c-0.1,0-0.3,0-0.6,0c-0.7,0-1.3,0-1.9-0.1
		c-0.6,0-1.1,0-1.5,0.1c-0.2,0-0.4,0-0.6,0c-0.2,0-0.3,0-0.4,0c-0.1,0-0.2-0.1-0.4-0.1c-0.1-0.1-0.2-0.2-0.4-0.3
		c-0.3-0.2-0.5-0.4-0.7-0.6c-0.2-0.2-0.5-0.4-0.7-0.7c-0.3-0.3-0.6-0.6-0.9-1c-0.3-0.4-0.7-0.9-1.2-1.4c-0.5-0.6-1-1.1-1.4-1.5
		s-0.8-0.7-1.2-0.9c-0.1,0-0.1-0.1-0.1-0.1s0.1-0.1,0.2-0.1c0.2,0,0.4,0,0.5,0s0.3,0,0.4,0c0.1,0,0.2,0.1,0.3,0.1
		c0.1,0,0.1,0.1,0.2,0.2c0.2,0.1,0.4,0.3,0.5,0.5s0.3,0.3,0.5,0.4c0.4,0.4,0.7,0.7,1,1c0.4-0.5,0.8-0.9,1.1-1.3
		c0.3-0.4,0.6-0.8,0.8-1.2c0.1-0.2,0.2-0.3,0.2-0.4c0-0.1,0.1-0.3,0.2-0.5c0.1-0.2,0.2-0.3,0.2-0.3s0.2,0.1,0.3,0.3
		c0.2,0.2,0.3,0.5,0.4,0.7s0.1,0.4,0.2,0.5c0.1,0.2,0.1,0.3,0,0.4s-0.1,0.1-0.2,0.2c-0.2,0.2-0.5,0.4-0.7,0.6
		c-0.3,0.2-0.5,0.4-0.8,0.6c-0.3,0.2-0.5,0.4-0.8,0.5c-0.3,0.2-0.5,0.3-0.7,0.4c0.4,0.4,0.8,0.7,1.1,0.9c0.3,0.3,0.6,0.5,0.9,0.7
		c0.2,0.2,0.4,0.3,0.5,0.4s0.3,0.2,0.4,0.2c0.1,0.1,0.3,0.1,0.5,0.2s0.4,0.1,0.6,0.2c0.5,0.1,0.9,0.3,1.2,0.4
		c0.3,0.1,0.6,0.2,0.9,0.3s0.5,0.2,0.7,0.3s0.4,0.2,0.7,0.3C121.3,17,121.5,17.1,121.5,17.3z M111.1,2.8c0-0.1,0.1-0.2,0.1-0.3
		c0-0.1,0-0.2,0.1-0.2c0-0.2,0-0.4-0.2-0.5l-0.7-0.9c-0.2-0.2-0.2-0.3-0.1-0.4c0.1-0.1,0.2-0.1,0.4,0c0.4,0.1,0.8,0.3,1.1,0.4
		s0.6,0.3,0.8,0.4c0.2,0.1,0.3,0.2,0.4,0.3c0.1,0.1,0.1,0.2,0.1,0.2c0,0.1-0.1,0.2-0.1,0.3c-0.1,0.1-0.2,0.2-0.3,0.3
		c-0.1,0.1-0.3,0.3-0.5,0.4c-0.2,0.1-0.4,0.3-0.6,0.4c-0.2,0.1-0.3,0.2-0.4,0.1c0,0,0-0.1-0.1-0.1C111,3,111.1,2.9,111.1,2.8z"/>
	<path class="st15" d="M127.8,6.8c0.1-0.4,0.1-0.8,0.2-1.2c0.1-0.4,0.1-0.8,0.2-1.1c0-0.4,0.1-0.7,0.1-1s0-0.5,0.1-0.7
		c0-0.2,0-0.4,0-0.5s0-0.3,0-0.4c0-0.1,0-0.3-0.1-0.4s-0.1-0.3-0.1-0.6c0-0.2,0-0.3,0.1-0.3c0.1,0,0.2,0,0.4,0.2
		c0.2,0.2,0.4,0.3,0.5,0.5c0.2,0.2,0.4,0.4,0.6,0.7c0.1,0.1,0.1,0.2,0.1,0.4s0,0.2-0.1,0.3c-0.1,0.2-0.1,0.4-0.2,0.6
		s-0.1,0.5-0.2,0.8L129,6.6l1.9-0.4c0-0.2,0-0.4,0-0.5c0-0.2,0-0.3-0.1-0.5c0-0.1,0-0.2,0-0.3s0.1-0.1,0.3,0
		c0.2,0.1,0.4,0.2,0.6,0.4c0.2,0.2,0.4,0.3,0.5,0.5c0.1,0.2,0.1,0.4,0.1,0.7c-0.1,0.2-0.1,0.4-0.2,0.6c0,0.2-0.1,0.4-0.1,0.6
		c-0.2,1-0.4,1.9-0.7,2.7c-0.3,0.8-0.6,1.6-1,2.2c0.3,0.2,0.6,0.5,0.8,0.7c0.2,0.2,0.4,0.4,0.6,0.6c0.1,0.2,0.2,0.3,0.2,0.4
		c0,0.1,0.1,0.2,0.1,0.3c0,0.2,0,0.4-0.1,0.7c-0.1,0.2-0.1,0.4-0.1,0.5c-0.1,0.1-0.2,0.2-0.3,0.2s-0.2-0.1-0.4-0.3
		c-0.2-0.3-0.4-0.7-0.7-1c-0.2-0.3-0.5-0.7-0.7-1c-0.5,0.8-1.1,1.5-1.8,2.1c-0.6,0.5-1.3,1-2,1.4c-0.2,0.1-0.4,0.1-0.4,0
		c0-0.1,0-0.2,0.2-0.4c0.7-0.7,1.3-1.4,1.8-2c0.5-0.6,1-1.3,1.3-2c-0.2-0.2-0.3-0.4-0.5-0.6s-0.3-0.4-0.5-0.6c0,0,0,0,0,0l-0.1,0.1
		c-0.1,0.2-0.2,0.3-0.4,0.2c0,0-0.1-0.1-0.2-0.2s-0.1-0.2-0.2-0.3c0-0.1-0.1-0.2-0.1-0.2c0-0.1,0-0.1,0-0.2c0.1-0.2,0.2-0.5,0.3-1
		c0.1-0.5,0.2-1,0.3-1.7c-0.3,0.1-0.7,0.2-1,0.3c-0.3,0.1-0.5,0.2-0.7,0.3c-0.2,0.1-0.4,0.2-0.5,0.2s-0.3,0-0.5-0.1
		c-0.1-0.1-0.3-0.2-0.4-0.3s-0.2-0.2-0.4-0.4c-0.1-0.1-0.1-0.2-0.1-0.3s0.1-0.1,0.2-0.1c0.1,0,0.2,0,0.4,0s0.2,0,0.4,0
		c0.1,0,0.3,0,0.5-0.1s0.4-0.1,0.6-0.1L127.8,6.8z M128.8,7.5c-0.1,0.7-0.3,1.3-0.4,1.9c-0.1,0.6-0.3,1.1-0.4,1.5l0.1,0.1
		c0.2,0.1,0.4,0.3,0.6,0.4c0.2,0.1,0.4,0.3,0.6,0.4c0.3-0.7,0.6-1.3,0.8-2.1c0.2-0.7,0.4-1.5,0.6-2.4l0.1-0.5L128.8,7.5z M132.1,8.9
		c0.4,0,0.9,0,1.2,0c0.4,0,0.7-0.1,1-0.1c0.4-0.1,0.7-0.1,1-0.1c0.3,0,0.6-0.1,0.8-0.1c0,0,0-0.1,0-0.2c0-0.3-0.1-0.5-0.1-0.7
		c0-0.2-0.1-0.3-0.1-0.5c0-0.1-0.1-0.3-0.1-0.4c0-0.1-0.1-0.3-0.2-0.4c-0.1-0.2-0.1-0.3,0-0.3c0.1-0.1,0.2-0.1,0.4,0l0,0
		c0.1-0.1,0.3-0.3,0.4-0.5s0.3-0.4,0.4-0.6c0.1-0.2,0.3-0.4,0.4-0.6s0.2-0.4,0.3-0.5c0.1-0.1,0.1-0.2,0-0.2c0,0-0.1,0-0.2,0
		c-0.3,0-0.6,0.1-1,0.1c-0.4,0.1-0.8,0.2-1.2,0.3c-0.3,0.1-0.6,0.1-0.9,0c-0.1,0-0.2-0.1-0.4-0.1c-0.1-0.1-0.3-0.1-0.4-0.3
		c-0.1-0.1-0.2-0.2-0.1-0.2c0-0.1,0.1-0.1,0.2-0.1c0.3,0,0.6,0,0.8-0.1c0.2,0,0.5-0.1,0.8-0.1c0.1,0,0.3-0.1,0.5-0.1
		c0.2,0,0.4-0.1,0.6-0.1s0.4-0.1,0.6-0.1c0.2,0,0.4-0.1,0.6-0.1c0.2,0,0.3-0.1,0.4-0.1c0.1,0,0.2-0.1,0.2-0.1
		c0.2-0.1,0.3-0.1,0.4-0.1s0.2,0,0.3,0.1c0.1,0.1,0.3,0.2,0.4,0.4c0.2,0.2,0.3,0.3,0.4,0.5c0.2,0.3,0.2,0.5-0.1,0.6
		c-0.2,0.1-0.3,0.2-0.5,0.3c-0.1,0.1-0.3,0.3-0.6,0.5c-0.2,0.1-0.3,0.3-0.5,0.4c-0.2,0.1-0.4,0.3-0.5,0.4c-0.2,0.1-0.4,0.3-0.5,0.4
		c-0.2,0.1-0.3,0.2-0.4,0.3c0.2,0.1,0.3,0.2,0.4,0.2c0.1,0.1,0.2,0.1,0.3,0.2c0.1,0.1,0.2,0.2,0.2,0.3c0,0.1,0.1,0.2,0.1,0.4l0,1
		l2.2-0.2c0.2,0,0.3-0.1,0.4-0.1c0.1,0,0.2-0.1,0.3-0.1c0.1-0.1,0.2-0.1,0.3-0.1c0.1,0,0.2,0,0.4,0c0.2,0,0.4,0.1,0.6,0.2
		s0.4,0.2,0.6,0.3c0.2,0.1,0.2,0.3,0.1,0.5c0,0.1-0.1,0.2-0.1,0.2c0,0-0.1,0.1-0.2,0.1s-0.2,0-0.3,0c-0.4,0-0.7-0.1-1.1-0.1
		c-0.3,0-0.7,0-1,0c-0.7,0-1.5,0.1-2.3,0.1c0,0.4,0,0.8,0.1,1.2c0,0.4,0,0.8,0,1.2c0,0.4,0,0.8,0,1.2s0,0.8,0,1.1c0,0.4,0,0.7,0,1
		c0,0.3,0,0.5-0.1,0.7c-0.1,0.4-0.1,0.8-0.3,1c-0.1,0.3-0.2,0.5-0.3,0.7c-0.1,0.2-0.3,0.3-0.5,0.5c-0.2,0.2-0.3,0.2-0.5,0.2
		s-0.2-0.2-0.3-0.4c0-0.1-0.1-0.3-0.1-0.4c-0.1-0.1-0.1-0.2-0.2-0.3s-0.2-0.3-0.3-0.4c-0.1-0.1-0.3-0.3-0.6-0.6
		c-0.2-0.2-0.3-0.3-0.2-0.4c0-0.1,0.2-0.1,0.4-0.1c0.2,0.1,0.5,0.1,0.7,0.1s0.5,0.1,0.6,0.1c0.1,0,0.1,0,0.2,0c0,0,0.1-0.1,0.1-0.2
		c0-0.2,0.1-0.5,0.1-0.7s0.1-0.6,0.1-0.9c0-0.3,0-0.7,0-1c0-0.4,0-0.7,0-1.1c0-0.4,0-0.8,0-1.2c0-0.4,0-0.8-0.1-1.2
		c-0.4,0.1-0.8,0.1-1.2,0.2c-0.4,0-0.7,0.1-1,0.2c-0.2,0.1-0.4,0.1-0.5,0.1c-0.1,0-0.2,0-0.4-0.1c-0.2,0-0.3-0.1-0.5-0.2
		c-0.2-0.1-0.4-0.2-0.6-0.3c-0.1-0.1-0.2-0.2-0.2-0.2C131.9,8.9,131.9,8.9,132.1,8.9z"/>
	<path class="st15" d="M150.1,8.9C150,9,150,9.2,149.9,9.4s-0.1,0.4-0.1,0.6c0,0.3-0.1,0.7-0.1,1c0,0.4-0.1,0.8-0.1,1.1
		c0,0.4,0,0.7-0.1,1.1c0,0.3,0,0.6-0.1,0.8c0,0.2,0,0.2,0.1,0.1c0.3-0.3,0.6-0.6,1-0.8c0.3-0.3,0.7-0.6,1.1-0.9
		c0.1,0,0.1-0.1,0.2-0.1c0.1,0,0.1,0,0.1,0c0,0,0.1,0.1,0.1,0.1s0,0.1-0.1,0.2c-0.3,0.4-0.5,0.8-0.8,1.2c-0.2,0.4-0.5,0.7-0.7,1.1
		c-0.2,0.3-0.4,0.6-0.5,0.9c-0.2,0.3-0.3,0.5-0.4,0.6c-0.1,0.2-0.2,0.3-0.3,0.4c-0.1,0-0.3,0-0.5-0.1c-0.1-0.1-0.2-0.1-0.3-0.3
		c-0.1-0.1-0.2-0.2-0.3-0.3c-0.1-0.2-0.2-0.3-0.2-0.4s0-0.3,0.1-0.4c0.1-0.3,0.2-0.5,0.2-0.7s0.1-0.5,0.1-0.7c0-0.5,0.1-1,0.1-1.5
		c0-0.5,0-0.9,0.1-1.3c0-0.4,0-0.8,0.1-1.2c0-0.4,0-0.8,0.1-1.2c0-0.1,0-0.1-0.2-0.1s-0.3,0.1-0.6,0.1c-0.2,0-0.5,0.1-0.9,0.2
		c-0.2,0.1-0.4,0.1-0.5,0.1c-0.1,0-0.3-0.1-0.5-0.1c-0.1-0.1-0.2-0.1-0.4-0.2c-0.1-0.1-0.2-0.1-0.3-0.2c-0.2-0.1-0.2-0.2-0.2-0.3
		c0-0.1,0.1-0.1,0.2-0.1c0.1,0,0.3,0,0.4,0s0.2,0,0.3,0s0.2,0,0.3,0c0.1,0,0.2,0,0.4-0.1c0.2-0.1,0.4-0.1,0.6-0.1
		c0.2,0,0.3,0,0.5-0.1c0.1,0,0.2,0,0.3-0.1s0.2-0.1,0.4-0.2c0.2-0.2,0.4-0.1,0.7,0c0.1,0.1,0.3,0.2,0.4,0.4c0.2,0.2,0.3,0.3,0.3,0.4
		c0.1,0.1,0.2,0.3,0.2,0.3S150.1,8.7,150.1,8.9z M149.3,4.3c0.1-0.2,0.1-0.4,0.1-0.5c0-0.1,0-0.3-0.1-0.5c0-0.1-0.1-0.2-0.2-0.4
		s-0.2-0.3-0.3-0.5c-0.1-0.2-0.2-0.4-0.1-0.4c0-0.1,0.2,0,0.5,0.1c0.8,0.3,1.4,0.6,1.7,0.9c0.2,0.2,0.4,0.4,0.3,0.5
		c0,0.1-0.1,0.3-0.3,0.5c-0.1,0.1-0.3,0.2-0.5,0.3c-0.2,0.1-0.4,0.2-0.7,0.3c-0.3,0.1-0.4,0.1-0.5,0.1
		C149.2,4.7,149.2,4.6,149.3,4.3z M163.3,17.8c0,0.1-0.1,0.2-0.2,0.2c-0.1,0-0.3,0-0.5,0c-0.3,0-0.7-0.1-1.2-0.1c-0.5,0-1,0-1.5,0
		c-0.4,0-0.7,0-0.9-0.1c-0.2-0.1-0.5-0.2-0.7-0.5c-0.2-0.1-0.3-0.3-0.5-0.5s-0.4-0.4-0.6-0.6c-0.2-0.2-0.4-0.5-0.7-0.8
		s-0.5-0.7-0.9-1.1c-0.7,0.7-1.4,1.3-2.3,1.9s-1.7,1-2.7,1.4c-0.1,0.1-0.2,0.1-0.3,0.1c-0.1,0-0.1,0-0.1-0.1s0-0.1,0-0.2
		c0-0.1,0.1-0.1,0.1-0.2c0.9-0.6,1.7-1.2,2.4-1.9c0.8-0.6,1.4-1.3,2.1-2.1c-0.2-0.2-0.3-0.4-0.5-0.6c-0.1-0.2-0.3-0.4-0.5-0.6
		c-0.2-0.2-0.3-0.4-0.5-0.6s-0.4-0.3-0.7-0.5c-0.1,0-0.1-0.1-0.1-0.2c0-0.1,0-0.1,0.1-0.1c0.1,0,0.2-0.1,0.4-0.1c0.1,0,0.2,0,0.3,0
		c0.1,0,0.2,0,0.3,0c0.1,0,0.2,0.1,0.2,0.1c0.3,0.3,0.5,0.6,0.8,0.9c0.3,0.3,0.5,0.5,0.7,0.8c0.3-0.4,0.6-0.9,0.9-1.4
		c0.3-0.5,0.5-1,0.7-1.5c0,0,0-0.1,0-0.1c0,0,0,0-0.1,0c-0.2,0-0.4,0-0.8,0.1c-0.3,0-0.6,0.1-0.9,0.1c-0.3,0-0.6,0.1-0.9,0.1
		c-0.3,0-0.5,0.1-0.7,0.1c-0.2,0-0.3,0-0.4,0.1c-0.1,0-0.2,0-0.3-0.1c-0.1,0-0.2-0.1-0.4-0.2c-0.2-0.1-0.3-0.2-0.3-0.2
		c-0.1-0.1-0.1-0.2-0.1-0.2c0-0.1,0.1-0.1,0.3-0.1c0.2,0,0.5,0,0.7,0c0.3,0,0.5,0,0.6-0.1c0.3,0,0.6-0.1,0.8-0.1
		c0.2,0,0.5-0.1,0.7-0.1c0.2,0,0.5-0.1,0.7-0.1c0.2,0,0.5,0,0.8-0.1c0.1,0,0.2,0,0.3-0.1s0.2-0.1,0.3-0.1c0.2-0.1,0.3-0.1,0.4-0.1
		s0.2,0,0.3,0.1c0.2,0.1,0.4,0.3,0.5,0.4c0.2,0.2,0.3,0.3,0.4,0.4c0.1,0.1,0.1,0.2,0.1,0.3s-0.1,0.2-0.2,0.4
		c-0.1,0.1-0.3,0.3-0.5,0.6c-0.2,0.3-0.4,0.6-0.7,1.1c-0.2,0.3-0.4,0.6-0.6,0.8c-0.2,0.3-0.4,0.5-0.6,0.8c0.4,0.4,0.7,0.7,1,1
		c0.3,0.3,0.6,0.5,0.9,0.7c0.2,0.2,0.4,0.3,0.6,0.5c0.2,0.1,0.3,0.2,0.5,0.3c0.2,0.1,0.3,0.1,0.5,0.2c0.1,0.1,0.3,0.1,0.5,0.1
		c0.4,0.1,0.7,0.2,0.9,0.3s0.5,0.2,0.7,0.2c0.2,0.1,0.4,0.1,0.5,0.2c0.1,0.1,0.3,0.1,0.4,0.2c0.1,0.1,0.2,0.2,0.3,0.2
		C163.3,17.7,163.3,17.8,163.3,17.8z M161.1,6.7c0.1,0.1,0.2,0.2,0.2,0.3s0,0.2-0.1,0.2c-0.2,0.1-0.6,0.3-1,0.3
		c-0.3,0.1-0.7,0.1-1.1,0.1c-0.4,0-0.7,0-1,0c-0.3,0-0.5-0.1-0.7-0.1c-0.2-0.1-0.4-0.2-0.5-0.3s-0.2-0.3-0.3-0.5
		c-0.1-0.2-0.1-0.5-0.1-0.8c0-0.4,0-0.8,0-1.2s0.1-1,0.1-1.6c0-0.1,0-0.1-0.1-0.1c-0.2,0-0.5,0.1-0.9,0.1c-0.3,0.1-0.4,0.1-0.6,0
		l-0.1,0.7c-0.1,1.2-0.4,2.3-0.9,3.2c-0.5,0.9-1.2,1.6-2.2,2c-0.1,0-0.1,0-0.2,0s-0.2,0-0.2,0c0,0,0-0.1,0-0.1
		c0-0.1,0.1-0.1,0.1-0.2c0.7-0.8,1.3-1.6,1.6-2.4c0.3-0.9,0.5-1.8,0.5-2.7c0-0.3,0-0.5-0.1-0.7c0-0.2-0.1-0.3-0.1-0.4
		c0-0.1,0-0.2,0-0.2c0-0.1,0.1,0,0.3,0c0.1,0,0.2,0.1,0.4,0.1s0.2,0.1,0.3,0.1c0.1,0,0.2,0,0.3,0c0.1,0,0.3,0,0.4-0.1
		c0.1,0,0.3-0.1,0.4-0.1c0.1,0,0.2,0,0.4-0.1c0.2,0,0.3-0.1,0.5-0.2c0.1-0.1,0.3-0.1,0.3-0.1s0.2,0.1,0.3,0.1
		c0.3,0.2,0.6,0.5,0.8,0.7c0.1,0.1,0.2,0.3,0.2,0.3c0,0.1,0,0.2-0.1,0.3c-0.1,0.1-0.1,0.3-0.1,0.4c0,0.1-0.1,0.3-0.1,0.6
		c0,0.3-0.1,0.5-0.1,0.7c0,0.2,0,0.4,0,0.5c0,0.4,0.1,0.6,0.1,0.8c0.1,0.1,0.2,0.2,0.5,0.2c0.2,0,0.3,0,0.4,0s0.3,0,0.5-0.1
		c0.3-0.1,0.6-0.2,0.7-0.3c0.1-0.1,0.1-0.1,0.2-0.1s0.2,0,0.3,0.1c0.2,0.1,0.3,0.2,0.5,0.3C160.9,6.5,161,6.6,161.1,6.7z"/>
	<path class="st15" d="M173.1,11.8c0,0,0,0.1,0,0.2c0,0.1-0.1,0.1-0.1,0.2c-0.5,0.7-0.9,1.4-1.3,2c-0.3,0.6-0.6,1.2-0.8,1.8
		c0,0.1-0.1,0.2-0.2,0.3c-0.1,0-0.2,0-0.3-0.1c-0.1-0.1-0.3-0.2-0.5-0.4c-0.2-0.2-0.4-0.3-0.4-0.5c-0.1-0.2-0.1-0.4-0.1-0.5
		c0.1-0.3,0.1-0.6,0.2-0.8c0-0.3,0.1-0.7,0.1-1.3c0-0.6,0.1-1.2,0.1-1.8c0-0.6,0.1-1.2,0.1-1.8c0-0.6,0-1,0-1.4c0-0.1,0-0.1-0.1-0.1
		c-0.1,0-0.2,0-0.5,0s-0.5,0.1-0.7,0.2c-0.3,0.1-0.5,0.2-0.8,0.3c-0.3,0.1-0.5,0.2-0.7,0.3c-0.1,0-0.1,0-0.2,0c-0.1,0-0.2,0-0.3-0.1
		c-0.1-0.1-0.2-0.1-0.3-0.2c-0.1-0.1-0.2-0.2-0.4-0.3c-0.1-0.1-0.1-0.1-0.1-0.2c0-0.1,0.1-0.1,0.3-0.1c0.2,0,0.4,0,0.5-0.1
		s0.2,0,0.4-0.1c0.5-0.1,1-0.3,1.4-0.4c0.4-0.1,0.7-0.2,1-0.3c0.1,0,0.2-0.1,0.2-0.1s0.1-0.1,0.2-0.1c0.1-0.1,0.2-0.1,0.3-0.1
		c0.1,0,0.2,0.1,0.3,0.2c0.1,0.1,0.2,0.2,0.4,0.4c0.1,0.2,0.3,0.3,0.3,0.4c0.1,0.1,0.1,0.2,0.1,0.3c0,0.1,0,0.2,0,0.4
		c0,0.1,0,0.3-0.1,0.6c0,0.3,0,0.6-0.1,1c0,0.4-0.1,0.8-0.1,1.2s-0.1,0.8-0.1,1.2c0,0.4-0.1,0.7-0.1,0.9c0,0.3,0,0.4,0,0.5
		c0,0.1,0,0.1,0,0.2s0,0,0.1,0c0.4-0.3,0.7-0.6,1-0.8c0.3-0.2,0.6-0.4,0.9-0.7c0,0,0.1-0.1,0.1-0.1C173,11.7,173,11.7,173.1,11.8z
		 M170.5,3.4c0-0.2,0-0.4,0-0.5c0-0.1-0.1-0.3-0.2-0.5c-0.1-0.1-0.2-0.2-0.3-0.4c-0.1-0.2-0.2-0.3-0.4-0.5C169.3,1,169.4,0.8,170,1
		c0.7,0.2,1.3,0.4,1.8,0.8c0.3,0.2,0.4,0.4,0.4,0.5s-0.1,0.3-0.2,0.5c-0.1,0.1-0.2,0.3-0.4,0.4c-0.2,0.2-0.4,0.3-0.6,0.4
		c-0.2,0.1-0.4,0.2-0.4,0.2C170.4,3.8,170.4,3.7,170.5,3.4z M172.3,7.6c0.4,0,0.8,0,1.3-0.1s0.8-0.1,1.2-0.1l2.3-0.3
		c0-0.9,0-1.7,0-2.5s0-1.5-0.1-2.1c0-0.2,0-0.3,0-0.5c0-0.1,0-0.3-0.1-0.4c0-0.1-0.1-0.3-0.2-0.4c-0.1-0.1-0.2-0.3-0.3-0.5
		c-0.1-0.2-0.1-0.3-0.1-0.4s0.2-0.1,0.4,0c0.3,0.1,0.6,0.2,0.9,0.4c0.3,0.2,0.5,0.3,0.7,0.5c0.2,0.2,0.3,0.3,0.3,0.4
		c0,0.1,0,0.3-0.1,0.5c-0.1,0.2-0.1,0.5-0.1,0.7c0,0.3,0,0.5-0.1,0.8c0,0.6,0,1.2,0,1.8c0,0.6,0,1.1,0,1.7l1.9-0.2
		c0.2,0,0.4-0.1,0.5-0.1c0.1,0,0.3-0.1,0.4-0.2c0.1-0.1,0.2-0.1,0.3-0.1c0.1,0,0.2,0,0.5,0c0.2,0,0.5,0.1,0.8,0.2
		c0.3,0.1,0.5,0.2,0.6,0.3c0.1,0.1,0.2,0.2,0.2,0.4c0,0.1-0.1,0.1-0.1,0.2c0,0.1-0.1,0.1-0.1,0.2c-0.1,0.1-0.2,0.1-0.3,0.1
		c-0.1,0-0.2,0-0.4,0c-0.2,0-0.5-0.1-0.8-0.1c-0.3,0-0.7,0-1,0c-0.4,0-0.7,0.1-1.1,0.1c-0.4,0-0.8,0.1-1.2,0.1c0,0.5,0,1.1,0,1.7
		c0,0.6,0,1.3,0,2c0,0.7,0,1.3,0,1.9s0,1.2,0,1.7c0,0.6,0,1.2-0.1,1.6s-0.2,0.8-0.3,1.2c-0.2,0.3-0.3,0.5-0.5,0.5s-0.3-0.2-0.3-0.5
		c-0.1-0.3-0.1-0.6-0.1-1.1c0-0.5,0-1.1,0-1.9V8l-2.4,0.4c-0.3,0.1-0.5,0.1-0.7,0.1c-0.2,0-0.4,0-0.6-0.1c-0.2,0-0.4-0.1-0.6-0.2
		s-0.4-0.2-0.6-0.3c-0.1-0.1-0.2-0.1-0.1-0.2S172.2,7.6,172.3,7.6z"/>
	<path class="st15" d="M189.1,17.8c-0.5,0-0.9-0.2-1.3-0.5s-0.5-0.8-0.5-1.3c0-0.3,0-0.5,0.1-0.7c0.1-0.2,0.2-0.4,0.4-0.6
		s0.4-0.3,0.6-0.4c0.2-0.1,0.5-0.1,0.7-0.1c0.5,0,1,0.2,1.3,0.5c0.4,0.4,0.5,0.8,0.5,1.3s-0.2,1-0.5,1.3
		C190.1,17.6,189.6,17.8,189.1,17.8z M190,16c0-0.3-0.1-0.5-0.3-0.6c-0.2-0.1-0.4-0.2-0.6-0.2s-0.4,0.1-0.6,0.2
		c-0.2,0.1-0.3,0.4-0.3,0.6c0,0.2,0.1,0.4,0.3,0.6c0.2,0.2,0.4,0.2,0.6,0.2s0.4-0.1,0.6-0.2C189.9,16.4,190,16.2,190,16z"/>
	<path class="st15" d="M216,15.6c0,0.2-0.1,0.3-0.3,0.4c-0.2,0.1-0.4,0.2-0.7,0.4s-0.6,0.2-0.9,0.3c-0.3,0.1-0.6,0.2-0.9,0.2
		c-0.3,0.1-0.6,0.1-0.8,0.1c-0.9,0-1.7-0.2-2.4-0.5c-0.7-0.3-1.3-0.8-1.9-1.4c-0.5-0.6-0.9-1.3-1.2-2.2c-0.3-0.9-0.4-1.8-0.4-2.9
		c0-1,0.2-1.9,0.5-2.7c0.3-0.8,0.7-1.6,1.3-2.2s1.1-1.1,1.8-1.4c0.7-0.3,1.4-0.5,2.2-0.5c0.7,0,1.4,0.1,2,0.3s1.1,0.4,1.4,0.6h0
		c0.2,0.1,0.3,0.3,0.3,0.6c0,0.1,0,0.1-0.1,0.1c0,0-0.1,0.1-0.1,0.3c-0.1,0.2-0.2,0.3-0.3,0.3s-0.2,0-0.4-0.1
		c-0.4-0.2-0.8-0.5-1.3-0.6c-0.5-0.2-1-0.3-1.5-0.3c-0.7,0-1.3,0.2-1.8,0.5c-0.5,0.3-1,0.7-1.4,1.3c-0.4,0.5-0.7,1.1-0.9,1.8
		c-0.2,0.7-0.3,1.4-0.3,2.2c0,0.7,0.1,1.4,0.3,2.2c0.2,0.7,0.4,1.3,0.8,1.9c0.4,0.6,0.8,1,1.4,1.4c0.6,0.3,1.3,0.5,2.1,0.5
		c0.2,0,0.5,0,0.8-0.1s0.5-0.2,0.8-0.3s0.5-0.2,0.7-0.3c0.2-0.1,0.4-0.2,0.6-0.3c0.2-0.1,0.3-0.2,0.4-0.2c0.1,0,0.2,0.1,0.3,0.3
		c0,0.1,0,0.2,0,0.3S216,15.5,216,15.6z"/>
	<path class="st15" d="M217.4,12.1c0-0.6,0-1.1,0.1-1.4s0.2-0.7,0.4-1c0.3-0.7,0.8-1.3,1.4-1.7s1.4-0.6,2.1-0.6c0.5,0,1,0.1,1.4,0.2
		s0.8,0.4,1,0.6s0.5,0.5,0.7,0.8c0.2,0.3,0.4,0.6,0.5,0.9c0.2,0.6,0.4,1.4,0.4,2.2c0,0.2,0,0.5-0.1,0.8s-0.1,0.6-0.2,0.9
		s-0.2,0.6-0.3,0.9s-0.3,0.5-0.5,0.7c-0.9,1-1.9,1.6-3.1,1.6c-0.7,0-1.4-0.2-1.9-0.5s-1-0.7-1.3-1.2c-0.2-0.3-0.4-0.8-0.6-1.3
		C217.5,13.5,217.4,12.9,217.4,12.1z M218.7,12.1c0,0.5,0,1,0.1,1.4c0.1,0.4,0.2,0.8,0.4,1.1c0.2,0.4,0.6,0.7,0.9,0.9
		c0.4,0.2,0.8,0.3,1.3,0.3c0.4,0,0.8-0.1,1.2-0.2c0.4-0.1,0.7-0.4,1-0.9c0.1-0.2,0.2-0.4,0.3-0.7s0.1-0.5,0.2-0.7s0.1-0.5,0.1-0.7
		c0-0.2,0-0.4,0-0.5c0-0.1,0-0.3,0-0.5c0-0.2-0.1-0.4-0.1-0.7c0-0.2-0.1-0.4-0.2-0.7s-0.1-0.4-0.2-0.6c-0.2-0.3-0.5-0.7-0.8-0.9
		s-0.8-0.4-1.4-0.4c-0.6,0-1,0.1-1.4,0.4c-0.4,0.3-0.6,0.6-0.9,0.9c-0.1,0.2-0.2,0.4-0.3,0.6c-0.1,0.2-0.1,0.4-0.2,0.7
		c0,0.2-0.1,0.4-0.1,0.6C218.7,11.8,218.7,12,218.7,12.1z"/>
	<path class="st15" d="M233.3,11.3c0-0.8-0.1-1.5-0.4-2c-0.3-0.5-0.7-0.8-1.4-0.8c-0.2,0-0.5,0.1-0.7,0.2c-0.2,0.1-0.5,0.3-0.7,0.5
		c-0.2,0.2-0.4,0.5-0.6,0.7s-0.4,0.6-0.5,0.9v3.7c0,0.1,0,0.3,0,0.5c0,0.2,0,0.4,0,0.6c0,0.2,0,0.3,0,0.5s0,0.2,0,0.3
		c0,0.1,0,0.2-0.1,0.3c-0.1,0.1-0.2,0.1-0.3,0.1c-0.1,0-0.2,0-0.3,0c-0.1,0-0.2,0-0.3,0c-0.1,0-0.2,0-0.3-0.1s-0.1-0.2-0.1-0.3
		c0-0.1,0-0.1,0-0.2c0-0.1,0-0.1,0-0.2c0-0.3,0-0.6,0-0.8c0-0.3,0-0.5,0-0.6v-3.3l-0.1-3.3c0-0.1,0-0.2,0.1-0.3
		c0.1-0.1,0.2-0.1,0.3-0.1c0.1,0,0.2,0,0.3,0s0.2,0,0.3,0c0.1,0,0.2,0.1,0.3,0.1c0.1,0.1,0.1,0.2,0.1,0.3l0,1l0.2-0.3
		c0.1-0.1,0.3-0.3,0.5-0.4c0.2-0.2,0.3-0.3,0.6-0.4c0.2-0.1,0.4-0.2,0.7-0.3s0.6-0.1,0.9-0.1c0.5,0,0.9,0.1,1.2,0.3
		c0.3,0.2,0.6,0.4,0.8,0.7c0.2,0.3,0.4,0.7,0.5,1.1c0.1,0.4,0.2,0.8,0.2,1.3v3.8c0,0.1,0,0.3,0,0.5c0,0.2,0,0.4,0,0.6
		c0,0.2,0,0.3,0,0.4c0,0.1,0,0.2,0,0.3c0,0.1,0,0.2-0.1,0.3s-0.2,0.1-0.3,0.1c-0.1,0-0.2,0-0.3,0c-0.1,0-0.2,0-0.3,0
		c-0.1,0-0.2,0-0.3-0.1c-0.1-0.1-0.1-0.2-0.1-0.3c0-0.1,0-0.3,0-0.4c0-0.2,0-0.3,0-0.5c0-0.2,0-0.4,0-0.6s0-0.3,0-0.4L233.3,11.3z"
		/>
	<path class="st15" d="M236.6,12.2c0-0.7,0.1-1.3,0.3-1.9c0.2-0.6,0.5-1.1,0.9-1.5c0.4-0.4,0.8-0.8,1.3-1s1-0.4,1.6-0.4
		c0.5,0,1,0,1.4,0.1c0.5,0.1,0.9,0.3,1.2,0.5c0.2,0.1,0.3,0.3,0.2,0.5c0,0.1,0,0.1-0.1,0.3c0,0.1-0.1,0.2-0.1,0.3
		c0,0.1-0.1,0.2-0.2,0.2c-0.1,0-0.2,0-0.2-0.1c-0.3-0.2-0.6-0.4-1-0.6c-0.4-0.1-0.8-0.2-1.3-0.2c-0.9,0-1.6,0.4-2.2,1.1
		c-0.5,0.7-0.8,1.6-0.8,2.7c0,0.4,0,0.8,0.1,1.2c0.1,0.4,0.3,0.8,0.5,1.2c0.2,0.3,0.5,0.6,0.9,0.9s0.8,0.3,1.4,0.3
		c0.5,0,1-0.1,1.4-0.2s0.8-0.4,1.1-0.6c0.2-0.1,0.3-0.2,0.4-0.1c0.1,0,0.1,0.1,0.1,0.3c0,0.1,0,0.2,0,0.3c0,0.1,0,0.2,0,0.4
		c0,0.1,0,0.2-0.1,0.2c0,0.1-0.1,0.1-0.3,0.2c-0.3,0.2-0.5,0.3-0.8,0.4c-0.3,0.1-0.5,0.2-0.8,0.2c-0.3,0.1-0.5,0.1-0.7,0.1
		c-0.2,0-0.4,0-0.5,0c-0.5,0-0.9-0.1-1.4-0.3s-0.9-0.5-1.3-0.9s-0.7-0.9-0.9-1.5C236.7,13.7,236.6,13,236.6,12.2z"/>
	<path class="st15" d="M246.3,12.4c0,0.6,0.2,1.2,0.3,1.6s0.4,0.8,0.6,1c0.3,0.3,0.6,0.5,0.9,0.6s0.7,0.2,1.1,0.2
		c0.3,0,0.7-0.1,1.1-0.2c0.4-0.1,0.8-0.3,1.2-0.6c0.1-0.1,0.3-0.2,0.4-0.2c0.1-0.1,0.2,0,0.2,0.2c0,0.1,0,0.2,0,0.3
		c0,0.1,0,0.2,0,0.3c0,0.2-0.1,0.3-0.3,0.4c-0.4,0.3-0.8,0.5-1.3,0.6c-0.5,0.1-0.9,0.2-1.4,0.2c-0.6,0-1.2-0.1-1.7-0.3s-1-0.5-1.4-1
		c-0.3-0.4-0.6-0.9-0.8-1.4c-0.2-0.6-0.3-1.3-0.3-2.3c0-0.6,0.1-1.2,0.3-1.7s0.4-1,0.7-1.4c0.3-0.4,0.7-0.8,1.2-1
		c0.5-0.3,1.1-0.4,1.7-0.4c2.3,0,3.5,1.5,3.5,4.5c0,0.2,0,0.3-0.1,0.4c-0.1,0.1-0.2,0.1-0.3,0.1H246.3z M248.9,8.5
		c-0.4,0-0.8,0.1-1.1,0.3c-0.3,0.2-0.6,0.4-0.8,0.7s-0.4,0.6-0.5,0.9s-0.2,0.6-0.2,0.9c0.2,0,0.5,0,0.9,0c0.5,0,0.9,0,1.5,0
		s1,0,1.5,0c0.5,0,0.8,0,1,0c0-0.4-0.1-0.7-0.2-1.1s-0.2-0.6-0.4-0.9c-0.2-0.3-0.4-0.5-0.7-0.6C249.6,8.5,249.3,8.5,248.9,8.5z"/>
	<path class="st15" d="M254.6,8.7c0-0.2,0.1-0.4,0.3-0.5c0.4-0.3,0.8-0.5,1.2-0.7c0.4-0.2,0.8-0.2,1.2-0.2c0.4,0,0.8,0.1,1.1,0.2
		c0.3,0.1,0.7,0.3,0.9,0.6c0.3,0.2,0.5,0.5,0.6,0.9c0.1,0.4,0.2,0.7,0.2,1.2c0,0.3,0,0.7,0,1.1c0,0.4,0,0.9,0,1.3c0,0.4,0,0.8,0,1.1
		s0,0.6,0,0.8c0,0.1,0,0.2,0,0.3s0,0.2,0,0.3c0,0.2,0.1,0.3,0.1,0.5c0,0.2,0.1,0.3,0.2,0.3c0.1,0.1,0.2,0.1,0.3,0.1s0.2,0,0.3,0
		c0.1,0,0.2,0,0.2,0.1s0.1,0.1,0.1,0.2c0,0.1,0,0.1-0.1,0.2c0,0.1-0.1,0.1-0.2,0.2c-0.1,0-0.3,0.1-0.4,0.1c-0.1,0-0.3,0-0.4,0
		c-0.4,0-0.6-0.1-0.8-0.4c-0.2-0.2-0.3-0.5-0.3-0.8c-0.4,0.4-0.9,0.7-1.3,1c-0.5,0.3-1,0.4-1.4,0.4c-0.4,0-0.8-0.1-1.1-0.2
		c-0.3-0.2-0.6-0.3-0.8-0.6c-0.2-0.2-0.3-0.5-0.4-0.8s-0.1-0.6-0.1-0.9c0-0.5,0.1-0.9,0.4-1.3s0.6-0.7,1-1c0.4-0.3,0.8-0.5,1.3-0.7
		s0.9-0.3,1.3-0.5c0.2-0.1,0.3-0.1,0.4-0.1s0.3-0.1,0.4-0.1c0.2-0.1,0.3-0.2,0.3-0.3c0-0.1,0.1-0.2,0.1-0.4c0-0.5-0.2-0.9-0.5-1.2
		c-0.4-0.3-0.8-0.5-1.2-0.5c-0.4,0-0.8,0.1-1.2,0.3c-0.4,0.2-0.7,0.4-1,0.7c-0.3,0.2-0.4,0.1-0.5-0.1c0-0.1,0-0.2,0-0.3
		C254.6,8.9,254.6,8.8,254.6,8.7z M259,11.9c-0.4,0.1-0.9,0.3-1.4,0.4c-0.5,0.1-0.9,0.3-1.3,0.5s-0.7,0.4-0.9,0.7
		c-0.2,0.3-0.4,0.6-0.4,1c0,0.3,0.1,0.6,0.3,0.9c0.2,0.3,0.5,0.4,0.9,0.4c0.2,0,0.4,0,0.7-0.1s0.5-0.2,0.8-0.4s0.5-0.3,0.7-0.5
		c0.2-0.2,0.4-0.4,0.5-0.6L259,11.9z"/>
	<path class="st15" d="M264.8,12.4c0,0.2,0,0.4,0,0.8c0,0.4,0,0.7,0,1.1c0,0.4,0,0.8,0,1.1c0,0.4,0,0.6,0,0.8c0,0.1,0,0.2-0.1,0.3
		s-0.1,0.1-0.2,0.1c-0.1,0-0.2,0-0.3,0c-0.1,0-0.2,0-0.3,0c-0.1,0-0.2,0-0.3-0.1c-0.1-0.1-0.1-0.2-0.1-0.3c0-0.2,0-0.5,0-0.9
		c0-0.4,0-0.8,0-1.2c0-0.4,0-0.8,0-1.1c0-0.3,0-0.6,0-0.7v-6c0-0.2,0-0.4,0-0.6s0-0.5,0-0.7c0-0.2,0-0.4,0-0.7c0-0.3,0-0.5,0-0.6
		c0-0.1,0-0.2,0.1-0.3c0.1-0.1,0.1-0.1,0.2-0.1c0.2,0,0.3,0,0.5,0c0.1,0,0.2,0.1,0.2,0.1c0,0.1,0.1,0.2,0.1,0.3v2.7v3.1
		C264.8,10.5,264.8,11.4,264.8,12.4z"/>
	<path class="st15" d="M268.5,12.4c0,0.6,0.1,1.2,0.3,1.6c0.2,0.5,0.4,0.8,0.6,1c0.3,0.3,0.6,0.5,0.9,0.6s0.7,0.2,1.1,0.2
		c0.3,0,0.7-0.1,1.1-0.2c0.4-0.1,0.8-0.3,1.2-0.6c0.1-0.1,0.3-0.2,0.4-0.2s0.2,0,0.2,0.2c0,0.1,0,0.2,0,0.3c0,0.1,0,0.2,0,0.3
		c0,0.2-0.1,0.3-0.3,0.4c-0.4,0.3-0.8,0.5-1.3,0.6c-0.5,0.1-0.9,0.2-1.4,0.2c-0.6,0-1.2-0.1-1.7-0.3c-0.5-0.2-1-0.5-1.4-1
		c-0.3-0.4-0.6-0.9-0.8-1.4c-0.2-0.6-0.3-1.3-0.3-2.3c0-0.6,0.1-1.2,0.3-1.7s0.4-1,0.7-1.4s0.7-0.8,1.2-1s1.1-0.4,1.7-0.4
		c2.3,0,3.5,1.5,3.5,4.5c0,0.2,0,0.3-0.1,0.4c-0.1,0.1-0.2,0.1-0.3,0.1H268.5z M271.1,8.5c-0.4,0-0.8,0.1-1.1,0.3
		c-0.3,0.2-0.6,0.4-0.8,0.7s-0.4,0.6-0.5,0.9s-0.2,0.6-0.2,0.9c0.2,0,0.5,0,0.9,0c0.5,0,0.9,0,1.5,0c0.5,0,1,0,1.5,0
		c0.5,0,0.8,0,1,0c0-0.4-0.1-0.7-0.2-1.1c-0.1-0.3-0.2-0.6-0.4-0.9c-0.2-0.3-0.4-0.5-0.7-0.6C271.8,8.5,271.5,8.5,271.1,8.5z"/>
	<path class="st15" d="M282.4,15.6c-0.3,0.4-0.6,0.7-1.1,0.9c-0.4,0.3-1,0.4-1.6,0.4c-0.5,0-1-0.1-1.4-0.3s-0.9-0.5-1.2-1
		c-0.4-0.4-0.6-1-0.8-1.6c-0.2-0.6-0.3-1.4-0.3-2.2c0-0.4,0.1-0.9,0.2-1.4c0.1-0.5,0.3-1,0.6-1.5c0.3-0.5,0.7-0.9,1.2-1.2
		c0.5-0.3,1.1-0.5,1.8-0.5c0.5,0,1,0.2,1.5,0.5c0.5,0.3,0.9,0.7,1.2,1.3V5.1c0-0.1,0-0.3,0-0.5c0-0.2,0-0.5,0-0.7c0-0.3,0-0.5,0-0.8
		s0-0.5,0-0.6c0-0.1,0-0.2,0.1-0.3c0.1-0.1,0.1-0.1,0.2-0.1c0.1,0,0.2,0,0.3,0s0.3,0,0.4,0c0.2,0,0.4,0.2,0.4,0.4c0,0,0,0.2,0,0.4
		c0,0.2,0,0.5,0,0.8c0,0.3,0,0.6,0,0.9c0,0.3,0,0.5,0,0.6v6c0,0.1,0,0.2,0,0.3c0,0.2,0,0.4,0,0.6c0,0.2,0,0.5,0,0.8s0,0.6,0,0.8
		c0,0.1,0,0.4,0,0.7c0,0.3,0,0.6,0,0.9c0,0.2,0,0.4,0,0.6s0,0.3,0,0.4c0,0.1,0,0.2-0.1,0.3c-0.1,0.1-0.2,0.1-0.3,0.1
		c-0.1,0-0.2,0-0.3,0c-0.1,0-0.2,0-0.3,0c-0.1,0-0.2-0.1-0.2-0.1c-0.1-0.1-0.1-0.2-0.1-0.3V15.6z M277.2,11.9c0,0.7,0.1,1.3,0.2,1.7
		c0.1,0.5,0.3,0.9,0.6,1.2s0.5,0.6,0.8,0.7s0.6,0.2,0.9,0.2c0.8,0,1.5-0.3,2-0.9c0.5-0.6,0.7-1.5,0.7-2.8c0-0.5-0.1-1-0.3-1.5
		s-0.4-0.8-0.7-1.2c-0.3-0.3-0.6-0.6-0.9-0.8c-0.3-0.2-0.6-0.3-1-0.3c-0.4,0-0.8,0.1-1.1,0.3c-0.3,0.2-0.6,0.5-0.8,0.8
		c-0.2,0.3-0.4,0.7-0.5,1.1C277.3,11.1,277.2,11.5,277.2,11.9z"/>
	<path class="st15" d="M291,14.8c0-0.1,0.1-0.2,0.1-0.2c0.1,0,0.2,0,0.3,0.2c0.4,0.4,0.8,0.6,1.3,0.7c0.4,0.1,0.9,0.2,1.5,0.2
		c0.4,0,0.8-0.1,1.1-0.3c0.3-0.2,0.6-0.4,0.8-0.7c0.2-0.3,0.4-0.6,0.5-0.9c0.1-0.3,0.2-0.6,0.2-0.9c0-0.3-0.1-0.7-0.2-1
		s-0.3-0.6-0.6-0.8c-0.3-0.2-0.6-0.4-1-0.6c-0.4-0.2-0.8-0.3-1.2-0.5L293,9.6c-0.6-0.3-1-0.8-1.4-1.3c-0.4-0.5-0.5-1.1-0.5-1.7
		c0-0.5,0.1-1,0.3-1.5s0.5-0.8,0.8-1.1c0.3-0.3,0.7-0.5,1.2-0.7s1-0.3,1.8-0.3c0.4,0,0.8,0.1,1.2,0.2c0.4,0.1,0.7,0.3,1.1,0.5
		c0.2,0.1,0.2,0.3,0.2,0.5c0,0.1,0,0.2-0.1,0.4c0,0.2-0.1,0.3-0.1,0.4c-0.1,0.1-0.1,0.2-0.2,0.2s-0.2,0-0.3-0.1
		c-0.3-0.3-0.6-0.5-1-0.7s-0.7-0.3-1-0.3c-0.5,0-0.8,0-1.1,0.1c-0.3,0.1-0.5,0.2-0.7,0.4c-0.2,0.2-0.4,0.4-0.5,0.7
		c-0.1,0.3-0.2,0.6-0.2,0.9c0,0.5,0.2,1,0.5,1.3c0.3,0.3,0.7,0.6,1.1,0.9l0.8,0.4c0.2,0.1,0.5,0.2,0.7,0.3s0.5,0.3,0.7,0.4
		c0.2,0.1,0.4,0.3,0.6,0.4s0.3,0.2,0.5,0.3c0.3,0.3,0.6,0.7,0.7,1.1c0.2,0.4,0.3,0.8,0.3,1.3c0,0.7-0.1,1.2-0.3,1.7
		c-0.2,0.5-0.5,0.9-0.9,1.3c-0.4,0.4-0.8,0.6-1.3,0.8c-0.5,0.2-1,0.3-1.5,0.3c-0.7,0-1.3,0-1.8-0.2c-0.5-0.2-1-0.4-1.4-0.6
		c-0.1-0.1-0.2-0.2-0.2-0.3c0-0.1,0-0.2,0-0.3c0-0.1,0-0.2,0.1-0.4C290.9,15.1,291,14.9,291,14.8z"/>
	<path class="st15" d="M300.6,8.5h-0.8c-0.1,0-0.1,0-0.2-0.1s-0.1-0.1-0.1-0.3c0,0,0-0.1,0-0.2c0-0.1,0-0.1,0-0.2c0,0,0,0,0-0.1
		c0,0,0,0,0-0.1c0-0.1,0.1-0.2,0.1-0.2c0.1-0.1,0.2-0.1,0.3-0.1c0,0,0.1,0,0.2,0c0.1,0,0.2,0,0.2,0h0.3h0.1c0-0.2,0-0.5,0-0.7
		c0-0.3,0-0.5,0-0.7c0-0.3,0-0.5,0-0.8c0-0.1,0-0.2,0.1-0.3c0.1-0.1,0.2-0.1,0.3-0.1c0.1,0,0.2,0,0.3,0c0.1,0,0.2,0,0.3,0
		c0.2,0,0.3,0.2,0.3,0.4l-0.1,2.2h1.5c0.2,0,0.3,0.1,0.4,0.3c0,0.1,0,0.1,0,0.2s0,0.1,0,0.2c0,0.1-0.1,0.2-0.1,0.3
		c-0.1,0.1-0.1,0.1-0.2,0.1l-0.7,0h-0.8c0,0.3,0,0.7,0,1.1c0,0.4,0,0.8,0,1.2c0,0.4,0,0.8,0,1.2s0,0.7,0,1c0,0.5,0.1,1,0.1,1.4
		c0.1,0.4,0.2,0.7,0.3,0.9c0.2,0.2,0.3,0.3,0.6,0.4c0.2,0.1,0.5,0.1,0.9,0.1c0,0,0.1,0,0.2,0.1c0.1,0,0.1,0.1,0.1,0.3
		c0,0.1-0.1,0.3-0.1,0.4c-0.1,0.2-0.1,0.2-0.1,0.3c-0.1,0.1-0.1,0.2-0.2,0.2c0,0-0.1,0.1-0.2,0.1c-0.1,0-0.2,0-0.4,0
		c-0.2,0-0.4-0.1-0.6-0.1c-0.2-0.1-0.4-0.2-0.7-0.3c-0.2-0.1-0.4-0.3-0.6-0.6c-0.2-0.3-0.3-0.5-0.3-0.9s-0.1-0.7-0.2-1
		c0-0.3-0.1-0.7-0.1-1c0-0.3,0-0.6,0-0.8L300.6,8.5z"/>
	<path class="st15" d="M312.1,16.3c0,0.1,0,0.2-0.1,0.3c-0.1,0.1-0.2,0.1-0.3,0.1c-0.1,0-0.2,0-0.3,0s-0.2,0-0.3,0
		c-0.1,0-0.2-0.1-0.3-0.1c-0.1-0.1-0.1-0.2-0.1-0.3v-1c-0.1,0.1-0.2,0.2-0.2,0.3c-0.1,0.1-0.3,0.3-0.5,0.5s-0.3,0.3-0.6,0.4
		c-0.2,0.1-0.4,0.2-0.7,0.3c-0.3,0.1-0.6,0.1-0.9,0.1c-0.5,0-0.9-0.1-1.2-0.3c-0.3-0.2-0.6-0.4-0.8-0.7c-0.2-0.3-0.4-0.7-0.5-1.1
		c-0.1-0.4-0.2-0.8-0.2-1.3V7.9c0-0.1,0-0.2,0.1-0.3s0.2-0.1,0.3-0.1c0.1,0,0.3,0,0.5,0c0.1,0,0.2,0.1,0.2,0.1
		c0.1,0.1,0.1,0.2,0.1,0.3c0,0.2,0,0.4,0,0.5c0,0.1,0,0.3,0,0.4v0.9l0,3.4c0,0.8,0.1,1.5,0.4,2s0.7,0.8,1.4,0.8
		c0.2,0,0.4-0.1,0.7-0.2c0.2-0.1,0.5-0.3,0.7-0.5c0.2-0.2,0.5-0.5,0.7-0.8s0.4-0.6,0.6-0.9l0-0.4V9.7c0-0.1,0-0.3,0-0.5s0-0.4,0-0.6
		c0-0.2,0-0.3,0-0.5s0-0.2,0-0.3c0-0.2,0.1-0.4,0.3-0.4c0.1,0,0.1,0,0.2,0c0.1,0,0.1,0,0.2,0c0.1,0,0.1,0,0.2,0
		c0.3,0.1,0.4,0.2,0.4,0.4c0,0.1,0,0.3,0,0.4s0,0.3,0,0.5c0,0.2,0,0.4,0,0.6c0,0.2,0,0.3,0,0.4V13L312.1,16.3z"/>
	<path class="st15" d="M320.7,15.6c-0.3,0.4-0.6,0.7-1.1,0.9c-0.4,0.3-1,0.4-1.6,0.4c-0.5,0-1-0.1-1.4-0.3s-0.9-0.5-1.2-1
		c-0.3-0.4-0.6-1-0.8-1.6c-0.2-0.6-0.3-1.4-0.3-2.2c0-0.4,0.1-0.9,0.2-1.4c0.1-0.5,0.3-1,0.6-1.5c0.3-0.5,0.7-0.9,1.2-1.2
		c0.5-0.3,1.1-0.5,1.8-0.5c0.5,0,1,0.2,1.5,0.5c0.5,0.3,0.9,0.7,1.2,1.3V5.1c0-0.1,0-0.3,0-0.5c0-0.2,0-0.5,0-0.7c0-0.3,0-0.5,0-0.8
		s0-0.5,0-0.6c0-0.1,0-0.2,0.1-0.3c0.1-0.1,0.1-0.1,0.2-0.1c0.1,0,0.2,0,0.3,0s0.3,0,0.4,0c0.2,0,0.4,0.2,0.4,0.4c0,0,0,0.2,0,0.4
		c0,0.2,0,0.5,0,0.8c0,0.3,0,0.6,0,0.9c0,0.3,0,0.5,0,0.6v6c0,0.1,0,0.2,0,0.3c0,0.2,0,0.4,0,0.6c0,0.2,0,0.5,0,0.8
		c0,0.3,0,0.6,0,0.8c0,0.1,0,0.4,0,0.7s0,0.6,0,0.9c0,0.2,0,0.4,0,0.6s0,0.3,0,0.4c0,0.1,0,0.2-0.1,0.3c-0.1,0.1-0.2,0.1-0.3,0.1
		c-0.1,0-0.2,0-0.3,0c-0.1,0-0.2,0-0.3,0c-0.1,0-0.2-0.1-0.2-0.1c-0.1-0.1-0.1-0.2-0.1-0.3V15.6z M315.4,11.9c0,0.7,0.1,1.3,0.2,1.7
		c0.1,0.5,0.3,0.9,0.6,1.2s0.5,0.6,0.8,0.7s0.6,0.2,0.9,0.2c0.8,0,1.5-0.3,2-0.9c0.5-0.6,0.7-1.5,0.7-2.8c0-0.5-0.1-1-0.3-1.5
		s-0.4-0.8-0.7-1.2c-0.3-0.3-0.6-0.6-0.9-0.8c-0.3-0.2-0.6-0.3-1-0.3c-0.4,0-0.8,0.1-1.1,0.3c-0.3,0.2-0.6,0.5-0.8,0.8
		c-0.2,0.3-0.4,0.7-0.5,1.1C315.5,11.1,315.4,11.5,315.4,11.9z"/>
	<path class="st15" d="M324.6,4.4c0-0.2,0.1-0.5,0.2-0.7c0.2-0.2,0.3-0.3,0.6-0.3s0.4,0.1,0.6,0.3c0.2,0.2,0.2,0.4,0.2,0.7
		c0,0.2-0.1,0.4-0.2,0.6c-0.2,0.2-0.3,0.3-0.6,0.3c-0.3,0-0.5-0.1-0.6-0.3C324.7,4.8,324.6,4.6,324.6,4.4z M324.9,7.9
		c0-0.1,0-0.2,0.1-0.3c0-0.1,0.1-0.1,0.2-0.2c0.1,0,0.2,0,0.3,0s0.2,0,0.3,0c0.1,0,0.2,0.1,0.2,0.1s0.1,0.2,0.1,0.3v1.2
		c0,0.3,0,0.5,0,0.7c0,0.2,0,0.4,0,0.5v1.7c0,0.3,0,0.6,0,0.9v1.7c0,0.4,0,0.7,0,1c0,0.3,0,0.5,0,0.7c0,0.2-0.1,0.3-0.3,0.4
		c-0.1,0-0.2,0-0.3,0c-0.1,0-0.3,0-0.3,0c-0.1,0-0.2-0.1-0.2-0.2c0-0.1-0.1-0.2-0.1-0.3c0-0.1,0-0.2,0-0.3c0-0.1,0-0.3,0-0.5
		c0-0.2,0-0.3,0-0.5s0-0.3,0-0.4c0-0.2,0-0.3,0-0.5c0-0.1,0-0.3,0-0.4c0-0.1,0-0.2,0-0.4s0-0.3,0-0.5V7.9z"/>
	<path class="st15" d="M328.6,12.1c0-0.6,0-1.1,0.1-1.4s0.2-0.7,0.4-1c0.3-0.7,0.8-1.3,1.4-1.7c0.6-0.4,1.4-0.6,2.1-0.6
		c0.5,0,1,0.1,1.4,0.2c0.4,0.2,0.8,0.4,1,0.6s0.5,0.5,0.7,0.8c0.2,0.3,0.4,0.6,0.5,0.9c0.2,0.6,0.4,1.4,0.4,2.2c0,0.2,0,0.5-0.1,0.8
		s-0.1,0.6-0.2,0.9s-0.2,0.6-0.3,0.9s-0.3,0.5-0.5,0.7c-0.9,1-1.9,1.6-3.1,1.6c-0.7,0-1.4-0.2-1.9-0.5s-1-0.7-1.3-1.2
		c-0.2-0.3-0.4-0.8-0.6-1.3S328.6,12.9,328.6,12.1z M329.9,12.1c0,0.5,0,1,0.1,1.4c0.1,0.4,0.2,0.8,0.4,1.1c0.2,0.4,0.6,0.7,0.9,0.9
		c0.4,0.2,0.8,0.3,1.3,0.3c0.4,0,0.8-0.1,1.2-0.2c0.4-0.1,0.7-0.4,1-0.9c0.1-0.2,0.2-0.4,0.3-0.7s0.1-0.5,0.2-0.7s0.1-0.5,0.1-0.7
		c0-0.2,0-0.4,0-0.5c0-0.1,0-0.3,0-0.5c0-0.2-0.1-0.4-0.1-0.7c0-0.2-0.1-0.4-0.2-0.7c-0.1-0.2-0.1-0.4-0.2-0.6
		c-0.2-0.3-0.5-0.7-0.8-0.9s-0.8-0.4-1.4-0.4c-0.6,0-1,0.1-1.4,0.4c-0.4,0.3-0.6,0.6-0.9,0.9c-0.1,0.2-0.2,0.4-0.3,0.6
		c-0.1,0.2-0.1,0.4-0.2,0.7c0,0.2-0.1,0.4-0.1,0.6C329.9,11.8,329.9,12,329.9,12.1z"/>
	<path class="st15" d="M350.9,15.8c0-0.3,0.1-0.5,0.3-0.7c0.2-0.2,0.4-0.3,0.7-0.3c0.3,0,0.5,0.1,0.7,0.3c0.2,0.2,0.3,0.4,0.3,0.7
		c0,0.3-0.1,0.5-0.3,0.7c-0.2,0.2-0.4,0.3-0.7,0.3c-0.3,0-0.5-0.1-0.7-0.3C351,16.3,350.9,16.1,350.9,15.8z M351.8,13.1
		c-0.1,0-0.2,0-0.3-0.1c-0.1-0.1-0.2-0.2-0.2-0.4c0-0.5,0-0.9,0-1.3s0-0.8,0-1.3s0-1,0-1.6l-0.1-4.2c0-0.2,0-0.4,0.1-0.5
		c0-0.2,0.2-0.3,0.4-0.3c0.1,0,0.2,0,0.3,0c0.1,0,0.1,0,0.2,0c0.2,0,0.3,0.1,0.3,0.3c0.1,0.2,0.1,0.3,0.1,0.5c0,1.6-0.1,3-0.1,4.2
		c0,0.5,0,1,0,1.5c0,0.5,0,0.9,0,1.4c0,0.5,0,0.9,0,1.3c0,0.2-0.1,0.4-0.2,0.4S351.9,13.1,351.8,13.1z"/>
	<path class="st15" d="M374.3,3c0.5,0,0.9,0.1,1.3,0.2c0.4,0.2,0.7,0.4,0.9,0.6s0.4,0.5,0.6,0.9c0.1,0.3,0.2,0.7,0.2,1
		c0,0.4-0.1,0.7-0.2,1c-0.1,0.3-0.3,0.6-0.5,0.9c-0.2,0.3-0.4,0.6-0.7,0.8c-0.2,0.3-0.5,0.5-0.7,0.8c-0.4,0.4-0.6,0.9-0.7,1.5
		c-0.1,0.6-0.2,1.1-0.2,1.8c0,0.2,0,0.3-0.1,0.4c-0.1,0.1-0.3,0.2-0.5,0.2c-0.2,0-0.3-0.1-0.4-0.2c-0.1-0.1-0.1-0.3-0.1-0.5
		c0-0.7,0.1-1.4,0.3-2c0.2-0.6,0.5-1.2,0.9-1.7c0.2-0.3,0.4-0.6,0.7-0.8c0.2-0.2,0.4-0.5,0.6-0.7c0.2-0.2,0.3-0.5,0.4-0.7
		c0.1-0.2,0.2-0.5,0.2-0.8c0-0.2,0-0.4-0.1-0.6s-0.2-0.4-0.4-0.6c-0.2-0.2-0.3-0.3-0.6-0.4C374.8,4,374.5,4,374.3,4
		c-0.3,0-0.7,0.1-1,0.2s-0.6,0.3-0.8,0.5c-0.2,0.2-0.4,0.4-0.6,0.5c-0.2,0.2-0.3,0.3-0.4,0.5c-0.1,0.1-0.1,0.1-0.2,0.1
		s-0.2,0-0.2-0.1c0,0-0.1-0.1-0.1-0.2c-0.1-0.1-0.1-0.2-0.1-0.2c-0.1-0.2-0.1-0.4,0-0.5c0.1-0.1,0.3-0.3,0.5-0.5
		c0.2-0.2,0.4-0.4,0.7-0.5c0.3-0.2,0.6-0.3,1-0.4S373.9,3,374.3,3z M372.9,15.8c0-0.3,0.1-0.5,0.3-0.7s0.4-0.3,0.7-0.3
		c0.3,0,0.5,0.1,0.7,0.3c0.2,0.2,0.3,0.4,0.3,0.7c0,0.3-0.1,0.5-0.3,0.7c-0.2,0.2-0.4,0.3-0.7,0.3c-0.3,0-0.5-0.1-0.7-0.3
		S372.9,16.1,372.9,15.8z"/>
</g>
</svg>
