<?xml version="1.0" encoding="utf-8"?>
<!-- Generator: Adobe Illustrator 24.3.0, SVG Export Plug-In . SVG Version: 6.00 Build 0)  -->
<svg version="1.1" id="图层_1" xmlns="http://www.w3.org/2000/svg" xmlns:xlink="http://www.w3.org/1999/xlink" x="0px" y="0px"
	 viewBox="0 0 396.9 19.1" style="enable-background:new 0 0 396.9 19.1;" xml:space="preserve">
<style type="text/css">
	.st0{fill:none;stroke:#AF8A6D;stroke-width:7.0866;stroke-miterlimit:10;}
	.st1{fill:none;stroke:#7B5744;stroke-width:5.6693;stroke-miterlimit:10;}
	.st2{fill:none;stroke:#EEDFBE;stroke-width:8.5039;stroke-miterlimit:10;}
	.st3{fill:none;}
	.st4{fill:#BB474B;}
	.st5{fill:#A7C349;}
	.st6{fill:#E0EDF2;stroke:#E0EDF2;stroke-width:0.2835;stroke-miterlimit:10;}
	.st7{fill:#E0EDF2;stroke:#E0EDF2;stroke-width:0.1417;stroke-miterlimit:10;}
	.st8{fill:#E0EDF2;stroke:#E0EDF2;stroke-width:0.4252;stroke-miterlimit:10;}
	.st9{fill:#E0EDF2;stroke:#E0EDF2;stroke-width:0.5669;stroke-miterlimit:10;}
	.st10{fill:#E0EDF2;stroke:#E0EDF2;stroke-width:0.7087;stroke-miterlimit:10;}
	.st11{fill:#E0EDF2;}
	.st12{fill:#7C5543;stroke:#7B5744;stroke-miterlimit:10;}
	.st13{fill:#ECDDBB;stroke:#EEDFBE;stroke-miterlimit:10;}
	.st14{fill:#AF896D;stroke:#AF8A6D;stroke-miterlimit:10;}
	.st15{fill:#7B5744;}
	.st16{fill:#EEDFBE;}
	.st17{fill:#AF8A6D;}
	.st18{clip-path:url(#SVGID_2_);}
	.st19{fill:none;stroke:#AF8A6D;stroke-width:28.346;stroke-linecap:round;stroke-miterlimit:10;}
	.st20{fill:none;stroke:#7B5744;stroke-width:28.346;stroke-linecap:round;stroke-miterlimit:10;}
	.st21{fill:none;stroke:#EEDFBE;stroke-width:28.346;stroke-linecap:round;stroke-miterlimit:10;}
	.st22{clip-path:url(#SVGID_4_);fill:#010000;}
	.st23{fill:#010000;}
	.st24{fill:none;stroke:#EEDFBE;stroke-width:6;stroke-linecap:round;stroke-linejoin:round;}
	.st25{fill:none;stroke:#AF8A6D;stroke-width:13.1913;stroke-linecap:round;stroke-miterlimit:10;}
	.st26{fill:none;stroke:#EEDFBE;stroke-width:13.1913;stroke-linecap:round;stroke-miterlimit:10;}
	.st27{fill:none;stroke:#7B5744;stroke-width:13.1913;stroke-linecap:round;stroke-miterlimit:10;}
	.st28{fill:none;stroke:#7B5744;stroke-width:13.2334;stroke-linecap:round;stroke-miterlimit:10;}
	.st29{fill:#BD8A6D;}
	.st30{fill:#F2DEBA;}
	.st31{fill:#885441;}
	.st32{fill:none;stroke:#AF8A6D;stroke-width:4.0495;stroke-linecap:round;stroke-miterlimit:10;}
	.st33{fill:none;stroke:#EEDFBE;stroke-width:4.0495;stroke-linecap:round;stroke-miterlimit:10;}
	.st34{fill:none;stroke:#7B5744;stroke-width:4.0495;stroke-linecap:round;stroke-miterlimit:10;}
	.st35{fill:none;stroke:#A7C349;stroke-width:3;stroke-linecap:round;}
	.st36{fill:none;stroke:#BB474B;stroke-width:3;stroke-linecap:round;}
	.st37{enable-background:new    ;}
</style>
<g class="st37">
	<path class="st15" d="M4.6,18.9c-0.2,0-0.3-0.2-0.3-0.5v-4.1c0-0.1,0-0.1-0.1-0.1L0.6,15C0.2,15,0.1,15,0,14.7
		c-0.1-0.2,0.1-0.3,0.4-0.4l3.7-0.8c0.1,0,0.1-0.1,0.1-0.1V10c0-0.1,0-0.1-0.1-0.1H2.4c-0.2,0-0.3,0-0.5,0L1.3,10
		C1,10,0.8,10,0.7,9.8c-0.1-0.2-0.1-0.4,0-0.7L1.3,8c0.1-0.2,0.1-0.3,0.2-0.5c0.3-0.7,0.7-2.1,1.2-4c0-0.1,0-0.1-0.1-0.1H0.5
		C0.2,3.4,0,3.3,0,3.1c0-0.2,0.2-0.3,0.5-0.3h2.2c0.1,0,0.1,0,0.1-0.1l0.4-2c0.1-0.3,0.2-0.5,0.4-0.4c0.2,0,0.3,0.2,0.2,0.6L3.5,2.7
		c0,0.1,0,0.1,0.1,0.1h3.6c0.3,0,0.5,0.1,0.5,0.3c0,0.2-0.2,0.3-0.5,0.3H3.4c-0.1,0-0.1,0-0.2,0.1c-0.5,2.1-1.1,4-1.8,5.6
		c0,0.1,0,0.1,0.1,0.1h2.7c0.1,0,0.1,0,0.1-0.1V6.3c0-0.3,0.1-0.5,0.3-0.5c0.2,0,0.3,0.2,0.3,0.5v2.9c0,0.1,0,0.1,0.1,0.1h2
		c0.3,0,0.5,0.1,0.5,0.3c0,0.2-0.2,0.3-0.5,0.3H5c-0.1,0-0.1,0-0.1,0.1v3.3c0,0.1,0,0.1,0.1,0.1l2.2-0.5c0.3-0.1,0.5,0,0.5,0.2
		s-0.1,0.3-0.4,0.4L5,14c-0.1,0-0.1,0.1-0.1,0.1v4.3C4.9,18.7,4.8,18.9,4.6,18.9z M8.3,18.3c-0.3,0-0.5-0.1-0.5-0.3
		c0-0.2,0.2-0.3,0.5-0.3H13c0.1,0,0.1,0,0.1-0.1v-6.2c0-0.1,0-0.1-0.1-0.1H9.6c-0.3,0-0.5-0.1-0.5-0.3c0-0.2,0.2-0.3,0.5-0.3h7.5
		c0.3,0,0.5,0.1,0.5,0.3c0,0.2-0.2,0.3-0.5,0.3h-3.4c-0.1,0-0.1,0-0.1,0.1v6.2c0,0.1,0,0.1,0.1,0.1h4.3c0.3,0,0.5,0.1,0.5,0.3
		c0,0.2-0.2,0.3-0.5,0.3H8.3z M8.8,9.3C8.5,9.5,8.3,9.4,8.2,9.3c-0.1-0.2,0-0.3,0.3-0.5c1.3-0.6,2.7-1.5,4.1-2.6
		c1.7-1.3,2.9-2.7,3.7-4.1c0-0.1,0-0.1-0.1-0.1H9.5c-0.3,0-0.5-0.1-0.5-0.3c0-0.2,0.2-0.3,0.5-0.3l7.1,0c0.2,0,0.4,0,0.6,0.1
		c0.1,0.1,0.1,0.3,0,0.6c-0.6,1.3-1.7,2.6-3.3,4c-0.1,0,0,0.1,0,0.1c2,0.9,3.5,1.7,4.5,2.4c0.3,0.2,0.4,0.4,0.2,0.5
		c-0.1,0.2-0.3,0.2-0.6,0c-1.1-0.7-2.6-1.6-4.6-2.5c-0.1,0-0.2,0-0.2,0C11.8,7.7,10.3,8.6,8.8,9.3z"/>
	<path class="st15" d="M24.9,19c-0.2,0-0.3-0.2-0.3-0.5V7.3c0-0.1,0-0.1,0,0c-0.4,1.4-0.9,2.8-1.5,4.2c-0.6,1.4-1.1,2.4-1.5,2.9
		c-0.2,0.3-0.4,0.4-0.6,0.2c-0.2-0.1-0.2-0.3,0-0.6c0.5-0.7,1.1-1.9,1.8-3.5c0.7-1.7,1.2-3.3,1.6-4.8c0-0.1,0-0.1-0.1-0.1h-2.7
		c-0.3,0-0.5-0.1-0.5-0.3c0-0.2,0.2-0.3,0.5-0.3h2.9c0.1,0,0.1,0,0.1-0.1V0.6c0-0.3,0.1-0.5,0.3-0.5c0.2,0,0.3,0.2,0.3,0.5v4.2
		c0,0.1,0,0.1,0.1,0.1h2.2C27.9,4.9,28,5,28,5.2c0,0.2-0.2,0.3-0.5,0.3h-2.2c-0.1,0-0.1,0-0.1,0.1v0.6c0,0.1,0,0.2,0.1,0.4l2.1,3.2
		c0.2,0.3,0.2,0.5,0,0.6c-0.2,0.1-0.4,0-0.5-0.3c-0.5-0.8-1-1.8-1.6-2.7c0-0.1-0.1,0-0.1,0v11.1C25.2,18.8,25.1,19,24.9,19z M29,8.8
		c-0.2,0.3-0.4,0.3-0.6,0.2c-0.2-0.1-0.2-0.3,0.1-0.6c1.3-1.5,2.3-3.9,3-7c0.1-0.3,0.2-0.5,0.4-0.4c0.2,0.1,0.3,0.2,0.2,0.6
		C31.5,4.7,30.4,7.1,29,8.8z M38.8,18.2c-0.2,0.1-0.4,0-0.5-0.4l-0.4-1c0-0.1-0.1-0.1-0.2-0.1l-6.8,0.9c-0.2,0-0.3,0.1-0.5,0.1
		L29.5,18c-0.3,0.1-0.5,0-0.6-0.2c-0.1-0.2,0-0.3,0.1-0.4s0.4-0.6,0.9-1.7c0.1-0.2,0.1-0.3,0.2-0.5c0.3-0.6,0.8-1.6,1.3-3.1
		c0.8-1.9,1.3-3.5,1.6-4.7c0.1-0.3,0.2-0.5,0.4-0.4c0.2,0.1,0.3,0.2,0.2,0.6c-1,3.7-2.3,6.8-3.8,9.5c0,0.1,0,0.1,0.1,0.1l7.5-0.9
		c0.1,0,0.1-0.1,0.1-0.1c-0.6-1.1-1.1-2.1-1.6-3c-0.2-0.3-0.2-0.5,0-0.6c0.2-0.1,0.3,0,0.5,0.3c0.4,0.7,0.9,1.5,1.5,2.6
		c0.6,1.1,0.9,1.8,1.1,2.2C39,18,39,18.2,38.8,18.2z M39.3,8.9c-0.2,0.1-0.4,0.1-0.6-0.2c-1.4-2-2.5-4.5-3.3-7.4
		c-0.1-0.3,0-0.5,0.1-0.6c0.2,0,0.3,0.1,0.4,0.4c0.8,2.6,1.9,5,3.3,7.1C39.5,8.6,39.5,8.8,39.3,8.9z"/>
	<path class="st15" d="M42.4,8.1c-0.3,0.2-0.5,0.2-0.6,0.1c-0.1-0.1,0-0.3,0.2-0.5c1-0.8,2.1-1.9,3.2-3.3c1.1-1.4,1.8-2.6,2.3-3.7
		c0.1-0.3,0.3-0.4,0.5-0.3c0.2,0.1,0.2,0.3,0.1,0.6L48,1.2c0,0.1,0,0.2,0,0.2c0.9,0.9,1.9,1.9,2.8,3c1,1.1,1.7,1.9,2,2.4
		c0.2,0.3,0.2,0.5,0.1,0.6c-0.2,0.1-0.3,0-0.5-0.2c-1.2-1.6-2.8-3.4-4.7-5.3c-0.1-0.1-0.1-0.1-0.1,0C46.3,4.4,44.5,6.4,42.4,8.1z
		 M46.1,18.8c-0.8,0-1.4-0.1-1.7-0.3S44,17.9,44,17.3V8.4c0-0.3,0.2-0.5,0.5-0.5h6C50.9,7.9,51,8,51,8.4c-0.1,1.8-0.2,3.1-0.4,3.9
		s-0.3,1.3-0.5,1.5c-0.2,0.2-0.5,0.3-0.7,0.4c-0.2,0-0.3,0-0.5,0l-1.3,0c-0.3,0-0.5-0.1-0.5-0.3c0-0.2,0.2-0.3,0.5-0.3l1.1,0
		c0.2,0,0.3,0,0.5,0c0.1,0,0.2-0.1,0.4-0.2c0.3-0.3,0.6-2,0.8-4.8c0-0.1,0-0.1-0.1-0.1h-5.6c-0.1,0-0.1,0-0.1,0.1v8.7
		c0,0.4,0.1,0.6,0.3,0.7c0.2,0.1,0.6,0.2,1.1,0.2h4.5c0.5,0,0.9-0.2,1-0.6c0.2-0.4,0.2-1.1,0.3-2c0-0.3,0.1-0.5,0.3-0.5
		c0.2,0,0.3,0.2,0.3,0.5c-0.1,1.2-0.2,2-0.3,2.3c-0.1,0.2-0.1,0.3-0.2,0.5c-0.2,0.3-0.6,0.5-1.4,0.5H46.1z M55.2,14
		c-0.2,0-0.3-0.2-0.3-0.5V3.1c0-0.3,0.1-0.5,0.3-0.5c0.2,0,0.3,0.2,0.3,0.5v10.4C55.5,13.8,55.4,14,55.2,14z M55.9,18.9
		c-0.3,0-0.5-0.1-0.5-0.3c0-0.2,0.2-0.3,0.5-0.3h2.4c0.2,0,0.3,0,0.5,0c0.2,0,0.3-0.2,0.3-0.5V0.9c0-0.3,0.1-0.5,0.3-0.5
		c0.2,0,0.3,0.2,0.3,0.5v16.9c0,0.3-0.1,0.6-0.2,0.7c-0.1,0.2-0.2,0.2-0.3,0.3c-0.2,0-0.3,0.1-0.5,0.1
		C58.5,18.9,57.6,18.9,55.9,18.9z"/>
	<path class="st15" d="M64,6c-0.3,0-0.5-0.1-0.5-0.3c0-0.2,0.2-0.3,0.5-0.3h10.8c0.1,0,0.2,0,0.2-0.1c0.5-0.7,0.8-1.5,1.2-2.1
		c0.1-0.3,0.3-0.4,0.5-0.3c0.2,0.1,0.2,0.3,0,0.6l-1,1.9c0,0.1,0,0.1,0.1,0.1h5.1c0.3,0,0.5,0.1,0.5,0.3c0,0.2-0.2,0.3-0.5,0.3H64z
		 M64.4,18.2c-0.2,0.2-0.4,0.3-0.6,0.1c-0.1-0.1-0.1-0.3,0.2-0.5c0.6-0.5,1.2-1.4,1.8-2.8c0.1-0.3,0.3-0.4,0.5-0.3
		c0.2,0.1,0.2,0.3,0,0.6C65.6,16.6,65,17.6,64.4,18.2z M64.8,2.7c-0.3,0-0.5-0.1-0.5-0.3c0-0.2,0.2-0.3,0.5-0.3h7.7
		c0.1,0,0.1,0,0.1-0.1c-0.3-0.6-0.6-1-0.8-1.3s-0.2-0.5-0.1-0.6c0.1-0.1,0.3,0,0.5,0.2c0.4,0.5,0.7,1,1,1.6C73.4,2,73.5,2,73.6,2
		h6.2c0.3,0,0.5,0.1,0.5,0.3c0,0.2-0.2,0.3-0.5,0.3H64.8z M66.5,13.2c-0.3,0-0.5-0.2-0.5-0.5V7.9c0-0.3,0.2-0.5,0.5-0.5h11.7
		c0.3,0,0.5,0.2,0.5,0.5v4.8c0,0.3-0.2,0.5-0.5,0.5H66.5z M66.6,9.9c0,0.1,0,0.1,0.1,0.1H78c0.1,0,0.1,0,0.1-0.1V8.1
		C78.1,8,78.1,8,78,8H66.7c-0.1,0-0.1,0-0.1,0.1V9.9z M66.6,12.5c0,0.1,0,0.1,0.1,0.1H78c0.1,0,0.1,0,0.1-0.1v-1.8
		c0-0.1,0-0.1-0.1-0.1H66.7c-0.1,0-0.1,0-0.1,0.1V12.5z M69.2,5.3c-0.2,0-0.4-0.1-0.4-0.4c-0.1-0.5-0.4-0.9-0.7-1.4
		c-0.2-0.3-0.2-0.5,0-0.6c0.2-0.1,0.4,0,0.5,0.3c0.4,0.6,0.7,1.1,0.8,1.6C69.4,5,69.3,5.2,69.2,5.3z M70.4,18.9
		c-0.8,0-1.4-0.1-1.7-0.2c-0.3-0.1-0.4-0.5-0.4-1V15c0-0.3,0.1-0.5,0.3-0.5c0.2,0,0.3,0.2,0.3,0.5v2.7c0,0.2,0.1,0.4,0.3,0.5
		c0.2,0.1,0.6,0.1,1.2,0.1h4.5c0.5,0,0.8-0.1,1-0.4c0.1-0.3,0.2-0.8,0.3-1.5c0-0.3,0.1-0.5,0.3-0.5c0.2,0,0.3,0.2,0.3,0.5
		c0,0.9-0.2,1.6-0.4,1.9c-0.2,0.4-0.7,0.5-1.4,0.5H70.4z M74.1,16.2c-0.2,0.1-0.3,0.1-0.5-0.2c-0.5-0.6-1.3-1.2-2.4-2
		c-0.3-0.2-0.4-0.3-0.3-0.5c0.1-0.1,0.3-0.1,0.6,0c1.2,0.7,2.1,1.4,2.6,2C74.2,15.8,74.3,16,74.1,16.2z M80.9,17.9
		c-0.2,0.1-0.3,0-0.5-0.3c-0.1-0.2-0.4-0.6-1-1.3c-0.6-0.7-1-1.2-1.3-1.4c-0.3-0.2-0.3-0.4-0.2-0.5s0.3-0.1,0.5,0.1
		c1.1,1.1,1.9,2,2.4,2.8C81,17.6,81,17.8,80.9,17.9z"/>
	<path class="st15" d="M84.5,18.9c-0.3,0.1-0.5,0.1-0.6-0.1c-0.1-0.2,0-0.3,0.3-0.5c0.5-0.3,1-0.7,1.4-1.2c0.4-0.6,0.7-1.3,0.7-2.1
		c0-0.1,0-0.1-0.1-0.1l-0.1,0c-0.2,0-0.4,0-0.5,0c-0.6,0-0.9-0.4-0.9-1.1c0-0.4,0.1-0.7,0.3-0.9c0.2-0.2,0.5-0.3,0.8-0.3
		c0.4,0,0.7,0.2,1,0.5s0.3,0.8,0.3,1.4c0,1-0.3,2-0.9,2.8C85.7,18.2,85.1,18.7,84.5,18.9z"/>
	<path class="st15" d="M97.5,18.8c-0.3,0.1-0.5,0.1-0.6-0.1s0-0.4,0.3-0.5c0.2-0.1,0.2-0.4,0.2-1V2.7c0-0.3,0.2-0.5,0.5-0.5h5.9
		c0.1,0,0.1,0,0.1-0.1c-0.2-0.7-0.4-1.2-0.5-1.4c-0.2-0.3-0.1-0.5,0-0.6c0.2-0.1,0.3,0,0.5,0.3c0.3,0.6,0.5,1.2,0.6,1.7
		c0,0.1,0.1,0.1,0.2,0.1h5.4c0.3,0,0.5,0.2,0.5,0.5v7.5c0,0.3-0.2,0.5-0.5,0.5h-7.3c-0.1,0-0.1,0-0.1,0.1c0.7,1.5,1.8,2.8,3.1,3.9
		c0.1,0.1,0.1,0.1,0.2,0c0.8-0.4,1.8-1,2.9-1.7c1.1-0.7,1.8-1.2,2.3-1.6c0.3-0.2,0.5-0.2,0.6-0.1s0.1,0.3-0.2,0.5
		c-1.4,1.1-3.1,2.2-5.2,3.3c-0.1,0-0.1,0.1,0,0.1c1.9,1.6,4,2.6,6.2,3.1c0.3,0.1,0.5,0.2,0.4,0.4c-0.1,0.2-0.2,0.3-0.6,0.2
		c-2.2-0.6-4.2-1.6-6-3c-1.9-1.5-3.3-3.2-4.3-5.1c0-0.1-0.1-0.1-0.2-0.1h-3.8c-0.1,0-0.1,0-0.1,0.1v7.1c0,0.1,0,0.1,0.1,0.1l4.9-1.4
		c0.3-0.1,0.5,0,0.6,0.1c0.1,0.2-0.1,0.3-0.4,0.4l-4.6,1.4c-0.2,0-0.3,0.1-0.5,0.1L97.5,18.8z M98,6c0,0.1,0,0.1,0.1,0.1h11.8
		c0.1,0,0.1,0,0.1-0.1V2.9c0-0.1,0-0.1-0.1-0.1H98.1c-0.1,0-0.1,0-0.1,0.1V6z M98,9.9c0,0.1,0,0.1,0.1,0.1h11.8c0.1,0,0.1,0,0.1-0.1
		V6.8c0-0.1,0-0.1-0.1-0.1H98.1c-0.1,0-0.1,0-0.1,0.1V9.9z"/>
	<path class="st15" d="M115.9,18.8c-0.3,0.2-0.5,0.2-0.6,0c-0.1-0.2,0-0.4,0.3-0.5c1.5-0.7,2.8-2.1,3.9-4.1c0-0.1,0-0.1,0-0.2
		c-1.1-0.9-2.1-1.6-3-2.1c-0.3-0.2-0.4-0.4-0.3-0.7c0.4-1.3,0.9-3.2,1.5-5.9c0-0.1,0-0.1-0.1-0.1h-1.8c-0.3,0-0.5-0.1-0.5-0.3
		c0-0.2,0.2-0.3,0.5-0.3h2c0.1,0,0.1,0,0.1-0.1c0.3-1.5,0.5-2.8,0.7-3.9c0-0.3,0.2-0.5,0.4-0.5c0.2,0,0.3,0.2,0.2,0.5
		c-0.2,1.1-0.4,2.4-0.7,3.8c0,0.1,0,0.1,0.1,0.1l3.5,0c0.2,0,0.4,0,0.5,0.1s0.2,0.2,0.2,0.5c-0.3,3.5-1.1,6.4-2.3,8.7
		c0,0.1,0,0.1,0,0.2c1.1,0.9,1.8,1.5,2.2,2c0.2,0.3,0.2,0.5,0,0.6c-0.2,0.2-0.4,0.1-0.6-0.2c-0.3-0.4-1-1.1-2-1.9
		c-0.1,0-0.1,0-0.1,0C119,16.5,117.6,17.9,115.9,18.8z M119.8,13.4c0.1,0,0.1,0,0.1,0c1.1-2.1,1.9-4.8,2.2-8.1c0-0.1,0-0.1-0.1-0.1
		h-3.5c-0.1,0-0.1,0-0.1,0.1c-0.4,1.9-0.9,3.9-1.5,6c0,0.1,0,0.1,0.1,0.2C117.9,12,118.9,12.7,119.8,13.4z M126,19
		c-0.3,0-0.5-0.1-0.5-0.3c0-0.2,0.2-0.3,0.5-0.3h1.9c0.2,0,0.3,0,0.5,0c0.1,0,0.2-0.1,0.2-0.4v-8c0-0.1,0-0.1-0.1-0.1h-4.7
		c-0.3,0-0.5-0.1-0.5-0.3c0-0.2,0.2-0.3,0.5-0.3h4.7c0.1,0,0.1,0,0.1-0.1V6.8c0-0.3,0.1-0.5,0.3-0.7c1.3-1,2.4-2.2,3.3-3.5
		c0-0.1,0-0.1,0-0.1h-7.3c-0.3,0-0.5-0.1-0.5-0.3c0-0.2,0.2-0.3,0.5-0.3l7.7-0.1c0.2,0,0.4,0.1,0.6,0.2c0.2,0.1,0.2,0.3,0,0.6
		c-0.3,0.5-0.9,1.2-1.7,2c-0.7,0.8-1.4,1.4-2.1,2c-0.1,0.1-0.1,0.2-0.1,0.3v2.3c0,0.1,0,0.1,0.1,0.1h4.5c0.3,0,0.5,0.1,0.5,0.3
		c0,0.2-0.2,0.3-0.5,0.3h-4.5c-0.1,0-0.1,0-0.1,0.1v8c0,0.3,0,0.5-0.1,0.6c-0.1,0.1-0.2,0.2-0.3,0.2c-0.2,0.1-0.3,0.1-0.5,0.1
		C128.1,19,127.3,19,126,19z"/>
	<path class="st15" d="M139.6,18.2c-0.3,0.2-0.5,0.2-0.6,0c-0.1-0.2-0.2-0.3-0.1-0.4c0.1-0.1,0.2-0.2,0.3-0.3
		c0.1-0.1,0.2-0.3,0.3-0.4c0.2-0.2,0.3-0.5,0.3-0.9V7.5c0-0.1,0-0.1-0.1-0.1h-2.8c-0.3,0-0.5-0.1-0.5-0.3c0-0.2,0.2-0.3,0.5-0.3h3
		c0.3,0,0.5,0.2,0.5,0.5v9.4c0,0.1,0,0.1,0.1,0l2.3-1.3c0.3-0.2,0.5-0.2,0.6,0c0.1,0.2,0,0.3-0.3,0.5l-2.8,1.7
		c-0.1,0.1-0.3,0.2-0.4,0.3L139.6,18.2z M141.6,4c-0.2,0.1-0.4,0-0.5-0.2c-0.4-0.6-1.2-1.4-2.3-2.3c-0.3-0.2-0.3-0.4-0.2-0.6
		c0.1-0.1,0.3-0.1,0.6,0.1c1,0.8,1.8,1.6,2.4,2.4C141.8,3.6,141.8,3.8,141.6,4z M143.4,8.7c-0.3,0.1-0.5,0.1-0.6-0.1
		c-0.1-0.2,0-0.3,0.3-0.5c2-1,3-2.5,3-4.8V1.5c0-0.3,0.2-0.5,0.5-0.5h4.8c0.3,0,0.5,0.2,0.5,0.5v4.6c0,0.3,0,0.5,0.1,0.6
		s0.1,0.1,0.2,0.1s0.2,0,0.4,0l2,0c0.3,0,0.5,0.1,0.5,0.3c0,0.2-0.1,0.3-0.5,0.3l-2,0c-0.2,0-0.3,0-0.5,0c-0.2,0-0.4-0.1-0.6-0.3
		c-0.1-0.2-0.2-0.5-0.2-1.1V1.7c0-0.1,0-0.1-0.1-0.1h-4.4c-0.1,0-0.1,0-0.1,0.1v1.6C146.7,5.8,145.6,7.6,143.4,8.7z M155.1,18.8
		c0,0.2-0.2,0.3-0.6,0.2c-1.9-0.5-3.8-1.4-5.4-2.6c-0.1-0.1-0.1-0.1-0.2,0c-1.6,1.2-3.2,2-5,2.6c-0.3,0.1-0.5,0-0.6-0.1
		c-0.1-0.2,0.1-0.4,0.4-0.5c1.6-0.4,3.1-1.2,4.7-2.4c0.1,0,0.1-0.1,0-0.1c-1.7-1.5-3-3.4-3.9-5.5c0-0.1-0.1-0.1-0.2-0.1H144
		c-0.3,0-0.5-0.1-0.5-0.3c0-0.2,0.2-0.3,0.5-0.3l9.2,0c0.2,0,0.4,0,0.5,0.1c0.1,0.1,0.2,0.3,0,0.6c-0.7,2.1-2.1,4-4.2,5.6
		c-0.1,0-0.1,0.1,0,0.1c1.6,1.2,3.3,2.1,5.1,2.5C155,18.5,155.1,18.6,155.1,18.8z M148.9,15.4c0.1,0.1,0.1,0.1,0.2,0
		c1.8-1.5,3.2-3.2,3.9-5.2c0-0.1,0-0.1-0.1-0.1h-7.8c-0.1,0-0.1,0-0.1,0.1C145.9,12.3,147.2,14,148.9,15.4z"/>
	<path class="st15" d="M161,18c-0.3,0.2-0.4,0.2-0.6,0c-0.1-0.2-0.1-0.4,0.2-0.5c0.3-0.2,0.4-0.6,0.4-1.3V7.5c0-0.1,0-0.1-0.1-0.1
		h-3c-0.3,0-0.5-0.1-0.5-0.3c0-0.2,0.2-0.3,0.5-0.3h3.2c0.3,0,0.5,0.2,0.5,0.5v9.2c0,0.1,0,0.1,0.1,0l2.5-1.6c0.3-0.2,0.5-0.2,0.6,0
		c0.1,0.2,0,0.3-0.3,0.5l-2.9,2c-0.1,0.1-0.3,0.2-0.4,0.3L161,18z M163.1,4.1c-0.2,0.1-0.3,0-0.5-0.2c-0.6-0.8-1.4-1.6-2.4-2.5
		c-0.3-0.2-0.3-0.4-0.2-0.5c0.1-0.2,0.3-0.1,0.6,0.1c1.1,0.9,2,1.8,2.6,2.5C163.2,3.8,163.2,4,163.1,4.1z M170.2,19
		c-0.2,0-0.3-0.2-0.3-0.5V8.1c0-0.1,0-0.1-0.1-0.1h-5c-0.3,0-0.5-0.1-0.5-0.3c0-0.2,0.2-0.3,0.5-0.3h5c0.1,0,0.1,0,0.1-0.1V0.6
		c0-0.3,0.1-0.5,0.3-0.5c0.2,0,0.3,0.2,0.3,0.5v6.7c0,0.1,0,0.1,0.1,0.1h5.2c0.3,0,0.5,0.1,0.5,0.3c0,0.2-0.2,0.3-0.5,0.3h-5.2
		c-0.1,0-0.1,0-0.1,0.1v10.4C170.5,18.8,170.4,19,170.2,19z"/>
	<path class="st15" d="M181.7,18.5c-0.8,0-1.5-0.3-2.1-0.9s-0.9-1.3-0.9-2.1c0-0.8,0.3-1.5,0.9-2.1s1.3-0.9,2.1-0.9
		c0.8,0,1.5,0.3,2.1,0.9c0.6,0.6,0.9,1.3,0.9,2.1c0,0.8-0.3,1.5-0.9,2.1C183.2,18.2,182.5,18.5,181.7,18.5z M180,17.2
		c0.5,0.5,1,0.7,1.7,0.7c0.7,0,1.2-0.2,1.7-0.7c0.5-0.5,0.7-1,0.7-1.7c0-0.7-0.2-1.2-0.7-1.7s-1-0.7-1.7-0.7c-0.7,0-1.2,0.2-1.7,0.7
		c-0.5,0.5-0.7,1-0.7,1.7C179.3,16.2,179.5,16.7,180,17.2z"/>
	<path class="st15" d="M195.4,17.8c-1.9,0-3.4-0.7-4.6-2.2s-1.7-3.4-1.7-5.8s0.6-4.3,1.8-5.7s2.7-2.1,4.7-2.1c1.4,0,2.6,0.5,3.7,1.5
		c0.2,0.2,0.2,0.4,0,0.5c-0.1,0.1-0.1,0.1-0.2,0.1s-0.2,0-0.2-0.1c-0.9-0.9-1.9-1.3-3.2-1.3c-1.7,0-3.1,0.6-4.1,1.9
		c-1,1.3-1.5,3-1.5,5.2c0,2.2,0.5,3.9,1.5,5.2s2.3,1.9,4,1.9c1.4,0,2.6-0.6,3.7-1.7c0.1-0.1,0.1-0.1,0.2-0.1s0.2,0,0.2,0.1
		c0.1,0.1,0.1,0.2,0.1,0.2s0,0.2-0.1,0.3C198.5,17.2,197.1,17.8,195.4,17.8z"/>
	<path class="st15" d="M210.5,16.2c-1,1-2.1,1.6-3.5,1.6s-2.5-0.5-3.5-1.6S202,13.8,202,12c0-1.8,0.5-3.2,1.4-4.3s2.1-1.6,3.5-1.6
		s2.5,0.5,3.5,1.6s1.4,2.5,1.4,4.3C211.9,13.8,211.4,15.2,210.5,16.2z M204,15.7c0.8,1,1.8,1.4,3,1.4s2.2-0.5,3-1.4
		c0.8-0.9,1.2-2.2,1.2-3.7c0-1.5-0.4-2.8-1.2-3.7s-1.8-1.4-3-1.4s-2.2,0.5-3,1.4s-1.2,2.2-1.2,3.7C202.8,13.5,203.2,14.8,204,15.7z"
		/>
	<path class="st15" d="M216,17.4c-0.1,0.1-0.2,0.1-0.3,0.1s-0.2,0-0.3-0.1c-0.1-0.1-0.1-0.2-0.1-0.3V6.8c0-0.1,0-0.2,0.1-0.2
		c0.1-0.1,0.1-0.1,0.2-0.1s0.2,0,0.2,0.1c0.1,0.1,0.1,0.1,0.1,0.2l0.1,1.4c0,0,0,0,0,0s0,0,0,0c0.6-0.7,1.3-1.2,1.9-1.5
		c0.6-0.3,1.2-0.5,2-0.5c1.1,0,2,0.3,2.5,1s0.8,1.8,0.8,3.2v6.7c0,0.1,0,0.2-0.1,0.3c-0.1,0.1-0.2,0.1-0.3,0.1s-0.2,0-0.3-0.1
		c-0.1-0.1-0.1-0.2-0.1-0.3v-6.6c0-1.2-0.2-2.1-0.6-2.7c-0.4-0.6-1.1-0.9-2-0.9c-0.6,0-1.2,0.2-1.8,0.5s-1.2,0.9-1.9,1.6
		c-0.1,0-0.1,0.1-0.1,0.2v8C216.1,17.3,216,17.4,216,17.4z"/>
	<path class="st15" d="M231.5,17.8c-1.4,0-2.6-0.5-3.6-1.5s-1.4-2.4-1.4-4.2c0-1.8,0.5-3.2,1.4-4.3s2.1-1.6,3.5-1.6
		c1.1,0,2.1,0.4,3,1.1c0.1,0.1,0.1,0.2,0.1,0.2s0,0.2-0.1,0.3S234.3,8,234.2,8S234,8,234,7.9c-0.8-0.7-1.6-1-2.5-1
		c-1.2,0-2.2,0.5-3,1.4c-0.8,1-1.2,2.2-1.2,3.7c0,1.5,0.4,2.7,1.1,3.7c0.8,0.9,1.8,1.4,3,1.4c1,0,1.9-0.4,2.8-1.1
		c0.1-0.1,0.2-0.1,0.2-0.1c0.1,0,0.2,0,0.2,0.1c0.1,0.1,0.1,0.1,0.1,0.2c0,0.1,0,0.2-0.1,0.3C233.7,17.4,232.6,17.8,231.5,17.8z"/>
	<path class="st15" d="M241.6,17.8c-1.4,0-2.6-0.5-3.6-1.6c-1-1-1.5-2.4-1.5-4.2c0-1.7,0.5-3.1,1.4-4.2s2.1-1.6,3.4-1.6
		c1.3,0,2.3,0.4,3.1,1.3s1.1,2.1,1.1,3.8v0c0,0.2-0.1,0.4-0.2,0.5c-0.2,0.1-0.3,0.2-0.5,0.2h-7.3c-0.1,0-0.1,0-0.1,0.1
		c0,1.5,0.4,2.7,1.2,3.6c0.8,0.9,1.8,1.4,3.1,1.4c1,0,1.9-0.3,2.7-0.8c0.1,0,0.2-0.1,0.3,0c0.1,0,0.2,0.1,0.2,0.2c0,0.1,0,0.2,0,0.3
		s-0.1,0.2-0.2,0.2C243.7,17.5,242.6,17.8,241.6,17.8z M237.3,11.3C237.3,11.3,237.3,11.4,237.3,11.3l7.3,0.1c0.1,0,0.1,0,0.1-0.1v0
		c0-1.4-0.3-2.5-0.9-3.3s-1.4-1.1-2.5-1.1c-1,0-1.9,0.4-2.6,1.2C237.7,9,237.3,10.1,237.3,11.3z"/>
	<path class="st15" d="M250.6,17.8c-0.9,0-1.7-0.2-2.3-0.7c-0.6-0.5-0.9-1.2-0.9-2.2c0-1.2,0.6-2.1,1.7-2.8s2.9-1.1,5.4-1.4
		c0.1,0,0.1,0,0.1-0.1c0-0.1,0-0.1,0-0.2c0-0.4,0-0.8-0.1-1.1c-0.1-0.4-0.2-0.8-0.4-1.1c-0.2-0.4-0.5-0.7-0.8-0.9s-0.8-0.3-1.4-0.3
		c-1.1,0-2.3,0.4-3.3,1.1c-0.1,0.1-0.2,0.1-0.3,0.1c-0.1,0-0.2-0.1-0.2-0.1c0-0.1-0.1-0.2,0-0.3s0.1-0.2,0.2-0.2
		c1.2-0.8,2.5-1.2,3.7-1.2c0.6,0,1.2,0.1,1.6,0.3s0.8,0.5,1.1,0.9s0.4,0.8,0.6,1.3s0.2,1,0.2,1.6v6.8c0,0.1,0,0.2-0.1,0.2
		c-0.1,0.1-0.1,0.1-0.2,0.1s-0.2,0-0.2-0.1c-0.1-0.1-0.1-0.1-0.1-0.2l-0.1-1.1c0,0,0,0,0,0s0,0-0.1,0
		C253.1,17.2,251.8,17.8,250.6,17.8z M250.6,17.1c0.6,0,1.3-0.2,1.9-0.5s1.3-0.8,2-1.4c0.1,0,0.1-0.1,0.1-0.1v-3.8
		c0-0.1,0-0.1-0.1-0.1h0c-2.3,0.3-3.9,0.7-4.9,1.2s-1.5,1.3-1.5,2.3c0,0.8,0.2,1.4,0.7,1.8S249.9,17.1,250.6,17.1z"/>
	<path class="st15" d="M260.6,17.8c-0.8,0-1.1-0.5-1.1-1.5V1.2c0-0.1,0-0.2,0.1-0.3c0.1-0.1,0.2-0.1,0.3-0.1s0.2,0,0.3,0.1
		c0.1,0.1,0.1,0.2,0.1,0.3v15.2c0,0.5,0.2,0.7,0.5,0.7c0,0,0,0,0.1,0c0.3,0,0.4,0.1,0.4,0.4c0,0.1,0,0.1,0,0.2
		c-0.1,0.1-0.1,0.1-0.2,0.1C260.8,17.8,260.7,17.8,260.6,17.8z"/>
	<path class="st15" d="M268.9,17.8c-1.4,0-2.6-0.5-3.6-1.6c-1-1-1.5-2.4-1.5-4.2c0-1.7,0.5-3.1,1.4-4.2s2.1-1.6,3.4-1.6
		c1.3,0,2.3,0.4,3.1,1.3s1.1,2.1,1.1,3.8v0c0,0.2-0.1,0.4-0.2,0.5c-0.2,0.1-0.3,0.2-0.5,0.2h-7.3c-0.1,0-0.1,0-0.1,0.1
		c0,1.5,0.4,2.7,1.2,3.6c0.8,0.9,1.8,1.4,3.1,1.4c1,0,1.9-0.3,2.7-0.8c0.1,0,0.2-0.1,0.3,0c0.1,0,0.2,0.1,0.2,0.2c0,0.1,0,0.2,0,0.3
		s-0.1,0.2-0.2,0.2C271,17.5,269.9,17.8,268.9,17.8z M264.6,11.3C264.6,11.3,264.6,11.4,264.6,11.3l7.3,0.1c0.1,0,0.1,0,0.1-0.1v0
		c0-1.4-0.3-2.5-0.9-3.3s-1.4-1.1-2.5-1.1c-1,0-1.9,0.4-2.6,1.2C265,9,264.6,10.1,264.6,11.3z"/>
	<path class="st15" d="M279.4,17.8c-1.4,0-2.5-0.5-3.4-1.5c-0.8-1-1.2-2.4-1.2-4.3c0-1.7,0.5-3.1,1.4-4.2s2.1-1.6,3.5-1.6
		c0.6,0,1.2,0.1,1.7,0.3c0.5,0.2,1,0.6,1.6,1c0,0,0,0,0.1,0s0,0,0,0l-0.1-2V1.2c0-0.1,0-0.2,0.1-0.3c0.1-0.1,0.2-0.1,0.3-0.1
		s0.2,0,0.3,0.1c0.1,0.1,0.1,0.2,0.1,0.3v16c0,0.1,0,0.2-0.1,0.2c-0.1,0.1-0.1,0.1-0.2,0.1s-0.2,0-0.2-0.1c-0.1-0.1-0.1-0.1-0.1-0.2
		l-0.1-1.1c0,0,0,0,0,0s0,0,0,0C281.9,17.2,280.7,17.8,279.4,17.8z M279.5,17.1c1.1,0,2.3-0.6,3.6-1.9c0,0,0.1-0.1,0.1-0.1V8.5
		c0-0.1,0-0.1-0.1-0.1c-1.1-1-2.2-1.5-3.3-1.5c-1.2,0-2.1,0.5-2.9,1.5s-1.2,2.2-1.2,3.7c0,1.5,0.3,2.8,1,3.7
		C277.3,16.7,278.3,17.1,279.5,17.1z"/>
	<path class="st15" d="M296.9,17.8c-1.9,0-3.5-0.7-4.8-2c-0.1-0.1-0.1-0.2-0.1-0.3s0-0.2,0.1-0.3c0.1-0.1,0.2-0.1,0.3-0.1
		s0.2,0,0.3,0.1c1.2,1.2,2.6,1.8,4.3,1.8c1.2,0,2.2-0.3,2.9-0.9c0.7-0.6,1.1-1.4,1.1-2.3c0-0.4-0.1-0.8-0.2-1.1s-0.2-0.6-0.4-0.8
		c-0.1-0.2-0.4-0.4-0.6-0.6c-0.3-0.2-0.5-0.4-0.7-0.5s-0.5-0.3-0.9-0.4l-2.3-1c-0.3-0.2-0.6-0.3-0.9-0.4s-0.5-0.3-0.8-0.5
		c-0.3-0.2-0.6-0.5-0.8-0.7c-0.2-0.2-0.4-0.5-0.5-0.9s-0.2-0.8-0.2-1.2c0-1.1,0.4-2,1.2-2.6s1.9-1,3.1-1c1.5,0,2.8,0.5,3.9,1.6
		c0.1,0.1,0.1,0.2,0.1,0.3c0,0.1,0,0.2-0.1,0.3s-0.2,0.1-0.2,0.1s-0.2,0-0.2-0.1c-1-0.9-2.1-1.4-3.4-1.4c-1.1,0-1.9,0.3-2.6,0.8
		s-1,1.2-1,2.1c0,0.4,0.1,0.7,0.2,1s0.3,0.6,0.4,0.8s0.4,0.4,0.7,0.6c0.3,0.2,0.5,0.3,0.7,0.4s0.4,0.2,0.7,0.3l2.3,1
		c0.5,0.2,0.9,0.4,1.3,0.6s0.7,0.5,1,0.8s0.6,0.7,0.7,1.1c0.2,0.4,0.2,0.9,0.2,1.5c0,1.2-0.4,2.1-1.3,2.9
		C299.5,17.4,298.3,17.8,296.9,17.8z"/>
	<path class="st15" d="M307.7,17.8c-1,0-1.6-0.3-2-0.8s-0.6-1.3-0.6-2.4V7.3c0-0.1,0-0.1-0.1-0.1h-1.4c-0.1,0-0.2,0-0.2-0.1
		s-0.1-0.1-0.1-0.2s0-0.2,0.1-0.2c0.1-0.1,0.1-0.1,0.2-0.1l1.4-0.1c0.1,0,0.1,0,0.1-0.1l0.1-2.8c0-0.1,0.1-0.2,0.1-0.2
		c0.1-0.1,0.1-0.1,0.2-0.1c0.1,0,0.2,0,0.2,0.1c0.1,0.1,0.1,0.1,0.1,0.2v2.8c0,0.1,0,0.1,0.1,0.1h2.8c0.1,0,0.2,0,0.2,0.1
		s0.1,0.2,0.1,0.2s0,0.2-0.1,0.2s-0.2,0.1-0.2,0.1h-2.8c-0.1,0-0.1,0-0.1,0.1v7.4c0,0.8,0.1,1.4,0.4,1.8c0.3,0.4,0.8,0.6,1.5,0.6
		c0.3,0,0.7-0.1,1.1-0.2c0.1,0,0.2,0,0.3,0c0.1,0,0.1,0.1,0.2,0.2c0,0,0,0.1,0,0.1c0,0.1,0,0.1,0,0.1c0,0.1-0.1,0.1-0.2,0.2
		C308.5,17.7,308,17.8,307.7,17.8z"/>
	<path class="st15" d="M314.8,17.8c-1.1,0-2-0.3-2.5-1s-0.8-1.8-0.8-3.2V6.9c0-0.1,0-0.2,0.1-0.3c0.1-0.1,0.2-0.1,0.3-0.1
		c0.1,0,0.2,0,0.3,0.1c0.1,0.1,0.1,0.2,0.1,0.3v6.6c0,1.2,0.2,2.2,0.6,2.7c0.4,0.6,1.1,0.9,2,0.9c0.7,0,1.3-0.2,1.8-0.5
		s1.2-1,1.9-1.8c0,0,0-0.1,0-0.2V6.9c0-0.1,0-0.2,0.1-0.3s0.2-0.1,0.3-0.1s0.2,0,0.3,0.1s0.1,0.2,0.1,0.3v10.4c0,0.1,0,0.2-0.1,0.2
		c-0.1,0.1-0.1,0.1-0.2,0.1s-0.2,0-0.2-0.1c-0.1-0.1-0.1-0.1-0.1-0.2l-0.1-1.5c0,0,0,0,0,0c0,0,0,0,0,0c-0.6,0.7-1.2,1.2-1.8,1.6
		C316.2,17.6,315.5,17.8,314.8,17.8z"/>
	<path class="st15" d="M327.4,17.8c-1.4,0-2.5-0.5-3.4-1.5c-0.8-1-1.2-2.4-1.2-4.3c0-1.7,0.5-3.1,1.4-4.2c1-1.1,2.1-1.6,3.5-1.6
		c0.6,0,1.2,0.1,1.7,0.3c0.5,0.2,1,0.6,1.6,1c0,0,0,0,0.1,0c0,0,0,0,0,0l-0.1-2V1.2c0-0.1,0-0.2,0.1-0.3c0.1-0.1,0.2-0.1,0.3-0.1
		c0.1,0,0.2,0,0.3,0.1c0.1,0.1,0.1,0.2,0.1,0.3v16c0,0.1,0,0.2-0.1,0.2c-0.1,0.1-0.1,0.1-0.2,0.1s-0.2,0-0.2-0.1
		c-0.1-0.1-0.1-0.1-0.1-0.2l-0.1-1.1c0,0,0,0,0,0s0,0,0,0C329.9,17.2,328.7,17.8,327.4,17.8z M327.4,17.1c1.1,0,2.3-0.6,3.6-1.9
		c0,0,0.1-0.1,0.1-0.1V8.5c0-0.1,0-0.1-0.1-0.1c-1.1-1-2.2-1.5-3.3-1.5c-1.2,0-2.1,0.5-2.9,1.5s-1.2,2.2-1.2,3.7
		c0,1.5,0.3,2.8,1,3.7C325.3,16.7,326.2,17.1,327.4,17.1z"/>
	<path class="st15" d="M336.6,3.7c-0.2,0-0.4-0.1-0.6-0.2c-0.2-0.1-0.2-0.3-0.2-0.6s0.1-0.4,0.2-0.6s0.3-0.2,0.6-0.2
		c0.2,0,0.4,0.1,0.6,0.2s0.2,0.3,0.2,0.6c0,0.2-0.1,0.4-0.2,0.6S336.9,3.7,336.6,3.7z M336.9,17.4c-0.1,0.1-0.2,0.1-0.3,0.1
		s-0.2,0-0.3-0.1c-0.1-0.1-0.1-0.2-0.1-0.3V6.9c0-0.1,0-0.2,0.1-0.3s0.2-0.1,0.3-0.1s0.2,0,0.3,0.1s0.1,0.2,0.1,0.3v10.3
		C337,17.3,337,17.4,336.9,17.4z"/>
	<path class="st15" d="M348.8,16.2c-1,1-2.1,1.6-3.5,1.6s-2.5-0.5-3.5-1.6c-1-1-1.4-2.4-1.4-4.2c0-1.8,0.5-3.2,1.4-4.3
		c0.9-1.1,2.1-1.6,3.5-1.6s2.5,0.5,3.5,1.6s1.4,2.5,1.4,4.3C350.2,13.8,349.8,15.2,348.8,16.2z M342.4,15.7c0.8,1,1.8,1.4,3,1.4
		s2.2-0.5,3-1.4c0.8-0.9,1.2-2.2,1.2-3.7c0-1.5-0.4-2.8-1.2-3.7s-1.8-1.4-3-1.4s-2.2,0.5-3,1.4s-1.2,2.2-1.2,3.7
		C341.2,13.5,341.6,14.8,342.4,15.7z"/>
	<path class="st15" d="M372,17.2c-0.2,0.2-0.5,0.3-0.8,0.3s-0.6-0.1-0.8-0.3s-0.3-0.5-0.3-0.9c0-0.4,0.1-0.7,0.3-0.9
		s0.5-0.3,0.8-0.3s0.6,0.1,0.8,0.3s0.3,0.5,0.3,0.9C372.4,16.7,372.3,17,372,17.2z M371.4,12.7c-0.1,0.1-0.1,0.1-0.2,0.1
		s-0.2,0-0.2-0.1c-0.1-0.1-0.1-0.1-0.1-0.2l-0.3-8.8V2.4c0-0.2,0.1-0.3,0.2-0.4c0.1-0.1,0.3-0.2,0.4-0.2s0.3,0.1,0.4,0.2
		c0.1,0.1,0.2,0.3,0.2,0.4v1.3l-0.3,8.8C371.5,12.6,371.5,12.7,371.4,12.7z"/>
	<path class="st15" d="M392.1,12.5c0,0.1,0,0.2-0.1,0.2c-0.1,0.1-0.1,0.1-0.2,0.1c-0.1,0-0.2,0-0.3-0.1s-0.1-0.2-0.1-0.2
		c0-0.1,0-0.3,0-0.4c0-0.4,0.1-0.8,0.2-1.1c0.2-0.5,0.5-0.9,0.8-1.3c0.3-0.4,0.7-0.7,1.1-1.1c0.4-0.4,0.8-0.7,1.2-1
		c0.4-0.3,0.7-0.7,0.9-1.1s0.4-0.8,0.4-1.2c0-0.9-0.3-1.6-0.9-2.2c-0.6-0.6-1.5-0.9-2.8-0.9c-1.6,0-3,0.6-4.3,1.9
		c-0.2,0.2-0.3,0.2-0.5,0c-0.1-0.1-0.1-0.2-0.1-0.3c0-0.1,0-0.2,0.1-0.3c0.7-0.7,1.5-1.2,2.2-1.5c0.8-0.3,1.6-0.5,2.7-0.5
		c1.4,0,2.5,0.3,3.3,1c0.8,0.7,1.2,1.6,1.2,2.6c0,0.5-0.1,1-0.4,1.4s-0.6,0.8-0.9,1.2c-0.4,0.3-0.8,0.7-1.2,1.1s-0.8,0.7-1.2,1
		c-0.3,0.3-0.6,0.7-0.9,1.2c-0.2,0.4-0.2,0.7-0.2,1.1C392.1,12.2,392.1,12.3,392.1,12.5z M391.1,17.2c-0.2-0.2-0.4-0.5-0.4-0.9
		c0-0.4,0.1-0.7,0.4-0.9c0.2-0.2,0.5-0.3,0.8-0.3s0.6,0.1,0.8,0.3s0.3,0.5,0.3,0.9c0,0.4-0.1,0.7-0.3,0.9s-0.5,0.3-0.8,0.3
		S391.3,17.4,391.1,17.2z"/>
</g>
</svg>
