<?xml version="1.0" encoding="utf-8"?>
<!-- Generator: Adobe Illustrator 24.3.0, SVG Export Plug-In . SVG Version: 6.00 Build 0)  -->
<svg version="1.1" id="图层_1" xmlns="http://www.w3.org/2000/svg" xmlns:xlink="http://www.w3.org/1999/xlink" x="0px" y="0px"
	 viewBox="0 0 431.4 21.5" style="enable-background:new 0 0 431.4 21.5;" xml:space="preserve">
<style type="text/css">
	.st0{fill:none;stroke:#AF8A6D;stroke-width:7.0866;stroke-miterlimit:10;}
	.st1{fill:none;stroke:#7B5744;stroke-width:5.6693;stroke-miterlimit:10;}
	.st2{fill:none;stroke:#EEDFBE;stroke-width:8.5039;stroke-miterlimit:10;}
	.st3{fill:none;}
	.st4{fill:#BB474B;}
	.st5{fill:#A7C349;}
	.st6{fill:#E0EDF2;stroke:#E0EDF2;stroke-width:0.2835;stroke-miterlimit:10;}
	.st7{fill:#E0EDF2;stroke:#E0EDF2;stroke-width:0.1417;stroke-miterlimit:10;}
	.st8{fill:#E0EDF2;stroke:#E0EDF2;stroke-width:0.4252;stroke-miterlimit:10;}
	.st9{fill:#E0EDF2;stroke:#E0EDF2;stroke-width:0.5669;stroke-miterlimit:10;}
	.st10{fill:#E0EDF2;stroke:#E0EDF2;stroke-width:0.7087;stroke-miterlimit:10;}
	.st11{fill:#E0EDF2;}
	.st12{fill:#7C5543;stroke:#7B5744;stroke-miterlimit:10;}
	.st13{fill:#ECDDBB;stroke:#EEDFBE;stroke-miterlimit:10;}
	.st14{fill:#AF896D;stroke:#AF8A6D;stroke-miterlimit:10;}
	.st15{fill:#7B5744;}
	.st16{fill:#EEDFBE;}
	.st17{fill:#AF8A6D;}
	.st18{clip-path:url(#SVGID_2_);}
	.st19{fill:none;stroke:#AF8A6D;stroke-width:28.346;stroke-linecap:round;stroke-miterlimit:10;}
	.st20{fill:none;stroke:#7B5744;stroke-width:28.346;stroke-linecap:round;stroke-miterlimit:10;}
	.st21{fill:none;stroke:#EEDFBE;stroke-width:28.346;stroke-linecap:round;stroke-miterlimit:10;}
	.st22{clip-path:url(#SVGID_4_);fill:#010000;}
	.st23{fill:#010000;}
	.st24{fill:none;stroke:#EEDFBE;stroke-width:6;stroke-linecap:round;stroke-linejoin:round;}
	.st25{fill:none;stroke:#AF8A6D;stroke-width:13.1913;stroke-linecap:round;stroke-miterlimit:10;}
	.st26{fill:none;stroke:#EEDFBE;stroke-width:13.1913;stroke-linecap:round;stroke-miterlimit:10;}
	.st27{fill:none;stroke:#7B5744;stroke-width:13.1913;stroke-linecap:round;stroke-miterlimit:10;}
	.st28{fill:none;stroke:#7B5744;stroke-width:13.2334;stroke-linecap:round;stroke-miterlimit:10;}
	.st29{fill:#BD8A6D;}
	.st30{fill:#F2DEBA;}
	.st31{fill:#885441;}
	.st32{fill:none;stroke:#AF8A6D;stroke-width:4.0495;stroke-linecap:round;stroke-miterlimit:10;}
	.st33{fill:none;stroke:#EEDFBE;stroke-width:4.0495;stroke-linecap:round;stroke-miterlimit:10;}
	.st34{fill:none;stroke:#7B5744;stroke-width:4.0495;stroke-linecap:round;stroke-miterlimit:10;}
	.st35{fill:none;stroke:#A7C349;stroke-width:3;stroke-linecap:round;}
	.st36{fill:none;stroke:#BB474B;stroke-width:3;stroke-linecap:round;}
	.st37{enable-background:new    ;}
</style>
<g class="st37">
	<path class="st15" d="M6.1,6.1V9h2V11h-2v2.4C7,13.2,7.9,13,8.7,12.8v2C7.8,15,7,15.2,6.1,15.4v4.1H4v-3.7
		c-1.2,0.2-2.4,0.4-3.7,0.5L0,14.2c1.4-0.2,2.7-0.3,3.9-0.5V11H0.8l-0.5-2c0.5-1.2,1.1-2.6,1.6-4.4H0V2.5h2.4C2.5,1.8,2.7,1,2.8,0.1
		l2,0.3C4.7,1.2,4.6,1.9,4.4,2.5h3.8v2.1H3.9C3.5,6.3,3,7.7,2.5,9H4V6.1H6.1z M8.9,12.9v-2.1h9.3v2.1h-3.7v3.9h4.6v2.1H7.6v-2.1h4.7
		v-3.9H8.9z M9.3,10.3L8,8.5c3.3-1.3,5.6-3,6.9-5.2H8.9V1.1h8.4v1.7c-0.4,1.1-1,2.2-1.8,3.1c1.4,0.9,2.7,1.9,3.7,2.8l-1.5,1.6
		c-0.9-0.9-2.1-1.9-3.6-2.9C12.9,8.5,11.3,9.5,9.3,10.3z"/>
	<path class="st15" d="M26.2,19.5H24v-9.1c-0.6,1.6-1.4,3.1-2.2,4.5l-1-2.4c1.5-1.8,2.5-3.9,3.2-6.3h-2.8V4.1H24V0.2h2.2v3.9h2.3
		v2.1h-2.3v1.1c1,1,1.9,2.2,2.9,3.5l-1.3,2c-0.6-1.1-1.2-2.1-1.6-2.9V19.5z M33.4,1.3c-0.9,3.9-2.1,6.9-3.5,9l-1.7-1.4
		c1.4-2.1,2.5-4.9,3.2-8.4L33.4,1.3z M39.8,18.8l-2.1,0.9c-0.2-0.7-0.4-1.3-0.6-1.9c-2.4,0.6-5.1,1-8,1.3L28.7,17
		c1-0.3,2.5-3.5,4.4-9.6l2.2,0.8c-1.2,3.4-2.4,6.2-3.7,8.7c1.6-0.2,3.3-0.5,4.8-0.8c-0.5-1.3-1-2.4-1.5-3.5l2-0.7
		C38,14,39,16.3,39.8,18.8z M40.4,8.7L39,10.4C37.1,8,35.8,5,35,1.3l1.8-1C37.5,3.7,38.7,6.5,40.4,8.7z"/>
	<path class="st15" d="M46,8.8v7.7c0,0.5,0.3,0.8,0.9,0.8h3.5c0.6,0,1-0.2,1.1-0.5c0.1-0.3,0.3-1,0.4-2.1l2.1,0.7
		c-0.2,1.8-0.4,3-0.8,3.3c-0.4,0.3-1,0.5-2.1,0.5h-5.1c-1.4,0-2.1-0.7-2.1-2V7.6L43,8.4l-1.3-1.8c2-1.8,3.8-3.9,5.4-6.4h1.6
		c1.9,1.9,3.6,3.9,5.2,6l-1.4,1.5c-1.8-2.4-3.3-4.2-4.4-5.4c-1,1.6-2.2,3.1-3.6,4.5h7.3v5.9c0,1.2-0.7,1.8-2,1.9
		c-0.8,0-1.6,0-2.3-0.1l-0.5-2c0.8,0.1,1.4,0.1,2,0.1c0.5,0,0.7-0.2,0.7-0.7V8.8H46z M56.9,2v12.9h-2.1V2H56.9z M55.3,19.4l-0.5-2.1
		c1,0.1,2,0.1,2.9,0.1c0.5,0,0.8-0.3,0.8-0.9V0.3h2.2v16.9c0,1.5-0.7,2.3-2.2,2.3H55.3z"/>
	<path class="st15" d="M66.8,14.7c-0.5,1.7-1.2,3.1-2,4.3l-1.9-1.2c0.8-1.1,1.4-2.3,1.8-3.5L66.8,14.7z M64.4,3.1V1.3h6.8
		C71,1,70.9,0.7,70.7,0.4L73.1,0c0.2,0.4,0.3,0.8,0.5,1.3h7.2v1.8h-3.3L77,4.2h4.8v1.9H63.4V4.2H68l-0.4-1.1H64.4z M79.7,6.8v6.7
		h-6.4c0.8,0.8,1.4,1.5,1.8,2.1l-1.8,1.3c-0.5-0.7-1.1-1.4-1.9-2.3l1.8-1.1h-7.7V6.8H79.7z M77.6,9.4V8.5h-9.9v0.9H77.6z M77.6,11
		h-9.9v0.9h9.9V11z M70.4,19.3c-1.7,0-2.5-0.8-2.5-2.2v-2.7h2.2v2.2c0,0.5,0.3,0.8,0.9,0.8h4.1c0.4,0,0.6-0.1,0.8-0.3
		c0.2-0.2,0.3-0.7,0.4-1.6l2.1,0.7c-0.2,1.5-0.5,2.4-0.9,2.6c-0.4,0.3-1,0.4-1.9,0.4H70.4z M74.7,4.2l0.5-1.1h-5.4l0.4,1.1H74.7z
		 M82.4,17.5l-1.8,1.3C79.9,17.6,79,16.4,78,15l1.8-1.1C80.9,15.3,81.8,16.5,82.4,17.5z"/>
	<path class="st15" d="M89,16.9c0,2.1-1,3.6-2.9,4.6l-0.7-1.2c1.3-0.8,1.9-1.7,2.1-2.9c-0.1,0-0.3,0-0.4,0c-0.5,0-0.8-0.1-1.2-0.4
		c-0.3-0.3-0.5-0.7-0.5-1.1c0-0.5,0.1-0.9,0.5-1.2c0.3-0.3,0.7-0.4,1.2-0.4C88.3,14.3,89,15.1,89,16.9z"/>
	<path class="st15" d="M115.6,2.2h6.2v9.2h-7c0.7,1,1.4,2,2.4,2.8c1.4-0.6,2.7-1.5,4-2.8l1.6,1.6c-1.1,1-2.4,1.8-3.7,2.5
		c1.6,0.9,3.4,1.6,5.4,2l-1,2.1c-5.1-1.3-8.7-4-10.9-8.2h-3.1V17c1.6-0.4,3.3-0.8,4.9-1.4l0.5,2.1c-2,0.7-4.6,1.3-7.6,2l-0.5-2
		c0.3-0.2,0.5-0.5,0.5-0.9V2.2h6.2c-0.3-0.7-0.5-1.2-0.8-1.8l2.4-0.4C115.1,0.7,115.4,1.4,115.6,2.2z M119.6,4.2h-10.2v1.6h10.2V4.2
		z M109.4,9.4h10.2V7.7h-10.2V9.4z"/>
	<path class="st15" d="M131.4,0.2c-0.2,1.3-0.5,2.6-0.7,3.7h3.4v1.2c-0.1,3.3-0.8,6.1-1.9,8.5c1.1,0.9,2,1.7,2.8,2.4l-1.5,1.7
		c-0.7-0.7-1.4-1.4-2.3-2.1c-1,1.6-2.2,3-3.8,4.1l-1.5-1.9c1.4-1,2.6-2.3,3.5-3.7c-0.9-0.8-2-1.6-3.1-2.4c0.6-1.8,1.2-3.7,1.7-5.7
		h-1.9V3.9h2.4c0.3-1.3,0.5-2.6,0.7-3.9L131.4,0.2z M132,6.1h-1.7c-0.5,2-0.9,3.7-1.4,5.1c0.6,0.4,1.2,0.8,1.7,1.2
		C131.4,10.5,131.9,8.4,132,6.1z M139.1,8.8V6.4c1-0.9,2-2,3-3.3h-6.8V1h9.4v2.1c-1,1.4-2.1,2.7-3.3,3.9v1.6h4v2.1h-4v6
		c0,1.6-0.6,2.5-1.8,2.5h-3.1l-0.6-2.1c0.8,0,1.8,0,2.8,0c0.4,0,0.5-0.4,0.5-1.1v-5.4h-4.5V8.8H139.1z"/>
	<path class="st15" d="M151.8,6.4v8.7c0.6-0.5,1.3-1.1,2-1.8l0.6,2.3c-1.4,1.3-2.9,2.4-4.4,3.4l-0.8-2c0.4-0.3,0.5-0.7,0.5-1.2V8.5
		h-2.7V6.4H151.8z M153.1,3.5L151.6,5c-0.8-1-2-2-3.4-3.1l1.5-1.4C151.1,1.5,152.2,2.5,153.1,3.5z M164.7,8.9v2
		c-0.6,1.8-1.6,3.4-2.9,4.7c1.3,0.8,2.9,1.6,4.7,2.2l-1.2,1.9c-2.1-0.8-3.8-1.8-5.2-2.8c-1.6,1.2-3.6,2.1-6,2.8l-1.2-1.8
		c2.2-0.6,4-1.4,5.5-2.4c-1.3-1.3-2.3-2.8-2.8-4.5h-1.2V8.9H164.7z M163.4,0.8v4.3c0,0.5,0.3,0.7,0.8,0.7h1.8v2h-2.4
		c-1.6,0-2.4-0.7-2.4-2.2V2.9H158v0.6c0,2.2-1.1,3.9-3.4,5.1l-1.5-1.7c1.8-0.7,2.7-1.8,2.7-3.1V0.8H163.4z M160,14.3
		c1.1-1,1.9-2,2.5-3.3h-4.8C158.1,12.2,158.9,13.3,160,14.3z"/>
	<path class="st15" d="M172.9,6.4v8.8c0.6-0.5,1.3-1.1,2-1.8l0.6,2.2c-1.4,1.3-2.8,2.4-4.4,3.4l-0.8-2c0.4-0.3,0.6-0.7,0.6-1.1V8.5
		h-2.9V6.4H172.9z M174.2,3.4l-1.5,1.5c-0.8-1-2-2-3.4-3.1l1.6-1.5C172.2,1.3,173.3,2.4,174.2,3.4z M179.9,6.2V0.1h2.3v6.1h5.1v2.2
		h-5.1v11.3h-2.3V8.4h-5.4V6.2H179.9z"/>
	<path class="st15" d="M195.4,15.1c0.6,0.5,0.9,1.2,0.9,2c0,0.8-0.3,1.5-0.9,2c-0.6,0.5-1.3,0.8-2.1,0.8c-0.8,0-1.5-0.3-2.1-0.8
		c-0.6-0.5-0.9-1.2-0.9-2c0-0.8,0.3-1.5,0.9-2c0.6-0.5,1.3-0.8,2.1-0.8C194.1,14.2,194.8,14.5,195.4,15.1z M192.4,16.1
		c-0.3,0.3-0.4,0.6-0.4,1c0,0.4,0.1,0.7,0.4,1c0.3,0.3,0.6,0.4,1,0.4s0.7-0.1,1-0.4c0.3-0.3,0.4-0.6,0.4-1c0-0.4-0.1-0.7-0.4-1
		c-0.3-0.3-0.6-0.4-1-0.4S192.6,15.8,192.4,16.1z"/>
	<path class="st15" d="M221.4,3.5c1.1,0.9,1.7,2.1,2,3.6H221c-0.3-1-0.7-1.7-1.4-2.2c-0.7-0.5-1.5-0.7-2.6-0.7
		c-1.6,0-2.8,0.5-3.5,1.6c-0.7,1-1.1,2.3-1.1,4c0,1.8,0.4,3.1,1.1,4.1c0.8,1,2,1.5,3.6,1.5c1.1,0,2-0.3,2.6-0.8
		c0.7-0.6,1.2-1.4,1.5-2.6h2.4c-0.3,1.8-1.1,3.1-2.4,4.1c-1.2,0.9-2.5,1.4-4.2,1.4c-2.5,0-4.4-0.8-5.6-2.4c-1.1-1.3-1.6-3.1-1.6-5.4
		c0-2.2,0.5-4.1,1.7-5.4c1.3-1.6,3.1-2.4,5.5-2.4C218.8,2.1,220.3,2.6,221.4,3.5z"/>
	<path class="st15" d="M234.7,7.9c1,1.1,1.5,2.4,1.5,4.1c0,1.7-0.5,3-1.5,4.1c-1,1.1-2.4,1.6-4,1.6c-1.7,0-3-0.5-4-1.6
		c-1-1-1.5-2.4-1.5-4.1c0-1.7,0.5-3,1.5-4.1c1-1.1,2.3-1.6,4-1.6C232.4,6.3,233.7,6.8,234.7,7.9z M228.5,9.4
		c-0.5,0.7-0.7,1.6-0.7,2.6s0.2,1.9,0.7,2.6c0.5,0.8,1.3,1.2,2.3,1.2c1,0,1.8-0.4,2.3-1.2c0.5-0.7,0.7-1.6,0.7-2.6
		c0-1-0.3-1.9-0.7-2.6c-0.5-0.8-1.3-1.2-2.3-1.2C229.8,8.2,229,8.6,228.5,9.4z"/>
	<path class="st15" d="M248,10.7v6.7h-2.4v-6.5c0-1.8-0.8-2.7-2.5-2.7c-0.6,0-1.1,0.2-1.6,0.6c-0.5,0.5-0.8,1.1-0.9,2v6.5h-2.4V6.6
		h2.4v1.3c0.4-0.5,0.9-0.9,1.4-1.2c0.5-0.3,1.1-0.4,1.8-0.4C246.6,6.3,248,7.7,248,10.7z"/>
	<path class="st15" d="M258.8,7.2c0.9,0.7,1.4,1.7,1.6,3H258c-0.1-0.7-0.4-1.2-0.9-1.5c-0.4-0.3-1-0.5-1.7-0.5c-0.9,0-1.6,0.3-2.1,1
		c-0.5,0.7-0.8,1.6-0.8,2.8c0,1.2,0.2,2.1,0.7,2.8c0.5,0.7,1.2,1,2.1,1c1.6,0,2.5-0.8,2.7-2.4h2.4c-0.3,1.5-0.8,2.6-1.7,3.3
		c-0.8,0.7-2,1-3.4,1c-1.7,0-3-0.5-3.9-1.6c-0.9-1-1.3-2.4-1.3-4.1c0-1.6,0.4-3,1.3-4c0.9-1.1,2.3-1.7,4-1.7
		C256.8,6.3,257.9,6.6,258.8,7.2z"/>
	<path class="st15" d="M271,8.1c0.9,1.1,1.3,2.6,1.3,4.6h-8.1c0.1,1,0.4,1.8,0.8,2.3c0.5,0.5,1.1,0.8,2,0.8c0.7,0,1.3-0.2,1.8-0.5
		c0.4-0.3,0.7-0.7,1-1.3h2.4c-0.3,1-0.8,1.9-1.5,2.5c-1,0.8-2.2,1.2-3.6,1.2c-1.6,0-2.9-0.5-3.8-1.5c-1-1-1.5-2.4-1.5-4.2
		c0-1.6,0.5-3,1.4-4.1c0.9-1.1,2.2-1.7,3.8-1.7C268.7,6.3,270.1,6.9,271,8.1z M265.1,8.9c-0.4,0.4-0.7,1.1-0.9,2h5.6
		c-0.2-1.8-1.2-2.6-2.8-2.6C266.2,8.2,265.6,8.4,265.1,8.9z"/>
	<path class="st15" d="M282.7,7.5c0.7,0.7,1,1.7,1,3v6.9h-2.2V16c-0.4,0.5-0.9,0.9-1.6,1.2c-0.7,0.3-1.5,0.5-2.5,0.5
		c-1.1,0-2-0.3-2.7-0.9c-0.7-0.6-1-1.3-1-2.2c0-1.2,0.5-2.2,1.4-2.8c0.9-0.6,2.1-1,3.7-1l2.4-0.1v-0.4c0-1.4-0.8-2.1-2.3-2.1
		c-0.7,0-1.2,0.1-1.6,0.4c-0.5,0.3-0.8,0.7-0.9,1.3l-2.4-0.2c0.2-1.2,0.8-2.1,1.8-2.6c0.8-0.5,1.9-0.7,3.3-0.7
		C280.7,6.3,281.9,6.7,282.7,7.5z M279.1,12.5c-1.9,0-2.9,0.7-2.9,2c0,0.4,0.1,0.7,0.5,0.9s0.8,0.4,1.3,0.4c0.9,0,1.7-0.3,2.3-0.8
		c0.6-0.5,1-1.2,1-2.1v-0.5L279.1,12.5z"/>
	<path class="st15" d="M288.8,2.1v15.3h-2.4V2.1H288.8z"/>
	<path class="st15" d="M300.3,8.1c0.9,1.1,1.3,2.6,1.3,4.6h-8.1c0.1,1,0.4,1.8,0.8,2.3c0.5,0.5,1.1,0.8,2,0.8c0.7,0,1.3-0.2,1.8-0.5
		c0.4-0.3,0.7-0.7,1-1.3h2.4c-0.3,1-0.8,1.9-1.5,2.5c-1,0.8-2.2,1.2-3.6,1.2c-1.6,0-2.9-0.5-3.8-1.5c-1-1-1.5-2.4-1.5-4.2
		c0-1.6,0.5-3,1.4-4.1c0.9-1.1,2.2-1.7,3.8-1.7C298,6.3,299.3,6.9,300.3,8.1z M294.4,8.9c-0.4,0.4-0.7,1.1-0.9,2h5.6
		c-0.2-1.8-1.2-2.6-2.8-2.6C295.4,8.2,294.8,8.4,294.4,8.9z"/>
	<path class="st15" d="M313.6,2.1v15.3h-2.2v-1.2c-0.8,1-1.8,1.4-3.3,1.4c-1.6,0-2.9-0.6-3.8-1.7c-0.8-1.1-1.3-2.4-1.3-4.1
		c0-1.6,0.4-2.9,1.2-4c0.9-1.1,2.1-1.7,3.7-1.7c1.3,0,2.3,0.6,3.2,1.8V2.1H313.6z M306.2,9.3c-0.4,0.6-0.7,1.5-0.7,2.7
		s0.2,2.1,0.6,2.7c0.5,0.8,1.3,1.1,2.3,1.1c0.9,0,1.7-0.4,2.2-1.1c0.4-0.7,0.7-1.6,0.7-2.6v-0.2c0-1.2-0.3-2.1-0.8-2.8
		c-0.5-0.6-1.2-0.9-1.9-0.9C307.4,8.2,306.7,8.6,306.2,9.3z"/>
	<path class="st15" d="M332.7,3.2c1,0.8,1.7,2,1.8,3.6h-2.4c-0.2-0.9-0.6-1.6-1.2-2c-0.5-0.4-1.4-0.6-2.5-0.6
		c-0.9,0-1.7,0.1-2.2,0.4c-0.6,0.3-0.9,0.8-0.9,1.6c0,0.6,0.3,1.2,1.1,1.5c0.3,0.2,1.2,0.5,2.6,0.9c2,0.6,3.3,1.1,3.9,1.5
		c1.3,0.8,2,1.8,2,3.2c0,1.3-0.5,2.4-1.6,3.2c-1,0.8-2.5,1.2-4.5,1.2c-1.8,0-3.3-0.4-4.3-1.1c-1.3-0.9-2-2.3-2.1-4.2h2.4
		c0.2,1.1,0.6,2,1.2,2.4c0.6,0.4,1.5,0.7,2.7,0.7c1.1,0,2-0.2,2.6-0.5c0.6-0.4,1-0.9,1-1.5c0-0.8-0.5-1.4-1.4-1.9
		c-0.3-0.1-1.3-0.5-2.9-1c-1.8-0.6-3-1-3.4-1.3c-1.2-0.7-1.7-1.7-1.7-3c0-1.3,0.5-2.4,1.7-3.1c1-0.7,2.4-1.1,4-1.1
		C330.4,2.1,331.8,2.5,332.7,3.2z"/>
	<path class="st15" d="M340.2,6.6h2.4v2h-2.4v6.1c0,0.3,0,0.4,0.2,0.6c0.1,0.1,0.3,0.2,0.5,0.2h1.4v2h-1.8c-0.9,0-1.6-0.3-2.1-0.8
		c-0.4-0.5-0.6-1.1-0.6-2V8.5h-2v-2h2V4.1l2.4-1V6.6z"/>
	<path class="st15" d="M346.8,6.6v6.6c0,0.9,0.2,1.5,0.5,1.9c0.4,0.4,1,0.6,1.8,0.6c0.5,0,1-0.2,1.5-0.7c0.5-0.5,0.8-1.1,1-1.8V6.6
		h2.4v10.9h-2.4V16c-0.9,1.1-2.1,1.7-3.4,1.7c-2.6,0-3.9-1.5-3.9-4.4V6.6H346.8z"/>
	<path class="st15" d="M366.7,2.1v15.3h-2.2v-1.2c-0.8,1-1.8,1.4-3.3,1.4c-1.6,0-2.9-0.6-3.8-1.7c-0.8-1.1-1.3-2.4-1.3-4.1
		c0-1.6,0.4-2.9,1.2-4c0.9-1.1,2.1-1.7,3.7-1.7c1.3,0,2.3,0.6,3.2,1.8V2.1H366.7z M359.3,9.3c-0.4,0.6-0.7,1.5-0.7,2.7
		s0.2,2.1,0.6,2.7c0.5,0.8,1.3,1.1,2.3,1.1c0.9,0,1.7-0.4,2.2-1.1c0.4-0.7,0.7-1.6,0.7-2.6v-0.2c0-1.2-0.3-2.1-0.8-2.8
		c-0.5-0.6-1.2-0.9-1.9-0.9C360.6,8.2,359.8,8.6,359.3,9.3z"/>
	<path class="st15" d="M372,2.6c0.3,0.3,0.5,0.7,0.5,1.1c0,0.5-0.2,0.9-0.5,1.2s-0.7,0.4-1.2,0.4c-0.5,0-0.8-0.1-1.2-0.4
		c-0.3-0.3-0.5-0.7-0.5-1.2c0-0.5,0.1-0.8,0.5-1.1c0.3-0.3,0.7-0.4,1.2-0.4C371.3,2.1,371.7,2.3,372,2.6z M372.1,6.6v10.9h-2.4V6.6
		H372.1z"/>
	<path class="st15" d="M384,7.9c1,1.1,1.5,2.4,1.5,4.1c0,1.7-0.5,3-1.5,4.1c-1,1.1-2.4,1.6-4,1.6c-1.7,0-3-0.5-4-1.6
		c-1-1-1.5-2.4-1.5-4.1c0-1.7,0.5-3,1.5-4.1c1-1.1,2.3-1.6,4-1.6C381.7,6.3,383,6.8,384,7.9z M377.7,9.4c-0.5,0.7-0.7,1.6-0.7,2.6
		s0.2,1.9,0.7,2.6c0.5,0.8,1.3,1.2,2.3,1.2c1,0,1.8-0.4,2.3-1.2c0.5-0.7,0.7-1.6,0.7-2.6c0-1-0.3-1.9-0.7-2.6
		c-0.5-0.8-1.3-1.2-2.3-1.2C379,8.2,378.3,8.6,377.7,9.4z"/>
	<path class="st15" d="M406.8,14.7c0.3,0.3,0.5,0.7,0.5,1.1s-0.2,0.9-0.5,1.2c-0.3,0.3-0.7,0.4-1.2,0.4s-0.8-0.2-1.1-0.5
		c-0.3-0.3-0.5-0.7-0.5-1.1s0.1-0.8,0.5-1.1c0.3-0.3,0.7-0.4,1.1-0.4S406.5,14.4,406.8,14.7z M407,2.4l-0.5,10.7h-1.8l-0.5-10.7H407
		z"/>
	<path class="st15" d="M430.1,3.3c0.8,0.7,1.3,1.7,1.3,3c0,1-0.3,1.9-0.8,2.6c-0.2,0.2-0.8,0.8-1.8,1.7c-0.4,0.3-0.7,0.7-0.8,1.1
		c-0.2,0.4-0.3,0.9-0.3,1.4v0.3h-2.4v-0.3c0-0.8,0.1-1.5,0.4-2.1c0.3-0.6,1.1-1.4,2.5-2.7l0.3-0.3c0.4-0.5,0.6-1,0.6-1.5
		c0-0.7-0.2-1.2-0.6-1.6c-0.4-0.4-1-0.6-1.7-0.6c-0.9,0-1.6,0.3-2,0.9c-0.4,0.5-0.5,1.2-0.5,2.1h-2.4c0-1.6,0.4-2.8,1.4-3.7
		c0.9-0.9,2.1-1.3,3.7-1.3C428.2,2.1,429.3,2.5,430.1,3.3z M427.6,14.7c0.3,0.3,0.5,0.7,0.5,1.1s-0.2,0.9-0.5,1.2
		c-0.3,0.3-0.7,0.4-1.2,0.4c-0.5,0-0.8-0.2-1.2-0.5s-0.5-0.7-0.5-1.1s0.1-0.8,0.5-1.1s0.7-0.4,1.2-0.4
		C426.9,14.3,427.3,14.4,427.6,14.7z"/>
</g>
</svg>
