<?xml version="1.0" encoding="utf-8"?>
<!-- Generator: Adobe Illustrator 24.3.0, SVG Export Plug-In . SVG Version: 6.00 Build 0)  -->
<svg version="1.1" id="图层_1" xmlns="http://www.w3.org/2000/svg" xmlns:xlink="http://www.w3.org/1999/xlink" x="0px" y="0px"
	 viewBox="0 0 395.2 21.9" style="enable-background:new 0 0 395.2 21.9;" xml:space="preserve">
<style type="text/css">
	.st0{fill:none;stroke:#AF8A6D;stroke-width:7.0866;stroke-miterlimit:10;}
	.st1{fill:none;stroke:#7B5744;stroke-width:5.6693;stroke-miterlimit:10;}
	.st2{fill:none;stroke:#EEDFBE;stroke-width:8.5039;stroke-miterlimit:10;}
	.st3{fill:none;}
	.st4{fill:#BB474B;}
	.st5{fill:#A7C349;}
	.st6{fill:#E0EDF2;stroke:#E0EDF2;stroke-width:0.2835;stroke-miterlimit:10;}
	.st7{fill:#E0EDF2;stroke:#E0EDF2;stroke-width:0.1417;stroke-miterlimit:10;}
	.st8{fill:#E0EDF2;stroke:#E0EDF2;stroke-width:0.4252;stroke-miterlimit:10;}
	.st9{fill:#E0EDF2;stroke:#E0EDF2;stroke-width:0.5669;stroke-miterlimit:10;}
	.st10{fill:#E0EDF2;stroke:#E0EDF2;stroke-width:0.7087;stroke-miterlimit:10;}
	.st11{fill:#E0EDF2;}
	.st12{fill:#7C5543;stroke:#7B5744;stroke-miterlimit:10;}
	.st13{fill:#ECDDBB;stroke:#EEDFBE;stroke-miterlimit:10;}
	.st14{fill:#AF896D;stroke:#AF8A6D;stroke-miterlimit:10;}
	.st15{fill:#7B5744;}
	.st16{fill:#EEDFBE;}
	.st17{fill:#AF8A6D;}
	.st18{clip-path:url(#SVGID_2_);}
	.st19{fill:none;stroke:#AF8A6D;stroke-width:28.346;stroke-linecap:round;stroke-miterlimit:10;}
	.st20{fill:none;stroke:#7B5744;stroke-width:28.346;stroke-linecap:round;stroke-miterlimit:10;}
	.st21{fill:none;stroke:#EEDFBE;stroke-width:28.346;stroke-linecap:round;stroke-miterlimit:10;}
	.st22{clip-path:url(#SVGID_4_);fill:#010000;}
	.st23{fill:#010000;}
	.st24{fill:none;stroke:#EEDFBE;stroke-width:6;stroke-linecap:round;stroke-linejoin:round;}
	.st25{fill:none;stroke:#AF8A6D;stroke-width:13.1913;stroke-linecap:round;stroke-miterlimit:10;}
	.st26{fill:none;stroke:#EEDFBE;stroke-width:13.1913;stroke-linecap:round;stroke-miterlimit:10;}
	.st27{fill:none;stroke:#7B5744;stroke-width:13.1913;stroke-linecap:round;stroke-miterlimit:10;}
	.st28{fill:none;stroke:#7B5744;stroke-width:13.2334;stroke-linecap:round;stroke-miterlimit:10;}
	.st29{fill:#BD8A6D;}
	.st30{fill:#F2DEBA;}
	.st31{fill:#885441;}
	.st32{fill:none;stroke:#AF8A6D;stroke-width:4.0495;stroke-linecap:round;stroke-miterlimit:10;}
	.st33{fill:none;stroke:#EEDFBE;stroke-width:4.0495;stroke-linecap:round;stroke-miterlimit:10;}
	.st34{fill:none;stroke:#7B5744;stroke-width:4.0495;stroke-linecap:round;stroke-miterlimit:10;}
	.st35{fill:none;stroke:#A7C349;stroke-width:3;stroke-linecap:round;}
	.st36{fill:none;stroke:#BB474B;stroke-width:3;stroke-linecap:round;}
	.st37{enable-background:new    ;}
</style>
<g id="组_3518" transform="translate(0 -2298)">
	<g>
		<defs>
			<rect id="SVGID_1_" x="533.8" y="-640.2" width="1920" height="4106"/>
		</defs>
		<clipPath id="SVGID_2_">
			<use xlink:href="#SVGID_1_"  style="overflow:visible;"/>
		</clipPath>
		<g id="组_3517" class="st18">
			<g id="组_3516">
				<g id="组_3110">
					<g id="组_3109">
						<g id="组_3108">
							<path id="路径_3419" class="st19" d="M478.3,2327l-62.1,61.1c-9.2,9-12.7,22.3-9.3,34.7l13.3,47.7"/>
						</g>
					</g>
				</g>
			</g>
		</g>
	</g>
</g>
<g class="st37">
	<path class="st15" d="M8.4,13.2c-0.7,0.3-1.6,0.7-2.7,1.1V19c0,0.1-0.4,0.4-1.1,0.4H4.5v-4.6c-0.9,0.3-1.8,0.7-2.8,1.1
		c-0.1,0.3-0.3,0.4-0.5,0.5l-1-1.8c0.9-0.1,2.4-0.4,4.3-0.9v-3.7H2.1l-0.7,0.7L0,9.6c0.2-0.1,0.6-0.3,0.9-0.4c0.5-1.2,1-2.9,1.5-4.5
		H0.2L0,4.1h2.5c0.4-1.4,0.8-2.9,1-3.8l1.9,0.6C5.4,1.2,5.2,1.3,4.7,1.3C4.5,2.1,4.2,3,3.9,4.1h2.5L7.3,3c0,0,1.1,0.8,1.7,1.4
		c0,0.2-0.3,0.3-0.5,0.3H3.7C3.2,6.4,2.6,8.2,2.2,9.5h2.4V5.9l2,0.2C6.4,6.4,6.3,6.6,5.8,6.7v2.8h0.6l0.8-1c0,0,1,0.7,1.5,1.3
		c-0.1,0.2-0.2,0.3-0.5,0.3H5.8v3.3c0.8-0.2,1.7-0.4,2.6-0.6L8.4,13.2z M18,16.7c0,0,1.1,0.8,1.8,1.5c0,0.2-0.3,0.3-0.5,0.3H8
		l-0.2-0.6h5.2v-5.4H9.2L9,11.8h7.1l1-1.2c0,0,1.1,0.8,1.8,1.5c0,0.2-0.3,0.3-0.5,0.3h-3.8v5.4H17L18,16.7z M9.1,2.6L8.9,2h6.9
		l1-0.9l1.5,1.4c-0.2,0.2-0.4,0.2-0.9,0.3c-0.7,1.2-1.6,2.4-2.6,3.5c5.9,2,5.4,5,3.8,4.3c-0.8-1.2-2.6-2.9-4.2-3.9
		c-1.6,1.7-3.7,3.3-5.9,4.5L8.2,11c3-2.1,6-5.4,7.5-8.3H9.1z"/>
	<path class="st15" d="M26.2,8.5c4.2,1.9,3.2,4.6,1.8,3.7c-0.3-0.9-1.1-2.1-1.8-3.1v9.8c0,0.2-0.6,0.5-1.1,0.5h-0.3v-10
		c-0.9,2.1-2,3.9-3.6,5.5L21,14.6c1.7-2.5,2.9-5.7,3.5-8.9h-2.8l-0.2-0.6h3.4V0.3L27,0.5c0,0.3-0.2,0.5-0.8,0.6v4h1l0.9-1.3
		c0,0,1.1,0.9,1.7,1.6c-0.1,0.2-0.3,0.3-0.5,0.3h-3V8.5z M28.7,9.9c1.4-2.2,2.5-5.4,2.9-8.8l2.1,0.5c-0.1,0.3-0.3,0.4-0.8,0.5
		c-0.8,3.3-2.1,6.2-4,8L28.7,9.9z M36,12.5c5.7,4.2,4.6,8.1,3,6.7c-0.1-0.6-0.4-1.3-0.7-2.1c-2,0.4-4.9,1.1-8.1,1.6
		c-0.1,0.3-0.3,0.4-0.5,0.5l-0.9-1.9c0,0,0.5-0.1,0.6-0.3c1.5-2,3.5-6.6,4.2-9L35.8,9c-0.1,0.2-0.4,0.4-0.8,0.4
		c-1.1,2.4-3.1,5.8-5,8c1.8-0.1,4.8-0.4,8.1-0.7c-0.7-1.4-1.6-3-2.5-4.1L36,12.5z M37.4,0.9c-0.2,0.3-0.4,0.6-0.8,0.9
		c0.7,2.8,2.2,5.6,4.2,6.9l0,0.2C40.4,9,40,9.5,39.7,10c-2.3-2.1-3.3-5.2-3.9-9.6l0.2-0.1L37.4,0.9z"/>
	<path class="st15" d="M52.5,6.7c-0.6-1.6-2.4-3.5-4-4.9c-0.9,1.6-2.2,3.4-3.7,5L46,7.3h4.2l0.7-0.8l1.5,1.2
		c-0.1,0.2-0.3,0.3-0.8,0.3c0,3.4-0.1,5-0.7,5.5c-0.4,0.4-1.1,0.6-1.7,0.5c0-0.3-0.1-0.7-0.3-0.9s-0.9-0.4-1.5-0.4l0-0.4
		c0.6,0,1.7,0.1,2.1,0.1c0.3,0,0.4,0,0.6-0.2c0.3-0.3,0.3-1.7,0.3-4.5h-4.7v8.9c0,0.4,0.1,0.5,1.1,0.5h2.4c1.2,0,2,0,2.3,0
		c0.3,0,0.4-0.1,0.5-0.3c0.1-0.4,0.4-1.8,0.7-3.3H53l0.1,3.4c0.5,0.2,0.6,0.3,0.6,0.6c0,0.7-0.7,0.9-4.4,0.9h-2.6
		c-1.8,0-2.2-0.4-2.2-1.5v-10C43.7,7.8,43,8.5,42.2,9l-0.2-0.2c2.5-2.3,4.6-6,5.6-8.6l2,0.9c-0.1,0.2-0.3,0.3-0.8,0.2
		C54.9,4.2,54.2,7.8,52.5,6.7z M56.2,14.1c0,0.1-0.6,0.5-1,0.5h-0.3V2.9l2,0.3c0,0.3-0.2,0.5-0.8,0.5V14.1z M61.1,0.5
		c0,0.3-0.3,0.5-0.8,0.6v16.4c0,1.2-0.2,1.8-2.1,2c0-0.4-0.1-0.8-0.4-1c-0.3-0.3-0.8-0.4-1.7-0.5v-0.3c0,0,2,0.2,2.5,0.2
		c0.4,0,0.5-0.1,0.5-0.4V0.2L61.1,0.5z"/>
	<path class="st15" d="M66.5,14.3c0.4,2.2-0.6,3.7-1.4,4.2c-0.5,0.4-1.2,0.4-1.5,0c-0.1-0.4,0.1-0.8,0.5-1c0.9-0.4,1.9-1.7,2.1-3.2
		L66.5,14.3z M80.5,4.4c0,0,1.2,0.9,1.9,1.6c-0.1,0.2-0.2,0.3-0.5,0.3H63.8l-0.2-0.6h11.1c0.4-0.8,0.9-2,1.2-2.9H65.2l-0.2-0.6h7.8
		c-0.4-0.8-1.3-1.6-2.1-2L71,0c3,0.1,3.4,1.7,2.9,2.2H78l1-1.2c0,0,1.2,0.9,1.8,1.5c-0.1,0.2-0.3,0.3-0.5,0.3h-4.3l2,0.7
		c-0.1,0.2-0.4,0.4-0.8,0.4c-0.5,0.5-1.2,1.2-2,1.8h4.2L80.5,4.4z M68.2,13.1v0.4c0,0.1-0.6,0.4-1.1,0.4h-0.2V7l1.5,0.7h9.1l0.8-0.8
		l1.7,1.3c-0.1,0.2-0.5,0.3-0.9,0.4v4.7c0,0.1-0.7,0.5-1.1,0.5h-0.2v-0.7H68.2z M68.2,8.3v1.8h9.4V8.3H68.2z M77.6,12.5v-1.8h-9.4
		v1.8H77.6z M68.7,2.9c3.6,0.9,2.3,3.5,1.1,2.5C69.7,4.6,69,3.6,68.5,3L68.7,2.9z M77.9,17.6c0.5,0.1,0.6,0.3,0.6,0.6
		c0,0.6-0.7,0.8-4.8,0.8h-3c-1.9,0-2.2-0.3-2.2-1.3v-3.6l1.9,0.2c0,0.2-0.2,0.4-0.6,0.5v2.6c0,0.3,0.1,0.4,1.1,0.4h2.9
		c1.3,0,2.3,0,2.7,0c0.3,0,0.4-0.1,0.5-0.3c0.2-0.3,0.4-1.2,0.6-2.2h0.3L77.9,17.6z M71.9,13.5c4,1.2,3.1,4,1.8,3.1
		c-0.2-1-1.2-2.3-2.1-2.9L71.9,13.5z M78.6,14.2c4.7,1.7,3.7,4.8,2.3,3.8c-0.3-1.2-1.4-2.8-2.5-3.7L78.6,14.2z"/>
	<path class="st15" d="M84.6,21.4c1.6-0.9,2.1-2.1,2.2-3c-0.9-0.3-1.9-0.7-1.9-1.7c0-0.7,0.5-1.3,1.4-1.3c1,0,1.6,0.8,1.6,2
		c0,1.6-0.7,3.6-2.9,4.6L84.6,21.4z"/>
	<path class="st15" d="M112.9,12.3c-0.2,0.2-0.4,0.3-0.8,0.1c-1.2,0.7-3.3,1.7-5.2,2.4c1.9,1.6,4.3,2.5,7.3,3.1l0,0.2
		c-0.7,0.1-1.1,0.5-1.3,1.2c-4.8-1.3-7.8-3.8-9.3-8.5h-3.7v6.6c1.5-0.4,3.5-1.1,5.5-1.7l0.1,0.3c-1.4,0.7-3.8,1.8-6.5,3
		c-0.1,0.2-0.3,0.3-0.4,0.4L97.8,18c0.6-0.3,0.7-0.5,0.7-0.9V2.3l1.6,0.8h8.8l0.8-0.9l1.7,1.3c-0.1,0.2-0.5,0.3-0.9,0.4v7.1
		c0,0.1-0.7,0.5-1.2,0.5h-0.2v-0.7H104c0.6,1.4,1.4,2.7,2.5,3.7c1.6-1,3.6-2.5,4.7-3.5L112.9,12.3z M109.2,6.7V3.8h-9.3v2.9H109.2z
		 M99.9,10.3h9.3v-3h-9.3V10.3z M103.1,0.1c3.7,1.1,2.5,3.6,1.3,2.7c-0.2-0.8-0.9-1.9-1.5-2.5L103.1,0.1z"/>
	<path class="st15" d="M124.3,5.6c-0.1,0.2-0.3,0.3-0.8,0.3c-0.3,2.8-0.9,5.6-2.1,8c3.8,2.5,2.8,4.3,1.6,3.7
		c-0.5-0.8-1.3-1.7-2.2-2.5c-1.1,1.7-2.7,3.2-5,4.4l-0.2-0.3c2-1.3,3.5-2.9,4.5-4.8c-1.1-1-2.4-1.8-3.4-2.5c0.5-1.4,1.2-3.8,1.8-6.1
		h-2.5l-0.2-0.6h2.8c0.5-1.9,0.9-3.8,1.1-5l2.1,0.5c-0.1,0.3-0.2,0.5-0.8,0.5c-0.2,1.1-0.6,2.5-1,4h2.2l0.8-0.9L124.3,5.6z
		 M119.7,5.7c-0.6,2.1-1.3,4.4-1.9,6.2c1,0.5,1.9,0.9,2.7,1.3c1-2.3,1.4-4.8,1.7-7.6H119.7z M133.6,8.2c0,0,1.1,0.9,1.7,1.5
		c-0.1,0.2-0.3,0.3-0.6,0.3h-5v7.4c0,1.1-0.2,1.8-2.2,2c0-0.4-0.2-0.8-0.5-1c-0.3-0.2-0.9-0.4-1.8-0.5v-0.3c0,0,2.2,0.2,2.7,0.2
		c0.4,0,0.5-0.1,0.5-0.4V10h-4.8l-0.2-0.6h5V5.9l1,0.1c0.9-0.9,1.8-2.3,2.5-3.3h-7.6l-0.2-0.6h7.9l0.9-0.9l1.6,1.5
		c-0.2,0.2-0.4,0.2-0.9,0.2c-0.9,0.9-2.5,2.2-3.8,3.1l0.6,0.1c-0.1,0.3-0.3,0.5-0.8,0.5v2.7h2.9L133.6,8.2z"/>
	<path class="st15" d="M144.4,13.7c-0.8,0.8-2.4,2.4-4.1,3.9c-0.1,0.4-0.3,0.6-0.5,0.7l-0.9-1.7c0.7-0.3,0.8-0.5,0.8-0.8V6.5H137
		l-0.2-0.6h2.7l0.7-0.7l1.4,1.1c-0.1,0.1-0.4,0.3-0.8,0.4v8.9c1-0.6,2.2-1.4,3.4-2.2L144.4,13.7z M138.3,0.4c5,1.8,4.1,4.9,2.6,4
		c-0.4-1.2-1.8-2.9-2.8-3.8L138.3,0.4z M154.6,10.1c-0.2,0.2-0.4,0.3-0.9,0.3c-0.9,2-2.2,3.8-3.9,5.2c1.8,1.1,4.1,1.9,6.6,2.3l0,0.2
		c-0.7,0.1-1.1,0.5-1.3,1.2c-2.5-0.7-4.6-1.6-6.3-3c-1.9,1.4-4.4,2.4-7.4,3.1l-0.2-0.4c2.8-0.8,5-2,6.8-3.4
		c-1.4-1.4-2.5-3.2-3.1-5.6h-1.3l-0.2-0.6h8.7l0.9-0.9L154.6,10.1z M146.7,3.4c0,1.9-0.4,4.5-4.3,6.1l-0.2-0.3
		c2.7-1.7,3.2-3.9,3.2-5.8V0.9l1.6,0.7h3.8l0.8-0.8l1.5,1.3c-0.1,0.1-0.4,0.3-0.8,0.3v4.3c0,0.3,0,0.3,0.4,0.3h0.9
		c0.4,0,0.7,0,0.9,0c0.1,0,0.2,0,0.3,0c0.1,0,0.3,0,0.4-0.1h0.2l0.1,0c0.4,0.1,0.6,0.3,0.6,0.6c0,0.5-0.5,0.8-2.6,0.8h-1.2
		c-1.2,0-1.4-0.3-1.4-1.2V2.2h-4.2V3.4z M145.3,10.1c0.8,2,2,3.6,3.6,4.8c1.4-1.4,2.6-3,3.3-4.8H145.3z"/>
	<path class="st15" d="M166.3,14.1c-0.9,0.7-2.6,2.1-4.4,3.5c-0.1,0.3-0.4,0.5-0.5,0.6l-0.9-1.7c0.7-0.3,0.7-0.5,0.7-0.8V6.5h-3.1
		l-0.2-0.6h3.3l0.7-0.7l1.4,1.2c-0.1,0.1-0.4,0.3-0.8,0.4v9c1-0.5,2.4-1.3,3.7-2L166.3,14.1z M160.2,0.3c5,2,4.1,5.1,2.6,4.2
		c-0.4-1.3-1.8-3-2.8-4L160.2,0.3z M175.3,6.5c0,0,1.1,0.9,1.8,1.6c-0.1,0.2-0.3,0.3-0.6,0.3h-5.4v10.5c0,0.2-0.6,0.6-1.1,0.6h-0.3
		v-11h-5.4l-0.2-0.6h5.6V0.3l2.1,0.3c-0.1,0.3-0.2,0.5-0.8,0.6v6.6h3.1L175.3,6.5z"/>
	<path class="st15" d="M178.6,16.6c0-1.6,1.3-2.9,3-2.9c1.6,0,2.9,1.3,2.9,2.9c0,1.6-1.3,3-2.9,3C179.9,19.5,178.6,18.2,178.6,16.6z
		 M179.3,16.6c0,1.2,1,2.2,2.2,2.2c1.2,0,2.2-1,2.2-2.2c0-1.2-1-2.2-2.2-2.2C180.3,14.4,179.3,15.3,179.3,16.6z"/>
	<path class="st15" d="M201.9,13.7l-0.1,3.3c-1.4,0.8-2.9,1.1-4.6,1.1c-4.6,0-7.7-3.3-7.7-8c0-4.6,3.3-8,7.7-8
		c1.4,0,2.9,0.3,4.3,1.1l0.1,3.3h-1.2L200,3.8c-0.9-0.5-1.7-0.7-2.5-0.7c-3.3,0-5.9,2.6-5.9,7.1c0,4.5,2.4,7.1,5.7,7.1
		c1,0,2-0.2,2.9-0.7l0.5-2.9H201.9z"/>
	<path class="st15" d="M204,12.5c0-3.8,2.6-5.7,5.2-5.7c2.5,0,5.1,1.9,5.1,5.7c0,3.8-2.6,5.6-5.1,5.6C206.6,18.1,204,16.3,204,12.5z
		 M212.5,12.5c0-3.1-1.3-4.9-3.4-4.9c-2.1,0-3.4,1.8-3.4,4.9c0,3.1,1.3,4.8,3.4,4.8C211.3,17.3,212.5,15.6,212.5,12.5z"/>
	<path class="st15" d="M228.5,17.2v0.7h-5.1v-0.7l1.8-0.3c0-1.2,0-2.8,0-3.9v-2.1c0-2.2-0.6-2.9-2-2.9c-1,0-2.1,0.4-3.4,1.7V13
		c0,1.1,0,2.7,0,3.8l1.7,0.3v0.7h-5.1v-0.7l1.8-0.3c0-1.2,0.1-2.8,0.1-3.9v-1.2c0-1.3,0-2.2-0.1-3.2l-1.9-0.1V7.9l3-1.1l0.3,0.2
		l0.2,1.9c1.2-1.3,2.8-2.2,4.2-2.2c1.9,0,2.9,1.2,2.9,4.1V13c0,1.1,0,2.7,0.1,3.8L228.5,17.2z"/>
	<path class="st15" d="M239.5,15.4c-0.7,1.7-2.1,2.7-4.2,2.7c-3.1,0-5.1-2.2-5.1-5.7c0-3.6,2.5-5.7,5.2-5.7c1.9,0,3.5,1.1,3.9,2.8
		c-0.1,0.5-0.4,0.8-0.9,0.8c-0.6,0-0.9-0.4-1.1-0.9L237,7.8c-0.5-0.2-1-0.3-1.4-0.3c-2.1,0-3.6,1.7-3.6,4.7c0,2.9,1.6,4.7,3.9,4.7
		c1.3,0,2.5-0.6,3.3-1.7L239.5,15.4z"/>
	<path class="st15" d="M243.1,12.3c0,3.1,1.7,4.6,3.9,4.6c1.5,0,2.5-0.7,3.3-1.6l0.4,0.3c-0.9,1.5-2.3,2.5-4.3,2.5
		c-2.9,0-5.1-2-5.1-5.6c0-3.5,2.4-5.8,5.1-5.8c2.4,0,4.2,1.7,4.2,4.3c0,0.5,0,1-0.1,1.3L243.1,12.3z M248,11.5
		c0.9,0,1.1-0.5,1.1-1.1c0-1.5-1.1-2.8-2.7-2.8c-1.5,0-3.1,1.3-3.3,3.9H248z"/>
	<path class="st15" d="M263.1,17c-0.5,0.8-1.1,1.1-1.8,1.1c-1.1,0-1.7-0.7-1.9-1.9c-1.3,1.3-2.1,1.9-3.5,1.9c-1.7,0-3-1-3-2.8
		c0-1.4,0.8-2.4,3.7-3.5c0.8-0.3,1.8-0.5,2.8-0.8v-0.7c0-2.3-0.7-2.9-2.3-2.9c-0.4,0-0.9,0-1.5,0.2L255,9.4c-0.2,0.6-0.5,0.9-1,0.9
		c-0.5,0-0.9-0.3-0.9-0.8c0.4-1.7,2.1-2.8,4.3-2.8c2.3,0,3.5,1,3.5,3.8v5c0,1.2,0.3,1.6,0.9,1.6c0.4,0,0.6-0.2,0.9-0.5L263.1,17z
		 M259.3,11.8c-0.9,0.2-1.8,0.5-2.4,0.8c-2,0.8-2.4,1.7-2.4,2.5c0,1.3,0.8,1.8,1.9,1.8c0.9,0,1.5-0.4,2.8-1.4V11.8z"/>
	<path class="st15" d="M269.4,17.2v0.7h-5.5v-0.7l2-0.3c0-1.2,0-2.6,0-3.8V2.6L264,2.4V1.8l3.3-0.9l0.3,0.2l-0.1,3.2V13
		c0,1.2,0,2.6,0,3.8L269.4,17.2z"/>
	<path class="st15" d="M272.9,12.3c0,3.1,1.7,4.6,3.9,4.6c1.5,0,2.5-0.7,3.3-1.6l0.4,0.3c-0.9,1.5-2.3,2.5-4.3,2.5
		c-2.9,0-5.1-2-5.1-5.6c0-3.5,2.4-5.8,5.1-5.8c2.4,0,4.2,1.7,4.2,4.3c0,0.5,0,1-0.1,1.3L272.9,12.3z M277.8,11.5
		c0.9,0,1.1-0.5,1.1-1.1c0-1.5-1.1-2.8-2.7-2.8c-1.5,0-3.1,1.3-3.3,3.9H277.8z"/>
	<path class="st15" d="M294.2,17.2v0.7l-3.4,0.2l-0.1-1.6c-0.8,1.1-1.9,1.7-3.3,1.7c-2.8,0-4.6-2.3-4.6-5.6c0-3.5,2.1-5.8,4.9-5.8
		c1,0,2.1,0.4,3.1,1.5V2.6l-2-0.2V1.8l3.3-0.9l0.3,0.2l-0.1,3.2v12.6L294.2,17.2z M290.6,9.1c-1.1-1-1.9-1.3-2.8-1.3
		c-1.8,0-3.4,1.4-3.4,4.7c0,3.2,1.4,4.6,3.4,4.6c1.1,0,1.9-0.4,2.8-1.5V9.1z"/>
	<path class="st15" d="M306.5,9.3c3.1,1.2,4.2,2.5,4.2,4.6c0,2.7-2.2,4.3-5.3,4.3c-1.7,0-3.4-0.6-4.4-1.2l0.1-3.1h1.1l0.5,2.8
		c0.8,0.5,1.5,0.7,2.6,0.7c2.3,0,3.8-1,3.8-3c0-1.5-0.9-2.3-3.1-3.2l-0.9-0.3c-2.4-0.9-3.8-2.3-3.8-4.5c0-2.6,2.2-4.1,5-4.1
		c1.6,0,2.7,0.5,3.7,1.2l-0.1,2.9h-1.1l-0.5-2.7c-0.6-0.4-1.2-0.5-2-0.5c-1.9,0-3.3,0.9-3.3,2.7c0,1.5,1,2.4,2.7,3.1L306.5,9.3z"/>
	<path class="st15" d="M318.8,17.1c-0.6,0.7-1.4,1-2.5,1c-1.6,0-2.5-0.9-2.5-2.6c0-0.5,0-1,0-1.8V8h-2.1V7.2l2.1-0.3l0.5-3.1h1.2
		L315.4,7h3.1v1h-3.2v7.4c0,1.2,0.5,1.8,1.4,1.8c0.5,0,1-0.2,1.6-0.6L318.8,17.1z"/>
	<path class="st15" d="M331.5,17.2v0.7l-3,0.2l-0.2-2.1c-1.2,1.4-2.6,2.2-4.1,2.2c-1.9,0-3-1.1-3-4.2l0.1-5.8l-1.7-0.3V7.2l3.1-0.3
		l0.2,0.2l-0.1,3.2v3.5c0,2.2,0.7,2.9,2,2.9c1.2,0,2.4-0.6,3.4-1.7l0-7l-1.7-0.3V7.2l3.1-0.3l0.2,0.2l-0.1,3.2v6.6L331.5,17.2z"/>
	<path class="st15" d="M344.8,17.2v0.7l-3.4,0.2l-0.1-1.6c-0.8,1.1-1.9,1.7-3.3,1.7c-2.8,0-4.6-2.3-4.6-5.6c0-3.5,2.1-5.8,4.9-5.8
		c1,0,2.1,0.4,3.1,1.5V2.6l-2-0.2V1.8l3.3-0.9l0.3,0.2l-0.1,3.2v12.6L344.8,17.2z M341.1,9.1c-1-1-1.9-1.3-2.8-1.3
		c-1.8,0-3.4,1.4-3.4,4.7c0,3.2,1.4,4.6,3.4,4.6c1.1,0,1.9-0.4,2.8-1.5V9.1z"/>
	<path class="st15" d="M351.1,17.2v0.7H346v-0.7l1.8-0.3c0-1.2,0-2.8,0-3.8v-1.2c0-1.3,0-2.1,0-3.2l-1.9-0.1V7.9l3.3-1.1l0.3,0.2
		l-0.1,3V13c0,1.1,0,2.7,0,3.8L351.1,17.2z M347.3,2.6c0-0.8,0.6-1.3,1.3-1.3c0.8,0,1.3,0.5,1.3,1.3c0,0.8-0.6,1.3-1.3,1.3
		C347.9,3.9,347.3,3.4,347.3,2.6z"/>
	<path class="st15" d="M353,12.5c0-3.8,2.6-5.7,5.2-5.7c2.5,0,5.1,1.9,5.1,5.7c0,3.8-2.6,5.6-5.1,5.6C355.6,18.1,353,16.3,353,12.5z
		 M361.6,12.5c0-3.1-1.3-4.9-3.4-4.9c-2.1,0-3.4,1.8-3.4,4.9c0,3.1,1.3,4.8,3.4,4.8C360.3,17.3,361.6,15.6,361.6,12.5z"/>
	<path class="st15" d="M379.2,16.5c0-0.7,0.5-1.3,1.3-1.3s1.3,0.6,1.3,1.3c0,0.7-0.5,1.3-1.3,1.3S379.2,17.2,379.2,16.5z M381.7,2.9
		c0,1.2-0.2,3.1-0.5,6.8l-0.3,3.4h-0.7l-0.3-3.4c-0.4-3.8-0.5-5.6-0.5-6.8c0-1,0.4-1.4,1.2-1.4S381.7,1.9,381.7,2.9z"/>
	<path class="st15" d="M388.9,4.6c-0.2,0.7-0.5,1-1,1c-0.4,0-0.7-0.2-0.9-0.5c0.4-2.2,2.2-3.2,4.2-3.2c2.5,0,4.1,1.3,4.1,3.5
		c0,1.6-0.7,2.8-2.6,4.3c-1.4,1.1-1.7,1.4-1.7,2.3V13h-0.7c-0.1-0.8-0.2-1.4-0.2-1.9c0-0.8,0.4-1.4,1.8-2.6c1.3-1.2,1.7-2.1,1.7-3.3
		c0-1.7-1-2.6-2.7-2.6c-0.5,0-1,0.1-1.4,0.2L388.9,4.6z M391.9,16.6c0,0.7-0.5,1.3-1.3,1.3c-0.8,0-1.3-0.6-1.3-1.3
		c0-0.7,0.5-1.3,1.3-1.3C391.4,15.3,391.9,15.9,391.9,16.6z"/>
</g>
</svg>
