<?xml version="1.0" encoding="utf-8"?>
<!-- Generator: Adobe Illustrator 24.3.0, SVG Export Plug-In . SVG Version: 6.00 Build 0)  -->
<svg version="1.1" id="图层_1" xmlns="http://www.w3.org/2000/svg" xmlns:xlink="http://www.w3.org/1999/xlink" x="0px" y="0px"
	 viewBox="0 0 430.2 21.4" style="enable-background:new 0 0 430.2 21.4;" xml:space="preserve">
<style type="text/css">
	.st0{fill:none;stroke:#AF8A6D;stroke-width:7.0866;stroke-miterlimit:10;}
	.st1{fill:none;stroke:#7B5744;stroke-width:5.6693;stroke-miterlimit:10;}
	.st2{fill:none;stroke:#EEDFBE;stroke-width:8.5039;stroke-miterlimit:10;}
	.st3{fill:none;}
	.st4{fill:#BB474B;}
	.st5{fill:#A7C349;}
	.st6{fill:#E0EDF2;stroke:#E0EDF2;stroke-width:0.2835;stroke-miterlimit:10;}
	.st7{fill:#E0EDF2;stroke:#E0EDF2;stroke-width:0.1417;stroke-miterlimit:10;}
	.st8{fill:#E0EDF2;stroke:#E0EDF2;stroke-width:0.4252;stroke-miterlimit:10;}
	.st9{fill:#E0EDF2;stroke:#E0EDF2;stroke-width:0.5669;stroke-miterlimit:10;}
	.st10{fill:#E0EDF2;stroke:#E0EDF2;stroke-width:0.7087;stroke-miterlimit:10;}
	.st11{fill:#E0EDF2;}
	.st12{fill:#7C5543;stroke:#7B5744;stroke-miterlimit:10;}
	.st13{fill:#ECDDBB;stroke:#EEDFBE;stroke-miterlimit:10;}
	.st14{fill:#AF896D;stroke:#AF8A6D;stroke-miterlimit:10;}
	.st15{fill:#7B5744;}
	.st16{fill:#EEDFBE;}
	.st17{fill:#AF8A6D;}
	.st18{clip-path:url(#SVGID_2_);}
	.st19{fill:none;stroke:#AF8A6D;stroke-width:28.346;stroke-linecap:round;stroke-miterlimit:10;}
	.st20{fill:none;stroke:#7B5744;stroke-width:28.346;stroke-linecap:round;stroke-miterlimit:10;}
	.st21{fill:none;stroke:#EEDFBE;stroke-width:28.346;stroke-linecap:round;stroke-miterlimit:10;}
	.st22{clip-path:url(#SVGID_4_);fill:#010000;}
	.st23{fill:#010000;}
	.st24{fill:none;stroke:#EEDFBE;stroke-width:6;stroke-linecap:round;stroke-linejoin:round;}
	.st25{fill:none;stroke:#AF8A6D;stroke-width:13.1913;stroke-linecap:round;stroke-miterlimit:10;}
	.st26{fill:none;stroke:#EEDFBE;stroke-width:13.1913;stroke-linecap:round;stroke-miterlimit:10;}
	.st27{fill:none;stroke:#7B5744;stroke-width:13.1913;stroke-linecap:round;stroke-miterlimit:10;}
	.st28{fill:none;stroke:#7B5744;stroke-width:13.2334;stroke-linecap:round;stroke-miterlimit:10;}
	.st29{fill:#BD8A6D;}
	.st30{fill:#F2DEBA;}
	.st31{fill:#885441;}
	.st32{fill:none;stroke:#AF8A6D;stroke-width:4.0495;stroke-linecap:round;stroke-miterlimit:10;}
	.st33{fill:none;stroke:#EEDFBE;stroke-width:4.0495;stroke-linecap:round;stroke-miterlimit:10;}
	.st34{fill:none;stroke:#7B5744;stroke-width:4.0495;stroke-linecap:round;stroke-miterlimit:10;}
	.st35{fill:none;stroke:#A7C349;stroke-width:3;stroke-linecap:round;}
	.st36{fill:none;stroke:#BB474B;stroke-width:3;stroke-linecap:round;}
	.st37{enable-background:new    ;}
</style>
<g class="st37">
	<path class="st15" d="M6,6v3H8v1.9H6v2.5c0.9-0.2,1.8-0.4,2.6-0.6v1.8c-0.8,0.2-1.7,0.4-2.6,0.6v4.2H4v-3.8
		c-1.2,0.2-2.4,0.4-3.7,0.6L0,14.3c1.4-0.2,2.7-0.3,4-0.5v-2.9H0.7L0.3,9.1C0.9,7.9,1.4,6.4,2,4.5H0V2.6h2.4C2.6,1.8,2.8,1,2.9,0.1
		l1.8,0.3C4.6,1.2,4.5,1.9,4.3,2.6h3.8v1.9H3.8C3.4,6.2,2.9,7.7,2.3,9H4V6H6z M8.9,12.8v-1.9h9.2v1.9h-3.8V17H19v1.9H7.6V17h4.8
		v-4.2H8.9z M9.2,10.2L8,8.6c3.4-1.3,5.7-3.1,7-5.5H8.9V1.2h8.4v1.6c-0.5,1.2-1.1,2.2-1.9,3.2c1.5,1,2.8,1.9,3.8,2.9l-1.4,1.4
		c-0.9-0.9-2.1-2-3.7-3C12.8,8.4,11.1,9.4,9.2,10.2z"/>
	<path class="st15" d="M26,19.5h-2V9.9c-0.7,1.8-1.4,3.4-2.4,4.9l-0.9-2.2c1.5-1.9,2.6-4.1,3.3-6.6h-2.9V4.1h2.9V0.2h2v3.9h2.4V6H26
		v1.2c1,1.1,2,2.3,3,3.6l-1.2,1.8c-0.7-1.2-1.3-2.3-1.8-3.1V19.5z M33.2,1.3c-0.9,3.9-2.1,6.9-3.5,9l-1.5-1.3
		c1.4-2.1,2.5-4.9,3.2-8.4L33.2,1.3z M39.7,18.9l-1.9,0.8c-0.2-0.7-0.4-1.3-0.6-1.9c-2.4,0.6-5.1,1-8.1,1.3l-0.4-1.9
		c1-0.5,2.5-3.7,4.5-9.7l2,0.7c-1.2,3.5-2.5,6.5-3.7,8.9c1.8-0.2,3.5-0.5,5.1-0.9c-0.5-1.3-1-2.5-1.6-3.6l1.8-0.6
		C37.9,14,38.8,16.4,39.7,18.9z M40.4,8.7L39,10.3c-1.9-2.4-3.2-5.4-3.9-9.1l1.7-0.9C37.4,3.7,38.6,6.5,40.4,8.7z"/>
	<path class="st15" d="M45.9,8.6v8c0,0.5,0.3,0.8,0.8,0.8h3.7c0.6,0,1-0.2,1.2-0.5c0.2-0.3,0.3-1,0.4-2.1l1.9,0.6
		c-0.2,1.8-0.4,2.9-0.8,3.3c-0.3,0.3-1,0.5-2,0.5h-5.1c-1.3,0-2-0.6-2-1.9v-10l-1,1l-1.2-1.6c2-1.8,3.8-4,5.5-6.5h1.5
		c1.8,1.9,3.6,3.9,5.2,6l-1.3,1.4c-1.8-2.4-3.3-4.2-4.5-5.5c-1.1,1.6-2.3,3.2-3.7,4.7h7.3v5.8c0,1.2-0.7,1.8-1.9,1.8
		c-0.8,0-1.6,0-2.3-0.1L47,12.6c0.8,0.1,1.4,0.1,2,0.1c0.5,0,0.7-0.3,0.7-0.7V8.6H45.9z M55.3,19.4l-0.5-1.9c1,0.1,2,0.1,2.9,0.1
		c0.5,0,0.8-0.3,0.8-0.9V0.3h2v16.9c0,1.5-0.7,2.2-2.1,2.2H55.3z M56.8,2v13h-2V2H56.8z"/>
	<path class="st15" d="M66.7,14.7c-0.5,1.7-1.2,3.1-2,4.3L63,17.9c0.8-1.1,1.4-2.3,1.8-3.6L66.7,14.7z M64.4,3V1.3h6.9
		c-0.2-0.4-0.3-0.7-0.5-1L73,0c0.2,0.4,0.4,0.8,0.5,1.3h7.3V3h-3.3l-0.6,1.3h4.9V6H63.4V4.3h4.8L67.6,3H64.4z M79.5,6.9v6.6h-14V6.9
		H79.5z M77.6,9.4v-1H67.5v1H77.6z M77.6,10.9H67.5v1h10.1V10.9z M70.4,19.2c-1.6,0-2.4-0.7-2.4-2.2v-2.7h2v2.3c0,0.5,0.3,0.8,1,0.8
		h4.2c0.4,0,0.7-0.1,0.8-0.2c0.2-0.2,0.4-0.7,0.4-1.7l1.9,0.6c-0.2,1.5-0.5,2.4-0.9,2.7c-0.4,0.3-1,0.4-1.8,0.4H70.4z M74.7,4.3
		L75.3,3h-5.6l0.5,1.3H74.7z M75,15.7l-1.7,1.2c-0.5-0.7-1.1-1.5-2-2.3l1.7-1.1C73.9,14.4,74.5,15.1,75,15.7z M82.3,17.5l-1.7,1.2
		c-0.7-1.1-1.5-2.4-2.6-3.7l1.6-1C80.8,15.3,81.6,16.5,82.3,17.5z"/>
	<path class="st15" d="M88.8,16.9c0,2-0.9,3.5-2.8,4.5l-0.7-1.1c1.2-0.8,1.9-1.7,2-2.9c-0.1,0-0.2,0-0.4,0c-0.4,0-0.8-0.1-1.1-0.4
		c-0.3-0.3-0.4-0.6-0.4-1c0-0.5,0.1-0.8,0.4-1.1c0.3-0.3,0.7-0.4,1.1-0.4C88.2,14.4,88.8,15.2,88.8,16.9z"/>
	<path class="st15" d="M115.5,2.3h6.2v9h-7.1c0.7,1.1,1.5,2.1,2.5,3c1.4-0.6,2.8-1.6,4.1-2.8l1.4,1.4c-1.2,1.1-2.5,2-3.9,2.6
		c1.6,1,3.4,1.7,5.6,2.2l-0.9,1.9c-5.1-1.3-8.7-4-10.8-8.2h-3.3v5.8c1.7-0.4,3.4-0.9,5-1.4l0.5,1.9c-2,0.7-4.5,1.3-7.5,2l-0.5-1.8
		c0.3-0.2,0.5-0.4,0.5-0.8V2.3h6.2c-0.3-0.7-0.6-1.3-0.9-1.9l2.1-0.3C115,0.7,115.3,1.4,115.5,2.3z M119.7,4.1h-10.5v1.8h10.5V4.1z
		 M109.2,9.5h10.5V7.6h-10.5V9.5z"/>
	<path class="st15" d="M131.2,0.2c-0.2,1.4-0.5,2.7-0.7,3.9h3.5v1.1c-0.1,3.3-0.8,6.1-1.9,8.6c1.2,0.9,2.1,1.7,2.8,2.4l-1.4,1.6
		c-0.7-0.7-1.5-1.4-2.4-2.2c-1,1.6-2.3,3.1-3.8,4.2L126,18c1.5-1.1,2.7-2.4,3.7-3.8c-1-0.8-2-1.6-3.1-2.4c0.6-1.8,1.2-3.7,1.7-5.8
		h-2V4h2.4c0.3-1.3,0.5-2.6,0.7-4L131.2,0.2z M132.1,5.9h-2c-0.5,2.1-1,3.8-1.5,5.2c0.7,0.5,1.3,0.9,1.9,1.3
		C131.4,10.6,131.9,8.4,132.1,5.9z M139.1,8.8V6.4c1-0.9,2.1-2.1,3-3.4h-7V1.1h9.3V3c-1,1.4-2.1,2.7-3.3,4v1.8h4.1v1.9h-4.1V17
		c0,1.6-0.6,2.3-1.8,2.3h-3.1l-0.5-1.9c0.9,0,1.8,0,2.8,0c0.4,0,0.6-0.4,0.6-1.1v-5.6h-4.6V8.8H139.1z"/>
	<path class="st15" d="M151.6,6.5v8.9c0.7-0.5,1.3-1.2,2.1-1.9l0.5,2.1c-1.4,1.3-2.8,2.4-4.3,3.4l-0.8-1.8c0.3-0.3,0.5-0.7,0.5-1.1
		V8.4h-2.8V6.5H151.6z M153,3.5l-1.4,1.4c-0.8-1-1.9-2-3.4-3.1l1.4-1.3C150.9,1.5,152.1,2.5,153,3.5z M164.6,9v1.8
		c-0.6,1.9-1.6,3.5-3,4.8c1.3,0.9,3,1.7,4.9,2.4l-1.1,1.7c-2.1-0.8-3.8-1.8-5.3-2.9c-1.6,1.2-3.7,2.1-6.1,2.8l-1.1-1.7
		c2.2-0.7,4.1-1.5,5.6-2.5c-1.4-1.4-2.4-2.9-2.9-4.6h-1.2V9H164.6z M163.3,0.9v4.4c0,0.5,0.3,0.7,0.8,0.7h1.8v1.8h-2.4
		c-1.5,0-2.2-0.7-2.2-2.1v-3h-3.5v0.6c0,2.2-1.1,3.9-3.3,5.1l-1.3-1.5c1.8-0.8,2.7-1.9,2.7-3.3V0.9H163.3z M160,14.4
		c1.1-1,2-2.2,2.6-3.5h-5.1C158,12.2,158.8,13.4,160,14.4z"/>
	<path class="st15" d="M172.8,6.4v8.9c0.7-0.5,1.4-1.2,2.1-1.9l0.5,2c-1.3,1.3-2.8,2.4-4.3,3.4l-0.8-1.8c0.4-0.3,0.5-0.7,0.5-1.1
		V8.4h-2.9V6.4H172.8z M174.2,3.5l-1.4,1.4c-0.8-1-2-2-3.5-3.1l1.4-1.4C172.1,1.4,173.2,2.4,174.2,3.5z M180,6.3V0.2h2.1v6.2h5.2v2
		h-5.2v11.3H180V8.3h-5.5v-2H180z"/>
	<path class="st15" d="M195.3,15.1c0.6,0.5,0.9,1.2,0.9,2c0,0.8-0.3,1.4-0.9,2c-0.6,0.5-1.2,0.8-2,0.8s-1.5-0.3-2-0.8
		c-0.6-0.5-0.9-1.2-0.9-2c0-0.8,0.3-1.5,0.9-2c0.5-0.5,1.2-0.8,2-0.8S194.8,14.5,195.3,15.1z M192.3,16.1c-0.3,0.3-0.4,0.6-0.4,1
		c0,0.4,0.1,0.7,0.4,1c0.3,0.3,0.6,0.4,1,0.4c0.4,0,0.7-0.1,1-0.4c0.3-0.3,0.4-0.6,0.4-1c0-0.4-0.1-0.7-0.4-1
		c-0.3-0.3-0.7-0.4-1-0.4C192.9,15.6,192.6,15.8,192.3,16.1z"/>
	<path class="st15" d="M221.4,3.5c1.1,0.9,1.8,2.1,2,3.6h-2.2c-0.3-1-0.7-1.8-1.4-2.2s-1.6-0.7-2.7-0.7c-1.6,0-2.8,0.5-3.7,1.7
		c-0.8,1-1.2,2.4-1.2,4.1c0,1.8,0.4,3.2,1.1,4.2c0.8,1.1,2,1.6,3.7,1.6c1.1,0,2-0.3,2.7-0.8c0.8-0.6,1.3-1.5,1.6-2.6h2.2
		c-0.3,1.7-1.1,3.1-2.4,4.1c-1.2,0.9-2.5,1.4-4.2,1.4c-2.5,0-4.3-0.8-5.5-2.4c-1.1-1.3-1.6-3.1-1.6-5.4c0-2.2,0.5-4,1.7-5.4
		c1.3-1.6,3.1-2.4,5.5-2.4C218.8,2.1,220.2,2.6,221.4,3.5z"/>
	<path class="st15" d="M234.6,7.9c1,1.1,1.5,2.4,1.5,4.1c0,1.6-0.5,3-1.4,4.1c-1,1.1-2.3,1.7-4,1.7s-3-0.6-4-1.7
		c-1-1-1.4-2.4-1.4-4.1c0-1.7,0.5-3,1.5-4.1c1-1.1,2.3-1.6,3.9-1.6S233.6,6.8,234.6,7.9z M228.3,9.3c-0.5,0.7-0.7,1.6-0.7,2.7
		s0.2,2,0.7,2.7c0.6,0.8,1.4,1.2,2.4,1.2c1,0,1.8-0.4,2.4-1.2c0.5-0.7,0.8-1.6,0.8-2.7c0-1.1-0.3-2-0.8-2.7
		c-0.6-0.8-1.4-1.2-2.4-1.2C229.6,8.1,228.8,8.5,228.3,9.3z"/>
	<path class="st15" d="M247.8,10.7v6.7h-2.2v-6.5c0-1.8-0.9-2.8-2.5-2.8c-0.6,0-1.2,0.2-1.7,0.7c-0.5,0.5-0.8,1.2-0.9,2.1v6.5h-2.2
		V6.6h2.2v1.3c0.4-0.5,0.9-0.9,1.4-1.2c0.5-0.3,1.2-0.4,1.8-0.4C246.4,6.3,247.8,7.7,247.8,10.7z"/>
	<path class="st15" d="M258.5,7.2c0.8,0.7,1.4,1.7,1.6,3h-2.2c-0.1-0.7-0.4-1.3-0.9-1.6c-0.5-0.4-1.1-0.5-1.8-0.5
		c-0.9,0-1.6,0.3-2.2,1c-0.5,0.7-0.8,1.6-0.8,2.9c0,1.2,0.3,2.2,0.8,2.9c0.5,0.7,1.2,1,2.2,1c1.7,0,2.6-0.8,2.8-2.5h2.2
		c-0.3,1.4-0.8,2.5-1.7,3.3c-0.8,0.7-2,1-3.4,1c-1.7,0-2.9-0.5-3.9-1.6c-0.9-1-1.3-2.4-1.3-4.1c0-1.6,0.4-3,1.3-4
		c0.9-1.1,2.2-1.7,3.9-1.7C256.5,6.3,257.6,6.6,258.5,7.2z"/>
	<path class="st15" d="M270.7,8.1c0.8,1.1,1.3,2.6,1.3,4.5h-8.2c0.1,1.1,0.4,1.9,0.9,2.4c0.5,0.5,1.2,0.8,2.1,0.8
		c0.8,0,1.4-0.2,1.9-0.5c0.4-0.3,0.7-0.8,1-1.4h2.2c-0.3,1-0.7,1.9-1.5,2.5c-0.9,0.8-2.1,1.2-3.6,1.2c-1.6,0-2.9-0.5-3.8-1.5
		c-1-1-1.5-2.5-1.5-4.2c0-1.6,0.5-3,1.4-4.1c0.9-1.1,2.2-1.7,3.8-1.7C268.4,6.3,269.7,6.8,270.7,8.1z M264.7,8.8
		c-0.5,0.5-0.8,1.2-0.9,2.1h5.9c-0.2-1.9-1.2-2.8-3-2.8C265.8,8.1,265.2,8.3,264.7,8.8z"/>
	<path class="st15" d="M282.3,7.5c0.7,0.7,1,1.7,1,3v6.9h-2.1v-1.5c-0.4,0.5-0.9,1-1.6,1.3c-0.7,0.3-1.6,0.5-2.5,0.5
		c-1.1,0-2-0.3-2.6-0.9c-0.7-0.6-1-1.3-1-2.2c0-1.2,0.5-2.2,1.4-2.8c0.9-0.6,2.1-0.9,3.7-1l2.4-0.1v-0.4c0-1.5-0.8-2.3-2.5-2.3
		c-0.7,0-1.3,0.1-1.7,0.4c-0.5,0.3-0.8,0.7-0.9,1.3l-2.2-0.2c0.2-1.2,0.8-2.1,1.7-2.6c0.8-0.5,1.9-0.7,3.2-0.7
		C280.3,6.3,281.5,6.7,282.3,7.5z M278.8,12.5c-2,0-3,0.8-3,2.1c0,0.4,0.2,0.8,0.5,1c0.3,0.3,0.8,0.4,1.4,0.4c0.9,0,1.7-0.3,2.4-0.9
		s1-1.3,1-2.1v-0.6L278.8,12.5z"/>
	<path class="st15" d="M288.3,2.1v15.3h-2.2V2.1H288.3z"/>
	<path class="st15" d="M299.7,8.1c0.8,1.1,1.3,2.6,1.3,4.5h-8.2c0.1,1.1,0.4,1.9,0.9,2.4c0.5,0.5,1.2,0.8,2.1,0.8
		c0.8,0,1.4-0.2,1.9-0.5c0.4-0.3,0.7-0.8,1-1.4h2.2c-0.3,1-0.7,1.9-1.5,2.5c-0.9,0.8-2.1,1.2-3.6,1.2c-1.6,0-2.9-0.5-3.8-1.5
		c-1-1-1.5-2.5-1.5-4.2c0-1.6,0.5-3,1.4-4.1c0.9-1.1,2.2-1.7,3.8-1.7C297.4,6.3,298.8,6.8,299.7,8.1z M293.7,8.8
		c-0.5,0.5-0.8,1.2-0.9,2.1h5.9c-0.2-1.9-1.2-2.8-3-2.8C294.9,8.1,294.2,8.3,293.7,8.8z"/>
	<path class="st15" d="M312.9,2.1v15.3h-2.1v-1.3c-0.8,1-1.9,1.6-3.4,1.6c-1.6,0-2.9-0.6-3.8-1.7c-0.8-1.1-1.3-2.4-1.3-4.1
		c0-1.6,0.4-2.9,1.2-4c0.9-1.1,2.1-1.7,3.7-1.7c1.3,0,2.4,0.6,3.3,1.9v-6H312.9z M305.5,9.2c-0.5,0.6-0.7,1.6-0.7,2.8
		c0,1.2,0.2,2.1,0.7,2.8c0.5,0.8,1.3,1.2,2.4,1.2c1,0,1.7-0.4,2.2-1.2c0.5-0.7,0.7-1.6,0.7-2.7v-0.2c0-1.2-0.3-2.1-0.8-2.8
		c-0.5-0.7-1.2-1-2-1C306.8,8.1,306,8.4,305.5,9.2z"/>
	<path class="st15" d="M332,3.2c1.1,0.8,1.6,2,1.8,3.6h-2.3c-0.2-1-0.6-1.7-1.2-2.1c-0.6-0.4-1.4-0.7-2.6-0.7c-1,0-1.7,0.1-2.3,0.4
		c-0.7,0.3-1,0.9-1,1.6c0,0.7,0.4,1.2,1.1,1.6c0.3,0.2,1.2,0.5,2.6,0.9c2,0.6,3.3,1.1,3.9,1.5c1.3,0.8,1.9,1.8,1.9,3.2
		c0,1.3-0.5,2.4-1.6,3.2c-1.1,0.8-2.5,1.1-4.4,1.1c-1.8,0-3.3-0.4-4.3-1.1c-1.2-0.9-1.9-2.3-2-4.2h2.3c0.2,1.2,0.6,2,1.3,2.5
		c0.6,0.5,1.5,0.7,2.8,0.7c1.1,0,2-0.2,2.7-0.6s1-0.9,1-1.6c0-0.8-0.5-1.5-1.4-2c-0.3-0.2-1.3-0.5-3-1c-1.8-0.6-3-1-3.4-1.2
		c-1.2-0.7-1.7-1.7-1.7-3c0-1.3,0.5-2.4,1.7-3.1c1.1-0.7,2.4-1.1,4-1.1C329.7,2.1,331,2.5,332,3.2z"/>
	<path class="st15" d="M339.3,6.6h2.5v1.8h-2.5v6.3c0,0.3,0.1,0.5,0.2,0.7c0.1,0.1,0.3,0.2,0.6,0.2h1.4v1.8h-1.8
		c-0.9,0-1.6-0.3-2-0.7c-0.4-0.5-0.6-1.1-0.6-2V8.4h-2V6.6h2V4l2.2-0.9V6.6z"/>
	<path class="st15" d="M345.8,6.6v6.6c0,0.9,0.2,1.6,0.6,2c0.4,0.4,1,0.7,1.9,0.7c0.6,0,1.1-0.3,1.6-0.7c0.5-0.5,0.9-1.1,1-1.9V6.6
		h2.2v10.9h-2.2v-1.5c-0.9,1.2-2.1,1.8-3.4,1.8c-2.6,0-3.9-1.5-3.9-4.4V6.6H345.8z"/>
	<path class="st15" d="M365.8,2.1v15.3h-2.1v-1.3c-0.8,1-1.9,1.6-3.4,1.6c-1.6,0-2.9-0.6-3.8-1.7c-0.8-1.1-1.3-2.4-1.3-4.1
		c0-1.6,0.4-2.9,1.2-4c0.9-1.1,2.1-1.7,3.7-1.7c1.3,0,2.4,0.6,3.3,1.9v-6H365.8z M358.3,9.2c-0.5,0.6-0.7,1.6-0.7,2.8
		c0,1.2,0.2,2.1,0.7,2.8c0.5,0.8,1.3,1.2,2.4,1.2c1,0,1.7-0.4,2.2-1.2c0.5-0.7,0.7-1.6,0.7-2.7v-0.2c0-1.2-0.3-2.1-0.8-2.8
		c-0.5-0.7-1.2-1-2-1C359.6,8.1,358.8,8.4,358.3,9.2z"/>
	<path class="st15" d="M371,2.6c0.3,0.3,0.4,0.6,0.4,1.1c0,0.4-0.2,0.8-0.5,1.1c-0.3,0.3-0.7,0.4-1.1,0.4c-0.4,0-0.8-0.1-1.1-0.4
		c-0.3-0.3-0.4-0.7-0.4-1.1c0-0.4,0.1-0.8,0.4-1.1c0.3-0.3,0.7-0.4,1.1-0.4C370.3,2.2,370.7,2.3,371,2.6z M371,6.6v10.9h-2.2V6.6
		H371z"/>
	<path class="st15" d="M382.9,7.9c1,1.1,1.5,2.4,1.5,4.1c0,1.6-0.5,3-1.4,4.1c-1,1.1-2.3,1.7-4,1.7s-3-0.6-4-1.7
		c-1-1-1.4-2.4-1.4-4.1c0-1.7,0.5-3,1.5-4.1c1-1.1,2.3-1.6,3.9-1.6S381.9,6.8,382.9,7.9z M376.6,9.3c-0.5,0.7-0.7,1.6-0.7,2.7
		s0.2,2,0.7,2.7c0.6,0.8,1.4,1.2,2.4,1.2s1.8-0.4,2.4-1.2c0.5-0.7,0.8-1.6,0.8-2.7c0-1.1-0.3-2-0.8-2.7c-0.6-0.8-1.4-1.2-2.4-1.2
		S377.1,8.5,376.6,9.3z"/>
	<path class="st15" d="M405.6,14.8c0.3,0.3,0.4,0.6,0.4,1.1s-0.1,0.8-0.4,1.1c-0.3,0.3-0.7,0.4-1.1,0.4s-0.8-0.1-1.1-0.4
		c-0.3-0.3-0.5-0.7-0.5-1.1c0-0.4,0.1-0.8,0.5-1.1c0.3-0.3,0.7-0.4,1.1-0.4C404.9,14.4,405.3,14.5,405.6,14.8z M405.8,2.4l-0.5,10.8
		h-1.7l-0.5-10.8H405.8z"/>
	<path class="st15" d="M429,3.2c0.8,0.7,1.3,1.7,1.3,3c0,1-0.3,1.9-0.8,2.6c-0.2,0.2-0.8,0.8-1.8,1.6c-0.4,0.3-0.7,0.7-0.9,1.1
		c-0.2,0.4-0.3,0.9-0.3,1.4v0.4h-2.2v-0.4c0-0.8,0.1-1.4,0.4-2c0.3-0.6,1.1-1.4,2.4-2.6l0.4-0.4c0.4-0.5,0.6-1,0.6-1.5
		c0-0.7-0.2-1.3-0.6-1.7c-0.4-0.4-1-0.6-1.8-0.6c-0.9,0-1.6,0.3-2.1,0.9c-0.4,0.5-0.6,1.2-0.6,2.1h-2.2c0-1.5,0.4-2.7,1.3-3.6
		c0.9-0.9,2.1-1.3,3.7-1.3C427.1,2.1,428.1,2.5,429,3.2z M426.4,14.8c0.3,0.3,0.4,0.6,0.4,1.1s-0.2,0.8-0.5,1.1
		c-0.3,0.3-0.7,0.4-1.1,0.4s-0.8-0.1-1.1-0.4c-0.3-0.3-0.4-0.7-0.4-1.1c0-0.4,0.1-0.8,0.4-1.1c0.3-0.3,0.7-0.4,1.1-0.4
		C425.8,14.4,426.1,14.5,426.4,14.8z"/>
</g>
</svg>
