<?xml version="1.0" encoding="utf-8"?>
<!-- Generator: Adobe Illustrator 24.3.0, SVG Export Plug-In . SVG Version: 6.00 Build 0)  -->
<svg version="1.1" id="图层_1" xmlns="http://www.w3.org/2000/svg" xmlns:xlink="http://www.w3.org/1999/xlink" x="0px" y="0px"
	 viewBox="0 0 404.2 22.7" style="enable-background:new 0 0 404.2 22.7;" xml:space="preserve">
<style type="text/css">
	.st0{fill:none;stroke:#AF8A6D;stroke-width:7.0866;stroke-miterlimit:10;}
	.st1{fill:none;stroke:#7B5744;stroke-width:5.6693;stroke-miterlimit:10;}
	.st2{fill:none;stroke:#EEDFBE;stroke-width:8.5039;stroke-miterlimit:10;}
	.st3{fill:none;}
	.st4{fill:#BB474B;}
	.st5{fill:#A7C349;}
	.st6{fill:#E0EDF2;stroke:#E0EDF2;stroke-width:0.2835;stroke-miterlimit:10;}
	.st7{fill:#E0EDF2;stroke:#E0EDF2;stroke-width:0.1417;stroke-miterlimit:10;}
	.st8{fill:#E0EDF2;stroke:#E0EDF2;stroke-width:0.4252;stroke-miterlimit:10;}
	.st9{fill:#E0EDF2;stroke:#E0EDF2;stroke-width:0.5669;stroke-miterlimit:10;}
	.st10{fill:#E0EDF2;stroke:#E0EDF2;stroke-width:0.7087;stroke-miterlimit:10;}
	.st11{fill:#E0EDF2;}
	.st12{fill:#7C5543;stroke:#7B5744;stroke-miterlimit:10;}
	.st13{fill:#ECDDBB;stroke:#EEDFBE;stroke-miterlimit:10;}
	.st14{fill:#AF896D;stroke:#AF8A6D;stroke-miterlimit:10;}
	.st15{fill:#7B5744;}
	.st16{fill:#EEDFBE;}
	.st17{fill:#AF8A6D;}
	.st18{clip-path:url(#SVGID_2_);}
	.st19{fill:none;stroke:#AF8A6D;stroke-width:28.346;stroke-linecap:round;stroke-miterlimit:10;}
	.st20{fill:none;stroke:#7B5744;stroke-width:28.346;stroke-linecap:round;stroke-miterlimit:10;}
	.st21{fill:none;stroke:#EEDFBE;stroke-width:28.346;stroke-linecap:round;stroke-miterlimit:10;}
	.st22{clip-path:url(#SVGID_4_);fill:#010000;}
	.st23{fill:#010000;}
	.st24{fill:none;stroke:#EEDFBE;stroke-width:6;stroke-linecap:round;stroke-linejoin:round;}
	.st25{fill:none;stroke:#AF8A6D;stroke-width:13.1913;stroke-linecap:round;stroke-miterlimit:10;}
	.st26{fill:none;stroke:#EEDFBE;stroke-width:13.1913;stroke-linecap:round;stroke-miterlimit:10;}
	.st27{fill:none;stroke:#7B5744;stroke-width:13.1913;stroke-linecap:round;stroke-miterlimit:10;}
	.st28{fill:none;stroke:#7B5744;stroke-width:13.2334;stroke-linecap:round;stroke-miterlimit:10;}
	.st29{fill:#BD8A6D;}
	.st30{fill:#F2DEBA;}
	.st31{fill:#885441;}
	.st32{fill:none;stroke:#AF8A6D;stroke-width:4.0495;stroke-linecap:round;stroke-miterlimit:10;}
	.st33{fill:none;stroke:#EEDFBE;stroke-width:4.0495;stroke-linecap:round;stroke-miterlimit:10;}
	.st34{fill:none;stroke:#7B5744;stroke-width:4.0495;stroke-linecap:round;stroke-miterlimit:10;}
	.st35{fill:none;stroke:#A7C349;stroke-width:3;stroke-linecap:round;}
	.st36{fill:none;stroke:#BB474B;stroke-width:3;stroke-linecap:round;}
	.st37{enable-background:new    ;}
</style>
<g id="组_3518" transform="translate(0 -2298)">
	<g>
		<defs>
			<rect id="SVGID_1_" x="532.2" y="-774.5" width="1920" height="4106"/>
		</defs>
		<clipPath id="SVGID_2_">
			<use xlink:href="#SVGID_1_"  style="overflow:visible;"/>
		</clipPath>
		<g id="组_3517" class="st18">
			<g id="组_3516">
				<g id="组_3110">
					<g id="组_3109">
						<g id="组_3108">
							<path id="路径_3419" class="st19" d="M476.8,2192.6l-62.1,61.1c-9.2,9-12.7,22.3-9.3,34.7l13.3,47.7"/>
						</g>
					</g>
				</g>
			</g>
		</g>
	</g>
</g>
<g class="st37">
	<path class="st15" d="M9.1,13.1c-0.6,0.4-1.4,0.8-2.3,1.2v4.8c0,0.1-0.7,0.6-1.9,0.6H4.5v-4.3c-0.7,0.3-1.5,0.7-2.4,1.1
		C2,16.8,1.8,17,1.6,17.1l-1.3-2.7c0.9-0.1,2.4-0.3,4.2-0.7v-3.3H3l-0.9,1L0,9.9c0.2-0.2,0.5-0.3,0.8-0.5c0.5-1.2,1-2.9,1.6-4.6h-2
		L0.3,4.2h2.3c0.5-1.6,0.8-3.1,1-4L6.5,1C6.4,1.2,6.2,1.5,5.7,1.4C5.5,2.2,5.2,3.2,4.9,4.2h1.5l1.2-1.4c0,0,1.3,0.9,2.1,1.6
		C9.6,4.7,9.4,4.8,9.1,4.8H4.7c-0.5,1.7-1.1,3.6-1.6,5h1.7V5.9l2.8,0.3C7.4,6.5,7.3,6.7,6.7,6.8v3h0.1l1-1.2c0,0,1.1,0.9,1.7,1.5
		c-0.1,0.2-0.3,0.3-0.5,0.3H6.7v2.9C7.5,13.1,8.3,13,9,12.9L9.1,13.1z M18.2,16.7c0,0,1.4,1.1,2.2,1.8c-0.1,0.2-0.3,0.3-0.6,0.3H8.4
		l-0.1-0.6H13v-5.7H9.7l-0.2-0.6h6.2l1.2-1.6c0,0,1.4,1.1,2.2,1.8c-0.1,0.2-0.3,0.3-0.6,0.3h-3.2v5.7H17L18.2,16.7z M9.5,2.9
		L9.3,2.3h6.1l1.4-1.4l2.3,2c-0.1,0.2-0.4,0.3-0.9,0.3c-0.6,1.2-1.4,2.3-2.4,3.3c5.8,1.1,4.9,5.1,2.5,4.2c-0.7-1.1-2-2.5-3.3-3.5
		c-1.7,1.7-3.9,3.2-6.4,4.2l-0.2-0.3c2.8-2.1,5.5-5.4,6.8-8.4H9.5z"/>
	<path class="st15" d="M34.9,1.9c-0.1,0.3-0.3,0.5-0.8,0.5c-0.9,3.3-2.3,6-4.3,7.9c1,1.6-0.4,3.1-1.7,1.9c-0.1-1-0.6-2.1-1.1-3v10
		c0,0.2-1,0.7-1.9,0.7h-0.5v-8.5c-0.9,1.5-1.9,2.8-3.2,4l-0.3-0.2c1.5-2.5,2.5-5.9,3.1-9.1h-2.6l-0.2-0.6h3.1V0.2l3.2,0.3
		c0,0.3-0.2,0.5-0.8,0.6v4.2h0.2l1.2-1.8c0,0,1.3,1.3,2.1,2.1C30.4,5.9,30.2,6,29.9,6H27v2.4c1.2,0.4,2,1,2.5,1.5
		c1-2.3,1.8-5.6,2-8.8L34.9,1.9z M36.2,12.6c6.9,3.6,4.8,9,2.3,6.8c-0.1-0.8-0.3-1.6-0.6-2.4c-1.7,0.6-4.1,1.4-6.9,2.2
		c-0.2,0.3-0.5,0.5-0.8,0.6l-1-3.1c0,0,0.6-0.1,0.8-0.3c1.3-1.5,3.1-5.9,3.5-8.3l3.3,1.5c-0.1,0.2-0.3,0.4-0.7,0.4
		c-1.1,2.1-3.2,5-5.1,6.8c1.6-0.1,4-0.3,6.6-0.5c-0.5-1.3-1.1-2.5-1.7-3.5L36.2,12.6z M38,1c-0.2,0.3-0.6,0.7-1,1.1
		c0.9,2.7,2.6,4.9,4.5,6l0,0.2c-0.6,0.4-1.3,1.4-1.5,2.4c-2.4-2.1-3.4-5.2-3.8-10.4l0.2-0.1L38,1z"/>
	<path class="st15" d="M53.4,16.6c0.7,0.3,0.8,0.5,0.8,1c0,1-1,1.4-4.6,1.4h-2.2c-2.2,0-2.7-0.4-2.7-2.1V7.9
		c-0.7,0.6-1.5,1.2-2.4,1.7l-0.2-0.2c2.4-2.6,4.3-6.5,5.1-9.3l3.1,1.3c-0.1,0.2-0.3,0.4-0.8,0.3c6.5,1.7,4.9,6.3,2.5,4.8
		c-0.4-1.4-1.6-3.1-2.8-4.3c-0.8,1.4-1.8,2.9-3.2,4.4l1.3,0.5h2.8L51.2,6l2.1,1.7c-0.1,0.2-0.4,0.3-0.8,0.4c0,3.9-0.1,5.2-0.9,5.8
		c-0.5,0.4-1.2,0.6-2.2,0.6c0-0.6,0-1.1-0.3-1.4c-0.3-0.3-0.7-0.5-1.3-0.6v-0.3c0.5,0,1.3,0.1,1.6,0.1c0.3,0,0.4,0,0.5-0.2
		c0.2-0.2,0.3-1.5,0.3-4.3H47v8.5c0,0.4,0.1,0.5,0.9,0.5h2c0.8,0,1.4,0,1.7,0c0.3,0,0.4-0.1,0.6-0.3c0.2-0.4,0.6-1.5,1-2.8h0.2
		L53.4,16.6z M57,14.3c0,0.2-1,0.7-1.8,0.7h-0.4V2.7L57.7,3c0,0.3-0.2,0.5-0.7,0.5V14.3z M61.9,0.5c0,0.3-0.3,0.5-0.8,0.6v16
		c0,1.6-0.4,2.6-3.1,2.8c-0.1-0.8-0.1-1.3-0.5-1.7c-0.3-0.4-0.8-0.7-1.9-0.8v-0.3c0,0,2.3,0.1,2.7,0.1c0.4,0,0.5-0.1,0.5-0.4V0.2
		L61.9,0.5z"/>
	<path class="st15" d="M66.8,14.1c0.9,2.5,0,4.2-1.1,4.7c-0.7,0.4-1.7,0.2-1.9-0.5c-0.2-0.7,0.2-1.3,0.9-1.6
		c0.8-0.4,1.8-1.3,1.8-2.6H66.8z M80.7,4.2c0,0,1.5,1.1,2.4,1.9c-0.1,0.2-0.3,0.3-0.6,0.3H64l-0.2-0.6h6.5c-0.2-0.1-0.4-0.1-0.6-0.3
		c-0.1-0.9-0.5-1.8-1-2.4L68.9,3c3.8,0.3,3.4,2.4,2.2,2.8h3.8c0.3-0.8,0.6-2,0.8-2.8H65.4l-0.2-0.6h7.5c-0.3-0.9-1.1-1.7-1.8-2.2
		L71.1,0c3.7-0.4,4.1,1.5,3.3,2.4h3.7l1.3-1.6c0,0,1.4,1.1,2.4,1.9C81.7,2.9,81.4,3,81.1,3h-4.8l2.4,0.7c-0.1,0.3-0.3,0.4-0.8,0.4
		c-0.6,0.5-1.6,1.2-2.5,1.7h3.8L80.7,4.2z M69.4,13.4c0,0.2-1.1,0.7-2.1,0.7h-0.4V6.8l2.5,1h7.6l1.1-1.2l2.4,1.8
		c-0.1,0.2-0.4,0.4-0.9,0.5v4.5c0,0.2-1.2,0.7-2,0.7h-0.4v-0.8h-7.9V13.4z M78.2,17.2c0.7,0.2,0.9,0.5,0.9,0.9c0,1-0.9,1.3-5,1.3
		h-2.7c-2.3,0-2.8-0.3-2.8-1.9v-3.4l2.9,0.3c0,0.3-0.2,0.4-0.7,0.5v2.2c0,0.3,0.1,0.3,0.9,0.3h2.6c0.9,0,1.8,0,2.1,0
		c0.3,0,0.5-0.1,0.6-0.3c0.2-0.3,0.5-1,0.9-2.1h0.2L78.2,17.2z M69.4,8.4v1.8h7.9V8.4H69.4z M77.3,12.5v-1.8h-7.9v1.8H77.3z
		 M72.3,13.5c5.1,0.6,3.3,4.4,1.4,3c-0.1-1-0.9-2.2-1.6-2.9L72.3,13.5z M78.9,14.1c5.8,1.3,3.9,5.7,1.8,4.1c-0.1-1.4-1.1-3-2-3.9
		L78.9,14.1z"/>
	<path class="st15" d="M84.5,22c1.7-0.9,2.3-2.1,2.5-3.1c-0.9-0.3-2.4-0.8-2.4-2.2c0-0.9,0.7-1.7,1.8-1.7s1.9,0.8,1.9,2.3
		c0,1.9-0.9,4.3-3.5,5.4L84.5,22z"/>
	<path class="st15" d="M113.5,12.8c-0.1,0.2-0.4,0.3-0.8,0.1c-1.3,0.6-3.3,1.3-5.1,1.8c2,1.4,4.5,2.2,7.3,2.6l0,0.3
		c-1,0.2-1.7,1-2,2.2c-4.6-1.5-7.4-3.8-8.7-9.1h-3.1v5.9c1.4-0.3,2.9-0.7,4.6-1.1l0.1,0.2c-1.3,0.8-3.5,2.2-6.4,3.6
		c-0.2,0.2-0.4,0.3-0.5,0.4l-1.2-2.5c0.8-0.4,0.9-0.7,0.9-1.2V2.1l2.8,1.1h7.3l1.2-1.3l2.4,1.8c-0.1,0.2-0.4,0.3-0.9,0.4v6.7
		c0,0,0,0-0.1,0.1L113.5,12.8z M108.8,6.6V3.8h-7.8v2.8H108.8z M100.9,10.1h7.8V7.2h-7.8V10.1z M102.9,0.1c5.3,0.3,3.1,4.2,1,2.7
		c-0.1-0.9-0.7-2-1.2-2.6L102.9,0.1z M104.4,10.7c0.6,1.5,1.5,2.7,2.7,3.7c1.2-0.9,2.6-2.2,3.5-3.1c-0.4,0.2-1,0.3-1.4,0.3h-0.4
		v-0.9H104.4z"/>
	<path class="st15" d="M125.4,5.8c-0.1,0.2-0.4,0.3-0.8,0.4c-0.3,2.8-0.9,5.4-2.2,7.8c4.3,2.6,2.1,5,0.5,3.9c-0.4-0.7-1-1.4-1.6-2.1
		c-1.2,1.6-2.9,3-5.3,4.1l-0.2-0.2c2-1.3,3.3-3.1,4.3-5c-1.1-1-2.4-1.9-3.4-2.5c0.5-1.5,1.2-3.9,1.7-6.3h-2.3l-0.2-0.6h2.6
		c0.5-2,0.9-3.9,1-5.1l3.1,0.6c-0.1,0.3-0.2,0.5-0.8,0.5c-0.2,1-0.6,2.4-1,4h1.2l1.2-1.3L125.4,5.8z M120.6,5.8
		c-0.5,2.2-1.2,4.6-1.9,6.5c0.7,0.3,1.4,0.5,2,0.8c0.9-2.2,1.3-4.7,1.5-7.3H120.6z M133.7,7.8c0,0,1.5,1.2,2.3,2
		c-0.1,0.2-0.3,0.3-0.6,0.3h-4.7V17c0,1.7-0.4,2.6-3.1,2.9c-0.1-0.8-0.2-1.3-0.5-1.7c-0.3-0.4-0.8-0.7-1.8-0.8v-0.3
		c0,0,2.1,0.1,2.6,0.1c0.3,0,0.4-0.1,0.4-0.4v-6.7h-3.9l-0.2-0.6h4.1V6.1l1.5,0.1c0.7-1,1.5-2.5,2-3.4h-7.5l-0.2-0.6h7.7l1.3-1.3
		l2.2,2c-0.2,0.2-0.4,0.2-0.9,0.3c-1.1,0.9-2.7,2.2-4.1,3.1l1,0.1c0,0.3-0.3,0.5-0.7,0.5v2.7h1.7L133.7,7.8z"/>
	<path class="st15" d="M145,13.5c-0.8,0.9-2.2,2.6-4.1,4.5c-0.2,0.5-0.5,0.8-0.7,1l-1.7-2.6c0.9-0.5,1.1-0.7,1.1-1.2V6.5h-2.4
		l-0.2-0.6h2.6l1.1-1.1l2,1.7c-0.1,0.1-0.4,0.3-0.9,0.4v8.1c0.9-0.5,2-1.1,3-1.6L145,13.5z M138.1,0.4c6.4,0.7,5.1,5.3,2.6,4
		c-0.5-1.3-1.8-2.9-2.8-3.9L138.1,0.4z M155.5,10.5c-0.2,0.2-0.4,0.3-0.9,0.3c-0.8,1.9-2,3.5-3.5,4.9c1.7,0.8,3.7,1.3,5.9,1.6l0,0.2
		c-1.1,0.3-1.9,1.1-2.2,2.3c-2.2-0.7-4-1.5-5.5-2.8c-2,1.3-4.5,2.2-7.5,2.8l-0.1-0.3c2.6-0.9,4.7-2.1,6.4-3.7
		c-1.2-1.4-2.1-3.2-2.7-5.6H144l-0.2-0.6h8l1.4-1.3L155.5,10.5z M156,6.1c0.6,0.3,0.8,0.5,0.8,0.9c0,0.9-0.8,1.4-3,1.4h-1.1
		c-1.7,0-1.9-0.5-1.9-1.9V2.3h-2.9v1.1c0,1.8-0.5,4.8-5,6.4l-0.1-0.2c2.4-1.9,2.8-4.3,2.8-6.2V0.7l2.7,1h2.4l1.2-1.3l2.1,1.7
		c-0.1,0.1-0.4,0.3-0.8,0.3v3.4c0,0.2,0,0.3,0.4,0.3h0.7h0.6c0.1,0,0.4,0,0.5,0c0.1,0,0.4,0,0.5-0.1h0.2L156,6.1z M145.8,10.4
		c0.8,1.9,2,3.3,3.5,4.4c1.1-1.3,2-2.8,2.6-4.4H145.8z"/>
	<path class="st15" d="M163.5,15.2c1-0.4,2.2-1,3.4-1.5l0.1,0.2c-0.9,0.9-2.5,2.5-4.5,4.2c-0.2,0.4-0.4,0.7-0.7,0.9l-1.7-2.6
		c0.9-0.5,1-0.7,1-1.2V6.6h-2.9L158,6h3.1l1.1-1.1l2,1.7c-0.1,0.1-0.3,0.3-0.8,0.4V15.2z M160.1,0.4c6.4,0.7,4.8,5.4,2.4,4
		c-0.5-1.3-1.7-2.9-2.6-3.8L160.1,0.4z M175.5,6.1c0,0,1.6,1.2,2.5,2.1c-0.1,0.2-0.3,0.3-0.6,0.3h-5v10.4c0,0.3-1.1,0.9-2,0.9h-0.5
		V8.5h-4.7L165,7.9h4.8V0.3l3.3,0.3c0,0.3-0.2,0.5-0.8,0.6v6.7h1.8L175.5,6.1z"/>
	<path class="st15" d="M179,16.8c0-1.6,1.3-3,3-3s3,1.3,3,3c0,1.6-1.3,3-3,3S179,18.4,179,16.8z M179.8,16.8c0,1.2,1,2.2,2.2,2.2
		c1.2,0,2.2-1,2.2-2.2c0-1.2-1-2.2-2.2-2.2C180.7,14.6,179.8,15.6,179.8,16.8z"/>
	<path class="st15" d="M202.7,17.2c-1.3,0.8-2.9,1.2-4.7,1.2c-4.7,0-8.1-3-8.1-8.2c0-5.2,3.7-8.2,8.2-8.2c1.7,0,3,0.4,4.4,1.2l0,3.6
		h-1.2l-0.9-3.6c-0.6-0.3-1.2-0.4-1.9-0.4c-3.1,0-5.5,2.4-5.5,7.3c0,5,2.3,7.3,5.5,7.3c0.7,0,1.4-0.1,2.1-0.4l0.9-3.5h1.2
		L202.7,17.2z"/>
	<path class="st15" d="M204.4,12.4c0-3.8,2.6-5.9,5.7-5.9c3,0,5.7,2.1,5.7,5.9s-2.5,6-5.7,6C206.8,18.4,204.4,16.1,204.4,12.4z
		 M212.8,12.4c0-3.5-1-5.2-2.7-5.2c-1.7,0-2.7,1.7-2.7,5.2c0,3.5,1,5.2,2.7,5.2C211.8,17.6,212.8,15.9,212.8,12.4z"/>
	<path class="st15" d="M230.4,17.4V18h-5.8v-0.7l1.5-0.2c0-1.2,0.1-2.9,0.1-4.1v-2.7c0-1.8-0.5-2.5-1.7-2.5c-0.8,0-1.7,0.4-2.8,1.4
		v3.8c0,1.2,0,2.9,0,4.1l1.4,0.2V18h-5.8v-0.7l1.5-0.2c0-1.2,0-2.9,0-4.1v-1.5c0-1.4,0-2.1-0.1-3.1l-1.7-0.2V7.7l4-1.3l0.3,0.2
		l0.1,1.9c1.3-1.5,2.6-2.1,4-2.1c2,0,3.2,1.3,3.2,4.1v2.6c0,1.2,0,2.9,0,4.1L230.4,17.4z"/>
	<path class="st15" d="M238.9,7.3c-0.3-0.1-0.5-0.1-0.8-0.1c-2,0-3.4,1.8-3.4,4.9c0,3,1.5,4.8,3.8,4.8c1.3,0,2.3-0.6,3-1.6l0.4,0.2
		c-0.9,1.7-2.4,2.7-4.6,2.7c-3.2,0-5.6-2.2-5.6-5.9c0-3.8,2.7-6,6-6c2.2,0,3.9,1.3,4.2,3.1c-0.2,0.7-0.6,1-1.2,1
		c-0.8,0-1.4-0.4-1.5-1.6L238.9,7.3z"/>
	<path class="st15" d="M246.4,12.3c0.1,3.2,1.7,4.6,3.7,4.6c1.5,0,2.4-0.6,3.1-1.6l0.4,0.3c-0.8,1.7-2.4,2.7-4.5,2.7
		c-3.3,0-5.7-2.1-5.7-6c0-3.8,2.8-5.9,5.7-5.9c2.9,0,4.6,2,4.6,4.6c0,0.5,0,0.9-0.1,1.3H246.4z M250,11.6c1,0,1.2-0.5,1.2-1.6
		c0-1.7-0.9-2.8-2.2-2.8c-1.3,0-2.5,1.3-2.6,4.3H250z"/>
	<path class="st15" d="M266.8,16.9c-0.5,1.1-1.3,1.4-2.4,1.4c-1.3,0-2-0.7-2.3-1.8c-1.2,1.2-2,1.9-3.5,1.9c-1.8,0-3-1.1-3-2.8
		c0-1.7,1-2.8,4.2-3.8c0.6-0.2,1.5-0.4,2.3-0.6v-1.1c0-2.2-0.6-2.8-2.1-2.8c-0.4,0-0.7,0-1.1,0.1l-0.3,1.5c-0.1,1.2-0.7,1.6-1.4,1.6
		c-0.7,0-1.1-0.3-1.3-1c0.3-1.9,2-3.1,4.9-3.1c2.8,0,3.9,1.2,3.9,4.1V16c0,0.9,0.3,1.3,0.8,1.3c0.3,0,0.6-0.2,0.9-0.7L266.8,16.9z
		 M262,11.7c-0.6,0.2-1.2,0.4-1.6,0.5c-1.7,0.7-2.3,1.6-2.3,2.9c0,1.2,0.7,1.8,1.7,1.8c0.7,0,1.2-0.3,2.2-1.1V11.7z"/>
	<path class="st15" d="M273.6,17.4V18h-6.1v-0.7l1.6-0.2c0-1.3,0.1-2.8,0.1-4.1V2.4l-1.7-0.1V1.7l4.2-0.9L272,1l-0.1,3.3v8.7
		c0,1.3,0,2.8,0.1,4.1L273.6,17.4z"/>
	<path class="st15" d="M278,12.3c0.1,3.2,1.7,4.6,3.7,4.6c1.5,0,2.4-0.6,3.1-1.6l0.4,0.3c-0.8,1.7-2.4,2.7-4.5,2.7
		c-3.3,0-5.7-2.1-5.7-6c0-3.8,2.8-5.9,5.7-5.9c2.9,0,4.6,2,4.6,4.6c0,0.5,0,0.9-0.1,1.3H278z M281.6,11.6c1,0,1.2-0.5,1.2-1.6
		c0-1.7-0.9-2.8-2.2-2.8c-1.3,0-2.5,1.3-2.6,4.3H281.6z"/>
	<path class="st15" d="M299.5,17.4V18l-4.1,0.2l-0.1-1.4c-0.8,1-1.9,1.5-3.3,1.5c-2.8,0-4.8-2.2-4.8-5.8c0-3.8,2.2-6.1,5.1-6.1
		c1.2,0,2.2,0.4,3,1.5V2.5l-1.8-0.1V1.7l4.2-0.9l0.3,0.2l-0.1,3.3v12.9L299.5,17.4z M295.1,8.6c-0.7-0.6-1.3-0.8-2-0.8
		c-1.7,0-3.1,1.2-3.1,4.6c0,3.3,1.3,4.6,3,4.6c0.8,0,1.4-0.2,2-0.8V8.6z"/>
	<path class="st15" d="M312.6,9c3.1,1.3,4.2,2.6,4.2,4.9c0,2.7-2.2,4.6-5.8,4.6c-1.7,0-3.5-0.5-4.7-1.2l0.1-3.5h1.2l0.9,3.4
		c0.7,0.3,1.4,0.4,2.3,0.4c2.1,0,3.4-1,3.4-2.7c0-1.5-0.7-2.2-2.6-3l-1-0.4c-2.6-1.2-4.2-2.5-4.2-4.9c0-2.8,2.3-4.3,5.4-4.3
		c1.6,0,3,0.5,4.1,1.2l-0.1,3.3h-1.2l-0.9-3.2c-0.5-0.2-1-0.3-1.6-0.3c-1.8,0-3.1,0.9-3.1,2.6c0,1.5,0.9,2.3,2.4,3L312.6,9z"/>
	<path class="st15" d="M325.5,16.9c-0.6,0.9-1.6,1.5-3,1.5c-1.9,0-3-0.9-3-3.1c0-0.7,0-1.3,0-2.1V7.7h-1.8V7l2-0.2l0.9-3.3h1.8
		l-0.1,3.3h2.8v0.9h-2.8v7.8c0,1.2,0.5,1.7,1.4,1.7c0.5,0,0.9-0.2,1.5-0.6L325.5,16.9z"/>
	<path class="st15" d="M338.9,17.4V18l-4,0.2l-0.1-2.1c-1,1.3-2.4,2.2-4,2.2c-2,0-3.3-1.1-3.2-4.3l0.1-6.1L326,7.7V7.1l4.2-0.5
		l0.2,0.2l-0.1,3.4v4.1c0,1.8,0.7,2.5,1.8,2.5c0.9,0,1.8-0.5,2.6-1.2l0-7.5l-1.5-0.3V7.2l4.1-0.6l0.2,0.2l-0.1,3.4v7.1L338.9,17.4z"
		/>
	<path class="st15" d="M352.7,17.4V18l-4.1,0.2l-0.1-1.4c-0.8,1-1.9,1.5-3.3,1.5c-2.8,0-4.8-2.2-4.8-5.8c0-3.8,2.2-6.1,5.1-6.1
		c1.2,0,2.2,0.4,3,1.5V2.5l-1.8-0.1V1.7l4.2-0.9l0.3,0.2l-0.1,3.3v12.9L352.7,17.4z M348.4,8.6c-0.7-0.6-1.3-0.8-2-0.8
		c-1.7,0-3.1,1.2-3.1,4.6c0,3.3,1.3,4.6,3,4.6c0.8,0,1.4-0.2,2-0.8V8.6z"/>
	<path class="st15" d="M359.8,17.4V18H354v-0.7l1.5-0.2c0-1.2,0-2.9,0-4.1v-1.5c0-1.3,0-2.1-0.1-3.2l-1.7-0.2V7.7l4.3-1.2l0.3,0.2
		l0,3.3v3.2c0,1.2,0,2.9,0,4.1L359.8,17.4z M355.3,2.6c0-0.9,0.8-1.6,1.7-1.6s1.7,0.6,1.7,1.6c0,0.9-0.8,1.6-1.7,1.6
		S355.3,3.5,355.3,2.6z"/>
	<path class="st15" d="M361.3,12.4c0-3.8,2.6-5.9,5.7-5.9c3,0,5.7,2.1,5.7,5.9s-2.5,6-5.7,6C363.8,18.4,361.3,16.1,361.3,12.4z
		 M369.7,12.4c0-3.5-1-5.2-2.7-5.2c-1.7,0-2.7,1.7-2.7,5.2c0,3.5,1,5.2,2.7,5.2C368.7,17.6,369.7,15.9,369.7,12.4z"/>
	<path class="st15" d="M387.6,16.5c0-0.9,0.7-1.7,1.7-1.7c1,0,1.7,0.8,1.7,1.7c0,0.9-0.7,1.7-1.7,1.7
		C388.3,18.1,387.6,17.4,387.6,16.5z M390.9,3.6c0,1.1-0.2,2.8-0.8,6.5l-0.4,2.8H389l-0.4-2.8c-0.7-3.8-0.9-5.5-0.9-6.5
		c0-1.3,0.7-1.9,1.6-1.9S390.9,2.3,390.9,3.6z"/>
	<path class="st15" d="M398,4.9c-0.2,0.9-0.6,1.4-1.4,1.4c-0.5,0-0.9-0.2-1.2-0.6c0.2-2.5,1.9-3.7,4.4-3.7c2.8,0,4.3,1.3,4.3,3.4
		c0,1.7-0.6,2.6-2.7,4.1c-1.2,0.9-2,1.4-2,2.5v0.9h-0.8c-0.3-0.8-0.4-1.3-0.4-1.9c0-0.9,0.5-1.6,1.6-2.7c1.1-1,1.6-1.9,1.6-3.1
		c0-1.5-1.1-2.5-2.7-2.5c-0.2,0-0.3,0-0.5,0L398,4.9z M401.1,16.5c0,0.9-0.8,1.7-1.8,1.7c-1,0-1.8-0.8-1.8-1.7c0-1,0.8-1.8,1.8-1.8
		C400.3,14.7,401.1,15.5,401.1,16.5z"/>
</g>
</svg>
