<?xml version="1.0" encoding="utf-8"?>
<!-- Generator: Adobe Illustrator 24.3.0, SVG Export Plug-In . SVG Version: 6.00 Build 0)  -->
<svg version="1.1" id="图层_1" xmlns="http://www.w3.org/2000/svg" xmlns:xlink="http://www.w3.org/1999/xlink" x="0px" y="0px"
	 viewBox="0 0 426.4 21" style="enable-background:new 0 0 426.4 21;" xml:space="preserve">
<style type="text/css">
	.st0{fill:none;stroke:#AF8A6D;stroke-width:7.0866;stroke-miterlimit:10;}
	.st1{fill:none;stroke:#7B5744;stroke-width:5.6693;stroke-miterlimit:10;}
	.st2{fill:none;stroke:#EEDFBE;stroke-width:8.5039;stroke-miterlimit:10;}
	.st3{fill:none;}
	.st4{fill:#BB474B;}
	.st5{fill:#A7C349;}
	.st6{fill:#E0EDF2;stroke:#E0EDF2;stroke-width:0.2835;stroke-miterlimit:10;}
	.st7{fill:#E0EDF2;stroke:#E0EDF2;stroke-width:0.1417;stroke-miterlimit:10;}
	.st8{fill:#E0EDF2;stroke:#E0EDF2;stroke-width:0.4252;stroke-miterlimit:10;}
	.st9{fill:#E0EDF2;stroke:#E0EDF2;stroke-width:0.5669;stroke-miterlimit:10;}
	.st10{fill:#E0EDF2;stroke:#E0EDF2;stroke-width:0.7087;stroke-miterlimit:10;}
	.st11{fill:#E0EDF2;}
	.st12{fill:#7C5543;stroke:#7B5744;stroke-miterlimit:10;}
	.st13{fill:#ECDDBB;stroke:#EEDFBE;stroke-miterlimit:10;}
	.st14{fill:#AF896D;stroke:#AF8A6D;stroke-miterlimit:10;}
	.st15{fill:#7B5744;}
	.st16{fill:#EEDFBE;}
	.st17{fill:#AF8A6D;}
	.st18{clip-path:url(#SVGID_2_);}
	.st19{fill:none;stroke:#AF8A6D;stroke-width:28.346;stroke-linecap:round;stroke-miterlimit:10;}
	.st20{fill:none;stroke:#7B5744;stroke-width:28.346;stroke-linecap:round;stroke-miterlimit:10;}
	.st21{fill:none;stroke:#EEDFBE;stroke-width:28.346;stroke-linecap:round;stroke-miterlimit:10;}
	.st22{clip-path:url(#SVGID_4_);fill:#010000;}
	.st23{fill:#010000;}
	.st24{fill:none;stroke:#EEDFBE;stroke-width:6;stroke-linecap:round;stroke-linejoin:round;}
	.st25{fill:none;stroke:#AF8A6D;stroke-width:13.1913;stroke-linecap:round;stroke-miterlimit:10;}
	.st26{fill:none;stroke:#EEDFBE;stroke-width:13.1913;stroke-linecap:round;stroke-miterlimit:10;}
	.st27{fill:none;stroke:#7B5744;stroke-width:13.1913;stroke-linecap:round;stroke-miterlimit:10;}
	.st28{fill:none;stroke:#7B5744;stroke-width:13.2334;stroke-linecap:round;stroke-miterlimit:10;}
	.st29{fill:#BD8A6D;}
	.st30{fill:#F2DEBA;}
	.st31{fill:#885441;}
	.st32{fill:none;stroke:#AF8A6D;stroke-width:4.0495;stroke-linecap:round;stroke-miterlimit:10;}
	.st33{fill:none;stroke:#EEDFBE;stroke-width:4.0495;stroke-linecap:round;stroke-miterlimit:10;}
	.st34{fill:none;stroke:#7B5744;stroke-width:4.0495;stroke-linecap:round;stroke-miterlimit:10;}
	.st35{fill:none;stroke:#A7C349;stroke-width:3;stroke-linecap:round;}
	.st36{fill:none;stroke:#BB474B;stroke-width:3;stroke-linecap:round;}
	.st37{enable-background:new    ;}
</style>
<g class="st37">
	<path class="st15" d="M5.7,6v3.3h2.2v1.4H5.7v3c1-0.2,2-0.4,2.8-0.6v1.4c-0.9,0.3-1.9,0.5-2.8,0.7v4.2H4.2v-3.9
		c-1.3,0.2-2.6,0.4-4,0.6L0,14.6c1.5-0.2,2.9-0.4,4.2-0.6v-3.3H0.7L0.3,9.3c0.7-1.3,1.3-3,1.9-5H0V2.8h2.6C2.8,2,3,1.1,3.2,0.2
		l1.4,0.2C4.4,1.3,4.2,2.1,4.1,2.8h4v1.5H3.7c-0.5,1.9-1.1,3.5-1.8,5h2.3V6H5.7z M8.8,12.5V11H18v1.5h-3.9v4.8H19v1.4H7.6v-1.4h5
		v-4.8H8.8z M9,10.1L8,8.9c3.5-1.4,5.9-3.5,7.3-6.1H8.9V1.3H17v1.2c-0.5,1.3-1.2,2.4-2.1,3.4c1.6,1.1,3,2.1,4.1,3.1l-1,1.1
		c-1-1-2.4-2.1-4-3.2C12.6,8.2,11,9.2,9,10.1z"/>
	<path class="st15" d="M25.7,19.4h-1.5V9c-0.7,2-1.6,3.9-2.8,5.6l-0.7-1.6c1.6-2.1,2.7-4.5,3.4-7.1h-3V4.3h3.1V0.3h1.5v4.1h2.5v1.4
		h-2.5v1.5c1,1.1,2,2.4,3,3.9l-0.9,1.3C27,11,26.3,9.8,25.7,8.9V19.4z M32.9,1.2C32,5.1,30.9,8,29.4,10.1l-1.2-1
		c1.5-2.1,2.6-4.9,3.3-8.5L32.9,1.2z M39.4,19L38,19.6c-0.2-0.7-0.5-1.4-0.7-2c-2.5,0.6-5.2,1-8.3,1.3l-0.3-1.4
		c1.2-0.9,2.7-4.2,4.6-10L34.8,8c-1.3,3.9-2.6,7.1-3.9,9.3c2.1-0.2,4.1-0.5,6-1c-0.6-1.4-1.2-2.8-1.8-3.9l1.4-0.5
		C37.6,14.1,38.6,16.5,39.4,19z M40.1,8.9l-1,1.2c-1.9-2.4-3.2-5.4-3.9-9l1.3-0.7C37.1,3.9,38.4,6.7,40.1,8.9z"/>
	<path class="st15" d="M48.4,0.4c1.8,1.9,3.6,4,5.3,6.1l-1,1.1c-1.8-2.4-3.4-4.3-4.7-5.7c-1.6,2.3-3.3,4.4-5.4,6.4L41.7,7
		c2.1-1.9,3.9-4.1,5.6-6.6H48.4z M45.5,8.3V17c0,0.5,0.3,0.7,0.8,0.7h4c0.7,0,1.2-0.2,1.3-0.5c0.2-0.4,0.3-1.2,0.4-2.3l1.4,0.5
		c-0.1,1.8-0.4,2.9-0.8,3.3c-0.3,0.3-1,0.5-2,0.5h-5c-1.2,0-1.7-0.5-1.7-1.6V7h7.5v5.6c0,1.1-0.6,1.7-1.8,1.8c-0.8,0-1.6,0-2.3-0.1
		L47,12.8c0.8,0.1,1.5,0.1,2.1,0.1c0.5,0,0.8-0.3,0.8-0.9V8.3H45.5z M55.2,19.3l-0.3-1.4c1.1,0.1,2.1,0.1,3.1,0.1
		c0.5,0,0.8-0.3,0.8-0.9V0.3h1.5v17.1c0,1.3-0.6,1.9-1.8,1.9H55.2z M56.4,2.1v13.1H55V2.1H56.4z"/>
	<path class="st15" d="M66.4,14.5c-0.5,1.7-1.2,3.1-2.1,4.3L63,18.1c0.9-1.2,1.5-2.4,1.9-3.8L66.4,14.5z M64.4,2.8V1.5h7.2
		C71.4,1,71.2,0.7,71,0.3L72.6,0C72.8,0.5,73,1,73.2,1.5h7.4v1.3h-3.4l-0.8,1.7h5.2v1.3H63.4V4.5h5l-0.7-1.7H64.4z M79.2,7v6.2H65.8
		V7H79.2z M77.7,9.6V8.2H67.2v1.3H77.7z M77.7,10.7H67.2v1.4h10.5V10.7z M70.2,19.1c-1.4,0-2.1-0.7-2.1-2v-2.8h1.6v2.5
		c0,0.6,0.3,0.9,1,0.9h4.4c0.5,0,0.8-0.1,0.9-0.3c0.3-0.2,0.4-0.9,0.5-1.9l1.4,0.5c-0.1,1.4-0.4,2.3-0.9,2.7
		c-0.4,0.3-0.9,0.4-1.7,0.4H70.2z M74.8,4.5l0.8-1.7h-6.3L70,4.5H74.8z M74.8,16l-1.3,0.9c-0.5-0.8-1.2-1.6-2.1-2.5l1.3-0.8
		C73.6,14.5,74.3,15.3,74.8,16z M82,17.7l-1.3,0.9c-0.7-1.2-1.6-2.4-2.7-3.8l1.2-0.8C80.5,15.5,81.4,16.7,82,17.7z"/>
	<path class="st15" d="M88.3,16.9c0,1.8-0.8,3.2-2.4,4l-0.6-0.9c1.1-0.7,1.7-1.6,1.8-2.7c-0.1,0-0.2,0-0.3,0c-0.4,0-0.7-0.1-0.9-0.3
		c-0.3-0.2-0.4-0.5-0.4-0.9c0-0.4,0.1-0.7,0.4-0.9c0.3-0.2,0.5-0.3,0.9-0.3C87.8,14.9,88.3,15.6,88.3,16.9z"/>
	<path class="st15" d="M115.3,2.4h6.2v8.6h-7.3c0.7,1.3,1.7,2.5,2.8,3.5c1.5-0.6,3-1.6,4.4-3l1.1,1.1c-1.3,1.2-2.7,2.2-4.3,2.8
		c1.7,1.2,3.7,2,6,2.6l-0.7,1.4c-5.1-1.3-8.7-4.1-10.8-8.4h-3.7v6.6c1.8-0.4,3.7-0.9,5.4-1.6l0.4,1.4c-2,0.7-4.4,1.3-7.4,2l-0.4-1.4
		c0.3-0.1,0.4-0.3,0.4-0.6v-15h6.4c-0.3-0.8-0.6-1.5-0.9-2.1l1.6-0.3C114.7,0.8,115,1.6,115.3,2.4z M120,3.8h-11.1v2.2H120V3.8z
		 M108.9,9.7H120V7.4h-11.1V9.7z"/>
	<path class="st15" d="M131,0.1c-0.3,1.5-0.5,2.9-0.8,4.1h3.6v0.9c-0.2,3.3-0.9,6.2-2.1,8.7c1.2,0.9,2.2,1.8,3,2.6l-1,1.2
		c-0.7-0.8-1.6-1.6-2.7-2.4c-1,1.7-2.4,3.2-4,4.5l-1-1.3c1.6-1.2,2.9-2.5,3.9-4.2c-1-0.8-2.1-1.6-3.2-2.5c0.7-1.8,1.2-3.8,1.7-6
		h-2.2V4.2h2.5c0.3-1.4,0.5-2.8,0.8-4.2L131,0.1z M132.3,5.7h-2.5c-0.5,2.2-1,4.1-1.6,5.5c0.8,0.6,1.6,1.1,2.2,1.6
		C131.6,10.8,132.2,8.4,132.3,5.7z M139.3,9V6.4c1.1-1,2.2-2.2,3.2-3.6h-7.4V1.3h9.1v1.5c-1,1.4-2.2,2.8-3.4,4.1V9h4.3v1.5h-4.3v6.7
		c0,1.3-0.6,2-1.7,2h-3l-0.4-1.4c0.9,0,1.8,0,2.8,0c0.5,0,0.7-0.4,0.7-1.1v-6.3h-4.7V9H139.3z"/>
	<path class="st15" d="M151.3,6.7V16c0.8-0.6,1.6-1.3,2.4-2.2l0.4,1.6c-1.3,1.2-2.7,2.3-4.2,3.3l-0.6-1.3c0.3-0.3,0.5-0.6,0.5-0.9
		V8.1h-2.9V6.7H151.3z M152.7,3.7l-1,1c-0.8-1-1.9-2.1-3.4-3.2l1-1C150.7,1.7,151.8,2.7,152.7,3.7z M164.4,9.2v1.4
		c-0.7,2-1.8,3.7-3.3,5.1c1.4,1,3.2,1.8,5.2,2.6l-0.8,1.3c-2.2-0.9-4-1.9-5.5-3c-1.7,1.3-3.8,2.2-6.2,3l-0.8-1.3
		c2.3-0.7,4.3-1.6,5.9-2.7c-1.6-1.5-2.7-3.1-3.3-4.9h-1.2V9.2H164.4z M163.1,1v4.5c0,0.5,0.3,0.8,0.8,0.8h1.9v1.4h-2.3
		c-1.3,0-1.9-0.6-1.9-1.9V2.5h-4.1v0.7c0,2.2-1.1,3.9-3.2,5.2l-1-1.2c1.8-0.9,2.8-2.2,2.8-3.8V1H163.1z M159.9,14.7
		c1.3-1.2,2.4-2.5,3-4.1H157C157.5,12.1,158.5,13.5,159.9,14.7z"/>
	<path class="st15" d="M172.5,6.7V16c0.8-0.6,1.6-1.3,2.5-2.2l0.4,1.6c-1.3,1.3-2.7,2.4-4.2,3.4l-0.6-1.4c0.3-0.3,0.5-0.5,0.5-0.9
		V8.1h-3.1V6.7H172.5z M174,3.7l-1,1.1c-0.9-1-2.1-2.1-3.6-3.3l1-1C171.8,1.5,173,2.6,174,3.7z M180.2,6.5V0.2h1.6v6.3h5.4V8h-5.4
		v11.5h-1.6V8h-5.7V6.5H180.2z"/>
	<path class="st15" d="M195.2,15.2c0.5,0.5,0.8,1.1,0.8,1.9c0,0.7-0.3,1.4-0.8,1.9c-0.5,0.5-1.2,0.8-1.9,0.8s-1.4-0.3-1.9-0.7
		c-0.5-0.5-0.8-1.1-0.8-1.9s0.3-1.4,0.8-1.9c0.5-0.5,1.2-0.8,1.9-0.8S194.6,14.7,195.2,15.2z M192.1,16c-0.3,0.3-0.5,0.7-0.5,1.1
		c0,0.4,0.1,0.8,0.5,1.1c0.3,0.3,0.7,0.5,1.1,0.5c0.4,0,0.8-0.2,1.1-0.5c0.3-0.3,0.5-0.7,0.5-1.1c0-0.4-0.2-0.8-0.5-1.1
		c-0.3-0.3-0.7-0.5-1.1-0.5C192.8,15.5,192.4,15.6,192.1,16z"/>
	<path class="st15" d="M221.2,3.4c1.1,0.9,1.8,2.1,2,3.6h-1.7c-0.2-1.1-0.8-1.9-1.6-2.5c-0.8-0.6-1.8-0.8-3-0.8
		c-1.7,0-3.1,0.6-4,1.8c-0.9,1.1-1.3,2.6-1.3,4.5s0.4,3.4,1.3,4.5c0.9,1.2,2.2,1.7,4,1.7c1.2,0,2.2-0.3,3-0.9c0.9-0.7,1.5-1.7,1.8-3
		h1.7c-0.3,1.7-1.1,3.1-2.4,4.1c-1.2,0.9-2.5,1.4-4.1,1.4c-2.3,0-4.1-0.8-5.4-2.3c-1.1-1.4-1.7-3.2-1.7-5.4s0.6-4.1,1.7-5.5
		c1.3-1.6,3.1-2.4,5.4-2.4C218.6,2.1,220,2.5,221.2,3.4z"/>
	<path class="st15" d="M234.3,7.9c0.9,1.1,1.4,2.4,1.4,4.1c0,1.6-0.5,3-1.4,4c-1,1.1-2.3,1.7-3.9,1.7c-1.6,0-2.9-0.6-3.9-1.7
		c-0.9-1.1-1.4-2.4-1.4-4c0-1.6,0.5-3,1.4-4.1c1-1.1,2.2-1.7,3.9-1.7C232,6.2,233.4,6.8,234.3,7.9z M227.7,9c-0.6,0.8-0.9,1.8-0.9,3
		c0,1.2,0.3,2.2,0.9,3c0.6,0.9,1.5,1.3,2.7,1.3c1.1,0,2-0.4,2.7-1.3c0.6-0.8,0.9-1.8,0.9-3c0-1.2-0.3-2.2-0.9-3
		c-0.7-0.9-1.6-1.3-2.7-1.3C229.3,7.6,228.4,8.1,227.7,9z"/>
	<path class="st15" d="M247,10.7v6.7h-1.7v-6.6c0-2.1-1-3.2-2.9-3.2c-0.8,0-1.4,0.3-2,0.8c-0.6,0.6-0.9,1.4-1,2.4v6.6h-1.7V6.5h1.7
		v1.6c0.4-0.6,0.9-1.1,1.4-1.4c0.6-0.3,1.2-0.5,2-0.5C245.7,6.2,247,7.7,247,10.7z"/>
	<path class="st15" d="M257.5,7.2c0.8,0.7,1.3,1.6,1.5,3h-1.7c-0.1-0.8-0.5-1.5-1-1.9c-0.5-0.4-1.2-0.6-2.1-0.6
		c-1,0-1.9,0.4-2.5,1.2c-0.6,0.8-0.9,1.8-0.9,3.1c0,1.3,0.3,2.4,0.9,3.1c0.6,0.8,1.4,1.2,2.5,1.2c1.8,0,2.9-0.9,3.2-2.8h1.7
		c-0.3,1.4-0.8,2.5-1.6,3.2c-0.8,0.7-1.9,1-3.2,1c-1.6,0-2.9-0.5-3.8-1.6c-0.9-1-1.3-2.4-1.3-4s0.4-3,1.3-4.1
		c0.9-1.2,2.2-1.7,3.8-1.7C255.7,6.2,256.7,6.6,257.5,7.2z"/>
	<path class="st15" d="M269.5,8c0.8,1,1.2,2.5,1.3,4.4h-8.6c0.1,1.2,0.4,2.2,1,2.8s1.4,1,2.4,1c0.9,0,1.6-0.2,2.2-0.7
		c0.5-0.4,0.8-0.9,1.1-1.7h1.7c-0.3,1-0.7,1.9-1.5,2.6c-0.9,0.8-2.1,1.2-3.5,1.2c-1.6,0-2.8-0.5-3.7-1.5c-1-1.1-1.4-2.4-1.4-4.2
		c0-1.6,0.4-2.9,1.4-4c0.9-1.1,2.2-1.7,3.7-1.7C267.3,6.2,268.7,6.8,269.5,8z M263.3,8.6c-0.6,0.6-0.9,1.5-1,2.5h6.8
		c-0.2-2.3-1.4-3.5-3.4-3.5C264.7,7.6,263.9,8,263.3,8.6z"/>
	<path class="st15" d="M280.9,7.5c0.6,0.7,1,1.7,1,3v7h-1.6v-1.8c-0.4,0.6-1,1.1-1.7,1.4c-0.8,0.4-1.7,0.7-2.7,0.7
		c-1.1,0-2-0.3-2.6-0.8c-0.7-0.6-1-1.3-1-2.2c0-1.2,0.5-2.2,1.5-2.8c0.9-0.6,2.1-0.9,3.8-0.9l2.6,0v-0.6c0-1.8-0.9-2.7-2.8-2.7
		c-0.8,0-1.4,0.1-2,0.5c-0.6,0.3-0.9,0.9-1.1,1.6l-1.7-0.1c0.2-1.1,0.8-2,1.7-2.5c0.8-0.5,1.8-0.8,3.1-0.8
		C279,6.2,280.2,6.6,280.9,7.5z M277.7,12.2c-2.4,0-3.7,0.8-3.7,2.4c0,0.5,0.2,0.9,0.6,1.2c0.4,0.3,1,0.5,1.6,0.5c1,0,1.9-0.3,2.7-1
		c0.8-0.7,1.2-1.4,1.2-2.2v-0.9L277.7,12.2z"/>
	<path class="st15" d="M286.5,2.1v15.3h-1.7V2.1H286.5z"/>
	<path class="st15" d="M297.9,8c0.8,1,1.2,2.5,1.3,4.4h-8.6c0.1,1.2,0.4,2.2,1,2.8s1.4,1,2.4,1c0.9,0,1.6-0.2,2.2-0.7
		c0.5-0.4,0.8-0.9,1.1-1.7h1.7c-0.3,1-0.7,1.9-1.5,2.6c-0.9,0.8-2.1,1.2-3.5,1.2c-1.6,0-2.8-0.5-3.7-1.5c-1-1.1-1.4-2.4-1.4-4.2
		c0-1.6,0.4-2.9,1.4-4c0.9-1.1,2.2-1.7,3.7-1.7C295.7,6.2,297,6.8,297.9,8z M291.6,8.6c-0.6,0.6-0.9,1.5-1,2.5h6.8
		c-0.2-2.3-1.4-3.5-3.4-3.5C293,7.6,292.2,8,291.6,8.6z"/>
	<path class="st15" d="M310.8,2.1v15.3h-1.6v-1.8c-0.8,1.4-2,2.1-3.6,2.1c-1.6,0-2.8-0.6-3.7-1.7c-0.8-1-1.2-2.4-1.2-4
		c0-1.6,0.4-2.9,1.2-3.9c0.9-1.2,2.1-1.7,3.6-1.7c1.6,0,2.8,0.8,3.6,2.3V2.1H310.8z M303.2,8.9c-0.5,0.7-0.8,1.7-0.8,3
		s0.3,2.3,0.8,3.1c0.6,0.8,1.5,1.3,2.6,1.3c1.1,0,1.9-0.4,2.5-1.3c0.5-0.8,0.8-1.7,0.8-3v-0.2c0-1.3-0.3-2.3-0.9-3.1
		c-0.6-0.8-1.4-1.2-2.4-1.2C304.7,7.6,303.8,8,303.2,8.9z"/>
	<path class="st15" d="M329.6,3.3c1,0.8,1.6,2,1.7,3.6h-1.7c-0.2-1.1-0.6-1.9-1.3-2.4c-0.7-0.5-1.6-0.8-2.8-0.8
		c-1.1,0-2,0.2-2.6,0.5c-0.7,0.4-1.1,1-1.1,1.9c0,0.8,0.4,1.4,1.3,1.8c0.4,0.2,1.3,0.5,2.8,0.9c2,0.6,3.3,1.1,3.9,1.4
		c1.2,0.8,1.9,1.8,1.9,3.2c0,1.3-0.5,2.4-1.6,3.1c-1.1,0.7-2.5,1.1-4.2,1.1c-1.8,0-3.1-0.4-4.2-1.1c-1.2-0.9-1.8-2.3-2-4.1h1.7
		c0.1,1.3,0.6,2.3,1.4,2.9c0.7,0.5,1.7,0.8,3,0.8c1.2,0,2.2-0.2,3-0.7s1.1-1.1,1.1-1.9c0-0.9-0.5-1.7-1.5-2.2
		c-0.4-0.3-1.5-0.6-3.2-1.1c-1.8-0.5-3-1-3.4-1.2c-1.2-0.7-1.7-1.6-1.7-2.9c0-1.3,0.5-2.3,1.7-3c1-0.7,2.3-1,3.8-1
		C327.3,2.1,328.7,2.5,329.6,3.3z"/>
	<path class="st15" d="M336.6,6.5h2.7v1.4h-2.7v6.9c0,0.4,0.1,0.7,0.2,0.9c0.1,0.2,0.4,0.3,0.8,0.3h1.4v1.4h-1.6
		c-0.9,0-1.5-0.2-1.9-0.7c-0.4-0.4-0.5-1-0.5-1.8V7.9h-2.2V6.5h2.2V3.7l1.7-0.7V6.5z"/>
	<path class="st15" d="M342.8,6.5v6.6c0,1,0.2,1.8,0.7,2.3c0.4,0.5,1.2,0.8,2.1,0.8c0.7,0,1.4-0.3,1.9-0.8c0.6-0.6,0.9-1.3,1.1-2.3
		V6.5h1.7v10.9h-1.7v-1.7c-0.9,1.3-2.1,2-3.5,2c-2.6,0-3.9-1.5-3.9-4.4V6.5H342.8z"/>
	<path class="st15" d="M362.6,2.1v15.3H361v-1.8c-0.8,1.4-2,2.1-3.6,2.1c-1.6,0-2.8-0.6-3.7-1.7c-0.8-1-1.2-2.4-1.2-4
		c0-1.6,0.4-2.9,1.2-3.9c0.9-1.2,2.1-1.7,3.6-1.7c1.6,0,2.8,0.8,3.6,2.3V2.1H362.6z M355,8.9c-0.5,0.7-0.8,1.7-0.8,3
		s0.3,2.3,0.8,3.1c0.6,0.8,1.5,1.3,2.6,1.3c1.1,0,1.9-0.4,2.5-1.3c0.5-0.8,0.8-1.7,0.8-3v-0.2c0-1.3-0.3-2.3-0.9-3.1
		c-0.6-0.8-1.4-1.2-2.4-1.2C356.5,7.6,355.6,8,355,8.9z"/>
	<path class="st15" d="M367.5,2.8c0.3,0.2,0.4,0.5,0.4,0.9c0,0.4-0.1,0.7-0.4,0.9c-0.3,0.2-0.5,0.4-0.9,0.4s-0.7-0.1-0.9-0.4
		c-0.3-0.3-0.4-0.5-0.4-0.9c0-0.4,0.1-0.7,0.4-0.9c0.3-0.3,0.5-0.4,0.9-0.4S367.2,2.5,367.5,2.8z M367.4,6.5v10.9h-1.7V6.5H367.4z"
		/>
	<path class="st15" d="M379.3,7.9c0.9,1.1,1.4,2.4,1.4,4.1c0,1.6-0.5,3-1.4,4c-1,1.1-2.3,1.7-3.9,1.7c-1.6,0-2.9-0.6-3.9-1.7
		c-0.9-1.1-1.4-2.4-1.4-4c0-1.6,0.5-3,1.4-4.1c1-1.1,2.2-1.7,3.9-1.7C377,6.2,378.3,6.8,379.3,7.9z M372.7,9c-0.6,0.8-0.9,1.8-0.9,3
		c0,1.2,0.3,2.2,0.9,3c0.6,0.9,1.5,1.3,2.7,1.3c1.1,0,2-0.4,2.7-1.3c0.6-0.8,0.9-1.8,0.9-3c0-1.2-0.3-2.2-0.9-3
		c-0.7-0.9-1.6-1.3-2.7-1.3C374.3,7.6,373.4,8.1,372.7,9z"/>
	<path class="st15" d="M401.7,15.2c0.2,0.2,0.4,0.5,0.4,0.9c0,0.4-0.1,0.7-0.4,0.9c-0.3,0.2-0.6,0.4-0.9,0.4s-0.7-0.1-0.9-0.4
		c-0.3-0.3-0.4-0.5-0.4-0.9s0.1-0.7,0.4-0.9c0.3-0.3,0.5-0.4,0.9-0.4S401.5,15,401.7,15.2z M401.8,2.4l-0.3,11h-1.3l-0.3-11H401.8z"
		/>
	<path class="st15" d="M425.2,3.2c0.8,0.7,1.2,1.7,1.2,3c0,0.9-0.3,1.8-0.8,2.5c-0.2,0.3-0.8,0.8-1.7,1.6c-0.5,0.4-0.8,0.8-1,1.2
		c-0.3,0.5-0.4,1-0.4,1.5v0.5h-1.7v-0.5c0-0.7,0.1-1.3,0.4-1.8c0.3-0.6,1-1.4,2.1-2.4c0.3-0.3,0.6-0.6,0.7-0.8
		c0.4-0.5,0.6-1.1,0.6-1.7c0-0.8-0.3-1.5-0.7-2c-0.5-0.5-1.2-0.7-2.1-0.7c-1.1,0-1.8,0.3-2.3,1c-0.5,0.6-0.7,1.4-0.7,2.4h-1.7
		c0-1.5,0.4-2.6,1.2-3.5c0.8-0.9,2-1.4,3.5-1.4C423.3,2.1,424.4,2.5,425.2,3.2z M422.6,15.2c0.2,0.2,0.4,0.5,0.4,0.9
		c0,0.4-0.1,0.7-0.4,0.9c-0.3,0.2-0.5,0.4-0.9,0.4s-0.7-0.1-0.9-0.4c-0.3-0.3-0.4-0.5-0.4-0.9s0.1-0.7,0.4-0.9
		c0.3-0.3,0.5-0.4,0.9-0.4S422.3,15,422.6,15.2z"/>
</g>
</svg>
