<?xml version="1.0" encoding="utf-8"?>
<!-- Generator: Adobe Illustrator 24.3.0, SVG Export Plug-In . SVG Version: 6.00 Build 0)  -->
<svg version="1.1" id="图层_1" xmlns="http://www.w3.org/2000/svg" xmlns:xlink="http://www.w3.org/1999/xlink" x="0px" y="0px"
	 viewBox="0 0 420.3 20.3" style="enable-background:new 0 0 420.3 20.3;" xml:space="preserve">
<style type="text/css">
	.st0{fill:none;stroke:#AF8A6D;stroke-width:7.0866;stroke-miterlimit:10;}
	.st1{fill:none;stroke:#7B5744;stroke-width:5.6693;stroke-miterlimit:10;}
	.st2{fill:none;stroke:#EEDFBE;stroke-width:8.5039;stroke-miterlimit:10;}
	.st3{fill:none;}
	.st4{fill:#BB474B;}
	.st5{fill:#A7C349;}
	.st6{fill:#E0EDF2;stroke:#E0EDF2;stroke-width:0.2835;stroke-miterlimit:10;}
	.st7{fill:#E0EDF2;stroke:#E0EDF2;stroke-width:0.1417;stroke-miterlimit:10;}
	.st8{fill:#E0EDF2;stroke:#E0EDF2;stroke-width:0.4252;stroke-miterlimit:10;}
	.st9{fill:#E0EDF2;stroke:#E0EDF2;stroke-width:0.5669;stroke-miterlimit:10;}
	.st10{fill:#E0EDF2;stroke:#E0EDF2;stroke-width:0.7087;stroke-miterlimit:10;}
	.st11{fill:#E0EDF2;}
	.st12{fill:#7C5543;stroke:#7B5744;stroke-miterlimit:10;}
	.st13{fill:#ECDDBB;stroke:#EEDFBE;stroke-miterlimit:10;}
	.st14{fill:#AF896D;stroke:#AF8A6D;stroke-miterlimit:10;}
	.st15{fill:#7B5744;}
	.st16{fill:#EEDFBE;}
	.st17{fill:#AF8A6D;}
	.st18{clip-path:url(#SVGID_2_);}
	.st19{fill:none;stroke:#AF8A6D;stroke-width:28.346;stroke-linecap:round;stroke-miterlimit:10;}
	.st20{fill:none;stroke:#7B5744;stroke-width:28.346;stroke-linecap:round;stroke-miterlimit:10;}
	.st21{fill:none;stroke:#EEDFBE;stroke-width:28.346;stroke-linecap:round;stroke-miterlimit:10;}
	.st22{clip-path:url(#SVGID_4_);fill:#010000;}
	.st23{fill:#010000;}
	.st24{fill:none;stroke:#EEDFBE;stroke-width:6;stroke-linecap:round;stroke-linejoin:round;}
	.st25{fill:none;stroke:#AF8A6D;stroke-width:13.1913;stroke-linecap:round;stroke-miterlimit:10;}
	.st26{fill:none;stroke:#EEDFBE;stroke-width:13.1913;stroke-linecap:round;stroke-miterlimit:10;}
	.st27{fill:none;stroke:#7B5744;stroke-width:13.1913;stroke-linecap:round;stroke-miterlimit:10;}
	.st28{fill:none;stroke:#7B5744;stroke-width:13.2334;stroke-linecap:round;stroke-miterlimit:10;}
	.st29{fill:#BD8A6D;}
	.st30{fill:#F2DEBA;}
	.st31{fill:#885441;}
	.st32{fill:none;stroke:#AF8A6D;stroke-width:4.0495;stroke-linecap:round;stroke-miterlimit:10;}
	.st33{fill:none;stroke:#EEDFBE;stroke-width:4.0495;stroke-linecap:round;stroke-miterlimit:10;}
	.st34{fill:none;stroke:#7B5744;stroke-width:4.0495;stroke-linecap:round;stroke-miterlimit:10;}
	.st35{fill:none;stroke:#A7C349;stroke-width:3;stroke-linecap:round;}
	.st36{fill:none;stroke:#BB474B;stroke-width:3;stroke-linecap:round;}
	.st37{enable-background:new    ;}
</style>
<g class="st37">
	<path class="st15" d="M5.2,6v3.7h2.5v0.7H5.2v3.9c1.1-0.2,2.2-0.5,3.2-0.7v0.7c-1,0.3-2.1,0.5-3.2,0.7v4.4H4.5v-4.2
		c-1.4,0.3-2.8,0.5-4.3,0.7L0,15c1.6-0.2,3.1-0.4,4.4-0.7v-4H0.6L0.4,9.7C1.2,8.2,2,6.3,2.7,3.9H0V3.2h2.9c0.3-0.9,0.5-1.9,0.7-2.9
		l0.7,0.1c-0.3,1-0.5,1.9-0.7,2.8h4.2v0.7H3.4C2.7,6.2,2,8.1,1.2,9.7h3.3V6H5.2z M8.7,12.1v-0.7h9.2v0.7h-4.3v5.9h5.3v0.7H7.6v-0.7
		h5.2v-5.9H8.7z M8.5,9.9L8.1,9.3c3.7-1.6,6.3-4,7.8-7H8.8V1.6h7.9v0.6c-0.6,1.4-1.4,2.7-2.5,3.8c1.8,1.2,3.4,2.4,4.6,3.5L18.4,10
		c-1.2-1.1-2.7-2.3-4.6-3.6C12.4,7.8,10.6,9,8.5,9.9z"/>
	<path class="st15" d="M25.2,19.3h-0.7V7.2c-0.8,2.6-1.9,4.9-3.3,6.9l-0.3-0.7c1.7-2.4,2.9-5,3.6-8h-3.3V4.7h3.4V0.3h0.7v4.4H28v0.7
		h-2.8v1.8c1,1.3,2.1,2.8,3.1,4.4l-0.4,0.6c-1-1.8-2-3.2-2.7-4.2V19.3z M32.5,1c-0.9,3.9-2.1,6.8-3.5,8.9l-0.6-0.5
		c1.5-2.1,2.6-5,3.4-8.6L32.5,1z M39,19.2l-0.7,0.3c-0.3-0.8-0.5-1.4-0.8-2.1C35,18,32.1,18.4,29,18.7l-0.1-0.7
		c1.5-1.6,3-5.1,4.7-10.5l0.7,0.2c-1.5,4.7-2.9,8.1-4.3,10.1c2.7-0.3,5.2-0.7,7.4-1.2c-0.7-1.6-1.4-3.1-2.1-4.5l0.7-0.2
		C37.1,14.3,38.1,16.6,39,19.2z M39.8,9.3l-0.5,0.6c-1.9-2.3-3.2-5.3-4-9L36,0.5C36.7,4.1,38,7,39.8,9.3z"/>
	<path class="st15" d="M48.2,0.6c1.8,1.9,3.5,4,5.3,6.2L53,7.4C51.1,5,49.4,3,47.9,1.3c-1.7,2.5-3.6,4.7-5.7,6.6l-0.4-0.6
		c2.1-1.9,4.1-4.2,5.8-6.7H48.2z M45,7.8v9.8c0,0.4,0.2,0.6,0.7,0.6h4.6c0.9,0,1.4-0.2,1.6-0.6c0.2-0.5,0.4-1.4,0.5-2.7l0.7,0.2
		c-0.1,1.7-0.4,2.8-0.8,3.2c-0.3,0.3-1,0.5-1.9,0.5h-4.8c-0.9,0-1.3-0.4-1.3-1.2V7.2h6.8v5.2c0,1.1-0.5,1.6-1.5,1.6
		c-0.8,0-1.5,0-2.3-0.1L47,13.3c0.8,0,1.6,0.1,2.4,0.1c0.6,0,1-0.4,1-1.1V7.8H45z M55.1,19.2l-0.1-0.7c1.2,0,2.2,0.1,3.3,0.1
		c0.5,0,0.8-0.3,0.8-1V0.4h0.7v17.4c0,0.9-0.4,1.4-1.3,1.4H55.1z M55.9,2.2v13.3h-0.7V2.2H55.9z"/>
	<path class="st15" d="M65.9,14.4c-0.5,1.7-1.2,3.1-2.1,4.4l-0.6-0.4c0.9-1.2,1.6-2.6,2-4.1L65.9,14.4z M64.3,2.5V1.8h7.7
		c-0.3-0.6-0.5-1.1-0.9-1.6L72,0.1c0.3,0.5,0.6,1.1,0.9,1.7h7.6v0.7h-3.6l-1.1,2.3h5.7v0.7H63.3V4.8h5.5l-0.9-2.3H64.3z M78.7,7.3
		V13H66.1V7.3H78.7z M78,9.8V7.9H66.8v1.9H78z M78,10.4H66.8v1.9H78V10.4z M70.1,19c-1.1,0-1.6-0.5-1.6-1.6v-2.9h0.7v2.8
		c0,0.7,0.4,1.1,1.1,1.1h4.8c0.6,0,1-0.1,1.2-0.3c0.3-0.3,0.5-1.1,0.6-2.3l0.7,0.2c-0.1,1.4-0.4,2.3-0.8,2.7
		c-0.3,0.3-0.8,0.4-1.6,0.4H70.1z M74.9,4.8l1.1-2.3h-7.4l0.9,2.3H74.9z M74.4,16.5l-0.6,0.4c-0.5-0.8-1.3-1.7-2.2-2.7l0.6-0.4
		C73.1,14.8,73.9,15.7,74.4,16.5z M81.7,18l-0.6,0.4c-0.7-1.2-1.6-2.5-2.9-3.9l0.6-0.4C80.1,15.7,81,16.9,81.7,18z"/>
	<path class="st15" d="M87.6,17.1c0,1.5-0.6,2.6-1.8,3.3l-0.4-0.5c0.9-0.6,1.4-1.4,1.4-2.4c-0.1,0-0.1,0-0.3,0
		c-0.3,0-0.5-0.1-0.6-0.2c-0.2-0.1-0.2-0.4-0.2-0.6c0-0.3,0.1-0.5,0.2-0.6c0.2-0.1,0.4-0.2,0.6-0.2C87.2,15.7,87.6,16.1,87.6,17.1z"
		/>
	<path class="st15" d="M114.9,2.7h6.2v8h-7.7c0.8,1.6,1.8,3.1,3.1,4.2c1.7-0.6,3.3-1.7,4.9-3.3l0.5,0.5c-1.4,1.4-3,2.5-4.8,3.2
		c1.8,1.5,4,2.6,6.7,3.2l-0.3,0.6c-5.1-1.3-8.7-4.1-10.7-8.5h-4.5v7.7c2.1-0.5,4.1-1.1,6.1-1.8l0.2,0.7c-1.9,0.7-4.3,1.4-7.1,2
		l-0.1-0.6c0.2-0.1,0.3-0.2,0.3-0.3V2.7h6.6c-0.3-0.9-0.7-1.7-1-2.5l0.8-0.1C114.2,0.9,114.6,1.7,114.9,2.7z M120.4,3.4h-12.2v2.9
		h12.2V3.4z M108.3,10h12.2V7h-12.2V10z"/>
	<path class="st15" d="M130.4,0.1c-0.3,1.6-0.6,3.1-0.8,4.5h3.9v0.5c-0.3,3.4-1,6.3-2.3,8.8c1.3,1,2.4,2,3.3,2.9l-0.5,0.5
		c-0.8-0.8-1.9-1.8-3.1-2.8c-1.1,1.9-2.5,3.5-4.3,4.9l-0.5-0.6c1.7-1.3,3.1-2.9,4.2-4.7c-1-0.8-2.1-1.6-3.4-2.5
		c0.7-1.9,1.3-4,1.8-6.3h-2.6V4.6h2.7c0.3-1.5,0.6-3,0.8-4.6L130.4,0.1z M132.8,5.3h-3.3c-0.5,2.5-1.1,4.5-1.7,6.1
		c1,0.7,2,1.4,2.9,2.1C131.8,11.1,132.5,8.4,132.8,5.3z M139.6,9.4v-3c1.2-1.1,2.4-2.4,3.5-4h-8V1.7h8.8v0.7c-1,1.5-2.3,2.9-3.6,4.2
		v2.8h4.6v0.7h-4.6v7.5c0,1-0.5,1.5-1.4,1.5H136l-0.2-0.7c0.9,0,1.8,0,2.8,0c0.7,0,1-0.4,1-1.1v-7.3h-5.1V9.4H139.6z"/>
	<path class="st15" d="M150.8,7v10c0.9-0.7,1.9-1.5,3-2.6l0.2,0.8c-1.2,1.2-2.5,2.2-3.9,3.2l-0.3-0.6c0.2-0.2,0.4-0.4,0.4-0.7V7.7
		H147V7H150.8z M152.3,4.1l-0.5,0.5c-0.8-1-1.9-2.1-3.3-3.2l0.5-0.5C150.3,1.9,151.4,3,152.3,4.1z M164,9.4v0.7
		c-0.8,2.2-2,4-3.7,5.5c1.6,1.2,3.5,2.2,5.8,3.1l-0.4,0.6c-2.4-0.9-4.3-2-5.9-3.2c-1.7,1.4-3.9,2.5-6.4,3.3l-0.4-0.6
		c2.5-0.8,4.6-1.8,6.3-3.1c-1.9-1.6-3.1-3.4-3.8-5.5h-1.1V9.4H164z M162.7,1.3v4.8c0,0.6,0.3,0.9,0.9,0.9h2.1v0.7h-2.2
		c-1,0-1.5-0.5-1.5-1.5V2h-5V3c0,2.3-1,4.1-3.1,5.3l-0.5-0.5c1.9-1.1,2.9-2.6,2.9-4.7V1.3H162.7z M159.7,15.2
		c1.7-1.4,2.9-3.1,3.6-5.1h-7.2C156.8,12.1,158,13.7,159.7,15.2z"/>
	<path class="st15" d="M172,7v10c0.9-0.7,2-1.6,3.1-2.7l0.2,0.8c-1.2,1.2-2.6,2.3-4,3.3l-0.3-0.6c0.2-0.2,0.4-0.4,0.4-0.6V7.7H168V7
		H172z M173.7,4l-0.5,0.5c-1-1.1-2.2-2.2-3.8-3.5l0.5-0.5C171.4,1.7,172.7,2.9,173.7,4z M180.5,6.9V0.3h0.8v6.6h5.7v0.7h-5.7v11.8
		h-0.8V7.6h-6V6.9H180.5z"/>
	<path class="st15" d="M194.9,15.3c0.5,0.5,0.7,1,0.7,1.7c0,0.7-0.3,1.2-0.7,1.7c-0.5,0.5-1.1,0.7-1.7,0.7c-0.7,0-1.3-0.2-1.7-0.7
		c-0.5-0.5-0.7-1-0.7-1.7c0-0.7,0.2-1.3,0.7-1.7c0.5-0.5,1-0.7,1.7-0.7C193.8,14.6,194.4,14.9,194.9,15.3z M191.9,15.8
		c-0.4,0.3-0.5,0.8-0.5,1.3c0,0.5,0.2,0.9,0.5,1.2c0.3,0.3,0.8,0.5,1.3,0.5c0.5,0,0.9-0.2,1.3-0.5c0.3-0.3,0.5-0.8,0.5-1.2
		c0-0.5-0.2-0.9-0.5-1.2c-0.4-0.4-0.8-0.5-1.3-0.5C192.6,15.3,192.2,15.5,191.9,15.8z"/>
	<path class="st15" d="M220.9,3.3c1.2,0.9,1.9,2.1,2.1,3.5h-0.8c-0.2-1.2-0.8-2.2-1.8-2.9c-1-0.7-2.1-1-3.4-1c-2,0-3.5,0.7-4.7,2.1
		c-1.1,1.3-1.6,3-1.6,5s0.5,3.7,1.6,4.9c1.1,1.3,2.6,2,4.5,2c1.4,0,2.5-0.4,3.5-1.1c1.1-0.8,1.8-2,2.1-3.5h0.8
		c-0.3,1.7-1.1,3.1-2.4,4.1c-1.2,0.9-2.5,1.3-4.1,1.3c-2.1,0-3.8-0.8-5.1-2.3c-1.2-1.4-1.8-3.2-1.8-5.4c0-2.2,0.6-4,1.8-5.5
		c1.3-1.6,3-2.4,5.3-2.4C218.4,2.1,219.7,2.5,220.9,3.3z"/>
	<path class="st15" d="M233.8,8c0.8,1,1.3,2.4,1.3,3.9c0,1.6-0.4,2.9-1.3,3.9c-0.9,1.2-2.2,1.8-3.8,1.8c-1.6,0-2.9-0.6-3.8-1.8
		c-0.9-1.1-1.3-2.4-1.3-3.9c0-1.6,0.4-2.9,1.3-3.9c0.9-1.2,2.2-1.8,3.8-1.8C231.6,6.2,232.9,6.8,233.8,8z M226.9,8.5
		c-0.7,0.9-1.1,2.1-1.1,3.5s0.4,2.5,1.1,3.4c0.8,1,1.8,1.5,3.2,1.5c1.3,0,2.4-0.5,3.2-1.5c0.7-0.9,1.1-2.1,1.1-3.4
		c0-1.4-0.4-2.5-1.1-3.5c-0.8-1-1.8-1.5-3.2-1.5C228.7,6.9,227.7,7.5,226.9,8.5z"/>
	<path class="st15" d="M245.9,10.7v6.7H245v-6.6c0-2.5-1.1-3.8-3.3-3.8c-1,0-1.8,0.4-2.5,1.1c-0.7,0.7-1,1.6-1.1,2.8v6.6h-0.8V6.5
		h0.8v2c0.3-0.7,0.8-1.2,1.5-1.7c0.7-0.4,1.4-0.6,2.2-0.6C244.5,6.2,245.9,7.7,245.9,10.7z"/>
	<path class="st15" d="M256.1,7.2c0.8,0.6,1.3,1.6,1.4,2.9h-0.8c-0.1-1-0.5-1.8-1.2-2.3c-0.7-0.5-1.5-0.8-2.5-0.8
		c-1.3,0-2.2,0.5-3,1.5c-0.7,0.9-1.1,2.1-1.1,3.6c0,1.5,0.3,2.6,1,3.5c0.7,0.9,1.7,1.4,3,1.4c2.2,0,3.4-1.1,3.8-3.4h0.8
		c-0.2,1.3-0.7,2.4-1.5,3.1c-0.8,0.7-1.8,1-3.1,1c-1.6,0-2.8-0.5-3.7-1.6c-0.8-1-1.2-2.3-1.2-4c0-1.7,0.4-3,1.3-4.1
		c0.9-1.2,2.1-1.7,3.6-1.7C254.3,6.2,255.3,6.5,256.1,7.2z"/>
	<path class="st15" d="M267.7,7.9c0.7,1,1.1,2.4,1.2,4.3h-9.1c0,1.4,0.4,2.6,1.2,3.4c0.8,0.9,1.7,1.3,3,1.3c1.1,0,2-0.3,2.6-0.9
		c0.5-0.5,1-1.2,1.2-2.1h0.9c-0.3,1.1-0.7,1.9-1.4,2.6c-0.9,0.8-2,1.2-3.3,1.2c-1.5,0-2.7-0.5-3.6-1.6c-0.9-1.1-1.4-2.5-1.4-4.2
		c0-1.6,0.4-2.9,1.3-4c0.9-1.2,2.1-1.7,3.6-1.7C265.6,6.2,266.9,6.8,267.7,7.9z M261.1,8.2c-0.7,0.9-1.1,2-1.2,3.3h8.2
		c-0.2-3-1.6-4.5-4.1-4.5C262.8,6.9,261.8,7.4,261.1,8.2z"/>
	<path class="st15" d="M278.8,7.5c0.6,0.7,0.9,1.7,0.9,2.9v7h-0.8V15c-0.5,0.7-1,1.2-1.8,1.7c-0.9,0.6-2,0.9-3,0.9
		c-1,0-1.9-0.3-2.5-0.8c-0.7-0.5-1-1.2-1-2.1c0-1.3,0.5-2.2,1.6-2.8c0.9-0.5,2.2-0.8,3.8-0.8l2.9,0v-0.7c0-2.3-1.2-3.5-3.5-3.5
		c-1,0-1.8,0.2-2.4,0.6c-0.7,0.4-1.1,1.1-1.3,1.9L271,9.4c0.2-1.1,0.7-1.8,1.6-2.4c0.8-0.5,1.8-0.8,2.9-0.8
		C276.9,6.2,278.1,6.6,278.8,7.5z M276,11.9c-3.1,0-4.6,1-4.6,2.9c0,0.7,0.3,1.2,0.8,1.6c0.5,0.4,1.2,0.6,2.1,0.6
		c1.2,0,2.2-0.4,3.2-1.3c0.9-0.8,1.4-1.6,1.4-2.5v-1.4L276,11.9z"/>
	<path class="st15" d="M283.7,2.1v15.3h-0.8V2.1H283.7z"/>
	<path class="st15" d="M294.9,7.9c0.7,1,1.1,2.4,1.2,4.3h-9.1c0,1.4,0.4,2.6,1.2,3.4c0.8,0.9,1.7,1.3,3,1.3c1.1,0,2-0.3,2.6-0.9
		c0.5-0.5,1-1.2,1.2-2.1h0.9c-0.3,1.1-0.7,1.9-1.4,2.6c-0.9,0.8-2,1.2-3.3,1.2c-1.5,0-2.7-0.5-3.6-1.6c-0.9-1.1-1.4-2.5-1.4-4.2
		c0-1.6,0.4-2.9,1.3-4c0.9-1.2,2.1-1.7,3.6-1.7C292.8,6.2,294.1,6.8,294.9,7.9z M288.3,8.2c-0.7,0.9-1.1,2-1.2,3.3h8.2
		c-0.2-3-1.6-4.5-4.1-4.5C290,6.9,289,7.4,288.3,8.2z"/>
	<path class="st15" d="M307.4,2.1v15.3h-0.8v-2.5c-0.8,1.9-2.1,2.8-4.1,2.8c-1.6,0-2.8-0.6-3.6-1.7c-0.8-1-1.2-2.4-1.2-4
		s0.4-2.9,1.2-4c0.9-1.2,2.1-1.8,3.6-1.8c1.9,0,3.3,1,4,2.9v-7H307.4z M299.6,8.4c-0.7,0.9-1,2.1-1,3.5c0,1.4,0.3,2.6,1,3.5
		c0.7,1,1.7,1.5,3,1.5c1.3,0,2.3-0.5,3-1.4c0.7-0.9,1-2,1-3.4v-0.3c0-1.4-0.3-2.6-1-3.5c-0.7-1-1.7-1.4-2.9-1.4
		C301.3,6.9,300.3,7.4,299.6,8.4z"/>
	<path class="st15" d="M325.8,3.3c1,0.8,1.5,2,1.6,3.5h-0.8c-0.1-1.3-0.6-2.2-1.4-2.9c-0.8-0.7-1.9-1-3.3-1c-1.3,0-2.4,0.2-3.1,0.7
		c-0.9,0.5-1.3,1.3-1.3,2.3c0,0.9,0.5,1.6,1.6,2.2c0.5,0.3,1.5,0.6,3,1c1.8,0.5,3.1,1,3.8,1.4c1.2,0.7,1.8,1.8,1.8,3.1
		c0,1.3-0.5,2.3-1.6,3c-1,0.7-2.4,1-4,1c-1.7,0-3-0.4-4-1.2c-1.1-0.9-1.7-2.2-1.8-4h0.8c0.1,1.5,0.7,2.6,1.6,3.4
		c0.8,0.7,2,1.1,3.4,1.1c1.4,0,2.6-0.3,3.4-0.9c0.9-0.6,1.3-1.4,1.3-2.4c0-1.1-0.5-2-1.6-2.6c-0.6-0.4-1.7-0.8-3.5-1.2
		c-1.8-0.5-2.9-0.9-3.4-1.2c-1.2-0.7-1.7-1.6-1.7-2.7c0-1.3,0.5-2.2,1.6-2.9c0.9-0.6,2.1-0.9,3.6-0.9C323.6,2.1,324.9,2.5,325.8,3.3
		z"/>
	<path class="st15" d="M332.2,6.5h3v0.7h-3v7.8c0,0.6,0.1,1,0.3,1.2c0.2,0.2,0.5,0.4,1.1,0.4h1.4v0.7h-1.4c-0.8,0-1.4-0.2-1.7-0.6
		c-0.3-0.4-0.4-0.9-0.4-1.7V7.2h-2.5V6.5h2.5V3.4l0.8-0.4V6.5z"/>
	<path class="st15" d="M338,6.5v6.7c0,1.2,0.3,2.1,0.8,2.8c0.5,0.7,1.4,1,2.5,1c1,0,1.8-0.4,2.5-1.1s1-1.6,1.1-2.8V6.5h0.8v10.9
		h-0.8v-2c-0.8,1.5-2.1,2.3-3.7,2.3c-2.7,0-4-1.5-4-4.5V6.5H338z"/>
	<path class="st15" d="M357.5,2.1v15.3h-0.8v-2.5c-0.8,1.9-2.1,2.8-4.1,2.8c-1.6,0-2.8-0.6-3.6-1.7c-0.8-1-1.2-2.4-1.2-4
		s0.4-2.9,1.2-4c0.9-1.2,2.1-1.8,3.6-1.8c1.9,0,3.3,1,4,2.9v-7H357.5z M349.7,8.4c-0.7,0.9-1,2.1-1,3.5c0,1.4,0.3,2.6,1,3.5
		c0.7,1,1.7,1.5,3,1.5c1.3,0,2.3-0.5,3-1.4c0.7-0.9,1-2,1-3.4v-0.3c0-1.4-0.3-2.6-1-3.5c-0.7-1-1.7-1.4-2.9-1.4
		C351.5,6.9,350.4,7.4,349.7,8.4z"/>
	<path class="st15" d="M361.9,3.1c0.2,0.1,0.3,0.3,0.3,0.6c0,0.2-0.1,0.4-0.3,0.6s-0.4,0.3-0.6,0.3c-0.3,0-0.4-0.1-0.6-0.3
		c-0.2-0.2-0.3-0.4-0.3-0.6c0-0.3,0.1-0.4,0.3-0.6c0.1-0.2,0.3-0.3,0.6-0.3C361.6,2.8,361.7,2.9,361.9,3.1z M361.7,6.5v10.9h-0.8
		V6.5H361.7z"/>
	<path class="st15" d="M373.5,8c0.8,1,1.3,2.4,1.3,3.9c0,1.6-0.4,2.9-1.3,3.9c-0.9,1.2-2.2,1.8-3.8,1.8c-1.6,0-2.9-0.6-3.8-1.8
		c-0.9-1.1-1.3-2.4-1.3-3.9c0-1.6,0.4-2.9,1.3-3.9c0.9-1.2,2.2-1.8,3.8-1.8C371.3,6.2,372.6,6.8,373.5,8z M366.6,8.5
		c-0.7,0.9-1.1,2.1-1.1,3.5s0.4,2.5,1.1,3.4c0.8,1,1.8,1.5,3.2,1.5c1.3,0,2.4-0.5,3.2-1.5c0.7-0.9,1.1-2.1,1.1-3.4
		c0-1.4-0.4-2.5-1.1-3.5c-0.8-1-1.8-1.5-3.2-1.5C368.4,6.9,367.4,7.5,366.6,8.5z"/>
	<path class="st15" d="M395.6,15.9c0.1,0.1,0.2,0.3,0.2,0.6c0,0.2-0.1,0.4-0.2,0.6c-0.2,0.2-0.4,0.3-0.6,0.3c-0.3,0-0.4-0.1-0.6-0.3
		s-0.2-0.4-0.2-0.6c0-0.3,0.1-0.4,0.2-0.6c0.2-0.2,0.4-0.3,0.6-0.3C395.2,15.7,395.4,15.8,395.6,15.9z M395.4,2.4l-0.1,11.3h-0.7
		l-0.1-11.3H395.4z"/>
	<path class="st15" d="M419.2,3.2c0.7,0.7,1.1,1.6,1.1,2.8c0,0.8-0.3,1.6-0.8,2.3c-0.3,0.3-0.8,0.9-1.6,1.6
		c-0.5,0.5-0.9,0.9-1.2,1.3c-0.3,0.5-0.5,1.1-0.5,1.7v0.7h-0.8v-0.7c0-0.5,0.1-1.1,0.4-1.5c0.3-0.7,0.9-1.4,1.7-2.1
		c0.6-0.6,1.1-1,1.3-1.3c0.4-0.6,0.7-1.2,0.7-1.9c0-1-0.3-1.8-0.8-2.4c-0.6-0.6-1.4-0.9-2.5-0.9c-1.2,0-2.1,0.4-2.8,1.2
		c-0.5,0.7-0.8,1.7-0.9,2.8h-0.8c0-1.4,0.4-2.5,1.1-3.3c0.8-1,1.9-1.5,3.4-1.5C417.4,2.1,418.5,2.5,419.2,3.2z M416.5,15.9
		c0.2,0.1,0.3,0.3,0.3,0.6c0,0.2-0.1,0.4-0.3,0.6s-0.4,0.3-0.6,0.3c-0.3,0-0.4-0.1-0.6-0.3s-0.3-0.4-0.3-0.6c0-0.3,0.1-0.4,0.3-0.6
		c0.2-0.2,0.4-0.3,0.6-0.3C416.1,15.7,416.3,15.8,416.5,15.9z"/>
</g>
</svg>
