<?xml version="1.0" encoding="utf-8"?>
<!-- Generator: Adobe Illustrator 24.3.0, SVG Export Plug-In . SVG Version: 6.00 Build 0)  -->
<svg version="1.1" id="图层_1" xmlns="http://www.w3.org/2000/svg" xmlns:xlink="http://www.w3.org/1999/xlink" x="0px" y="0px"
	 viewBox="0 0 394.5 21.8" style="enable-background:new 0 0 394.5 21.8;" xml:space="preserve">
<style type="text/css">
	.st0{fill:none;stroke:#AF8A6D;stroke-width:7.0866;stroke-miterlimit:10;}
	.st1{fill:none;stroke:#7B5744;stroke-width:5.6693;stroke-miterlimit:10;}
	.st2{fill:none;stroke:#EEDFBE;stroke-width:8.5039;stroke-miterlimit:10;}
	.st3{fill:none;}
	.st4{fill:#BB474B;}
	.st5{fill:#A7C349;}
	.st6{fill:#E0EDF2;stroke:#E0EDF2;stroke-width:0.2835;stroke-miterlimit:10;}
	.st7{fill:#E0EDF2;stroke:#E0EDF2;stroke-width:0.1417;stroke-miterlimit:10;}
	.st8{fill:#E0EDF2;stroke:#E0EDF2;stroke-width:0.4252;stroke-miterlimit:10;}
	.st9{fill:#E0EDF2;stroke:#E0EDF2;stroke-width:0.5669;stroke-miterlimit:10;}
	.st10{fill:#E0EDF2;stroke:#E0EDF2;stroke-width:0.7087;stroke-miterlimit:10;}
	.st11{fill:#E0EDF2;}
	.st12{fill:#7C5543;stroke:#7B5744;stroke-miterlimit:10;}
	.st13{fill:#ECDDBB;stroke:#EEDFBE;stroke-miterlimit:10;}
	.st14{fill:#AF896D;stroke:#AF8A6D;stroke-miterlimit:10;}
	.st15{fill:#7B5744;}
	.st16{fill:#EEDFBE;}
	.st17{fill:#AF8A6D;}
	.st18{clip-path:url(#SVGID_2_);}
	.st19{fill:none;stroke:#AF8A6D;stroke-width:28.346;stroke-linecap:round;stroke-miterlimit:10;}
	.st20{fill:none;stroke:#7B5744;stroke-width:28.346;stroke-linecap:round;stroke-miterlimit:10;}
	.st21{fill:none;stroke:#EEDFBE;stroke-width:28.346;stroke-linecap:round;stroke-miterlimit:10;}
	.st22{clip-path:url(#SVGID_4_);fill:#010000;}
	.st23{fill:#010000;}
	.st24{fill:none;stroke:#EEDFBE;stroke-width:6;stroke-linecap:round;stroke-linejoin:round;}
	.st25{fill:none;stroke:#AF8A6D;stroke-width:13.1913;stroke-linecap:round;stroke-miterlimit:10;}
	.st26{fill:none;stroke:#EEDFBE;stroke-width:13.1913;stroke-linecap:round;stroke-miterlimit:10;}
	.st27{fill:none;stroke:#7B5744;stroke-width:13.1913;stroke-linecap:round;stroke-miterlimit:10;}
	.st28{fill:none;stroke:#7B5744;stroke-width:13.2334;stroke-linecap:round;stroke-miterlimit:10;}
	.st29{fill:#BD8A6D;}
	.st30{fill:#F2DEBA;}
	.st31{fill:#885441;}
	.st32{fill:none;stroke:#AF8A6D;stroke-width:4.0495;stroke-linecap:round;stroke-miterlimit:10;}
	.st33{fill:none;stroke:#EEDFBE;stroke-width:4.0495;stroke-linecap:round;stroke-miterlimit:10;}
	.st34{fill:none;stroke:#7B5744;stroke-width:4.0495;stroke-linecap:round;stroke-miterlimit:10;}
	.st35{fill:none;stroke:#A7C349;stroke-width:3;stroke-linecap:round;}
	.st36{fill:none;stroke:#BB474B;stroke-width:3;stroke-linecap:round;}
	.st37{enable-background:new    ;}
</style>
<g id="组_3518" transform="translate(0 -2298)">
	<g>
		<defs>
			<rect id="SVGID_1_" x="534.4" y="-595.4" width="1920" height="4106"/>
		</defs>
		<clipPath id="SVGID_2_">
			<use xlink:href="#SVGID_1_"  style="overflow:visible;"/>
		</clipPath>
		<g id="组_3517" class="st18">
			<g id="组_3516">
			</g>
		</g>
	</g>
</g>
<g class="st37">
	<path class="st15" d="M8.3,13.2c-0.8,0.3-1.7,0.7-2.7,1.1V19c0,0.1-0.4,0.4-0.9,0.4H4.5v-4.6c-0.9,0.3-1.9,0.7-3,1.1
		c-0.1,0.3-0.2,0.4-0.4,0.5l-0.9-1.6c0.9-0.1,2.4-0.5,4.3-0.9v-3.7H2l-0.7,0.6L0,9.5c0.2-0.1,0.6-0.3,0.9-0.4c0.4-1.2,1-2.8,1.5-4.5
		H0.2L0,4.1h2.6c0.4-1.4,0.8-2.8,1-3.8l1.7,0.6C5.2,1.1,5,1.3,4.5,1.3C4.3,2,4,3,3.7,4.1h2.7L7.2,3c0,0,1,0.8,1.6,1.3
		c0,0.2-0.3,0.3-0.5,0.3H3.5C3,6.3,2.5,8.1,2,9.4h2.5V5.9l1.8,0.2C6.3,6.4,6.1,6.6,5.6,6.7v2.8h0.7l0.8-1c0,0,0.9,0.7,1.5,1.3
		C8.5,10,8.3,10.1,8,10.1H5.6v3.4c0.8-0.2,1.7-0.4,2.6-0.7L8.3,13.2z M18,16.6c0,0,1,0.8,1.7,1.4c0,0.2-0.2,0.3-0.5,0.3H7.9
		l-0.1-0.6h5.4v-5.4h-4l-0.2-0.6h7.2l0.9-1.1c0,0,1,0.8,1.7,1.4c-0.1,0.2-0.3,0.3-0.5,0.3h-3.9v5.4H17L18,16.6z M9.1,2.6L8.9,2h7
		l0.8-0.8l1.4,1.2c-0.2,0.2-0.4,0.2-0.9,0.3c-0.7,1.2-1.6,2.4-2.7,3.5c5.9,2.2,5.5,5,4,4.4c-0.8-1.2-2.8-2.9-4.3-4
		c-1.6,1.7-3.6,3.3-5.8,4.6l-0.3-0.3c3-2.1,6.1-5.3,7.7-8.2H9.1z"/>
	<path class="st15" d="M26,8.5c4.1,2,3.2,4.5,2,3.6c-0.3-0.9-1.2-2.1-2-3v9.8c0,0.2-0.5,0.5-0.9,0.5h-0.2V8.8
		c-0.8,2.2-2.1,4.3-3.7,6L21,14.5c1.7-2.4,2.9-5.6,3.5-8.8h-2.9l-0.2-0.6h3.5V0.3l1.9,0.2C26.7,0.8,26.6,1,26,1.1v4h1.1L28,3.9
		c0,0,1,0.8,1.6,1.4c-0.1,0.2-0.3,0.3-0.5,0.3h-3V8.5z M28.6,9.8c1.4-2.1,2.6-5.2,3.1-8.7l1.9,0.4c-0.1,0.2-0.3,0.4-0.7,0.5
		c-0.8,3.3-2.1,6.1-3.9,8L28.6,9.8z M36,12.5c5.4,4.3,4.6,7.9,3.1,6.7c-0.1-0.6-0.4-1.3-0.7-2c-2,0.4-5.1,0.9-8.4,1.4
		c-0.1,0.2-0.3,0.4-0.4,0.5l-0.8-1.7c0,0,0.4-0.1,0.6-0.3c1.6-2.1,3.6-6.7,4.3-9.2l1.9,0.8c-0.1,0.2-0.4,0.4-0.8,0.4
		c-1,2.4-3,6-4.9,8.3c1.8-0.1,5-0.4,8.4-0.7c-0.7-1.5-1.8-3-2.6-4.2L36,12.5z M37.3,0.9c-0.2,0.2-0.4,0.5-0.7,0.8
		c0.7,2.8,2,5.7,4.2,7.1L40.7,9c-0.4,0.1-0.8,0.4-1,0.8c-2.2-2.1-3.3-5.2-3.9-9.4L36,0.3L37.3,0.9z"/>
	<path class="st15" d="M49.4,1.1c-0.1,0.2-0.3,0.3-0.8,0.2c6.1,3.1,5.6,6.4,4,5.5C52,5.2,50,3.1,48.4,1.7c-0.9,1.6-2.2,3.4-3.8,5.1
		l1.2,0.5h4.5l0.7-0.7l1.4,1.1c-0.1,0.2-0.4,0.3-0.8,0.3c0,3.3-0.1,4.9-0.7,5.5c-0.4,0.4-1,0.5-1.6,0.5c0-0.3-0.1-0.6-0.3-0.8
		S48,13,47.4,12.9l0-0.4c0.7,0,1.8,0.1,2.2,0.1c0.3,0,0.4,0,0.6-0.2c0.3-0.3,0.3-1.7,0.3-4.5h-4.9v8.9c0,0.4,0.1,0.6,1.1,0.6h2.5
		c1.2,0,2.1,0,2.4-0.1c0.3,0,0.4-0.1,0.4-0.3c0.1-0.4,0.4-1.8,0.6-3.3h0.3l0.1,3.5c0.5,0.1,0.6,0.3,0.6,0.5c0,0.6-0.7,0.8-4.4,0.8
		h-2.7c-1.7,0-2.1-0.3-2.1-1.4V7c-0.7,0.7-1.4,1.4-2.2,2l-0.3-0.2c2.5-2.3,4.7-5.9,5.7-8.5L49.4,1.1z M56.8,3.1
		c0,0.3-0.2,0.5-0.8,0.5v10.4c0,0.1-0.5,0.4-0.9,0.4h-0.2V2.9L56.8,3.1z M60.9,0.4C60.9,0.8,60.7,1,60.2,1v16.5c0,1-0.2,1.6-1.9,1.8
		c-0.1-0.4-0.2-0.7-0.4-0.9c-0.3-0.2-0.8-0.4-1.7-0.5v-0.4c0,0,2,0.2,2.4,0.2c0.4,0,0.5-0.1,0.5-0.4V0.2L60.9,0.4z"/>
	<path class="st15" d="M80.5,4.5c0,0,1.1,0.8,1.8,1.5c-0.1,0.2-0.3,0.3-0.5,0.3h-18l-0.2-0.6h11.2c0.5-0.8,1-2,1.3-2.9l1.9,0.7
		c-0.1,0.2-0.4,0.4-0.8,0.3c-0.5,0.5-1.2,1.3-1.8,1.8h4.3L80.5,4.5z M66.4,14.3c0.3,2.2-0.8,3.6-1.5,4.1c-0.5,0.3-1.1,0.4-1.3,0.1
		c-0.2-0.3,0.1-0.7,0.4-0.9c0.9-0.5,2-1.8,2.1-3.3L66.4,14.3z M65.1,2.2H73c-0.4-0.7-1.4-1.5-2.2-2L71,0c2.8,0.3,3.3,1.7,2.8,2.2
		h4.3L79,1c0,0,1.1,0.8,1.8,1.4c-0.1,0.2-0.3,0.3-0.5,0.3h-15L65.1,2.2z M67.9,13.1v0.4c0,0.1-0.5,0.4-0.9,0.4h-0.2V7.1L68,7.6h9.4
		l0.7-0.7l1.5,1.2c-0.1,0.2-0.5,0.3-0.9,0.4v4.8c0,0.1-0.6,0.4-0.9,0.4h-0.2v-0.7H67.9z M67.9,8.3V10h9.7V8.3H67.9z M77.7,12.4v-1.8
		h-9.7v1.8H77.7z M68.7,2.9C72,4,70.9,6.3,69.8,5.4C69.7,4.6,69,3.6,68.5,3L68.7,2.9z M77.8,17.7c0.4,0.1,0.6,0.3,0.6,0.5
		c0,0.6-0.6,0.7-4.7,0.7h-3c-1.8,0-2.1-0.2-2.1-1.2v-3.6l1.7,0.2c0,0.2-0.2,0.4-0.6,0.5v2.7c0,0.3,0.1,0.4,1.1,0.4h2.9
		c1.4,0,2.5,0,2.8,0c0.3,0,0.4-0.1,0.5-0.3c0.1-0.3,0.4-1.2,0.5-2.2h0.3L77.8,17.7z M71.9,13.5c3.8,1.3,3.1,3.9,2,3.1
		c-0.2-1-1.3-2.3-2.2-2.9L71.9,13.5z M78.6,14.2C83,16,82.2,18.8,81,18c-0.3-1.2-1.5-2.7-2.6-3.6L78.6,14.2z"/>
	<path class="st15" d="M84.7,21.3c1.6-0.9,2-2.1,2.1-3c-0.9-0.3-1.8-0.6-1.8-1.6c0-0.6,0.4-1.2,1.3-1.2c1,0,1.5,0.8,1.5,1.9
		c0,1.4-0.6,3.4-2.8,4.5L84.7,21.3z"/>
	<path class="st15" d="M112.8,12.2c-0.2,0.2-0.3,0.3-0.8,0.1c-1.2,0.8-3.4,1.8-5.2,2.6c1.8,1.6,4.3,2.6,7.2,3.2l0,0.2
		c-0.6,0.1-1,0.4-1.2,1c-4.8-1.3-7.9-3.8-9.3-8.4h-3.8v6.8c1.5-0.4,3.6-1.1,5.7-1.8l0.1,0.3c-1.4,0.6-3.9,1.8-6.6,2.9
		c-0.1,0.2-0.3,0.3-0.4,0.4l-0.6-1.3c0.6-0.3,0.7-0.4,0.7-0.8V2.4l1.4,0.7h9.2l0.7-0.8l1.5,1.2c-0.1,0.2-0.5,0.4-0.9,0.4v7.2
		c0,0.1-0.6,0.4-1,0.4h-0.2v-0.7h-5.4c0.6,1.4,1.4,2.6,2.5,3.7c1.7-1,3.8-2.5,4.9-3.5L112.8,12.2z M109.3,6.7v-3h-9.6v3H109.3z
		 M99.6,10.3h9.6v-3h-9.6V10.3z M103.1,0.1c3.4,1.3,2.4,3.5,1.3,2.7c-0.2-0.8-1-1.9-1.6-2.5L103.1,0.1z"/>
	<path class="st15" d="M124.2,5.5c-0.2,0.2-0.4,0.2-0.8,0.3c-0.3,2.9-0.8,5.6-2.1,8c3.6,2.5,2.9,4.2,1.8,3.6
		c-0.5-0.8-1.4-1.7-2.4-2.6c-1.1,1.8-2.7,3.3-5,4.4l-0.2-0.3c2-1.3,3.5-2.9,4.5-4.8c-1.1-0.9-2.4-1.8-3.4-2.5
		c0.5-1.4,1.2-3.8,1.8-6.1h-2.5L115.7,5h2.8c0.5-1.9,0.9-3.7,1.1-4.9l1.9,0.4c-0.1,0.3-0.2,0.5-0.8,0.5c-0.2,1.1-0.6,2.5-1,4h2.3
		l0.7-0.8L124.2,5.5z M119.5,5.7c-0.6,2.1-1.3,4.4-1.9,6.2c1.1,0.5,2,1,2.8,1.5c1-2.3,1.5-4.9,1.7-7.6H119.5z M133.6,8.3
		c0,0,1,0.8,1.6,1.4c-0.1,0.2-0.3,0.3-0.5,0.3h-5v7.6c0,1-0.2,1.7-2,1.8c-0.1-0.4-0.2-0.7-0.5-0.8c-0.3-0.2-0.9-0.4-1.8-0.5v-0.4
		c0,0,2.3,0.2,2.7,0.2s0.5-0.1,0.5-0.4V10h-5l-0.2-0.6h5.1V5.9l0.8,0.1c0.9-0.9,1.9-2.3,2.6-3.2h-7.6l-0.2-0.6h8l0.9-0.8l1.4,1.4
		c-0.2,0.1-0.4,0.2-0.9,0.2c-0.9,0.8-2.4,2.2-3.7,3.1l0.5,0.1c0,0.3-0.2,0.5-0.7,0.5v2.7h3.1L133.6,8.3z"/>
	<path class="st15" d="M144.2,13.7c-0.9,0.8-2.4,2.3-4.1,3.8c-0.1,0.4-0.4,0.6-0.5,0.7l-0.8-1.5c0.6-0.3,0.7-0.4,0.7-0.8V6.5H137
		l-0.2-0.6h2.8l0.6-0.6l1.2,1c-0.1,0.1-0.4,0.3-0.8,0.4v9.1c1-0.7,2.2-1.5,3.4-2.4L144.2,13.7z M138.3,0.3c4.6,2.1,3.9,4.8,2.6,4
		c-0.4-1.2-1.8-2.9-2.9-3.8L138.3,0.3z M154.4,10c-0.1,0.2-0.4,0.2-0.9,0.3c-0.9,2.1-2.2,3.8-4,5.3c1.8,1.2,4.1,2,6.7,2.5l0,0.2
		c-0.5,0.1-0.9,0.4-1.1,1c-2.6-0.7-4.8-1.6-6.5-3.1c-1.9,1.4-4.3,2.5-7.4,3.2l-0.2-0.4c2.8-0.8,5-1.9,6.9-3.4
		c-1.5-1.4-2.6-3.2-3.3-5.5h-1.2l-0.2-0.6h8.9l0.8-0.7L154.4,10z M146.5,3.3c0,1.9-0.4,4.5-4.2,6.1l-0.2-0.3
		c2.8-1.7,3.3-3.8,3.3-5.8V0.9l1.3,0.7h4.1l0.7-0.7l1.4,1.2c-0.1,0.1-0.4,0.3-0.8,0.3v4.5c0,0.3,0,0.3,0.5,0.3h1c0.4,0,0.8,0,0.9,0
		h0.3c0.1,0,0.3,0,0.3-0.1h0.2l0.1,0c0.4,0.1,0.5,0.2,0.5,0.5c0,0.5-0.4,0.7-2.5,0.7h-1.2c-1.1,0-1.3-0.3-1.3-1.1V2.2h-4.5V3.3z
		 M145.2,10.1c0.8,2,2,3.7,3.6,4.9c1.5-1.4,2.7-3,3.4-4.9H145.2z"/>
	<path class="st15" d="M166.2,14.1c-0.9,0.7-2.6,2-4.4,3.4c-0.1,0.4-0.4,0.5-0.5,0.6l-0.8-1.5c0.6-0.3,0.7-0.4,0.7-0.8V6.5H158
		l-0.2-0.6h3.4l0.6-0.6l1.3,1c-0.1,0.1-0.4,0.3-0.8,0.4v9.2c1-0.6,2.4-1.3,3.7-2.1L166.2,14.1z M160.2,0.3c4.7,2.2,3.9,5.1,2.6,4.2
		c-0.4-1.3-1.8-3-2.9-4.1L160.2,0.3z M175.3,6.6c0,0,1,0.8,1.7,1.4c-0.1,0.2-0.3,0.3-0.5,0.3H171v10.5c0,0.2-0.5,0.5-0.9,0.5h-0.2
		v-11h-5.6l-0.2-0.6h5.7V0.3l1.9,0.2c0,0.3-0.2,0.5-0.7,0.6v6.6h3.4L175.3,6.6z"/>
	<path class="st15" d="M178.5,16.5c0-1.6,1.3-2.9,2.9-2.9c1.6,0,2.9,1.3,2.9,2.9c0,1.6-1.3,2.9-2.9,2.9
		C179.9,19.5,178.5,18.2,178.5,16.5z M179.2,16.5c0,1.2,1,2.3,2.3,2.3c1.2,0,2.2-1,2.2-2.3c0-1.2-1-2.2-2.2-2.2
		C180.2,14.3,179.2,15.3,179.2,16.5z"/>
	<path class="st15" d="M201.7,13.7l-0.1,3.3c-1.4,0.8-2.9,1.1-4.5,1.1c-4.5,0-7.6-3.2-7.6-7.9c0-4.7,3.2-8,7.6-8
		c1.5,0,2.9,0.3,4.3,1.1l0.1,3.3h-1L200,3.7c-0.9-0.5-1.7-0.7-2.7-0.7c-3.5,0-6,2.6-6,7.1c0,4.5,2.4,7.1,5.9,7.1c1,0,2-0.2,3-0.7
		l0.5-2.9H201.7z"/>
	<path class="st15" d="M203.9,12.4c0-3.8,2.5-5.7,5.1-5.7c2.5,0,5.1,1.9,5.1,5.7c0,3.8-2.6,5.6-5.1,5.6
		C206.4,18.1,203.9,16.3,203.9,12.4z M212.5,12.4c0-3.1-1.4-5-3.5-5c-2.2,0-3.5,1.8-3.5,5c0,3.2,1.3,4.9,3.5,4.9
		C211.2,17.3,212.5,15.6,212.5,12.4z"/>
	<path class="st15" d="M228.1,17.2v0.6h-5v-0.6l1.8-0.2c0-1.2,0-2.8,0-3.9v-2.2c0-2.2-0.7-2.9-2-2.9c-1,0-2.2,0.4-3.6,1.8V13
		c0,1.1,0,2.8,0,3.9l1.7,0.2v0.6h-5v-0.6l1.8-0.2c0-1.2,0-2.8,0-3.9v-1.1c0-1.4,0-2.4-0.1-3.4L216,8.3V7.7l2.9-0.9l0.3,0.2l0.1,2
		c1.3-1.4,2.9-2.2,4.3-2.2c1.8,0,2.8,1.1,2.8,4V13c0,1.1,0,2.8,0,3.9L228.1,17.2z"/>
	<path class="st15" d="M239.1,15.6c-0.7,1.6-2.1,2.5-4.1,2.5c-3,0-5.1-2.2-5.1-5.6c0-3.6,2.5-5.7,5.2-5.7c1.9,0,3.4,1.1,3.9,2.7
		c-0.1,0.5-0.4,0.7-0.8,0.7c-0.6,0-0.8-0.3-1-0.8l-0.5-1.5c-0.5-0.2-1-0.3-1.5-0.3c-2.2,0-3.8,1.8-3.8,4.8c0,3,1.7,4.7,3.9,4.7
		c1.3,0,2.5-0.6,3.3-1.7L239.1,15.6z"/>
	<path class="st15" d="M242.6,12.3c0,3.3,1.7,4.7,3.9,4.7c1.5,0,2.5-0.6,3.3-1.6l0.4,0.3c-0.8,1.4-2.3,2.3-4.1,2.3
		c-2.9,0-5.1-2-5.1-5.6c0-3.5,2.4-5.7,5.1-5.7c2.5,0,4.2,1.7,4.2,4.3c0,0.5,0,0.9-0.1,1.3H242.6z M247.9,11.6c0.8,0,1-0.4,1-1.1
		c0-1.6-1.1-3-2.9-3c-1.7,0-3.3,1.5-3.5,4.1L247.9,11.6z"/>
	<path class="st15" d="M262.5,17.1c-0.5,0.7-1,1-1.7,1c-1.1,0-1.7-0.7-1.8-2c-1.3,1.4-2.2,2-3.6,2c-1.6,0-2.9-0.9-2.9-2.8
		c0-1.4,0.9-2.5,3.6-3.4c0.9-0.3,1.9-0.6,2.9-0.8v-0.7c0-2.4-0.7-2.9-2.4-2.9c-0.5,0-1.1,0.1-1.7,0.3l-0.4,1.5
		c-0.1,0.6-0.4,0.8-0.9,0.8c-0.5,0-0.8-0.3-0.8-0.7c0.4-1.7,2-2.7,4.2-2.7c2.3,0,3.4,1,3.4,3.7v5c0,1.3,0.3,1.7,1,1.7
		c0.3,0,0.6-0.2,0.9-0.5L262.5,17.1z M258.9,11.8c-0.9,0.2-1.9,0.5-2.6,0.8c-2,0.8-2.5,1.7-2.5,2.6c0,1.3,0.8,1.9,2,1.9
		c1,0,1.7-0.4,3-1.6V11.8z"/>
	<path class="st15" d="M268.9,17.2v0.6h-5.5v-0.6l2-0.2c0-1.2,0-2.7,0-3.9V2.4l-1.9-0.1V1.6l3.1-0.7l0.3,0.2l-0.1,3.2V13
		c0,1.2,0,2.7,0,3.9L268.9,17.2z"/>
	<path class="st15" d="M272.2,12.3c0,3.3,1.7,4.7,3.9,4.7c1.5,0,2.5-0.6,3.3-1.6l0.4,0.3c-0.8,1.4-2.3,2.3-4.1,2.3
		c-2.9,0-5.1-2-5.1-5.6c0-3.5,2.4-5.7,5.1-5.7c2.5,0,4.2,1.7,4.2,4.3c0,0.5,0,0.9-0.1,1.3H272.2z M277.5,11.6c0.8,0,1-0.4,1-1.1
		c0-1.6-1.1-3-2.9-3c-1.7,0-3.3,1.5-3.5,4.1L277.5,11.6z"/>
	<path class="st15" d="M293.5,17.2v0.6l-3.4,0.2l-0.1-1.6c-0.9,1.1-2,1.7-3.4,1.7c-2.7,0-4.6-2.3-4.6-5.5c0-3.5,2-5.8,4.8-5.8
		c1,0,2.1,0.4,3.1,1.6v-6l-2-0.1V1.6l3.1-0.7l0.3,0.2l-0.1,3.2V17L293.5,17.2z M290,9.1c-1-1-1.9-1.4-2.9-1.4
		c-1.9,0-3.5,1.4-3.5,4.8c0,3.1,1.5,4.6,3.5,4.6c1.1,0,2-0.4,3-1.6V9.1z"/>
	<path class="st15" d="M305.8,9.3c3.1,1.2,4.2,2.5,4.2,4.6c0,2.6-2.2,4.2-5.2,4.2c-1.7,0-3.4-0.6-4.3-1.2l0.1-3.1h0.9l0.4,2.8
		c0.9,0.5,1.7,0.7,2.8,0.7c2.3,0,3.9-1,3.9-3.1c0-1.6-0.8-2.3-3.2-3.3l-0.9-0.3c-2.4-0.9-3.8-2.2-3.8-4.4c0-2.6,2.2-4,4.8-4
		c1.6,0,2.7,0.5,3.7,1.2l-0.1,2.9h-0.9l-0.4-2.6c-0.7-0.4-1.4-0.6-2.2-0.6c-2,0-3.4,0.9-3.4,2.8c0,1.6,1,2.5,2.7,3.2L305.8,9.3z"/>
	<path class="st15" d="M318,17.1c-0.5,0.6-1.4,0.9-2.4,0.9c-1.6,0-2.5-0.9-2.4-2.7c0-0.5,0-0.9,0-1.7V7.9h-2.1V7.2l2.2-0.2l0.4-3.2
		h1l-0.1,3.2h3.1v0.9h-3.2v7.4c0,1.3,0.5,1.9,1.4,1.9c0.6,0,1-0.2,1.6-0.6L318,17.1z"/>
	<path class="st15" d="M330.8,17.2v0.6l-2.9,0.2l-0.1-2.1c-1.1,1.4-2.5,2.2-4.1,2.2c-1.9,0-3-1.1-3-4.2l0.1-5.9L319,7.8V7.2l3-0.3
		l0.2,0.3l-0.1,3.2v3.5c0,2.3,0.7,3.1,2.1,3.1c1.2,0,2.4-0.6,3.5-1.8l0-7L326,7.8V7.2l2.9-0.3l0.2,0.3l-0.1,3.2v6.6L330.8,17.2z"/>
	<path class="st15" d="M344,17.2v0.6l-3.4,0.2l-0.1-1.6c-0.9,1.1-2,1.7-3.4,1.7c-2.7,0-4.6-2.3-4.6-5.5c0-3.5,2-5.8,4.8-5.8
		c1,0,2.1,0.4,3.1,1.6v-6l-2-0.1V1.6l3.1-0.7l0.3,0.2L342,4.3V17L344,17.2z M340.6,9.1c-1.1-1-1.9-1.4-2.9-1.4
		c-1.9,0-3.5,1.4-3.5,4.8c0,3.1,1.5,4.6,3.5,4.6c1.1,0,2-0.4,3-1.6V9.1z"/>
	<path class="st15" d="M350.4,17.2v0.6h-5v-0.6l1.9-0.2c0-1.2,0-2.8,0-3.9v-1.2c0-1.3,0-2.3-0.1-3.4l-2-0.1V7.7l3.1-0.9l0.3,0.2
		l0,2.9V13c0,1.1,0,2.8,0,3.9L350.4,17.2z M346.7,2.6c0-0.7,0.5-1.2,1.2-1.2s1.2,0.4,1.2,1.2c0,0.7-0.5,1.1-1.2,1.1
		S346.7,3.3,346.7,2.6z"/>
	<path class="st15" d="M352.4,12.4c0-3.8,2.5-5.7,5.1-5.7s5.1,1.9,5.1,5.7c0,3.8-2.6,5.6-5.1,5.6C354.9,18.1,352.4,16.3,352.4,12.4z
		 M361,12.4c0-3.1-1.4-5-3.5-5c-2.2,0-3.5,1.8-3.5,5c0,3.2,1.3,4.9,3.5,4.9C359.7,17.3,361,15.6,361,12.4z"/>
	<path class="st15" d="M378.5,16.5c0-0.7,0.5-1.2,1.2-1.2s1.2,0.5,1.2,1.2c0,0.7-0.5,1.2-1.2,1.2S378.5,17.2,378.5,16.5z M380.8,2.8
		c0,1.2-0.1,3.1-0.5,6.9l-0.3,3.5h-0.6l-0.3-3.5c-0.3-3.8-0.5-5.7-0.5-6.8c0-0.9,0.4-1.3,1-1.3S380.8,1.8,380.8,2.8z"/>
	<path class="st15" d="M388.1,4.5c-0.1,0.6-0.4,0.8-0.9,0.8c-0.3,0-0.6-0.1-0.7-0.5c0.3-2.1,2.1-3.1,4-3.1c2.5,0,4,1.2,4,3.4
		c0,1.6-0.7,2.7-2.6,4.2c-1.4,1.1-1.8,1.5-1.8,2.4v1.3h-0.6c-0.1-0.8-0.2-1.4-0.2-1.9c0-0.9,0.4-1.3,1.8-2.6
		c1.5-1.4,1.9-2.1,1.9-3.4c0-1.8-1.1-2.7-2.9-2.7c-0.6,0-1.1,0.1-1.6,0.3L388.1,4.5z M391.1,16.6c0,0.7-0.5,1.2-1.2,1.2
		c-0.8,0-1.2-0.6-1.2-1.2c0-0.7,0.5-1.2,1.2-1.2C390.6,15.4,391.1,15.9,391.1,16.6z"/>
</g>
</svg>
