<?xml version="1.0" encoding="utf-8"?>
<!-- Generator: Adobe Illustrator 24.3.0, SVG Export Plug-In . SVG Version: 6.00 Build 0)  -->
<svg version="1.1" id="图层_1" xmlns="http://www.w3.org/2000/svg" xmlns:xlink="http://www.w3.org/1999/xlink" x="0px" y="0px"
	 viewBox="0 0 383.5 21.1" style="enable-background:new 0 0 383.5 21.1;" xml:space="preserve">
<style type="text/css">
	.st0{fill:none;stroke:#AF8A6D;stroke-width:7.0866;stroke-miterlimit:10;}
	.st1{fill:none;stroke:#7B5744;stroke-width:5.6693;stroke-miterlimit:10;}
	.st2{fill:none;stroke:#EEDFBE;stroke-width:8.5039;stroke-miterlimit:10;}
	.st3{fill:none;}
	.st4{fill:#BB474B;}
	.st5{fill:#A7C349;}
	.st6{fill:#E0EDF2;stroke:#E0EDF2;stroke-width:0.2835;stroke-miterlimit:10;}
	.st7{fill:#E0EDF2;stroke:#E0EDF2;stroke-width:0.1417;stroke-miterlimit:10;}
	.st8{fill:#E0EDF2;stroke:#E0EDF2;stroke-width:0.4252;stroke-miterlimit:10;}
	.st9{fill:#E0EDF2;stroke:#E0EDF2;stroke-width:0.5669;stroke-miterlimit:10;}
	.st10{fill:#E0EDF2;stroke:#E0EDF2;stroke-width:0.7087;stroke-miterlimit:10;}
	.st11{fill:#E0EDF2;}
	.st12{fill:#7C5543;stroke:#7B5744;stroke-miterlimit:10;}
	.st13{fill:#ECDDBB;stroke:#EEDFBE;stroke-miterlimit:10;}
	.st14{fill:#AF896D;stroke:#AF8A6D;stroke-miterlimit:10;}
	.st15{fill:#7B5744;}
	.st16{fill:#EEDFBE;}
	.st17{fill:#AF8A6D;}
	.st18{clip-path:url(#SVGID_2_);}
	.st19{fill:none;stroke:#AF8A6D;stroke-width:28.346;stroke-linecap:round;stroke-miterlimit:10;}
	.st20{fill:none;stroke:#7B5744;stroke-width:28.346;stroke-linecap:round;stroke-miterlimit:10;}
	.st21{fill:none;stroke:#EEDFBE;stroke-width:28.346;stroke-linecap:round;stroke-miterlimit:10;}
	.st22{clip-path:url(#SVGID_4_);fill:#010000;}
	.st23{fill:#010000;}
	.st24{fill:none;stroke:#EEDFBE;stroke-width:6;stroke-linecap:round;stroke-linejoin:round;}
	.st25{fill:none;stroke:#AF8A6D;stroke-width:13.1913;stroke-linecap:round;stroke-miterlimit:10;}
	.st26{fill:none;stroke:#EEDFBE;stroke-width:13.1913;stroke-linecap:round;stroke-miterlimit:10;}
	.st27{fill:none;stroke:#7B5744;stroke-width:13.1913;stroke-linecap:round;stroke-miterlimit:10;}
	.st28{fill:none;stroke:#7B5744;stroke-width:13.2334;stroke-linecap:round;stroke-miterlimit:10;}
	.st29{fill:#BD8A6D;}
	.st30{fill:#F2DEBA;}
	.st31{fill:#885441;}
	.st32{fill:none;stroke:#AF8A6D;stroke-width:4.0495;stroke-linecap:round;stroke-miterlimit:10;}
	.st33{fill:none;stroke:#EEDFBE;stroke-width:4.0495;stroke-linecap:round;stroke-miterlimit:10;}
	.st34{fill:none;stroke:#7B5744;stroke-width:4.0495;stroke-linecap:round;stroke-miterlimit:10;}
	.st35{fill:none;stroke:#A7C349;stroke-width:3;stroke-linecap:round;}
	.st36{fill:none;stroke:#BB474B;stroke-width:3;stroke-linecap:round;}
	.st37{enable-background:new    ;}
</style>
<g class="st37">
	<path class="st15" d="M13.3,16.7l1.1,3.3h-8v-2.9h2.3v-3.7H7.1c-0.4,0.9-1,1.6-1.6,2v4.9H3.1v-3.9l-1.3,0.3l-0.2,0.5l-1.2-3.3
		l2.7-0.6v-2H2.2l-0.5,0.7L0,10.8l0.5-0.9l1.2-4.6H0.5V2.4h2L3,0l2.4,0.8L5,1L4.6,2.4h1.5L6.4,2l0.9,3.3H3.8L3.6,6l2.3,0.3L5.6,6.5
		l0,2h0.4l0.2-0.4l0.3,1.2L7,8.5c0.5-0.9,1-1.6,1.4-2.3S9,4.9,9.4,4.1H7V1.2h3.5l0.6-1L14,2.1l-0.7,0.9c-0.6,1.7-1.3,3-2.1,4.2
		c0.6,0,1.1,0.2,1.6,0.4s0.9,0.4,1.1,0.6h0.5l-1.6,2.4l0.9,3h-2.1v3.7h1.5L13.3,16.7z M3.6,8.6V6.3L3,8.6H3.6z M12.5,10.6l0.1-0.2
		l-2.2-2.2c-1.1,1.3-2.4,1.9-3.7,2L7,11.4H5.5v1.4l1.5-0.3v-1.9H12.5z"/>
	<path class="st15" d="M27.8,2.1c0.4,1.3,1,2.7,1.6,4.2s1.4,2.9,2.2,4.1h-0.9l-1.3,1.2c-0.2-0.4-0.5-0.9-0.8-1.6l-0.5-1l-0.3,0.4
		c-0.4,1.6-0.7,3-1,4.1c-0.3,1.1-0.8,2-1.4,2.8l2.4-0.1l-0.3-3.9c1,0.6,1.8,1.6,2.4,2.8c0.6,1.3,1,2.5,1.2,3.9l0.5,0.3l-3.3,0.9
		l-0.2-2c-1.5,1-3,1.5-4.5,1.5l-0.4,0.5l-0.8-3.6l1-0.1l1.2-4.9L22.5,13c-0.1-0.4-0.3-0.9-0.5-1.3L21.7,11v9.4H19v-5.5
		c-0.4,0.6-1,1.1-1.6,1.3l1.6-8.8h-1.3V4.6H19V0.2L22,0.7L21.7,1v3.6h0.5l0.2-0.4l0.7,2.4c0.5-2.3,0.8-4.2,1.1-5.8l2.6,1.1l-0.5,0.5
		c-0.2,1.2-0.4,2.3-0.5,3.1s-0.4,1.7-0.7,2.6s-0.7,1.7-1.2,2.3l0.2,0.4c0.2,0.3,0.3,0.5,0.3,0.7l0.3,0l0.9-3.8l2.5,1
		c-0.7-1.5-1.1-3.3-1.1-5.3c0-1,0.1-2.2,0.3-3.5C27.2,0.1,27.4,0.8,27.8,2.1z M22.7,8.1l0.1-0.7h-1.2v1.6c0.1,0,0.3,0.1,0.4,0.2
		c0.2,0.1,0.3,0.2,0.3,0.2C22.5,9.2,22.6,8.8,22.7,8.1z"/>
	<path class="st15" d="M43.5,16.5l-0.4,0.4L42.5,19c-0.1,0.3-0.2,0.6-0.4,0.7C42,19.9,41.7,20,41.3,20h-4c-0.5,0-0.9-0.2-1.2-0.5
		c-0.3-0.3-0.5-0.7-0.5-1.2V8.8l-1.4,0.4l3.7-9.1l3,1.3l-0.4,0.3L40,2.7c1.3,0.3,2.1,0.8,2.6,1.5l0.1,0.1V3.2l2.5,0.5l-0.4,0.4v11
		h-2V4.6l-1.7,1.7l-1.5-2l-1.1,2.3L38.7,7h0.8l0.4-0.8L42.4,7L42,7.7v5c0,0.3-0.1,0.6-0.4,0.9c-0.3,0.3-0.6,0.6-1,0.9
		s-0.7,0.4-1,0.4l-0.4,0.5L39.1,13l-0.6-0.6l0,4.7h1.6l1.2-3.2l0.4,1.8L43.5,16.5z M38.6,11.8h0.8v-2h-0.8V11.8z M48.5,1l-0.4,0.4
		v16c0,0.9-0.3,1.6-1,2c-0.3,0.2-0.7,0.4-0.9,0.5S45.5,20,45.1,20l-0.5,0.3l-0.2-2.4l-1.1-1h2.3V0.5L48.5,1z"/>
	<path class="st15" d="M53.6,14.1c0.6,0.8,0.9,1.6,0.9,2.5c0,0.9-0.4,1.7-1.1,2.4l-0.2,0.5l-1.5-2.1l1.3-1.2L53.6,14.1z M66.2,17.5
		l-2.7,1.6l-0.3-1.2l-0.1,0l-0.1,0.5c-0.1,0.3-0.1,0.6-0.3,0.9c-0.2,0.7-0.6,1-1.1,1h-5.8c-0.3,0-0.6-0.1-0.8-0.3
		c-0.2-0.2-0.4-0.5-0.4-0.8v-4.5l2.9,0.4l-0.8-1.3h-0.5v0.4h-2.6V6.9l2.6,0.7h5.2l0.4-0.7H52V4.9h3.7l-1-1.2h-1.8v-2l4.9,0l-1.6-1.4
		c0.5-0.1,1-0.2,1.3-0.3C57.8,0,58.1,0,58.5,0c0.8,0,1.6,0.2,2.1,0.6l0.5,0l-1.1,1h3.9l0.2-0.4L65,3.6h-2.9L63,4.2
		c-0.2,0-0.4,0.1-0.4,0.1c-0.1,0.1-0.2,0.1-0.3,0.2s-0.2,0.2-0.3,0.3h2.8l0.2-0.3l0.8,2.4h-3.6l2.3,0.7l-0.4,0.9v5.6h-2.6v-0.4h-4.3
		c0.8,0,1.4,0.1,1.9,0.3c0.5,0.2,0.9,0.5,1.2,1l0.5,0.1l-2.1,2l-1.2-2l-0.2,0.3v2.1h2.8l0.9-2.2l0.3,1.8l1.6,0.5l-1-3
		c0.8,0.2,1.5,0.5,2.2,1c0.7,0.5,1.2,1.1,1.5,1.9L66.2,17.5z M56.3,10.2h5.2V9.4h-5.2V10.2z M61.5,12.3v-0.9h-5.2v0.9H61.5z
		 M60.3,3.6h-2.8c0.4,0.2,0.6,0.4,0.8,0.6h0.3L58,4.9h1.6L60.3,3.6z"/>
	<path class="st15" d="M70.5,20.2c0.2-0.3,0.4-0.6,0.5-0.9c-0.4,0-0.8-0.1-1-0.4s-0.4-0.7-0.4-1.1c0-0.4,0.2-0.8,0.5-1.1
		c0.3-0.3,0.7-0.5,1.1-0.5c0.4,0,0.8,0.2,1.1,0.5c0.3,0.3,0.5,0.7,0.5,1.1c0,0.8-0.3,1.5-0.8,2.2c-0.5,0.6-1.3,1-2.3,1.2
		C70.1,20.7,70.4,20.5,70.5,20.2z"/>
	<path class="st15" d="M98.7,14.4c-0.6,0.3-1.2,0.4-1.9,0.4c-0.1,0-0.3,0-0.6,0c1.3,1.2,2.8,2.2,4.3,3.2l-1,0.4l-1.3,1.9
		c-2.2-1-3.9-2.5-5-4.4c-0.3,1.2-0.9,2.1-1.8,2.7s-2,1-3.4,1.2l-0.3,0.5l-1.2-3.4l1-0.3V1.8l3.4,0.7h1.5l-1.8-2.1
		c0.7-0.2,1.3-0.2,1.8-0.2c1.1,0,2,0.3,2.7,0.8h0.6l-1.5,1.5h1.6l0.5-0.9l3,0.9l-0.4,0.8l0,7.6c0.2-0.2,0.3-0.3,0.3-0.4l1.9,2.5
		l-0.5,0C99.9,13.6,99.3,14.1,98.7,14.4z M90.7,5.7h5V4.9h-5V5.7z M90.7,9h5V8.2h-5V9z M93,15.7c-0.7-1.3-1.2-2.7-1.3-4.3h-1v4.7
		L93,15.7z M95.4,14c0.3-0.2,0.7-0.7,1.4-1.2l0.8-0.7h-2v-0.7h-2.5C93.8,12.3,94.5,13.1,95.4,14z"/>
	<path class="st15" d="M116.8,7.9l0.8,3.3h-2.4v6.4c0,0.7-0.3,1.2-1,1.6c-0.6,0.4-1.4,0.7-2.4,0.9l-0.4,0.3v-2.3l-1-1.2h1.7v-5.7
		H110V9.4c-0.3,1.8-0.6,3.3-1,4.7l1.6,1.7l0.5,0.1c-0.2,0.2-0.4,0.4-0.5,0.6s-0.4,0.5-0.7,1c-0.3,0.5-0.6,0.8-0.8,1.1l-1.2-1.4
		c-1.5,1.9-3,3-4.4,3.3c1.1-2.1,2-3.8,2.6-5.1l-2.1-2.8l0.9-4.6L104.3,8l-0.2,0.5L103.6,5l1.6-0.1l0.6-4.5l2.6,0.8l-0.4,0.3
		l-0.5,3.4h0.6l0.4-0.9l2.2,1l-0.5,0.8c-0.1,0.6-0.2,1.4-0.3,2.5h2V6.3h0.4l1.1-2.2h-3.7V1.2h5.2l0.4-0.8l2.4,1.8l-0.5,0.4
		c-0.7,1.5-1.3,2.5-1.7,2.8c-0.6,0.5-1.1,0.9-1.4,1.2l1.1,0.2l-0.4,0.5v1.1l1.5,0L116.8,7.9z M107.4,10.3c0.2-0.8,0.3-1.8,0.5-3
		l-0.8,0.2c-0.1,0.2-0.1,0.5-0.2,0.9c-0.2,0.9-0.4,1.6-0.6,2.2c-0.2,0.6-0.5,1.2-0.8,1.7c0.1,0.1,0.2,0.1,0.4,0.1
		c0.2,0,0.3,0,0.3,0.1c0.3,0,0.5,0.1,0.7,0.1C107,11.9,107.2,11.1,107.4,10.3z"/>
	<path class="st15" d="M135,18.2l-1,0.3l-1.4,1.8l-2.4-2.1c-0.9,0.7-1.9,1.2-3,1.5s-2.3,0.5-3.7,0.6l1.1-1c0.8-0.7,1.4-1.3,1.8-1.7
		c0.5-0.5,0.9-1,1.4-1.5c-0.1-0.2-0.3-0.6-0.5-1.2c-0.2-0.6-0.4-1.2-0.6-1.8c0,1-0.4,2-1.1,3.1c-0.7,1-1.6,1.9-2.5,2.5l-0.3,0.7
		l-2-3l1.1-0.7V9h-1.2V6.1h1.2l0.4-0.8l2.8,0.9l-0.4,0.8c0,0.8,0,1.4,0,1.8c0.4-1.1,0.8-2.2,1-3.3c0.2-1.1,0.4-2.2,0.4-3.6l-2.4,2.1
		l-2.2-4.1c1,0,1.9,0.1,2.5,0.3c0.6,0.2,1.2,0.7,1.6,1.5l0.5,0.1c0-0.5,0-1.1,0-1.9l2.9,0.7h0.9l0.5-0.8l2.9,0.8l-0.4,0.8v3.7h0.9
		l0.2-0.4l0.9,3.3h-2.7l2.4,1.5l-0.7,0.9c-0.2,0.7-0.4,1.4-0.7,2.1c-0.3,0.6-0.6,1.4-1.1,2.3l-0.3,0.7L135,18.2z M131.9,8.2
		c-0.1,0-0.3-0.1-0.7-0.1c-0.4-0.1-0.6-0.2-0.8-0.4c-0.2-0.2-0.3-0.5-0.3-0.8V3.7h-1c-0.1,1.4-0.5,2.6-1.2,3.7
		c-0.7,1.1-1.7,1.6-3.1,1.7l0,1.6c0,1.5,0,2.6,0,3.4l1.9-1c-0.1-0.6-0.2-1-0.3-1.2h-0.8V9.1l5.7,0L131.9,8.2z M130.5,11.9h-2.4
		c0.3,0.3,0.7,0.7,1.1,1.2c0.3,0.3,0.4,0.4,0.5,0.5C129.9,13.1,130.2,12.6,130.5,11.9z"/>
	<path class="st15" d="M138.6,16.2l1.2-0.7V9.3h-1.7V6.5h1.7l0.4-0.8l2.8,0.8l-0.3,0.8v6.5l2.2-1.3c0,1.3-0.4,2.5-1,3.6
		s-1.5,1.8-2.7,2.4l-0.3,0.7L138.6,16.2z M139,0.1c0.8,0.1,1.5,0.2,1.9,0.3c0.5,0.1,0.9,0.3,1.4,0.5s0.8,0.6,1.2,1.1l0.5,0.2
		l-2.4,2.2L139,0.1z M146.3,9.8h-2.9V6.9h2.9V0l3.2,0.4l-0.4,0.4v6.1h1.8l0.3-0.5l0.9,3.3h-3.1v10.6h-2.8V9.8z"/>
	<path class="st15" d="M156.4,19c-0.4-0.4-0.7-0.9-0.7-1.6c0-0.6,0.2-1.1,0.7-1.6c0.4-0.4,1-0.6,1.6-0.6c0.6,0,1.1,0.2,1.6,0.6
		c0.4,0.4,0.6,0.9,0.6,1.6c0,0.6-0.2,1.1-0.6,1.6c-0.4,0.4-0.9,0.6-1.6,0.6C157.4,19.7,156.9,19.5,156.4,19z M158.8,18.3
		c0.2-0.2,0.3-0.5,0.3-0.8s-0.1-0.6-0.3-0.8c-0.2-0.2-0.5-0.3-0.8-0.3c-0.3,0-0.6,0.1-0.8,0.3c-0.2,0.2-0.3,0.5-0.3,0.8
		s0.1,0.6,0.3,0.8c0.2,0.2,0.5,0.3,0.8,0.3C158.3,18.6,158.6,18.5,158.8,18.3z"/>
	<path class="st15" d="M174.8,18.3c-0.9-0.7-1.7-1.7-2.2-3c-0.5-1.3-0.8-2.9-0.8-4.7c0-1.9,0.3-3.5,0.8-4.8s1.2-2.4,2.2-3.1
		c0.9-0.7,2-1.1,3.3-1.1c1.3,0,2.3,0.3,3.1,0.8s1.4,1.2,1.7,2c0.3,0.8,0.5,1.5,0.5,2.1h-3.3c0-0.4-0.2-0.9-0.5-1.2
		c-0.3-0.4-0.9-0.6-1.6-0.6c-0.6,0-1.1,0.3-1.6,0.8c-0.4,0.5-0.8,1.2-1,2.1s-0.4,1.9-0.4,3c0,1,0.1,2,0.4,2.8c0.2,0.9,0.6,1.5,1,2
		s1,0.7,1.6,0.7c0.7,0,1.3-0.2,1.6-0.6c0.3-0.4,0.5-0.8,0.5-1.4h3.3c0,0.7-0.2,1.4-0.5,2.2c-0.3,0.8-0.9,1.5-1.7,2
		c-0.8,0.6-1.9,0.9-3.2,0.9C176.9,19.3,175.8,19,174.8,18.3z"/>
	<path class="st15" d="M186.9,17.5c-0.9-1.2-1.3-2.8-1.3-4.8c0-1.3,0.2-2.4,0.6-3.4c0.4-1,0.9-1.8,1.7-2.4c0.7-0.6,1.6-0.9,2.7-0.9
		c1,0,1.9,0.3,2.6,0.9c0.7,0.6,1.3,1.4,1.7,2.4s0.6,2.2,0.6,3.4c0,2-0.4,3.6-1.3,4.8c-0.9,1.2-2.1,1.8-3.6,1.8
		C189,19.2,187.7,18.6,186.9,17.5z M192.1,15.3c0.4-0.7,0.6-1.6,0.6-2.8c0-1.1-0.2-2-0.6-2.6s-0.9-1-1.6-1c-0.7,0-1.3,0.3-1.7,1
		c-0.4,0.7-0.6,1.6-0.6,2.7c0,1.1,0.2,2,0.6,2.7c0.4,0.7,1,1,1.7,1C191.2,16.4,191.7,16,192.1,15.3z"/>
	<path class="st15" d="M197.4,6.2h2.7V8c0.3-0.6,0.7-1.1,1.1-1.4s1-0.5,1.6-0.5c1,0,1.8,0.4,2.4,1.2c0.6,0.8,0.9,1.9,0.9,3.3v8.4
		h-2.7v-7.6c0-0.9-0.1-1.5-0.3-2c-0.2-0.5-0.7-0.7-1.3-0.7c-0.6,0-1,0.3-1.3,0.9c-0.3,0.6-0.5,1.3-0.5,2.1v7.3h-2.7V6.2z"/>
	<path class="st15" d="M210.3,18.4c-0.7-0.6-1.2-1.4-1.5-2.3c-0.4-1-0.5-2.1-0.5-3.3c0-2.1,0.4-3.8,1.2-5s1.9-1.8,3.4-1.8
		c1.2,0,2.2,0.4,3,1.2c0.8,0.8,1.3,2,1.4,3.4h-2.7c-0.1-1.2-0.7-1.7-1.7-1.7c-0.7,0-1.2,0.3-1.4,1c-0.3,0.7-0.4,1.6-0.4,2.7
		c0,2.5,0.7,3.7,2,3.7c0.4,0,0.8-0.2,1.1-0.6c0.3-0.4,0.5-0.9,0.5-1.4h2.7c-0.2,1.5-0.7,2.7-1.4,3.6c-0.8,0.9-1.8,1.3-3.1,1.3
		C211.8,19.2,211,18.9,210.3,18.4z"/>
	<path class="st15" d="M221.4,18.4c-0.7-0.5-1.3-1.3-1.6-2.3c-0.4-1-0.6-2.1-0.6-3.4c0-2,0.4-3.6,1.2-4.9c0.8-1.2,1.9-1.9,3.4-1.9
		c0.9,0,1.7,0.2,2.4,0.7s1.2,1.1,1.6,2c0.4,0.9,0.6,1.8,0.6,2.9v1.7H222c0,0.8,0.2,1.5,0.5,2.1c0.3,0.6,0.8,0.9,1.6,0.9
		c0.4,0,0.8-0.1,1.1-0.3s0.5-0.6,0.6-1h2.7c-0.3,1.3-0.8,2.3-1.5,3c-0.7,0.8-1.7,1.1-2.9,1.1C223,19.2,222.2,18.9,221.4,18.4z
		 M225.7,11.4c0-0.8-0.2-1.4-0.5-1.9s-0.8-0.7-1.4-0.7c-0.6,0-1.1,0.2-1.4,0.7c-0.3,0.5-0.5,1.1-0.5,1.9H225.7z"/>
	<path class="st15" d="M231.1,18.4c-0.5-0.6-0.7-1.4-0.7-2.2c0-0.6,0.1-1.3,0.4-1.9c0.2-0.6,0.6-1.1,1-1.5c0.6-0.6,1.2-1,1.9-1.3
		c0.7-0.3,1.5-0.5,2.5-0.8c0-0.8-0.1-1.3-0.3-1.6c-0.2-0.3-0.6-0.4-1.2-0.4c-0.5,0-0.8,0.1-1.1,0.4c-0.2,0.3-0.3,0.7-0.4,1.3h-2.6
		c0.1-1.5,0.6-2.5,1.2-3.2c0.7-0.7,1.7-1,2.9-1c1.2,0,2.1,0.3,2.9,0.9c0.8,0.6,1.2,1.5,1.2,2.9v6.7c0,0.2,0.1,0.7,0.2,1.3
		s0.2,1.1,0.3,1.3h-2.5l-0.3-1.5c-0.3,0.5-0.7,0.9-1.3,1.2c-0.6,0.3-1.3,0.5-2,0.5C232.3,19.3,231.6,19,231.1,18.4z M235,16.3
		c0.3-0.3,0.6-0.7,0.8-1.2c0.2-0.5,0.3-1.2,0.3-2c-0.8,0.3-1.5,0.6-2.1,1c-0.6,0.4-0.8,0.9-0.8,1.4c0,0.4,0.1,0.7,0.2,0.9
		c0.1,0.2,0.4,0.3,0.6,0.3C234.4,16.7,234.7,16.6,235,16.3z"/>
	<path class="st15" d="M241.3,1.9h2.9v17.2h-2.9V1.9z"/>
	<path class="st15" d="M248.5,18.4c-0.7-0.5-1.3-1.3-1.6-2.3c-0.4-1-0.6-2.1-0.6-3.4c0-2,0.4-3.6,1.2-4.9c0.8-1.2,1.9-1.9,3.4-1.9
		c0.9,0,1.7,0.2,2.4,0.7s1.2,1.1,1.6,2c0.4,0.9,0.6,1.8,0.6,2.9v1.7H249c0,0.8,0.2,1.5,0.5,2.1c0.3,0.6,0.8,0.9,1.6,0.9
		c0.4,0,0.8-0.1,1.1-0.3s0.5-0.6,0.6-1h2.7c-0.3,1.3-0.8,2.3-1.5,3c-0.7,0.8-1.7,1.1-2.9,1.1C250,19.2,249.2,18.9,248.5,18.4z
		 M252.8,11.4c0-0.8-0.2-1.4-0.5-1.9s-0.8-0.7-1.4-0.7c-0.6,0-1.1,0.2-1.4,0.7c-0.3,0.5-0.5,1.1-0.5,1.9H252.8z"/>
	<path class="st15" d="M258.5,17.5c-0.7-1.2-1-2.8-1-4.9c0-1.2,0.2-2.3,0.5-3.3c0.3-1,0.8-1.8,1.4-2.4c0.6-0.6,1.3-0.9,2.1-0.9
		c1.4-0.1,2.4,0.4,3,1.3V1.9h2.7v17.2h-2.7v-1.4c-0.3,0.6-0.7,1-1.2,1.2c-0.5,0.2-1,0.4-1.7,0.4C260.1,19.3,259.1,18.7,258.5,17.5z
		 M263.7,15.4c0.3-0.8,0.5-1.7,0.5-2.9c0-1-0.2-1.9-0.5-2.6c-0.3-0.7-0.8-1-1.5-1c-0.7,0-1.2,0.3-1.6,0.9s-0.6,1.6-0.6,2.8
		c0,1.2,0.2,2.2,0.5,2.9c0.3,0.7,0.8,1,1.6,1.1C262.9,16.5,263.4,16.1,263.7,15.4z"/>
	<path class="st15" d="M280.1,18.4c-0.8-0.5-1.4-1.1-1.8-1.9c-0.4-0.8-0.7-1.7-0.7-2.8h3.5c0,0.6,0.1,1.1,0.4,1.5
		c0.3,0.4,0.7,0.6,1.3,0.6c0.5,0,1-0.2,1.3-0.5c0.3-0.3,0.5-0.8,0.5-1.3c0-0.4-0.2-0.8-0.6-1.1c-0.4-0.3-1-0.7-1.8-1.2
		c-0.8-0.5-1.5-1-2.1-1.3c-0.5-0.4-1-0.9-1.4-1.4c-0.4-0.6-0.6-1.2-0.6-2c0-1,0.2-1.9,0.7-2.7c0.4-0.8,1.1-1.3,1.9-1.7
		c0.8-0.4,1.7-0.6,2.7-0.6c0.9,0,1.8,0.2,2.5,0.6c0.7,0.4,1.3,1,1.7,1.7c0.4,0.7,0.6,1.5,0.6,2.5h-3.3c0-0.5-0.2-0.8-0.5-1.1
		c-0.3-0.3-0.7-0.4-1.1-0.4c-0.5,0-0.9,0.1-1.2,0.4c-0.3,0.3-0.5,0.7-0.5,1.2c0,0.1,0,0.2,0,0.3c0,0.4,0.3,0.7,0.6,1
		c0.4,0.3,1,0.7,1.8,1.2c0.9,0.5,1.6,1,2.1,1.4c0.5,0.4,1,0.9,1.4,1.5c0.4,0.6,0.6,1.2,0.6,2c0,0.9-0.2,1.7-0.5,2.5
		c-0.4,0.8-0.9,1.4-1.7,1.9c-0.8,0.5-1.9,0.7-3.2,0.7C281.9,19.1,280.9,18.9,280.1,18.4z"/>
	<path class="st15" d="M291.9,18.4c-0.3-0.5-0.4-1.2-0.4-2.1V9.1h-1.1V6.7h1.1V3.2h2.9v3.4h1.6v2.5h-1.6v6.3c0,0.4,0.1,0.8,0.2,1
		c0.2,0.2,0.4,0.3,0.7,0.3h0.6v2.4h-2.4C292.7,19.1,292.2,18.9,291.9,18.4z"/>
	<path class="st15" d="M299.5,18.6c-0.5-0.3-0.9-0.9-1.2-1.5s-0.4-1.5-0.4-2.5V6.2h2.7v7.6c0,0.9,0.1,1.5,0.3,2
		c0.2,0.5,0.7,0.7,1.3,0.7c0.6,0,1-0.3,1.3-0.9c0.3-0.6,0.5-1.3,0.5-2.1V6.2h2.7v13H304v-1.8c-0.3,0.6-0.7,1.1-1.1,1.4
		c-0.5,0.3-1,0.5-1.6,0.5C300.6,19.1,300,18.9,299.5,18.6z"/>
	<path class="st15" d="M309.7,17.5c-0.7-1.2-1-2.8-1-4.9c0-1.2,0.2-2.3,0.5-3.3c0.3-1,0.8-1.8,1.4-2.4c0.6-0.6,1.3-0.9,2.1-0.9
		c1.4-0.1,2.4,0.4,3,1.3V1.9h2.7v17.2h-2.7v-1.4c-0.3,0.6-0.7,1-1.2,1.2s-1,0.4-1.7,0.4C311.4,19.3,310.4,18.7,309.7,17.5z
		 M315,15.4c0.3-0.8,0.5-1.7,0.5-2.9c0-1-0.2-1.9-0.5-2.6s-0.8-1-1.5-1c-0.7,0-1.2,0.3-1.6,0.9c-0.4,0.6-0.6,1.6-0.6,2.8
		c0,1.2,0.2,2.2,0.5,2.9s0.8,1,1.6,1.1C314.1,16.5,314.7,16.1,315,15.4z"/>
	<path class="st15" d="M320.8,4.7c-0.3-0.3-0.5-0.7-0.5-1.2c0-0.5,0.2-0.9,0.5-1.2c0.3-0.3,0.7-0.5,1.2-0.5c0.5,0,0.9,0.2,1.2,0.5
		s0.5,0.7,0.5,1.2c0,0.5-0.2,0.9-0.5,1.2s-0.7,0.5-1.2,0.5C321.5,5.2,321.1,5.1,320.8,4.7z M320.5,6.2h2.9v13h-2.9V6.2z"/>
	<path class="st15" d="M327,17.5c-0.9-1.2-1.3-2.8-1.3-4.8c0-1.3,0.2-2.4,0.6-3.4s0.9-1.8,1.7-2.4s1.6-0.9,2.7-0.9
		c1,0,1.9,0.3,2.6,0.9c0.7,0.6,1.3,1.4,1.7,2.4c0.4,1,0.6,2.2,0.6,3.4c0,2-0.4,3.6-1.3,4.8c-0.9,1.2-2.1,1.8-3.6,1.8
		C329,19.2,327.8,18.6,327,17.5z M332.2,15.3c0.4-0.7,0.6-1.6,0.6-2.8c0-1.1-0.2-2-0.6-2.6c-0.4-0.7-0.9-1-1.6-1
		c-0.7,0-1.3,0.3-1.7,1c-0.4,0.7-0.6,1.6-0.6,2.7c0,1.1,0.2,2,0.6,2.7c0.4,0.7,1,1,1.7,1C331.3,16.4,331.8,16,332.2,15.3z"/>
	<path class="st15" d="M356.9,11.2c-0.2-1.3-0.4-2.7-0.6-4.2c0-0.2-0.1-0.6-0.2-1.3c-0.1-0.7-0.2-1.2-0.2-1.6c0-0.4-0.1-0.8-0.1-1.2
		c0-0.8,0.2-1.4,0.5-1.8c0.3-0.4,0.9-0.6,1.6-0.6c0.8,0,1.3,0.2,1.6,0.6c0.3,0.4,0.5,1,0.5,1.8c0,0.4,0,0.9-0.1,1.5
		c-0.1,0.6-0.2,1.1-0.2,1.6c-0.1,0.4-0.1,0.8-0.1,1c-0.3,1.5-0.5,2.9-0.6,4.2c-0.2,1.3-0.3,2.7-0.3,4.2h-1.3
		C357.2,13.9,357.1,12.5,356.9,11.2z M356.8,18.8c-0.3-0.3-0.5-0.7-0.5-1.1c0-0.4,0.2-0.8,0.5-1.1c0.3-0.3,0.7-0.5,1.1-0.5
		c0.4,0,0.8,0.2,1.1,0.5c0.3,0.3,0.5,0.7,0.5,1.1c0,0.4-0.2,0.8-0.5,1.1c-0.3,0.3-0.7,0.5-1.1,0.5S357.1,19.1,356.8,18.8z"/>
	<path class="st15" d="M377.2,12.3c0.2-0.9,0.5-1.6,1.1-2.2c0.6-0.7,1.1-1.2,1.4-1.6s0.6-0.9,0.9-1.4s0.4-1.1,0.4-1.6
		c0-0.7-0.2-1.3-0.6-1.8s-1-0.7-1.9-0.7c-0.6,0-1.2,0.1-1.6,0.3c-0.4,0.2-0.7,0.5-1,1.1c-0.2,0.5-0.4,1.3-0.4,2.3h-2.5
		c0-2.1,0.5-3.7,1.4-4.6c1-0.9,2.3-1.4,4-1.4c1.6,0,2.8,0.4,3.7,1.2c0.9,0.8,1.4,2,1.4,3.5c0,0.7-0.2,1.4-0.5,2
		c-0.3,0.7-0.7,1.2-1,1.6s-0.9,1-1.6,1.8c-0.3,0.4-0.6,0.8-0.8,1.2c-0.2,0.4-0.3,0.9-0.3,1.4s-0.1,1.1-0.1,1.9h-2.4
		C376.9,14.2,377,13.1,377.2,12.3z M377,18.8c-0.3-0.3-0.5-0.7-0.5-1.1c0-0.4,0.2-0.8,0.5-1.1c0.3-0.3,0.7-0.5,1.1-0.5
		c0.4,0,0.8,0.2,1.1,0.5c0.3,0.3,0.5,0.7,0.5,1.1c0,0.4-0.2,0.8-0.5,1.1c-0.3,0.3-0.7,0.5-1.1,0.5C377.7,19.3,377.3,19.1,377,18.8z"
		/>
</g>
</svg>
