<?xml version="1.0" encoding="utf-8"?>
<!-- Generator: Adobe Illustrator 24.3.0, SVG Export Plug-In . SVG Version: 6.00 Build 0)  -->
<svg version="1.1" id="图层_1" xmlns="http://www.w3.org/2000/svg" xmlns:xlink="http://www.w3.org/1999/xlink" x="0px" y="0px"
	 viewBox="0 0 400.2 22.4" style="enable-background:new 0 0 400.2 22.4;" xml:space="preserve">
<style type="text/css">
	.st0{fill:none;stroke:#AF8A6D;stroke-width:7.0866;stroke-miterlimit:10;}
	.st1{fill:none;stroke:#7B5744;stroke-width:5.6693;stroke-miterlimit:10;}
	.st2{fill:none;stroke:#EEDFBE;stroke-width:8.5039;stroke-miterlimit:10;}
	.st3{fill:none;}
	.st4{fill:#BB474B;}
	.st5{fill:#A7C349;}
	.st6{fill:#E0EDF2;stroke:#E0EDF2;stroke-width:0.2835;stroke-miterlimit:10;}
	.st7{fill:#E0EDF2;stroke:#E0EDF2;stroke-width:0.1417;stroke-miterlimit:10;}
	.st8{fill:#E0EDF2;stroke:#E0EDF2;stroke-width:0.4252;stroke-miterlimit:10;}
	.st9{fill:#E0EDF2;stroke:#E0EDF2;stroke-width:0.5669;stroke-miterlimit:10;}
	.st10{fill:#E0EDF2;stroke:#E0EDF2;stroke-width:0.7087;stroke-miterlimit:10;}
	.st11{fill:#E0EDF2;}
	.st12{fill:#7C5543;stroke:#7B5744;stroke-miterlimit:10;}
	.st13{fill:#ECDDBB;stroke:#EEDFBE;stroke-miterlimit:10;}
	.st14{fill:#AF896D;stroke:#AF8A6D;stroke-miterlimit:10;}
	.st15{fill:#7B5744;}
	.st16{fill:#EEDFBE;}
	.st17{fill:#AF8A6D;}
	.st18{clip-path:url(#SVGID_2_);}
	.st19{fill:none;stroke:#AF8A6D;stroke-width:28.346;stroke-linecap:round;stroke-miterlimit:10;}
	.st20{fill:none;stroke:#7B5744;stroke-width:28.346;stroke-linecap:round;stroke-miterlimit:10;}
	.st21{fill:none;stroke:#EEDFBE;stroke-width:28.346;stroke-linecap:round;stroke-miterlimit:10;}
	.st22{clip-path:url(#SVGID_4_);fill:#010000;}
	.st23{fill:#010000;}
	.st24{fill:none;stroke:#EEDFBE;stroke-width:6;stroke-linecap:round;stroke-linejoin:round;}
	.st25{fill:none;stroke:#AF8A6D;stroke-width:13.1913;stroke-linecap:round;stroke-miterlimit:10;}
	.st26{fill:none;stroke:#EEDFBE;stroke-width:13.1913;stroke-linecap:round;stroke-miterlimit:10;}
	.st27{fill:none;stroke:#7B5744;stroke-width:13.1913;stroke-linecap:round;stroke-miterlimit:10;}
	.st28{fill:none;stroke:#7B5744;stroke-width:13.2334;stroke-linecap:round;stroke-miterlimit:10;}
	.st29{fill:#BD8A6D;}
	.st30{fill:#F2DEBA;}
	.st31{fill:#885441;}
	.st32{fill:none;stroke:#AF8A6D;stroke-width:4.0495;stroke-linecap:round;stroke-miterlimit:10;}
	.st33{fill:none;stroke:#EEDFBE;stroke-width:4.0495;stroke-linecap:round;stroke-miterlimit:10;}
	.st34{fill:none;stroke:#7B5744;stroke-width:4.0495;stroke-linecap:round;stroke-miterlimit:10;}
	.st35{fill:none;stroke:#A7C349;stroke-width:3;stroke-linecap:round;}
	.st36{fill:none;stroke:#BB474B;stroke-width:3;stroke-linecap:round;}
	.st37{enable-background:new    ;}
</style>
<g id="组_3518" transform="translate(0 -2298)">
	<g>
		<defs>
			<rect id="SVGID_1_" x="532.7" y="-729.7" width="1920" height="4106"/>
		</defs>
		<clipPath id="SVGID_2_">
			<use xlink:href="#SVGID_1_"  style="overflow:visible;"/>
		</clipPath>
		<g id="组_3517" class="st18">
			<g id="组_3516">
				<g id="组_3110">
					<g id="组_3109">
						<g id="组_3108">
							<path id="路径_3419" class="st19" d="M477.2,2237.4l-62.1,61.1c-9.2,9-12.7,22.3-9.3,34.7l13.3,47.7"/>
						</g>
					</g>
				</g>
			</g>
		</g>
	</g>
</g>
<g class="st37">
	<path class="st15" d="M8.8,13.2c-0.7,0.3-1.5,0.7-2.5,1.2v4.8c0,0.1-0.6,0.5-1.5,0.5H4.5v-4.5c-0.8,0.4-1.6,0.7-2.6,1.1
		c-0.1,0.3-0.3,0.4-0.5,0.5l-1.2-2.3c0.9-0.1,2.4-0.4,4.3-0.7v-3.4H2.6l-0.8,0.8L0,9.8c0.2-0.1,0.5-0.3,0.9-0.5
		c0.5-1.2,1-2.9,1.5-4.6H0.3L0.1,4.2h2.4c0.4-1.5,0.8-3,1-3.9L6.1,1C6,1.2,5.7,1.4,5.2,1.4C5,2.2,4.8,3.1,4.5,4.2h1.9l1-1.2
		c0,0,1.2,0.9,1.9,1.5c0,0.2-0.3,0.3-0.5,0.3H4.3C3.7,6.5,3.1,8.3,2.7,9.7h2V5.9l2.4,0.3c0,0.3-0.2,0.5-0.7,0.6v2.9h0.3l0.9-1.2
		c0,0,1,0.8,1.6,1.4c-0.1,0.2-0.3,0.3-0.5,0.3H6.3v3.1c0.8-0.1,1.6-0.3,2.4-0.5L8.8,13.2z M18.1,16.7c0,0,1.3,1,2,1.7
		c-0.1,0.2-0.3,0.3-0.6,0.3H8.2l-0.2-0.6h5v-5.6H9.5l-0.2-0.6h6.6l1.1-1.4c0,0,1.3,1,2,1.7c-0.1,0.2-0.3,0.3-0.6,0.3H15v5.6h2
		L18.1,16.7z M9.3,2.8L9.2,2.2h6.4L16.8,1l2,1.8c-0.2,0.2-0.4,0.3-0.9,0.3c-0.7,1.2-1.5,2.3-2.6,3.4c5.8,1.4,5.2,5,3.1,4.2
		c-0.7-1.2-2.3-2.6-3.7-3.7c-1.7,1.7-3.8,3.2-6.2,4.3l-0.2-0.3c2.9-2.1,5.7-5.4,7.1-8.3H9.3z"/>
	<path class="st15" d="M29.2,10.1c1.2,1.6,0.1,3-1.2,2c-0.2-1-0.8-2.1-1.4-3.1v10c0,0.2-0.8,0.6-1.5,0.6h-0.4v-9.1
		c-0.9,1.7-2,3.2-3.4,4.5l-0.3-0.3c1.6-2.5,2.7-5.8,3.2-9h-2.7l-0.2-0.6h3.3v-5l2.7,0.3c-0.1,0.3-0.2,0.5-0.8,0.6v4.1h0.5l1.1-1.6
		c0,0,1.2,1.1,1.9,1.8c-0.1,0.2-0.3,0.3-0.6,0.3h-3v2.5C27.9,8.9,28.7,9.5,29.2,10.1c1.1-2.4,2-5.7,2.4-9l2.9,0.7
		c-0.1,0.3-0.3,0.4-0.8,0.5c-0.9,3.3-2.3,6.1-4.3,8L29.2,10.1z M36.1,12.5c6.4,3.8,4.7,8.6,2.6,6.7c-0.1-0.7-0.3-1.5-0.7-2.3
		c-1.8,0.5-4.4,1.3-7.4,2c-0.2,0.3-0.4,0.5-0.7,0.6L29.1,17c0,0,0.5-0.1,0.7-0.3c1.4-1.7,3.3-6.2,3.8-8.7l2.8,1.3
		c-0.1,0.2-0.4,0.4-0.8,0.4c-1.1,2.2-3.2,5.3-5.1,7.4c1.7-0.1,4.3-0.3,7.2-0.5c-0.6-1.4-1.3-2.7-2-3.8L36.1,12.5z M37.8,1
		c-0.2,0.3-0.5,0.6-0.9,1c0.8,2.8,2.4,5.2,4.4,6.4l-0.1,0.2c-0.5,0.3-1.1,1.1-1.3,1.8C37.6,8.3,36.5,5.2,36,0.3l0.2-0.1L37.8,1z"/>
	<path class="st15" d="M53.2,16.8c0.6,0.2,0.8,0.4,0.8,0.8c0,0.8-0.9,1.2-4.5,1.2H47c-2,0-2.5-0.4-2.5-1.8V7.6
		c-0.7,0.7-1.5,1.3-2.3,1.8L42,9.1c2.5-2.5,4.4-6.3,5.3-9l2.6,1.2c-0.1,0.2-0.3,0.4-0.8,0.3v0c6.4,2.2,5.1,6.4,3,5.1
		c-0.5-1.5-2-3.3-3.3-4.6c-0.8,1.5-2,3.1-3.4,4.6l1.3,0.5h3.4l1-1l1.8,1.5c-0.1,0.2-0.4,0.3-0.8,0.3c0,3.7-0.1,5.1-0.8,5.7
		c-0.5,0.4-1.1,0.6-2,0.6c0-0.5,0-0.9-0.3-1.2c-0.3-0.2-0.8-0.4-1.4-0.5l0-0.3c0.5,0,1.5,0.1,1.8,0.1c0.3,0,0.4,0,0.5-0.2
		c0.3-0.3,0.3-1.6,0.3-4.4h-3.9v8.7c0,0.4,0.1,0.5,1,0.5h2.1c0.9,0,1.7,0,2,0c0.3,0,0.4-0.1,0.5-0.3c0.2-0.4,0.5-1.6,0.9-3h0.3
		L53.2,16.8z M56.7,14.2c0,0.2-0.8,0.6-1.5,0.6h-0.3V2.8L57.4,3c0,0.3-0.2,0.5-0.7,0.5V14.2z M61.6,0.5c0,0.3-0.3,0.5-0.8,0.6v16.2
		c0,1.4-0.3,2.2-2.7,2.5c-0.1-0.6-0.2-1.1-0.5-1.4c-0.3-0.3-0.8-0.5-1.8-0.7v-0.3c0,0,2.2,0.2,2.6,0.2c0.4,0,0.5-0.1,0.5-0.4V0.2
		L61.6,0.5z"/>
	<path class="st15" d="M66.7,14.2c0.7,2.4-0.3,4-1.3,4.5c-0.6,0.4-1.4,0.3-1.7-0.3c-0.2-0.6,0.2-1,0.7-1.3c0.8-0.4,1.8-1.5,1.9-2.8
		H66.7z M80.6,4.4c0,0,1.3,1,2.2,1.7c-0.1,0.2-0.3,0.3-0.6,0.3H63.9l-0.2-0.6h11.1c0.3-0.9,0.7-2,0.9-2.9H65.3l-0.2-0.6h7.6
		c-0.3-0.8-1.2-1.7-1.9-2.1L71,0c3.3-0.1,3.8,1.6,3.1,2.3H78l1.2-1.5c0,0,1.3,1,2.2,1.7c-0.1,0.2-0.3,0.3-0.6,0.3h-4.6l2.3,0.7
		c-0.1,0.3-0.3,0.4-0.8,0.4c-0.6,0.5-1.4,1.2-2.2,1.8h4L80.6,4.4z M68.8,13.4c0,0.2-0.9,0.6-1.7,0.6h-0.3V6.9L69,7.7h8.3l1-1.1
		l2.1,1.6c-0.1,0.2-0.4,0.3-0.9,0.4v4.6c0,0.1-1,0.6-1.6,0.6h-0.3v-0.7h-8.6V13.4z M78.1,17.3c0.6,0.2,0.8,0.4,0.8,0.8
		c0,0.8-0.8,1.1-4.9,1.1h-2.8c-2.1,0-2.5-0.3-2.5-1.6v-3.5l2.5,0.2c0,0.3-0.2,0.5-0.6,0.5v2.4c0,0.3,0.1,0.4,0.9,0.4h2.7
		c1.1,0,2,0,2.4,0c0.3,0,0.4-0.1,0.5-0.3c0.2-0.3,0.5-1.1,0.8-2.2H78L78.1,17.3z M68.8,3c4.3,0.6,2.6,3.8,1,2.5
		c-0.1-0.8-0.7-1.8-1.2-2.4L68.8,3z M68.8,8.3v1.8h8.6V8.3H68.8z M77.4,12.5v-1.8h-8.6v1.8H77.4z M72.1,13.5c4.6,0.8,3.3,4.2,1.6,3
		c-0.2-1-1-2.2-1.8-2.9L72.1,13.5z M78.7,14.1c5.4,1.5,3.9,5.3,2.1,4c-0.2-1.3-1.2-2.9-2.3-3.8L78.7,14.1z"/>
	<path class="st15" d="M84.5,21.8c1.7-0.9,2.2-2.1,2.4-3.1c-0.9-0.3-2.2-0.8-2.2-2c0-0.8,0.6-1.5,1.6-1.5c1,0,1.8,0.8,1.8,2.2
		c0,1.8-0.8,4-3.2,5.1L84.5,21.8z"/>
	<path class="st15" d="M113.3,12.6c-0.1,0.2-0.4,0.3-0.8,0.1c-1.3,0.7-3.3,1.5-5.2,2.1c1.9,1.5,4.5,2.4,7.3,2.8l0,0.3
		c-0.9,0.2-1.5,0.8-1.7,1.8c-4.6-1.4-7.6-3.8-9-8.8h-3.4V17c1.4-0.4,3.2-0.8,5-1.3l0.1,0.3c-1.3,0.7-3.7,2-6.4,3.4
		c-0.2,0.2-0.3,0.3-0.5,0.4l-1-2.1c0.7-0.4,0.8-0.5,0.8-1.1V2.2l2.3,1h8l1-1.1l2.1,1.6c-0.1,0.2-0.4,0.3-0.9,0.4V11
		c0,0.2-1,0.6-1.7,0.6h-0.3v-0.8h-4.7c0.6,1.5,1.5,2.7,2.6,3.7c1.5-1,3.3-2.6,4.3-3.5L113.3,12.6z M108.9,6.6V3.8h-8.5v2.9H108.9z
		 M100.5,10.2h8.5V7.3h-8.5V10.2z M103,0.1c4.6,0.7,2.9,4,1.1,2.7c-0.1-0.9-0.8-1.9-1.3-2.6L103,0.1z"/>
	<path class="st15" d="M124.9,5.7c-0.1,0.2-0.4,0.3-0.8,0.3c-0.3,2.8-0.9,5.5-2.1,7.9c4.1,2.6,2.4,4.7,0.9,3.8
		c-0.4-0.7-1.1-1.5-1.9-2.3c-1.2,1.7-2.9,3.1-5.2,4.2l-0.2-0.3c2-1.3,3.4-3,4.4-4.9c-1.1-1-2.4-1.9-3.4-2.5c0.5-1.4,1.2-3.9,1.8-6.2
		H116l-0.2-0.6h2.7c0.5-2,0.9-3.8,1.1-5l2.7,0.5c-0.1,0.2-0.2,0.5-0.8,0.5c-0.2,1-0.5,2.5-0.9,4h1.6l1-1.1L124.9,5.7z M120.2,5.8
		c-0.6,2.2-1.3,4.5-1.9,6.4c0.9,0.3,1.6,0.7,2.3,1c0.9-2.2,1.3-4.7,1.6-7.4H120.2z M133.7,8c0,0,1.3,1,2.1,1.8
		c-0.1,0.2-0.3,0.3-0.6,0.3h-4.8v7.1c0,1.4-0.3,2.3-2.7,2.5c-0.1-0.6-0.2-1.1-0.5-1.4c-0.3-0.3-0.8-0.5-1.8-0.7v-0.3
		c0,0,2.2,0.1,2.6,0.1c0.3,0,0.4-0.1,0.4-0.4v-7h-4.3l-0.2-0.6h4.5V6l1.3,0.1c0.8-1,1.6-2.4,2.1-3.3h-7.5l-0.2-0.6h7.8l1.2-1.1
		l2,1.8c-0.2,0.2-0.4,0.2-0.8,0.2c-1,0.9-2.6,2.2-4,3.1l0.8,0.1c-0.1,0.3-0.3,0.5-0.8,0.5v2.7h2.2L133.7,8z"/>
	<path class="st15" d="M144.8,13.6c-0.8,0.9-2.3,2.5-4.1,4.2c-0.1,0.4-0.4,0.7-0.6,0.9l-1.4-2.2c0.8-0.4,0.9-0.6,0.9-1V6.5h-2.4
		L137,5.9h2.7l0.9-0.9l1.7,1.4c-0.1,0.1-0.4,0.3-0.8,0.4v8.4c1-0.5,2.1-1.2,3.1-1.8L144.8,13.6z M138.2,0.3c5.8,1.2,4.7,5.1,2.6,4
		c-0.5-1.3-1.8-2.9-2.8-3.9L138.2,0.3z M155.1,10.3c-0.1,0.2-0.4,0.3-0.9,0.3c-0.9,2-2.1,3.7-3.7,5.1c1.8,0.9,3.9,1.5,6.2,1.9l0,0.2
		c-0.9,0.2-1.6,0.8-1.8,1.9c-2.3-0.7-4.3-1.6-5.8-2.9c-2,1.3-4.4,2.3-7.5,2.9l-0.1-0.3c2.6-0.8,4.9-2,6.6-3.5
		c-1.3-1.4-2.3-3.3-2.9-5.6h-1.3l-0.2-0.6h8.3l1.2-1.2L155.1,10.3z M147.4,3.3c0,1.9-0.5,4.7-4.7,6.3l-0.2-0.3
		c2.5-1.8,2.9-4.1,2.9-6V0.8l2.2,0.8h3l1-1.1l1.9,1.6c-0.1,0.1-0.4,0.3-0.8,0.3v3.8c0,0.3,0,0.3,0.4,0.3h0.8c0.3,0,0.6,0,0.7,0
		c0.1,0,0.3,0,0.4,0c0.1,0,0.3,0,0.4-0.1h0.2l0.1,0c0.5,0.2,0.7,0.4,0.7,0.8c0,0.7-0.7,1.1-2.8,1.1h-1.2c-1.5,0-1.7-0.4-1.7-1.6V2.3
		h-3.5V3.3z M145.6,10.3c0.8,2,2,3.5,3.5,4.6c1.3-1.3,2.2-2.9,2.8-4.6H145.6z"/>
	<path class="st15" d="M166.7,14c-0.9,0.8-2.5,2.4-4.5,3.9c-0.1,0.4-0.4,0.7-0.6,0.8l-1.4-2.2c0.8-0.5,0.9-0.6,0.9-1V6.6h-3L158,6
		h3.2l0.9-0.9l1.7,1.5c-0.1,0.1-0.4,0.3-0.8,0.4v8.5c1.1-0.5,2.3-1.1,3.5-1.7L166.7,14z M160.1,0.3c5.8,1.3,4.5,5.3,2.5,4.1
		c-0.4-1.3-1.7-2.9-2.7-3.9L160.1,0.3z M175.4,6.3c0,0,1.4,1.1,2.2,1.9c-0.1,0.2-0.3,0.3-0.6,0.3h-5.2v10.4c0,0.3-0.9,0.8-1.6,0.8
		h-0.4V8.5h-5l-0.1-0.6h5.2V0.3l2.8,0.3c-0.1,0.3-0.2,0.5-0.8,0.6v6.7h2.3L175.4,6.3z"/>
	<path class="st15" d="M178.8,16.7c0-1.6,1.3-3,3-3s3,1.3,3,3c0,1.6-1.3,3-3,3S178.8,18.3,178.8,16.7z M179.6,16.7
		c0,1.2,1,2.2,2.2,2.2c1.2,0,2.2-1,2.2-2.2c0-1.2-1-2.2-2.2-2.2C180.6,14.5,179.6,15.5,179.6,16.7z"/>
	<path class="st15" d="M202.3,13.7l0,3.5c-1.4,0.8-2.9,1.2-4.6,1.2c-4.6,0-7.9-3.1-7.9-8.1c0-5,3.5-8.1,8-8.1c1.5,0,2.9,0.3,4.4,1.1
		v3.5h-1.2l-0.7-3.2C199.5,3.2,198.8,3,198,3c-3.1,0-5.6,2.5-5.6,7.2c0,4.8,2.3,7.1,5.5,7.1c0.8,0,1.6-0.1,2.4-0.5l0.7-3.2H202.3z"
		/>
	<path class="st15" d="M204.2,12.4c0-3.8,2.6-5.8,5.5-5.8c2.8,0,5.4,2,5.4,5.8c0,3.8-2.5,5.8-5.4,5.8
		C206.8,18.3,204.2,16.2,204.2,12.4z M212.7,12.4c0-3.3-1.1-5-3-5c-1.9,0-3,1.7-3,5c0,3.3,1.1,5,3,5
		C211.6,17.4,212.7,15.7,212.7,12.4z"/>
	<path class="st15" d="M229.6,17.3v0.7h-5.5v-0.7l1.6-0.2c0-1.2,0-2.8,0-4v-2.4c0-2-0.6-2.6-1.8-2.6c-0.9,0-1.9,0.4-3,1.5v3.5
		c0,1.1,0,2.8,0,4l1.5,0.2v0.7H217v-0.7l1.6-0.2c0-1.2,0.1-2.9,0.1-4v-1.3c0-1.3,0-2.1-0.1-3.1l-1.8-0.2V7.8l3.5-1.2l0.3,0.2
		l0.2,1.9c1.3-1.4,2.7-2.1,4.1-2.1c2,0,3,1.2,3,4.1v2.4c0,1.2,0,2.8,0,4L229.6,17.3z"/>
	<path class="st15" d="M240.9,15.5c-0.8,1.8-2.2,2.8-4.4,2.8c-3.1,0-5.3-2.2-5.3-5.8c0-3.7,2.6-5.9,5.6-5.9c2.1,0,3.8,1.3,4.1,3
		c-0.2,0.6-0.5,0.9-1.1,0.9c-0.7,0-1.2-0.4-1.3-1.3l-0.4-1.6c-0.4-0.1-0.7-0.2-1.1-0.2c-2,0-3.4,1.8-3.4,4.8c0,3,1.6,4.7,3.8,4.7
		c1.3,0,2.4-0.6,3.1-1.6L240.9,15.5z"/>
	<path class="st15" d="M245,12.3c0.1,3.1,1.6,4.6,3.8,4.6c1.5,0,2.4-0.6,3.2-1.6l0.4,0.3c-0.8,1.7-2.4,2.7-4.4,2.7
		c-3.2,0-5.4-2.1-5.4-5.8c0-3.6,2.6-5.9,5.5-5.9c2.7,0,4.4,1.8,4.4,4.5c0,0.5,0,0.9-0.1,1.3H245z M249.2,11.5c1,0,1.2-0.5,1.2-1.4
		c0-1.6-1-2.8-2.4-2.8c-1.4,0-2.7,1.2-2.9,4.1H249.2z"/>
	<path class="st15" d="M265.2,16.9c-0.5,0.9-1.2,1.3-2.1,1.3c-1.2,0-1.9-0.7-2.1-1.8c-1.2,1.2-2,1.9-3.5,1.9c-1.7,0-3-1-3-2.8
		c0-1.6,0.9-2.6,3.9-3.6c0.7-0.2,1.6-0.5,2.5-0.7v-0.9c0-2.2-0.6-2.9-2.2-2.9c-0.4,0-0.8,0-1.2,0.2l-0.4,1.6
		c-0.2,0.9-0.6,1.3-1.3,1.3c-0.6,0-1-0.3-1.1-0.9c0.4-1.8,2.1-2.9,4.6-2.9c2.6,0,3.7,1.1,3.7,4v5.2c0,1,0.3,1.4,0.8,1.4
		c0.4,0,0.6-0.2,1-0.6L265.2,16.9z M260.9,11.8c-0.8,0.2-1.5,0.4-1.9,0.6c-1.8,0.7-2.3,1.7-2.3,2.7c0,1.2,0.7,1.8,1.8,1.8
		c0.8,0,1.3-0.3,2.5-1.2V11.8z"/>
	<path class="st15" d="M271.8,17.3v0.7H266v-0.7l1.8-0.2c0-1.3,0-2.7,0-4V2.6L266,2.4V1.8l3.8-0.9l0.3,0.2l-0.1,3.3v8.8
		c0,1.3,0,2.7,0,4L271.8,17.3z"/>
	<path class="st15" d="M275.8,12.3c0.1,3.1,1.6,4.6,3.8,4.6c1.5,0,2.4-0.6,3.2-1.6l0.4,0.3c-0.8,1.7-2.4,2.7-4.4,2.7
		c-3.2,0-5.4-2.1-5.4-5.8c0-3.6,2.6-5.9,5.5-5.9c2.7,0,4.4,1.8,4.4,4.5c0,0.5,0,0.9-0.1,1.3H275.8z M279.9,11.5c1,0,1.2-0.5,1.2-1.4
		c0-1.6-1-2.8-2.4-2.8c-1.4,0-2.7,1.2-2.9,4.1H279.9z"/>
	<path class="st15" d="M297.2,17.3v0.7l-3.8,0.2l-0.1-1.5c-0.8,1-1.9,1.6-3.3,1.6c-2.8,0-4.8-2.3-4.8-5.8c0-3.7,2.1-5.9,5-5.9
		c1.1,0,2.1,0.4,3,1.5V2.6l-1.9-0.2V1.8l3.8-0.9l0.3,0.2l-0.1,3.3v12.8L297.2,17.3z M293.2,8.8c-0.9-0.8-1.6-1-2.3-1
		c-1.7,0-3.2,1.3-3.2,4.6c0,3.3,1.4,4.6,3.2,4.6c0.9,0,1.6-0.3,2.4-1.1V8.8z"/>
	<path class="st15" d="M309.9,9.1c3.1,1.3,4.3,2.6,4.3,4.8c0,2.7-2.2,4.5-5.6,4.5c-1.7,0-3.4-0.5-4.6-1.2l0.1-3.3h1.2l0.7,3.1
		c0.7,0.4,1.4,0.5,2.4,0.5c2.2,0,3.6-1,3.6-2.8c0-1.5-0.8-2.2-2.8-3l-0.9-0.4c-2.5-1-4-2.4-4-4.7c0-2.7,2.2-4.3,5.3-4.3
		c1.6,0,2.8,0.5,3.9,1.2l-0.1,3.1h-1.2l-0.7-2.9c-0.5-0.3-1.1-0.4-1.8-0.4c-1.9,0-3.2,0.9-3.2,2.6c0,1.5,0.9,2.3,2.5,3L309.9,9.1z"
		/>
	<path class="st15" d="M322.6,16.9c-0.6,0.8-1.5,1.3-2.8,1.3c-1.8,0-2.8-0.9-2.8-2.8c0-0.6,0-1.2,0-2V7.8h-1.9V7.1l2-0.2l0.7-3.2
		h1.5l-0.1,3.3h3v0.9h-3v7.6c0,1.2,0.5,1.7,1.4,1.7c0.5,0,0.9-0.2,1.5-0.7L322.6,16.9z"/>
	<path class="st15" d="M335.7,17.3v0.7l-3.5,0.2L332,16c-1.1,1.4-2.5,2.2-4,2.2c-2,0-3.2-1.1-3.1-4.2l0.1-5.9l-1.6-0.3V7.1l3.7-0.4
		l0.2,0.2l-0.1,3.3V14c0,2,0.7,2.7,1.9,2.7c1.1,0,2.1-0.5,3-1.4l0-7.2l-1.6-0.3V7.1l3.6-0.4l0.2,0.2l-0.1,3.3v6.8L335.7,17.3z"/>
	<path class="st15" d="M349.2,17.3v0.7l-3.8,0.2l-0.1-1.5c-0.8,1-1.9,1.6-3.3,1.6c-2.8,0-4.8-2.3-4.8-5.8c0-3.7,2.1-5.9,5-5.9
		c1.1,0,2.1,0.4,3,1.5V2.6l-1.9-0.2V1.8l3.8-0.9l0.3,0.2l-0.1,3.3v12.8L349.2,17.3z M345.2,8.8c-0.9-0.8-1.6-1-2.3-1
		c-1.7,0-3.2,1.3-3.2,4.6c0,3.3,1.4,4.6,3.2,4.6c0.9,0,1.6-0.3,2.4-1.1V8.8z"/>
	<path class="st15" d="M356,17.3v0.7h-5.5v-0.7l1.6-0.2c0-1.2,0-2.9,0-4v-1.3c0-1.3,0-2.1-0.1-3.1l-1.8-0.2V7.8l3.8-1.2l0.3,0.2
		l0,3.1v3.1c0,1.1,0,2.8,0,4L356,17.3z M351.7,2.6c0-0.9,0.7-1.4,1.6-1.4c0.8,0,1.5,0.6,1.5,1.4S354.1,4,353.3,4
		C352.4,4,351.7,3.4,351.7,2.6z"/>
	<path class="st15" d="M357.7,12.4c0-3.8,2.6-5.8,5.5-5.8c2.8,0,5.4,2,5.4,5.8c0,3.8-2.5,5.8-5.4,5.8
		C360.2,18.3,357.7,16.2,357.7,12.4z M366.1,12.4c0-3.3-1.1-5-3-5c-1.9,0-3,1.7-3,5c0,3.3,1.1,5,3,5C365,17.4,366.1,15.7,366.1,12.4
		z"/>
	<path class="st15" d="M383.9,16.5c0-0.8,0.6-1.5,1.5-1.5c0.9,0,1.5,0.7,1.5,1.5c0,0.8-0.7,1.5-1.5,1.5
		C384.5,18,383.9,17.3,383.9,16.5z M386.9,3.3c0,1.1-0.2,2.9-0.7,6.7l-0.3,3.1h-0.8l-0.3-3.1c-0.5-3.8-0.7-5.6-0.7-6.7
		c0-1.2,0.6-1.7,1.4-1.7S386.9,2.2,386.9,3.3z"/>
	<path class="st15" d="M394,4.7c-0.2,0.8-0.6,1.2-1.3,1.2c-0.4,0-0.8-0.2-1-0.6c0.3-2.4,2.1-3.5,4.3-3.5c2.6,0,4.2,1.3,4.2,3.5
		c0,1.6-0.6,2.7-2.6,4.2c-1.3,1-1.8,1.4-1.8,2.3v1.1h-0.8c-0.2-0.8-0.3-1.3-0.3-1.9c0-0.9,0.4-1.4,1.7-2.6c1.2-1.1,1.6-2,1.6-3.1
		c0-1.6-1-2.5-2.6-2.5c-0.3,0-0.6,0-0.9,0.1L394,4.7z M397,16.5c0,0.8-0.7,1.6-1.6,1.6c-0.9,0-1.6-0.7-1.6-1.6
		c0-0.9,0.7-1.6,1.6-1.6C396.4,14.9,397,15.6,397,16.5z"/>
</g>
</svg>
