<?xml version="1.0" encoding="utf-8"?>
<!-- Generator: Adobe Illustrator 24.3.0, SVG Export Plug-In . SVG Version: 6.00 Build 0)  -->
<svg version="1.1" id="图层_1" xmlns="http://www.w3.org/2000/svg" xmlns:xlink="http://www.w3.org/1999/xlink" x="0px" y="0px"
	 viewBox="0 0 418.2 20.1" style="enable-background:new 0 0 418.2 20.1;" xml:space="preserve">
<style type="text/css">
	.st0{fill:none;stroke:#AF8A6D;stroke-width:7.0866;stroke-miterlimit:10;}
	.st1{fill:none;stroke:#7B5744;stroke-width:5.6693;stroke-miterlimit:10;}
	.st2{fill:none;stroke:#EEDFBE;stroke-width:8.5039;stroke-miterlimit:10;}
	.st3{fill:none;}
	.st4{fill:#BB474B;}
	.st5{fill:#A7C349;}
	.st6{fill:#E0EDF2;stroke:#E0EDF2;stroke-width:0.2835;stroke-miterlimit:10;}
	.st7{fill:#E0EDF2;stroke:#E0EDF2;stroke-width:0.1417;stroke-miterlimit:10;}
	.st8{fill:#E0EDF2;stroke:#E0EDF2;stroke-width:0.4252;stroke-miterlimit:10;}
	.st9{fill:#E0EDF2;stroke:#E0EDF2;stroke-width:0.5669;stroke-miterlimit:10;}
	.st10{fill:#E0EDF2;stroke:#E0EDF2;stroke-width:0.7087;stroke-miterlimit:10;}
	.st11{fill:#E0EDF2;}
	.st12{fill:#7C5543;stroke:#7B5744;stroke-miterlimit:10;}
	.st13{fill:#ECDDBB;stroke:#EEDFBE;stroke-miterlimit:10;}
	.st14{fill:#AF896D;stroke:#AF8A6D;stroke-miterlimit:10;}
	.st15{fill:#7B5744;}
	.st16{fill:#EEDFBE;}
	.st17{fill:#AF8A6D;}
	.st18{clip-path:url(#SVGID_2_);}
	.st19{fill:none;stroke:#AF8A6D;stroke-width:28.346;stroke-linecap:round;stroke-miterlimit:10;}
	.st20{fill:none;stroke:#7B5744;stroke-width:28.346;stroke-linecap:round;stroke-miterlimit:10;}
	.st21{fill:none;stroke:#EEDFBE;stroke-width:28.346;stroke-linecap:round;stroke-miterlimit:10;}
	.st22{clip-path:url(#SVGID_4_);fill:#010000;}
	.st23{fill:#010000;}
	.st24{fill:none;stroke:#EEDFBE;stroke-width:6;stroke-linecap:round;stroke-linejoin:round;}
	.st25{fill:none;stroke:#AF8A6D;stroke-width:13.1913;stroke-linecap:round;stroke-miterlimit:10;}
	.st26{fill:none;stroke:#EEDFBE;stroke-width:13.1913;stroke-linecap:round;stroke-miterlimit:10;}
	.st27{fill:none;stroke:#7B5744;stroke-width:13.1913;stroke-linecap:round;stroke-miterlimit:10;}
	.st28{fill:none;stroke:#7B5744;stroke-width:13.2334;stroke-linecap:round;stroke-miterlimit:10;}
	.st29{fill:#BD8A6D;}
	.st30{fill:#F2DEBA;}
	.st31{fill:#885441;}
	.st32{fill:none;stroke:#AF8A6D;stroke-width:4.0495;stroke-linecap:round;stroke-miterlimit:10;}
	.st33{fill:none;stroke:#EEDFBE;stroke-width:4.0495;stroke-linecap:round;stroke-miterlimit:10;}
	.st34{fill:none;stroke:#7B5744;stroke-width:4.0495;stroke-linecap:round;stroke-miterlimit:10;}
	.st35{fill:none;stroke:#A7C349;stroke-width:3;stroke-linecap:round;}
	.st36{fill:none;stroke:#BB474B;stroke-width:3;stroke-linecap:round;}
	.st37{enable-background:new    ;}
</style>
<g class="st37">
	<path class="st15" d="M5,6v3.8h2.5v0.4H5v4.1c1.2-0.3,2.3-0.5,3.3-0.8V14c-1,0.3-2.1,0.5-3.3,0.8v4.4H4.6v-4.3
		c-1.4,0.3-2.9,0.5-4.5,0.7L0,15.2c1.6-0.2,3.1-0.4,4.5-0.7v-4.2h-4L0.4,9.8c0.9-1.6,1.7-3.6,2.4-6H0V3.3h3c0.3-1,0.5-2,0.8-3
		l0.5,0.1c-0.3,1-0.5,2-0.8,2.9h4.3v0.5H3.3c-0.7,2.4-1.5,4.3-2.4,6h3.6V6H5z M8.6,11.9v-0.5h9.1v0.5h-4.4v6.2h5.4v0.5H7.6v-0.5H13
		v-6.2H8.6z M8.4,9.8L8.1,9.4c3.8-1.7,6.5-4.2,8-7.4H8.8V1.6h7.8V2c-0.7,1.5-1.5,2.8-2.6,3.9c1.9,1.2,3.5,2.5,4.7,3.7l-0.3,0.3
		c-1.2-1.2-2.8-2.4-4.7-3.7C12.3,7.7,10.5,8.9,8.4,9.8z"/>
	<path class="st15" d="M25.1,19.2h-0.4V6.6c-0.8,2.8-1.9,5.2-3.5,7.4l-0.2-0.4c1.8-2.4,3-5.2,3.7-8.3h-3.4V4.8h3.4V0.4h0.4v4.5H28
		v0.4h-2.9v1.9c1,1.3,2.1,2.9,3.1,4.6L28,12.1c-1.1-1.9-2.1-3.3-2.9-4.4V19.2z M32.3,0.9c-0.9,3.9-2.1,6.8-3.5,8.8l-0.4-0.3
		c1.5-2.1,2.7-5,3.5-8.7L32.3,0.9z M38.9,19.2l-0.4,0.2c-0.3-0.8-0.6-1.5-0.8-2.2c-2.6,0.6-5.5,1.1-8.7,1.4l-0.1-0.4
		c1.6-1.8,3.1-5.3,4.8-10.6l0.4,0.1c-1.5,5-3,8.4-4.5,10.4c2.9-0.3,5.6-0.7,7.9-1.3c-0.7-1.7-1.5-3.3-2.3-4.6l0.4-0.1
		C36.9,14.3,38,16.7,38.9,19.2z M39.7,9.4l-0.3,0.4c-1.9-2.3-3.2-5.3-4-9l0.4-0.2C36.6,4.1,37.9,7.1,39.7,9.4z"/>
	<path class="st15" d="M48,0.7c1.8,1.9,3.5,4,5.3,6.3L53,7.3c-1.8-2.4-3.6-4.5-5.2-6.2c-1.8,2.6-3.7,4.9-5.8,6.7l-0.3-0.4
		c2.2-2,4.1-4.3,5.8-6.8H48z M44.8,7.7v10.2c0,0.4,0.2,0.6,0.7,0.6h4.8c0.9,0,1.5-0.2,1.7-0.6c0.3-0.5,0.4-1.4,0.5-2.8l0.4,0.1
		c-0.1,1.7-0.4,2.8-0.8,3.2c-0.3,0.3-1,0.5-1.9,0.5h-4.8c-0.8,0-1.2-0.4-1.2-1V7.2h6.6v5.1c0,1.1-0.5,1.6-1.4,1.6
		c-0.8,0-1.5,0-2.3-0.1l-0.1-0.4c0.8,0,1.6,0.1,2.4,0.1c0.7,0,1-0.4,1-1.2V7.7H44.8z M55,19.1L55,18.7c1.2,0,2.3,0,3.4,0
		c0.6,0,0.9-0.3,0.9-1V0.4h0.5v17.4c0,0.8-0.4,1.3-1.2,1.3H55z M55.6,2.2v13.3h-0.4V2.2H55.6z"/>
	<path class="st15" d="M65.8,14.3c-0.5,1.7-1.2,3.1-2.1,4.4l-0.4-0.3c0.9-1.2,1.6-2.6,2.1-4.2L65.8,14.3z M64.3,2.4V1.9h7.9
		c-0.3-0.6-0.6-1.2-0.9-1.7l0.5-0.1c0.3,0.5,0.6,1.1,0.9,1.8h7.7v0.5h-3.7l-1.2,2.5h5.9v0.4h-18V4.9H69l-1-2.5H64.3z M78.5,7.4v5.5
		H66.2V7.4H78.5z M78,9.9V7.8H66.7v2.1H78z M78,10.3H66.7v2.1H78V10.3z M75,4.9l1.2-2.5h-7.8l1,2.5H75z M70,19c-1,0-1.5-0.5-1.5-1.5
		v-2.9H69v2.9c0,0.8,0.4,1.1,1.2,1.1H75c0.6,0,1-0.1,1.2-0.3c0.3-0.3,0.5-1.1,0.7-2.5l0.4,0.1c-0.1,1.4-0.4,2.3-0.7,2.7
		c-0.3,0.3-0.8,0.4-1.5,0.4H70z M74.3,16.6l-0.4,0.3c-0.6-0.8-1.3-1.8-2.3-2.7l0.4-0.3C73,14.9,73.8,15.8,74.3,16.6z M81.6,18.1
		l-0.4,0.3c-0.7-1.2-1.7-2.5-2.9-3.9l0.4-0.2C79.9,15.7,80.9,17,81.6,18.1z"/>
	<path class="st15" d="M87.3,17.1c0,1.4-0.5,2.4-1.6,3l-0.3-0.4c0.8-0.6,1.3-1.4,1.3-2.4c-0.1,0-0.1,0-0.3,0c-0.3,0-0.4-0.1-0.5-0.2
		c-0.1-0.1-0.2-0.3-0.2-0.5c0-0.3,0-0.4,0.2-0.5c0.1-0.1,0.3-0.2,0.5-0.2C87,16,87.3,16.3,87.3,17.1z"/>
	<path class="st15" d="M114.8,2.8h6.2v7.8h-7.7c0.8,1.8,1.9,3.3,3.2,4.5c1.8-0.7,3.5-1.8,5-3.4l0.3,0.3c-1.4,1.6-3.1,2.7-5,3.4
		c1.8,1.6,4.1,2.7,6.9,3.4l-0.2,0.4c-5.1-1.3-8.7-4.2-10.7-8.6H108v8c2.1-0.5,4.3-1.1,6.3-1.9l0.1,0.4c-1.9,0.7-4.2,1.4-7.1,2
		l-0.1-0.4c0.2-0.1,0.3-0.1,0.3-0.2V2.8h6.7c-0.3-1-0.7-1.8-1.1-2.6l0.5-0.1C114.1,0.9,114.4,1.8,114.8,2.8z M120.6,3.3H108v3.2
		h12.5V3.3z M108,10.1h12.5V6.9H108V10.1z"/>
	<path class="st15" d="M130.3,0c-0.3,1.7-0.6,3.2-0.9,4.7h3.9v0.4c-0.3,3.4-1.1,6.4-2.4,8.9c1.4,1.1,2.5,2.1,3.4,2.9l-0.3,0.4
		c-0.9-0.9-2-1.8-3.3-2.9c-1.1,2-2.6,3.7-4.4,5l-0.3-0.4c1.8-1.3,3.2-3,4.3-4.9c-1-0.8-2.2-1.6-3.4-2.5c0.7-2,1.3-4.1,1.8-6.4h-2.7
		V4.7h2.8c0.3-1.5,0.6-3.1,0.9-4.7L130.3,0z M132.9,5.1h-3.6c-0.6,2.5-1.2,4.6-1.8,6.3c1.1,0.8,2.2,1.6,3.1,2.3
		C131.9,11.2,132.6,8.4,132.9,5.1z M139.7,9.5V6.4c1.3-1.1,2.5-2.5,3.6-4.1h-8.1V1.8h8.7v0.5c-1.1,1.5-2.3,3-3.7,4.3v3h4.7V10h-4.7
		v7.8c0,0.9-0.5,1.3-1.4,1.3H136l-0.1-0.4c0.9,0,1.8,0,2.8,0c0.7,0,1.1-0.4,1.1-1.1V10h-5.2V9.5H139.7z"/>
	<path class="st15" d="M150.7,7.1v10.2c1-0.7,2-1.6,3.2-2.7l0.1,0.5c-1.2,1.2-2.5,2.2-3.9,3.1l-0.2-0.4c0.2-0.2,0.3-0.4,0.3-0.6V7.6
		H147V7.1H150.7z M152.1,4.1l-0.3,0.3c-0.8-1-1.9-2.1-3.3-3.2l0.3-0.3C150.1,2,151.2,3.1,152.1,4.1z M163.9,9.5V10
		c-0.8,2.2-2.1,4.1-3.9,5.7c1.6,1.2,3.6,2.3,5.9,3.2l-0.3,0.4c-2.4-1-4.4-2.1-6-3.3c-1.7,1.4-3.9,2.5-6.5,3.3l-0.3-0.4
		c2.6-0.8,4.7-1.9,6.4-3.3c-2-1.6-3.3-3.5-3.9-5.6h-1.1V9.5H163.9z M162.5,1.4v4.8c0,0.6,0.3,0.9,0.9,0.9h2.1v0.4h-2.1
		c-0.9,0-1.3-0.5-1.3-1.3V1.9h-5.3v1c0,2.3-1,4.1-3,5.3l-0.3-0.3c1.9-1.2,2.9-2.8,2.9-4.9V1.4H162.5z M159.7,15.3
		c1.8-1.5,3-3.3,3.8-5.4h-7.6C156.6,12,157.9,13.8,159.7,15.3z"/>
	<path class="st15" d="M171.8,7.1v10.2c1-0.8,2.1-1.7,3.3-2.8l0.1,0.5c-1.2,1.2-2.5,2.3-3.9,3.3l-0.2-0.4c0.2-0.2,0.3-0.4,0.3-0.5
		V7.6H168V7.1H171.8z M173.6,4.1l-0.3,0.3c-1-1.1-2.3-2.3-3.9-3.5l0.3-0.3C171.3,1.8,172.6,3,173.6,4.1z M180.6,7V0.3h0.5V7h5.8v0.5
		h-5.8v11.9h-0.5V7.5h-6.1V7H180.6z"/>
	<path class="st15" d="M194.8,15.4c0.5,0.4,0.7,1,0.7,1.7c0,0.7-0.3,1.2-0.7,1.7c-0.5,0.4-1,0.7-1.7,0.7c-0.7,0-1.2-0.2-1.7-0.7
		c-0.5-0.5-0.7-1-0.7-1.7c0-0.7,0.2-1.2,0.7-1.7c0.5-0.5,1-0.7,1.7-0.7C193.7,14.7,194.3,14.9,194.8,15.4z M191.8,15.7
		c-0.4,0.3-0.5,0.8-0.5,1.3c0,0.5,0.2,0.9,0.5,1.3c0.4,0.3,0.8,0.5,1.3,0.5c0.5,0,1-0.2,1.3-0.5c0.4-0.4,0.5-0.8,0.5-1.3
		s-0.2-0.9-0.5-1.3c-0.4-0.4-0.8-0.5-1.3-0.5C192.5,15.2,192.1,15.4,191.8,15.7z"/>
	<path class="st15" d="M220.8,3.3c1.2,0.9,1.9,2.1,2.1,3.5h-0.5c-0.2-1.3-0.8-2.3-1.9-3.1c-1-0.8-2.3-1.1-3.6-1.1
		c-2,0-3.6,0.7-4.8,2.2c-1.1,1.4-1.7,3.1-1.7,5.2c0,2.1,0.6,3.7,1.7,5.1c1.2,1.4,2.7,2.1,4.6,2.1c1.4,0,2.7-0.4,3.7-1.2
		c1.2-0.9,1.9-2.1,2.2-3.7h0.5c-0.3,1.7-1.1,3.1-2.4,4c-1.2,0.9-2.5,1.3-4.1,1.3c-2.1,0-3.8-0.8-5-2.3c-1.2-1.4-1.8-3.3-1.8-5.4
		c0-2.2,0.6-4.1,1.8-5.5c1.3-1.6,3-2.4,5.2-2.4C218.3,2.1,219.6,2.5,220.8,3.3z"/>
	<path class="st15" d="M233.6,8c0.8,1.1,1.2,2.4,1.2,3.9c0,1.5-0.4,2.8-1.2,3.9c-0.9,1.2-2.2,1.8-3.7,1.8c-1.6,0-2.8-0.6-3.7-1.8
		c-0.8-1.1-1.2-2.4-1.2-3.9c0-1.6,0.4-2.9,1.2-3.9c0.9-1.2,2.2-1.8,3.7-1.8C231.5,6.2,232.7,6.8,233.6,8z M226.6,8.3
		c-0.8,1-1.1,2.2-1.1,3.6c0,1.4,0.4,2.6,1.1,3.6c0.8,1,1.9,1.6,3.3,1.6c1.4,0,2.5-0.5,3.3-1.6c0.8-1,1.1-2.2,1.1-3.6
		c0-1.4-0.4-2.7-1.1-3.6c-0.8-1.1-2-1.6-3.3-1.6C228.5,6.7,227.4,7.2,226.6,8.3z"/>
	<path class="st15" d="M245.4,10.7v6.7h-0.5v-6.7c0-2.7-1.2-4-3.5-4c-1,0-1.9,0.4-2.6,1.1c-0.7,0.8-1.1,1.7-1.1,2.9v6.6h-0.5V6.5
		h0.5v2.1c0.3-0.7,0.8-1.3,1.5-1.8s1.4-0.7,2.2-0.7C244.1,6.2,245.4,7.7,245.4,10.7z"/>
	<path class="st15" d="M255.6,7.1c0.8,0.6,1.3,1.6,1.4,2.8h-0.5c-0.1-1.1-0.6-1.9-1.2-2.4c-0.7-0.5-1.6-0.8-2.7-0.8
		c-1.3,0-2.4,0.5-3.2,1.6c-0.8,1-1.1,2.2-1.1,3.8c0,1.5,0.4,2.7,1.1,3.7c0.8,0.9,1.8,1.4,3.2,1.4c2.3,0,3.6-1.2,4-3.6h0.5
		c-0.2,1.3-0.7,2.3-1.5,3c-0.8,0.7-1.8,1.1-3,1.1c-1.6,0-2.8-0.5-3.6-1.6c-0.8-1-1.2-2.3-1.2-3.9c0-1.7,0.4-3,1.2-4.1
		c0.9-1.2,2.1-1.7,3.6-1.7C253.8,6.2,254.8,6.5,255.6,7.1z"/>
	<path class="st15" d="M267.1,7.9c0.7,1,1.1,2.4,1.2,4.2H259c0,1.5,0.4,2.7,1.2,3.7s1.8,1.4,3.1,1.4c1.2,0,2.1-0.3,2.8-1
		c0.6-0.5,1-1.3,1.3-2.3h0.5c-0.3,1.1-0.7,2-1.4,2.6c-0.8,0.8-1.9,1.2-3.2,1.2c-1.5,0-2.7-0.5-3.5-1.6c-0.9-1.1-1.3-2.5-1.3-4.1
		c0-1.6,0.4-2.9,1.3-4c0.9-1.2,2.1-1.7,3.6-1.7C265.1,6.2,266.3,6.8,267.1,7.9z M260.3,8.1c-0.8,0.9-1.2,2.1-1.3,3.5h8.7
		c-0.2-3.3-1.7-4.9-4.4-4.9C262.1,6.7,261.1,7.2,260.3,8.1z"/>
	<path class="st15" d="M278,7.5c0.6,0.7,0.9,1.7,0.9,2.9v7h-0.5v-2.5c-0.5,0.7-1.1,1.3-1.8,1.8c-1,0.6-2,1-3.1,1
		c-1,0-1.8-0.3-2.5-0.8c-0.7-0.5-1-1.2-1-2.1c0-1.3,0.5-2.2,1.6-2.8c0.9-0.5,2.2-0.8,3.9-0.8l3,0v-0.8c0-2.5-1.2-3.7-3.7-3.7
		c-1,0-1.9,0.2-2.5,0.7c-0.7,0.5-1.2,1.2-1.4,2l-0.5,0c0.2-1,0.7-1.8,1.5-2.4c0.8-0.5,1.7-0.8,2.9-0.8C276.2,6.2,277.3,6.6,278,7.5z
		 M275.4,11.8c-3.3,0-5,1-5,3c0,0.7,0.3,1.3,0.8,1.7c0.5,0.4,1.3,0.6,2.2,0.6c1.2,0,2.4-0.5,3.4-1.3c1-0.8,1.5-1.7,1.5-2.5v-1.5
		L275.4,11.8z"/>
	<path class="st15" d="M282.7,2.1v15.3h-0.5V2.1H282.7z"/>
	<path class="st15" d="M293.9,7.9c0.7,1,1.1,2.4,1.2,4.2h-9.3c0,1.5,0.4,2.7,1.2,3.7s1.8,1.4,3.1,1.4c1.2,0,2.1-0.3,2.8-1
		c0.6-0.5,1-1.3,1.3-2.3h0.5c-0.3,1.1-0.7,2-1.4,2.6c-0.8,0.8-1.9,1.2-3.2,1.2c-1.5,0-2.7-0.5-3.5-1.6c-0.9-1.1-1.3-2.5-1.3-4.1
		c0-1.6,0.4-2.9,1.3-4c0.9-1.2,2.1-1.7,3.6-1.7C291.9,6.2,293.1,6.8,293.9,7.9z M287.1,8.1c-0.8,0.9-1.2,2.1-1.3,3.5h8.7
		c-0.2-3.3-1.7-4.9-4.4-4.9C289,6.7,287.9,7.2,287.1,8.1z"/>
	<path class="st15" d="M306.2,2.1v15.3h-0.5v-2.8c-0.8,2.1-2.1,3.1-4.2,3.1c-1.6,0-2.8-0.6-3.6-1.7c-0.8-1-1.2-2.4-1.2-4
		S297.2,9,298,8c0.9-1.2,2.1-1.8,3.6-1.8c2.1,0,3.4,1,4.2,3.1V2.1H306.2z M298.4,8.3c-0.7,0.9-1.1,2.2-1.1,3.7c0,1.5,0.3,2.7,1,3.7
		c0.8,1,1.8,1.5,3.2,1.5c1.3,0,2.4-0.5,3.1-1.5c0.7-0.9,1-2.1,1-3.5v-0.3c0-1.5-0.4-2.7-1-3.6c-0.8-1-1.8-1.5-3.2-1.5
		C300.2,6.7,299.1,7.2,298.4,8.3z"/>
	<path class="st15" d="M324.5,3.3c0.9,0.8,1.5,2,1.6,3.5h-0.5c-0.1-1.3-0.6-2.4-1.4-3.1c-0.8-0.8-2-1.1-3.4-1.1
		c-1.4,0-2.5,0.3-3.3,0.8c-0.9,0.6-1.3,1.4-1.3,2.5c0,1,0.5,1.7,1.7,2.3c0.5,0.3,1.5,0.6,3.1,1c1.8,0.5,3.1,0.9,3.8,1.4
		c1.2,0.7,1.8,1.8,1.8,3.1c0,1.2-0.5,2.2-1.6,3c-1,0.7-2.3,1-3.9,1c-1.6,0-2.9-0.4-3.9-1.3c-1.1-0.9-1.6-2.2-1.8-4h0.5
		c0.1,1.6,0.7,2.8,1.6,3.6c0.9,0.8,2.1,1.1,3.5,1.1s2.7-0.3,3.6-0.9c0.9-0.6,1.4-1.5,1.4-2.5c0-1.2-0.5-2.1-1.6-2.7
		c-0.7-0.4-1.8-0.8-3.6-1.3c-1.7-0.5-2.9-0.9-3.4-1.2c-1.2-0.6-1.7-1.5-1.7-2.7c0-1.3,0.5-2.2,1.6-2.9c0.9-0.6,2.1-0.9,3.6-0.9
		C322.3,2.1,323.6,2.5,324.5,3.3z"/>
	<path class="st15" d="M330.7,6.5h3.1V7h-3.1v8.1c0,0.6,0.1,1.1,0.3,1.3c0.2,0.3,0.6,0.4,1.2,0.4h1.3v0.5h-1.3
		c-0.8,0-1.3-0.2-1.6-0.6c-0.3-0.3-0.4-0.9-0.4-1.6V7h-2.5V6.5h2.5V3.2l0.5-0.2V6.5z"/>
	<path class="st15" d="M336.3,6.5v6.7c0,1.3,0.3,2.3,0.8,2.9c0.6,0.7,1.5,1.1,2.7,1.1c1,0,2-0.4,2.7-1.1c0.7-0.8,1.1-1.7,1.1-2.9
		V6.5h0.5v10.9h-0.5v-2.1c-0.8,1.6-2,2.4-3.7,2.4c-2.7,0-4-1.5-4-4.5V6.5H336.3z"/>
	<path class="st15" d="M355.8,2.1v15.3h-0.5v-2.8c-0.8,2.1-2.1,3.1-4.2,3.1c-1.6,0-2.8-0.6-3.6-1.7c-0.8-1-1.2-2.4-1.2-4
		s0.4-2.9,1.2-3.9c0.9-1.2,2.1-1.8,3.6-1.8c2.1,0,3.4,1,4.2,3.1V2.1H355.8z M347.9,8.3c-0.7,0.9-1.1,2.2-1.1,3.7
		c0,1.5,0.3,2.7,1,3.7c0.8,1,1.8,1.5,3.2,1.5c1.3,0,2.4-0.5,3.1-1.5c0.7-0.9,1-2.1,1-3.5v-0.3c0-1.5-0.4-2.7-1-3.6
		c-0.8-1-1.8-1.5-3.2-1.5C349.8,6.7,348.7,7.2,347.9,8.3z"/>
	<path class="st15" d="M360,3.1c0.1,0.1,0.2,0.3,0.2,0.5c0,0.2-0.1,0.4-0.2,0.5c-0.1,0.1-0.3,0.2-0.5,0.2c-0.2,0-0.4-0.1-0.5-0.2
		c-0.1-0.1-0.2-0.3-0.2-0.5c0-0.2,0.1-0.4,0.2-0.5c0.1-0.1,0.3-0.2,0.5-0.2C359.7,2.9,359.9,3,360,3.1z M359.8,6.5v10.9h-0.5V6.5
		H359.8z"/>
	<path class="st15" d="M371.5,8c0.8,1.1,1.2,2.4,1.2,3.9c0,1.5-0.4,2.8-1.2,3.9c-0.9,1.2-2.2,1.8-3.7,1.8c-1.6,0-2.8-0.6-3.7-1.8
		c-0.8-1.1-1.2-2.4-1.2-3.9c0-1.6,0.4-2.9,1.2-3.9c0.9-1.2,2.2-1.8,3.7-1.8C369.4,6.2,370.6,6.8,371.5,8z M364.5,8.3
		c-0.8,1-1.1,2.2-1.1,3.6c0,1.4,0.4,2.6,1.1,3.6c0.8,1,1.9,1.6,3.3,1.6c1.4,0,2.5-0.5,3.3-1.6c0.8-1,1.1-2.2,1.1-3.6
		c0-1.4-0.4-2.7-1.1-3.6c-0.8-1.1-2-1.6-3.3-1.6C366.4,6.7,365.3,7.2,364.5,8.3z"/>
	<path class="st15" d="M393.5,16.2c0.1,0.1,0.2,0.3,0.2,0.5c0,0.2-0.1,0.4-0.2,0.5c-0.1,0.1-0.3,0.2-0.5,0.2c-0.2,0-0.4-0.1-0.5-0.2
		c-0.1-0.1-0.2-0.3-0.2-0.5c0-0.2,0.1-0.4,0.2-0.5c0.1-0.1,0.3-0.2,0.5-0.2C393.2,16,393.3,16,393.5,16.2z M393.2,2.4v11.4h-0.5V2.4
		H393.2z"/>
	<path class="st15" d="M417.2,3.2c0.7,0.7,1,1.6,1,2.8c0,0.8-0.3,1.5-0.8,2.2c-0.3,0.3-0.8,0.9-1.6,1.6c-0.6,0.5-1,0.9-1.2,1.3
		c-0.4,0.5-0.5,1.1-0.5,1.8v0.8h-0.5v-0.8c0-0.5,0.1-1,0.3-1.4c0.3-0.7,0.8-1.3,1.6-2c0.8-0.7,1.2-1.2,1.5-1.5
		c0.5-0.6,0.7-1.3,0.7-2c0-1-0.3-1.9-0.9-2.5c-0.7-0.7-1.6-1-2.7-1c-1.3,0-2.2,0.4-2.9,1.3c-0.6,0.8-0.9,1.7-0.9,3h-0.5
		c0-1.3,0.4-2.4,1-3.3c0.8-1,1.9-1.5,3.3-1.5C415.4,2.1,416.4,2.4,417.2,3.2z M414.4,16.2c0.1,0.1,0.2,0.3,0.2,0.5
		c0,0.2-0.1,0.4-0.2,0.5c-0.1,0.1-0.3,0.2-0.5,0.2c-0.2,0-0.4-0.1-0.5-0.2c-0.1-0.1-0.2-0.3-0.2-0.5c0-0.2,0.1-0.4,0.2-0.5
		c0.1-0.1,0.3-0.2,0.5-0.2C414.1,16,414.2,16,414.4,16.2z"/>
</g>
</svg>
