<?xml version="1.0" encoding="utf-8"?>
<!-- Generator: Adobe Illustrator 24.3.0, SVG Export Plug-In . SVG Version: 6.00 Build 0)  -->
<svg version="1.1" id="图层_1" xmlns="http://www.w3.org/2000/svg" xmlns:xlink="http://www.w3.org/1999/xlink" x="0px" y="0px"
	 viewBox="0 0 423.5 20.7" style="enable-background:new 0 0 423.5 20.7;" xml:space="preserve">
<style type="text/css">
	.st0{fill:none;stroke:#AF8A6D;stroke-width:7.0866;stroke-miterlimit:10;}
	.st1{fill:none;stroke:#7B5744;stroke-width:5.6693;stroke-miterlimit:10;}
	.st2{fill:none;stroke:#EEDFBE;stroke-width:8.5039;stroke-miterlimit:10;}
	.st3{fill:none;}
	.st4{fill:#BB474B;}
	.st5{fill:#A7C349;}
	.st6{fill:#E0EDF2;stroke:#E0EDF2;stroke-width:0.2835;stroke-miterlimit:10;}
	.st7{fill:#E0EDF2;stroke:#E0EDF2;stroke-width:0.1417;stroke-miterlimit:10;}
	.st8{fill:#E0EDF2;stroke:#E0EDF2;stroke-width:0.4252;stroke-miterlimit:10;}
	.st9{fill:#E0EDF2;stroke:#E0EDF2;stroke-width:0.5669;stroke-miterlimit:10;}
	.st10{fill:#E0EDF2;stroke:#E0EDF2;stroke-width:0.7087;stroke-miterlimit:10;}
	.st11{fill:#E0EDF2;}
	.st12{fill:#7C5543;stroke:#7B5744;stroke-miterlimit:10;}
	.st13{fill:#ECDDBB;stroke:#EEDFBE;stroke-miterlimit:10;}
	.st14{fill:#AF896D;stroke:#AF8A6D;stroke-miterlimit:10;}
	.st15{fill:#7B5744;}
	.st16{fill:#EEDFBE;}
	.st17{fill:#AF8A6D;}
	.st18{clip-path:url(#SVGID_2_);}
	.st19{fill:none;stroke:#AF8A6D;stroke-width:28.346;stroke-linecap:round;stroke-miterlimit:10;}
	.st20{fill:none;stroke:#7B5744;stroke-width:28.346;stroke-linecap:round;stroke-miterlimit:10;}
	.st21{fill:none;stroke:#EEDFBE;stroke-width:28.346;stroke-linecap:round;stroke-miterlimit:10;}
	.st22{clip-path:url(#SVGID_4_);fill:#010000;}
	.st23{fill:#010000;}
	.st24{fill:none;stroke:#EEDFBE;stroke-width:6;stroke-linecap:round;stroke-linejoin:round;}
	.st25{fill:none;stroke:#AF8A6D;stroke-width:13.1913;stroke-linecap:round;stroke-miterlimit:10;}
	.st26{fill:none;stroke:#EEDFBE;stroke-width:13.1913;stroke-linecap:round;stroke-miterlimit:10;}
	.st27{fill:none;stroke:#7B5744;stroke-width:13.1913;stroke-linecap:round;stroke-miterlimit:10;}
	.st28{fill:none;stroke:#7B5744;stroke-width:13.2334;stroke-linecap:round;stroke-miterlimit:10;}
	.st29{fill:#BD8A6D;}
	.st30{fill:#F2DEBA;}
	.st31{fill:#885441;}
	.st32{fill:none;stroke:#AF8A6D;stroke-width:4.0495;stroke-linecap:round;stroke-miterlimit:10;}
	.st33{fill:none;stroke:#EEDFBE;stroke-width:4.0495;stroke-linecap:round;stroke-miterlimit:10;}
	.st34{fill:none;stroke:#7B5744;stroke-width:4.0495;stroke-linecap:round;stroke-miterlimit:10;}
	.st35{fill:none;stroke:#A7C349;stroke-width:3;stroke-linecap:round;}
	.st36{fill:none;stroke:#BB474B;stroke-width:3;stroke-linecap:round;}
	.st37{enable-background:new    ;}
</style>
<g class="st37">
	<path class="st15" d="M5.4,6v3.4h2.4v1H5.4V14c1-0.2,2.1-0.4,3-0.7v1c-1,0.3-2,0.5-3,0.7v4.3H4.3v-4.1c-1.3,0.2-2.7,0.4-4.1,0.6
		L0,14.8c1.5-0.2,3-0.4,4.3-0.6v-3.6H0.7l-0.3-1c0.7-1.4,1.4-3.2,2-5.4H0V3h2.7C3,2.1,3.2,1.2,3.4,0.3l1.1,0.2
		C4.3,1.3,4.1,2.2,3.8,3h4.1v1.1H3.5C2.9,6.2,2.3,8,1.6,9.5h2.8V6H5.4z M8.8,12.3v-1.1h9.2v1.1h-4.1v5.3h5.1v1.1H7.6v-1.1h5.1v-5.3
		H8.8z M8.8,10L8.1,9.1c3.6-1.5,6.2-3.7,7.6-6.5H8.8V1.4h8.1v0.9c-0.6,1.3-1.3,2.5-2.3,3.6c1.7,1.1,3.1,2.2,4.3,3.3l-0.8,0.8
		c-1.1-1.1-2.5-2.2-4.3-3.4C12.5,8,10.8,9.1,8.8,10z"/>
	<path class="st15" d="M25.5,19.4h-1.1V8.1c-0.7,2.3-1.7,4.4-3,6.2l-0.5-1.2c1.6-2.2,2.8-4.7,3.5-7.5h-3.2V4.5h3.2V0.3h1.1v4.2h2.6
		v1.1h-2.6v1.6c1,1.2,2,2.6,3.1,4.1l-0.7,1c-0.9-1.6-1.7-2.9-2.4-3.9V19.4z M32.7,1.1C31.8,5,30.6,8,29.2,10l-0.9-0.8
		c1.5-2.1,2.6-5,3.4-8.5L32.7,1.1z M39.2,19.1l-1,0.5c-0.3-0.7-0.5-1.4-0.7-2.1c-2.5,0.6-5.4,1-8.4,1.3l-0.2-1.1
		c1.3-1.2,2.9-4.6,4.6-10.3l1.1,0.4c-1.4,4.3-2.8,7.5-4.1,9.7c2.4-0.2,4.6-0.6,6.6-1.1c-0.6-1.6-1.3-2.9-2-4.2l1-0.3
		C37.3,14.2,38.4,16.5,39.2,19.1z M40,9.1L39.2,10c-1.9-2.4-3.2-5.4-3.9-9l0.9-0.5C37,4,38.2,6.9,40,9.1z"/>
	<path class="st15" d="M48.3,0.5c1.8,1.9,3.6,4,5.3,6.2l-0.8,0.8C51,5.1,49.4,3.1,48,1.6c-1.6,2.4-3.5,4.6-5.5,6.5l-0.7-0.9
		c2.1-1.9,4-4.1,5.7-6.7H48.3z M45.3,8.1v9.2c0,0.5,0.3,0.7,0.8,0.7h4.3c0.8,0,1.3-0.2,1.5-0.6c0.2-0.5,0.4-1.3,0.5-2.5l1.1,0.4
		c-0.1,1.7-0.4,2.8-0.8,3.3c-0.3,0.3-1,0.5-2,0.5h-4.9c-1,0-1.5-0.5-1.5-1.4V7.1h7.2v5.4c0,1.1-0.5,1.7-1.6,1.7
		c-0.8,0-1.6,0-2.3-0.1L47,13.1c0.8,0,1.5,0.1,2.2,0.1c0.6,0,0.9-0.3,0.9-0.9V8.1H45.3z M55.2,19.2l-0.3-1.1c1.1,0,2.2,0.1,3.2,0.1
		c0.5,0,0.8-0.3,0.8-0.9V0.4H60v17.2c0,1.1-0.5,1.7-1.6,1.7H55.2z M56.2,2.1v13.2h-1.1V2.1H56.2z"/>
	<path class="st15" d="M66.2,14.5c-0.5,1.7-1.2,3.1-2.1,4.3l-1-0.6c0.9-1.2,1.5-2.5,2-3.9L66.2,14.5z M64.4,2.7v-1h7.5
		c-0.2-0.5-0.5-1-0.7-1.4l1.2-0.2c0.3,0.5,0.5,1,0.7,1.6h7.5v1H77l-0.9,2h5.5v1H63.4v-1h5.3l-0.8-2H64.4z M79,7.2v5.9H65.9V7.2H79z
		 M77.8,9.7V8.1H67.1v1.6H77.8z M77.8,10.6H67.1v1.6h10.8V10.6z M70.2,19.1c-1.3,0-1.9-0.6-1.9-1.8v-2.8h1.1v2.6c0,0.7,0.4,1,1.1,1
		h4.6c0.5,0,0.9-0.1,1-0.3c0.3-0.3,0.5-0.9,0.6-2.1l1.1,0.4c-0.1,1.4-0.4,2.3-0.8,2.7c-0.3,0.3-0.9,0.4-1.6,0.4H70.2z M74.9,4.6
		l0.9-2H69l0.8,2H74.9z M74.6,16.2l-0.9,0.7c-0.5-0.8-1.3-1.6-2.1-2.5l0.9-0.6C73.4,14.7,74.1,15.5,74.6,16.2z M81.9,17.9L81,18.5
		c-0.7-1.2-1.6-2.4-2.8-3.8l0.9-0.6C80.3,15.6,81.2,16.8,81.9,17.9z"/>
	<path class="st15" d="M88,17c0,1.7-0.7,2.9-2.1,3.6l-0.4-0.7c1-0.7,1.5-1.5,1.6-2.6c-0.1,0-0.2,0-0.3,0c-0.3,0-0.6-0.1-0.8-0.3
		c-0.2-0.2-0.3-0.4-0.3-0.8c0-0.3,0.1-0.6,0.3-0.8c0.2-0.2,0.4-0.3,0.8-0.3C87.5,15.3,88,15.9,88,17z"/>
	<path class="st15" d="M115.1,2.6h6.2v8.4h-7.5c0.8,1.5,1.7,2.8,2.9,3.8c1.6-0.6,3.1-1.7,4.6-3.1l0.8,0.8c-1.3,1.3-2.8,2.4-4.5,3
		c1.7,1.3,3.9,2.3,6.3,2.8l-0.5,1.1c-5.1-1.3-8.7-4.1-10.8-8.4h-4.1V18c2-0.4,3.9-1,5.8-1.7l0.3,1.1c-1.9,0.7-4.3,1.3-7.3,2l-0.3-1
		c0.2-0.1,0.4-0.3,0.4-0.5V2.6h6.5c-0.3-0.8-0.6-1.6-1-2.3l1.2-0.2C114.5,0.8,114.8,1.6,115.1,2.6z M120.2,3.6h-11.6v2.6h11.6V3.6z
		 M108.6,9.9h11.6V7.2h-11.6V9.9z"/>
	<path class="st15" d="M130.7,0.1c-0.3,1.6-0.5,3-0.8,4.3h3.7v0.7c-0.2,3.4-0.9,6.3-2.2,8.8c1.3,1,2.3,1.9,3.1,2.7l-0.8,0.9
		c-0.8-0.8-1.8-1.7-2.9-2.6c-1.1,1.8-2.5,3.4-4.2,4.7l-0.8-1c1.7-1.2,3-2.7,4-4.4c-1-0.8-2.1-1.6-3.3-2.5c0.7-1.9,1.3-3.9,1.8-6.1
		h-2.4V4.4h2.6c0.3-1.4,0.6-2.9,0.8-4.4L130.7,0.1z M132.6,5.5h-2.9c-0.5,2.3-1.1,4.2-1.6,5.8c0.9,0.7,1.8,1.3,2.6,1.9
		C131.7,11,132.3,8.4,132.6,5.5z M139.5,9.2V6.4c1.2-1,2.3-2.3,3.3-3.8h-7.6V1.5h8.9v1.1c-1,1.5-2.2,2.9-3.5,4.2v2.4h4.5v1.1h-4.5
		v7.1c0,1.2-0.5,1.8-1.6,1.8h-2.9l-0.3-1.1c0.8,0,1.8,0,2.8,0c0.6,0,0.9-0.4,0.9-1.1v-6.7h-4.9V9.2H139.5z"/>
	<path class="st15" d="M151.1,6.9v9.7c0.8-0.6,1.7-1.4,2.7-2.4l0.3,1.2c-1.3,1.2-2.6,2.3-4.1,3.2l-0.4-1c0.3-0.3,0.4-0.5,0.4-0.8V8
		h-3V6.9H151.1z M152.5,3.9l-0.8,0.8c-0.8-1-1.9-2.1-3.3-3.2l0.8-0.8C150.5,1.8,151.6,2.8,152.5,3.9z M164.2,9.3v1.1
		c-0.7,2.1-1.9,3.9-3.5,5.3c1.5,1.1,3.3,2,5.5,2.8l-0.6,1c-2.3-0.9-4.2-1.9-5.7-3.1c-1.7,1.3-3.8,2.3-6.3,3.1l-0.6-0.9
		c2.4-0.8,4.4-1.7,6-2.9c-1.7-1.5-2.9-3.3-3.5-5.2h-1.1V9.3H164.2z M162.9,1.2v4.7c0,0.5,0.3,0.8,0.8,0.8h2v1h-2.2
		c-1.2,0-1.7-0.6-1.7-1.7V2.3h-4.5v0.9c0,2.2-1.1,4-3.2,5.2l-0.8-0.9c1.9-1,2.8-2.4,2.8-4.2v-2H162.9z M159.8,14.9
		c1.5-1.3,2.6-2.8,3.3-4.6h-6.5C157.2,12.1,158.3,13.6,159.8,14.9z"/>
	<path class="st15" d="M172.3,6.8v9.7c0.8-0.7,1.7-1.5,2.7-2.4l0.3,1.2c-1.3,1.2-2.6,2.4-4.1,3.3l-0.4-1c0.3-0.3,0.4-0.5,0.4-0.8
		V7.9h-3.2V6.8H172.3z M173.9,3.8l-0.8,0.8c-0.9-1.1-2.2-2.2-3.7-3.4l0.8-0.8C171.6,1.6,172.8,2.7,173.9,3.8z M180.3,6.7V0.3h1.2
		v6.5h5.5v1.1h-5.5v11.6h-1.2V7.9h-5.8V6.7H180.3z"/>
	<path class="st15" d="M195,15.2c0.5,0.5,0.8,1.1,0.8,1.8s-0.3,1.3-0.8,1.8c-0.5,0.5-1.1,0.7-1.8,0.7s-1.3-0.3-1.8-0.7
		c-0.5-0.5-0.8-1.1-0.8-1.8c0-0.7,0.3-1.3,0.8-1.8c0.5-0.5,1.1-0.7,1.8-0.7S194.5,14.8,195,15.2z M192,15.9
		c-0.3,0.3-0.5,0.7-0.5,1.2s0.2,0.8,0.5,1.2c0.3,0.3,0.7,0.5,1.2,0.5c0.5,0,0.9-0.2,1.2-0.5c0.3-0.3,0.5-0.7,0.5-1.2
		s-0.2-0.8-0.5-1.2c-0.3-0.3-0.7-0.5-1.2-0.5C192.7,15.4,192.3,15.6,192,15.9z"/>
	<path class="st15" d="M221,3.4c1.2,0.9,1.8,2.1,2,3.5h-1.2c-0.2-1.2-0.8-2.1-1.7-2.7c-0.9-0.6-2-0.9-3.2-0.9c-1.8,0-3.3,0.7-4.3,2
		c-1,1.2-1.5,2.8-1.5,4.7s0.5,3.5,1.4,4.7c1,1.2,2.4,1.9,4.2,1.9c1.3,0,2.4-0.4,3.3-1c1-0.8,1.6-1.8,1.9-3.2h1.2
		c-0.3,1.7-1.1,3.1-2.4,4.1c-1.2,0.9-2.5,1.3-4.1,1.3c-2.2,0-4-0.8-5.2-2.3c-1.2-1.4-1.7-3.2-1.7-5.4s0.6-4,1.8-5.5
		c1.3-1.6,3.1-2.4,5.3-2.4C218.5,2.1,219.9,2.5,221,3.4z"/>
	<path class="st15" d="M234.1,8c0.9,1.1,1.3,2.4,1.3,4s-0.4,2.9-1.3,4c-1,1.1-2.2,1.7-3.8,1.7s-2.9-0.6-3.8-1.7
		c-0.9-1.1-1.3-2.4-1.3-4s0.4-2.9,1.3-4c0.9-1.2,2.2-1.7,3.8-1.7S233.1,6.8,234.1,8z M227.3,8.8c-0.7,0.8-1,1.9-1,3.2
		c0,1.3,0.3,2.4,1,3.2c0.7,0.9,1.7,1.4,2.9,1.4c1.2,0,2.2-0.5,2.9-1.4c0.6-0.9,1-1.9,1-3.2c0-1.3-0.3-2.4-1-3.2
		c-0.7-1-1.7-1.4-2.9-1.4C229,7.3,228,7.8,227.3,8.8z"/>
	<path class="st15" d="M246.5,10.7v6.7h-1.3v-6.6c0-2.3-1-3.5-3.1-3.5c-0.9,0-1.6,0.3-2.2,0.9c-0.6,0.6-1,1.5-1,2.6v6.6h-1.3V6.5
		h1.3v1.8c0.4-0.7,0.9-1.2,1.5-1.5c0.6-0.4,1.3-0.5,2.1-0.5C245.1,6.2,246.5,7.7,246.5,10.7z"/>
	<path class="st15" d="M256.8,7.2c0.8,0.6,1.3,1.6,1.5,2.9h-1.3c-0.1-0.9-0.5-1.6-1.1-2.1s-1.4-0.7-2.3-0.7c-1.1,0-2.1,0.4-2.7,1.3
		c-0.7,0.8-1,2-1,3.4c0,1.4,0.3,2.5,0.9,3.3c0.6,0.8,1.6,1.2,2.8,1.2c2,0,3.2-1,3.5-3.1h1.2c-0.2,1.4-0.7,2.4-1.6,3.1
		c-0.8,0.7-1.9,1-3.2,1c-1.6,0-2.9-0.5-3.7-1.6c-0.8-1-1.2-2.4-1.2-4c0-1.6,0.4-3,1.3-4.1c0.9-1.2,2.1-1.7,3.7-1.7
		C255,6.2,256,6.6,256.8,7.2z"/>
	<path class="st15" d="M268.7,8c0.8,1,1.2,2.5,1.2,4.3h-8.8c0.1,1.3,0.4,2.4,1.1,3.1c0.7,0.8,1.6,1.1,2.7,1.1c1,0,1.8-0.3,2.4-0.8
		c0.5-0.4,0.9-1.1,1.2-1.9h1.3c-0.3,1-0.7,1.9-1.4,2.6c-0.9,0.8-2,1.2-3.4,1.2c-1.5,0-2.8-0.5-3.7-1.6c-0.9-1-1.4-2.5-1.4-4.2
		c0-1.6,0.4-2.9,1.3-4c0.9-1.1,2.1-1.7,3.7-1.7C266.5,6.2,267.8,6.8,268.7,8z M262.2,8.4c-0.7,0.7-1,1.7-1.1,2.9h7.5
		c-0.2-2.6-1.5-4-3.8-4C263.7,7.3,262.9,7.7,262.2,8.4z"/>
	<path class="st15" d="M279.9,7.5c0.6,0.7,1,1.7,1,2.9v7h-1.2v-2.1c-0.4,0.6-1,1.2-1.7,1.6c-0.9,0.5-1.8,0.8-2.9,0.8
		c-1,0-1.9-0.3-2.5-0.8c-0.7-0.5-1-1.3-1-2.2c0-1.3,0.5-2.2,1.5-2.8c0.9-0.6,2.2-0.9,3.8-0.9l2.8,0v-0.7c0-2.1-1-3.1-3.1-3.1
		c-0.9,0-1.6,0.2-2.2,0.5c-0.6,0.4-1,1-1.2,1.7l-1.2-0.1c0.2-1.1,0.8-1.9,1.6-2.5c0.8-0.5,1.8-0.8,3-0.8
		C278,6.2,279.2,6.6,279.9,7.5z M276.9,12.1c-2.8,0-4.1,0.9-4.1,2.6c0,0.6,0.2,1,0.7,1.4c0.5,0.4,1.1,0.5,1.8,0.5
		c1.1,0,2.1-0.4,3-1.1c0.9-0.7,1.3-1.5,1.3-2.4V12L276.9,12.1z"/>
	<path class="st15" d="M285.2,2.1v15.3h-1.3V2.1H285.2z"/>
	<path class="st15" d="M296.5,8c0.8,1,1.2,2.5,1.2,4.3h-8.8c0.1,1.3,0.4,2.4,1.1,3.1c0.7,0.8,1.6,1.1,2.7,1.1c1,0,1.8-0.3,2.4-0.8
		c0.5-0.4,0.9-1.1,1.2-1.9h1.3c-0.3,1-0.7,1.9-1.4,2.6c-0.9,0.8-2,1.2-3.4,1.2c-1.5,0-2.8-0.5-3.7-1.6c-0.9-1-1.4-2.5-1.4-4.2
		c0-1.6,0.4-2.9,1.3-4c0.9-1.1,2.1-1.7,3.7-1.7C294.3,6.2,295.6,6.8,296.5,8z M290,8.4c-0.7,0.7-1,1.7-1.1,2.9h7.5
		c-0.2-2.6-1.5-4-3.8-4C291.5,7.3,290.7,7.7,290,8.4z"/>
	<path class="st15" d="M309.2,2.1v15.3H308v-2.1c-0.8,1.6-2,2.4-3.8,2.4c-1.6,0-2.8-0.6-3.7-1.7c-0.8-1-1.2-2.4-1.2-4
		c0-1.6,0.4-2.9,1.2-4c0.9-1.2,2.1-1.7,3.6-1.7c1.7,0,3,0.9,3.8,2.6V2.1H309.2z M301.5,8.7c-0.6,0.8-0.9,1.9-0.9,3.3
		c0,1.4,0.3,2.5,0.9,3.3c0.7,0.9,1.6,1.4,2.8,1.4c1.2,0,2.1-0.5,2.8-1.3c0.6-0.8,0.9-1.9,0.9-3.1v-0.3c0-1.3-0.3-2.4-1-3.3
		c-0.7-0.9-1.6-1.3-2.6-1.3C303.1,7.3,302.1,7.8,301.5,8.7z"/>
	<path class="st15" d="M327.8,3.3c1,0.8,1.6,2,1.7,3.5h-1.3c-0.2-1.2-0.6-2.1-1.3-2.7s-1.7-0.9-3-0.9c-1.2,0-2.2,0.2-2.9,0.6
		c-0.8,0.5-1.2,1.2-1.2,2.1c0,0.8,0.5,1.5,1.4,2c0.4,0.2,1.4,0.5,2.9,1c1.9,0.5,3.2,1,3.9,1.4c1.2,0.7,1.9,1.8,1.9,3.2
		c0,1.3-0.5,2.3-1.6,3.1c-1,0.7-2.4,1.1-4.1,1.1c-1.7,0-3.1-0.4-4.1-1.2c-1.1-0.9-1.8-2.3-1.9-4.1h1.3c0.1,1.4,0.6,2.5,1.5,3.1
		c0.8,0.6,1.8,0.9,3.2,0.9c1.3,0,2.4-0.3,3.2-0.8c0.8-0.5,1.2-1.2,1.2-2.1c0-1-0.5-1.8-1.5-2.4c-0.5-0.3-1.6-0.7-3.3-1.2
		c-1.8-0.5-2.9-0.9-3.4-1.2c-1.2-0.7-1.7-1.6-1.7-2.8c0-1.3,0.5-2.3,1.6-3c1-0.7,2.2-1,3.7-1C325.5,2.1,326.8,2.5,327.8,3.3z"/>
	<path class="st15" d="M334.5,6.5h2.8v1.1h-2.8V15c0,0.5,0.1,0.8,0.3,1c0.2,0.2,0.5,0.3,0.9,0.3h1.4v1.1h-1.5
		c-0.8,0-1.4-0.2-1.8-0.7c-0.3-0.4-0.5-1-0.5-1.8V7.6h-2.3V6.5h2.3v-3l1.3-0.5V6.5z"/>
	<path class="st15" d="M340.5,6.5v6.6c0,1.1,0.2,2,0.7,2.5c0.5,0.6,1.3,0.9,2.3,0.9c0.8,0,1.6-0.3,2.2-1c0.6-0.6,1-1.5,1.1-2.5V6.5
		h1.3v10.9h-1.3v-1.8c-0.8,1.4-2.1,2.1-3.6,2.1c-2.6,0-4-1.5-4-4.5V6.5H340.5z"/>
	<path class="st15" d="M360.2,2.1v15.3H359v-2.1c-0.8,1.6-2,2.4-3.8,2.4c-1.6,0-2.8-0.6-3.7-1.7c-0.8-1-1.2-2.4-1.2-4
		c0-1.6,0.4-2.9,1.2-4c0.9-1.2,2.1-1.7,3.6-1.7c1.7,0,3,0.9,3.8,2.6V2.1H360.2z M352.5,8.7c-0.6,0.8-0.9,1.9-0.9,3.3
		c0,1.4,0.3,2.5,0.9,3.3c0.7,0.9,1.6,1.4,2.8,1.4c1.2,0,2.1-0.5,2.8-1.3c0.6-0.8,0.9-1.9,0.9-3.1v-0.3c0-1.3-0.3-2.4-1-3.3
		c-0.7-0.9-1.6-1.3-2.6-1.3C354.1,7.3,353.2,7.8,352.5,8.7z"/>
	<path class="st15" d="M364.8,2.9c0.2,0.2,0.3,0.4,0.3,0.7c0,0.3-0.1,0.5-0.3,0.8c-0.2,0.2-0.4,0.3-0.7,0.3c-0.3,0-0.6-0.1-0.8-0.3
		C363.1,4.2,363,4,363,3.7c0-0.3,0.1-0.6,0.3-0.7c0.2-0.2,0.4-0.3,0.8-0.3C364.4,2.6,364.6,2.7,364.8,2.9z M364.7,6.5v10.9h-1.3V6.5
		H364.7z"/>
	<path class="st15" d="M376.6,8c0.9,1.1,1.3,2.4,1.3,4s-0.4,2.9-1.3,4c-1,1.1-2.2,1.7-3.8,1.7s-2.9-0.6-3.8-1.7
		c-0.9-1.1-1.3-2.4-1.3-4s0.4-2.9,1.3-4c0.9-1.2,2.2-1.7,3.8-1.7S375.6,6.8,376.6,8z M369.8,8.8c-0.7,0.8-1,1.9-1,3.2
		c0,1.3,0.3,2.4,1,3.2c0.7,0.9,1.7,1.4,2.9,1.4c1.2,0,2.2-0.5,2.9-1.4c0.6-0.9,1-1.9,1-3.2c0-1.3-0.3-2.4-1-3.2
		c-0.7-1-1.7-1.4-2.9-1.4C371.5,7.3,370.5,7.8,369.8,8.8z"/>
	<path class="st15" d="M398.8,15.6c0.2,0.2,0.3,0.4,0.3,0.8c0,0.3-0.1,0.5-0.3,0.8c-0.2,0.2-0.5,0.3-0.8,0.3s-0.5-0.1-0.8-0.3
		c-0.2-0.2-0.3-0.4-0.3-0.7c0-0.3,0.1-0.6,0.3-0.8c0.2-0.2,0.5-0.3,0.8-0.3S398.6,15.4,398.8,15.6z M398.7,2.4l-0.2,11.1h-1
		l-0.2-11.1H398.7z"/>
	<path class="st15" d="M422.4,3.2c0.8,0.7,1.1,1.7,1.1,2.9c0,0.9-0.3,1.7-0.8,2.4c-0.2,0.3-0.8,0.8-1.7,1.6c-0.5,0.4-0.8,0.8-1,1.2
		c-0.3,0.5-0.4,1-0.4,1.6v0.6h-1.3v-0.6c0-0.6,0.1-1.2,0.4-1.7c0.3-0.6,0.9-1.4,1.9-2.3c0.5-0.5,0.8-0.8,1-1
		c0.4-0.6,0.7-1.2,0.7-1.8c0-0.9-0.3-1.6-0.8-2.1c-0.5-0.5-1.3-0.8-2.3-0.8c-1.1,0-2,0.4-2.5,1.1c-0.5,0.6-0.8,1.5-0.8,2.6h-1.3
		c0-1.4,0.4-2.6,1.2-3.4c0.8-1,2-1.4,3.5-1.4C420.5,2.1,421.6,2.5,422.4,3.2z M419.7,15.6c0.2,0.2,0.3,0.4,0.3,0.8
		c0,0.3-0.1,0.5-0.3,0.8c-0.2,0.2-0.5,0.3-0.8,0.3c-0.3,0-0.6-0.1-0.8-0.3c-0.2-0.2-0.3-0.4-0.3-0.7c0-0.3,0.1-0.6,0.3-0.8
		c0.2-0.2,0.5-0.3,0.8-0.3C419.2,15.3,419.5,15.4,419.7,15.6z"/>
</g>
</svg>
