<?xml version="1.0" encoding="utf-8"?>
<!-- Generator: Adobe Illustrator 24.3.0, SVG Export Plug-In . SVG Version: 6.00 Build 0)  -->
<svg version="1.1" id="图层_1" xmlns="http://www.w3.org/2000/svg" xmlns:xlink="http://www.w3.org/1999/xlink" x="0px" y="0px"
	 viewBox="0 0 394 21.7" style="enable-background:new 0 0 394 21.7;" xml:space="preserve">
<style type="text/css">
	.st0{fill:none;stroke:#AF8A6D;stroke-width:7.0866;stroke-miterlimit:10;}
	.st1{fill:none;stroke:#7B5744;stroke-width:5.6693;stroke-miterlimit:10;}
	.st2{fill:none;stroke:#EEDFBE;stroke-width:8.5039;stroke-miterlimit:10;}
	.st3{fill:none;}
	.st4{fill:#BB474B;}
	.st5{fill:#A7C349;}
	.st6{fill:#E0EDF2;stroke:#E0EDF2;stroke-width:0.2835;stroke-miterlimit:10;}
	.st7{fill:#E0EDF2;stroke:#E0EDF2;stroke-width:0.1417;stroke-miterlimit:10;}
	.st8{fill:#E0EDF2;stroke:#E0EDF2;stroke-width:0.4252;stroke-miterlimit:10;}
	.st9{fill:#E0EDF2;stroke:#E0EDF2;stroke-width:0.5669;stroke-miterlimit:10;}
	.st10{fill:#E0EDF2;stroke:#E0EDF2;stroke-width:0.7087;stroke-miterlimit:10;}
	.st11{fill:#E0EDF2;}
	.st12{fill:#7C5543;stroke:#7B5744;stroke-miterlimit:10;}
	.st13{fill:#ECDDBB;stroke:#EEDFBE;stroke-miterlimit:10;}
	.st14{fill:#AF896D;stroke:#AF8A6D;stroke-miterlimit:10;}
	.st15{fill:#7B5744;}
	.st16{fill:#EEDFBE;}
	.st17{fill:#AF8A6D;}
	.st18{clip-path:url(#SVGID_2_);}
	.st19{fill:none;stroke:#AF8A6D;stroke-width:28.346;stroke-linecap:round;stroke-miterlimit:10;}
	.st20{fill:none;stroke:#7B5744;stroke-width:28.346;stroke-linecap:round;stroke-miterlimit:10;}
	.st21{fill:none;stroke:#EEDFBE;stroke-width:28.346;stroke-linecap:round;stroke-miterlimit:10;}
	.st22{clip-path:url(#SVGID_4_);fill:#010000;}
	.st23{fill:#010000;}
	.st24{fill:none;stroke:#EEDFBE;stroke-width:6;stroke-linecap:round;stroke-linejoin:round;}
	.st25{fill:none;stroke:#AF8A6D;stroke-width:13.1913;stroke-linecap:round;stroke-miterlimit:10;}
	.st26{fill:none;stroke:#EEDFBE;stroke-width:13.1913;stroke-linecap:round;stroke-miterlimit:10;}
	.st27{fill:none;stroke:#7B5744;stroke-width:13.1913;stroke-linecap:round;stroke-miterlimit:10;}
	.st28{fill:none;stroke:#7B5744;stroke-width:13.2334;stroke-linecap:round;stroke-miterlimit:10;}
	.st29{fill:#BD8A6D;}
	.st30{fill:#F2DEBA;}
	.st31{fill:#885441;}
	.st32{fill:none;stroke:#AF8A6D;stroke-width:4.0495;stroke-linecap:round;stroke-miterlimit:10;}
	.st33{fill:none;stroke:#EEDFBE;stroke-width:4.0495;stroke-linecap:round;stroke-miterlimit:10;}
	.st34{fill:none;stroke:#7B5744;stroke-width:4.0495;stroke-linecap:round;stroke-miterlimit:10;}
	.st35{fill:none;stroke:#A7C349;stroke-width:3;stroke-linecap:round;}
	.st36{fill:none;stroke:#BB474B;stroke-width:3;stroke-linecap:round;}
	.st37{enable-background:new    ;}
</style>
<g id="组_3518" transform="translate(0 -2298)">
	<g>
		<defs>
			<rect id="SVGID_1_" x="535" y="-550.5" width="1920" height="4106"/>
		</defs>
		<clipPath id="SVGID_2_">
			<use xlink:href="#SVGID_1_"  style="overflow:visible;"/>
		</clipPath>
		<g id="组_3517" class="st18">
			<g id="组_3516">
			</g>
		</g>
	</g>
</g>
<g class="st37">
	<path class="st15" d="M8.3,13.2c-0.8,0.3-1.7,0.7-2.8,1.1V19c0,0.1-0.3,0.3-0.8,0.3H4.5v-4.7c-0.9,0.4-1.9,0.7-3,1.1
		c-0.1,0.3-0.2,0.4-0.4,0.5l-0.8-1.4c0.9-0.1,2.4-0.5,4.3-1v-3.8H1.9l-0.6,0.5L0.1,9.5c0.3-0.1,0.6-0.3,1-0.4C1.4,8,2,6.4,2.5,4.7
		H0.2L0,4.1h2.6c0.4-1.4,0.8-2.8,1-3.8l1.5,0.6C5.1,1.1,4.9,1.3,4.4,1.3C4.2,2,3.9,3,3.6,4.1h2.8l0.8-1c0,0,0.9,0.7,1.5,1.3
		c0,0.2-0.3,0.3-0.5,0.3H3.4C2.9,6.4,2.4,8.1,1.9,9.4h2.6V5.9l1.7,0.2C6.1,6.4,6,6.6,5.5,6.7v2.7h0.8L7,8.5c0,0,0.9,0.7,1.4,1.2
		c-0.1,0.2-0.3,0.3-0.5,0.3H5.5v3.5c0.9-0.2,1.8-0.5,2.7-0.7L8.3,13.2z M18,16.7c0,0,1,0.8,1.6,1.3c0,0.2-0.3,0.3-0.5,0.3H7.9
		l-0.1-0.6h5.5v-5.3H9l-0.2-0.6h7.4l0.9-1.1c0,0,1,0.8,1.6,1.3c-0.1,0.2-0.3,0.3-0.5,0.3h-4.1v5.3h3L18,16.7z M9.1,2.6L8.9,2H16
		l0.8-0.7L18,2.4c-0.2,0.2-0.4,0.2-0.9,0.3c-0.7,1.2-1.6,2.4-2.7,3.6c5.9,2.4,5.6,5,4.2,4.4c-0.8-1.2-2.9-3-4.5-4.1
		c-1.6,1.7-3.6,3.3-5.7,4.6l-0.3-0.3c3-2.1,6.2-5.3,7.8-8.2H9.1z"/>
	<path class="st15" d="M25.9,8.6c3.9,2,3.3,4.3,2.1,3.6c-0.3-0.9-1.3-2.1-2.1-3v9.7c0,0.2-0.4,0.4-0.7,0.4H25V8.4
		c-0.8,2.4-2.1,4.6-3.7,6.4L21,14.5c1.8-2.5,3-5.6,3.6-8.8h-2.9L21.5,5H25V0.3l1.7,0.2c0,0.3-0.2,0.5-0.7,0.6V5h1.3L28,4
		c0,0,0.9,0.7,1.5,1.3c-0.1,0.2-0.3,0.3-0.5,0.3h-3.1V8.6z M28.5,9.8c1.5-2.1,2.7-5.2,3.2-8.6l1.7,0.4c-0.1,0.2-0.3,0.4-0.8,0.5
		c-0.7,3.2-2,6.1-3.8,8L28.5,9.8z M36,12.5c5.2,4.4,4.6,7.7,3.3,6.7c-0.1-0.5-0.4-1.2-0.7-1.8c-2.1,0.3-5.2,0.8-8.7,1.3
		c-0.1,0.2-0.2,0.4-0.4,0.4l-0.8-1.5c0,0,0.4-0.1,0.5-0.2c1.6-2.3,3.7-6.8,4.5-9.3l1.7,0.8C35.3,9,35,9.2,34.6,9.1
		c-1,2.5-3,6.1-4.8,8.6c1.8-0.1,5.1-0.4,8.7-0.8c-0.8-1.5-1.9-3.1-2.8-4.2L36,12.5z M37.2,0.9c-0.2,0.2-0.4,0.5-0.7,0.8
		c0.7,2.8,2,5.8,4.2,7.3l-0.1,0.2c-0.4,0-0.7,0.3-0.9,0.6c-2.2-2.1-3.3-5.2-4-9.3L36,0.4L37.2,0.9z"/>
	<path class="st15" d="M49.3,1c-0.1,0.2-0.3,0.3-0.8,0.2c6,3.4,5.6,6.4,4.3,5.6c-0.7-1.6-2.8-3.8-4.5-5.2c-0.9,1.6-2.2,3.5-3.9,5.2
		l1.2,0.5h4.7l0.6-0.6l1.3,1c-0.1,0.2-0.3,0.3-0.8,0.3c0,3.3-0.1,4.9-0.7,5.4c-0.4,0.4-1,0.5-1.6,0.5c0-0.2-0.1-0.5-0.3-0.7
		c-0.3-0.1-1-0.3-1.6-0.4l0-0.4c0.7,0,1.9,0.1,2.2,0.1c0.3,0,0.4,0,0.6-0.2c0.3-0.3,0.3-1.8,0.3-4.6h-5.2v9c0,0.4,0.1,0.6,1.2,0.6
		h2.6c1.3,0,2.2,0,2.5-0.1c0.3,0,0.4-0.1,0.4-0.3c0.1-0.4,0.4-1.9,0.6-3.4h0.3l0.1,3.5c0.4,0.1,0.5,0.3,0.5,0.5
		c0,0.5-0.7,0.7-4.3,0.7h-2.7c-1.6,0-2-0.3-2-1.3V6.9c-0.7,0.7-1.4,1.4-2.2,2l-0.3-0.2c2.5-2.3,4.7-5.8,5.8-8.4L49.3,1z M56.7,3.2
		c0,0.3-0.2,0.5-0.8,0.6v10.3c0,0.1-0.4,0.4-0.7,0.4H55V3L56.7,3.2z M60.8,0.5C60.8,0.8,60.6,1,60.1,1v16.6c0,0.9-0.2,1.5-1.7,1.7
		c0-0.3-0.1-0.6-0.4-0.7c-0.3-0.2-0.8-0.3-1.6-0.4v-0.4c0,0,2,0.2,2.3,0.2c0.4,0,0.5-0.1,0.5-0.4V0.3L60.8,0.5z"/>
	<path class="st15" d="M80.6,4.6c0,0,1,0.8,1.7,1.4c-0.1,0.2-0.3,0.3-0.5,0.3h-18l-0.2-0.6h11.2c0.5-0.8,1-2,1.4-2.8l1.7,0.7
		c-0.1,0.2-0.4,0.4-0.8,0.3c-0.4,0.5-1.1,1.3-1.7,1.8h4.3L80.6,4.6z M66.5,14.4c0.2,2.2-0.9,3.5-1.6,4c-0.4,0.3-1,0.5-1.3,0.2
		c-0.2-0.3,0-0.6,0.3-0.8c0.9-0.5,2-1.8,2.1-3.4L66.5,14.4z M65.1,2.2h8c-0.4-0.7-1.4-1.5-2.2-1.9L71,0c2.7,0.4,3.1,1.7,2.7,2.2h4.4
		L79,1c0,0,1,0.8,1.7,1.4c-0.1,0.2-0.3,0.3-0.5,0.3H65.2L65.1,2.2z M67.8,13.1v0.4c0,0.1-0.4,0.3-0.8,0.3h-0.1V7.2l1,0.5h9.7L78.2,7
		l1.4,1.1c-0.1,0.2-0.5,0.3-0.9,0.4v4.9c0,0.1-0.5,0.4-0.8,0.4h-0.1v-0.6H67.8z M67.8,8.3v1.8h10V8.3H67.8z M77.8,12.5v-1.8h-10v1.8
		H77.8z M68.7,2.9c3,1.2,2.1,3.3,1.2,2.5c-0.1-0.8-0.8-1.8-1.4-2.4L68.7,2.9z M77.8,17.8c0.4,0.1,0.5,0.2,0.5,0.4
		c0,0.5-0.6,0.7-4.7,0.7h-3.1c-1.7,0-2-0.2-2-1v-3.6l1.5,0.2c0,0.2-0.2,0.4-0.6,0.5v2.8c0,0.3,0.1,0.4,1.2,0.4h3c1.5,0,2.6,0,2.9,0
		c0.3,0,0.4-0.1,0.4-0.3c0.1-0.3,0.3-1.2,0.5-2.2h0.3L77.8,17.8z M71.9,13.6c3.6,1.4,3.1,3.9,2,3.1c-0.2-1-1.3-2.3-2.3-3L71.9,13.6z
		 M78.6,14.3c4.2,1.9,3.6,4.5,2.5,3.7c-0.3-1.2-1.6-2.7-2.7-3.5L78.6,14.3z"/>
	<path class="st15" d="M84.7,21.2c1.6-0.9,2-2.1,2.1-3c-0.9-0.3-1.7-0.6-1.7-1.5c0-0.6,0.4-1.1,1.2-1.1c0.9,0,1.4,0.8,1.4,1.9
		c0,1.4-0.6,3.3-2.6,4.3L84.7,21.2z"/>
	<path class="st15" d="M112.7,12.1c-0.2,0.2-0.3,0.3-0.8,0.1c-1.2,0.8-3.4,1.9-5.3,2.7c1.8,1.6,4.3,2.7,7.2,3.3l0,0.2
		c-0.5,0-0.8,0.3-1,0.8c-4.8-1.3-8-3.8-9.5-8.3h-3.9v6.9c1.5-0.5,3.7-1.2,5.9-2l0.1,0.4c-1.5,0.6-4,1.7-6.7,2.8
		c-0.1,0.2-0.3,0.3-0.4,0.3l-0.5-1.1c0.5-0.3,0.6-0.4,0.6-0.8v-15l1.2,0.7h9.4l0.6-0.7l1.4,1.1c-0.1,0.2-0.5,0.3-0.9,0.4v7.3
		c0,0.1-0.5,0.4-0.8,0.4h-0.1V11h-5.5c0.6,1.4,1.4,2.6,2.5,3.6c1.7-1,3.9-2.4,5-3.4L112.7,12.1z M109.4,6.7v-3h-9.9v3H109.4z
		 M99.5,10.3h9.9v-3h-9.9V10.3z M103.2,0.1c3.1,1.5,2.3,3.4,1.4,2.7c-0.2-0.8-1-1.8-1.6-2.5L103.2,0.1z"/>
	<path class="st15" d="M124,5.5c-0.2,0.2-0.4,0.2-0.8,0.3c-0.3,2.9-0.8,5.7-2.1,8.1c3.5,2.5,3.1,4.1,2,3.6c-0.5-0.8-1.4-1.8-2.5-2.7
		c-1.1,1.8-2.6,3.3-4.9,4.5l-0.3-0.3c2.1-1.3,3.5-2.9,4.5-4.7c-1.2-0.9-2.4-1.8-3.4-2.5c0.5-1.4,1.2-3.8,1.8-6.1h-2.5L115.7,5h2.9
		c0.5-1.9,0.9-3.7,1.1-4.9l1.7,0.4c-0.1,0.3-0.3,0.5-0.8,0.5c-0.2,1.1-0.6,2.5-1,4h2.5l0.7-0.7L124,5.5z M119.4,5.7
		c-0.6,2.1-1.3,4.4-1.9,6.1c1.2,0.5,2.1,1.1,2.9,1.6c1.1-2.3,1.6-4.9,1.8-7.7H119.4z M133.6,8.4c0,0,0.9,0.7,1.5,1.3
		c-0.1,0.2-0.3,0.3-0.5,0.3h-5.1v7.7c0,0.9-0.2,1.5-1.8,1.7c-0.1-0.3-0.2-0.6-0.5-0.7c-0.3-0.2-0.9-0.3-1.8-0.4v-0.4
		c0,0,2.3,0.2,2.7,0.2c0.4,0,0.5-0.1,0.5-0.5V10h-5.1l-0.2-0.6h5.3V5.9l0.8,0.1c0.9-0.9,2-2.3,2.6-3.2h-7.7l-0.2-0.6h8.1l0.8-0.7
		l1.4,1.3c-0.2,0.1-0.4,0.2-0.9,0.2c-0.9,0.8-2.4,2.2-3.6,3.1l0.4,0.1c0,0.3-0.2,0.5-0.7,0.5v2.7h3.3L133.6,8.4z"/>
	<path class="st15" d="M144.1,13.8c-0.9,0.8-2.5,2.2-4.2,3.7c-0.1,0.3-0.3,0.5-0.5,0.6l-0.6-1.3c0.5-0.3,0.6-0.4,0.6-0.7V6.6h-2.6
		l-0.2-0.6h2.8l0.5-0.6l1.1,0.9c-0.1,0.1-0.4,0.3-0.7,0.4V16c1-0.7,2.2-1.6,3.5-2.5L144.1,13.8z M138.4,0.4c4.4,2.3,3.8,4.8,2.6,4
		c-0.4-1.2-1.8-2.9-2.9-3.8L138.4,0.4z M154.3,10c-0.1,0.2-0.4,0.2-0.9,0.3c-0.9,2.1-2.2,3.9-4,5.3c1.8,1.3,4.2,2.2,6.9,2.7l0,0.2
		c-0.5,0-0.8,0.3-1,0.8c-2.7-0.7-4.9-1.6-6.6-3.1c-1.9,1.4-4.3,2.5-7.4,3.2l-0.2-0.4c2.8-0.8,5.1-1.9,7-3.3
		c-1.5-1.4-2.6-3.3-3.4-5.5h-1.2l-0.2-0.6h9.1l0.7-0.7L154.3,10z M146.4,3.4c0,1.9-0.4,4.4-4,6L142.1,9c2.8-1.6,3.3-3.7,3.3-5.7V1
		l1.1,0.6h4.4l0.6-0.6l1.3,1.2c-0.1,0.1-0.4,0.3-0.8,0.3v4.7c0,0.3,0,0.3,0.5,0.3h1c0.4,0,0.8,0,1,0h0.2c0.1,0,0.2,0,0.3-0.1h0.2
		l0.1,0c0.4,0.1,0.5,0.1,0.5,0.4c0,0.4-0.4,0.6-2.4,0.6h-1.2c-1,0-1.2-0.3-1.2-0.9V2.2h-4.8V3.4z M145.2,10.1c0.8,2,2,3.7,3.6,5
		c1.6-1.4,2.8-3,3.6-5H145.2z"/>
	<path class="st15" d="M166.1,14.2c-0.9,0.7-2.6,2-4.4,3.2c-0.1,0.3-0.3,0.5-0.5,0.6l-0.6-1.3c0.5-0.3,0.6-0.4,0.6-0.7V6.6h-3.2
		l-0.2-0.6h3.4l0.5-0.6l1.1,0.9c-0.1,0.1-0.3,0.3-0.7,0.4V16c1-0.6,2.4-1.4,3.7-2.2L166.1,14.2z M160.3,0.3c4.5,2.4,3.8,5,2.6,4.2
		c-0.4-1.3-1.8-3-2.9-4.1L160.3,0.3z M175.3,6.7c0,0,1,0.7,1.6,1.3c-0.1,0.2-0.3,0.3-0.5,0.3h-5.5v10.5c0,0.2-0.4,0.4-0.7,0.4h-0.2
		V8.3h-5.7l-0.1-0.6h5.8V0.3l1.7,0.2c0,0.3-0.2,0.5-0.7,0.6v6.6h3.6L175.3,6.7z"/>
	<path class="st15" d="M178.5,16.5c0-1.6,1.3-2.9,2.9-2.9s2.9,1.3,2.9,2.9c0,1.6-1.3,2.9-2.9,2.9S178.5,18.2,178.5,16.5z
		 M179.2,16.5c0,1.2,1,2.3,2.3,2.3c1.2,0,2.2-1,2.2-2.3c0-1.2-1-2.2-2.2-2.2C180.2,14.3,179.2,15.3,179.2,16.5z"/>
	<path class="st15" d="M201.6,13.7l-0.1,3.2c-1.5,0.9-2.9,1.2-4.5,1.2c-4.5,0-7.5-3.2-7.5-7.9c0-4.7,3.2-7.9,7.5-7.9
		c1.6,0,2.9,0.4,4.3,1.2l0.1,3.2h-0.8l-0.5-2.9c-0.9-0.5-1.8-0.8-2.9-0.8c-3.6,0-6.2,2.7-6.2,7.2c0,4.6,2.5,7.2,6,7.2
		c1.1,0,2.1-0.2,3.2-0.8l0.5-2.9H201.6z"/>
	<path class="st15" d="M203.8,12.5c0-3.8,2.5-5.6,5-5.6c2.5,0,5,1.8,5,5.6c0,3.8-2.5,5.6-5,5.6C206.3,18.1,203.8,16.3,203.8,12.5z
		 M212.5,12.5c0-3.2-1.4-5-3.7-5s-3.7,1.8-3.7,5s1.4,5,3.7,5S212.5,15.7,212.5,12.5z"/>
	<path class="st15" d="M227.9,17.2v0.6H223v-0.6l1.9-0.2c0-1.2,0-2.8,0-4v-2.3c0-2.2-0.8-3-2.1-3c-0.9,0-2.3,0.4-3.8,2V13
		c0,1.1,0,2.8,0.1,4l1.7,0.2v0.6h-4.9v-0.6l1.9-0.2c0-1.2,0-2.9,0-4v-1.2c0-1.4,0-2.6-0.1-3.7l-2-0.1V7.6l2.9-0.7l0.3,0.1l0.1,2.1
		c1.4-1.6,2.9-2.3,4.3-2.3c1.8,0,2.8,1.1,2.8,3.9V13c0,1.2,0,2.9,0,4L227.9,17.2z"/>
	<path class="st15" d="M238.8,15.8c-0.8,1.4-2.1,2.3-4,2.3c-3,0-5-2.2-5-5.6c0-3.5,2.5-5.6,5.2-5.6c1.8,0,3.3,1,3.8,2.6
		c-0.1,0.4-0.4,0.6-0.8,0.6c-0.5,0-0.7-0.3-0.9-0.7l-0.5-1.5c-0.6-0.3-1.1-0.4-1.6-0.4c-2.3,0-3.9,1.9-3.9,4.9c0,2.9,1.7,4.8,4,4.8
		c1.3,0,2.5-0.5,3.4-1.6L238.8,15.8z"/>
	<path class="st15" d="M242.1,12.3c0,3.4,1.9,4.8,4,4.8c1.4,0,2.5-0.6,3.4-1.5l0.3,0.3c-0.9,1.3-2.3,2.1-4,2.1c-2.7,0-5-1.8-5-5.6
		c0-3.4,2.4-5.6,5-5.6c2.6,0,4.2,1.8,4.2,4.2c0,0.5,0,0.9-0.1,1.3H242.1z M247.9,11.7c0.6,0,0.8-0.3,0.8-1c0-1.7-1.1-3.2-3-3.2
		c-1.9,0-3.4,1.7-3.6,4.2H247.9z"/>
	<path class="st15" d="M262.1,17.2c-0.4,0.6-1,0.9-1.7,0.9c-1,0-1.6-0.8-1.8-2c-1.3,1.4-2.3,2.1-3.7,2.1c-1.6,0-2.9-0.9-2.9-2.7
		c0-1.5,1-2.5,3.5-3.4c0.9-0.3,2-0.6,3-0.8v-0.7c0-2.4-0.8-3-2.5-3c-0.6,0-1.2,0.1-1.8,0.4l-0.4,1.5c-0.1,0.5-0.4,0.8-0.8,0.8
		c-0.4,0-0.7-0.3-0.7-0.7c0.4-1.7,1.9-2.6,4.1-2.6c2.3,0,3.4,1,3.4,3.5v5.1c0,1.4,0.4,1.9,1,1.9c0.3,0,0.6-0.1,0.9-0.4L262.1,17.2z
		 M258.6,11.7c-1,0.2-2,0.5-2.8,0.8c-1.9,0.7-2.5,1.6-2.5,2.6c0,1.3,0.8,2,2.1,2c1,0,1.8-0.5,3.2-1.8V11.7z"/>
	<path class="st15" d="M268.4,17.2v0.6h-5.4v-0.6l2.1-0.2c0-1.2,0-2.8,0-4V2.2l-2-0.1V1.6l2.9-0.6l0.3,0.2l-0.1,3.2V13
		c0,1.2,0,2.8,0.1,4L268.4,17.2z"/>
	<path class="st15" d="M271.6,12.3c0,3.4,1.9,4.8,4,4.8c1.4,0,2.5-0.6,3.4-1.5l0.3,0.3c-0.9,1.3-2.3,2.1-4,2.1c-2.7,0-5-1.8-5-5.6
		c0-3.4,2.4-5.6,5-5.6c2.6,0,4.2,1.8,4.2,4.2c0,0.5,0,0.9-0.1,1.3H271.6z M277.4,11.7c0.6,0,0.8-0.3,0.8-1c0-1.7-1.1-3.2-3-3.2
		c-1.9,0-3.4,1.7-3.6,4.2H277.4z"/>
	<path class="st15" d="M292.8,17.2v0.6l-3.3,0.2l0-1.6c-0.9,1.2-2.1,1.7-3.4,1.7c-2.7,0-4.5-2.3-4.5-5.5c0-3.6,2.1-5.8,4.8-5.8
		c1.1,0,2.2,0.5,3.2,1.6V2.2l-2-0.1V1.6l2.9-0.6l0.3,0.2l-0.1,3.1v12.7L292.8,17.2z M289.5,9.1c-1-1-1.9-1.4-2.9-1.4
		c-2,0-3.7,1.5-3.7,4.9c0,3.1,1.5,4.7,3.5,4.7c1.2,0,2.1-0.4,3.1-1.6V9.1z"/>
	<path class="st15" d="M305.2,9.4c3.2,1.3,4.1,2.5,4.1,4.5c0,2.6-2.1,4.1-5.1,4.1c-1.7,0-3.4-0.6-4.3-1.2l0.1-3h0.8l0.4,2.8
		c0.9,0.6,1.7,0.8,2.9,0.8c2.3,0,3.9-1.1,3.9-3.2c0-1.6-0.8-2.4-3.3-3.4l-0.8-0.4c-2.4-1-3.7-2.3-3.7-4.3c0-2.6,2.1-3.9,4.7-3.9
		c1.6,0,2.6,0.4,3.7,1.1l-0.1,2.9h-0.8l-0.4-2.6C306.7,3.1,305.9,3,305,3c-2,0-3.5,0.9-3.5,2.9c0,1.6,1,2.5,2.8,3.2L305.2,9.4z"/>
	<path class="st15" d="M317.4,17.2c-0.5,0.6-1.3,0.9-2.3,0.9c-1.6,0-2.4-0.9-2.4-2.7c0-0.5,0-0.9,0-1.7V7.9h-2.2V7.3l2.2-0.2
		l0.4-3.2h0.9L314,7.1h3.1v0.7H314v7.5c0,1.3,0.5,1.9,1.5,1.9c0.6,0,1.1-0.2,1.6-0.5L317.4,17.2z"/>
	<path class="st15" d="M330.2,17.2v0.6l-2.8,0.2l-0.1-2.2c-1.1,1.4-2.5,2.3-4.1,2.3c-2,0-3-1.1-3-4.2l0.1-5.9l-1.8-0.2V7.2l2.9-0.3
		l0.2,0.3l-0.1,3.2v3.4c0,2.4,0.8,3.2,2.2,3.2c1.3,0,2.5-0.7,3.6-2l0-7.1l-1.8-0.2V7.2l2.9-0.3l0.2,0.3l-0.1,3.2V17L330.2,17.2z"/>
	<path class="st15" d="M343.5,17.2v0.6l-3.3,0.2l0-1.6c-0.9,1.2-2.1,1.7-3.4,1.7c-2.7,0-4.5-2.3-4.5-5.5c0-3.6,2.1-5.8,4.8-5.8
		c1.1,0,2.2,0.5,3.2,1.6V2.2l-2-0.1V1.6l2.9-0.6l0.3,0.2l-0.1,3.1v12.7L343.5,17.2z M340.2,9.1c-1-1-1.9-1.4-2.9-1.4
		c-2,0-3.7,1.5-3.7,4.9c0,3.1,1.5,4.7,3.5,4.7c1.2,0,2.1-0.4,3.1-1.6V9.1z"/>
	<path class="st15" d="M349.9,17.2v0.6H345v-0.6l1.9-0.2c0-1.2,0-2.9,0-4v-1.2c0-1.3,0-2.5-0.1-3.7l-2-0.1V7.6l3-0.7l0.3,0.1
		l-0.1,2.8V13c0,1.1,0,2.8,0,4L349.9,17.2z M346.4,2.6c0-0.6,0.5-1,1.1-1c0.6,0,1.1,0.4,1.1,1c0,0.6-0.5,1-1.1,1
		C346.9,3.7,346.4,3.3,346.4,2.6z"/>
	<path class="st15" d="M352,12.5c0-3.8,2.5-5.6,5-5.6c2.5,0,5,1.8,5,5.6c0,3.8-2.5,5.6-5,5.6C354.5,18.1,352,16.3,352,12.5z
		 M360.7,12.5c0-3.2-1.4-5-3.7-5c-2.2,0-3.7,1.8-3.7,5s1.4,5,3.7,5C359.3,17.4,360.7,15.7,360.7,12.5z"/>
	<path class="st15" d="M378.1,16.6c0-0.7,0.5-1.2,1.2-1.2c0.7,0,1.2,0.5,1.2,1.2c0,0.6-0.5,1.2-1.2,1.2
		C378.6,17.7,378.1,17.2,378.1,16.6z M380.2,2.7c0,1.2-0.1,3.1-0.4,6.9l-0.2,3.6H379l-0.2-3.6c-0.3-3.8-0.4-5.7-0.4-6.9
		c0-0.9,0.3-1.3,1-1.3C379.9,1.4,380.2,1.8,380.2,2.7z"/>
	<path class="st15" d="M387.6,4.5c-0.1,0.5-0.4,0.7-0.8,0.7c-0.3,0-0.5-0.1-0.7-0.5c0.3-2,2.1-3,3.9-3c2.4,0,4,1.2,4,3.4
		c0,1.7-0.8,2.8-2.6,4.2c-1.4,1.1-1.8,1.5-1.8,2.5v1.4h-0.6c-0.1-0.8-0.2-1.4-0.2-2c0-0.9,0.4-1.3,1.8-2.6c1.7-1.5,2-2.2,2-3.5
		c0-1.8-1.1-2.8-2.9-2.8c-0.7,0-1.2,0.1-1.8,0.3L387.6,4.5z M390.6,16.7c0,0.6-0.5,1.1-1.2,1.1s-1.2-0.5-1.2-1.1
		c0-0.7,0.5-1.1,1.2-1.1S390.6,16,390.6,16.7z"/>
</g>
</svg>
