<?xml version="1.0" encoding="utf-8"?>
<!-- Generator: Adobe Illustrator 24.3.0, SVG Export Plug-In . SVG Version: 6.00 Build 0)  -->
<svg version="1.1" id="图层_1" xmlns="http://www.w3.org/2000/svg" xmlns:xlink="http://www.w3.org/1999/xlink" x="0px" y="0px"
	 viewBox="0 0 409.3 23.1" style="enable-background:new 0 0 409.3 23.1;" xml:space="preserve">
<style type="text/css">
	.st0{fill:none;stroke:#AF8A6D;stroke-width:7.0866;stroke-miterlimit:10;}
	.st1{fill:none;stroke:#7B5744;stroke-width:5.6693;stroke-miterlimit:10;}
	.st2{fill:none;stroke:#EEDFBE;stroke-width:8.5039;stroke-miterlimit:10;}
	.st3{fill:none;}
	.st4{fill:#BB474B;}
	.st5{fill:#A7C349;}
	.st6{fill:#E0EDF2;stroke:#E0EDF2;stroke-width:0.2835;stroke-miterlimit:10;}
	.st7{fill:#E0EDF2;stroke:#E0EDF2;stroke-width:0.1417;stroke-miterlimit:10;}
	.st8{fill:#E0EDF2;stroke:#E0EDF2;stroke-width:0.4252;stroke-miterlimit:10;}
	.st9{fill:#E0EDF2;stroke:#E0EDF2;stroke-width:0.5669;stroke-miterlimit:10;}
	.st10{fill:#E0EDF2;stroke:#E0EDF2;stroke-width:0.7087;stroke-miterlimit:10;}
	.st11{fill:#E0EDF2;}
	.st12{fill:#7C5543;stroke:#7B5744;stroke-miterlimit:10;}
	.st13{fill:#ECDDBB;stroke:#EEDFBE;stroke-miterlimit:10;}
	.st14{fill:#AF896D;stroke:#AF8A6D;stroke-miterlimit:10;}
	.st15{fill:#7B5744;}
	.st16{fill:#EEDFBE;}
	.st17{fill:#AF8A6D;}
	.st18{clip-path:url(#SVGID_2_);}
	.st19{fill:none;stroke:#AF8A6D;stroke-width:28.346;stroke-linecap:round;stroke-miterlimit:10;}
	.st20{fill:none;stroke:#7B5744;stroke-width:28.346;stroke-linecap:round;stroke-miterlimit:10;}
	.st21{fill:none;stroke:#EEDFBE;stroke-width:28.346;stroke-linecap:round;stroke-miterlimit:10;}
	.st22{clip-path:url(#SVGID_4_);fill:#010000;}
	.st23{fill:#010000;}
	.st24{fill:none;stroke:#EEDFBE;stroke-width:6;stroke-linecap:round;stroke-linejoin:round;}
	.st25{fill:none;stroke:#AF8A6D;stroke-width:13.1913;stroke-linecap:round;stroke-miterlimit:10;}
	.st26{fill:none;stroke:#EEDFBE;stroke-width:13.1913;stroke-linecap:round;stroke-miterlimit:10;}
	.st27{fill:none;stroke:#7B5744;stroke-width:13.1913;stroke-linecap:round;stroke-miterlimit:10;}
	.st28{fill:none;stroke:#7B5744;stroke-width:13.2334;stroke-linecap:round;stroke-miterlimit:10;}
	.st29{fill:#BD8A6D;}
	.st30{fill:#F2DEBA;}
	.st31{fill:#885441;}
	.st32{fill:none;stroke:#AF8A6D;stroke-width:4.0495;stroke-linecap:round;stroke-miterlimit:10;}
	.st33{fill:none;stroke:#EEDFBE;stroke-width:4.0495;stroke-linecap:round;stroke-miterlimit:10;}
	.st34{fill:none;stroke:#7B5744;stroke-width:4.0495;stroke-linecap:round;stroke-miterlimit:10;}
	.st35{fill:none;stroke:#A7C349;stroke-width:3;stroke-linecap:round;}
	.st36{fill:none;stroke:#BB474B;stroke-width:3;stroke-linecap:round;}
	.st37{enable-background:new    ;}
</style>
<g id="组_3518" transform="translate(0 -2298)">
	<g>
		<defs>
			<rect id="SVGID_1_" x="531.7" y="-819.2" width="1920" height="4106"/>
		</defs>
		<clipPath id="SVGID_2_">
			<use xlink:href="#SVGID_1_"  style="overflow:visible;"/>
		</clipPath>
		<g id="组_3517" class="st18">
			<g id="组_3516">
				<g id="组_3110">
					<g id="组_3109">
						<g id="组_3108">
							<path id="路径_3419" class="st19" d="M476.3,2147.9l-62.1,61.1c-9.2,9-12.7,22.3-9.3,34.7l13.3,47.7"/>
							<path id="路径_3420" class="st20" d="M348.8,2318.6l104.7,23.2c13.8,3.1,28.1-2.4,36.4-13.9l24.8-34.3"/>
						</g>
					</g>
				</g>
			</g>
		</g>
	</g>
</g>
<g class="st37">
	<path class="st15" d="M9.4,13.1c-0.6,0.4-1.3,0.8-2.2,1.3v4.9C7.2,19.4,6.4,20,5,20H4.5v-4.1c-0.7,0.3-1.3,0.7-2.1,1
		c-0.1,0.3-0.3,0.5-0.6,0.5l-1.5-3.2c0.9-0.1,2.4-0.3,4.2-0.5v-3.1h-1l-1,1.2L0,10.1C0.2,10,0.5,9.8,0.8,9.6c0.5-1.2,1.1-3,1.6-4.7
		H0.5L0.4,4.3h2.2C3,2.7,3.4,1.2,3.6,0.2L7,1.1C6.9,1.4,6.7,1.6,6.2,1.6C6,2.3,5.7,3.3,5.4,4.3h1.1l1.3-1.5c0,0,1.4,1,2.3,1.8
		C9.9,4.8,9.7,4.9,9.4,4.9H5.2L4.8,6L8,6.3c0,0.3-0.2,0.5-0.8,0.6v2.8l0.8-1.1c0,0,1.2,0.9,1.9,1.6c-0.1,0.2-0.3,0.3-0.5,0.3H7.2
		v2.7C8,13.1,8.7,13,9.4,12.9L9.4,13.1z M4.8,6c-0.4,1.4-0.9,2.9-1.3,4h1.3V6z M18.3,16.7c0,0,1.6,1.2,2.5,2
		c-0.1,0.2-0.3,0.3-0.6,0.3H8.7l-0.2-0.6H13v-5.9h-3l-0.2-0.6h5.7l1.4-1.8c0,0,1.6,1.2,2.5,2c-0.1,0.2-0.3,0.3-0.6,0.3H16v5.9h0.9
		L18.3,16.7z M9.7,3L9.5,2.4h5.7l1.7-1.6l2.8,2.4c-0.1,0.2-0.3,0.3-0.9,0.4c-0.6,1.1-1.3,2.2-2.2,3.2c5.6,0.9,4.5,5.2,1.8,4.2
		c-0.7-1.1-1.8-2.3-2.8-3.2c-1.8,1.7-4,3.1-6.6,4l-0.1-0.2c2.8-2.1,5.2-5.4,6.4-8.5H9.7z"/>
	<path class="st15" d="M35.6,2.1c-0.1,0.3-0.3,0.5-0.8,0.5c-1,3.2-2.4,5.8-4.3,7.6c1,1.7-0.7,3.4-2.2,2c0-1-0.3-2.1-0.7-3v10.1
		c0,0.2-1.2,0.8-2.4,0.8h-0.6v-7.9c-0.8,1.2-1.8,2.4-3,3.4l-0.2-0.2c1.5-2.5,2.4-6,2.9-9.2h-2.5l-0.2-0.6h3V0.2l3.7,0.4
		c0,0.3-0.2,0.5-0.8,0.6v4l1.1-1.8c0,0,1.5,1.5,2.3,2.4c-0.1,0.2-0.3,0.3-0.6,0.3h-2.8v2.2c1.2,0.4,2,0.9,2.6,1.4
		c0.7-2.4,1.3-5.6,1.5-8.6L35.6,2.1z M36.3,12.6c7.5,3.3,4.9,9.5,1.9,6.8c-0.1-0.8-0.3-1.7-0.5-2.5c-1.6,0.7-3.8,1.6-6.3,2.5
		c-0.3,0.4-0.5,0.6-0.9,0.7l-1-3.7c0,0,0.7-0.2,0.9-0.4c1.1-1.2,2.8-5.5,3.2-8l3.9,1.8c-0.1,0.2-0.3,0.4-0.7,0.4
		c-1.2,1.9-3.2,4.5-5.1,6.2c1.5-0.1,3.6-0.2,5.8-0.3c-0.4-1.2-0.9-2.3-1.3-3.3L36.3,12.6z M38.4,1.1c-0.3,0.3-0.7,0.7-1.2,1.1
		C38.2,5,40,6.9,41.8,7.8l0,0.3c-0.7,0.6-1.5,1.9-1.7,3c-2.4-2.1-3.4-5.2-3.8-10.8l0.2-0.1L38.4,1.1z"/>
	<path class="st15" d="M53.6,16.3c0.8,0.3,1,0.6,1,1.1c0,1.2-1.1,1.6-4.7,1.6h-2.1c-2.4,0-3-0.5-3-2.4V8.3c-0.7,0.6-1.5,1.1-2.4,1.6
		l-0.2-0.2C44.7,7,46.4,2.9,47,0.1l3.6,1.5c-0.1,0.2-0.3,0.4-0.8,0.4c5.8,1,4.9,5.1,2.8,4.9l1.1,0.9c-0.1,0.2-0.4,0.3-0.8,0.4
		c0,4.2-0.1,5.3-0.9,5.9c-0.6,0.4-1.3,0.6-2.4,0.6c0-0.8,0-1.3-0.3-1.6c-0.3-0.3-0.6-0.6-1.2-0.7v-0.3c0.4,0,1.1,0.1,1.4,0.1
		c0.3,0,0.4,0,0.5-0.1c0.2-0.2,0.2-1.4,0.2-4.3h-2.6v8.4c0,0.4,0.1,0.5,0.8,0.5h1.8c0.6,0,1.1,0,1.4,0c0.3,0,0.5-0.1,0.6-0.3
		c0.3-0.4,0.7-1.4,1.1-2.6h0.2L53.6,16.3z M51.4,5.9c-0.4-1.2-1.2-2.3-1.9-3.3c-0.8,1.3-1.7,2.7-2.9,4l1.3,0.5H50L51.4,5.9L51.4,5.9
		z M57.5,14.5c0,0.2-1.2,0.7-2.2,0.7h-0.5V2.6l3.4,0.3c0,0.3-0.2,0.4-0.7,0.5V14.5z M62.4,0.6c0,0.3-0.3,0.5-0.8,0.6V17
		c0,1.9-0.4,3-3.6,3.3c-0.1-0.9-0.2-1.6-0.6-2s-0.8-0.8-2-1V17c0,0,2.4,0.1,2.9,0.1c0.4,0,0.5-0.1,0.5-0.4V0.2L62.4,0.6z"/>
	<path class="st15" d="M80.8,4.2c0,0,1.6,1.2,2.6,2c-0.1,0.2-0.3,0.3-0.6,0.3h-4.4L81,8.5c-0.1,0.2-0.4,0.4-0.8,0.5v4.3
		c0,0.2-1.5,0.8-2.5,0.8h-0.5v-0.8H70v0.2c0,0.3-1.3,0.9-2.5,0.9H67c1,2.5,0.1,4.2-1,4.8c-0.8,0.4-1.9,0-2.1-0.9
		c-0.2-0.9,0.3-1.5,1.1-1.8c0.8-0.3,1.7-1.2,1.7-2.3h0.3l0.1,0.2V6.7l3.1,1.2h6.8l1.2-1.3h-14L63.9,6h6.3c-0.2-0.1-0.4-0.2-0.5-0.3
		c0-0.9-0.5-1.9-0.9-2.4l0.1-0.1c4.1,0,3.8,2.3,2.5,2.8h3.5c0.2-0.8,0.4-2,0.5-2.8h-10l-0.2-0.6h7.3c-0.3-0.9-1-1.8-1.7-2.3l0.1-0.1
		c4.1-0.6,4.5,1.5,3.5,2.4h3.4l1.4-1.8c0,0,1.6,1.2,2.6,2c-0.1,0.2-0.3,0.3-0.6,0.3h-5l2.6,0.7c-0.1,0.3-0.3,0.4-0.8,0.4
		c-0.7,0.5-1.8,1.2-2.8,1.7h3.7L80.8,4.2z M78.4,17c0.8,0.3,1,0.6,1,1.1c0,1.2-1.1,1.6-5.2,1.6h-2.6c-2.5,0-3-0.4-3-2.2v-3.3
		l3.4,0.3c0,0.3-0.2,0.5-0.7,0.5v2c0,0.3,0.1,0.3,0.8,0.3h2.4c0.7,0,1.5,0,1.8,0c0.3,0,0.5-0.1,0.7-0.3c0.3-0.3,0.6-1,1.1-2.1h0.2
		L78.4,17z M70,8.4v1.8h7.2V8.4H70z M77.1,12.6v-1.8H70v1.8H77.1z M72.4,13.5c5.6,0.2,3.4,4.5,1.2,2.9c-0.1-1-0.7-2.1-1.3-2.8
		L72.4,13.5z M79,14.1c6.4,1.1,4.1,6.1,1.6,4.2c-0.1-1.4-0.9-3-1.8-4.1L79,14.1z"/>
	<path class="st15" d="M84.5,22.4c1.7-0.9,2.4-2.1,2.6-3.1c-0.9-0.3-2.6-0.9-2.6-2.5c0-1,0.8-2,2-2c1.2,0,2.1,0.8,2.1,2.4
		c0,2.1-1.1,4.6-3.8,5.8L84.5,22.4z"/>
	<path class="st15" d="M113.8,13.2c-0.1,0.2-0.4,0.3-0.8,0.1c-1.4,0.5-3.2,1.1-5,1.5c2,1.3,4.5,2,7.2,2.4l0,0.3
		c-1.2,0.3-2.1,1.3-2.5,2.7c-4.4-1.5-7.2-3.8-8.4-9.4h-2.8v5.7c1.2-0.3,2.6-0.5,4.1-0.8l0,0.2c-1.2,0.9-3.4,2.4-6.2,3.9
		c-0.2,0.2-0.4,0.3-0.6,0.4l-1.4-3c0.9-0.5,1-0.8,1-1.3V2l3.4,1.3h2.8c-0.3-0.1-0.5-0.2-0.8-0.4c0-1-0.5-2-1-2.6l0.1-0.1
		c4.8-0.1,4.2,2.7,2.5,3.1h3l1.4-1.5l2.8,2.1c-0.1,0.2-0.4,0.4-0.8,0.4v6.4c0,0.1-0.1,0.2-0.3,0.3L113.8,13.2z M108.6,6.6V3.9h-7.1
		v2.8H108.6z M101.5,10.1h7.1V7.2h-7.1V10.1z M104.7,10.7c0.6,1.6,1.6,2.8,2.7,3.7c1.1-0.9,2.2-2,3-3c-0.4,0.1-0.9,0.2-1.3,0.2h-0.5
		v-0.9H104.7z"/>
	<path class="st15" d="M133.8,7.7c0,0,1.7,1.4,2.6,2.3c-0.1,0.2-0.3,0.3-0.6,0.3h-4.6v6.6c0,2-0.4,3.1-3.6,3.3
		c-0.1-0.9-0.2-1.6-0.5-2.1c-0.3-0.4-0.7-0.8-1.7-0.9c-0.1,1.1-1.5,1.7-2.6,0.9c-0.4-0.6-0.8-1.3-1.3-1.9c-1.3,1.6-3,2.9-5.4,3.9
		l-0.2-0.2c1.9-1.4,3.2-3.1,4.2-5.1c-1.1-1-2.3-1.9-3.4-2.6c0.5-1.5,1.2-3.9,1.7-6.3h-2.2L116,5.3h2.5c0.5-2.1,0.9-4,1-5.1l3.6,0.6
		c-0.1,0.3-0.2,0.5-0.8,0.5c-0.2,1-0.5,2.4-0.9,4h0.8l1.4-1.5L126,6c-0.1,0.2-0.4,0.3-0.8,0.4c-0.3,2.7-0.9,5.3-2.2,7.6
		c1.8,1,2.4,2,2.5,2.8c0.5,0,2,0.1,2.4,0.1c0.3,0,0.4-0.1,0.4-0.3v-6.4h-3.5l-0.2-0.6h3.7V6.2l1.8,0.1c0.6-1.1,1.3-2.5,1.7-3.5h-7.3
		l-0.2-0.6h7.5l1.6-1.5l2.6,2.3c-0.2,0.2-0.4,0.3-0.9,0.3c-1.1,0.9-2.8,2.1-4.3,3.1l1.2,0.1c0,0.3-0.3,0.5-0.7,0.6v2.6h1.1
		L133.8,7.7z M121.2,5.9c-0.6,2.2-1.2,4.6-1.9,6.6c0.6,0.2,1.1,0.4,1.6,0.6c0.8-2.2,1.2-4.6,1.4-7.1H121.2z"/>
	<path class="st15" d="M145.4,13.4c-0.7,1-2.1,2.7-4,4.7c-0.2,0.6-0.5,1-0.8,1.2l-2.1-3.1c1.1-0.6,1.2-0.8,1.2-1.3V6.5h-2.3
		l-0.2-0.6h2.5l1.3-1.3l2.4,2c-0.1,0.1-0.4,0.3-0.9,0.4v7.7c0.9-0.4,1.9-0.9,2.8-1.4L145.4,13.4z M138.1,0.4c7.2,0.1,5.6,5.5,2.7,4
		c-0.6-1.4-1.8-2.9-2.8-3.9L138.1,0.4z M156,10.7c-0.1,0.3-0.4,0.3-0.9,0.4c-0.8,1.8-1.9,3.4-3.3,4.7c1.7,0.6,3.5,1,5.4,1.2l0,0.3
		c-1.4,0.3-2.3,1.4-2.7,2.9c-2-0.7-3.7-1.4-5.1-2.6c-2,1.2-4.5,2.1-7.5,2.6l-0.1-0.2c2.5-0.9,4.6-2.2,6.2-3.8
		c-1.1-1.4-1.9-3.2-2.5-5.6h-1.5L144,9.9h7.5l1.5-1.4h-0.4c-1.9,0-2.1-0.5-2.1-2.3V2.4h-2.2v1c0,1.8-0.5,5-5.3,6.6L143,9.8
		c2.3-2,2.6-4.5,2.6-6.4V0.7l3.3,1.1h1.6l1.4-1.5l2.5,1.9c-0.1,0.1-0.4,0.3-0.7,0.3v2.9c0,0.2,0,0.3,0.3,0.3h0.5h0.5
		c0.1,0,0.4,0,0.6,0c0.1,0,0.4-0.1,0.6-0.1h0.2l0.1,0c0.6,0.3,0.8,0.6,0.8,1.1c0,1.1-1,1.7-3.2,1.7h-0.4L156,10.7z M146,10.5
		c0.7,1.9,2,3.2,3.5,4.2c1-1.3,1.7-2.6,2.2-4.2H146z"/>
	<path class="st15" d="M164.1,14.9c1-0.4,2.2-0.8,3.3-1.3l0.1,0.2c-0.8,0.9-2.4,2.7-4.6,4.6c-0.2,0.5-0.5,0.8-0.7,1l-2.1-3.1
		c1-0.6,1.2-0.8,1.2-1.3V6.6h-2.8l-0.2-0.6h3.1l1.3-1.3l2.4,2c-0.1,0.1-0.3,0.3-0.8,0.4V14.9z M160.1,0.4c7.1,0.1,5.2,5.5,2.3,3.9
		C162,3,160.9,1.5,160,0.6L160.1,0.4z M175.6,6c0,0,1.7,1.4,2.8,2.4c-0.1,0.2-0.3,0.3-0.6,0.3h-4.8V19c0,0.3-1.3,1.1-2.5,1.1h-0.6
		V8.6h-4.3l-0.2-0.6h4.5V0.3l3.9,0.4c0,0.3-0.2,0.5-0.8,0.6v6.8h1.1L175.6,6z"/>
	<path class="st15" d="M179.2,16.9c0-1.7,1.3-3,3-3c1.7,0,3,1.3,3,3c0,1.7-1.3,3-3,3C180.6,19.9,179.2,18.6,179.2,16.9z M180,16.9
		c0,1.2,1,2.2,2.2,2.2c1.2,0,2.2-1,2.2-2.2c0-1.2-1-2.2-2.2-2.2C181,14.7,180,15.7,180,16.9z"/>
	<path class="st15" d="M203.1,17.3c-1.3,0.8-2.8,1.2-4.8,1.2c-4.6,0-8.4-2.7-8.4-8.3c0-5.6,4-8.2,8.5-8.2c1.8,0,3.1,0.4,4.5,1.2
		l-0.1,3.8h-1.2l-1.2-4c-0.5-0.1-1-0.2-1.5-0.2c-2.9,0-5.2,2.3-5.2,7.5c0,5.2,2.3,7.4,5.3,7.4c0.6,0,1.1-0.1,1.6-0.3l1.1-3.9h1.2
		L203.1,17.3z"/>
	<path class="st15" d="M204.7,12.4c0-3.7,2.6-6,5.9-6c3.3,0,6,2.3,6,6s-2.4,6.2-6,6.2C207,18.5,204.7,16.1,204.7,12.4z M213,12.4
		c0-3.7-0.8-5.3-2.3-5.3s-2.4,1.7-2.4,5.3c0,3.7,0.8,5.4,2.4,5.4S213,16.1,213,12.4z"/>
	<path class="st15" d="M231.4,17.5v0.7h-6.1v-0.7l1.3-0.1c0-1.2,0-3,0-4.2v-3c0-1.6-0.5-2.2-1.4-2.2c-0.6,0-1.5,0.4-2.4,1.2v4.1
		c0,1.2,0,3,0,4.2l1.2,0.1v0.7H218v-0.7l1.4-0.1c0-1.2,0-3,0-4.2v-1.7c0-1.4,0-2.1-0.1-3.1l-1.6-0.2V7.7l4.6-1.3l0.3,0.2l0.1,1.8
		c1.4-1.6,2.5-2.1,3.9-2.1c2,0,3.4,1.3,3.4,4.1v2.8c0,1.2,0,3,0.1,4.2L231.4,17.5z"/>
	<path class="st15" d="M240.1,7.1c-0.2,0-0.4,0-0.6,0c-1.9,0-3.2,1.8-3.2,5c0,3.1,1.5,4.9,3.8,4.9c1.2,0,2.1-0.5,2.9-1.5l0.4,0.3
		c-1,1.7-2.5,2.7-4.8,2.7c-3.2,0-5.9-2.2-5.9-6.1c0-3.9,2.9-6.1,6.4-6.1c2.4,0,4.1,1.4,4.3,3.3c-0.2,0.8-0.7,1.1-1.4,1.1
		c-0.9,0-1.6-0.5-1.7-2.1L240.1,7.1z"/>
	<path class="st15" d="M255.4,15.7c-0.9,1.8-2.5,2.8-4.7,2.8c-3.5,0-6-2.2-6-6.1c0-3.9,3-6,6-6c3.2,0,4.9,2.1,4.9,4.8
		c0,0.5,0,0.9-0.1,1.3h-7.1c0.1,3.3,1.7,4.6,3.7,4.6c1.5,0,2.4-0.6,3.1-1.6L255.4,15.7z M251.2,11.6c1,0,1.2-0.5,1.2-1.8
		c0-1.8-0.8-2.8-1.9-2.8c-1.2,0-2.1,1.3-2.2,4.6L251.2,11.6z"/>
	<path class="st15" d="M268.9,16.9c-0.5,1.2-1.3,1.6-2.7,1.6c-1.4,0-2.2-0.7-2.5-1.8c-1.1,1.2-1.9,1.8-3.5,1.8
		c-1.8,0-3.1-1.1-3.1-2.9c0-1.9,1.1-2.9,4.5-3.9c0.6-0.2,1.3-0.4,2.1-0.5V9.9c0-2.2-0.5-2.8-2.1-2.8c-0.3,0-0.6,0-0.9,0.1l-0.1,1.5
		c-0.1,1.4-0.8,2-1.6,2c-0.8,0-1.3-0.4-1.4-1.1c0.2-2,2-3.2,5.2-3.2c3,0,4.2,1.3,4.2,4.3v5.6c0,0.8,0.3,1.1,0.7,1.1
		c0.3,0,0.5-0.2,0.9-0.8L268.9,16.9z M259.5,7.4l-0.3,0.1L259.5,7.4z M263.6,11.7c-0.5,0.1-0.9,0.3-1.2,0.4
		c-1.5,0.6-2.2,1.6-2.2,3.1c0,1.3,0.6,1.8,1.6,1.8c0.6,0,1-0.3,1.8-1V11.7z"/>
	<path class="st15" d="M275.9,17.5v0.7h-6.4v-0.7l1.4-0.1c0-1.4,0-2.9,0-4.2V2.4l-1.5-0.1V1.7l4.7-0.9l0.3,0.2l-0.1,3.4v8.8
		c0,1.4,0,2.9,0.1,4.2L275.9,17.5z"/>
	<path class="st15" d="M288,15.7c-0.9,1.8-2.5,2.8-4.7,2.8c-3.5,0-6-2.2-6-6.1c0-3.9,3-6,6-6c3.1,0,4.9,2.1,4.9,4.8
		c0,0.5,0,0.9-0.1,1.3h-7.1c0.1,3.3,1.7,4.6,3.7,4.6c1.5,0,2.4-0.6,3.1-1.6L288,15.7z M283.7,11.6c1,0,1.2-0.5,1.2-1.8
		c0-1.8-0.8-2.8-1.9-2.8c-1.2,0-2.1,1.3-2.2,4.6L283.7,11.6z"/>
	<path class="st15" d="M302.4,17.5v0.7l-4.5,0.3l-0.2-1.3c-0.9,0.9-2,1.4-3.3,1.4c-2.8,0-4.9-2.2-4.9-6c0-3.9,2.3-6.2,5.2-6.2
		c1.2,0,2.2,0.5,3,1.4V2.4l-1.7-0.2V1.7l4.8-0.9l0.3,0.2l-0.1,3.4v13.1L302.4,17.5z M297.7,8.3c-0.5-0.4-1-0.5-1.6-0.5
		c-1.6,0-2.9,1.1-2.9,4.6c0,3.4,1.2,4.6,2.8,4.6c0.6,0,1.1-0.1,1.6-0.5V8.3z"/>
	<path class="st15" d="M315.9,8.8c3.1,1.4,4.3,2.7,4.3,5c0,2.8-2.1,4.7-6.1,4.7c-1.7,0-3.6-0.4-4.9-1.3l0.1-3.6h1.2l1.1,3.7
		c0.6,0.2,1.3,0.3,2.1,0.3c2.1,0,3.2-1,3.2-2.6c0-1.4-0.6-2.2-2.3-2.9l-1-0.4c-2.8-1.3-4.3-2.7-4.3-5.2c0-2.8,2.3-4.5,5.7-4.5
		c1.6,0,3.1,0.4,4.3,1.2l-0.2,3.4H318l-1.1-3.5c-0.4-0.2-0.8-0.3-1.4-0.3c-1.8,0-3,0.9-3,2.5c0,1.4,0.8,2.2,2.3,2.9L315.9,8.8z"/>
	<path class="st15" d="M329.3,16.8c-0.6,1.1-1.7,1.7-3.3,1.7c-2.1,0-3.3-1-3.3-3.3c0-0.8,0-1.4,0-2.3V7.5h-1.7V6.9l1.9-0.2l1.1-3.4
		h2.2l0,3.4h2.6v0.9h-2.6v7.9c0,1.1,0.5,1.6,1.4,1.6c0.5,0,0.9-0.2,1.4-0.7L329.3,16.8z"/>
	<path class="st15" d="M343.1,17.5v0.6l-4.6,0.3l-0.1-2.1c-1,1.2-2.4,2.2-3.9,2.2c-2.1,0-3.4-1.1-3.4-4.3l0.1-6.2l-1.5-0.3V7.1
		l4.7-0.6l0.3,0.2l-0.1,3.4v4.4c0,1.7,0.7,2.2,1.7,2.2c0.8,0,1.6-0.4,2.2-1l0.1-7.8L337,7.7V7.2l4.6-0.7l0.3,0.2l-0.1,3.4v7.3
		L343.1,17.5z"/>
	<path class="st15" d="M357.2,17.5v0.7l-4.5,0.3l-0.2-1.3c-0.9,0.9-2,1.4-3.3,1.4c-2.8,0-4.9-2.2-4.9-6c0-3.9,2.3-6.2,5.2-6.2
		c1.2,0,2.2,0.5,3,1.4V2.4l-1.7-0.2V1.7l4.8-0.9l0.3,0.2l-0.1,3.4v13.1L357.2,17.5z M352.5,8.3c-0.5-0.4-1-0.5-1.6-0.5
		c-1.6,0-2.9,1.1-2.9,4.6c0,3.4,1.2,4.6,2.8,4.6c0.6,0,1.1-0.1,1.6-0.5V8.3z"/>
	<path class="st15" d="M364.7,17.5v0.7h-6.1v-0.7l1.4-0.1c0-1.2,0-3,0-4.2v-1.7c0-1.3,0-2.1-0.1-3.2l-1.6-0.2V7.6l4.8-1.3l0.3,0.2
		l-0.1,3.4v3.2c0,1.2,0,3,0,4.2L364.7,17.5z M359.8,2.6c0-1,0.8-1.7,1.8-1.7c1,0,1.8,0.7,1.8,1.7c0,1-0.8,1.7-1.8,1.7
		C360.6,4.3,359.8,3.5,359.8,2.6z"/>
	<path class="st15" d="M366,12.4c0-3.7,2.6-6,5.9-6c3.3,0,6,2.3,6,6s-2.4,6.2-6,6.2C368.4,18.5,366,16.1,366,12.4z M374.3,12.4
		c0-3.7-0.8-5.3-2.3-5.3s-2.4,1.7-2.4,5.3c0,3.7,0.8,5.4,2.4,5.4S374.3,16.1,374.3,12.4z"/>
	<path class="st15" d="M392.4,16.5c0-1,0.8-1.9,1.9-1.9c1.1,0,1.9,0.9,1.9,1.9c0,1-0.8,1.8-1.9,1.8
		C393.2,18.3,392.4,17.5,392.4,16.5z M396.2,4c0,1-0.2,2.6-1,6.4l-0.5,2.5H394l-0.5-2.5c-0.8-3.8-1-5.4-1-6.4c0-1.4,0.8-2.1,1.9-2.1
		S396.2,2.6,396.2,4z"/>
	<path class="st15" d="M403.2,5c-0.2,1.1-0.7,1.6-1.6,1.6c-0.5,0-1-0.2-1.3-0.7c0.1-2.6,1.7-4,4.6-4c2.9,0,4.5,1.4,4.5,3.4
		c0,1.7-0.6,2.6-2.8,4.1c-1.2,0.8-2.1,1.4-2.1,2.6v0.8h-0.9c-0.3-0.8-0.4-1.3-0.4-2c0-1,0.5-1.6,1.5-2.7c0.9-0.9,1.5-1.7,1.5-2.9
		c0-1.4-1-2.4-2.6-2.4L403.2,5z M406.2,16.4c0,1.1-0.9,2-2,2c-1.2,0-2-0.9-2-2c0-1.1,0.9-2,2-2C405.4,14.4,406.2,15.3,406.2,16.4z"
		/>
</g>
</svg>
