<?xml version="1.0" encoding="utf-8"?>
<!-- Generator: Adobe Illustrator 24.3.0, SVG Export Plug-In . SVG Version: 6.00 Build 0)  -->
<svg version="1.1" id="图层_1" xmlns="http://www.w3.org/2000/svg" xmlns:xlink="http://www.w3.org/1999/xlink" x="0px" y="0px"
	 viewBox="0 0 404.3 19.7" style="enable-background:new 0 0 404.3 19.7;" xml:space="preserve">
<style type="text/css">
	.st0{fill:none;stroke:#AF8A6D;stroke-width:7.0866;stroke-miterlimit:10;}
	.st1{fill:none;stroke:#7B5744;stroke-width:5.6693;stroke-miterlimit:10;}
	.st2{fill:none;stroke:#EEDFBE;stroke-width:8.5039;stroke-miterlimit:10;}
	.st3{fill:none;}
	.st4{fill:#BB474B;}
	.st5{fill:#A7C349;}
	.st6{fill:#E0EDF2;stroke:#E0EDF2;stroke-width:0.2835;stroke-miterlimit:10;}
	.st7{fill:#E0EDF2;stroke:#E0EDF2;stroke-width:0.1417;stroke-miterlimit:10;}
	.st8{fill:#E0EDF2;stroke:#E0EDF2;stroke-width:0.4252;stroke-miterlimit:10;}
	.st9{fill:#E0EDF2;stroke:#E0EDF2;stroke-width:0.5669;stroke-miterlimit:10;}
	.st10{fill:#E0EDF2;stroke:#E0EDF2;stroke-width:0.7087;stroke-miterlimit:10;}
	.st11{fill:#E0EDF2;}
	.st12{fill:#7C5543;stroke:#7B5744;stroke-miterlimit:10;}
	.st13{fill:#ECDDBB;stroke:#EEDFBE;stroke-miterlimit:10;}
	.st14{fill:#AF896D;stroke:#AF8A6D;stroke-miterlimit:10;}
	.st15{fill:#7B5744;}
	.st16{fill:#EEDFBE;}
	.st17{fill:#AF8A6D;}
	.st18{clip-path:url(#SVGID_2_);}
	.st19{fill:none;stroke:#AF8A6D;stroke-width:28.346;stroke-linecap:round;stroke-miterlimit:10;}
	.st20{fill:none;stroke:#7B5744;stroke-width:28.346;stroke-linecap:round;stroke-miterlimit:10;}
	.st21{fill:none;stroke:#EEDFBE;stroke-width:28.346;stroke-linecap:round;stroke-miterlimit:10;}
	.st22{clip-path:url(#SVGID_4_);fill:#010000;}
	.st23{fill:#010000;}
	.st24{fill:none;stroke:#EEDFBE;stroke-width:6;stroke-linecap:round;stroke-linejoin:round;}
	.st25{fill:none;stroke:#AF8A6D;stroke-width:13.1913;stroke-linecap:round;stroke-miterlimit:10;}
	.st26{fill:none;stroke:#EEDFBE;stroke-width:13.1913;stroke-linecap:round;stroke-miterlimit:10;}
	.st27{fill:none;stroke:#7B5744;stroke-width:13.1913;stroke-linecap:round;stroke-miterlimit:10;}
	.st28{fill:none;stroke:#7B5744;stroke-width:13.2334;stroke-linecap:round;stroke-miterlimit:10;}
	.st29{fill:#BD8A6D;}
	.st30{fill:#F2DEBA;}
	.st31{fill:#885441;}
	.st32{fill:none;stroke:#AF8A6D;stroke-width:4.0495;stroke-linecap:round;stroke-miterlimit:10;}
	.st33{fill:none;stroke:#EEDFBE;stroke-width:4.0495;stroke-linecap:round;stroke-miterlimit:10;}
	.st34{fill:none;stroke:#7B5744;stroke-width:4.0495;stroke-linecap:round;stroke-miterlimit:10;}
	.st35{fill:none;stroke:#A7C349;stroke-width:3;stroke-linecap:round;}
	.st36{fill:none;stroke:#BB474B;stroke-width:3;stroke-linecap:round;}
	.st37{enable-background:new    ;}
</style>
<g class="st37">
	<path class="st15" d="M4.8,19.2c-0.4,0-0.7-0.3-0.7-1v-3.3c0-0.1,0-0.1-0.1-0.1l-2.9,0.6c-0.7,0.1-1,0-1.1-0.5
		c-0.1-0.4,0.2-0.7,0.9-0.9L4,13.5c0.1,0,0.1-0.1,0.1-0.2v-2.9c0-0.1,0-0.1-0.1-0.1H2.7c-0.3,0-0.6,0-1,0c-0.6,0-0.9-0.1-1.1-0.5
		C0.4,9.6,0.4,9.2,0.7,8.7L1,8.1c0.2-0.3,0.3-0.6,0.4-0.9C1.6,7,1.9,5.9,2.3,4.1c0-0.1,0-0.1-0.1-0.1H1C0.4,4,0,3.8,0,3.4
		c0-0.4,0.3-0.7,1-0.7h1.5c0.1,0,0.2,0,0.2-0.1l0.3-1.4c0.1-0.7,0.4-0.9,0.9-0.8c0.5,0.1,0.6,0.5,0.5,1.1L4,2.6c0,0.1,0,0.1,0.1,0.1
		h2.7c0.7,0,1,0.2,1,0.7c0,0.4-0.3,0.7-1,0.7h-3C3.7,4,3.6,4.1,3.6,4.2C3.1,5.9,2.6,7.5,2,9c0,0.1,0,0.1,0.1,0.1h2
		c0.1,0,0.1,0,0.1-0.1V6.9c0-0.7,0.2-1,0.7-1c0.4,0,0.7,0.3,0.7,1V9c0,0.1,0,0.1,0.1,0.1h1.1c0.7,0,1,0.2,1,0.6c0,0.4-0.3,0.7-1,0.7
		H5.5c-0.1,0-0.1,0-0.1,0.1v2.7c0,0.1,0,0.1,0.1,0.1L6.7,13c0.7-0.1,1,0,1.1,0.4c0.1,0.4-0.2,0.7-0.9,0.8l-1.4,0.3
		c-0.1,0-0.1,0.1-0.1,0.2v3.5C5.4,18.9,5.2,19.2,4.8,19.2z M8.8,18.7c-0.7,0-1-0.2-1-0.7s0.3-0.7,1-0.7h3.8c0.1,0,0.1,0,0.1-0.1
		v-5.1c0-0.1,0-0.1-0.1-0.1H10c-0.7,0-1-0.2-1-0.7s0.3-0.7,1-0.7h6.9c0.7,0,1,0.2,1,0.7s-0.3,0.7-1,0.7h-2.6c-0.1,0-0.1,0-0.1,0.1
		v5.1c0,0.1,0,0.1,0.1,0.1h3.5c0.7,0,1,0.2,1,0.7s-0.3,0.7-1,0.7H8.8z M9.4,9.6c-0.6,0.3-1,0.2-1.2-0.2c-0.2-0.4,0-0.8,0.7-1
		c0.8-0.3,1.9-1,3.3-2.1c1.5-1.1,2.6-2.3,3.4-3.6c0-0.1,0-0.1,0-0.1H9.9c-0.7,0-1-0.2-1-0.7c0-0.4,0.3-0.7,1-0.7l6.2-0.1
		c0.4,0,0.8,0.1,1.2,0.3c0.3,0.2,0.3,0.6,0.1,1.2c-0.5,1-1.4,2.2-2.9,3.5c-0.1,0-0.1,0.1,0,0.1c2.1,1,3.3,1.7,3.5,1.8
		c0.5,0.4,0.7,0.8,0.4,1.1c-0.3,0.4-0.7,0.4-1.2-0.1c-0.5-0.4-1.8-1-3.7-2c-0.1-0.1-0.3-0.1-0.4,0C11.9,8.3,10.7,9.1,9.4,9.6z"/>
	<path class="st15" d="M24.9,19.3c-0.4,0-0.7-0.3-0.7-1V9.2c0-0.1,0-0.1,0,0c-0.8,2.7-1.5,4.4-2,5.1c-0.4,0.6-0.8,0.7-1.2,0.4
		c-0.4-0.3-0.4-0.7,0-1.2c0.4-0.5,0.9-1.5,1.5-3c0.6-1.5,1.1-2.9,1.4-4.4C24.1,6,24,6,24,6h-2c-0.7,0-1-0.2-1-0.7
		c0-0.4,0.3-0.7,1-0.7h2.1c0.1,0,0.1,0,0.1-0.1V1.2c0-0.7,0.2-1,0.7-1s0.7,0.3,0.7,1v3.4c0,0.1,0,0.1,0.1,0.1h1.6c0.7,0,1,0.2,1,0.7
		c0,0.4-0.3,0.7-1,0.7h-1.6c-0.1,0-0.1,0-0.1,0.1v0.4c0,0.2,0.1,0.5,0.2,0.7l2.1,3.1c0.4,0.6,0.4,1,0,1.2c-0.4,0.2-0.6,0.2-0.7,0.1
		s-0.6-1.1-1.5-2.7c0-0.1-0.1,0-0.1,0v9.5C25.6,18.9,25.3,19.3,24.9,19.3z M29.8,8.8c-0.4,0.5-0.8,0.6-1.2,0.3
		c-0.4-0.3-0.3-0.7,0.1-1.2c1.1-1.2,1.9-3.3,2.5-6.1c0.1-0.7,0.4-0.9,0.9-0.8c0.5,0.1,0.7,0.5,0.5,1.2C31.9,5.1,31,7.3,29.8,8.8z
		 M38.8,18.5c-0.4,0.2-0.8-0.1-1-0.7l-0.1-0.4c0-0.1-0.1-0.1-0.2-0.1l-6.1,0.8c-0.3,0-0.6,0.1-1,0.2L30,18.4c-0.6,0.1-1,0-1.2-0.5
		c-0.2-0.4-0.1-0.9,0.2-1.4l0.5-0.8c0.2-0.3,0.3-0.5,0.5-0.8c0.2-0.4,0.6-1.3,1.2-2.8c0.7-1.9,1.2-3.2,1.4-4.1
		c0.2-0.7,0.5-0.9,1-0.8c0.5,0.1,0.6,0.5,0.4,1.2c-0.8,2.9-2,5.7-3.5,8.4c0,0.1,0,0.1,0.1,0.1l6.3-0.7c0.1,0,0.1-0.1,0.1-0.1
		c-0.6-1.2-0.9-2-1.2-2.4c-0.3-0.6-0.3-1,0-1.2c0.4-0.2,0.7,0,1.1,0.6c1.1,1.9,1.8,3.4,2.2,4.4C39.4,18,39.3,18.4,38.8,18.5z
		 M39.3,9c-0.4,0.3-0.8,0.2-1.2-0.4C36.9,7,36,4.8,35.2,2c-0.2-0.6,0-1,0.4-1.2c0.4-0.1,0.7,0.2,0.9,0.8c0.6,2.4,1.6,4.4,2.8,6.1
		C39.7,8.2,39.7,8.7,39.3,9z"/>
	<path class="st15" d="M43.3,8.2c-0.5,0.4-0.9,0.4-1.2,0.1c-0.3-0.4-0.1-0.7,0.4-1.1c0.7-0.5,1.5-1.4,2.6-2.8c1-1.3,1.7-2.4,2.1-3.2
		c0.3-0.6,0.6-0.8,1-0.7c0.4,0.2,0.5,0.5,0.3,1c0,0.1,0,0.2,0.1,0.3c2.2,2.3,3.6,3.9,4.2,4.7c0.4,0.5,0.4,1,0,1.2
		c-0.4,0.3-0.8,0.1-1.1-0.5c-0.6-0.9-1.9-2.4-3.8-4.4c0-0.1-0.1-0.1-0.1,0C46.5,5.1,45,6.9,43.3,8.2z M46.5,19c-1,0-1.6-0.1-2-0.4
		c-0.4-0.3-0.5-0.9-0.5-1.7v-8c0-0.7,0.3-1,1-1h5.5c0.7,0,1,0.3,0.9,1l-0.3,3c0,0.4-0.1,0.7-0.1,1.1c-0.1,0.5-0.2,0.8-0.3,0.9
		s-0.3,0.3-0.5,0.6c0,0-0.3,0.1-0.8,0.1s-0.9,0.1-1.3,0c-0.7,0-1-0.2-1-0.7c0-0.4,0.4-0.6,1-0.5h0.1c0.3,0,0.6,0,0.7,0
		c0.1,0,0.2,0,0.3-0.1c0.1-0.1,0.2-0.2,0.4-0.5c0.1-0.1,0.2-1.3,0.3-3.6c0-0.1,0-0.1-0.1-0.1h-4.5c-0.1,0-0.1,0-0.1,0.1v7.7
		c0,0.4,0.1,0.6,0.2,0.8c0.2,0.1,0.5,0.2,1,0.2h3.8c0.5,0,0.8-0.2,0.9-0.5c0.1-0.4,0.2-0.8,0.2-1.2c0-0.7,0.3-1,0.7-1
		c0.4,0,0.6,0.4,0.6,1.1c-0.1,0.9-0.2,1.7-0.5,2.1C52,18.8,51.4,19,50.5,19H46.5z M55.2,14.2c-0.4,0-0.7-0.3-0.7-1V3.6
		c0-0.7,0.2-1,0.7-1c0.4,0,0.7,0.3,0.7,1v9.5C55.8,13.8,55.6,14.2,55.2,14.2z M56.1,19.2c-0.7,0-1-0.2-1-0.7c0-0.4,0.3-0.7,1-0.7
		l1.5,0c0.3,0,0.6,0,0.8,0s0.3-0.2,0.3-0.5V1.5c0-0.7,0.2-1,0.7-1s0.7,0.3,0.7,1v15.9c0,0.5-0.1,0.9-0.2,1.1
		c-0.1,0.2-0.3,0.4-0.5,0.4c-0.2,0.1-0.4,0.2-0.7,0.3C58.4,19.2,57.5,19.3,56.1,19.2z"/>
	<path class="st15" d="M68.3,3.1c0.4-0.2,0.7,0,1,0.5c0.2,0.4,0.4,0.7,0.5,1c0.1,0.3,0.1,0.5,0,0.5c-0.1,0-0.1,0,0,0h4.8
		c0.2,0,0.3-0.1,0.4-0.2c0.3-0.6,0.6-1,0.6-1.2c0.3-0.6,0.6-0.9,1-0.7c0.4,0.2,0.5,0.6,0.1,1.2l-0.4,0.8c0,0.1,0,0.1,0.1,0.1h4
		c0.7,0,1,0.2,1,0.6s-0.3,0.6-1,0.6H64.5c-0.7,0-1-0.2-1-0.6s0.3-0.6,1-0.6h3.8c0.1,0,0.1,0,0.1-0.1c-0.2-0.6-0.3-1.1-0.5-1.3
		C67.8,3.5,67.9,3.3,68.3,3.1z M65.1,18.2c-0.5,0.5-0.9,0.5-1.2,0.2c-0.3-0.3-0.2-0.7,0.4-1.1c0.4-0.3,0.7-0.9,1.1-1.9
		c0.3-0.6,0.6-0.9,1-0.7c0.4,0.2,0.4,0.6,0.2,1.2C66,17,65.5,17.8,65.1,18.2z M65.4,3c-0.7,0-1-0.2-1-0.6c0-0.4,0.3-0.6,1-0.6H72
		c0.1,0,0.1,0,0.1-0.1l-0.2-0.4c-0.3-0.6-0.3-1,0.1-1.2c0.4-0.2,0.6-0.2,0.8,0.1C73,0.5,73.2,1,73.5,1.6c0.1,0.1,0.2,0.2,0.3,0.2
		h5.5c0.7,0,1,0.2,1,0.6c0,0.4-0.3,0.6-1,0.6H65.4z M67,13.5c-0.7,0-1-0.3-1-1v-4c0-0.7,0.3-1,1-1h11c0.7,0,1,0.3,1,1v4
		c0,0.7-0.3,1-1,1H67z M67.3,9.9c0,0.1,0,0.1,0.1,0.1h10.1c0.1,0,0.1,0,0.1-0.1V8.5c0-0.1,0-0.1-0.1-0.1H67.4c-0.1,0-0.1,0-0.1,0.1
		V9.9z M67.3,12.4c0,0.1,0,0.1,0.1,0.1h10.1c0.1,0,0.1,0,0.1-0.1V11c0-0.1,0-0.1-0.1-0.1H67.4c-0.1,0-0.1,0-0.1,0.1V12.4z
		 M70.8,19.1c-1,0-1.7-0.1-2.1-0.4c-0.4-0.2-0.5-0.7-0.5-1.4v-1.8c0-0.7,0.2-1,0.7-1c0.4,0,0.7,0.3,0.7,1v1.8c0,0.2,0.1,0.4,0.2,0.5
		s0.5,0.1,1.1,0.1h3.8c0.4,0,0.7-0.1,0.9-0.4c0.1-0.2,0.2-0.4,0.2-0.6c0-0.7,0.3-1,0.7-1c0.4,0,0.6,0.4,0.5,1c0,0.6-0.2,1.1-0.5,1.5
		c-0.3,0.4-0.9,0.6-1.7,0.6H70.8z M70.9,13.7c0.2-0.3,0.6-0.3,1.2,0c0.9,0.5,1.6,0.9,1.8,1.2c0.5,0.5,0.6,0.8,0.3,1.1
		c-0.3,0.3-0.7,0.2-1.2-0.3c-0.3-0.4-0.8-0.7-1.5-1.1C71,14.3,70.8,14,70.9,13.7z M80.8,18.1c-0.4,0.2-0.7,0.2-0.8-0.1
		c-0.1-0.3-0.3-0.6-0.6-1c-0.2-0.3-0.4-0.5-0.6-0.8c-0.3-0.4-0.6-0.8-0.8-1c-0.2-0.2-0.2-0.5,0.1-0.7s0.6-0.2,1.1,0.3
		c0.9,0.9,1.5,1.6,1.8,2.1C81.2,17.5,81.2,17.9,80.8,18.1z"/>
	<path class="st15" d="M85.6,19.5c-0.6,0.2-1,0.2-1.1-0.2c-0.1-0.3,0.1-0.6,0.7-0.9c1-0.5,1.6-1.4,1.7-2.7c0-0.1,0-0.1-0.1-0.1
		c-0.2,0-0.5,0-0.8,0c-0.1,0-0.2-0.1-0.5-0.4s-0.4-0.6-0.4-1s0.1-0.8,0.4-1.1c0.3-0.3,0.7-0.4,1.1-0.4c0.5,0,1,0.2,1.3,0.6
		s0.4,1,0.4,1.7c0,1.1-0.3,2.1-1,2.9C86.7,18.9,86.1,19.4,85.6,19.5z"/>
	<path class="st15" d="M97.2,19.3c-0.1,0.1-0.3-0.1-0.6-0.5s-0.1-0.8,0.4-1.1c0.1-0.1,0.1-0.4,0.1-1.1V3.2c0-0.7,0.3-1,1-1h5.1
		c0.1,0,0.1,0,0.1-0.1c-0.1-0.5-0.3-1-0.4-1.2c-0.1-0.3,0-0.5,0.4-0.7c0.4-0.2,0.8,0,1.1,0.6c0.1,0.2,0.2,0.6,0.4,1.3
		c0,0.1,0.1,0.2,0.2,0.2h4.6c0.7,0,1,0.3,1,1v6.9c0,0.7-0.3,1-1,1h-6.2c-0.1,0-0.1,0-0.1,0.1c0.7,1.3,1.6,2.4,2.7,3.3
		c0.1,0.1,0.2,0.1,0.3,0c1.9-1.1,3.2-2,3.9-2.6c0.5-0.4,0.9-0.5,1.2-0.1s0.2,0.8-0.4,1.2c-0.8,0.6-2.1,1.4-3.8,2.4
		c-0.1,0-0.1,0.1,0,0.1c1.7,1.1,3.2,1.9,4.6,2.2c0.7,0.1,0.9,0.4,0.8,0.9c-0.1,0.4-0.5,0.6-1.1,0.4c-1.9-0.5-3.8-1.4-5.6-2.8
		c-1.8-1.4-3.1-3-4-4.9c-0.1-0.1-0.2-0.2-0.3-0.2h-3.1c-0.1,0-0.1,0-0.1,0.1v6.1c0,0.1,0,0.1,0.1,0.1l4-1c0.6-0.2,1,0,1.1,0.4
		c0.1,0.4-0.2,0.7-0.8,0.9L99,18.7c-0.3,0.1-0.6,0.2-1,0.3C97.6,19.1,97.3,19.2,97.2,19.3z M98.7,5.9c0,0.1,0,0.1,0.1,0.1h10.5
		c0.1,0,0.1,0,0.1-0.1V3.6c0-0.1,0-0.1-0.1-0.1H98.8c-0.1,0-0.1,0-0.1,0.1V5.9z M98.7,9.7c0,0.1,0,0.1,0.1,0.1h10.5
		c0.1,0,0.1,0,0.1-0.1V7.3c0-0.1,0-0.1-0.1-0.1H98.8c-0.1,0-0.1,0-0.1,0.1V9.7z"/>
	<path class="st15" d="M116.7,18.9c-0.6,0.3-1,0.3-1.2-0.1c-0.2-0.4,0-0.8,0.6-1.1c1-0.5,2-1.6,3.1-3.4c0.1-0.1,0-0.2,0-0.2
		c-1.1-0.9-1.9-1.5-2.5-1.9c-0.5-0.3-0.7-0.8-0.5-1.4c0.3-1,0.7-2.6,1.2-4.9c0-0.1,0-0.1-0.1-0.1h-0.9c-0.7,0-1-0.2-1-0.7
		c0-0.4,0.3-0.7,1-0.7h1.1c0.1,0,0.2,0,0.2-0.1c0.3-1.5,0.5-2.5,0.6-3.2s0.3-1,0.8-0.9c0.4,0.1,0.6,0.4,0.5,1.1
		c-0.1,0.6-0.3,1.6-0.6,3.1c0,0.1,0,0.1,0.1,0.1l2.8,0c0.4,0,0.7,0,1,0.1c0.3,0.1,0.4,0.4,0.3,1.1c-0.3,3.1-1,5.7-2.1,8
		c-0.1,0.1,0,0.2,0,0.3c1,0.9,1.7,1.5,1.8,1.7c0.4,0.5,0.4,0.9,0,1.2c-0.4,0.3-0.8,0.2-1.2-0.4c0,0-0.5-0.5-1.4-1.3
		c-0.1,0-0.1,0-0.1,0C119.2,16.9,118,18.1,116.7,18.9z M119.8,12.8c0.1,0,0.1,0,0.1,0c0.9-2,1.5-4.3,1.8-6.9c0-0.1,0-0.1-0.1-0.1
		h-2.8c-0.1,0-0.2,0-0.2,0.1c-0.3,1.6-0.7,3.3-1.2,5c0,0.1,0,0.2,0.1,0.3C118.4,11.7,119.2,12.3,119.8,12.8z M126.4,19.3
		c-0.7,0-1-0.2-1-0.7c0-0.4,0.3-0.7,1-0.7l1,0c0.3,0,0.6,0,0.7,0c0.2,0,0.2-0.1,0.2-0.4v-7.1c0-0.1,0-0.1-0.1-0.1h-3.8
		c-0.7,0-1-0.2-1-0.7c0-0.4,0.3-0.7,1-0.7h3.8c0.1,0,0.1,0,0.1-0.1V7.4c0-0.5,0.2-1,0.6-1.3c0.7-0.6,1.6-1.6,2.5-3
		c0-0.1,0-0.1,0-0.1h-6c-0.7,0-1-0.2-1-0.6c0-0.4,0.3-0.7,1-0.7l6.7-0.1c0.5,0,0.9,0.1,1.2,0.3c0.3,0.2,0.3,0.6-0.1,1.2
		c-0.7,1.1-1.8,2.3-3.3,3.5c-0.1,0.1-0.2,0.3-0.2,0.5V9c0,0.1,0,0.1,0.1,0.1h3.6c0.7,0,1,0.2,1,0.7c0,0.4-0.3,0.7-1,0.7h-3.6
		c-0.1,0-0.1,0-0.1,0.1v7.1c0,0.4-0.1,0.8-0.2,1c-0.1,0.2-0.3,0.4-0.7,0.5C128.4,19.3,127.5,19.4,126.4,19.3z"/>
	<path class="st15" d="M140,18.1c-0.5,0.4-0.9,0.5-1.2,0.1c-0.3-0.4-0.4-0.6-0.2-0.7s0.2-0.2,0.3-0.3c0.1-0.1,0.2-0.3,0.4-0.6
		c0.1-0.1,0.1-0.4,0.1-0.8V8.2c0-0.1,0-0.1-0.1-0.1h-1.9c-0.7,0-1-0.2-1-0.7s0.3-0.7,1-0.7h2.4c0.7,0,1,0.3,1,1v8.1
		c0,0.1,0,0.1,0.1,0l1.4-1c0.6-0.4,1-0.4,1.2-0.1c0.2,0.3,0.1,0.7-0.5,1.1l-2.4,1.8C140.3,17.9,140.1,18,140,18.1z M141.7,4.2
		c-0.4,0.3-0.7,0.1-1.1-0.4c-0.2-0.3-0.8-0.9-1.7-1.6c-0.5-0.4-0.6-0.8-0.4-1.1c0.3-0.3,0.7-0.3,1.2,0.2c1,0.9,1.7,1.5,2,1.8
		C142.1,3.5,142.1,3.9,141.7,4.2z M144.2,8.6c-0.6,0.3-1,0.2-1.2-0.2c-0.2-0.4,0-0.7,0.6-1c0.5-0.3,1.1-0.8,1.6-1.7
		c0.4-0.7,0.6-1.5,0.6-2.4V2c0-0.7,0.3-1,1-1h4.5c0.7,0,1,0.3,1,1v3.9c0,0.3,0,0.5,0.1,0.6c0,0.1,0.1,0.2,0.2,0.2s0.3,0,0.6,0l1,0
		c0.6,0,1,0.2,1.1,0.6c0.1,0.4-0.2,0.6-0.9,0.6l-1.2,0.1c-0.4,0-0.7,0-1.1,0c-0.3,0-0.6-0.1-0.8-0.4c-0.2-0.3-0.3-0.8-0.3-1.6V2.4
		c0-0.1,0-0.1-0.1-0.1h-3.6c-0.1,0-0.1,0-0.1,0.1v0.9C147.1,5.9,146.1,7.6,144.2,8.6z M155.1,18.8c-0.1,0.4-0.5,0.6-1.2,0.4
		c-1.7-0.4-3.3-1.2-4.8-2.3c-0.1-0.1-0.2-0.1-0.3,0c-1.5,1-3.1,1.8-4.6,2.2c-0.7,0.2-1,0.1-1.2-0.4c-0.1-0.4,0.2-0.7,0.8-0.9
		c1.2-0.3,2.5-0.9,4-1.9c0.1,0,0.1-0.1,0-0.1c-1.5-1.4-2.5-2.8-3.1-4.1c-0.3-0.6-0.4-1-0.3-1c0.1,0,0.1,0,0,0
		c-0.6,0-0.9-0.2-0.9-0.7c0-0.4,0.3-0.7,1-0.7l8.2-0.1c0.4,0,0.8,0.1,1.1,0.2c0.3,0.1,0.3,0.5,0.1,1.1c-0.6,1.8-1.8,3.5-3.7,5.2
		c-0.1,0-0.1,0.1,0,0.1c1.5,1,2.8,1.6,4,1.9C154.9,18,155.2,18.3,155.1,18.8z M148.9,15c0.1,0.1,0.2,0.1,0.3,0
		c1.4-1.1,2.5-2.5,3.3-4.2c0-0.1,0-0.1-0.1-0.1h-6.6c-0.1,0-0.1,0-0.1,0.1C146.4,12.5,147.5,13.9,148.9,15z"/>
	<path class="st15" d="M160.8,18.6c0,0-0.2-0.1-0.5-0.5c-0.3-0.3-0.4-0.6-0.3-0.6c0.1-0.1,0.3-0.2,0.5-0.5c0.2-0.3,0.4-0.7,0.4-1.1
		V8.3c0-0.1,0-0.1-0.1-0.1h-2.3c-0.7,0-1-0.2-1-0.7c0-0.5,0.3-0.7,1-0.7h2.8c0.7,0,1,0.3,1,1v8c0,0.1,0,0.1,0.1,0l1.6-1.1
		c0.5-0.4,0.9-0.4,1.2,0c0.2,0.4,0.1,0.7-0.5,1.1l-3,2.2C161.1,18.3,160.8,18.6,160.8,18.6z M163.2,4.2c-0.4,0.3-0.7,0.2-1.2-0.4
		c-0.4-0.4-0.9-1-1.8-1.7c-0.5-0.4-0.6-0.8-0.4-1.1c0.3-0.3,0.7-0.3,1.2,0.1c1,0.8,1.7,1.4,2,1.9C163.5,3.5,163.5,3.9,163.2,4.2z
		 M170.3,19.3c-0.5,0-0.7-0.3-0.7-1V8.7c0-0.1,0-0.1-0.1-0.1h-4.2c-0.7,0-1-0.2-1-0.7c0-0.5,0.3-0.7,1-0.7h4.2c0.1,0,0.1,0,0.1-0.1
		V1.2c0-0.7,0.2-1,0.7-1s0.7,0.3,0.7,1v5.8c0,0.1,0,0.1,0.1,0.1h4.3c0.7,0,1,0.2,1,0.7c0,0.5-0.3,0.7-1,0.7h-4.3
		c-0.1,0-0.1,0-0.1,0.1v9.6C171.1,19,170.8,19.3,170.3,19.3z"/>
	<path class="st15" d="M181.7,18.9c-0.9,0-1.6-0.3-2.2-0.9c-0.6-0.6-0.9-1.4-0.9-2.2c0-0.9,0.3-1.6,0.9-2.2c0.6-0.6,1.4-0.9,2.2-0.9
		s1.6,0.3,2.2,0.9s0.9,1.4,0.9,2.2c0,0.9-0.3,1.6-0.9,2.2S182.6,18.9,181.7,18.9z M181.7,18c0.6,0,1.1-0.2,1.5-0.6s0.6-0.9,0.6-1.5
		c0-0.6-0.2-1.1-0.6-1.5c-0.4-0.4-0.9-0.6-1.5-0.6c-0.6,0-1.1,0.2-1.5,0.6c-0.4,0.4-0.6,0.9-0.6,1.5c0,0.6,0.2,1.1,0.6,1.5
		S181.1,18,181.7,18z"/>
	<path class="st15" d="M195.8,18c-1.9,0-3.5-0.7-4.8-2.1c-1.2-1.4-1.9-3.4-1.9-5.8c0-2.4,0.6-4.4,1.9-5.8c1.3-1.4,2.9-2.2,4.9-2.2
		c1.4,0,2.6,0.5,3.7,1.4c0.2,0.1,0.2,0.3,0.2,0.5c0,0.2-0.1,0.4-0.2,0.6c-0.1,0.2-0.3,0.2-0.5,0.2s-0.4-0.1-0.5-0.2
		c-0.8-0.6-1.7-0.9-2.7-0.9c-1.5,0-2.7,0.6-3.6,1.7s-1.4,2.7-1.4,4.7c0,2,0.4,3.6,1.3,4.7c0.9,1.2,2.1,1.8,3.6,1.8
		c1.2,0,2.2-0.4,3.1-1.3c0.2-0.1,0.3-0.2,0.5-0.2c0.2,0,0.4,0.1,0.5,0.2c0.1,0.2,0.2,0.3,0.2,0.5c0,0.2-0.1,0.4-0.2,0.5
		C198.8,17.4,197.4,18,195.8,18z"/>
	<path class="st15" d="M211.2,16.4c-1,1.1-2.3,1.6-3.7,1.6s-2.7-0.5-3.7-1.6c-1-1.1-1.5-2.5-1.5-4.3c0-1.8,0.5-3.3,1.5-4.4
		s2.2-1.6,3.7-1.6s2.7,0.5,3.7,1.6s1.5,2.5,1.5,4.4C212.8,13.9,212.2,15.3,211.2,16.4z M205,15.3c0.6,0.8,1.5,1.2,2.5,1.2
		s1.8-0.4,2.5-1.3c0.6-0.8,1-1.9,1-3.2c0-1.4-0.3-2.5-1-3.3c-0.6-0.8-1.5-1.3-2.5-1.3S205.7,8,205,8.8c-0.6,0.8-1,1.9-1,3.3
		C204.1,13.4,204.4,14.5,205,15.3z"/>
	<path class="st15" d="M217.3,17.5c-0.2,0.2-0.4,0.2-0.6,0.2s-0.4-0.1-0.6-0.2s-0.3-0.4-0.3-0.6V7.1c0-0.2,0.1-0.4,0.2-0.5
		s0.3-0.2,0.5-0.2s0.4,0.1,0.5,0.2c0.2,0.1,0.2,0.3,0.2,0.5l0.1,0.9c0,0,0,0,0,0s0,0,0.1,0c0.6-0.6,1.2-1.1,1.8-1.4s1.3-0.5,1.9-0.5
		c2.3,0,3.5,1.5,3.5,4.4v6.3c0,0.2-0.1,0.4-0.2,0.6s-0.4,0.3-0.6,0.3s-0.4-0.1-0.6-0.3s-0.3-0.4-0.3-0.6v-6.1c0-1.1-0.2-1.9-0.5-2.4
		s-0.9-0.8-1.7-0.8c-0.6,0-1.1,0.1-1.5,0.4s-1,0.7-1.6,1.3c-0.1,0.1-0.1,0.2-0.1,0.3v7.3C217.5,17.1,217.5,17.3,217.3,17.5z"/>
	<path class="st15" d="M232.9,18c-1.5,0-2.8-0.5-3.8-1.6s-1.5-2.5-1.5-4.3c0-1.8,0.5-3.3,1.6-4.4s2.3-1.6,3.8-1.6
		c1,0,1.9,0.3,2.8,0.9c0.2,0.1,0.3,0.3,0.3,0.5s0,0.4-0.2,0.6c-0.1,0.2-0.3,0.2-0.5,0.3c-0.2,0-0.4,0-0.5-0.2
		c-0.6-0.4-1.2-0.6-1.8-0.6c-1.1,0-2,0.4-2.7,1.3c-0.7,0.8-1,1.9-1,3.3c0,1.3,0.3,2.4,1,3.3c0.7,0.8,1.6,1.2,2.6,1.2
		c0.8,0,1.5-0.2,2.2-0.7c0.2-0.1,0.3-0.2,0.5-0.1s0.3,0.1,0.4,0.3c0.1,0.1,0.1,0.3,0.1,0.4c0,0,0,0.1,0,0.1c0,0.2-0.1,0.3-0.3,0.5
		C235.1,17.7,234.1,18,232.9,18z"/>
	<path class="st15" d="M243.2,18c-1.5,0-2.8-0.5-3.8-1.6s-1.5-2.5-1.5-4.3c0-0.9,0.1-1.7,0.4-2.5s0.7-1.4,1.1-1.9
		c0.5-0.5,1-0.9,1.6-1.2s1.2-0.4,1.9-0.4c1.4,0,2.5,0.5,3.3,1.4c0.8,0.9,1.2,2.2,1.2,3.8c0,0.3-0.1,0.6-0.4,0.8
		c-0.3,0.2-0.6,0.3-0.9,0.3h-6.4c-0.1,0-0.2,0-0.1,0.1c0.1,1.2,0.5,2.2,1.2,3c0.7,0.7,1.6,1.1,2.7,1.1c0.8,0,1.6-0.2,2.3-0.6
		c0.2-0.1,0.3-0.1,0.5-0.1c0.2,0,0.3,0.1,0.4,0.3c0.1,0.2,0.1,0.3,0.1,0.5s-0.1,0.3-0.3,0.4C245.4,17.7,244.3,18,243.2,18z
		 M239.5,11.1c0,0.1,0,0.1,0.1,0.1h6c0.1,0,0.1-0.1,0.1-0.2c0-1.2-0.3-2-0.8-2.7c-0.5-0.6-1.2-0.9-2.1-0.9c-0.8,0-1.6,0.3-2.2,1
		C239.9,9.2,239.5,10.1,239.5,11.1z"/>
	<path class="st15" d="M252.5,18c-1,0-1.7-0.3-2.4-0.8s-0.9-1.3-0.9-2.3c0-1.2,0.5-2.2,1.6-2.8c1.1-0.7,2.8-1.1,5.2-1.4
		c0.1,0,0.2-0.1,0.1-0.2c0-1.9-0.8-2.9-2.4-2.9c-0.9,0-1.9,0.3-2.9,0.9c-0.2,0.1-0.3,0.1-0.5,0.1s-0.3-0.1-0.4-0.3
		c-0.1-0.2-0.1-0.4-0.1-0.5c0-0.2,0.2-0.3,0.3-0.4c1.3-0.8,2.6-1.1,3.8-1.1c1.3,0,2.3,0.4,2.9,1.2c0.6,0.8,0.9,1.9,0.9,3.4V17
		c0,0.2-0.1,0.4-0.2,0.5s-0.3,0.2-0.5,0.2s-0.4-0.1-0.5-0.2s-0.2-0.3-0.3-0.5l-0.1-0.7c0,0,0,0,0,0s0,0-0.1,0
		C255,17.4,253.7,18,252.5,18z M253,16.6c0.5,0,1-0.1,1.5-0.4c0.5-0.2,1-0.6,1.6-1.1c0.1-0.1,0.1-0.2,0.1-0.3v-3
		c0-0.1,0-0.1-0.1-0.1c0,0,0,0,0,0c-1.9,0.2-3.2,0.6-4,1.1c-0.8,0.5-1.2,1.1-1.2,1.9c0,0.6,0.2,1.1,0.6,1.4
		C251.8,16.5,252.3,16.6,253,16.6z"/>
	<path class="st15" d="M263.5,18c-1.2,0-1.8-0.8-1.8-2.3V1.9c0-0.2,0.1-0.4,0.3-0.6s0.4-0.2,0.6-0.2s0.4,0.1,0.6,0.2
		s0.2,0.4,0.2,0.6v13.9c0,0.4,0.1,0.6,0.3,0.7c0,0,0.1,0.1,0.2,0.1s0.2,0.1,0.3,0.1s0.1,0.1,0.2,0.2s0.1,0.2,0.1,0.2v0
		c0,0.1,0,0.1,0,0.1c0,0.1,0,0.3-0.1,0.4c-0.1,0.2-0.3,0.2-0.5,0.3C263.8,18,263.6,18,263.5,18z"/>
	<path class="st15" d="M272,18c-1.5,0-2.8-0.5-3.8-1.6s-1.5-2.5-1.5-4.3c0-0.9,0.1-1.7,0.4-2.5s0.7-1.4,1.1-1.9
		c0.5-0.5,1-0.9,1.6-1.2s1.2-0.4,1.9-0.4c1.4,0,2.5,0.5,3.3,1.4c0.8,0.9,1.2,2.2,1.2,3.8c0,0.3-0.1,0.6-0.4,0.8
		c-0.3,0.2-0.6,0.3-0.9,0.3h-6.4c-0.1,0-0.2,0-0.1,0.1c0.1,1.2,0.5,2.2,1.2,3c0.7,0.7,1.6,1.1,2.7,1.1c0.8,0,1.6-0.2,2.3-0.6
		c0.2-0.1,0.3-0.1,0.5-0.1c0.2,0,0.3,0.1,0.4,0.3c0.1,0.2,0.1,0.3,0.1,0.5s-0.1,0.3-0.3,0.4C274.2,17.7,273.1,18,272,18z
		 M268.3,11.1c0,0.1,0,0.1,0.1,0.1h6c0.1,0,0.1-0.1,0.1-0.2c0-1.2-0.3-2-0.8-2.7c-0.5-0.6-1.2-0.9-2.1-0.9c-0.8,0-1.6,0.3-2.2,1
		C268.7,9.2,268.3,10.1,268.3,11.1z"/>
	<path class="st15" d="M282.9,18c-1.4,0-2.6-0.5-3.4-1.6s-1.3-2.5-1.3-4.3c0-1.8,0.5-3.2,1.5-4.3s2.1-1.7,3.5-1.7
		c0.6,0,1.1,0.1,1.6,0.3s1,0.5,1.5,1c0,0,0.1,0,0.1,0s0,0,0-0.1l-0.1-1.8V1.9c0-0.2,0.1-0.4,0.2-0.6s0.4-0.2,0.6-0.2
		s0.4,0.1,0.6,0.2s0.3,0.4,0.3,0.6V17c0,0.2-0.1,0.4-0.2,0.5s-0.3,0.2-0.5,0.2s-0.4-0.1-0.5-0.2c-0.2-0.1-0.2-0.3-0.3-0.5l-0.1-0.7
		c0,0,0,0,0,0s0,0,0,0C285.3,17.5,284.1,18,282.9,18z M283.2,16.6c1,0,2-0.5,3-1.5c0.1-0.1,0.1-0.2,0.1-0.3V8.9c0-0.1,0-0.2-0.1-0.2
		c-0.9-0.8-1.8-1.2-2.8-1.2c-1,0-1.8,0.4-2.4,1.3s-1,1.9-1,3.2c0,1.4,0.3,2.5,0.9,3.3C281.4,16.2,282.2,16.6,283.2,16.6z"/>
	<path class="st15" d="M301,18c-1.8,0-3.4-0.6-4.8-1.7c-0.2-0.2-0.3-0.4-0.3-0.6c0-0.2,0.1-0.4,0.2-0.6c0.1-0.2,0.3-0.2,0.5-0.3
		c0.2,0,0.4,0.1,0.6,0.2c1.1,0.9,2.3,1.4,3.7,1.4c1,0,1.9-0.2,2.5-0.7c0.6-0.5,0.9-1.1,0.9-1.9c0-0.3,0-0.6-0.1-0.9
		s-0.2-0.5-0.3-0.6c-0.1-0.2-0.3-0.3-0.6-0.5c-0.3-0.2-0.5-0.3-0.7-0.4c-0.2-0.1-0.5-0.2-0.9-0.4l-2.2-1c-0.4-0.2-0.8-0.4-1.1-0.6
		s-0.6-0.5-1-0.8c-0.3-0.3-0.6-0.7-0.8-1.1s-0.3-0.9-0.3-1.5c0-1.2,0.4-2.1,1.3-2.9c0.9-0.8,2-1.1,3.4-1.1c1.5,0,2.8,0.5,4,1.4
		c0.2,0.1,0.2,0.3,0.2,0.5s0,0.4-0.2,0.5c-0.1,0.2-0.3,0.2-0.5,0.2c-0.2,0-0.4,0-0.5-0.1c-0.9-0.7-1.9-1-3-1c-0.9,0-1.6,0.2-2.2,0.6
		s-0.8,1-0.8,1.7c0,0.3,0.1,0.6,0.2,0.8s0.2,0.5,0.4,0.6s0.3,0.3,0.6,0.5c0.3,0.2,0.5,0.3,0.7,0.4s0.4,0.2,0.7,0.3l2.2,0.9
		c1,0.4,1.8,1,2.3,1.6c0.6,0.6,0.8,1.5,0.8,2.5c0,1.2-0.5,2.3-1.4,3.1C303.8,17.6,302.5,18,301,18z"/>
	<path class="st15" d="M312.5,18c-1.1,0-1.9-0.3-2.4-1c-0.5-0.6-0.7-1.5-0.7-2.7V7.9c0-0.1-0.1-0.1-0.2-0.1h-0.9
		c-0.2,0-0.3-0.1-0.5-0.2c-0.1-0.1-0.2-0.3-0.2-0.5s0.1-0.3,0.2-0.5s0.3-0.2,0.5-0.2l1-0.1c0.1,0,0.2,0,0.2-0.1l0.1-2.3
		c0-0.2,0.1-0.4,0.2-0.5c0.1-0.1,0.3-0.2,0.5-0.2s0.4,0.1,0.5,0.2c0.1,0.1,0.2,0.3,0.2,0.5v2.3c0,0.1,0,0.1,0.1,0.1h2.3
		c0.2,0,0.4,0.1,0.5,0.2s0.2,0.3,0.2,0.5s-0.1,0.4-0.2,0.5s-0.3,0.2-0.5,0.2h-2.3c-0.1,0-0.1,0-0.1,0.1v6.4c0,0.7,0.1,1.3,0.4,1.7
		c0.3,0.4,0.7,0.6,1.4,0.6c0.2,0,0.4,0,0.7-0.1c0.2,0,0.3,0,0.5,0.1s0.3,0.2,0.3,0.4c0,0.1,0,0.1,0,0.2c0,0.1,0,0.2-0.1,0.3
		c-0.1,0.2-0.2,0.3-0.4,0.3C313.3,17.9,312.9,18,312.5,18z"/>
	<path class="st15" d="M319.9,18c-2.3,0-3.4-1.5-3.4-4.4V7.2c0-0.2,0.1-0.5,0.2-0.6s0.4-0.2,0.6-0.2s0.4,0.1,0.6,0.2
		s0.2,0.4,0.2,0.6v6.1c0,1.1,0.2,1.9,0.5,2.4c0.3,0.5,0.9,0.7,1.7,0.7c0.6,0,1.1-0.1,1.5-0.4c0.5-0.3,1-0.8,1.5-1.4
		c0.1-0.1,0.1-0.2,0.1-0.3V7.2c0-0.2,0.1-0.5,0.3-0.6c0.2-0.2,0.4-0.2,0.6-0.2s0.4,0.1,0.6,0.2s0.2,0.4,0.2,0.6V17
		c0,0.2-0.1,0.4-0.2,0.5s-0.3,0.2-0.5,0.2c-0.2,0-0.4-0.1-0.5-0.2c-0.1-0.1-0.2-0.3-0.2-0.5l-0.1-1.1c0,0,0,0-0.1,0c0,0,0,0-0.1,0
		c-0.6,0.7-1.2,1.2-1.8,1.5C321.3,17.8,320.7,18,319.9,18z"/>
	<path class="st15" d="M333.1,18c-1.4,0-2.6-0.5-3.4-1.6c-0.8-1-1.3-2.5-1.3-4.3c0-1.8,0.5-3.2,1.5-4.3s2.1-1.7,3.5-1.7
		c0.6,0,1.1,0.1,1.6,0.3s1,0.5,1.5,1c0,0,0.1,0,0.1,0c0,0,0,0,0-0.1l-0.1-1.8V1.9c0-0.2,0.1-0.4,0.2-0.6s0.4-0.2,0.6-0.2
		s0.4,0.1,0.6,0.2c0.2,0.2,0.3,0.4,0.3,0.6V17c0,0.2-0.1,0.4-0.2,0.5c-0.1,0.1-0.3,0.2-0.5,0.2s-0.4-0.1-0.5-0.2
		c-0.2-0.1-0.2-0.3-0.3-0.5l-0.1-0.7c0,0,0,0,0,0s0,0,0,0C335.5,17.5,334.3,18,333.1,18z M333.5,16.6c1,0,2-0.5,3-1.5
		c0.1-0.1,0.1-0.2,0.1-0.3V8.9c0-0.1,0-0.2-0.1-0.2c-0.9-0.8-1.8-1.2-2.8-1.2c-1,0-1.8,0.4-2.4,1.3s-1,1.9-1,3.2
		c0,1.4,0.3,2.5,0.9,3.3C331.6,16.2,332.4,16.6,333.5,16.6z"/>
	<path class="st15" d="M343,3.9c-0.4,0-0.6-0.1-0.9-0.3s-0.3-0.5-0.3-0.8c0-0.4,0.1-0.6,0.3-0.9c0.2-0.2,0.5-0.3,0.9-0.3
		s0.7,0.1,0.9,0.3c0.2,0.2,0.4,0.5,0.4,0.9c0,0.3-0.1,0.6-0.4,0.8S343.4,3.9,343,3.9z M343.6,17.5c-0.2,0.2-0.4,0.2-0.6,0.2
		s-0.4-0.1-0.6-0.2c-0.2-0.2-0.3-0.4-0.3-0.6V7.2c0-0.2,0.1-0.5,0.3-0.6c0.2-0.2,0.4-0.2,0.6-0.2s0.4,0.1,0.6,0.2s0.2,0.4,0.2,0.6
		v9.6C343.9,17.1,343.8,17.3,343.6,17.5z"/>
	<path class="st15" d="M355.8,16.4c-1,1.1-2.3,1.6-3.7,1.6s-2.7-0.5-3.7-1.6c-1-1.1-1.5-2.5-1.5-4.3c0-1.8,0.5-3.3,1.5-4.4
		s2.2-1.6,3.7-1.6c1.5,0,2.7,0.5,3.7,1.6s1.5,2.5,1.5,4.4C357.4,13.9,356.9,15.3,355.8,16.4z M349.7,15.3c0.6,0.8,1.5,1.2,2.5,1.2
		s1.8-0.4,2.5-1.3c0.6-0.8,1-1.9,1-3.2c0-1.4-0.3-2.5-1-3.3c-0.6-0.8-1.5-1.3-2.5-1.3s-1.8,0.4-2.5,1.3c-0.6,0.8-1,1.9-1,3.3
		C348.7,13.4,349,14.5,349.7,15.3z"/>
	<path class="st15" d="M379.5,17.4c-0.3,0.3-0.7,0.4-1.1,0.4s-0.8-0.1-1.1-0.4c-0.3-0.3-0.5-0.7-0.5-1.1c0-0.5,0.2-0.8,0.5-1.1
		s0.7-0.4,1.1-0.4s0.8,0.1,1.1,0.4s0.5,0.7,0.5,1.1C379.9,16.7,379.8,17.1,379.5,17.4z M378.8,12.5c-0.1,0.1-0.3,0.2-0.5,0.2
		s-0.3-0.1-0.5-0.2c-0.1-0.1-0.2-0.3-0.2-0.4l-0.5-7.7l0-1.3c0-0.3,0.1-0.6,0.3-0.8c0.2-0.2,0.5-0.3,0.8-0.3s0.6,0.1,0.8,0.3
		c0.2,0.2,0.3,0.5,0.3,0.8l0,1.3l-0.4,7.7C379,12.3,378.9,12.4,378.8,12.5z"/>
	<path class="st15" d="M399.7,11.9c0,0.2-0.1,0.4-0.2,0.5s-0.3,0.2-0.5,0.2c-0.2,0-0.4-0.1-0.6-0.2c-0.2-0.1-0.2-0.3-0.2-0.5
		c0-0.5,0.2-1,0.5-1.5s0.7-0.9,1.1-1.3s0.8-0.7,1.3-1.1s0.8-0.7,1.1-1.1s0.5-0.8,0.5-1.2c0-0.8-0.3-1.4-0.8-1.9s-1.4-0.7-2.4-0.7
		c-1.3,0-2.5,0.5-3.6,1.5c-0.2,0.1-0.3,0.2-0.5,0.2s-0.4-0.1-0.5-0.2c-0.2-0.1-0.2-0.3-0.2-0.5c0-0.2,0.1-0.3,0.2-0.5
		c1.4-1.3,3-1.9,4.8-1.9c1.5,0,2.6,0.4,3.5,1.1c0.9,0.7,1.3,1.6,1.3,2.8c0,0.5-0.1,1.1-0.4,1.5c-0.3,0.5-0.7,0.9-1.1,1.2
		c-0.4,0.4-0.9,0.7-1.3,1c-0.4,0.3-0.8,0.7-1.1,1.2C400,11,399.8,11.5,399.7,11.9z M397.9,17.4c-0.3-0.3-0.5-0.7-0.5-1.1
		c0-0.5,0.2-0.8,0.5-1.1c0.3-0.3,0.7-0.4,1.1-0.4s0.8,0.1,1.1,0.4c0.3,0.3,0.5,0.7,0.5,1.1c0,0.5-0.2,0.9-0.5,1.1s-0.7,0.4-1.1,0.4
		S398.2,17.7,397.9,17.4z"/>
</g>
</svg>
