<?xml version="1.0" encoding="utf-8"?>
<!-- Generator: Adobe Illustrator 24.3.0, SVG Export Plug-In . SVG Version: 6.00 Build 0)  -->
<svg version="1.1" xmlns="http://www.w3.org/2000/svg" xmlns:xlink="http://www.w3.org/1999/xlink" x="0px" y="0px"
	 viewBox="0 0 64 64" style="enable-background:new 0 0 64 64;" xml:space="preserve">
<style type="text/css">
	.st0{fill:none;stroke:#A7C349;stroke-width:2.9865;stroke-linecap:round;stroke-linejoin:round;stroke-miterlimit:10;}
	.st1{fill:none;stroke:#AF8A6D;stroke-width:2.9865;stroke-linecap:round;stroke-linejoin:round;stroke-miterlimit:10;}
	.st2{fill:#AF8A6D;}
	.st3{fill:none;stroke:#7B5744;stroke-width:2.9865;stroke-linecap:round;stroke-linejoin:round;stroke-miterlimit:10;}
	.st4{fill:none;}
</style>
<g id="图层_0">
</g>
<g id="图层_1">
	<path class="st0" d="M31.5,23.8c-9-0.3-19.5-4.6-25.7-12.2c-0.2-0.3-0.7-0.2-0.8,0.1c-2.4,5-1.2,11,2.9,14.7
		c0.4,0.3,0.1,0.9-0.3,0.9c-1.1,0-2.1-0.3-3.1-0.8c-0.3-0.2-0.8,0.1-0.7,0.5c0.2,4.8,3.8,8.9,8.3,11"/>
	<path class="st1" d="M12.1,37.9c-1.5,0.8-3,0.9-3.9,0.8c-0.3,0-0.6,0.3-0.5,0.6c0.8,3.3,5.7,6.8,10.5,7.3c0.4,0,0.6,0.6,0.3,0.9
		c-3.9,3.2-9.1,5.7-14.2,5.5"/>
	<g>
		<path class="st2" d="M55.6,19.2c1.8-0.9,3.2-2.2,4.5-3.9c-0.1,0.2-0.1,0.6,0.1,0.7c0.1,0.1,0.2,0.1,0.4,0.1c0,0,0.1,0,0.1,0
			l-0.1,0l-0.2,0.1c-0.5,0.2-1,0.3-1.6,0.5L58,16.9L57.6,17l-0.2,0l-0.1,0l-0.2,0c-0.8,0.1-1.5-0.5-1.6-1.3c0-0.4,0.1-0.8,0.3-1
			c0.2-0.2,0.2-0.2,0.2-0.2l0.1-0.1c0.7-0.7,1.3-1.5,1.9-2.3c0.3-0.4,0.5-0.9,0.7-1.3l0.1-0.2c0,0.1,0,0.1,0,0.2
			c0,0.1,0,0.3,0.1,0.4c0.1,0.1,0.2,0.2,0.3,0.2c0.1,0,0.1,0,0.2,0l0,0l0,0l-0.1,0c-0.9,0.5-2,1-3,1.5c-1.1,0.4-2.2,0.8-3.3,1.1l0,0
			c-0.8,0.2-1.6-0.3-1.8-1.1C51,12,51.5,11.2,52.3,11c0.1,0,0.3-0.1,0.4,0c2,0.1,3.9-0.4,5.7-1.3l0.3-0.1c0.2-0.1,0.4-0.1,0.6-0.1
			c0.4,0,0.8,0.2,1.1,0.5c0.3,0.3,0.4,0.7,0.4,1.1c0,0.2-0.1,0.4-0.1,0.6l-0.1,0.2c-0.3,0.5-0.6,1-0.9,1.4c-0.6,0.9-1.3,1.8-2.1,2.6
			l-0.2,0.2c0,0-0.1,0.1-0.1,0.1c0.1-0.1,0.1-0.2,0.1-0.3c0-0.2-0.2-0.4-0.5-0.4l0.7-0.2l0.7-0.2c0.5-0.2,1-0.3,1.4-0.5l0.2-0.1
			l0.1,0c0.1,0,0.2-0.1,0.3-0.1c0.4-0.1,0.8,0,1.1,0.3c0.3,0.2,0.5,0.6,0.6,1c0.1,0.4-0.1,0.8-0.3,1.1c-0.6,0.9-1.3,1.8-2,2.7
			c-0.7,0.9-1.6,1.7-2.4,2.4l0,0c-0.6,0.6-1.6,0.5-2.1-0.1s-0.5-1.6,0.1-2.1C55.4,19.4,55.5,19.3,55.6,19.2z"/>
	</g>
	<path class="st1" d="M52.5,12.5c-2.4-2.4-5.6-3.7-9-3.7c-6.8,0-12.3,5.5-12.3,12.3c0,0,0,0,0,0c0,0.9,0.1,1.8,0.3,2.7"/>
	<path class="st3" d="M4.2,53c5.3,2.8,11.2,4.2,17.3,4.2c19,0.1,34.4-15.1,34.6-34.1c0-0.6,0-1.3,0-1.9v-0.5"/>
	<rect x="0" class="st4" width="64" height="64"/>
</g>
</svg>
