<?xml version="1.0" encoding="utf-8"?>
<!-- Generator: Adobe Illustrator 24.3.0, SVG Export Plug-In . SVG Version: 6.00 Build 0)  -->
<svg version="1.1" xmlns="http://www.w3.org/2000/svg" xmlns:xlink="http://www.w3.org/1999/xlink" x="0px" y="0px"
	 viewBox="0 0 64 64" style="enable-background:new 0 0 64 64;" xml:space="preserve">
<style type="text/css">
	.st0{fill:none;stroke:#7B5744;stroke-width:3;stroke-linecap:round;stroke-linejoin:round;stroke-miterlimit:10;}
	.st1{fill:none;stroke:#AF8A6D;stroke-width:3;stroke-linecap:round;stroke-linejoin:round;stroke-miterlimit:10;}
	.st2{fill:none;stroke:#A7C349;stroke-width:3;stroke-linecap:round;stroke-linejoin:round;stroke-miterlimit:10;}
	.st3{fill:none;}
</style>
<g id="图层_0">
</g>
<g id="图层_1">
	<path class="st0" d="M49.2,50c1,0.7,2.8,1.7,2.4,3.9c-1.5,4.7-5.9,7.9-10.8,8c-7.2,0-16-5.7-23.7-13.4S3.7,32,3.7,24.8
		c0.1-4.9,3.3-9.3,8-10.8c2.2-0.3,3.2,1.4,3.9,2.4l5.4,8.3c1.1,1.7,0.6,4-1,5.2c-2.3,1.9-6.2,4.2,2.6,13s11.1,4.9,13,2.6
		c1.2-1.6,3.5-2.1,5.2-1L49.2,50z"/>
	<path class="st1" d="M59.3,2.1H31.2c-1.4,0-2.6,1.3-2.6,2.7V4.5v18.8c0,1.4,1.2,2.6,2.6,2.6h0h7.4v7l7-7h13.7
		c1.4,0,2.6-1.2,2.6-2.6V4.7C61.9,3.3,60.7,2.1,59.3,2.1z"/>
	<circle class="st2" cx="44.9" cy="14" r="1"/>
	<circle class="st2" cx="37.3" cy="14" r="1"/>
	<circle class="st2" cx="52.6" cy="14" r="1"/>
	<rect x="0" class="st3" width="64" height="64"/>
</g>
</svg>
