<?xml version="1.0" encoding="utf-8"?>
<!-- Generator: Adobe Illustrator 24.3.0, SVG Export Plug-In . SVG Version: 6.00 Build 0)  -->
<svg version="1.1" id="图层_1" xmlns="http://www.w3.org/2000/svg" xmlns:xlink="http://www.w3.org/1999/xlink" x="0px" y="0px"
	 viewBox="0 0 323.3 323.3" style="enable-background:new 0 0 323.3 323.3;" xml:space="preserve">
<style type="text/css">
	.st0{fill:#BB474B;}
	.st1{fill:#A7C349;}
	.st2{fill:#E0EDF2;stroke:#E0EDF2;stroke-width:0.2835;stroke-miterlimit:10;}
	.st3{fill:none;stroke:#AF8A6D;stroke-width:7.0866;stroke-miterlimit:10;}
	.st4{fill:none;stroke:#7B5744;stroke-width:5.6693;stroke-miterlimit:10;}
	.st5{fill:none;stroke:#EEDFBE;stroke-width:8.5039;stroke-miterlimit:10;}
	.st6{fill:#E0EDF2;stroke:#E0EDF2;stroke-width:0.1417;stroke-miterlimit:10;}
	.st7{fill:#E0EDF2;stroke:#E0EDF2;stroke-width:0.4252;stroke-miterlimit:10;}
	.st8{fill:#E0EDF2;stroke:#E0EDF2;stroke-width:0.5669;stroke-miterlimit:10;}
	.st9{fill:#E0EDF2;stroke:#E0EDF2;stroke-width:0.7087;stroke-miterlimit:10;}
	.st10{fill:#E0EDF2;}
	.st11{fill:none;}
</style>
<g>
	<path class="st0" d="M203.9,104c-0.8,0-1.6-0.5-2-1.3l-6.1-13.9c-0.1-0.3-0.2-0.6-0.2-0.9c0-0.8,0.5-1.6,1.3-1.9
		c1-0.5,2.3,0,2.8,1.1l6.1,13.9c0.1,0.3,0.2,0.6,0.2,0.9c0,0.8-0.5,1.6-1.3,1.9C204.5,104,204.2,104,203.9,104z"/>
	<path class="st1" d="M93.8,153c-0.5,0-0.9-0.1-1.3-0.4c-0.5-0.4-0.9-1-0.9-1.7c0-0.5,0.2-0.9,0.4-1.3l7.3-9.6
		c0.7-0.9,2.1-1.1,3-0.4c0.5,0.4,0.9,1,0.9,1.7c0,0.5-0.2,0.9-0.4,1.3l-7.3,9.6C95.1,152.7,94.5,153,93.8,153z"/>
	<path class="st2" d="M214.8,230.4c-0.1,0-0.1,0-0.2,0l-12-1.4c-1.1-0.1-1.9-1-1.9-2.1c0-0.1,0-0.1,0-0.2c0.1-1.2,1.2-2,2.3-1.9
		l12,1.4c1.1,0.1,1.9,1,1.9,2.1c0,0.1,0,0.1,0,0.2C216.8,229.5,215.9,230.4,214.8,230.4z"/>
	<g>
		<path class="st3" d="M118.7,197.8c-6.2,0-11.9-4.1-13.6-10.4l-13.3-47.7c-4.8-17.4,0.1-36,13-48.6l62.1-61.1
			c5.6-5.5,14.6-5.4,20,0.1c5.5,5.6,5.4,14.5-0.1,20l-62.1,61.1c-5.5,5.4-7.6,13.4-5.6,20.8l13.3,47.7c2.1,7.5-2.3,15.4-9.8,17.5
			C121.2,197.6,119.9,197.8,118.7,197.8z"/>
	</g>
	<g>
		<path class="st4" d="M161.7,248.9c-3.6,0-7.2-0.4-10.8-1.2L46.2,224.5c-7.6-1.7-12.5-9.3-10.8-16.9c1.7-7.6,9.3-12.5,16.9-10.8
			L157,220.1c8.3,1.8,16.9-1.4,21.8-8.3l24.8-34.3c4.6-6.3,13.4-7.8,19.8-3.2s7.8,13.4,3.2,19.8l-24.8,34.3
			C192.4,241.4,177.4,248.9,161.7,248.9z"/>
	</g>
	<g>
		<path class="st5" d="M261.4,247.4c-6.8,0-12.9-5-14-11.9l-15-94.1c-1.5-9.3-9.1-16.6-18.4-17.8l-44.6-5.4
			c-7.8-0.9-13.3-8-12.4-15.8c0.9-7.8,8-13.3,15.8-12.4l44.6,5.4c21.9,2.6,39.5,19.7,43,41.4l15,94.1c1.2,7.7-4,15-11.8,16.2
			C262.9,247.3,262.2,247.4,261.4,247.4z"/>
	</g>
	<path class="st0" d="M252.5,214.9c-0.8,0-1.6-0.5-1.9-1.3l-6.1-13.9c-0.1-0.3-0.2-0.6-0.2-0.9c0-0.8,0.5-1.6,1.3-1.9
		c1.1-0.5,2.3,0.1,2.8,1.1l6.1,13.9c0.2,0.5,0.2,1.1,0,1.6c-0.2,0.5-0.6,0.9-1.1,1.2C253.1,214.9,252.8,214.9,252.5,214.9z"/>
	<path class="st0" d="M240.4,187.2c-0.9,0-1.6-0.5-2-1.3l-6.1-13.9c-0.1-0.3-0.2-0.6-0.2-0.9c0-0.8,0.5-1.6,1.3-1.9
		c1-0.5,2.3,0,2.8,1.1l6.1,13.9c0.1,0.3,0.2,0.6,0.2,0.9c0,0.8-0.5,1.6-1.3,1.9C240.9,187.2,240.7,187.2,240.4,187.2z"/>
	<path class="st0" d="M228.2,159.5c-0.9,0-1.6-0.5-2-1.3l-6.1-13.9c-0.1-0.3-0.2-0.6-0.2-0.9c0-0.8,0.5-1.6,1.3-1.9
		c1.1-0.5,2.3,0.1,2.8,1.1l6.1,13.9c0.1,0.3,0.2,0.6,0.2,0.9c0,0.8-0.5,1.6-1.3,1.9C228.8,159.4,228.5,159.5,228.2,159.5z"/>
	<path class="st0" d="M216,131.8c-0.8,0-1.6-0.5-2-1.3l-6.1-13.9c-0.1-0.3-0.2-0.6-0.2-0.9c0-0.8,0.5-1.6,1.3-1.9
		c1-0.5,2.3,0,2.8,1.1l6.1,13.9c0.1,0.3,0.2,0.6,0.2,0.9c0,0.8-0.5,1.6-1.3,1.9C216.6,131.7,216.3,131.8,216,131.8z"/>
	<path class="st0" d="M191.7,76.3c-0.8,0-1.6-0.5-2-1.3l-6.1-13.9c-0.1-0.3-0.2-0.6-0.2-0.9c0-0.8,0.5-1.6,1.3-1.9
		c1-0.5,2.3,0,2.8,1.1l6.1,13.9c0.1,0.3,0.2,0.6,0.2,0.9c0,0.8-0.5,1.6-1.3,1.9C192.3,76.3,192,76.3,191.7,76.3z"/>
	<path class="st0" d="M179.6,48.6c-0.8,0-1.6-0.5-1.9-1.3c-0.1-0.3-0.2-0.6-0.2-0.9c0-0.8,0.5-1.6,1.3-1.9c1-0.5,2.3,0.1,2.8,1.1
		c0.1,0.3,0.2,0.6,0.2,0.9c0,0.8-0.5,1.6-1.3,1.9C180.1,48.5,179.9,48.6,179.6,48.6z"/>
	<g>
		<path class="st0" d="M179.6,48.6c-0.8,0-1.6-0.5-1.9-1.3l-2.8-6.5c-0.5-1.1,0-2.3,1.1-2.8c1.1-0.5,2.3,0,2.8,1.1l2.8,6.5
			c0.5,1.1,0,2.3-1.1,2.8C180.1,48.5,179.9,48.6,179.6,48.6z"/>
	</g>
	<path class="st6" d="M241.2,233.2c-0.1,0-0.1,0-0.2,0l-13.2-1.4c-1.1-0.1-1.9-1-1.9-2.1c0-0.1,0-0.1,0-0.2c0.1-1.2,1.2-2,2.3-1.9
		l13.2,1.4c1.1,0.1,1.9,1,1.9,2.1c0,0.1,0,0.1,0,0.2C243.2,232.3,242.3,233.2,241.2,233.2z"/>
	<path class="st7" d="M188.4,227.6c-0.1,0-0.2,0-0.2,0l-13.2-1.4c-1.1-0.1-1.9-1-1.9-2.1c0-0.1,0-0.1,0-0.2c0.1-1.2,1.2-2,2.3-1.9
		l13.2,1.4c1.1,0.1,1.9,1,1.9,2.1c0,0.1,0,0.1,0,0.2C190.4,226.7,189.5,227.6,188.4,227.6z"/>
	<path class="st8" d="M161.9,224.7c-0.1,0-0.1,0-0.2,0l-13.2-1.4c-1.1-0.1-1.9-1-1.9-2.1c0-0.1,0-0.1,0-0.2c0.1-1.2,1.2-2,2.3-1.9
		l13.2,1.4c1.1,0.1,1.9,1,1.9,2.1c0,0.1,0,0.2,0,0.2C163.9,223.9,163,224.7,161.9,224.7z"/>
	<path class="st8" d="M135.5,221.9c-0.1,0-0.2,0-0.2,0l-13.2-1.4c-1.1-0.1-1.9-1-1.9-2.1c0-0.1,0-0.2,0-0.2c0.1-1.2,1.2-2,2.3-1.9
		l13.2,1.4c1.1,0.1,1.9,1,1.9,2.1c0,0.1,0,0.1,0,0.2C137.5,221.1,136.6,221.9,135.5,221.9z"/>
	<path class="st9" d="M109.1,219.1c-0.1,0-0.2,0-0.2,0l-13.2-1.4c-1.1-0.1-1.9-1-1.9-2.1c0-0.1,0-0.2,0-0.2c0.1-1.2,1.2-2,2.3-1.9
		l13.2,1.4c1.1,0.1,1.9,1,1.9,2.1c0,0.1,0,0.1,0,0.2C111.1,218.3,110.2,219.1,109.1,219.1z"/>
	<path class="st9" d="M82.7,216.3c-0.1,0-0.1,0-0.2,0l-13.2-1.4c-1.2-0.1-2-1.2-1.9-2.3s1.2-2,2.3-1.9l13.2,1.4
		c1.1,0.1,1.9,1,1.9,2.1c0,0.1,0,0.1,0,0.2C84.7,215.5,83.8,216.3,82.7,216.3z"/>
	<g>
		<path class="st10" d="M261.4,235.3c-0.1,0-0.2,0-0.2,0l-7-0.7c-1.2-0.1-2-1.2-1.9-2.3c0.1-1.2,1.2-2,2.3-1.9l7,0.7
			c1.2,0.1,2,1.2,1.9,2.3C263.4,234.5,262.5,235.3,261.4,235.3z"/>
	</g>
	<g>
		<path class="st1" d="M172.5,47.8c-0.4,0-0.9-0.1-1.3-0.4c-0.9-0.7-1.1-2-0.4-3l4.2-5.7c0.7-0.9,2-1.1,3-0.4c0.9,0.7,1.1,2,0.4,3
			l-4.2,5.7C173.8,47.5,173.1,47.8,172.5,47.8z"/>
	</g>
	<g>
		<path class="st1" d="M171.2,47.4c-0.9-0.7-1.1-2-0.4-3l0,0c0.7-0.9,2-1.1,3-0.4l0,0c0.9,0.7,1.1,2,0.4,3l0,0
			c-0.4,0.6-1.1,0.9-1.7,0.9l0,0C172,47.8,171.6,47.6,171.2,47.4z"/>
	</g>
	<path class="st1" d="M53.5,207.1c-0.5,0-0.9-0.2-1.3-0.4c-0.5-0.4-0.9-1-0.9-1.7c0-0.5,0.2-0.9,0.4-1.3c0.7-0.9,2.1-1.1,3-0.4
		c0.5,0.4,0.9,1,0.9,1.7c0,0.5-0.1,0.9-0.4,1.3C54.8,206.8,54.2,207.1,53.5,207.1z"/>
	<path class="st1" d="M61.4,196.5c-0.5,0-0.9-0.2-1.3-0.4c-0.5-0.4-0.8-1-0.8-1.7c0-0.5,0.1-0.9,0.4-1.3l7.9-10.6
		c0.7-0.9,2.1-1.1,3-0.4c0.5,0.4,0.8,1,0.8,1.7c0,0.5-0.1,0.9-0.4,1.3l-7.9,10.6C62.7,196.2,62.1,196.5,61.4,196.5z"/>
	<path class="st1" d="M77.3,175.2c-0.5,0-0.9-0.2-1.3-0.4c-0.5-0.4-0.9-1-0.9-1.7c0-0.5,0.1-0.9,0.4-1.3l7.9-10.6
		c0.7-0.9,2.1-1.1,3-0.4c0.5,0.4,0.9,1,0.9,1.7c0,0.5-0.1,0.9-0.4,1.3L79,174.4C78.6,174.9,78,175.2,77.3,175.2z"/>
	<path class="st1" d="M109,132.8c-0.5,0-0.9-0.1-1.3-0.4c-0.5-0.4-0.8-1-0.8-1.7c0-0.5,0.2-0.9,0.4-1.3l7.9-10.6
		c0.7-0.9,2.1-1.1,3-0.4c0.5,0.4,0.9,1,0.9,1.7c0,0.5-0.2,0.9-0.4,1.3l-7.9,10.6C110.3,132.4,109.7,132.8,109,132.8z"/>
	<path class="st1" d="M124.9,111.5c-0.5,0-0.9-0.1-1.3-0.4c-0.5-0.4-0.8-1-0.8-1.7c0-0.5,0.1-0.9,0.4-1.3l7.9-10.6
		c0.7-0.9,2.1-1.1,3-0.4c0.5,0.4,0.8,1,0.8,1.7c0,0.5-0.1,0.9-0.4,1.3l-7.9,10.6C126.2,111.2,125.5,111.5,124.9,111.5z"/>
	<path class="st1" d="M140.7,90.3c-0.5,0-0.9-0.1-1.3-0.4c-0.5-0.4-0.9-1-0.9-1.7c0-0.5,0.1-0.9,0.4-1.3l7.9-10.6
		c0.7-0.9,2.1-1.1,3-0.4c0.5,0.4,0.8,1,0.8,1.7c0,0.5-0.1,0.9-0.4,1.3l-7.9,10.6C142,90,141.4,90.3,140.7,90.3z"/>
	<path class="st1" d="M156.6,69c-0.5,0-0.9-0.1-1.3-0.4c-0.5-0.4-0.9-1-0.9-1.7c0-0.5,0.2-0.9,0.4-1.3l7.9-10.6
		c0.7-0.9,2.1-1.1,3-0.4c0.9,0.7,1.1,2,0.4,3l-7.9,10.6C157.9,68.7,157.3,69,156.6,69z"/>
	<g>
		<path class="st1" d="M49.2,212.8c-0.4,0-0.9-0.1-1.3-0.4c-0.9-0.7-1.1-2-0.4-3l4.2-5.7c0.7-0.9,2-1.1,3-0.4c0.9,0.7,1.1,2,0.4,3
			l-4.2,5.7C50.5,212.5,49.9,212.8,49.2,212.8z"/>
	</g>
	<g>
		<path class="st0" d="M261.4,235.3c-0.8,0-1.6-0.5-1.9-1.3l-2.8-6.5c-0.5-1.1,0-2.3,1.1-2.8c1.1-0.5,2.3,0,2.8,1.1l2.8,6.5
			c0.5,1.1,0,2.3-1.1,2.8C262,235.2,261.7,235.3,261.4,235.3z"/>
	</g>
	<g>
		<path class="st9" d="M56.3,213.5c-0.1,0-0.2,0-0.2,0l-7-0.7c-1.2-0.1-2-1.2-1.9-2.3c0.1-1.2,1.2-2,2.3-1.9l7,0.7
			c1.2,0.1,2,1.2,1.9,2.3C58.3,212.7,57.4,213.5,56.3,213.5z"/>
	</g>
</g>
<path class="st11" d="M181.5,1.2c56.6,7,105.4,43.3,128.3,95.6s16.6,112.7-16.6,159.1c-33.9,47.3-90.6,72.8-148.5,66.6
	c-57.9-6.1-108-42.9-131.2-96.3C-9.7,173-2.6,111.5,32.2,65S123.9-5.9,181.5,1.2z"/>
<rect class="st11" width="323.3" height="323.3"/>
</svg>
