<?xml version="1.0" encoding="utf-8"?>
<!-- Generator: Adobe Illustrator 24.3.0, SVG Export Plug-In . SVG Version: 6.00 Build 0)  -->
<svg version="1.1" id="图层_1" xmlns="http://www.w3.org/2000/svg" xmlns:xlink="http://www.w3.org/1999/xlink" x="0px" y="0px"
	 viewBox="0 0 323.3 323.3" style="enable-background:new 0 0 323.3 323.3;" xml:space="preserve">
<style type="text/css">
	.st0{fill:none;stroke:#AF8A6D;stroke-width:7.0866;stroke-miterlimit:10;}
	.st1{fill:none;stroke:#7B5744;stroke-width:5.6693;stroke-miterlimit:10;}
	.st2{fill:none;stroke:#EEDFBE;stroke-width:8.5039;stroke-miterlimit:10;}
	.st3{fill:none;}
</style>
<path class="st0" d="M186.8,30c5.5,5.6,5.4,14.5-0.1,20l-62.1,61.1c-5.5,5.4-7.6,13.4-5.6,20.8l13.3,47.7c2.1,7.5-2.3,15.4-9.8,17.5
	c-1.3,0.4-2.6,0.5-3.8,0.5"/>
<path class="st1" d="M35.4,207.6c1.7-7.6,9.3-12.5,16.9-10.8L157,220.1c8.3,1.8,16.9-1.4,21.8-8.3l24.8-34.3
	c4.6-6.3,13.4-7.8,19.8-3.2"/>
<path class="st2" d="M263.7,247.2c-0.8,0.1-1.5,0.2-2.3,0.2c-6.8,0-12.9-5-14-11.9l-15-94.1c-1.5-9.3-9.1-16.6-18.4-17.8l-44.6-5.4
	c-7.8-0.9-13.3-8-12.4-15.8"/>
<rect class="st3" width="323.3" height="323.3"/>
</svg>
