<?xml version="1.0" encoding="utf-8"?>
<!-- Generator: Adobe Illustrator 24.3.0, SVG Export Plug-In . SVG Version: 6.00 Build 0)  -->
<svg version="1.1" id="图层_1" xmlns="http://www.w3.org/2000/svg" xmlns:xlink="http://www.w3.org/1999/xlink" x="0px" y="0px"
	 viewBox="0 0 323.3 323.3" style="enable-background:new 0 0 323.3 323.3;" xml:space="preserve">
<style type="text/css">
	.st0{fill:none;stroke:#AF8A6D;stroke-width:7.0866;stroke-miterlimit:10;}
	.st1{fill:none;stroke:#7B5744;stroke-width:5.6693;stroke-miterlimit:10;}
	.st2{fill:none;stroke:#EEDFBE;stroke-width:8.5039;stroke-miterlimit:10;}
</style>
<g>
	<path class="st0" d="M118.7,197.8c-6.2,0-11.9-4.1-13.6-10.4l-13.3-47.7c-4.8-17.4,0.1-36,13-48.6l62.1-61.1
		c5.6-5.5,14.6-5.4,20,0.1"/>
	<path class="st1" d="M223.4,174.2c6.3,4.6,7.8,13.4,3.2,19.8l-24.8,34.3c-9.5,13.1-24.5,20.6-40.2,20.6c-3.6,0-7.2-0.4-10.8-1.2
		L46.2,224.5c-7.6-1.7-12.5-9.3-10.8-16.9"/>
	<path class="st2" d="M157,102.4c0.9-7.8,8-13.3,15.8-12.4l44.6,5.4c21.9,2.6,39.5,19.7,43,41.4l15,94.1c1.2,7.7-4,15-11.8,16.2"/>
</g>
</svg>
